<svg height="512" viewBox="0 0 512 512" width="512" xmlns="http://www.w3.org/2000/svg"><g><g fill="#57a4ff"><path d="m40 88h24v120h-24z"/><path d="m331.88 196.12a96 96 0 1 0 0 135.76 96 96 0 0 0 0-135.76zm-16.97 118.79a72 72 0 1 1 0-101.82 71.992 71.992 0 0 1 0 101.82z"/><path d="m456.33 445.02-11.31 11.31a16 16 0 0 1 -22.63 0l-84.85-84.85 5.66-5.66 22.62-22.62 5.66-5.66 84.85 84.85a16 16 0 0 1 0 22.63z"/><path d="m432 168h32v176h-32z"/><path d="m496 32v32h-480v-32a16 16 0 0 1 16-16h448a16 16 0 0 1 16 16z"/><g><path d="m331.88 196.12a96 96 0 1 0 0 135.76 96 96 0 0 0 0-135.76zm-16.97 118.79a72 72 0 1 1 0-101.82 71.992 71.992 0 0 1 0 101.82z"/><path d="m456.33 445.02-11.31 11.31a16 16 0 0 1 -22.63 0l-84.85-84.85 5.66-5.66 22.62-22.62 5.66-5.66 84.85 84.85a16 16 0 0 1 0 22.63z"/></g><path d="m40 88h24v120h-24z"/><path d="m432 168h32v176h-32z"/></g><g fill="#004fac"><path d="m480 8h-448a24.032 24.032 0 0 0 -24 24v448a24.032 24.032 0 0 0 24 24h448a24.032 24.032 0 0 0 24-24v-448a24.032 24.032 0 0 0 -24-24zm8 472a8.011 8.011 0 0 1 -8 8h-448a8.011 8.011 0 0 1 -8-8v-408h464zm0-424h-464v-24a8.011 8.011 0 0 1 8-8h448a8.011 8.011 0 0 1 8 8z"/><circle cx="48" cy="40" r="8"/><circle cx="72" cy="40" r="8"/><circle cx="96" cy="40" r="8"/><path d="m461.99 416.73-84.85-84.85a8.015 8.015 0 0 0 -11.32 0l-13.27-13.27a104.307 104.307 0 0 0 3.42-103.26l92.03-92.04v12.69a8 8 0 0 0 16 0v-32a8 8 0 0 0 -8-8h-32a8 8 0 0 0 0 16h12.69l-89.53 89.53a104.632 104.632 0 0 0 -9.62-11.07 104 104 0 0 0 -148.15 145.98 8.059 8.059 0 0 0 -3.05 1.9l-18.34 18.35-18.34-18.35a8.015 8.015 0 0 0 -11.32 0l-68 68a8 8 0 0 0 11.32 11.32l62.34-62.35 18.34 18.35a8.015 8.015 0 0 0 11.32 0l24-24a7.981 7.981 0 0 0 2.12-3.84 104.141 104.141 0 0 0 118.83 6.73l13.27 13.27a8.015 8.015 0 0 0 0 11.32l84.86 84.85a24.021 24.021 0 0 0 33.94 0l11.31-11.31a24.034 24.034 0 0 0 0-33.95zm-135.77-90.51a87.983 87.983 0 1 1 9.48-113.23l-5.75 5.75a79.995 79.995 0 1 0 -122.52 101.83 79.994 79.994 0 0 0 130.48-87.16l6.1-6.11a88.08 88.08 0 0 1 -17.79 98.92zm-95.56-9.56 57.34-57.35 6.34 6.35a8.015 8.015 0 0 0 11.32 0l19.72-19.73a63.989 63.989 0 0 1 -96.1 71.83 8.434 8.434 0 0 0 1.38-1.1zm-11.32-11.32a8.021 8.021 0 0 0 -1.77 2.68 63.987 63.987 0 1 1 100.82-77.73l-18.39 18.4-6.34-6.35a8.015 8.015 0 0 0 -11.32 0zm112.54 37.86 11.32-11.32 11.31 11.32-11.31 11.31zm118.8 96.16-11.32 11.32a8.012 8.012 0 0 1 -11.31 0l-79.2-79.2 22.63-22.63 79.2 79.2a8.021 8.021 0 0 1 0 11.31z"/><path d="m50.343 426.343-8 8a8 8 0 0 0 11.314 11.314l8-8a8 8 0 0 0 -11.314-11.314z"/><path d="m91.056 240 13.789 27.578a8 8 0 0 0 7.155 4.422h32a8 8 0 0 0 0-16h-27.056l-13.789-27.578a8 8 0 0 0 -7.155-4.422h-56a8 8 0 0 0 0 16z"/><path d="m264 408a8 8 0 0 0 -8 8v48a8 8 0 0 0 16 0v-48a8 8 0 0 0 -8-8z"/><path d="m40 216h24a8 8 0 0 0 8-8v-120a8 8 0 0 0 -8-8h-24a8 8 0 0 0 -8 8v120a8 8 0 0 0 8 8zm8-120h8v104h-8z"/><path d="m88 216h24a8 8 0 0 0 8-8v-72a8 8 0 0 0 -8-8h-24a8 8 0 0 0 -8 8v72a8 8 0 0 0 8 8zm8-72h8v56h-8z"/><path d="m88 96h72a8 8 0 0 0 0-16h-72a8 8 0 0 0 0 16z"/><path d="m88 120h40a8 8 0 0 0 0-16h-40a8 8 0 0 0 0 16z"/><path d="m464 160h-32a8 8 0 0 0 -8 8v176a8 8 0 0 0 8 8h32a8 8 0 0 0 8-8v-176a8 8 0 0 0 -8-8zm-8 24a8 8 0 0 0 0 16v16a8 8 0 0 0 0 16v16a8 8 0 0 0 0 16v16a8 8 0 0 0 0 16v16a8 8 0 0 0 0 16v8h-16v-160h16z"/></g></g></svg>