<?xml version="1.0" encoding="iso-8859-1"?>
<!-- Generator: Adobe Illustrator 19.0.0, SVG Export Plug-In . SVG Version: 6.00 Build 0)  -->
<svg version="1.1" id="Capa_1" xmlns="http://www.w3.org/2000/svg" xmlns:xlink="http://www.w3.org/1999/xlink" x="0px" y="0px"
	 viewBox="0 0 512 512" style="enable-background:new 0 0 512 512;" xml:space="preserve">
<path style="fill:#D1E7F8;" d="M0,102.535v305.669c0,22.058,17.882,39.939,39.939,39.939L512,448.107V102.535H0z"/>
<path style="fill:#1E81CE;" d="M463.356,143.472h-187.24H260.44h-28.542c-4.327,0-7.838,3.501-7.838,7.838
	c0,4.327,3.512,7.838,7.838,7.838h28.542v104.855H156.975V159.148h43.57c4.327,0,7.838-3.512,7.838-7.838
	c0-4.337-3.512-7.838-7.838-7.838h-51.408c-4.337,0-7.838,3.501-7.838,7.838v176.967c0,40.435,32.889,73.335,73.324,73.335h45.817
	h15.676h187.24c4.337,0,7.838-3.512,7.838-7.838V151.31C471.194,146.973,467.693,143.472,463.356,143.472z M387.241,159.148v57.477
	H276.116v-57.477H387.241z M214.622,385.934c-31.792,0-57.648-25.866-57.648-57.658v-48.597H260.44v106.255H214.622z
	 M455.518,385.934H276.116V232.302H395.08c4.33,0,7.838-3.508,7.838-7.838v-65.316h52.6L455.518,385.934L455.518,385.934z"/>
<path style="fill:#78B9EB;" d="M110.541,63.856v306.527H38.44c-2.404,0-4.766,0.219-7.054,0.648
	c-16.283,3.052-29.043,16.46-31.081,33.088H0.012V103.967h0.031c-0.01-0.387-0.031-0.773-0.031-1.16v-0.523
	c0-18.728,13.576-34.436,31.374-37.77c2.289-0.439,4.651-0.658,7.054-0.658L110.541,63.856L110.541,63.856z"/>
<path style="fill:#5AAAE7;" d="M31.385,64.514v306.517c-16.283,3.052-29.043,16.46-31.081,33.088H0.011V103.967h0.031
	c-0.01-0.387-0.031-0.773-0.031-1.16v-0.523C0.011,83.556,13.587,67.848,31.385,64.514z"/>
<g>
</g>
<g>
</g>
<g>
</g>
<g>
</g>
<g>
</g>
<g>
</g>
<g>
</g>
<g>
</g>
<g>
</g>
<g>
</g>
<g>
</g>
<g>
</g>
<g>
</g>
<g>
</g>
<g>
</g>
</svg>
