<svg id="Capa_1" enable-background="new 0 0 512 512" height="512" viewBox="0 0 512 512" width="512" xmlns="http://www.w3.org/2000/svg"><g><g><path d="m256 0c-141.385 0-256 114.615-256 256 0 56.257 18.161 108.265 48.92 150.512l56.568 56.568c42.247 30.759 94.255 48.92 150.512 48.92 141.385 0 256-114.615 256-256s-114.615-256-256-256z" fill="#ff4155"/></g><g><path d="m110.777 329.12h84.206v60h-84.206z" fill="#e9efff" transform="matrix(.707 -.707 .707 .707 -209.158 213.286)"/></g><g><path d="m103.64 365.934c-3.905-3.905-10.237-3.905-14.142 0l-40.578 40.577c15.785 21.68 34.888 40.784 56.569 56.569l40.578-40.578c3.905-3.905 3.905-10.237 0-14.142z" fill="#3c58a0"/></g><g><path d="m131.924 394.218-28.284-28.284c-3.905-3.905-10.237-3.905-14.142 0l-40.578 40.577c7.893 10.84 16.601 21.048 26.061 30.508l42.801-42.801c3.905-3.905 10.237-3.905 14.142 0z" fill="#1c2e7a"/></g><g><circle cx="302" cy="210" fill="#3c58a0" r="210"/></g><g><path d="m282 400c0-11.046 8.954-20 20-20v-340c-11.046 0-20-8.954-20-20s8.954-20 20-20c-115.98 0-210 94.02-210 210s94.02 210 210 210c-11.046 0-20-8.954-20-20z" fill="#1c2e7a"/></g><g><circle cx="302" cy="210" fill="#49d88b" r="170"/></g><g><path d="m191.783 228.818h-35.288c-4.142 0-7.5-3.358-7.5-7.5 0-4.142 3.358-7.5 7.5-7.5h35.288c4.142 0 7.5 3.358 7.5 7.5 0 4.142-3.358 7.5-7.5 7.5z" fill="#73f9a9"/></g><g><path d="m264.306 168.985h-86.591c-4.142 0-7.5-3.358-7.5-7.5 0-4.142 3.358-7.5 7.5-7.5h86.591c4.142 0 7.5 3.358 7.5 7.5 0 4.142-3.358 7.5-7.5 7.5z" fill="#73f9a9"/></g><g><path d="m376.569 89.667h-72.618c-4.142 0-7.5-3.358-7.5-7.5 0-4.142 3.358-7.5 7.5-7.5h72.618c4.142 0 7.5 3.358 7.5 7.5 0 4.142-3.358 7.5-7.5 7.5z" fill="#73f9a9"/></g><g><path d="m431.202 269.239h-64.312c-4.142 0-7.5-3.358-7.5-7.5 0-4.142 3.358-7.5 7.5-7.5h64.312c4.142 0 7.5 3.358 7.5 7.5 0 4.142-3.358 7.5-7.5 7.5z" fill="#73f9a9"/></g><g><g><g><path d="m252.003 125.763c-2.076 0-4.141-.856-5.623-2.534l-7.596-8.596c-2.743-3.104-2.45-7.844.654-10.586s7.844-2.45 10.586.654l7.596 8.596c2.743 3.104 2.45 7.844-.654 10.586-1.426 1.26-3.198 1.88-4.963 1.88z" fill="#112360"/></g></g><g><g><path d="m252 154.316c-4.142 0-7.5-3.358-7.5-7.5v-28.553c0-4.142 3.358-7.5 7.5-7.5s7.5 3.358 7.5 7.5v28.553c0 4.142-3.358 7.5-7.5 7.5z" fill="#1c2e7a"/></g></g><g><g><path d="m301.993 182.764c-1.257 0-2.531-.316-3.702-.982l-50-28.447c-3.6-2.048-4.858-6.627-2.81-10.228 2.049-3.601 6.627-4.858 10.228-2.81l50 28.447c3.6 2.048 4.858 6.627 2.81 10.228-1.382 2.429-3.917 3.792-6.526 3.792z" fill="#2a428c"/></g></g><g><g><path d="m202.624 261.739c-2.682 0-5.276-1.442-6.625-3.975-1.948-3.656-.563-8.198 3.093-10.146l10.34-5.508c3.656-1.946 8.198-.562 10.146 3.093 1.947 3.656.563 8.198-3.093 10.146l-10.34 5.508c-1.124.598-2.332.882-3.521.882z" fill="#112360"/></g></g><g><g><path d="m212.957 256.231c-.864 0-1.742-.15-2.6-.467-3.885-1.437-5.87-5.75-4.434-9.636l21.447-58.008c1.436-3.885 5.749-5.87 9.636-4.434 3.885 1.437 5.87 5.75 4.434 9.636l-21.447 58.008c-1.12 3.027-3.987 4.901-7.036 4.901z" fill="#1c2e7a"/></g></g><g><g><path d="m302 198.221h-67.595c-4.142 0-7.5-3.358-7.5-7.5s3.358-7.5 7.5-7.5h67.595c4.142 0 7.5 3.358 7.5 7.5s-3.358 7.5-7.5 7.5z" fill="#2a428c"/></g></g><g><g><path d="m258.058 337.833c-1.919 0-3.839-.732-5.303-2.197-2.929-2.929-2.929-7.678 0-10.606l10-10c2.929-2.929 7.678-2.929 10.606 0 2.929 2.929 2.929 7.678 0 10.606l-10 10c-1.464 1.464-3.383 2.197-5.303 2.197z" fill="#112360"/></g></g><g><g><path d="m268.063 327.835c-2.79 0-5.469-1.563-6.761-4.245l-30-62.234c-1.799-3.731-.232-8.214 3.499-10.013 3.733-1.798 8.214-.232 10.013 3.499l30 62.234c1.799 3.731.232 8.214-3.499 10.013-1.05.506-2.159.746-3.252.746z" fill="#1c2e7a"/></g></g><g><g><path d="m238.059 265.598c-1.958 0-3.914-.762-5.385-2.279-2.883-2.974-2.81-7.722.164-10.605l60-58.17c2.975-2.883 7.722-2.81 10.605.164s2.81 7.722-.164 10.605l-60 58.17c-1.457 1.412-3.34 2.115-5.22 2.115z" fill="#2a428c"/></g></g><g><g><path d="m279.645 113.72c-4.142 0-7.5-3.358-7.5-7.5v-16.553c0-4.142 3.358-7.5 7.5-7.5s7.5 3.358 7.5 7.5v16.553c0 4.143-3.358 7.5-7.5 7.5z" fill="#112360"/></g></g><g><g><path d="m301.995 131.849c-1.66 0-3.33-.548-4.72-1.675l-22.354-18.128c-3.217-2.609-3.71-7.332-1.101-10.549 2.608-3.217 7.332-3.71 10.549-1.101l22.354 18.128c3.217 2.609 3.71 7.332 1.101 10.549-1.481 1.827-3.646 2.776-5.829 2.776z" fill="#2a428c"/></g></g><g><g><path d="m351.997 125.763c-1.765 0-3.537-.619-4.963-1.88-3.104-2.743-3.396-7.482-.654-10.586l7.596-8.596c2.743-3.104 7.481-3.397 10.586-.654 3.104 2.743 3.396 7.482.654 10.586l-7.596 8.596c-1.482 1.677-3.548 2.534-5.623 2.534z" fill="#112360"/></g></g><g><g><path d="m352 154.316c-4.142 0-7.5-3.358-7.5-7.5v-28.553c0-4.142 3.358-7.5 7.5-7.5s7.5 3.358 7.5 7.5v28.553c0 4.142-3.358 7.5-7.5 7.5z" fill="#1c2e7a"/></g></g><g><g><path d="m302.007 182.764c-2.609 0-5.144-1.363-6.526-3.792-2.048-3.601-.79-8.18 2.81-10.228l50-28.447c3.6-2.048 8.18-.791 10.228 2.81s.79 8.18-2.81 10.228l-50 28.447c-1.171.666-2.445.982-3.702.982z" fill="#2a428c"/></g></g><g><g><path d="m401.376 261.739c-1.19 0-2.396-.284-3.52-.882l-10.34-5.508c-3.656-1.948-5.041-6.49-3.093-10.146 1.948-3.655 6.491-5.039 10.146-3.093l10.34 5.508c3.656 1.948 5.041 6.49 3.093 10.146-1.349 2.532-3.943 3.975-6.626 3.975z" fill="#112360"/></g></g><g><g><path d="m391.043 256.231c-3.05 0-5.916-1.874-7.036-4.901l-21.447-58.008c-1.437-3.885.549-8.199 4.434-9.636 3.887-1.435 8.199.549 9.636 4.434l21.447 58.008c1.437 3.885-.549 8.199-4.434 9.636-.857.316-1.736.467-2.6.467z" fill="#1c2e7a"/></g></g><g><g><path d="m369.596 198.221h-67.596c-4.142 0-7.5-3.358-7.5-7.5s3.358-7.5 7.5-7.5h67.595c4.142 0 7.5 3.358 7.5 7.5s-3.357 7.5-7.499 7.5z" fill="#2a428c"/></g></g><g><g><path d="m345.942 337.833c-1.919 0-3.839-.732-5.303-2.197l-10-10c-2.929-2.929-2.929-7.678 0-10.606 2.929-2.929 7.678-2.929 10.606 0l10 10c2.929 2.929 2.929 7.678 0 10.606-1.464 1.464-3.384 2.197-5.303 2.197z" fill="#112360"/></g></g><g><g><path d="m335.937 327.835c-1.092 0-2.202-.24-3.251-.746-3.731-1.798-5.298-6.281-3.499-10.013l30-62.234c1.799-3.731 6.282-5.299 10.013-3.499 3.731 1.798 5.298 6.281 3.499 10.013l-30 62.234c-1.294 2.681-3.972 4.245-6.762 4.245z" fill="#1c2e7a"/></g></g><g><g><path d="m365.941 265.598c-1.881 0-3.763-.703-5.22-2.115l-60-58.17c-2.974-2.883-3.047-7.631-.164-10.605 2.883-2.975 7.631-3.047 10.605-.164l60 58.17c2.974 2.883 3.047 7.631.164 10.605-1.47 1.517-3.427 2.279-5.385 2.279z" fill="#2a428c"/></g></g><g><g><path d="m324.355 113.72c-4.142 0-7.5-3.358-7.5-7.5v-16.553c0-4.142 3.358-7.5 7.5-7.5s7.5 3.358 7.5 7.5v16.553c0 4.143-3.358 7.5-7.5 7.5z" fill="#1c2e7a"/></g></g><g><g><path d="m302.005 131.849c-2.183 0-4.347-.949-5.83-2.776-2.609-3.217-2.116-7.94 1.101-10.549l22.354-18.128c3.218-2.609 7.94-2.116 10.549 1.101s2.116 7.94-1.101 10.549l-22.354 18.128c-1.389 1.127-3.059 1.675-4.719 1.675z" fill="#2a428c"/></g></g><g><path d="m302.001 108.263c-5.877 0-11 4-12.425 9.701l-7.575 30.299h40l-7.575-30.299c-1.425-5.701-6.548-9.701-12.425-9.701z" fill="#1c2e7a"/></g><g><path d="m302.955 141.962h-1.909c-21.564 0-39.045 17.481-39.045 39.045h80c-.001-21.563-17.482-39.045-39.046-39.045z" fill="#3c58a0"/></g><g><path d="m321.595 146.692c-5.54-3.016-11.89-4.73-18.641-4.73h-1.909c-21.564 0-39.045 17.481-39.045 39.046h39.191c0-14.813 8.249-27.699 20.404-34.316z" fill="#2a428c"/></g><g><path d="m302 285.263c-27.614 0-50-22.386-50-50v-50c0-5.523 4.477-10 10-10h80c5.523 0 10 4.477 10 10v50c0 27.614-22.386 50-50 50z" fill="#4b6bb2"/></g><g><path d="m279.645 235.263v-50c0-5.523 4.477-10 10-10h-27.645c-5.523 0-10 4.477-10 10v50c0 27.614 22.386 50 50 50 4.797 0 9.431-.69 13.823-1.951-20.888-5.999-36.178-25.232-36.178-48.049z" fill="#3c58a0"/></g><g><circle cx="287.145" cy="127.462" fill="#4b6bb2" r="7.5"/></g><g><circle cx="316.856" cy="127.462" fill="#4b6bb2" r="7.5"/></g><g><circle cx="302" cy="227.763" fill="#3c58a0" r="7.5"/></g><g><path d="m324.501 205.263h-45c-4.142 0-7.5-3.358-7.5-7.5 0-4.142 3.358-7.5 7.5-7.5h45c4.142 0 7.5 3.358 7.5 7.5 0 4.142-3.358 7.5-7.5 7.5z" fill="#3c58a0"/></g></g><g><path d="m219.404 302.489h-59.974c3.387 5.203 7.048 10.21 10.967 15h49.007c4.142 0 7.5-3.358 7.5-7.5s-3.358-7.5-7.5-7.5z" fill="#73f9a9"/></g><g><path d="m404.472 204.183c0 4.142 3.358 7.5 7.5 7.5h60.007c.005-.561.021-1.12.021-1.683 0-4.481-.177-8.922-.519-13.317h-59.509c-4.142 0-7.5 3.358-7.5 7.5z" fill="#73f9a9"/></g><g><path d="m448.371 296.365h-55.355c-4.142 0-7.5 3.358-7.5 7.5s3.358 7.5 7.5 7.5h45.374c3.584-4.809 6.912-9.819 9.981-15z" fill="#73f9a9"/></g><g><path d="m422.116 142h-35.288c-4.142 0-7.5-3.358-7.5-7.5 0-4.142 3.358-7.5 7.5-7.5h35.288c4.142 0 7.5 3.358 7.5 7.5 0 4.142-3.358 7.5-7.5 7.5z" fill="#73f9a9"/></g></g></svg>