<?xml version="1.0" encoding="iso-8859-1"?>
<!-- Generator: Adobe Illustrator 19.0.0, SVG Export Plug-In . SVG Version: 6.00 Build 0)  -->
<svg version="1.1" id="Capa_1" xmlns="http://www.w3.org/2000/svg" xmlns:xlink="http://www.w3.org/1999/xlink" x="0px" y="0px"
	 viewBox="0 0 512 512" style="enable-background:new 0 0 512 512;" xml:space="preserve">
<path style="fill:#855FB8;" d="M439.082,95.315C381.094,37.326,303.995,5.391,221.987,5.391
	c-82.007,0-159.106,31.935-217.094,89.924c-6.524,6.523-6.524,17.1,0,23.623c6.523,6.525,17.1,6.525,23.623,0
	c106.679-106.68,280.26-106.681,386.943,0c84.042,84.042,84.042,220.788,0,304.83c-65.932,65.93-173.207,65.93-239.139,0
	c-51.442-51.442-51.442-135.144,0-186.587c39.852-39.85,104.692-39.85,144.545,0c14.813,14.813,22.971,34.507,22.971,55.456
	c0,20.947-8.158,40.642-22.971,55.455c-23.16,23.16-60.845,23.16-84.004,0c-8.383-8.383-13.33-20.411-13.574-32.998
	c-0.246-12.677,4.127-24.167,12.311-32.351c12.799-12.797,32.073-13.217,44.834-0.975c5.049,4.842,7.456,12.986,5.854,19.802
	c-1.528,6.495-6.433,11.077-14.579,13.62c-8.807,2.75-13.716,12.117-10.969,20.923c2.749,8.808,12.115,13.713,20.923,10.969
	c19.369-6.047,32.908-19.847,37.145-37.863c4.307-18.307-1.678-38.546-15.247-51.56c-25.792-24.739-66.022-24.1-91.583,1.462
	c-14.456,14.455-22.507,35.093-22.09,56.621c0.41,21.141,8.922,41.544,23.354,55.974c18.095,18.095,41.857,27.142,65.625,27.139
	c23.763-0.002,47.534-9.049,65.625-27.139c21.123-21.122,32.756-49.206,32.756-79.077c0-29.873-11.633-57.956-32.756-79.078
	c-52.875-52.877-138.915-52.877-191.79,0c-64.468,64.468-64.468,169.364,0,233.831c39.479,39.479,91.335,59.218,143.192,59.218
	s103.715-19.739,143.192-59.218C486.103,400.369,512,337.85,512,271.352S486.103,142.337,439.082,95.315z"/>
<g>
	<path style="fill:#7B49AD;" d="M278.862,388.822c-23.768,0.003-47.531-9.045-65.625-27.139
		c-13.623-13.622-21.963-32.565-23.2-52.428c-0.128,2.151-0.196,4.312-0.153,6.486c0.41,21.141,8.922,41.544,23.354,55.974
		c18.094,18.095,41.857,27.142,65.625,27.139c23.763-0.002,47.534-9.049,65.625-27.139c21.123-21.122,32.756-49.206,32.756-79.077
		c0-1.678-0.042-3.35-0.115-5.016c-1.227,27.989-12.704,54.127-32.64,74.062C326.397,379.774,302.625,388.82,278.862,388.822z"/>
	<path style="fill:#7B49AD;" d="M320.864,237.181c13.623,13.624,21.598,31.38,22.794,50.44c0.104-1.664,0.177-3.334,0.177-5.016
		c0-20.948-8.158-40.644-22.97-55.457c-39.852-39.85-104.692-39.85-144.545,0c-26.994,26.994-39.814,62.871-38.478,98.309
		c1.21-32.096,14.03-63.829,38.478-88.277C216.172,197.331,281.013,197.331,320.864,237.181z"/>
	<path style="fill:#7B49AD;" d="M415.46,118.938c40.748,40.748,61.737,93.885,62.971,147.399
		c1.311-56.857-19.677-114.136-62.971-157.43c-106.683-106.681-280.264-106.68-386.944,0c-6.523,6.525-17.1,6.525-23.623,0
		c-1.969-1.969-3.334-4.311-4.114-6.796c-1.805,5.747-0.44,12.274,4.114,16.827c6.523,6.525,17.1,6.525,23.623,0
		C135.195,12.258,308.777,12.257,415.46,118.938z"/>
	<path style="fill:#7B49AD;" d="M281.66,337.049c-8.792,2.741-18.137-2.144-20.905-10.921c-0.99,3.141-1.073,6.602-0.018,9.984
		c2.749,8.808,12.115,13.713,20.923,10.969c19.369-6.047,32.907-19.847,37.145-37.863c1.312-5.579,1.664-11.337,1.142-17.015
		c-0.222,2.346-0.6,4.681-1.142,6.983C314.568,317.202,301.029,331.002,281.66,337.049z"/>
	<path style="fill:#7B49AD;" d="M439.082,437.359c-39.478,39.479-91.335,59.219-143.192,59.219s-103.713-19.74-143.192-59.219
		c-30.961-30.96-47.043-71.247-48.266-111.899c-1.323,43.996,14.76,88.425,48.266,121.931
		c39.479,39.479,91.336,59.219,143.192,59.219c51.857,0,103.715-19.74,143.192-59.219C486.103,400.37,512,337.852,512,271.354
		c0-1.675-0.028-3.346-0.061-5.016C510.67,330.957,484.92,391.522,439.082,437.359z"/>
	<path style="fill:#7B49AD;" d="M280.431,281.768c2.791,2.676,4.769,6.364,5.715,10.277c0.045-0.17,0.097-0.335,0.138-0.507
		c1.603-6.816-0.805-14.959-5.853-19.802c-12.761-12.243-32.036-11.822-44.834,0.974c-8.184,8.185-12.557,19.674-12.311,32.351
		c0.026,1.347,0.117,2.688,0.25,4.019c1.023-10.271,5.194-19.47,12.061-26.338C248.396,269.946,267.67,269.525,280.431,281.768z"/>
</g>
<g>
</g>
<g>
</g>
<g>
</g>
<g>
</g>
<g>
</g>
<g>
</g>
<g>
</g>
<g>
</g>
<g>
</g>
<g>
</g>
<g>
</g>
<g>
</g>
<g>
</g>
<g>
</g>
<g>
</g>
</svg>
