<svg height="512pt" viewBox="-45 0 512 512.001" width="512pt" xmlns="http://www.w3.org/2000/svg"><path d="m177.289062 9.625-74.0625 162.417969 48.171876 52.300781 137.59375-211.582031c3.574218-5.496094-.367188-12.761719-6.921876-12.761719h-89.8125c-6.445312 0-12.296874 3.761719-14.96875 9.625zm0 0" fill="#f9eac7"/><path d="m212.285156 0h-20.027344c-6.445312 0-12.296874 3.761719-14.96875 9.625l-74.0625 162.417969 20.472657 22.226562zm0 0" fill="#f4dbb3"/><path d="m66.066406 198.195312 77.742188 77.742188c3.097656 3.097656 7.296875 4.835938 11.679687 4.835938h83.996094v-16.515626c0-9.121093-7.394531-16.515624-16.515625-16.515624h-33.464844c-4.953125 0-9.644531-2.222657-12.78125-6.054688l-63.589844-77.71875c-3.09375-3.785156-8.773437-4.066406-12.230468-.613281l-34.839844 34.839843zm0 0" fill="#f6d190"/><path d="m404.648438 214.710938h-107.355469c-9.125 0-16.515625 7.394531-16.515625 16.515624v82.582032h-123.871094c-9.125 0-16.519531 7.394531-16.519531 16.515625v82.578125h-123.871094c-9.121094 0-16.515625 7.398437-16.515625 16.519531v66.0625c0 9.121094 7.394531 16.515625 16.515625 16.515625h123.871094c155.066406 0 280.773437-125.707031 280.773437-280.773438.003906-9.121093-7.394531-16.515624-16.511718-16.515624zm0 0" fill="#dad8db"/><path d="m239.484375 305.546875v-41.289063h-83.996094l-77.742187-77.742187-24.777344 24.773437c-4.460938 4.464844-5.761719 10.828126-4.046875 16.472657l71.53125 71.53125c9.359375 9.359375 21.800781 14.511719 35.035156 14.511719h75.738281c4.5625 0 8.257813-3.695313 8.257813-8.257813zm0 0" fill="#ecbd83"/><path d="m404.648438 214.710938h-107.355469c-9.125 0-16.515625 7.394531-16.515625 16.515624v82.582032h-123.871094c-9.125 0-16.519531 7.394531-16.519531 16.515625v82.578125h-123.871094c-9.121094 0-16.515625 7.398437-16.515625 16.519531v66.0625c0 9.121094 7.394531 16.515625 16.515625 16.515625h8.257813v-74.320312h115.613281c13.683593 0 24.773437-11.09375 24.773437-24.777344v-74.320313h115.613282c13.683593 0 24.773437-11.09375 24.773437-24.773437v-74.324219h115.40625c.082031-2.78125.210937-5.546875.207031-8.347656-.007812-9.082031-7.433594-16.425781-16.511718-16.425781zm0 0" fill="#c8c5c9"/><path d="m239.484375 305.546875v-24.773437h-83.996094c-4.382812 0-8.582031-1.738282-11.679687-4.835938l-77.742188-77.746094-13.097656 13.097656c-6.449219 6.449219-6.449219 16.90625 0 23.355469l64.648438 64.648438c9.292968 9.292969 21.894531 14.511719 35.035156 14.511719h78.574218c4.5625 0 8.257813-3.695313 8.257813-8.257813zm0 0" fill="#eceaec"/><path d="m54.386719 209.871094 77.742187 77.746094c6.242188 6.238281 14.535156 9.671874 23.359375 9.671874h83.996094v-16.515624h-83.996094c-4.382812 0-8.582031-1.738282-11.679687-4.835938l-77.742188-77.746094zm0 0" fill="#dad8db"/><path d="m189.902344 165.132812 99.089844-152.371093c3.574218-5.496094-.367188-12.761719-6.921876-12.761719h-89.8125c-6.445312 0-12.296874 3.761719-14.96875 9.625l-47.441406 104.03125zm0 0" fill="#6f6571"/><path d="m192.257812 0c-6.445312 0-12.296874 3.761719-14.96875 9.625l-47.441406 104.03125 22.007813 18.863281 60.429687-132.519531zm0 0" fill="#5d5360"/><path d="m144.296875 81.980469-14.445313 31.675781 60.050782 51.476562 18.507812-28.457031zm0 0" fill="#857e87"/><path d="m166.328125 100.777344-22.03125-18.796875-14.445313 31.675781 22.003907 18.863281zm0 0" fill="#6f6571"/></svg>