<svg id="Layer_5" enable-background="new 0 0 64 64" height="512" viewBox="0 0 64 64" width="512" xmlns="http://www.w3.org/2000/svg"><g><g><path d="m6 52 2 2 2-2 1 .5v-42.5h-6v42.5z" fill="#f0bc5e"/></g><g><path d="m26.168 10.445 1.664 1.11 1.168-1.752v7.197h2v-10h-2.535z"/><path d="m29 57c1.654 0 3-1.346 3-3v-.438c0-1.379-.935-2.576-2.272-2.91l-1.728-.433v-1.219h4v-2h-6v4.781l3.242.81c.446.112.758.511.758.971v.438c0 .552-.449 1-1 1s-1-.448-1-1v-1h-2v1c0 1.654 1.346 3 3 3z"/><path d="m32 35v-2c0-.366-.106-.705-.278-1 .172-.295.278-.634.278-1v-2c0-1.103-.897-2-2-2h-2v2h2v2h-2v2h2v2h-2v2h2c1.103 0 2-.897 2-2z"/><path d="m48 21h12c1.654 0 3-1.346 3-3v-12c0-1.654-1.346-3-3-3h-12c-1.654 0-3 1.346-3 3v5h-6v-5c0-1.654-1.346-3-3-3h-12c-1.654 0-3 1.346-3 3v5h-6v-3c0-3.859-3.14-7-7-7s-7 3.141-7 7v46.287l4.622 7.396c.516.825 1.405 1.317 2.378 1.317s1.862-.492 2.378-1.317l4.622-7.396v-1.287h6v5c0 1.654 1.346 3 3 3h12c1.654 0 3-1.346 3-3v-5h6v5c0 1.654 1.346 3 3 3h12c1.654 0 3-1.346 3-3v-12c0-1.654-1.346-3-3-3h-12c-1.654 0-3 1.346-3 3v5h-6v-5c0-1.654-1.346-3-3-3h-12c-1.654 0-3 1.346-3 3v5h-6v-18h6v5c0 1.654 1.346 3 3 3h12c1.654 0 3-1.346 3-3v-5h6v5c0 1.654 1.346 3 3 3h12c1.654 0 3-1.346 3-3v-12c0-1.654-1.346-3-3-3h-12c-1.654 0-3 1.346-3 3v5h-6v-5c0-1.654-1.346-3-3-3h-12c-1.654 0-3 1.346-3 3v5h-6v-18h6v5c0 1.654 1.346 3 3 3h12c1.654 0 3-1.346 3-3v-5h6v5c0 1.654 1.346 3 3 3zm-1 25c0-.552.449-1 1-1h12c.551 0 1 .448 1 1v12c0 .552-.449 1-1 1h-12c-.551 0-1-.448-1-1zm-24 0c0-.552.449-1 1-1h12c.551 0 1 .448 1 1v12c0 .552-.449 1-1 1h-12c-.551 0-1-.448-1-1zm24-20c0-.552.449-1 1-1h12c.551 0 1 .448 1 1v12c0 .552-.449 1-1 1h-12c-.551 0-1-.448-1-1zm-24 0c0-.552.449-1 1-1h12c.551 0 1 .448 1 1v12c0 .552-.449 1-1 1h-12c-.551 0-1-.448-1-1zm-13.197 24.783-1.803 1.803-1.803-1.803-3.197 1.599v-41.382h10v41.382zm-1.803-47.783c2.757 0 5 2.243 5 5v1h-10v-1c0-2.757 2.243-5 5-5zm.682 57.622c-.295.473-1.068.473-1.363 0l-3.887-6.219 2.372-1.186 2.196 2.197 2.197-2.197 2.372 1.186zm28.318-42.622c0 .552-.449 1-1 1h-12c-.551 0-1-.448-1-1v-12c0-.552.449-1 1-1h12c.551 0 1 .448 1 1zm10-12c0-.552.449-1 1-1h12c.551 0 1 .448 1 1v12c0 .552-.449 1-1 1h-12c-.551 0-1-.448-1-1z"/><path d="m57 15h-3.586l2.707-2.707c.567-.566.879-1.32.879-2.121v-.172c0-1.654-1.346-3-3-3s-3 1.346-3 3v1h2v-1c0-.552.449-1 1-1s1 .448 1 1v.172c0 .263-.107.521-.293.707l-3.707 3.707v2.414h6z"/><path d="m55 37h2v-10h-2v4h-2v-4h-2v6h4z"/><path d="m54 57c1.654 0 3-1.346 3-3s-1.346-3-3-3c-.352 0-.686.072-1 .184v-1.184c0-.552.449-1 1-1s1 .448 1 1h2c0-1.654-1.346-3-3-3s-3 1.346-3 3v4c0 1.654 1.346 3 3 3zm0-4c.551 0 1 .448 1 1s-.449 1-1 1-1-.448-1-1 .449-1 1-1z"/></g></g></svg>