<?xml version="1.0" encoding="iso-8859-1"?>
<!-- Generator: Adobe Illustrator 19.0.0, SVG Export Plug-In . SVG Version: 6.00 Build 0)  -->
<svg version="1.1" id="Capa_1" xmlns="http://www.w3.org/2000/svg" xmlns:xlink="http://www.w3.org/1999/xlink" x="0px" y="0px"
	 viewBox="0 0 511.999 511.999" style="enable-background:new 0 0 511.999 511.999;" xml:space="preserve">
<g>
	<path style="fill:#FFC107;" d="M202.666,202.666h85.333c5.891,0,10.667,4.776,10.667,10.667v85.333
		c0,5.891-4.776,10.667-10.667,10.667h-85.333c-5.891,0-10.667-4.776-10.667-10.667v-85.333
		C191.999,207.442,196.775,202.666,202.666,202.666z"/>
	<path style="fill:#FFC107;" d="M266.666,224c-5.891,0.012-10.676-4.754-10.688-10.645c-0.008-4.079,2.311-7.805,5.973-9.6
		c22.464-11.008,58.048-35.52,58.048-54.421c0-5.891,4.776-10.667,10.667-10.667c5.891,0,10.667,4.776,10.667,10.667
		c0,38.208-62.805,70.08-69.973,73.579C269.898,223.627,268.293,224,266.666,224z"/>
</g>
<g>
	<path style="fill:#455A64;" d="M117.332,480c-5.891,0-10.667-4.776-10.667-10.667V384c0-5.891,4.776-10.667,10.667-10.667
		c5.891,0,10.667,4.776,10.667,10.667v85.333C127.999,475.224,123.223,480,117.332,480z"/>
	<path style="fill:#455A64;" d="M415.999,480c-5.891,0-10.667-4.776-10.667-10.667V384c0-5.891,4.776-10.667,10.667-10.667
		s10.667,4.776,10.667,10.667v85.333C426.666,475.224,421.89,480,415.999,480z"/>
</g>
<path style="fill:#CFD8DC;" d="M373.332,32h42.667c5.891,0,10.667,4.776,10.667,10.667v106.667c0,5.891-4.776,10.667-10.667,10.667
	h-42.667c-5.891,0-10.667-4.776-10.667-10.667V42.666C362.666,36.775,367.441,32,373.332,32z"/>
<path style="fill:#FFB300;" d="M127.679,274.752l-21.333-85.333c-1.427-5.713-7.214-9.189-12.928-7.765L8.084,202.986
	c-5.713,1.427-9.189,7.214-7.765,12.928l21.333,85.333c1.185,4.75,5.451,8.084,10.347,8.085c0.877-0.003,1.751-0.111,2.603-0.32
	l85.333-21.333C125.64,286.243,129.104,280.459,127.679,274.752z"/>
<path style="fill:#90A4AE;" d="M330.666,138.666h128c5.891,0,10.667,4.776,10.667,10.667v149.333
	c0,5.891-4.776,10.667-10.667,10.667h-128c-5.891,0-10.667-4.776-10.667-10.667V149.333
	C319.999,143.442,324.775,138.666,330.666,138.666z"/>
<path style="fill:#B0BEC5;" d="M458.666,298.666h-384c-23.564,0-42.667,19.103-42.667,42.667c0,23.564,19.103,42.667,42.667,42.667
	h384c23.564,0,42.667-19.103,42.667-42.667C501.332,317.769,482.23,298.666,458.666,298.666z"/>
<g>
	<path style="fill:#455A64;" d="M458.666,394.666h-384c-29.455,0-53.333-23.878-53.333-53.333c0-29.455,23.878-53.333,53.333-53.333
		h384c29.455,0,53.333,23.878,53.333,53.333C511.999,370.788,488.121,394.666,458.666,394.666z M74.666,309.333
		c-17.673,0-32,14.327-32,32s14.327,32,32,32h384c17.673,0,32-14.327,32-32s-14.327-32-32-32H74.666z"/>
	<path style="fill:#455A64;" d="M75.092,352c-5.891,0-10.667-4.776-10.667-10.667c0-5.85,4.711-10.608,10.56-10.667h0.213
		c5.891,0,10.667,4.776,10.667,10.667c0,5.891-4.776,10.667-10.667,10.667H75.092z"/>
	<path style="fill:#455A64;" d="M459.092,352c-5.891,0-10.667-4.776-10.667-10.667c0-5.85,4.711-10.608,10.56-10.667h0.213
		c5.891,0,10.667,4.776,10.667,10.667c0,5.891-4.776,10.667-10.667,10.667H459.092z"/>
	<path style="fill:#455A64;" d="M267.092,352c-5.891,0-10.667-4.776-10.667-10.667c0-5.85,4.711-10.608,10.56-10.667h0.213
		c5.891,0,10.667,4.776,10.667,10.667c0,5.891-4.776,10.667-10.667,10.667H267.092z"/>
</g>
<g>
</g>
<g>
</g>
<g>
</g>
<g>
</g>
<g>
</g>
<g>
</g>
<g>
</g>
<g>
</g>
<g>
</g>
<g>
</g>
<g>
</g>
<g>
</g>
<g>
</g>
<g>
</g>
<g>
</g>
</svg>
