<svg height="512" viewBox="0 0 46 60" width="512" xmlns="http://www.w3.org/2000/svg"><g id="Page-1" fill="none" fill-rule="evenodd"><g id="093---Portals" fill-rule="nonzero"><circle id="Oval" cx="23" cy="27" fill="#f4cea4" r="5"/><path id="Shape" d="m28 49.25c6.39.66 11 2.54 11 4.75 0 2.76-7.16 5-16 5s-16-2.24-16-5c0-2.21 4.61-4.09 11-4.75z" fill="#e9931f"/><path id="Shape" d="m6 60c-.12343714.0001385-.24583315-.0225777-.361-.067-3.739-1.45-5.639-3.444-5.639-5.933s1.9-4.488 5.639-5.937c.51528167-.1990986 1.09440132.0572184 1.29349996.5725.19909865.5152817-.05721831 1.0944013-.57249996 1.2935-2.893 1.124-4.36 2.493-4.36 4.071 0 1.963 2.372 3.293 4.361 4.063.45550992.1697173.72299329.6424146.63393203 1.1202862-.08906127.4778717-.50886618.8224786-.99493203.8167138z" fill="#e7bb19"/><path id="Shape" d="m40 60c-.4819095.0005423-.8956595-.3426976-.9841296-.8164171-.0884701-.4737194.1735074-.9431557.6231296-1.1165829 1.989-.767 4.361-2.1 4.361-4.067 0-1.581-1.467-2.95-4.361-4.071-.3333288-.1291515-.5724358-.4263212-.6272517-.7795682-.0548159-.3532469.0829871-.7089045.3615-.933.2785129-.2240954.6554229-.2825833.9887517-.1534318 3.738 1.454 5.638 3.452 5.638 5.937s-1.9 4.479-5.639 5.929c-.1149066.0457898-.2373112.0698638-.361.071z" fill="#e7bb19"/><path id="Shape" d="m36.37 43.16c-.4401872.4960733-1.0594513.7969087-1.7214953.8362937-.662044.0393851-1.3126075-.1859081-1.8085047-.6262937l-4.84-3.75v8.38h-10v-8.38l-4.84 4.12c-.6680867.5930609-1.6018184.7846518-2.4494675.5026022-.84764914-.2820496-1.48043758-.9948896-1.66000004-1.87-.17956245-.8751105.12138087-1.7795413.78946754-2.3726022l7.46-6.52c1.0963892-.9513787 2.4983872-1.4766843 3.95-1.48h3.58c1.4031553.00007 2.761909.4919106 3.84 1.39l7.49 6.24c.4960733.4401872.7969087 1.0594513.8362937 1.7214953.0393851.662044-.1859081 1.3126075-.6262937 1.8085047z" fill="#ff5364"/><path id="Rectangle-path" d="m18 47h10v7.75h-10z" fill="#285680"/><path id="Shape" d="m18 10.75c-6.39-.66-11-2.54-11-4.75 0-2.76 7.16-5 16-5s16 2.24 16 5c0 2.21-4.61 4.09-11 4.75z" fill="#2f9fc3"/><path id="Shape" d="m23 5v8.5c0 1.3807119-1.1192881 2.5-2.5 2.5s-2.5-1.1192881-2.5-2.5v-8.25z" fill="#2c3e50"/><path id="Shape" d="m28 5.25v8.25c0 1.3807119-1.1192881 2.5-2.5 2.5s-2.5-1.1192881-2.5-2.5v-8.5z" fill="#285680"/><path id="Shape" d="m6 12c-.12343714.0001385-.24583315-.0225777-.361-.067-3.739-1.45-5.639-3.444-5.639-5.933s1.9-4.484 5.639-5.933c.51528167-.19909864 1.09440133.05721834 1.29349998.57250001.19909865.51528166-.05721832 1.09440133-.57249998 1.29349999-2.893 1.12-4.36 2.489-4.36 4.067 0 1.963 2.372 3.293 4.361 4.063.45550992.1697173.72299329.6424146.63393203 1.1202862-.08906127.4778717-.50886618.8224786-.99493203.8167138z" fill="#67b0c3"/><path id="Shape" d="m40 12c-.4819095.0005423-.8956595-.3426976-.9841296-.8164171-.0884701-.4737194.1735074-.9431557.6231296-1.1165829 1.989-.767 4.361-2.1 4.361-4.067 0-1.581-1.467-2.95-4.361-4.071-.4861316-.21765229-.7163497-.77814542-.5235568-1.27466061.192793-.49651519.7409283-.75477978 1.2465568-.58733939 3.738 1.45 5.638 3.448 5.638 5.933s-1.9 4.479-5.639 5.929c-.1149066.0457898-.2373112.0698638-.361.071z" fill="#67b0c3"/><path id="Shape" d="m23 56c-.5522847 0-1-.4477153-1-1v-4c0-.5522847.4477153-1 1-1s1 .4477153 1 1v4c0 .5522847-.4477153 1-1 1z" fill="#2c3e50"/><path id="Shape" d="m23 56c-2.3711247.0090953-4.739647-.1580316-7.086-.5-.5462096-.0828427-.9218427-.5927904-.839-1.139s.5927904-.9218427 1.139-.839c2.246997.3275753 4.5152702.4873505 6.786.478 2.3326324.0087103 4.6624873-.1617914 6.969-.51.353157-.0548403.7087446.0828922.9328162.3613151.2240716.2784228.2825854.6552369.1535.9885-.1290855.3332631-.4261591.5723446-.7793162.6271849-2.4081465.3633644-4.8406089.5415533-7.276.533z" fill="#dc7e25"/><path id="Shape" d="m30.124 6.521c-.0518713.00028381-.1036886-.00339355-.155-.011-2.3065127-.34820863-4.6363676-.51871028-6.969-.51-2.2714968-.0081254-4.5404426.15298714-6.788.482-.3533357.05358984-.7084211-.08539344-.9314991-.36459619s-.2802577-.65620742-.15-.989c.1302576-.33279258.4281634-.57081397.7814991-.62440381 2.3469136-.34340579 4.7161086-.51186999 7.088-.504 2.4353911-.00855326 4.8678535.16963564 7.276.533.5155179.08058069.8824332.54398003.8426549 1.06423921-.0397784.52025917-.4728788.92249031-.9946549.92376079z" fill="#2980b1"/></g></g></svg>