<svg id="Capa_1" enable-background="new 0 0 512 512" height="512" viewBox="0 0 512 512" width="512" xmlns="http://www.w3.org/2000/svg"><g><g><g><path d="m385.599 250.53c0-6.872 5.365-12.443 11.983-12.443l31.839-9 31.912 9 11.567 1.799c30.707 0 33.52 72.746 22.303 138.786-5.153 30.339-24.817 56.968-35.633 69.708-4.653 5.48-7.237 12.418-7.237 19.607v35.014l-9.581 9h-116.371c-2.85 0-5.161-2.311-5.161-5.161v-38.606c0-10.696-3.836-20.964-10.602-29.029-30.259-36.069-30.259-89.185-30.259-89.185v-214.512c0-9.18 5.473-17.077 13.332-20.622 0 0 22.912 0 22.912 20.622v86.862z" fill="#f0c69e"/><g fill="#e6ba94"><path d="m307.021 135.508v137.585c0 10.262 8.319 18.581 18.581 18.581v-155.627c0-12.491-9.895-23.028-22.385-23.157-3.399-.035-6.625.686-9.527 1.995 7.859 3.546 13.331 11.443 13.331 20.623z"/><path d="m473.015 238.087h-18.581c48.288 0 42.404 74.545 31.188 140.585-5.153 30.339-24.817 56.968-35.633 69.708-4.653 5.48-7.237 12.418-7.237 19.607v44.014h13.419c2.851 0 5.161-2.311 5.161-5.161v-38.852c0-7.189 2.585-14.126 7.237-19.607 10.816-12.74 30.48-39.369 35.633-69.708 11.217-66.041 17.101-140.586-31.187-140.586z"/></g><path d="m407.089 208.903v20.183s-9.556 9-9.581 9c-6.584.041-11.909 5.596-11.909 12.443 0 9.926 4.2 18.998 11.007 25.187.295.268.595.531.9.788l9.583 16.816v20.53c0 12.492-20.08 12.907-22.915 11.628-7.859-3.545-13.329-11.448-13.329-20.628v-95.949c0-9.18 5.47-17.083 13.329-20.628 2.835-1.277 22.915-.114 22.915 20.63z" fill="#e2ae84"/><g fill="#d7a379"><path d="m397.508 276.503v28.349c0 9.18-5.473 17.077-13.331 20.622 2.835 1.279 5.978 1.997 9.29 1.997 12.494 0 22.622-10.127 22.622-22.619v-20.53l-4.757-1.016c-5.212-1.113-9.91-3.499-13.824-6.803z"/><path d="m393.467 186.285c-3.312 0-6.455.718-9.29 1.997 7.859 3.545 13.331 11.442 13.331 20.622v29.187c.025 0 18.581-.004 18.581-.004v-29.183c0-12.493-10.128-22.619-22.622-22.619z"/></g><path d="m338.931 310.913c-7.859-3.545-13.329-11.449-13.329-20.63v-67.111c0-9.181 5.47-17.085 13.329-20.63 2.835-1.279 22.915 8.137 22.915 20.63v67.111c-.001 12.493-20.081 21.908-22.915 20.63z" fill="#e2ae84"/><path d="m348.225 200.552h-.003c-3.312 0-6.454.718-9.289 1.996 7.858 3.545 13.331 11.443 13.331 20.624v67.111c0 9.181-5.473 17.079-13.331 20.624 2.835 1.279 5.977 1.997 9.289 1.997h.003c12.493 0 22.62-10.128 22.62-22.62v-67.111c0-12.494-10.127-22.621-22.62-22.621z" fill="#d7a379"/><path d="m384.347 381.32c19.252-47.018 58.557-64.087 71.945-68.674-2.895 11.107-9.789 20.702-19.256 27.191-13.507 9.259-28.866 24.164-38.36 47.35-1.227 2.996-4.118 4.81-7.168 4.81-.977 0-1.97-.186-2.931-.58-3.956-1.62-5.851-6.141-4.23-10.097z" fill="#e6ba94"/><path d="m452.332 293.985v4.436c0 20.745-20.08 21.907-22.915 20.628-7.859-3.545-13.329-11.448-13.329-20.628v-14.098l26.663 5.694z" fill="#e2ae84"/><path d="m442.752 290.016v8.404c0 9.18-5.473 17.077-13.331 20.622 2.835 1.279 5.978 1.997 9.29 1.997 12.494 0 22.622-10.127 22.622-22.619v-4.436z" fill="#d7a379"/><path d="m416.089 238.087v-45.637c0-9.18 5.47-17.083 13.329-20.628 2.835-1.279 22.915-.116 22.915 20.628v36.637l-9.581 9z" fill="#e2ae84"/><path d="m438.711 169.831c-3.312 0-6.455.718-9.29 1.997 7.859 3.545 13.331 11.442 13.331 20.622v45.637h18.581v-45.637c-.001-12.492-10.129-22.619-22.622-22.619z" fill="#d7a379"/></g><g><path d="m256.003 16.525c-6.865-21.903-50.414-25.455-55.334 10.502-4.208 30.76 29.214 55.139 46.043 65.336 0 0 9.228 1.811 12.472.405 13.356-5.787 48.074-29.767 43.152-65.742-3.246-23.724-29.555-25.652-29.555-25.652-7.86 2.372-14.442 7.7-16.778 15.151z" fill="#dc4955"/><g><g><g><path d="m311.337 27.027c-3.246-23.724-23.305-30.242-38.552-25.644 9.656 3.01 17.98 11.088 19.971 25.644 4.209 30.761-29.215 55.14-46.043 65.336 2.853 1.728 5.229 3.05 6.864 3.925 1.519.813 3.334.813 4.853 0 11.28-6.039 57.829-33.287 52.907-69.261z" fill="#d82f3c"/></g></g></g></g><g><path d="m126.401 250.53c0-6.872-5.365-12.443-11.983-12.443l-27.507-9-36.243 9h-11.683c-48.288 0-42.404 74.545-31.188 140.585 5.153 30.339 24.817 56.968 35.633 69.708 4.653 5.48 7.237 12.418 7.237 19.607v38.852c0 2.851 2.311 5.161 5.161 5.161h116.372l9.581-9v-34.768c0-10.696 3.836-20.964 10.602-29.029 30.259-36.069 30.259-89.185 30.259-89.185v-214.51c0-20.745-20.08-21.907-22.915-20.628-7.859 3.545-13.329 11.448-13.329 20.628v86.862z" fill="#f0c69e"/><g><path d="m209.256 112.89c-3.399-.035-6.624.686-9.527 1.995 7.859 3.545 13.331 11.442 13.331 20.622v214.511s0 53.116-30.26 89.185c-6.766 8.065-10.602 18.333-10.602 29.029v43.768h13.419c2.85 0 5.161-2.311 5.161-5.161v-38.606c0-10.696 3.836-20.964 10.602-29.029 30.259-36.069 30.259-89.185 30.259-89.185v-213.972c.002-12.491-9.893-23.028-22.383-23.157z" fill="#e6ba94"/></g><path d="m109.24 188.275c-7.859 3.545-13.329 11.448-13.329 20.628v29.183h18.507c6.618 0 11.983 5.571 11.983 12.443 0 15.882-10.752 29.577-25.733 32.776l-4.757 1.016v20.53c0 9.18 5.47 17.083 13.329 20.628 2.835 1.279 22.915-8.136 22.915-20.628v-95.949c-.001-12.491-20.08-21.906-22.915-20.627z" fill="#e2ae84"/><path d="m118.533 186.285c-3.312 0-6.455.718-9.29 1.997 7.859 3.545 13.331 11.442 13.331 20.622v32.528c2.349 2.272 3.827 5.502 3.827 9.098 0 5.675-1.379 11.068-3.827 15.805v38.517c0 9.18-5.473 17.077-13.331 20.622 2.835 1.279 5.978 1.997 9.29 1.997 12.494 0 22.622-10.127 22.622-22.619v-95.949c-.001-12.492-10.129-22.618-22.622-22.618z" fill="#d7a379"/><path d="m177.398 290.283v-67.111c0-12.493-20.08-21.908-22.915-20.63-7.859 3.545-13.329 11.449-13.329 20.63v67.111c0 9.181 5.47 17.085 13.329 20.63 2.835 1.278 22.915-8.137 22.915-20.63z" fill="#e2ae84"/><path d="m163.778 200.552h-.003c-3.312 0-6.454.718-9.289 1.996 7.859 3.545 13.331 11.443 13.331 20.624v67.111c0 9.181-5.473 17.079-13.331 20.624 2.835 1.279 5.977 1.997 9.289 1.997h.003c12.493 0 22.62-10.128 22.62-22.62v-67.111c0-12.494-10.127-22.621-22.62-22.621z" fill="#d7a379"/><path d="m127.678 381.32c-19.252-47.018-58.557-64.087-71.945-68.674 2.895 11.107 9.789 20.702 19.256 27.191 13.507 9.259 28.866 24.164 38.36 47.35 1.227 2.996 4.118 4.81 7.168 4.81.977 0 1.97-.186 2.931-.58 3.956-1.62 5.85-6.141 4.23-10.097z" fill="#e6ba94"/><path d="m50.667 293.985v4.436c0 9.18 5.47 17.083 13.329 20.628 2.835 1.279 22.915-8.136 22.915-20.628v-5.098l-9.581-5.032z" fill="#e2ae84"/><path d="m77.33 288.29v10.13c0 9.18-5.473 17.077-13.331 20.622 2.835 1.279 5.978 1.997 9.29 1.997 12.494 0 22.622-10.127 22.622-22.619v-14.098z" fill="#d7a379"/><path d="m86.911 229.087v-36.637c0-12.492-20.08-21.907-22.915-20.628-7.859 3.545-13.329 11.448-13.329 20.628v45.637h26.663z" fill="#e2ae84"/><path d="m73.289 169.831c-3.312 0-6.455.718-9.29 1.997 7.859 3.545 13.331 11.442 13.331 20.622v45.637h18.581v-45.637c0-12.492-10.128-22.619-22.622-22.619z" fill="#d7a379"/></g></g></g></svg>