<?xml version="1.0"?>
<svg xmlns="http://www.w3.org/2000/svg" id="Filled" viewBox="0 0 512 512" width="512" height="512"><path d="M368,488H64a32,32,0,0,1-32-32V56A32,32,0,0,1,64,24H304l96,96V456A32,32,0,0,1,368,488Z" style="fill:#e9eef2"/><path d="M400,120H336a32,32,0,0,1-32-32V24Z" style="fill:#c3c6c7"/><path d="M463.993,488a15.936,15.936,0,0,1-10.529-3.959l-128-112a16,16,0,1,1,21.072-24.082l128,112A16,16,0,0,1,463.993,488Z" style="fill:#3cb4d7"/><circle cx="328" cy="376" r="80" style="fill:#6ed2f0"/><path d="M152,168a8,8,0,0,0,8,8H352a8,8,0,0,0,0-16H160A8,8,0,0,0,152,168Z"/><path d="M80,224H240a8,8,0,0,0,0-16H80a8,8,0,0,0,0,16Z"/><path d="M272,256H208a8,8,0,0,0,0,16h64a8,8,0,0,0,0-16Z"/><path d="M224,304H80a8,8,0,0,0,0,16H224a8,8,0,0,0,0-16Z"/><path d="M80,176h48a8,8,0,0,0,0-16H80a8,8,0,0,0,0,16Z"/><path d="M352,208H272a8,8,0,0,0,0,16h80a8,8,0,0,0,0-16Z"/><path d="M80,272h96a8,8,0,0,0,0-16H80a8,8,0,0,0,0,16Z"/><path d="M208,400H176a8,8,0,0,0,0,16h32a8,8,0,0,0,0-16Z"/><path d="M144,400H80a8,8,0,0,0,0,16h64a8,8,0,0,0,0-16Z"/><path d="M80,368h48a8,8,0,0,0,0-16H80a8,8,0,0,0,0,16Z"/><path d="M80,128h96a8,8,0,0,0,0-16H80a8,8,0,0,0,0,16Z"/><path d="M208,352H160a8,8,0,0,0,0,16h48a8,8,0,0,0,0-16Z"/><path d="M487.946,470.4a23.839,23.839,0,0,0-8.142-16.465l-59.653-52.195A87.878,87.878,0,0,0,408,325.462V120a8,8,0,0,0-2.343-5.657l-96-96A8,8,0,0,0,304,16H64A40.045,40.045,0,0,0,24,56V456a40.045,40.045,0,0,0,40,40H368a40.045,40.045,0,0,0,40-40v-1.11L448.2,490.061A24,24,0,0,0,487.946,470.4ZM387.773,426.035a71.715,71.715,0,1,1,15.613-24.612A71.419,71.419,0,0,1,387.773,426.035ZM312,43.313,380.687,112H336a24.027,24.027,0,0,1-24-24ZM368,480H64a24.028,24.028,0,0,1-24-24V56A24.028,24.028,0,0,1,64,32H296V88a40.045,40.045,0,0,0,40,40h56V308.167a87.979,87.979,0,1,0,0,135.709V456A24.028,24.028,0,0,1,368,480Zm102.021-2.731a8,8,0,0,1-11.29.752l-53.917-47.178a87.188,87.188,0,0,0,8.866-13.5l55.588,48.639a8,8,0,0,1,.753,11.29Z"/><path d="M372.806,393.607a8,8,0,0,0-11.2,1.591,32,32,0,1,1-44.8-44.8A8,8,0,0,0,307.19,337.6,48,48,0,1,0,374.4,404.809,8,8,0,0,0,372.806,393.607Z"/></svg>
