<?xml version="1.0" encoding="iso-8859-1"?>
<!-- Generator: Adobe Illustrator 19.0.0, SVG Export Plug-In . SVG Version: 6.00 Build 0)  -->
<svg version="1.1" id="Capa_1" xmlns="http://www.w3.org/2000/svg" xmlns:xlink="http://www.w3.org/1999/xlink" x="0px" y="0px"
	 viewBox="0 0 512 512" style="enable-background:new 0 0 512 512;" xml:space="preserve">
<path style="fill:#F54100;" d="M511.143,102.063L347.841,0v57.063h-10c-39.654,0-84.936,23.58-107.67,56.068L64.79,349.452
	c-5.663,8.092-24.057,17.67-33.933,17.67h-30v90h30c39.653,0,84.936-23.58,107.67-56.068l165.381-236.32
	c5.663-8.092,24.057-17.67,33.933-17.67h10v57.063L511.143,102.063z"/>
<path style="fill:#FE834D;" d="M511.143,409.937L347.841,307.873v57.063h-10c-9.876,0-28.27-9.578-33.933-17.67l-165.381-236.32
	C115.793,78.458,70.51,54.878,30.857,54.878h-30v90h30c9.876,0,28.27,9.578,33.933,17.67l165.381,236.32
	c22.734,32.488,68.016,56.068,107.67,56.068h10V512L511.143,409.937z"/>
<g>
</g>
<g>
</g>
<g>
</g>
<g>
</g>
<g>
</g>
<g>
</g>
<g>
</g>
<g>
</g>
<g>
</g>
<g>
</g>
<g>
</g>
<g>
</g>
<g>
</g>
<g>
</g>
<g>
</g>
</svg>
