<svg viewBox="0 0 512 512" xmlns="http://www.w3.org/2000/svg" data-name="Layer 1"><path d="M361.52 296.56a35.767 35.767 0 010 50.59l-58.56 59.42L269 372.19a52.907 52.907 0 01-.09-74.26 303.2 303.2 0 0087.88-46.2l.03.04a35.78 35.78 0 004.7 44.79zM191.96 127a35.751 35.751 0 0044.78 4.69 304.131 304.131 0 00-46.93 88.67 52.9 52.9 0 01-73.48-.84l-34.39-33.96L141.37 127a35.767 35.767 0 0150.59 0z" fill="#475673"/><path d="M477.58 11a305.394 305.394 0 01-7.91 69.22l-.34-.08a130.141 130.141 0 01-61.07-60.8l-.15-.31A303.245 303.245 0 01477.58 11z" fill="#ed6337"/><path d="M208.03 261.78l-25.13-25.13q2.22-8.235 4.91-16.29a304.131 304.131 0 0146.93-88.67h.01A306.813 306.813 0 01408.11 19.03l.15.31a130.141 130.141 0 0061.07 60.8l.34.08a303.176 303.176 0 01-56.36 117.82 305.378 305.378 0 01-56.52 55.69 303.2 303.2 0 01-87.88 46.2q-8.64 2.865-17.52 5.21l-23.08-23.08z" fill="#e5f5fd"/><path d="M228.31 282.06l-12.77 51.65-60.66-60.67 53.15-11.26z" fill="#ed6337"/><path d="M183.74 327.11a21.793 21.793 0 01-19.15 21.66l-27.79 3.45 3.44-27.8a21.833 21.833 0 0143.5 2.69z" fill="#fadf4a"/><circle cx="336.745" cy="151.84" fill="#50a6ea" r="37.867"/><path d="M408.26 19.34l-.15-.31a306.813 306.813 0 00-173.36 112.66h-.01a304.131 304.131 0 00-46.93 88.67q-2.685 8.055-4.91 16.29l20 20q2.22-8.235 4.91-16.29a304.131 304.131 0 0146.93-88.67h.01A306.985 306.985 0 01421.3 40.716a130.115 130.115 0 01-13.04-21.376z" fill="#a6b7d0"/><path d="M144.5 398.04h-9.454a6 6 0 110-12h9.454a41.764 41.764 0 009.71-1.142 6 6 0 012.795 11.67 53.748 53.748 0 01-12.505 1.472z" fill="#f9d438"/><path d="M113.387 398.038H97a6 6 0 01-5.885-4.83 57.419 57.419 0 0110.255-42l-4.525-.115a6 6 0 01-5.848-6 53.923 53.923 0 0116.103-38.514 52.678 52.678 0 0137.816-15.552 53.414 53.414 0 016.349.425c1.683.211 3.425.517 5.163.91a53.578 53.578 0 0140.294 40.48c.374 1.684.666 3.385.866 5.058a53.447 53.447 0 01-15.257 44.467 6 6 0 11-8.484-8.485 41.251 41.251 0 0012.157-29.351 41.727 41.727 0 00-.325-5.16q-.238-1.981-.67-3.919a41.575 41.575 0 00-31.239-31.388c-1.345-.3-2.7-.543-4.01-.707a41.119 41.119 0 00-4.93-.33h-.313a40.9 40.9 0 00-28.96 12.073 42.069 42.069 0 00-12.157 24.154l11.36.288a6 6 0 013.817 10.5 46.172 46.172 0 00-16.115 36h10.93a6 6 0 110 12z" fill="#f9d438"/><g fill="#ccd3df"><path d="M395.659 260.914a6 6 0 01-3.83-10.621c4.111-3.405 8.19-6.97 12.121-10.6a6 6 0 118.137 8.819 315.846 315.846 0 01-12.6 11.02 5.974 5.974 0 01-3.828 1.382zM426.943 231.035A6 6 0 01422.505 221a300.531 300.531 0 0023.287-29.059 298.454 298.454 0 0022.021-36.592 297.025 297.025 0 0019.462-48.466 6 6 0 0111.487 3.472 309.129 309.129 0 01-20.249 50.428 310.9 310.9 0 01-9.594 17.469c-4.145 7-8.624 13.931-13.314 20.593a312.778 312.778 0 01-24.218 30.222 5.987 5.987 0 01-4.444 1.968zM20.991 250.51a6 6 0 01-4.242-10.242l4.6-4.595a6 6 0 018.484 8.485l-4.595 4.595a5.982 5.982 0 01-4.247 1.757zM38.62 232.881a6 6 0 01-4.242-10.243l20.53-20.53a6 6 0 118.485 8.486l-20.531 20.53a5.982 5.982 0 01-4.242 1.757zM30.029 272.937a6 6 0 01-4.243-10.243l24.133-24.133a6 6 0 018.486 8.485L34.272 271.18a5.984 5.984 0 01-4.243 1.757zM65.961 237a6 6 0 01-4.242-10.242l8.922-8.922a6 6 0 118.484 8.486l-8.925 8.925A5.982 5.982 0 0165.961 237zM18.982 315.447a6 6 0 01-4.242-10.242l26.66-26.658a6 6 0 118.485 8.485l-26.66 26.658a5.982 5.982 0 01-4.243 1.757zM59.383 275.047a6 6 0 01-4.242-10.247l31.231-31.231a6 6 0 118.484 8.485L63.625 273.29a5.982 5.982 0 01-4.242 1.757zM212.544 442.062a6 6 0 01-4.244-10.242l4.594-4.594a6 6 0 018.486 8.484l-4.594 4.6a5.982 5.982 0 01-4.242 1.752zM230.173 424.434a6 6 0 01-4.242-10.243l20.53-20.53a6 6 0 018.484 8.485l-20.53 20.53a5.979 5.979 0 01-4.242 1.758zM221.581 464.489a6 6 0 01-4.242-10.242l24.134-24.133a6 6 0 118.484 8.485l-24.134 24.133a5.982 5.982 0 01-4.242 1.757zM257.514 428.557a6 6 0 01-4.243-10.243l8.92-8.921a6 6 0 018.487 8.485l-8.921 8.922a5.986 5.986 0 01-4.243 1.757zM210.535 507a6 6 0 01-4.242-10.243l26.658-26.657a6 6 0 118.485 8.485l-26.659 26.658a5.982 5.982 0 01-4.242 1.757zM250.936 466.6a6 6 0 01-4.243-10.243l31.232-31.232a6 6 0 118.484 8.486l-31.231 31.231a5.979 5.979 0 01-4.242 1.758z"/></g><path d="M447.828 352.31a33.632 33.632 0 01-21.135-21.2 6 6 0 00-11.386 0 33.632 33.632 0 01-21.135 21.2 6 6 0 000 11.38 33.632 33.632 0 0121.135 21.2 6 6 0 0011.386 0 33.632 33.632 0 0121.135-21.2 6 6 0 000-11.38zM75.828 111.31a33.632 33.632 0 01-21.135-21.2 6 6 0 00-11.386 0 33.632 33.632 0 01-21.135 21.2 6 6 0 000 11.38 33.632 33.632 0 0121.135 21.2 6 6 0 0011.386 0 33.632 33.632 0 0121.135-21.2 6 6 0 000-11.38z" fill="#50a6ea"/><path d="M127.038 65a11 11 0 1110.985-11 11 11 0 01-10.985 11zM402.038 456a11 11 0 1110.985-11 11 11 0 01-10.985 11z" fill="#d8ff33"/></svg>