<svg viewBox="0 0 512 512" xmlns="http://www.w3.org/2000/svg" data-name="Layer 1"><path d="M477.58 11a305.394 305.394 0 01-7.91 69.22l-.34-.08a130.141 130.141 0 01-61.07-60.8l-.15-.31A303.245 303.245 0 01477.58 11z" fill="#ed6337"/><path d="M208.03 261.78l-25.13-25.13q2.22-8.235 4.91-16.29a304.131 304.131 0 0146.93-88.67h.01A306.813 306.813 0 01408.11 19.03l.15.31a130.141 130.141 0 0061.07 60.8l.34.08a303.176 303.176 0 01-56.36 117.82 305.378 305.378 0 01-56.52 55.69 303.2 303.2 0 01-87.88 46.2q-8.64 2.865-17.52 5.21l-23.08-23.08z" fill="#e5f5fd"/><path d="M430.52 348.45a39.189 39.189 0 0015.41 9.55A39.464 39.464 0 00421 383a39.464 39.464 0 00-24.93-25A39.464 39.464 0 00421 333a39.5 39.5 0 009.52 15.45z" fill="#3090fc"/><path d="M361.52 298.56a35.767 35.767 0 010 50.59l-58.56 59.42L269 374.19a52.907 52.907 0 01-.09-74.26 303.2 303.2 0 0087.88-46.2l.03.04a35.78 35.78 0 004.7 44.79z" fill="#475673"/><path d="M228.31 282.06l-12.77 51.65-60.66-60.67 53.15-11.26z" fill="#ed6337"/><path d="M189.96 127a35.751 35.751 0 0044.78 4.69 304.131 304.131 0 00-46.93 88.67 52.9 52.9 0 01-73.48-.84l-34.39-33.96L139.37 127a35.767 35.767 0 0150.59 0z" fill="#475673"/><path d="M183.74 327.11a21.793 21.793 0 01-19.15 21.66l-27.79 3.45 3.44-27.8a21.833 21.833 0 0143.5 2.69z" fill="#fadf4a"/><path d="M58.52 107.45A39.189 39.189 0 0073.93 117 39.464 39.464 0 0049 142a39.464 39.464 0 00-24.93-25 39.189 39.189 0 0015.41-9.55A39.5 39.5 0 0049 92a39.5 39.5 0 009.52 15.45z" fill="#3090fc"/><circle cx="336.745" cy="151.84" fill="#50a6ea" r="37.867"/><path d="M408.26 19.34l-.15-.31a306.813 306.813 0 00-173.36 112.66h-.01a304.131 304.131 0 00-46.93 88.67q-2.685 8.055-4.91 16.29l20 20q2.22-8.235 4.91-16.29a304.131 304.131 0 0146.93-88.67h.01A306.985 306.985 0 01421.3 40.716a130.115 130.115 0 01-13.04-21.376z" fill="#a6b7d0"/><g fill="#284268"><path d="M361.377 257.848A310.625 310.625 0 00483.582 11a6 6 0 00-6-6 309.721 309.721 0 00-190.6 65.542 314.15 314.15 0 00-56.1 56.478 29.879 29.879 0 01-36.679-4.266 41.771 41.771 0 00-59.042-.03l-59.429 58.559a6 6 0 000 8.542l34.384 33.96a59.1 59.1 0 0067.062 11.081l-.062.219a6 6 0 001.55 5.807l17.305 17.308-42.338 8.973a6 6 0 00-3 10.112l21.3 21.3a53.242 53.242 0 00-15.5-6.221c-1.738-.393-3.48-.7-5.163-.91a53.414 53.414 0 00-6.349-.425 52.678 52.678 0 00-37.821 15.55 53.923 53.923 0 00-16.112 38.515 6 6 0 005.848 6l4.525.115a57.377 57.377 0 00-10.251 41.979A5.984 5.984 0 0097 398h16.392a6 6 0 000-12h-10.93c-.17-8 1.586-23.158 16.115-35.979a5.991 5.991 0 00-3.817-10.483l-11.36-.286a42.066 42.066 0 0112.157-24.152 40.9 40.9 0 0128.964-12.071h.313c.955.006 1.913.057 2.87.13a27.672 27.672 0 00-13.422 20.526l-3.441 27.8a6 6 0 005.954 6.737 6.1 6.1 0 00.737-.045l27.8-3.442a27.771 27.771 0 0020.532-13.466c.086 1.081.145 2.171.147 3.269a41.251 41.251 0 01-12.157 29.351 6 6 0 108.484 8.485 53.447 53.447 0 0015.254-44.474 51.771 51.771 0 00-.866-5.058 53.284 53.284 0 00-6.273-15.739l20.847 20.845a6 6 0 0010.066-2.8l10.222-41.331 15.562 15.563a6.006 6.006 0 005.778 1.558l1.073-.3a59.088 59.088 0 0010.735 67.766L298.693 413a6.222 6.222 0 004.269 2 6.217 6.217 0 004.27-2l58.53-59.5a41.884 41.884 0 000-59.126 29.953 29.953 0 01-4.385-36.526zM471.521 17.061a298.168 298.168 0 01-6.094 54.3A124.694 124.694 0 01417.062 23.2a297.374 297.374 0 0154.459-6.139zM118.545 215.247l-30.058-29.686 55.123-54.321a29.771 29.771 0 0142.1 0 41.911 41.911 0 0033.476 12.006 311.053 311.053 0 00-36.56 73.713 47.03 47.03 0 01-64.081-1.712zm58.6 116.177a15.809 15.809 0 01-13.292 11.4l-20.158 2.5 2.5-20.153a15.951 15.951 0 0111.78-13.4 15.85 15.85 0 0119.175 19.659zm35.123-9.477l-45.329-45.328 39.153-8.3 15.584 15.581zm40.909-23.511l-63.557-63.557q1.6-5.66 3.433-11.248c.036-.036.073-.068.109-.1l-.057-.057A301.408 301.408 0 01379.163 33.715q12.725-4.463 25.755-7.728a136.694 136.694 0 0057.732 57.506c-25.666 102.418-104.582 185.892-209.473 214.943zm104.071 46.5l-54.291 55.094-29.686-30.057a47.024 47.024 0 01-1.032-64.83 308.378 308.378 0 0073.032-35.806 41.922 41.922 0 0012.007 33.469 29.813 29.813 0 01-.03 42.132z"/><path d="M154.21 384.878A41.7 41.7 0 01144.5 386h-9.452a6 6 0 000 12h9.452a53.678 53.678 0 0012.5-1.452 6 6 0 00-2.795-11.67zM395.659 260.914a5.974 5.974 0 003.824-1.379 310.322 310.322 0 0012.6-11.02 6 6 0 10-8.137-8.819 305.072 305.072 0 01-12.121 10.6 6 6 0 003.83 10.621zM494.754 102.88a6 6 0 00-7.48 4.007 297.025 297.025 0 01-19.462 48.466 298.902 298.902 0 01-9.221 16.792 300.794 300.794 0 01-12.8 19.8A300.531 300.531 0 01422.505 221a6 6 0 008.881 8.071 312.778 312.778 0 0024.214-30.222 311.942 311.942 0 0013.314-20.593c3.373-5.7 6.6-11.577 9.594-17.469a309.129 309.129 0 0020.249-50.428 6 6 0 00-4.003-7.479zM20.991 250.51a5.982 5.982 0 004.242-1.757l4.595-4.595a6 6 0 00-8.484-8.485l-4.6 4.595a6 6 0 004.242 10.242zM42.862 231.124l20.531-20.53a6 6 0 10-8.485-8.486l-20.53 20.53a6 6 0 108.484 8.486zM25.787 271.18a6 6 0 008.485 0l24.133-24.134a6 6 0 00-8.486-8.485l-24.133 24.133a6 6 0 00.001 8.486zM65.961 237a5.982 5.982 0 004.242-1.757l8.922-8.921a6 6 0 10-8.484-8.486l-8.922 8.922A6 6 0 0065.961 237zM41.4 278.547l-26.66 26.658a6 6 0 008.485 8.485l26.658-26.658a6 6 0 10-8.485-8.485zM94.856 233.573a6 6 0 00-8.484 0L55.141 264.8a6 6 0 108.484 8.486l31.231-31.232a6 6 0 000-8.481zM212.9 427.226l-4.6 4.594a6 6 0 008.486 8.485l4.594-4.6a6 6 0 00-8.486-8.484zM246.461 393.661l-20.53 20.53a6 6 0 108.484 8.485l20.53-20.53a6 6 0 00-8.484-8.485zM217.338 462.732a6 6 0 008.485 0l24.134-24.132a6 6 0 10-8.484-8.485l-24.134 24.133a6 6 0 00-.001 8.484zM253.271 426.8a6 6 0 008.486 0l8.921-8.922a6 6 0 00-8.487-8.485l-8.92 8.921a6 6 0 000 8.486zM232.951 470.1l-26.658 26.657a6 6 0 108.484 8.486l26.659-26.658a6 6 0 10-8.485-8.485zM277.925 425.125l-31.232 31.232a6 6 0 108.485 8.485l31.231-31.231a6 6 0 10-8.484-8.486zM447.828 352.31a33.632 33.632 0 01-21.135-21.2 6 6 0 00-11.386 0 33.632 33.632 0 01-21.135 21.2 6 6 0 000 11.38 33.632 33.632 0 0121.135 21.2 6 6 0 0011.386 0 33.632 33.632 0 0121.135-21.2 6 6 0 000-11.38zM421 369.691A45.932 45.932 0 00409.332 358 45.932 45.932 0 00421 346.309 45.932 45.932 0 00432.668 358 45.932 45.932 0 00421 369.691zM22.172 122.69a33.632 33.632 0 0121.135 21.2 6 6 0 0011.386 0 33.632 33.632 0 0121.135-21.2 6 6 0 000-11.38 33.632 33.632 0 01-21.135-21.2 6 6 0 00-11.386 0 33.632 33.632 0 01-21.135 21.2 6 6 0 000 11.38zM49 105.309A45.932 45.932 0 0060.668 117 45.932 45.932 0 0049 128.691 45.932 45.932 0 0037.332 117 45.932 45.932 0 0049 105.309z"/><ellipse cx="127.038" cy="54" rx="10.985" ry="11"/><ellipse cx="402.038" cy="445" rx="10.985" ry="11"/><path d="M336.744 107.968a43.86 43.86 0 1031.021 74.891 43.87 43.87 0 00-31.022-74.891zm22.536 66.406a31.871 31.871 0 110-45.071 31.906 31.906 0 010 45.071z"/></g></svg>