<svg xmlns="http://www.w3.org/2000/svg" viewBox="0 0 470.988 470.988"><path d="M235.494 175.412c-32.914 0-60.082 27.167-60.082 60.082s27.167 60.082 60.082 60.082 60.082-27.167 60.082-60.082-27.168-60.082-60.082-60.082z" fill="#4dcfe0"/><g fill="#3a2c51"><path d="M75.624 397.453c-4.18 0-7.837-1.567-10.971-4.702-86.204-86.727-86.204-227.788 0-314.514 6.269-6.269 16.196-6.269 21.943 0 6.269 6.269 6.269 16.196 0 21.943-74.188 74.71-74.188 195.918 0 270.629 6.269 6.269 6.269 16.196 0 21.943-3.135 3.134-6.792 4.701-10.972 4.701zM395.363 397.453c-4.18 0-7.837-1.567-10.971-4.702-6.269-6.269-6.269-16.196 0-21.943 74.188-74.71 74.188-195.918 0-270.629-6.269-6.269-6.269-16.196 0-21.943 6.269-6.269 16.196-6.269 21.943 0 86.204 86.727 86.204 227.788 0 314.514-3.135 3.136-6.792 4.703-10.972 4.703z"/><path d="M141.976 331.624c-4.18 0-7.837-1.567-10.971-4.702-50.678-50.678-50.678-132.702 0-182.857 6.269-6.269 16.196-6.269 21.943 0 6.269 6.269 6.269 16.196 0 21.943-38.139 38.139-38.139 100.31 0 138.971 6.269 6.269 6.269 16.196 0 21.943-3.136 3.135-6.793 4.702-10.972 4.702zM329.012 331.624c-4.18 0-7.837-1.567-10.971-4.702-6.269-6.269-6.269-16.196 0-21.943 38.139-38.139 38.139-100.31 0-138.971-6.269-6.269-6.269-16.196 0-21.943 6.269-6.269 16.196-6.269 21.943 0 50.678 50.678 50.678 132.702 0 182.857-3.135 3.135-6.792 4.702-10.972 4.702z"/></g></svg>