<svg viewBox="0 0 512 512" xmlns="http://www.w3.org/2000/svg"><path d="M226 59V31c0-11.598 9.402-21 21-21h78c11.598 0 21 9.402 21 21v28c0 11.598-9.402 21-21 21h-78c-11.598 0-21-9.402-21-21z" fill="#a0c8ff"/><path d="M216 350.355l20-70h120l-20 70z" fill="#b8ecbc"/><path d="M176 280.355v70H56v-70z" fill="#ff7b79"/><path d="M286 230.355l-90.178-50.177L286 130l90.178 50.178z" fill="#ffda8f"/><path d="M336 400.355H236l-30 35 30 35h100l30-35z" fill="#a0c8ff"/><path d="M463.07 37.93A10.076 10.076 0 00456 35H356v-4c0-8.28-3.23-16.07-9.08-21.92C341.07 3.229 333.28 0 325 0h-78c-8.28 0-16.07 3.229-21.92 9.08C219.23 14.93 216 22.72 216 31v28c0 8.28 3.23 16.069 9.08 21.92C230.93 86.77 238.72 90 247 90h29v34.12l-82.773 46.058H116c-5.523 0-10 4.478-10 10v90.182H56c-2.63 0-5.21 1.061-7.07 2.921A10.095 10.095 0 0046 280.36v69.99c0 2.641 1.07 5.21 2.93 7.08 1.86 1.86 4.44 2.92 7.07 2.92h50v75.006c0 5.522 4.477 10 10 10h85.406l27.003 31.504a9.976 9.976 0 007.59 3.49h40V502c0 5.51 4.49 10 10 10s10-4.49 10-10v-21.65h40a9.98 9.98 0 007.59-3.49l30-35a9.959 9.959 0 002.4-6.5c0-2.39-.85-4.71-2.4-6.51l-30-35a9.99 9.99 0 00-7.59-3.5h-40v-30h40c2.19 0 4.28-.689 6.02-2.01a9.9 9.9 0 003.59-5.24l20.01-70c.85-3 .24-6.28-1.64-8.77s-4.86-3.971-7.98-3.971h-60V236.23l82.776-46.051H456c2.63 0 5.21-1.07 7.07-2.93s2.93-4.44 2.93-7.07V160c0-5.51-4.49-10-10-10s-10 4.49-10 10v10.18h-67.224L296 124.12V90h29c8.28 0 16.07-3.23 21.92-9.08C352.77 75.069 356 67.28 356 59v-4h90v15c0 5.51 4.49 10 10 10s10-4.49 10-10V45c0-2.63-1.07-5.21-2.93-7.07zM66 290.35h100v50H66zm60 70h50c2.63 0 5.21-1.06 7.07-2.92s2.93-4.439 2.93-7.08v-69.99c0-2.64-1.07-5.21-2.93-7.079a10.067 10.067 0 00-7.07-2.921h-50v-80.182h67.221L276 236.23v34.129h-40c-2.19 0-4.28.69-6.02 2.011a9.898 9.898 0 00-3.59 5.239l-20 70c-.86 3-.25 6.28 1.63 8.771 1.87 2.49 4.86 3.97 7.98 3.97h60v30h-40a9.99 9.99 0 00-7.59 3.5l-27.005 31.506H126zm205.4 50l21.43 25.01-21.43 25h-90.8l-21.43-25 21.43-25.01zm11.34-120l-14.28 50h-99.2l14.28-50zm12.87-110.17L286 218.91l-69.61-38.73L286 141.44zM336 59c-.01 6.05-4.95 10.99-11 11h-78c-6.05-.01-10.99-4.95-11-11V31c.01-6.05 4.95-10.99 11-11h78c6.05.01 10.99 4.95 11 11z"/><circle cx="456" cy="115" r="10"/></svg>