<svg viewBox="0 0 512 512" xmlns="http://www.w3.org/2000/svg"><path d="M512 287v90c0 8.28-6.72 15-15 15H271v45c0 8.28-6.72 15-15 15s-15-6.72-15-15v-60c0-8.28 6.72-15 15-15h226v-60H346c-8.28 0-15-6.72-15-15s6.72-15 15-15h151c8.28 0 15 6.72 15 15z" fill="#61729b"/><path d="M512 287v90c0 8.28-6.72 15-15 15H271v45c0 8.28-6.72 15-15 15v-90h226v-60H346c-8.28 0-15-6.72-15-15s6.72-15 15-15h151c8.28 0 15 6.72 15 15z" fill="#47568c"/><path d="M271 15v32c0 8.28-6.72 15-15 15s-15-6.72-15-15V15c0-8.28 6.72-15 15-15s15 6.72 15 15z" fill="#61729b"/><path d="M271 15v32c0 8.28-6.72 15-15 15V0c8.28 0 15 6.72 15 15z" fill="#47568c"/><path d="M271 167v90c0 8.28-6.72 15-15 15s-15-6.72-15-15v-90c0-8.28 6.72-15 15-15s15 6.72 15 15z" fill="#61729b"/><path d="M271 167v90c0 8.28-6.72 15-15 15V152c8.28 0 15 6.72 15 15z" fill="#47568c"/><path d="M166 302H15c-8.284 0-15-6.716-15-15V107c0-8.284 6.716-15 15-15h121c8.284 0 15 6.716 15 15s-6.716 15-15 15H30v150h136c8.284 0 15 6.716 15 15s-6.716 15-15 15z" fill="#61729b"/><path d="M256 422c-24.81 0-45 20.19-45 45s20.19 45 45 45 45-20.19 45-45-20.19-45-45-45z" fill="#fed843"/><path d="M301 467c0 24.81-20.19 45-45 45v-90c24.81 0 45 20.19 45 45z" fill="#fabe2c"/><path d="M382.71 93.58l-120-60C260.6 32.52 258.3 32 256 32s-4.6.52-6.71 1.58l-120 60a15.008 15.008 0 000 26.84l120 60c2.11 1.05 4.41 1.58 6.71 1.58s4.6-.53 6.71-1.58l120-60a15.008 15.008 0 000-26.84z" fill="#7ed8f6"/><path d="M391 107c0 5.68-3.21 10.88-8.29 13.42l-120 60A15.064 15.064 0 01256 182V32c2.3 0 4.6.52 6.71 1.58l120 60c5.08 2.54 8.29 7.74 8.29 13.42z" fill="#6aa9ff"/><path d="M346 242H166c-8.28 0-15 6.72-15 15v60c0 8.28 6.72 15 15 15h180c8.28 0 15-6.72 15-15v-60c0-8.28-6.72-15-15-15z" fill="#ff7b4a"/><path d="M361 257v60c0 8.28-6.72 15-15 15h-90v-90h90c8.28 0 15 6.72 15 15z" fill="#ff435b"/></svg>