<svg viewBox="0 0 512 512" xmlns="http://www.w3.org/2000/svg"><g fill="#57a4ff"><path d="M40 88h24v120H40zM331.88 196.12a96 96 0 100 135.76 96 96 0 000-135.76zm-16.97 118.79a72 72 0 110-101.82 71.992 71.992 0 010 101.82zM456.33 445.02l-11.31 11.31a16 16 0 01-22.63 0l-84.85-84.85 5.66-5.66 22.62-22.62 5.66-5.66 84.85 84.85a16 16 0 010 22.63zM432 168h32v176h-32zM496 32v32H16V32a16 16 0 0116-16h448a16 16 0 0116 16z"/><path d="M331.88 196.12a96 96 0 100 135.76 96 96 0 000-135.76zm-16.97 118.79a72 72 0 110-101.82 71.992 71.992 0 010 101.82zM456.33 445.02l-11.31 11.31a16 16 0 01-22.63 0l-84.85-84.85 5.66-5.66 22.62-22.62 5.66-5.66 84.85 84.85a16 16 0 010 22.63zM40 88h24v120H40zM432 168h32v176h-32z"/></g><g fill="#004fac"><path d="M480 8H32A24.032 24.032 0 008 32v448a24.032 24.032 0 0024 24h448a24.032 24.032 0 0024-24V32a24.032 24.032 0 00-24-24zm8 472a8.011 8.011 0 01-8 8H32a8.011 8.011 0 01-8-8V72h464zm0-424H24V32a8.011 8.011 0 018-8h448a8.011 8.011 0 018 8z"/><circle cx="48" cy="40" r="8"/><circle cx="72" cy="40" r="8"/><circle cx="96" cy="40" r="8"/><path d="M461.99 416.73l-84.85-84.85a8.015 8.015 0 00-11.32 0l-13.27-13.27a104.307 104.307 0 003.42-103.26L448 123.31V136a8 8 0 0016 0v-32a8 8 0 00-8-8h-32a8 8 0 000 16h12.69l-89.53 89.53a104.632 104.632 0 00-9.62-11.07 104 104 0 00-148.15 145.98 8.059 8.059 0 00-3.05 1.9L168 356.69l-18.34-18.35a8.015 8.015 0 00-11.32 0l-68 68a8 8 0 0011.32 11.32L144 355.31l18.34 18.35a8.015 8.015 0 0011.32 0l24-24a7.981 7.981 0 002.12-3.84 104.141 104.141 0 00118.83 6.73l13.27 13.27a8.015 8.015 0 000 11.32l84.86 84.85a24.021 24.021 0 0033.94 0l11.31-11.31a24.034 24.034 0 000-33.95zm-135.77-90.51a87.983 87.983 0 119.48-113.23l-5.75 5.75a79.995 79.995 0 10-122.52 101.83 79.994 79.994 0 00130.48-87.16l6.1-6.11a88.08 88.08 0 01-17.79 98.92zm-95.56-9.56L288 259.31l6.34 6.35a8.015 8.015 0 0011.32 0l19.72-19.73a63.989 63.989 0 01-96.1 71.83 8.434 8.434 0 001.38-1.1zm-11.32-11.32a8.021 8.021 0 00-1.77 2.68 63.987 63.987 0 11100.82-77.73L300 248.69l-6.34-6.35a8.015 8.015 0 00-11.32 0zm112.54 37.86l11.32-11.32 11.31 11.32-11.31 11.31zm118.8 96.16l-11.32 11.32a8.012 8.012 0 01-11.31 0l-79.2-79.2 22.63-22.63 79.2 79.2a8.021 8.021 0 010 11.31zM50.343 426.343l-8 8a8 8 0 0011.314 11.314l8-8a8 8 0 00-11.314-11.314z"/><path d="M91.056 240l13.789 27.578A8 8 0 00112 272h32a8 8 0 000-16h-27.056l-13.789-27.578A8 8 0 0096 224H40a8 8 0 000 16zM264 408a8 8 0 00-8 8v48a8 8 0 0016 0v-48a8 8 0 00-8-8zM40 216h24a8 8 0 008-8V88a8 8 0 00-8-8H40a8 8 0 00-8 8v120a8 8 0 008 8zm8-120h8v104h-8zM88 216h24a8 8 0 008-8v-72a8 8 0 00-8-8H88a8 8 0 00-8 8v72a8 8 0 008 8zm8-72h8v56h-8zM88 96h72a8 8 0 000-16H88a8 8 0 000 16zM88 120h40a8 8 0 000-16H88a8 8 0 000 16zM464 160h-32a8 8 0 00-8 8v176a8 8 0 008 8h32a8 8 0 008-8V168a8 8 0 00-8-8zm-8 24a8 8 0 000 16v16a8 8 0 000 16v16a8 8 0 000 16v16a8 8 0 000 16v16a8 8 0 000 16v8h-16V176h16z"/></g></svg>