<svg viewBox="0 0 512 512" xmlns="http://www.w3.org/2000/svg"><path d="M256 442.4a7.726 7.726 0 01-7.726-7.726V384.98a7.726 7.726 0 1115.452 0v49.694A7.725 7.725 0 01256 442.4z" fill="#986b54"/><path d="M258.833 441.855a7.434 7.434 0 01-2.833.546 7.729 7.729 0 01-7.726-7.726v-49.696a7.729 7.729 0 017.726-7.726c.999 0 1.957.185 2.833.546a7.701 7.701 0 00-4.893 7.181v49.696a7.701 7.701 0 004.893 7.179z" fill="#845c47"/><path d="M466.041 394.13a2661.028 2661.028 0 01-420.083 0c-9.912-.784-17.958-8.381-19.222-18.243-12.23-95.446-13.472-190.899-3.743-286.344a1280.283 1280.283 0 016.016-49.376c151.323-12.929 302.657-12.929 453.98 0a1279.269 1279.269 0 016.016 49.356c9.729 95.455 8.487 190.91-3.743 286.364-1.262 9.862-9.309 17.459-19.221 18.243z" fill="#ededed"/><path d="M489.006 89.523a30.268 30.268 0 01-9.519 1.69c-149.005 2.102-298 2.102-446.995 0a30.487 30.487 0 01-9.498-1.669 1280.283 1280.283 0 016.016-49.376c151.323-12.929 302.657-12.929 453.98 0a1278.978 1278.978 0 016.016 49.355z" fill="#dbdbdb"/><path d="M479.482 68.473a15812.76 15812.76 0 01-446.99 0c-12.756-.18-24.243-8.349-28.017-20.535-2.546-8.222-2.66-16.445-.342-24.667C7.716 10.562 19.316 1.766 32.518 1.579a15812.76 15812.76 0 01446.99 0c12.756.18 24.243 8.349 28.017 20.535 2.546 8.222 2.66 16.445.342 24.667-3.583 12.709-15.183 21.505-28.385 21.692z" fill="#986b54"/><path d="M506.338 50.952c-4.708 10.425-15.154 17.359-26.857 17.523a15842.494 15842.494 0 01-446.985 0C19.732 68.29 8.245 60.121 4.475 47.934c-2.545-8.221-2.658-16.442-.34-24.663C7.72 10.559 19.32 1.761 32.516 1.576a6930.03 6930.03 0 0120.892-.278 30.14 30.14 0 00-1.525 4.172c-2.318 8.221-2.204 16.452.35 24.673 3.77 12.187 15.257 20.356 28.011 20.531a15748.479 15748.479 0 00426.094.278z" fill="#845c47"/><path d="M256 512c-22.739 0-41.238-18.5-41.238-41.238s18.499-41.238 41.238-41.238 41.238 18.5 41.238 41.238S278.739 512 256 512zm0-56.722c-8.538 0-15.484 6.946-15.484 15.484s6.946 15.484 15.484 15.484 15.484-6.946 15.484-15.484-6.946-15.484-15.484-15.484z" fill="#ffd064"/><g fill="#ffc250"><path d="M262.661 484.718a15.357 15.357 0 006.661 1.527c8.538 0 15.484-6.946 15.484-15.484s-6.946-15.484-15.484-15.484c-2.387 0-4.64.559-6.661 1.527 5.209 2.496 8.823 7.806 8.823 13.957s-3.615 11.461-8.823 13.957zM228.083 470.762c0-20.471 14.995-37.498 34.577-40.693a41.32 41.32 0 00-6.661-.546c-22.739 0-41.238 18.5-41.238 41.238S233.261 512 256 512a41.33 41.33 0 006.661-.546c-19.582-3.194-34.578-20.222-34.578-40.692z"/></g><g><path d="M258.311 226.861c10.214 4.096 38.941 34.919 36.026 44.985-13.729 47.403-57.461 82.063-109.296 82.063-37.108 0-70.063-17.763-90.831-45.248 2.056-35.518.01-26.931.01-52.66l90.821-15.865c0-.001 17.248-35.741 73.27-13.275z" fill="#e49542"/><path d="M298.814 240.135c0 11.003-1.566 21.644-4.481 31.709l-109.292-31.709V126.352c62.841 0 113.773 50.942 113.773 113.783z" fill="#80b4fb"/><path d="M185.051 240.125L94.22 308.653c-14.402-19.058-22.942-42.804-22.942-68.528z" fill="#95d6a4"/><path d="M159.812 101.122v113.784H46.039c0-62.841 50.932-113.784 113.773-113.784z" fill="#db5c6e"/></g><g><path d="M405.451 164.489h-63.093a7.01 7.01 0 01-7.01-7.01v-17.348a7.01 7.01 0 017.01-7.01h63.093a7.01 7.01 0 017.01 7.01v17.348a7.01 7.01 0 01-7.01 7.01z" fill="#db5c6e"/><path d="M352.082 276.087h-9.724a7.01 7.01 0 01-7.01-7.01v-17.348a7.01 7.01 0 017.01-7.01h9.724a7.01 7.01 0 017.01 7.01v17.348a7.01 7.01 0 01-7.01 7.01z" fill="#95d6a4"/><path d="M432.205 220.288h-89.848a7.01 7.01 0 01-7.01-7.01V195.93a7.01 7.01 0 017.01-7.01h89.848a7.01 7.01 0 017.01 7.01v17.348a7.01 7.01 0 01-7.01 7.01z" fill="#80b4fb"/><path d="M445.734 331.886H342.358a7.01 7.01 0 01-7.01-7.01v-17.348a7.01 7.01 0 017.01-7.01h103.376a7.01 7.01 0 017.01 7.01v17.348a7.01 7.01 0 01-7.01 7.01z" fill="#e49542"/></g></svg>