<!DOCTYPE svg PUBLIC "-//W3C//DTD SVG 20010904//EN" "http://www.w3.org/TR/2001/REC-SVG-20010904/DTD/svg10.dtd">
<svg version="1.0" xmlns="http://www.w3.org/2000/svg" width="186px" height="200px" viewBox="0 0 1860 2000" preserveAspectRatio="xMidYMid meet">
<g id="layer101" fill="#018490" stroke="none">
 <path d="M534 1779 c-208 -116 -382 -214 -386 -217 -4 -4 -36 -268 -72 -587 -37 -319 -68 -594 -71 -611 l-5 -31 464 -166 464 -166 464 166 c254 91 464 166 465 167 0 0 -31 277 -71 614 l-72 612 -384 215 c-212 118 -392 215 -401 215 -9 0 -186 -95 -395 -211z"/>
 </g>
<g id="layer102" fill="#00acc1" stroke="none">
 <path d="M534 1779 c-208 -116 -382 -214 -386 -217 -6 -6 -149 -1224 -144 -1229 1 -1 208 -76 461 -166 l460 -165 3 199 2 199 156 0 c119 0 162 4 184 15 61 31 60 24 60 585 0 561 1 554 -60 585 -22 11 -65 15 -185 15 l-155 0 0 195 c0 107 -4 195 -8 195 -5 0 -179 -95 -388 -211z"/>
 </g>
<g id="layer103" fill="#80d6e0" stroke="none">
 <path d="M588 1584 c-59 -31 -58 -26 -58 -584 0 -561 -1 -554 60 -585 43 -22 637 -22 680 0 61 31 60 24 60 585 0 561 1 554 -60 585 -43 22 -641 22 -682 -1z"/>
 </g>
<g id="layer104" fill="#ffffff" stroke="none">
 <path d="M588 1584 c-59 -31 -58 -26 -58 -584 0 -561 -1 -554 60 -585 43 -22 637 -22 680 0 61 31 60 24 60 585 0 561 1 554 -60 585 -43 22 -641 22 -682 -1z m413 -113 c64 -65 20 -171 -71 -171 -33 0 -48 6 -71 29 -64 65 -20 171 71 171 33 0 48 -6 71 -29z m217 -383 c16 -16 16 -160 0 -176 -17 -17 -559 -17 -576 0 -16 16 -16 160 0 176 17 17 559 17 576 0z m0 -300 c16 -16 16 -160 0 -176 -17 -17 -559 -17 -576 0 -16 16 -16 160 0 176 17 17 559 17 576 0z"/>
 </g>

</svg>