<svg xmlns="http://www.w3.org/2000/svg" viewBox="0 0 512 512"><path d="M512 180.628c0 49.499-40.499 90-90 90H90c-32.999 0-60 26.999-60 60 0 32.999 27.001 60 60 60h227c8.401 0 15 6.599 15 15 0 8.399-6.599 15-15 15H90c-49.501 0-90-40.501-90-90 0-49.501 40.499-90 90-90h332c32.999 0 60-27.001 60-60 0-33.001-27.001-60-60-60H195c-8.401 0-15-6.601-15-15 0-8.401 6.599-15 15-15h227c49.501 0 90 40.499 90 90z" fill="#1689fc"/><g fill="#136ef1"><path d="M332 405.628c0 8.399-6.599 15-15 15h-61v-30h61c8.401 0 15 6.599 15 15zM512 180.628c0 49.499-40.499 90-90 90H256v-30h166c32.999 0 60-27.001 60-60 0-33.001-27.001-60-60-60H256v-30h166c49.501 0 90 40.499 90 90z"/></g><g fill="#fd003a"><path d="M452 352.828v105.601l-30 24.899-82.5-13.799c-21.599-3.6-37.5-22.2-37.5-44.401v-39c0-22.2 15.901-40.8 37.5-44.399l82.5-13.801 30 24.9zM210 86.127v39c0 22.202-15.901 40.801-37.5 44.401L90 183.327l-30-24.899v-105.6l30-24.901 82.5 13.801c21.599 3.6 37.5 22.199 37.5 44.399z"/></g><g fill="#e50027"><path d="M210 105.628v19.499c0 22.202-15.901 40.801-37.5 44.401L90 183.327l-30-24.899v-52.8h150zM452 405.628v52.8l-30 24.899-82.5-13.799c-21.599-3.6-37.5-22.2-37.5-44.401v-19.499h150z"/></g><path d="M512 366.028v79.2c0 27.599-24.901 48.9-52.5 44.399-12.299-2.1-24.901-4.2-37.5-6.301v-155.4c12.599-2.1 25.201-4.2 37.5-6.299 27.599-4.499 52.5 16.801 52.5 44.401z" fill="#fea832"/><path d="M512 405.628v39.6c0 27.599-24.901 48.9-52.5 44.399-12.299-2.1-24.901-4.2-37.5-6.301v-77.699h90v.001z" fill="#fe9923"/><path d="M90 27.927v155.4c-12.599 2.1-25.201 4.2-37.5 6.301-27.599 4.5-52.5-16.8-52.5-44.4v-79.2c0-26.7 21.301-49.501 60-43.2l30 5.099z" fill="#fea832"/><path d="M90 105.628v77.699c-12.599 2.1-25.201 4.2-37.5 6.301-27.599 4.5-52.5-16.8-52.5-44.4v-39.6h90z" fill="#fe9923"/></svg>