<?xml version="1.0" encoding="iso-8859-1"?>
<!-- Generator: Adobe Illustrator 19.0.0, SVG Export Plug-In . SVG Version: 6.00 Build 0)  -->
<svg version="1.1" id="Capa_1" xmlns="http://www.w3.org/2000/svg" xmlns:xlink="http://www.w3.org/1999/xlink" x="0px" y="0px"
	 viewBox="0 0 512 512" style="enable-background:new 0 0 512 512;" xml:space="preserve">
<path style="fill:#1689FC;" d="M512,180.628c0,49.499-40.499,90-90,90H90c-32.999,0-60,26.999-60,60c0,32.999,27.001,60,60,60h227
	c8.401,0,15,6.599,15,15c0,8.399-6.599,15-15,15H90c-49.501,0-90-40.501-90-90c0-49.501,40.499-90,90-90h332
	c32.999,0,60-27.001,60-60c0-33.001-27.001-60-60-60H195c-8.401,0-15-6.601-15-15c0-8.401,6.599-15,15-15h227
	C471.501,90.628,512,131.127,512,180.628z"/>
<g>
	<path style="fill:#136EF1;" d="M332,405.628c0,8.399-6.599,15-15,15h-61v-30h61C325.401,390.628,332,397.227,332,405.628z"/>
	<path style="fill:#136EF1;" d="M512,180.628c0,49.499-40.499,90-90,90H256v-30h166c32.999,0,60-27.001,60-60
		c0-33.001-27.001-60-60-60H256v-30h166C471.501,90.628,512,131.127,512,180.628z"/>
</g>
<g>
	<path style="fill:#FD003A;" d="M452,352.828v105.601l-30,24.899l-82.5-13.799c-21.599-3.6-37.5-22.2-37.5-44.401v-39
		c0-22.2,15.901-40.8,37.5-44.399l82.5-13.801L452,352.828z"/>
	<path style="fill:#FD003A;" d="M210,86.127v39c0,22.202-15.901,40.801-37.5,44.401L90,183.327l-30-24.899v-105.6l30-24.901
		l82.5,13.801C194.099,45.328,210,63.927,210,86.127z"/>
</g>
<g>
	<path style="fill:#E50027;" d="M210,105.628v19.499c0,22.202-15.901,40.801-37.5,44.401L90,183.327l-30-24.899v-52.8
		C60,105.628,210,105.628,210,105.628z"/>
	<path style="fill:#E50027;" d="M452,405.628v52.8l-30,24.899l-82.5-13.799c-21.599-3.6-37.5-22.2-37.5-44.401v-19.499L452,405.628
		L452,405.628z"/>
</g>
<path style="fill:#FEA832;" d="M512,366.028v79.2c0,27.599-24.901,48.9-52.5,44.399c-12.299-2.1-24.901-4.2-37.5-6.301v-155.4
	c12.599-2.1,25.201-4.2,37.5-6.299C487.099,317.128,512,338.428,512,366.028z"/>
<path style="fill:#FE9923;" d="M512,405.628v39.6c0,27.599-24.901,48.9-52.5,44.399c-12.299-2.1-24.901-4.2-37.5-6.301v-77.699h90
	V405.628z"/>
<path style="fill:#FEA832;" d="M90,27.927v155.4c-12.599,2.1-25.201,4.2-37.5,6.301c-27.599,4.5-52.5-16.8-52.5-44.4v-79.2
	c0-26.7,21.301-49.501,60-43.2L90,27.927z"/>
<path style="fill:#FE9923;" d="M90,105.628v77.699c-12.599,2.1-25.201,4.2-37.5,6.301c-27.599,4.5-52.5-16.8-52.5-44.4v-39.6H90z"/>
<g>
</g>
<g>
</g>
<g>
</g>
<g>
</g>
<g>
</g>
<g>
</g>
<g>
</g>
<g>
</g>
<g>
</g>
<g>
</g>
<g>
</g>
<g>
</g>
<g>
</g>
<g>
</g>
<g>
</g>
</svg>
