<svg version="1.0" xmlns="http://www.w3.org/2000/svg" viewBox="0 0 2250 2240"><g fill="#0f2948"><path d="M951 1960c-306-64-556-294-652-600-21-66-24-94-24-240s3-174 24-240c88-282 299-493 581-582 67-21 93-23 250-22 169 0 178 1 261 31 95 33 192 84 253 132 30 24 49 31 81 31 36 0 48 5 69 31 73 87-22 207-123 155-32-17-51-54-51-101 0-28-7-39-42-65-63-47-193-105-278-126-108-26-261-24-368 4-349 93-585 397-585 752 0 616 681 983 1204 648 117-75 235-218 292-353 55-130 71-310 42-450-8-38-12-78-9-88 9-27 56-18 71 14 40 83 41 324 2 459-79 275-282 488-556 582-81 28-101 31-243 34-85 2-175-1-199-6z"/><path d="M730 1453c0-5 66-180 147-390l147-383h203l88 228c49 125 101 261 117 302s38 98 48 125c10 28 25 67 34 88l16 37h-186l-23-67c-76-228-188-534-196-534-5 0-19 28-31 63s-38 107-58 161c-26 71-32 99-23 102 6 3 50 6 96 7l83 3 23 62 22 62-141 3-141 3-24 68-23 67h-89c-49 0-89-3-89-7z"/></g></svg>