<svg viewBox="0 0 64 64" xmlns="http://www.w3.org/2000/svg"><g fill="#ff826e"><circle cx="52" cy="6" r="4"/><circle cx="32" cy="24" r="4"/><circle cx="12" cy="42" r="4"/></g><path d="M62 43v6l-2.49.64c-.32 1.18-.79 2.3-1.38 3.34l1.31 2.21-4.25 4.24-2.21-1.3c-1.04.59-2.16 1.06-3.34 1.38L49 62h-6l-.64-2.49c-1.18-.32-2.3-.79-3.34-1.38l-2.21 1.3-4.25-4.24 1.31-2.21c-.59-1.04-1.06-2.16-1.38-3.34L30 49v-6l2.49-.64c.23-.82.52-1.61.87-2.36H38c-1.26 1.67-2 3.75-2 6 0 5.52 4.48 10 10 10s10-4.48 10-10-4.48-10-10-10c-1.42 0-2.78.3-4 .83V30h7l.64 2.49c1.18.32 2.3.79 3.34 1.38l2.21-1.31 4.25 4.25-1.31 2.21c.59 1.04 1.06 2.16 1.38 3.34z" fill="#ffc729"/><path d="M46 36c5.52 0 10 4.48 10 10s-4.48 10-10 10-10-4.48-10-10c0-2.25.74-4.33 2-6h2c1.1 0 2-.9 2-2v-1.17c1.22-.53 2.58-.83 4-.83zm4 10c0-2.21-1.79-4-4-4s-4 1.79-4 4 1.79 4 4 4 4-1.79 4-4z" fill="#fcd770"/><path d="M62 12v8c0 1.1-.9 2-2 2H44c-1.1 0-2-.9-2-2v-8c0-1.1.9-2 2-2h16c1.1 0 2 .9 2 2zM42 30v8c0 1.1-.9 2-2 2H24c-1.1 0-2-.9-2-2v-8c0-1.1.9-2 2-2h16c1.1 0 2 .9 2 2zM2 56v-8c0-1.1.9-2 2-2h16c1.1 0 2 .9 2 2v8c0 1.1-.9 2-2 2H4c-1.1 0-2-.9-2-2z" fill="#e6e9ed"/><path d="M44 9c-1.654 0-3 1.346-3 3v8c0 1.654 1.346 3 3 3h16c1.654 0 3-1.346 3-3v-8c0-1.654-1.346-3-3-3h-4.026A4.948 4.948 0 0057 6c0-2.757-2.243-5-5-5a5.01 5.01 0 00-4.899 4H36c-2.757 0-5 2.243-5 5v9.101A5.016 5.016 0 0027.101 23H16c-2.757 0-5 2.243-5 5v9.101A5.01 5.01 0 007 42c0 1.13.391 2.162 1.026 3H4c-1.654 0-3 1.346-3 3v8c0 1.654 1.346 3 3 3h16c1.654 0 3-1.346 3-3v-8c0-1.654-1.346-3-3-3h-4.026A4.948 4.948 0 0017 42a5.01 5.01 0 00-4-4.899V28c0-1.654 1.346-3 3-3h11.101c.152.743.482 1.416.924 2H24c-1.654 0-3 1.346-3 3v8c0 1.654 1.346 3 3 3h7.88c-.063.177-.13.352-.186.532L29 42.225v7.551l2.694.692c.269.864.614 1.698 1.03 2.492l-1.415 2.391 5.34 5.34 2.391-1.414c.795.416 1.63.762 2.493 1.03L42.224 63h7.552l.691-2.693a15.053 15.053 0 002.493-1.03l2.391 1.414 5.34-5.34-1.415-2.391c.416-.794.761-1.628 1.03-2.492L63 49.775v-7.551l-2.694-.692a14.937 14.937 0 00-1.03-2.492l1.415-2.391-5.34-5.34-2.391 1.415a14.863 14.863 0 00-2.493-1.03L49.776 29h-6.96A2.996 2.996 0 0040 27h-4.026A4.948 4.948 0 0037 24a5.01 5.01 0 00-4-4.899V10c0-1.654 1.346-3 3-3h11.101c.152.743.482 1.416.924 2zM21 48v8c0 .552-.449 1-1 1H4c-.551 0-1-.448-1-1v-8c0-.552.449-1 1-1h16c.551 0 1 .448 1 1zm-6-6c0 1.654-1.346 3-3 3s-3-1.346-3-3 1.346-3 3-3 3 1.346 3 3zm33.817-8.69l.563.151c1.09.293 2.133.724 3.098 1.28l.506.292 2.049-1.213 3.146 3.146-1.212 2.051.292.506a12.86 12.86 0 011.28 3.097l.152.563 2.309.592v4.449l-2.309.593-.152.563a12.9 12.9 0 01-1.28 3.097l-.292.506 1.212 2.051-3.146 3.145-2.049-1.212-.506.292c-.966.557-2.008.988-3.097 1.28l-.564.151-.593 2.31h-4.448l-.593-2.31-.564-.151a12.92 12.92 0 01-3.097-1.28l-.506-.292-2.049 1.212-3.146-3.145 1.212-2.051-.292-.506a12.86 12.86 0 01-1.28-3.097l-.152-.563L31 48.225v-4.449l2.309-.593.152-.563a12.97 12.97 0 01.565-1.619h2.176A10.906 10.906 0 0035 46c0 6.065 4.935 11 11 11s11-4.935 11-11-4.935-11-11-11c-1.027 0-2.029.151-3 .426V31h5.224zM43 38v-.478A8.951 8.951 0 0146 37c4.962 0 9 4.037 9 9s-4.038 9-9 9-9-4.037-9-9c0-1.803.529-3.519 1.523-5H40c1.654 0 3-1.346 3-3zm-2-8v8c0 .552-.449 1-1 1H24c-.551 0-1-.448-1-1v-8c0-.551.449-1 1-1h16c.551 0 1 .449 1 1zm-6-6c0 1.654-1.346 3-3 3s-3-1.346-3-3 1.346-3 3-3 3 1.346 3 3zm26-12v8c0 .551-.449 1-1 1H44c-.551 0-1-.449-1-1v-8c0-.551.449-1 1-1h16c.551 0 1 .449 1 1zM49 6c0-1.654 1.346-3 3-3s3 1.346 3 3-1.346 3-3 3-3-1.346-3-3z"/><path d="M45 13h14v2H45zM45 17h14v2H45zM25 31h14v2H25zM25 35h14v2H25zM5 49h14v2H5zM5 53h14v2H5zM46 51c2.757 0 5-2.243 5-5s-2.243-5-5-5-5 2.243-5 5 2.243 5 5 5zm0-8c1.654 0 3 1.346 3 3s-1.346 3-3 3-3-1.346-3-3 1.346-3 3-3z"/></svg>