<svg xmlns="http://www.w3.org/2000/svg" viewBox="0 0 512 512"><path d="M336.655 309.197C313.884 288.436 301 275.729 301 256s12.884-32.436 35.655-53.197C372.251 170.349 421 125.903 421 15H91c0 110.903 48.749 155.349 84.345 187.803C198.116 223.564 211 236.271 211 256s-12.884 32.436-35.655 53.197C139.749 341.651 91 386.097 91 497h330c0-110.903-48.749-155.349-84.345-187.803z" fill="#ccefff"/><path d="M336.655 309.197C313.884 288.436 301 275.729 301 256s12.884-32.436 35.655-53.197C372.251 170.349 421 125.903 421 15H256v482h165c0-110.903-48.749-155.349-84.345-187.803z" fill="#ace3fc"/><g fill="#7d8aff"><path d="M61 0h390v30H61zM61 482h390v30H61z"/></g><path d="M219.734 402.939a24946.983 24946.983 0 01-38.368 6.014c-25.038 3.75-45.466 20.537-54.56 43.046h258.387c-9.094-22.509-29.522-39.296-54.56-43.046 0 0-21.239-3.312-38.368-6.014C280.019 401.007 271 390.451 271 378.053V256c0-33.935 22.073-54.06 45.443-75.367 15.053-13.724 31.771-28.974 45.555-50.633H150.001c13.785 21.659 30.502 36.91 45.555 50.633C218.927 201.94 241 222.065 241 256v122.053c0 12.398-9.019 22.954-21.266 24.886z" fill="#ffdc40"/><path d="M316.443 180.633c15.053-13.724 31.771-28.974 45.555-50.633H256v322h129.193c-9.094-22.509-29.522-39.296-54.56-43.046 0 0-21.239-3.312-38.368-6.014C280.019 401.007 271 390.451 271 378.053V256c0-33.935 22.073-54.06 45.443-75.367z" fill="#ffab15"/><g fill="#6e76e5"><path d="M256 0h195v30H256zM256 482h195v30H256z"/></g></svg>