<svg viewBox="0 0 504.375 504.375" xmlns="http://www.w3.org/2000/svg"><path d="M103.063 450.773h299.875v42.82H103.063z" fill="#6987a0"/><path d="M382.938 450.773h20v42.82h-20z" fill="#4b6276"/><path d="M103.063 10.781h299.875v48.195H103.063z" fill="#6987a0"/><path d="M382.938 10.781h20v48.195h-20z" fill="#4b6276"/><path d="M295.768 263.297c-6.104-3.92-6.104-12.868-.001-16.789C335.298 221.115 388 176.681 388 120.258c0-45.063-15.78-61.281-15.78-61.281H133.905S118 75.196 118 120.258c0 56.383 52.674 100.792 92.232 126.195 6.104 3.92 6.104 12.868.001 16.789C170.702 288.635 118 333.069 118 389.492c0 45.063 15.78 61.281 15.78 61.281h238.315S388 434.554 388 389.492c0-56.383-52.674-100.792-92.232-126.195z" fill="#fff"/><path d="M295.768 263.297c-6.104-3.92-6.104-12.869-.001-16.789C335.298 221.115 388 176.681 388 120.258c0-45.063-15.78-61.281-15.78-61.281H133.905s-5.659 5.777-10.226 20h237.415c3.366 7.825 6.906 21.499 6.906 41.281 0 48.792-52.028 89.501-83.042 109.424-8.621 5.537-13.769 14.967-13.768 25.224s5.149 19.686 13.773 25.222C315.974 300.041 368 340.732 368 389.492c0 19.803-3.579 33.475-6.974 41.281H123.634c4.531 14.223 10.146 20 10.146 20h238.315S388 434.554 388 389.492c0-56.383-52.674-100.792-92.232-126.195z" fill="#e6d0f1"/><path d="M227.52 219.524c-28.949-18.59-77.52-56.21-77.52-99.267 0-13.27 1.67-22.813 3.497-29.281H352.54c1.81 6.483 3.46 16.029 3.46 29.281 0 43.089-48.574 80.728-77.528 99.328-12.073 7.754-22.375 28.076-25.471 28.06s-13.404-20.367-25.481-28.121z" fill="#ffc277"/><path d="M352.54 90.977h-20.104l3.226 20c.211 2.767.338 5.855.338 9.281 0 24.53-24.908 54.601-68.338 82.501-5.596 3.594-10.456 8.409-14.642 13.313-4.083 5.41-7.72 11.667-10.973 18.302 5.262 6.939 9.229 13.263 10.953 13.272 3.095.016 13.397-20.307 25.471-28.061 28.955-18.6 77.529-56.238 77.529-99.327 0-13.252-1.65-22.798-3.46-29.281z" fill="#ff905b"/><path d="M348.629 418.773c-14.691-30.242-65.755-82.503-95.692-82.503-29.938 0-80.862 52.29-95.557 82.503z" fill="#ffc277"/><path d="M252.938 336.271c-4.489 0-9.451 1.183-14.69 3.283 31.902 11.904 77.894 53.513 90.382 79.22h20c-14.692-30.243-65.756-82.503-95.692-82.503z" fill="#ff905b"/><g><path d="M312.938 18.281h82.5v33.195H110.563V18.281h187.375v-15H95.563v63.195h24.941a79.311 79.311 0 00-1.489 3.395c-5.65 13.765-8.515 30.717-8.515 50.387 0 26.967 11.125 53.738 33.065 79.57 15.779 18.578 36.846 36.388 62.614 52.937.983.631 1.13 1.575 1.13 2.082s-.146 1.452-1.131 2.085c-17.624 11.321-33.22 23.383-46.354 35.847l10.326 10.881c12.452-11.818 27.302-23.293 44.135-34.107a17.4 17.4 0 008.024-14.706c0-5.98-3.001-11.478-8.025-14.703-24.521-15.747-44.467-32.577-59.286-50.025-19.573-23.044-29.498-46.549-29.498-69.859 0-31.915 8.408-48.17 12.113-53.781h230.969c4.907 7.286 11.919 24.974 11.919 53.781 0 23.327-9.929 46.847-29.51 69.906-14.819 17.453-34.763 34.287-59.275 50.034a17.4 17.4 0 00-8.024 14.706c0 5.98 3.001 11.478 8.025 14.703 24.521 15.747 44.467 32.577 59.286 50.025 19.573 23.045 29.498 46.549 29.498 69.859 0 28.825-7.078 46.512-12.024 53.781h-231c-3.648-5.535-11.977-21.695-11.977-53.781 0-25.252 11.6-50.661 34.477-75.522l-11.037-10.156c-25.507 27.718-38.439 56.544-38.439 85.679 0 26.147 5.189 43.403 9.985 53.781H95.563v57.82h314.875v-57.82h-24.941a79.311 79.311 0 001.489-3.395c5.65-13.765 8.515-30.717 8.515-50.387 0-26.967-11.125-53.738-33.065-79.57-15.779-18.578-36.846-36.388-62.614-52.937-.983-.631-1.13-1.575-1.13-2.082s.146-1.452 1.131-2.084c25.761-16.55 46.824-34.363 62.604-52.946 21.947-25.846 33.075-52.633 33.075-79.615 0-26.147-5.189-43.403-9.985-53.781h24.922V3.281h-97.5v15zm82.5 467.813H110.563v-27.82h284.875z"/><path d="M282.525 225.896c30.241-19.428 80.975-58.985 80.975-105.639 0-11.886-1.257-22.415-3.736-31.298l-1.53-5.483H147.822l-1.543 5.461c-2.508 8.879-3.779 19.417-3.779 31.32 0 46.623 50.729 86.159 80.967 105.577l.001.001c5.951 3.821 12.004 12.161 16.424 18.251 5.162 7.115 8.006 11.034 13.071 11.06h.05c5.082 0 7.942-3.935 13.121-11.058 4.411-6.067 10.452-14.377 16.391-18.192zm-28.524 9.373c-.319.438-.652.897-.989 1.357-.333-.457-.664-.912-.98-1.349-5.119-7.055-12.131-16.717-20.46-22.064l.001.001c-13.421-8.618-32.669-22.42-48.152-39.229-17.199-18.673-25.92-36.749-25.92-53.728 0-8.105.642-15.404 1.91-21.781h187.2c1.255 6.384 1.89 13.684 1.89 21.781 0 16.993-8.722 35.083-25.924 53.768-15.484 16.818-34.735 30.627-48.157 39.25-8.311 5.336-15.309 14.964-20.419 21.994zM150.637 415.493l-5.243 10.78h152.544v-15H170.351c18.891-28.837 59.91-67.503 82.587-67.503 22.759 0 63.835 38.667 82.726 67.503h-22.726v15h47.673l-5.235-10.777c-7.786-16.029-24.979-37.556-43.802-54.839-30.213-27.744-49.705-31.887-58.636-31.887-8.928 0-28.408 4.145-58.573 31.902-18.766 17.269-35.93 38.788-43.728 54.821zM245.438 269.938h15v14.938h-15zM245.438 299.938h15v14.938h-15zM35.576 91.771h14.973v28H35.576zM58.125 127.326h28v14.973h-28zM35.576 150.229h14.973v28H35.576zM0 127.326h28v14.973H0zM453.826 286.708h14.973v28h-14.973zM476.375 322.264h28v14.973h-28zM453.826 345.167h14.973v28h-14.973zM418.25 322.264h28v14.973h-28zM86.125 232.451h15v14.973h-15zM431.25 172.451h15v14.973h-15zM29 337.389h15v14.973H29zM438.75 427.389h15v14.973h-15z"/><path d="M224.694 187.84a246.61 246.61 0 01-12.143-9.59l9.674-11.463a231.18 231.18 0 0011.4 9.002zm-23.666-20.1c-3.953-3.919-7.534-7.854-10.644-11.695l11.66-9.438c2.767 3.419 5.978 6.944 9.544 10.479zm-19.851-25.113c-3.154-5.665-5.216-11.149-6.127-16.301l14.771-2.611c.619 3.503 2.12 7.411 4.461 11.615z" fill="#fff"/></g></svg>