<svg version="1.0" xmlns="http://www.w3.org/2000/svg" viewBox="0 0 2560 2560"><path d="M0 1280V0h2560v2560H0V1280z" fill="#854195"/><g fill="#fefefe"><path d="M993 2385c-40-17-53-42-53-99 0-75 29-94 150-98 63-3 65-4 62-28-8-54-61-75-126-50-19 7-30 5-48-9l-22-19 34-21c42-25 127-28 170-6 50 26 60 59 60 205v130h-30c-16 0-30-5-30-10 0-6-13-4-30 5-36 19-94 19-137 0zm151-61c9-8 16-31 16-50v-34h-62c-87 0-123 36-81 82 21 23 104 25 127 2zM1843 2386c-55-25-73-67-73-169 0-132 36-177 140-177 103 0 144 50 144 175 0 89-13 126-56 158-34 25-113 32-155 13zm121-75c37-40 33-155-6-191-40-37-101-17-119 38-14 44-5 129 17 153 23 26 85 25 108 0zM2166 2385c-21-7-46-21-55-29-14-15-14-18 5-36l20-21 48 22c75 33 146 15 146-37 0-18-8-25-37-33-21-6-53-11-71-11-39 0-87-23-96-45-9-26-7-84 4-106 26-48 140-65 220-33 44 18 48 28 24 55-14 16-19 16-49 3-49-20-108-18-128 4-36 39-13 56 87 67 47 6 65 13 89 36 26 27 29 35 24 75-2 25-13 54-22 64-35 39-137 51-209 25zM1276 2378c4-7 30-46 57-85 29-43 47-79 43-88-3-8-28-49-56-90l-51-75h38c35 0 41 4 77 61l39 61 39-61c35-56 42-61 73-61 19 0 35 2 35 5s-25 43-55 89l-56 83 56 81c30 44 55 83 55 86s-15 6-34 6c-29 0-37-7-70-55-20-30-40-55-44-55s-23 25-42 55c-32 51-38 55-73 55-28 0-36-3-31-12zM1630 2215v-175h70v350h-70v-175zM1630 1935c0-33 2-35 35-35s35 2 35 35-2 35-35 35-35-2-35-35zM320 1515l-155-155h1510l80 80 80 80H481l-3 75-3 75-155-155zM805 1120l-80-80h1354l3-75 3-75 155 155 155 155H885l-80-80z"/></g></svg>