<!DOCTYPE svg PUBLIC "-//W3C//DTD SVG 20010904//EN" "http://www.w3.org/TR/2001/REC-SVG-20010904/DTD/svg10.dtd">
<svg version="1.0" xmlns="http://www.w3.org/2000/svg" width="256px" height="256px" viewBox="0 0 2560 2560" preserveAspectRatio="xMidYMid meet">
<g id="layer101" fill="#854195" stroke="none">
 <path d="M0 1280 l0 -1280 1280 0 1280 0 0 1280 0 1280 -1280 0 -1280 0 0 -1280z"/>
 </g>
<g id="layer102" fill="#fefefe" stroke="none">
 <path d="M993 2385 c-40 -17 -53 -42 -53 -99 0 -75 29 -94 150 -98 63 -3 65 -4 62 -28 -8 -54 -61 -75 -126 -50 -19 7 -30 5 -48 -9 l-22 -19 34 -21 c42 -25 127 -28 170 -6 50 26 60 59 60 205 l0 130 -30 0 c-16 0 -30 -5 -30 -10 0 -6 -13 -4 -30 5 -36 19 -94 19 -137 0z m151 -61 c9 -8 16 -31 16 -50 l0 -34 -62 0 c-87 0 -123 36 -81 82 21 23 104 25 127 2z"/>
 <path d="M1843 2386 c-55 -25 -73 -67 -73 -169 0 -132 36 -177 140 -177 103 0 144 50 144 175 0 89 -13 126 -56 158 -34 25 -113 32 -155 13z m121 -75 c37 -40 33 -155 -6 -191 -40 -37 -101 -17 -119 38 -14 44 -5 129 17 153 23 26 85 25 108 0z"/>
 <path d="M2166 2385 c-21 -7 -46 -21 -55 -29 -14 -15 -14 -18 5 -36 l20 -21 48 22 c75 33 146 15 146 -37 0 -18 -8 -25 -37 -33 -21 -6 -53 -11 -71 -11 -39 0 -87 -23 -96 -45 -9 -26 -7 -84 4 -106 26 -48 140 -65 220 -33 44 18 48 28 24 55 -14 16 -19 16 -49 3 -49 -20 -108 -18 -128 4 -36 39 -13 56 87 67 47 6 65 13 89 36 26 27 29 35 24 75 -2 25 -13 54 -22 64 -35 39 -137 51 -209 25z"/>
 <path d="M1276 2378 c4 -7 30 -46 57 -85 29 -43 47 -79 43 -88 -3 -8 -28 -49 -56 -90 l-51 -75 38 0 c35 0 41 4 77 61 l39 61 39 -61 c35 -56 42 -61 73 -61 19 0 35 2 35 5 0 3 -25 43 -55 89 l-56 83 56 81 c30 44 55 83 55 86 0 3 -15 6 -34 6 -29 0 -37 -7 -70 -55 -20 -30 -40 -55 -44 -55 -4 0 -23 25 -42 55 -32 51 -38 55 -73 55 -28 0 -36 -3 -31 -12z"/>
 <path d="M1630 2215 l0 -175 35 0 35 0 0 175 0 175 -35 0 -35 0 0 -175z"/>
 <path d="M1630 1935 c0 -33 2 -35 35 -35 33 0 35 2 35 35 0 33 -2 35 -35 35 -33 0 -35 -2 -35 -35z"/>
 <path d="M320 1515 l-155 -155 755 0 755 0 80 80 80 80 -677 0 -677 0 -3 75 -3 75 -155 -155z"/>
 <path d="M805 1120 l-80 -80 677 0 677 0 3 -75 3 -75 155 155 155 155 -755 0 -755 0 -80 -80z"/>
 </g>

</svg>