<svg id="Capa_1" enable-background="new 0 0 495.113 495.113" height="512" viewBox="0 0 495.113 495.113" width="512" xmlns="http://www.w3.org/2000/svg"><g><path d="m474.57 424.578c-1.284.001-2.584-.328-3.772-1.021l-144.035-83.94c-3.579-2.086-4.789-6.678-2.704-10.256 2.086-3.579 6.68-4.788 10.256-2.704l144.035 83.94c3.579 2.086 4.789 6.678 2.704 10.256-1.393 2.391-3.904 3.724-6.484 3.725z" fill="#efedef"/></g><g><path d="m20.584 424.768c-2.579.001-5.089-1.329-6.485-3.716-2.09-3.576-.886-8.17 2.69-10.26l124.969-73.052c3.575-2.089 8.17-.886 10.26 2.69s.886 8.17-2.69 10.26l-124.97 73.052c-1.188.695-2.489 1.025-3.774 1.026z" fill="#efedef"/></g><g fill="#99e6fc"><path d="m96.5 403.969c-1.32.001-2.657-.345-3.87-1.076l-21.417-12.896c-2.25-1.355-3.628-3.79-3.631-6.417l-.027-25c-.004-4.142 3.35-7.504 7.492-7.508s7.504 3.35 7.508 7.492l.022 20.767 17.79 10.713c3.548 2.137 4.693 6.745 2.556 10.294-1.404 2.334-3.882 3.628-6.423 3.631z"/><path d="m75.008 314.385c-4.142.004-7.504-3.35-7.508-7.492l-.056-51.687c-.004-4.142 3.35-7.504 7.492-7.508s7.504 3.35 7.508 7.492l.056 51.687c.004 4.142-3.35 7.504-7.492 7.508z"/><path d="m74.896 211.011c-4.142.004-7.504-3.35-7.508-7.492l-.027-25c-.003-2.627 1.37-5.064 3.617-6.425l21.389-12.943c3.545-2.144 8.156-1.009 10.3 2.534 2.144 3.544 1.01 8.155-2.534 10.3l-17.767 10.751.022 20.767c.005 4.142-3.35 7.503-7.492 7.508z"/><path d="m139.525 146.892c-2.541.003-5.021-1.286-6.432-3.618-2.144-3.544-1.01-8.155 2.534-10.3l43.259-26.177c3.546-2.145 8.156-1.009 10.3 2.534 2.144 3.544 1.01 8.155-2.534 10.3l-43.259 26.177c-1.212.733-2.549 1.083-3.868 1.084z"/><path d="m268.79 94.565c-1.328.001-2.673-.35-3.891-1.089l-17.488-10.611-17.5 10.59c-3.544 2.146-8.155 1.01-10.3-2.534s-1.01-8.155 2.534-10.3l21.389-12.943c2.39-1.446 5.386-1.444 7.773.005l21.373 12.969c3.541 2.149 4.67 6.762 2.521 10.302-1.41 2.324-3.879 3.609-6.411 3.611z"/><path d="m354.702 146.698c-1.328.001-2.673-.35-3.891-1.089l-42.956-26.066c-3.541-2.149-4.67-6.762-2.521-10.302 2.149-3.541 6.762-4.669 10.302-2.521l42.956 26.066c3.541 2.149 4.67 6.762 2.521 10.302-1.41 2.322-3.879 3.607-6.411 3.61z"/><path d="m419.065 210.732c-4.142.004-7.504-3.35-7.508-7.492l-.022-20.784-17.768-10.782c-3.541-2.149-4.67-6.762-2.521-10.302s6.762-4.67 10.302-2.521l21.373 12.969c2.239 1.358 3.607 3.786 3.609 6.404l.027 25c.004 4.142-3.35 7.504-7.492 7.508z"/><path d="m419.177 313.981c-4.142.004-7.504-3.35-7.508-7.492l-.056-51.624c-.004-4.142 3.35-7.504 7.492-7.508s7.504 3.35 7.508 7.492l.056 51.624c.004 4.142-3.35 7.504-7.492 7.508z"/><path d="m397.922 403.622c-2.532.003-5.004-1.277-6.419-3.597-2.156-3.536-1.038-8.151 2.499-10.308l17.745-10.82-.022-20.784c-.004-4.142 3.35-7.504 7.492-7.508s7.504 3.35 7.508 7.492l.027 25c.003 2.618-1.36 5.048-3.596 6.412l-21.345 13.015c-1.216.742-2.561 1.096-3.889 1.098z"/><path d="m312.123 455.94c-2.532.003-5.004-1.277-6.419-3.597-2.156-3.536-1.038-8.151 2.499-10.308l42.899-26.159c3.537-2.158 8.152-1.037 10.308 2.499s1.038 8.151-2.499 10.308l-42.899 26.159c-1.216.742-2.561 1.096-3.889 1.098z"/><path d="m247.872 495.113c-1.342.001-2.684-.356-3.877-1.075l-21.417-12.896c-3.548-2.137-4.693-6.745-2.556-10.294 2.136-3.548 6.744-4.694 10.294-2.556l17.523 10.552 17.465-10.649c3.537-2.157 8.152-1.037 10.308 2.499s1.038 8.151-2.499 10.308l-21.345 13.015c-1.196.728-2.546 1.094-3.896 1.096z"/><path d="m183.132 456.135c-1.32.001-2.656-.345-3.87-1.076l-43.316-26.083c-3.548-2.137-4.693-6.745-2.556-10.294 2.136-3.548 6.743-4.694 10.294-2.556l43.316 26.083c3.548 2.137 4.693 6.745 2.556 10.294-1.406 2.335-3.883 3.629-6.424 3.632z"/></g><g id="XMLID_424_"><g><path d="m376.196 202.562-24.793-1.645-97.378 40.349-6.469 39.586v156.4c1.33 0 2.64-.35 3.82-1.07l122.22-74.35c2.2-1.34 3.54-3.72 3.54-6.3v-149.36c0-1.28-.34-2.52-.94-3.61z" fill="#f47c7c"/><path d="m241.404 252.435-108.336-55.386-15.552 6.363c-.35.87-.54 1.81-.54 2.78v149.33c0 2.58 1.35 4.97 3.56 6.31l123.2 74.36c1.18.71 2.5 1.07 3.82 1.06v-156.4z" fill="#ee6161"/><path d="m376.196 202.562-1.09.71-127.55 77.58-128.2-77.38-1.84-.06c.59-1.45 1.64-2.7 3.02-3.53l123.2-74.37c2.35-1.42 5.29-1.41 7.64.02l122.22 74.34c1.1.67 1.98 1.6 2.6 2.69z" fill="#f79595"/></g></g><g><path d="m247.556 285.445c-4.142 0-7.5-3.358-7.5-7.5v-19.215c0-4.142 3.358-7.5 7.5-7.5s7.5 3.358 7.5 7.5v19.215c0 4.143-3.358 7.5-7.5 7.5z" fill="#efedef"/></g><g><path d="m247.556 189.582c-4.142 0-7.5-3.358-7.5-7.5v-5.76c0-4.142 3.358-7.5 7.5-7.5s7.5 3.358 7.5 7.5v5.76c0 4.142-3.358 7.5-7.5 7.5z" fill="#efedef"/></g><g><path d="m247.556 232.59c-4.142 0-7.5-3.358-7.5-7.5v-5.76c0-4.142 3.358-7.5 7.5-7.5s7.5 3.358 7.5 7.5v5.76c0 4.143-3.358 7.5-7.5 7.5z" fill="#efedef"/></g><g><path d="m247.556 151.885c-4.142 0-7.5-3.358-7.5-7.5v-125.213c0-4.142 3.358-7.5 7.5-7.5s7.5 3.358 7.5 7.5v125.213c0 4.142-3.358 7.5-7.5 7.5z" fill="#efedef"/></g><g fill="#01c0fa"><circle cx="471.105" cy="416.935" r="23.886"/><circle cx="24.008" cy="416.935" r="23.886"/><circle cx="247.556" cy="23.886" r="23.886"/></g></svg>