<svg viewBox="0 0 495.113 495.113" xmlns="http://www.w3.org/2000/svg"><path d="M474.57 424.578a7.452 7.452 0 01-3.772-1.021l-144.035-83.94a7.5 7.5 0 017.552-12.96l144.035 83.94a7.5 7.5 0 01-3.78 13.981zM20.584 424.768a7.5 7.5 0 01-3.795-13.976l124.969-73.052a7.5 7.5 0 017.57 12.95l-124.97 73.052a7.463 7.463 0 01-3.774 1.026z" fill="#efedef"/><g fill="#99e6fc"><path d="M96.5 403.969a7.464 7.464 0 01-3.87-1.076l-21.417-12.896a7.502 7.502 0 01-3.631-6.417l-.027-25a7.5 7.5 0 0115-.016l.022 20.767 17.79 10.713a7.5 7.5 0 01-3.867 13.925zM75.008 314.385a7.5 7.5 0 01-7.508-7.492l-.056-51.687a7.5 7.5 0 0115-.016l.056 51.687a7.5 7.5 0 01-7.492 7.508zM74.896 211.011a7.5 7.5 0 01-7.508-7.492l-.027-25a7.503 7.503 0 013.617-6.425l21.389-12.943a7.501 7.501 0 017.766 12.834l-17.767 10.751.022 20.767a7.5 7.5 0 01-7.492 7.508zM139.525 146.892a7.5 7.5 0 01-3.898-13.918l43.259-26.177a7.5 7.5 0 117.766 12.834l-43.259 26.177a7.466 7.466 0 01-3.868 1.084zM268.79 94.565a7.469 7.469 0 01-3.891-1.089l-17.488-10.611-17.5 10.59c-3.544 2.146-8.155 1.01-10.3-2.534s-1.01-8.155 2.534-10.3l21.389-12.943a7.5 7.5 0 017.773.005l21.373 12.969a7.5 7.5 0 01-3.89 13.913zM354.702 146.698a7.469 7.469 0 01-3.891-1.089l-42.956-26.066a7.5 7.5 0 117.781-12.823l42.956 26.066a7.5 7.5 0 01-3.89 13.912zM419.065 210.732a7.5 7.5 0 01-7.508-7.492l-.022-20.784-17.768-10.782a7.5 7.5 0 117.781-12.823l21.373 12.969a7.497 7.497 0 013.609 6.404l.027 25a7.5 7.5 0 01-7.492 7.508zM419.177 313.981a7.5 7.5 0 01-7.508-7.492l-.056-51.624a7.5 7.5 0 0115-.016l.056 51.624a7.5 7.5 0 01-7.492 7.508zM397.922 403.622a7.5 7.5 0 01-3.92-13.905l17.745-10.82-.022-20.784a7.5 7.5 0 0115-.016l.027 25a7.501 7.501 0 01-3.596 6.412l-21.345 13.015a7.467 7.467 0 01-3.889 1.098zM312.123 455.94a7.5 7.5 0 01-3.92-13.905l42.899-26.159a7.5 7.5 0 017.809 12.807l-42.899 26.159a7.467 7.467 0 01-3.889 1.098zM247.872 495.113a7.492 7.492 0 01-3.877-1.075l-21.417-12.896a7.5 7.5 0 017.738-12.85l17.523 10.552 17.465-10.649a7.5 7.5 0 117.809 12.807l-21.345 13.015a7.51 7.51 0 01-3.896 1.096zM183.132 456.135a7.466 7.466 0 01-3.87-1.076l-43.316-26.083a7.5 7.5 0 017.738-12.85L187 442.209a7.5 7.5 0 01-3.868 13.926z"/></g><path d="M376.196 202.562l-24.793-1.645-97.378 40.349-6.469 39.586v156.4c1.33 0 2.64-.35 3.82-1.07l122.22-74.35a7.366 7.366 0 003.54-6.3v-149.36c0-1.28-.34-2.52-.94-3.61z" fill="#f47c7c"/><path d="M241.404 252.435l-108.336-55.386-15.552 6.363a7.44 7.44 0 00-.54 2.78v149.33a7.38 7.38 0 003.56 6.31l123.2 74.36a7.3 7.3 0 003.82 1.06v-156.4z" fill="#ee6161"/><path d="M376.196 202.562l-1.09.71-127.55 77.58-128.2-77.38-1.84-.06c.59-1.45 1.64-2.7 3.02-3.53l123.2-74.37a7.361 7.361 0 017.64.02l122.22 74.34c1.1.67 1.98 1.6 2.6 2.69z" fill="#f79595"/><path d="M247.556 285.445a7.5 7.5 0 01-7.5-7.5V258.73a7.5 7.5 0 0115 0v19.215a7.5 7.5 0 01-7.5 7.5zM247.556 189.582a7.5 7.5 0 01-7.5-7.5v-5.76a7.5 7.5 0 0115 0v5.76a7.5 7.5 0 01-7.5 7.5zM247.556 232.59a7.5 7.5 0 01-7.5-7.5v-5.76a7.5 7.5 0 0115 0v5.76a7.5 7.5 0 01-7.5 7.5z" fill="#efedef"/><g><path d="M247.556 151.885a7.5 7.5 0 01-7.5-7.5V19.172a7.5 7.5 0 0115 0v125.213a7.5 7.5 0 01-7.5 7.5z" fill="#efedef"/></g><g fill="#01c0fa"><circle cx="471.105" cy="416.935" r="23.886"/><circle cx="24.008" cy="416.935" r="23.886"/><circle cx="247.556" cy="23.886" r="23.886"/></g></svg>