<!DOCTYPE svg PUBLIC "-//W3C//DTD SVG 20010904//EN" "http://www.w3.org/TR/2001/REC-SVG-20010904/DTD/svg10.dtd">
<svg version="1.0"
  xmlns="http://www.w3.org/2000/svg" viewBox="0 0 3720 700" preserveAspectRatio="xMidYMid meet">
  <g id="layer101" fill="#000000" stroke="none">
    <path d="M19 679 c-19 -19 -21 -30 -17 -108 6 -121 33 -176 134 -265 59 -52 82 -66 103 -64 21 2 27 9 29 33 3 27 -6 39 -72 98 -82 74 -110 125 -104 193 l3 39 85 5 85 5 3 30 c6 45 -17 55 -130 55 -86 0 -100 -2 -119 -21z"/>
    <path d="M493 686 c-65 -21 -105 -50 -171 -127 -65 -74 -77 -110 -43 -129 29 -15 43 -6 112 72 69 78 120 107 187 108 l42 0 0 -79 c0 -81 12 -111 45 -111 36 0 45 29 45 140 0 101 -2 110 -22 124 -28 20 -135 20 -195 2z"/>
    <path d="M1588 693 c-17 -4 -18 -29 -18 -345 l0 -340 148 4 c123 2 153 6 186 23 57 29 79 64 84 133 5 70 -21 131 -68 159 -33 19 -37 28 -15 36 16 7 48 65 80 151 13 34 33 85 44 114 l21 53 -25 9 c-50 19 -67 1 -114 -124 -59 -154 -85 -176 -202 -176 l-59 0 0 150 c0 84 -4 150 -9 150 -5 0 -15 2 -23 4 -7 2 -21 2 -30 -1z m255 -398 c51 -33 70 -96 45 -150 -19 -41 -57 -55 -153 -55 l-85 0 0 108 c0 60 3 112 8 116 14 15 156 1 185 -19z"/>
    <path d="M2188 693 c-10 -2 -18 -12 -18 -21 0 -29 229 -655 242 -664 20 -12 62 -10 80 5 14 11 53 114 197 525 l51 143 -25 9 c-47 18 -67 0 -95 -86 l-27 -79 -143 0 -143 0 -27 79 c-30 87 -45 101 -92 89z m370 -261 c-1 -5 -25 -74 -53 -155 -27 -81 -52 -147 -55 -147 -3 0 -27 64 -54 143 -27 78 -51 148 -54 155 -3 9 23 12 108 12 61 0 110 -4 108 -8z"/>
    <path d="M2918 693 c-17 -4 -18 -29 -18 -343 l0 -338 25 -6 c14 -4 34 -2 45 4 19 10 20 22 20 341 l0 329 -26 10 c-14 6 -26 9 -27 9 -1 -1 -10 -3 -19 -6z"/>
    <path d="M958 684 c-5 -4 -8 -157 -8 -341 l0 -333 128 0 c70 0 144 5 165 11 125 34 163 185 70 278 -30 30 -32 36 -18 44 76 42 111 114 95 196 -10 56 -36 90 -91 121 -40 22 -57 25 -189 28 -80 2 -148 0 -152 -4z m308 -108 c49 -49 50 -113 3 -161 -29 -29 -31 -30 -132 -30 l-102 0 -3 113 -3 112 102 0 101 0 34 -34z m-49 -296 c48 -29 68 -74 54 -122 -16 -53 -50 -68 -156 -68 l-85 0 0 98 c0 54 3 102 7 105 3 4 38 7 77 7 53 0 79 -5 103 -20z"/>
    <path d="M3195 677 c-3 -7 -4 -158 -3 -337 l3 -325 125 -3 c145 -4 210 8 273 48 60 38 94 98 113 201 13 70 14 96 4 159 -13 83 -44 165 -59 156 -5 -4 -13 -1 -17 5 -4 8 -3 9 4 5 7 -4 12 -2 12 3 0 18 -81 71 -133 86 -66 20 -315 21 -322 2z m332 -99 c66 -43 88 -101 88 -228 0 -127 -22 -185 -88 -228 -36 -24 -52 -27 -144 -30 l-103 -4 0 262 0 262 103 -4 c92 -3 108 -6 144 -30z"/>
    <path d="M445 440 c-10 -32 2 -52 66 -105 79 -67 109 -117 109 -183 l0 -52 -71 0 c-81 0 -109 -11 -109 -43 0 -41 17 -47 137 -47 101 0 113 2 123 19 14 28 12 150 -4 204 -17 55 -54 110 -68 101 -6 -4 -8 -2 -4 4 3 5 -22 35 -56 66 -68 61 -111 73 -123 36z"/>
    <path d="M16 258 c-16 -23 -23 -167 -10 -215 9 -32 55 -46 132 -41 105 8 161 38 248 132 76 83 85 103 58 130 -29 30 -41 24 -112 -58 -80 -91 -105 -106 -179 -106 l-63 0 0 78 c0 47 -5 83 -12 90 -19 19 -45 14 -62 -10z"/>
  </g>

</svg>
