<svg xmlns="http://www.w3.org/2000/svg" viewBox="0 0 512 512"><path fill="#95a5a5" d="M186.576 420.534h138.847v78.709H186.576z"/><path d="M472.949 86.78H39.051a34.701 34.701 0 00-34.712 34.712v286.373a34.703 34.703 0 0034.712 34.712h433.898a34.703 34.703 0 0034.712-34.712V121.492a34.701 34.701 0 00-34.712-34.712z" fill="#bdc3c7"/><path d="M507.661 373.153V121.492a34.701 34.701 0 00-34.712-34.712H39.051a34.701 34.701 0 00-34.712 34.712v251.661h503.322z" fill="#35495e"/><path d="M125.831 477.288H386.17a8.678 8.678 0 018.678 8.678v17.356A8.678 8.678 0 01386.17 512H125.831a8.678 8.678 0 01-8.678-8.678v-17.356a8.678 8.678 0 018.678-8.678z" fill="#bdc3c7"/><g fill="#4c8056"><path d="M117.144 208.271a8.654 8.654 0 01-4.458-1.237L69.296 181a8.679 8.679 0 01-3.297-11.322l8.678-17.356a8.677 8.677 0 0115.023-.918 8.68 8.68 0 01.503 8.68l-5.085 10.17 36.5 21.898a8.677 8.677 0 01-4.474 16.119zM99.797 234.305H65.085a8.671 8.671 0 01-6.941-3.47L32.11 196.123a8.677 8.677 0 0113.881-10.415l23.432 31.242h30.373a8.678 8.678 0 01.001 17.355zM56.407 312.407a8.673 8.673 0 01-8.678-8.678v-34.712a8.686 8.686 0 015.458-8.059l43.39-17.356a8.679 8.679 0 116.44 16.118l-37.932 15.174v28.835a8.673 8.673 0 01-8.678 8.678zM108.475 338.441a8.644 8.644 0 01-6.135-2.543l-17.356-17.356a8.674 8.674 0 01-1.627-10.017l17.356-34.712a8.677 8.677 0 0115.023-.918 8.68 8.68 0 01.503 8.68l-14.56 29.119 12.932 12.932a8.678 8.678 0 01-6.136 14.815zM169.229 208.271a8.677 8.677 0 01-4.474-16.119l36.5-21.898-5.085-10.169a8.678 8.678 0 018.28-12.568 8.679 8.679 0 017.246 4.806l8.678 17.356a8.677 8.677 0 01-3.297 11.322l-43.39 26.034a8.653 8.653 0 01-4.458 1.236zM221.288 234.305h-34.712c-4.793 0-8.678-3.885-8.678-8.678s3.885-8.678 8.678-8.678h30.373l23.432-31.242a8.677 8.677 0 0113.881 10.415l-26.034 34.712a8.666 8.666 0 01-6.94 3.471zM229.966 312.407a8.673 8.673 0 01-8.678-8.678v-28.835l-37.932-15.174a8.68 8.68 0 01-2.164-14.89 8.679 8.679 0 018.604-1.228l43.39 17.356a8.686 8.686 0 015.458 8.059v34.712a8.673 8.673 0 01-8.678 8.678zM177.898 338.441a8.68 8.68 0 01-6.136-14.813l12.932-12.932-14.559-29.119a8.678 8.678 0 018.28-12.568 8.679 8.679 0 017.246 4.806l17.356 34.712a8.674 8.674 0 01-1.627 10.017L184.034 335.9a8.653 8.653 0 01-6.136 2.541z"/></g><path d="M143.186 147.525a8.673 8.673 0 01-8.678-8.678V8.678A8.678 8.678 0 01143.186 0a8.678 8.678 0 018.678 8.678v130.169a8.673 8.673 0 01-8.678 8.678z" fill="#d1d4d1"/><g fill="#fff"><path d="M290.712 130.169h60.746a8.678 8.678 0 018.678 8.678v52.068a8.678 8.678 0 01-8.678 8.678h-60.746a8.678 8.678 0 01-8.678-8.678v-52.068a8.678 8.678 0 018.678-8.678zM403.525 130.169h60.746a8.678 8.678 0 018.678 8.678v52.068a8.678 8.678 0 01-8.678 8.678h-60.746a8.678 8.678 0 01-8.678-8.678v-52.068a8.679 8.679 0 018.678-8.678z"/></g><path d="M290.712 234.305h173.559a8.678 8.678 0 018.678 8.678v17.356a8.678 8.678 0 01-8.678 8.678H290.712a8.678 8.678 0 01-8.678-8.678v-17.356a8.678 8.678 0 018.678-8.678z" fill="#bdc3c7"/><g fill="#fff"><path d="M360.136 312.407h-78.102a8.678 8.678 0 01-8.678-8.678 8.678 8.678 0 018.678-8.678h78.102a8.678 8.678 0 010 17.356zM360.136 347.119h-78.102c-4.793 0-8.678-3.885-8.678-8.678s3.885-8.678 8.678-8.678h78.102a8.678 8.678 0 010 17.356zM472.949 312.407h-78.102a8.678 8.678 0 01-8.678-8.678 8.678 8.678 0 018.678-8.678h78.102a8.678 8.678 0 018.678 8.678 8.678 8.678 0 01-8.678 8.678zM472.949 347.119h-78.102c-4.793 0-8.678-3.885-8.678-8.678s3.885-8.678 8.678-8.678h78.102c4.793 0 8.678 3.885 8.678 8.678s-3.885 8.678-8.678 8.678z"/></g><ellipse cx="143.186" cy="242.983" rx="52.068" ry="60.746" fill="#71c285"/><circle cx="143.186" cy="164.881" r="26.034" fill="#4c8056"/></svg>