<svg viewBox="0 0 512 512" xmlns="http://www.w3.org/2000/svg"><path d="M512 72.638v366.724c0 5.687-4.615 10.302-10.302 10.302H10.302C4.615 449.664 0 445.049 0 439.362V72.638c0-5.687 4.615-10.302 10.302-10.302h491.396c5.687 0 10.302 4.615 10.302 10.302z" fill="#e8e6ed"/><path d="M512 72.638v366.724c0 5.687-4.615 10.302-10.302 10.302H378.303c113.979-98.66 111.445-328.061 108.756-387.327h14.639C507.385 62.336 512 66.951 512 72.638z" fill="#d1d0d8"/><path d="M512 72.638v54.631H0V72.638c0-5.687 4.615-10.302 10.302-10.302h491.396c5.687 0 10.302 4.615 10.302 10.302z" fill="#d1d0d8"/><path d="M512 72.638v54.631h-24.549c.845-28.289.237-51.19-.391-64.932h14.639C507.385 62.336 512 66.951 512 72.638z" fill="#aaaab2"/><g fill="#717177"><path d="M41.255 102.531h-.117a7.726 7.726 0 110-15.452h.117a7.727 7.727 0 010 15.452zM64.58 102.531h-.116a7.726 7.726 0 110-15.452h.116a7.725 7.725 0 017.726 7.726 7.725 7.725 0 01-7.726 7.726zM87.907 102.531h-.116a7.726 7.726 0 110-15.452h.116a7.725 7.725 0 017.726 7.726 7.725 7.725 0 01-7.726 7.726zM470.862 102.531h-14.377a7.726 7.726 0 110-15.452h14.377a7.725 7.725 0 017.726 7.726 7.725 7.725 0 01-7.726 7.726z"/></g><path d="M200.092 179.818v132.059c0 5.69-4.612 10.302-10.302 10.302H57.731c-5.69 0-10.302-4.612-10.302-10.302V179.818c0-5.69 4.612-10.302 10.302-10.302H189.79c5.69 0 10.302 4.613 10.302 10.302z" fill="#26e4ff"/><path d="M200.092 179.818v132.059c0 5.69-4.612 10.302-10.302 10.302H99.67c69.177-41.805 69.074-120.881 65.89-152.662h24.23c5.69-.001 10.302 4.612 10.302 10.301z" fill="#22d0ff"/><path d="M200.092 356.216v42.577c0 5.69-4.612 10.302-10.302 10.302H57.731c-5.69 0-10.302-4.612-10.302-10.302v-42.577c0-5.69 4.612-10.302 10.302-10.302H189.79c5.69 0 10.302 4.613 10.302 10.302z" fill="#ffb800"/><path d="M200.092 356.216v42.577c0 5.69-4.612 10.302-10.302 10.302h-48.099c20.439-18.646 32.059-41.238 38.436-63.181h9.663c5.69 0 10.302 4.613 10.302 10.302z" fill="#ff9700"/><path d="M454.166 179.818v33.913c0 5.69-4.612 10.302-10.302 10.302h-98.64c-5.69 0-10.302-4.612-10.302-10.302v-33.913c0-5.69 4.612-10.302 10.302-10.302h98.64c5.689 0 10.302 4.613 10.302 10.302z" fill="#ab8eff"/><path d="M454.166 179.818v33.913c0 5.69-4.612 10.302-10.302 10.302h-40.816c18.481-16.04 30.102-35.242 37.251-54.517h3.564c5.69 0 10.303 4.613 10.303 10.302z" fill="#8f67ff"/><path d="M454.166 258.38v140.414c0 5.69-4.612 10.302-10.302 10.302h-98.64c-5.69 0-10.302-4.612-10.302-10.302V258.38c0-5.69 4.612-10.302 10.302-10.302h98.64c5.689 0 10.302 4.612 10.302 10.302z" fill="#2fd92d"/><path d="M454.166 258.38v140.414c0 5.69-4.612 10.302-10.302 10.302h-73.256c52.611-44.184 55.094-122.499 52.694-161.017h20.562c5.689-.001 10.302 4.611 10.302 10.301z" fill="#1fbf33"/><g><path d="M310.672 179.818v218.975c0 5.69-4.612 10.302-10.302 10.302h-65.056c-5.69 0-10.302-4.612-10.302-10.302V179.818c0-5.69 4.612-10.302 10.302-10.302h65.056c5.69 0 10.302 4.613 10.302 10.302z" fill="#ff5677"/><path d="M310.672 179.818v218.975c0 5.69-4.612 10.302-10.302 10.302h-55.867c50.705-69.723 51.406-198.732 50.242-239.579h5.625c5.69 0 10.302 4.613 10.302 10.302z" fill="#ff2953"/></g></svg>