<svg xmlns="http://www.w3.org/2000/svg" viewBox="0 0 512.002 512.002"><path d="M501.801 219.975l-68.916-86.146a46.548 46.548 0 00-36.346-17.469h-1.803a46.548 46.548 0 00-36.346 17.469l-68.916 86.146a46.548 46.548 0 00-10.2 29.077V442.18c0 25.706 20.839 46.546 46.546 46.546h139.636c25.706 0 46.546-20.84 46.546-46.546V249.053a46.565 46.565 0 00-10.201-29.078z" fill="#ce2478"/><path d="M314.182 255.998h139.636c19.28 0 34.909 15.629 34.909 34.909s-15.629 34.909-34.909 34.909H314.182c-19.28 0-34.909-15.629-34.909-34.909s15.629-34.909 34.909-34.909z" fill="#aa0d61"/><path d="M116.364 139.634h279.273c12.853 0 23.272 10.419 23.272 23.272 0 12.853-10.419 23.272-23.272 23.272H116.364c-12.853 0-23.272-10.419-23.272-23.272-.001-12.852 10.419-23.272 23.272-23.272z" fill="#2b315b"/><path d="M395.637 162.907H116.364a22.94 22.94 0 00-19.706 11.637 22.942 22.942 0 0019.706 11.637h279.273a22.94 22.94 0 0019.706-11.637 22.94 22.94 0 00-19.706-11.637z" fill="#191f4c"/><path d="M511.581 107.697c-1.312-13.571-18.597-18.866-28.237-9.226l-31.523 31.523c-12.857 12.849-33.697 12.841-46.546-.016-12.842-12.851-12.842-33.677 0-46.528l31.415-31.414c10.281-10.281 3.372-27.443-11.128-28.519a91.944 91.944 0 00-29.186 2.563c-36.432 9.089-64.845 40.45-69.73 77.68a94.436 94.436 0 001.548 33.499L139.636 325.817l69.818 69.818 188.559-188.559a94.477 94.477 0 0033.49 1.55c37.232-4.882 68.595-33.296 77.686-69.729a91.681 91.681 0 002.392-31.2z" fill="#bfc3ec"/><path d="M509.191 138.896c.729-2.924.953-5.755 1.392-8.627a32.583 32.583 0 00-21.855 9.365l-23.272 23.272c-12.853 12.852-33.692 12.852-46.546 0-12.852-12.853-33.691-12.854-46.544-.001l-.001.001-162.91 162.91c-12.853 12.852-12.854 33.691-.001 46.544l.001.001c4.334 4.332 9.668 6.657 15.205 8.068l173.355-173.355a94.477 94.477 0 0033.49 1.55c37.231-4.881 68.594-33.295 77.686-69.728z" fill="#9ea4e2"/><path d="M232.727 255.998l46.546-46.546c12.853-12.853 33.693-12.853 46.546 0 12.853 12.853 12.853 33.693 0 46.546l-46.546 46.545c-12.853 12.853-33.693 12.853-46.546 0-12.853-12.853-12.853-33.692 0-46.545z" fill="#8b92cf"/><path d="M69.818 69.816l23.273-23.272 46.545 23.272v23.272l162.91 162.91-23.273 23.272-162.909-162.908H93.092L69.818 69.816z" fill="#e0e2ff"/><path d="M267.636 244.362L104.727 81.453c-6.425-6.427-16.844-6.428-23.27-.002l-.002.002a16.292 16.292 0 00-3.32 4.997l14.956 29.912h23.272l151.273 151.273c6.427-6.428 6.427-16.847 0-23.273z" fill="#bfc3ec"/><path d="M237.548 274.451l60.178-60.178c6.427-6.427 16.846-6.427 23.272 0 6.427 6.427 6.427 16.846 0 23.272l-1.996 1.996c-9.088 9.088-9.088 23.824 0 32.913a23.27 23.27 0 0016.456 6.816h16.456a49.367 49.367 0 0134.909 14.46l87.444 87.444c19.28 19.28 19.28 50.539 0 69.818-19.28 19.28-50.539 19.28-69.818 0l-87.444-87.444a49.368 49.368 0 01-14.46-34.909v-16.456a23.273 23.273 0 00-6.816-16.456c-9.088-9.088-23.824-9.088-32.913 0l-1.996 1.996c-6.427 6.427-16.846 6.427-23.272 0-6.43-6.423-6.442-16.836-.02-23.266.005-.004.009-.008.02-.006z" fill="#0026ff"/><path d="M267.636 267.634c6.427 6.427 16.846 6.427 23.272 0L319 239.542l1.997-1.997c6.421-6.432 6.413-16.851-.017-23.272-6.424-6.415-16.831-6.415-23.255 0l-30.089 30.089c-6.425 6.426-6.425 16.845 0 23.272z" fill="#3b58ff"/><path d="M186.182 279.271h302.545c12.853 0 23.272 10.419 23.272 23.272V442.18c0 25.706-20.84 46.546-46.546 46.546H186.181l.001-209.455z" fill="#f32675"/><path d="M465.455 442.18H290.91c-19.28 0-34.909-15.629-34.909-34.909V314.18c0-19.28-15.629-34.909-34.909-34.909s-34.909 15.629-34.909 34.909v151.273c0 12.853 10.419 23.272 23.272 23.272h256.001c12.853 0 23.272-10.419 23.272-23.272s-10.42-23.273-23.273-23.273z" fill="#d51e70"/><path d="M222.528 219.975l-68.916-86.146a46.548 46.548 0 00-36.346-17.469h-1.803a46.548 46.548 0 00-36.346 17.469L10.2 219.975A46.547 46.547 0 000 249.053V442.18c0 25.706 20.84 46.546 46.546 46.546h139.636c25.706 0 46.546-20.84 46.546-46.546V249.053a46.558 46.558 0 00-10.2-29.078z" fill="#ff5794"/><path d="M156.438 144.363c-6.427.004-11.633 5.218-11.629 11.644.002 2.64.901 5.2 2.549 7.261l56.996 71.245a23.356 23.356 0 015.1 14.539v16.993c0 .215.005.429.017.64-.012.212-.017.425-.017.64v174.854c-.014 12.848-10.426 23.258-23.272 23.272h-31.296c-6.427 0-11.637 5.21-11.637 11.637s5.21 11.637 11.637 11.637h31.296c25.706 0 46.546-20.84 46.546-46.546V267.325c0-.215-.005-.429-.017-.64.012-.212.017-.425.017-.64v-16.992a46.546 46.546 0 00-10.2-29.077l-.632-.79-.015-.02c-.101-.128-.214-.267-.338-.422l-.007-.009-.046-.057-.049-.061-.001-.001-.098-.122-.008-.01-.205-.256-.022-.027-.1-.125-.005-.007-.11-.137-.016-.021-.051-.063-.005-.008-.051-.064-55.27-69.087a11.619 11.619 0 00-9.061-4.326z" fill="#ff3f85"/><circle cx="116.367" cy="162.906" r="23.272" fill="#4a4f73"/><g fill="#ff83b0"><path d="M34.909 255.998c6.427 0 11.637 5.21 11.637 11.637v116.364c0 6.427-5.21 11.637-11.637 11.637-6.427 0-11.637-5.21-11.637-11.637V267.634c0-6.427 5.211-11.636 11.637-11.636zM34.909 418.907c6.427 0 11.637 5.21 11.637 11.637v23.272c0 6.427-5.21 11.637-11.637 11.637-6.427 0-11.637-5.21-11.637-11.637v-23.272c0-6.427 5.211-11.637 11.637-11.637z"/></g><path d="M279.273 302.543h186.182c12.853 0 23.272 10.419 23.272 23.272 0 12.853-10.419 23.272-23.272 23.272H279.273c-12.853 0-23.272-10.419-23.272-23.272 0-12.853 10.419-23.272 23.272-23.272z" fill="#f64689"/><path d="M382.988 56.493c-33.064 19.838-43.786 62.725-23.948 95.79l.056.094.021.034.036.06.023.037.035.057.022.036.035.058.023.038.034.056.023.037.036.058.022.035.037.06.02.033.038.061.021.033.039.064.016.026.044.071.013.022.049.079.009.013.055.088.003.005a70.327 70.327 0 002.228 3.344l.008.011.053.076.013.017.048.068.017.025.043.06.024.032.037.051.027.038.032.045.033.046.022.029.044.061.004.005c.12.166.241.332.362.496a11.637 11.637 0 1018.737-13.804 47.797 47.797 0 01-2.483-3.729c-13.195-22.047-6.052-50.615 15.964-63.86 5.511-3.305 7.299-10.453 3.994-15.964s-10.453-7.299-15.964-3.994l-.005.002z" fill="#dddff5"/></svg>