<svg viewBox="0 0 512 512" xmlns="http://www.w3.org/2000/svg"><linearGradient id="a" gradientUnits="userSpaceOnUse" x1="256" x2="256" y1="481.5" y2="30.5"><stop offset="0" stop-color="#5558ff"/><stop offset="1" stop-color="#00c0ff"/></linearGradient><linearGradient id="b" gradientUnits="userSpaceOnUse" x1="256" x2="256" y1="271.5" y2="181.5"><stop offset="0" stop-color="#addcff"/><stop offset=".503" stop-color="#eaf6ff"/><stop offset="1" stop-color="#eaf6ff"/></linearGradient><path d="M256 30.5c-140.596 0-256 88.48-256 196 0 67.412 45.033 128.467 119.184 164.458 1.201 5.347 1.816 10.488 1.816 15.542 0 17.329-6.094 33.809-17.607 47.651-3.34 3.984-4.365 9.39-2.725 14.312s5.684 8.643 10.723 9.858c8.848 2.139 16.904 3.179 24.609 3.179 41.191 0 77.959-24.111 94.951-61.099 8.232.688 16.582 1.099 25.049 1.099 140.596 0 256-87.48 256-195s-115.404-196-256-196z" fill="url(#a)"/><path d="M136 181.5c-24.814 0-45 20.186-45 45s20.186 45 45 45 45-20.186 45-45-20.186-45-45-45zm120 0c-24.814 0-45 20.186-45 45s20.186 45 45 45 45-20.186 45-45-20.186-45-45-45zm120 0c-24.814 0-45 20.186-45 45s20.186 45 45 45 45-20.186 45-45-20.186-45-45-45z" fill="url(#b)"/></svg>