<svg id="Layer_5" enable-background="new 0 0 64 64" viewBox="0 0 64 64"
  xmlns="http://www.w3.org/2000/svg"
  xmlns:xlink="http://www.w3.org/1999/xlink">
  <linearGradient id="SVGID_1_" gradientUnits="userSpaceOnUse" x1="32" x2="32" y1="63" y2="1">
    <stop offset="0" stop-color="#9f2fff"/>
    <stop offset="1" stop-color="#0bb1d3"/>
  </linearGradient>
  <path d="m59.79 10.535 1.493-2.466-5.352-5.351-2.466 1.492c-.33-.154-.662-.293-.995-.416l-.686-2.794h-7.567l-.687 2.794c-.332.123-.664.262-.995.417l-2.466-1.493-5.352 5.352 1.493 2.466c-.154.331-.293.663-.417.995l-2.793.685v2.784h-19c-1.654 0-3 1.346-3 3s1.346 3 3 3h8c.551 0 1 .449 1 1s-.449 1-1 1h-18c-1.654 0-3 1.346-3 3s1.346 3 3 3h14c.551 0 1 .449 1 1v3h-2.781l-1 4h-9.219c-2.757 0-5 2.243-5 5v16c0 2.757 2.243 5 5 5h40c2.757 0 5-2.243 5-5v-12c0-2.757-2.243-5-5-5h-9.586l-2.536-2.536c-.944-.944-2.199-1.464-3.535-1.464h-5.562l-1-4h-2.781v-3c0-1.654-1.346-3-3-3h-14c-.551 0-1-.449-1-1s.449-1 1-1h18c1.654 0 3-1.346 3-3s-1.346-3-3-3h-8c-.551 0-1-.449-1-1s.449-1 1-1h19v2.784l2.794.687c.123.333.262.665.416.995l-1.492 2.466 5.351 5.351 2.466-1.493c.331.155.663.293.994.417l.687 2.793h7.567l.687-2.794c.332-.123.664-.262.995-.417l2.466 1.493 5.352-5.352-1.493-2.466c.154-.33.293-.662.417-.995l2.793-.685v-7.567l-2.794-.687c-.123-.333-.262-.666-.416-.995zm-27.326 29.343 3.122 3.122h10.414c1.654 0 3 1.346 3 3v12c0 1.654-1.346 3-3 3h-40c-1.654 0-3-1.346-3-3v-16c0-1.654 1.346-3 3-3h24.343c.79 0 1.563.32 2.121.878zm-9.745-2.878h-5.438l.5-2h4.438zm38.281-18.784-2.345.576-.17.535c-.183.575-.425 1.155-.722 1.727l-.259.499 1.255 2.073-3.134 3.134-2.073-1.255-.498.258c-.574.297-1.155.541-1.727.722l-.535.17-.576 2.345h-4.433l-.576-2.345-.535-.17c-.572-.182-1.153-.424-1.728-.722l-.498-.258-2.073 1.255-3.134-3.134 1.255-2.073-.258-.498c-.297-.572-.54-1.153-.722-1.727l-.17-.535-2.344-.577v-4.433l2.345-.576.17-.535c.182-.572.425-1.153.722-1.727l.258-.498-1.255-2.073 3.134-3.134 2.073 1.255.498-.258c.574-.297 1.155-.541 1.727-.722l.535-.17.577-2.345h4.433l.576 2.345.535.17c.574.182 1.155.425 1.727.722l.498.258 2.073-1.255 3.134 3.134-1.255 2.073.259.499c.296.571.539 1.152.722 1.727l.17.535 2.344.576zm-13-11.216c-4.962 0-9 4.038-9 9s4.038 9 9 9 9-4.038 9-9-4.038-9-9-9zm0 16c-3.86 0-7-3.14-7-7s3.14-7 7-7 7 3.14 7 7-3.14 7-7 7zm0-12c-2.757 0-5 2.243-5 5s2.243 5 5 5 5-2.243 5-5-2.243-5-5-5zm0 8c-1.654 0-3-1.346-3-3s1.346-3 3-3 3 1.346 3 3-1.346 3-3 3zm-1 26h-14v14h14zm-2 4h-2v-2h2zm-6 4v-2h2v2zm2 2v2h-2v-2zm-4-2h-2v-2h2zm2-4v-2h2v2zm4 2h2v2h-2zm-6-4v2h-2v-2zm-2 8h2v2h-2zm8 2v-2h2v2zm-38 2h26v-14h-26zm2-4h2v2h-2zm18-2h-2v-2h2zm2-2h2v2h-2zm-8 2v-2h2v2zm-2 0h-2v-2h2zm8 2v2h-14v-2zm-2-6v-2h2v2zm-2 0h-2v-2h2zm-4 0h-2v-2h2zm-4 0h-2v-2h2zm0 2v2h-2v-2zm-4 2h-2v-2h2zm18 4v-2h2v2zm2-8h-2v-2h2zm-20-2v2h-2v-2zm-4-6h2v2h-2zm6 2h-2v-2h2zm4 0h-2v-2h2zm16 0h-2v-2h2zm-4 0h-2v-2h2zm-8-38v8h-2v-8zm12 0v8h-2v-8zm-18 8c1.103 0 2-.897 2-2v-4c0-1.103-.897-2-2-2h-2c-1.103 0-2 .897-2 2v4c0 1.103.897 2 2 2zm-2-6h2l.001 4h-2.001zm14 6c1.103 0 2-.897 2-2v-4c0-1.103-.897-2-2-2h-2c-1.103 0-2 .897-2 2v4c0 1.103.897 2 2 2zm-2-6h2l.001 4h-2.001z" fill="url(#SVGID_1_)"/>
</svg>
