<svg viewBox="0 0 64 64" xmlns="http://www.w3.org/2000/svg"><linearGradient id="a" gradientUnits="userSpaceOnUse" x1="32" x2="32" y1="63" y2="1"><stop offset="0" stop-color="#9f2fff"/><stop offset="1" stop-color="#0bb1d3"/></linearGradient><path d="M59.79 10.535l1.493-2.466-5.352-5.351-2.466 1.492c-.33-.154-.662-.293-.995-.416L51.784 1h-7.567l-.687 2.794a12.98 12.98 0 00-.995.417l-2.466-1.493-5.352 5.352 1.493 2.466c-.154.331-.293.663-.417.995L33 12.216V15H14c-1.654 0-3 1.346-3 3s1.346 3 3 3h8c.551 0 1 .449 1 1s-.449 1-1 1H4c-1.654 0-3 1.346-3 3s1.346 3 3 3h14c.551 0 1 .449 1 1v3h-2.781l-1 4H6c-2.757 0-5 2.243-5 5v16c0 2.757 2.243 5 5 5h40c2.757 0 5-2.243 5-5V46c0-2.757-2.243-5-5-5h-9.586l-2.536-2.536A4.966 4.966 0 0030.343 37h-5.562l-1-4H21v-3c0-1.654-1.346-3-3-3H4c-.551 0-1-.449-1-1s.449-1 1-1h18c1.654 0 3-1.346 3-3s-1.346-3-3-3h-8c-.551 0-1-.449-1-1s.449-1 1-1h19v2.784l2.794.687c.123.333.262.665.416.995l-1.492 2.466 5.351 5.351 2.466-1.493c.331.155.663.293.994.417L44.216 31h7.567l.687-2.794c.332-.123.664-.262.995-.417l2.466 1.493 5.352-5.352-1.493-2.466c.154-.33.293-.662.417-.995L63 19.784v-7.567l-2.794-.687a12.867 12.867 0 00-.416-.995zM32.464 39.878L35.586 43H46c1.654 0 3 1.346 3 3v12c0 1.654-1.346 3-3 3H6c-1.654 0-3-1.346-3-3V42c0-1.654 1.346-3 3-3h24.343c.79 0 1.563.32 2.121.878zM22.719 37h-5.438l.5-2h4.438zM61 18.216l-2.345.576-.17.535a11 11 0 01-.722 1.727l-.259.499 1.255 2.073-3.134 3.134-2.073-1.255-.498.258c-.574.297-1.155.541-1.727.722l-.535.17L50.216 29h-4.433l-.576-2.345-.535-.17a11.058 11.058 0 01-1.728-.722l-.498-.258-2.073 1.255-3.134-3.134 1.255-2.073-.258-.498a10.945 10.945 0 01-.722-1.727l-.17-.535L35 18.216v-4.433l2.345-.576.17-.535c.182-.572.425-1.153.722-1.727l.258-.498-1.255-2.073 3.134-3.134 2.073 1.255.498-.258a11.008 11.008 0 011.727-.722l.535-.17L45.784 3h4.433l.576 2.345.535.17c.574.182 1.155.425 1.727.722l.498.258 2.073-1.255 3.134 3.134-1.255 2.073.259.499c.296.571.539 1.152.722 1.727l.17.535 2.344.576zM48 7c-4.962 0-9 4.038-9 9s4.038 9 9 9 9-4.038 9-9-4.038-9-9-9zm0 16c-3.86 0-7-3.14-7-7s3.14-7 7-7 7 3.14 7 7-3.14 7-7 7zm0-12c-2.757 0-5 2.243-5 5s2.243 5 5 5 5-2.243 5-5-2.243-5-5-5zm0 8c-1.654 0-3-1.346-3-3s1.346-3 3-3 3 1.346 3 3-1.346 3-3 3zm-1 26H33v14h14zm-2 4h-2v-2h2zm-6 4v-2h2v2zm2 2v2h-2v-2zm-4-2h-2v-2h2zm2-4v-2h2v2zm4 2h2v2h-2zm-6-4v2h-2v-2zm-2 8h2v2h-2zm8 2v-2h2v2zM5 59h26V45H5zm2-4h2v2H7zm18-2h-2v-2h2zm2-2h2v2h-2zm-8 2v-2h2v2zm-2 0h-2v-2h2zm8 2v2H11v-2zm-2-6v-2h2v2zm-2 0h-2v-2h2zm-4 0h-2v-2h2zm-4 0h-2v-2h2zm0 2v2h-2v-2zm-4 2H7v-2h2zm18 4v-2h2v2zm2-8h-2v-2h2zM9 47v2H7v-2zm-4-6h2v2H5zm6 2H9v-2h2zm4 0h-2v-2h2zm16 0h-2v-2h2zm-4 0h-2v-2h2zM19 5v8h-2V5zm12 0v8h-2V5zm-18 8c1.103 0 2-.897 2-2V7c0-1.103-.897-2-2-2h-2c-1.103 0-2 .897-2 2v4c0 1.103.897 2 2 2zm-2-6h2l.001 4H11zm14 6c1.103 0 2-.897 2-2V7c0-1.103-.897-2-2-2h-2c-1.103 0-2 .897-2 2v4c0 1.103.897 2 2 2zm-2-6h2l.001 4H23z" fill="url(#a)"/></svg>