<svg xmlns="http://www.w3.org/2000/svg" viewBox="0 0 64 64"><path d="M39 61l6-10H33z" fill="#d3ac5c"/><path d="M57.95 56.67l.638 4.33-3.675-2.105-3.741 1.973.778-4.305L49 53.452l4.156-.557L55.074 49l1.79 3.961 4.136.704z" fill="#db735c"/><path d="M18 55l6-6 6 6-6 6z" fill="#5eb8ab"/><path d="M13 58v-6l-5-3-5 3v6l5 3zM48 28l-6 9h12z" fill="#60a867"/><path d="M13 28h8v8h-8z" fill="#d3ac5c"/><circle cx="32" cy="8" fill="#db735c" r="5"/><path d="M2.485 58.857l5 3a1 1 0 001.03 0l5-3A1 1 0 0014 58v-6a1 1 0 00-.485-.857L9.43 48.692l7.464-10.78 5.873 10.907-5.474 5.474a1 1 0 000 1.414l6 6a1 1 0 001.414 0l6-6a1 1 0 000-1.414l-5.895-5.895L18.675 37H21a1 1 0 001-1v-8a1 1 0 00-1-1h-1.586l12.608-12.608L46.698 28.15l-5.53 8.295A1 1 0 0042 38h4.169l-7.714 12H33a1 1 0 00-.857 1.515l6 10a1 1 0 001.714 0l6-10A1 1 0 0045 50h-4.169l7.128-11.086 5.911 10.135-1.385 2.928-3.618.483a1 1 0 00-.593 1.68l2.602 2.743-.688 3.807a1 1 0 001.45 1.063l3.256-1.716 3.197 1.83a1 1 0 001.486-1.013l-.563-3.828 2.688-2.649a1 1 0 00-.534-1.698l-3.621-.616-1.642-3.489c-.013-.027-.033-.048-.048-.073l.007-.005L49.742 38H54a1 1 0 00.832-1.555l-6-9a.839.839 0 00-.173-.148l.025-.026L34.11 13.609a6 6 0 10-4.158.024L16.586 27H13a1 1 0 00-1 1v8a1 1 0 001 1h2.091l-7.79 11.254-4.816 2.889A1 1 0 002 52v6a1 1 0 00.485.857zm36.515.2L34.767 52h8.466zm16.959-5.67a1.001 1.001 0 00.737.56l2.211.376-1.659 1.634a1 1 0 00-.287.858l.338 2.294-1.889-1.081a1.001 1.001 0 00-.964-.017l-1.925 1.015.414-2.285a1.001 1.001 0 00-.26-.866l-1.603-1.692 2.217-.296a1 1 0 00.772-.564l.936-1.98zM52.132 36h-8.264L48 29.803zM28 8a4 4 0 114 4 4.004 4.004 0 01-4-4zM14 29h6v6h-6zm10 30.586L19.414 55 24 50.414 28.586 55zm-20-7.02l4-2.4 4 2.4v4.868l-4 2.4-4-2.4z"/></svg>