<svg viewBox="0 0 512 512" xmlns="http://www.w3.org/2000/svg"><path d="M383.51 81.324h60.609a8.979 8.979 0 018.979 8.979v253.363H374.53V90.303a8.98 8.98 0 018.98-8.979z" fill="#037e73"/><path d="M79.64 465.096c-11.353 0-20.557-9.204-20.557-20.557v-34.985h41.114v34.985c0 11.353-9.203 20.557-20.557 20.557zm354.078 0c-11.353 0-20.557-9.204-20.557-20.557v-34.985h41.114v34.985c0 11.353-9.203 20.557-20.557 20.557z" fill="#7c4b37"/><path d="M295.963 343.667h-78.567V55.883a8.979 8.979 0 018.979-8.979h60.609a8.979 8.979 0 018.979 8.979z" fill="#e53950"/><path d="M217.396 343.667h-78.568V55.883a8.979 8.979 0 018.979-8.979h60.609a8.979 8.979 0 018.979 8.979v287.784z" fill="#0078c8"/><path d="M138.828 104.651h78.568v38.402h-78.568z" fill="#7bacdf"/><path d="M138.828 343.667H60.261V55.883a8.979 8.979 0 018.979-8.979h60.609a8.979 8.979 0 018.979 8.979z" fill="#fec165"/><path d="M304.942 81.324h60.609a8.979 8.979 0 018.979 8.979v253.363h-78.568V90.303a8.98 8.98 0 018.98-8.979z" fill="#0078c8"/><path d="M502.728 417.037H9.272A9.272 9.272 0 010 407.765v-54.827a9.272 9.272 0 019.272-9.272h493.457a9.272 9.272 0 019.272 9.272v54.827a9.273 9.273 0 01-9.273 9.272z" fill="#aa6a51"/><path d="M502.728 343.667h-40.883a9.272 9.272 0 019.272 9.272v54.827a9.272 9.272 0 01-9.272 9.272h40.883a9.272 9.272 0 009.272-9.272v-54.827a9.272 9.272 0 00-9.272-9.272z" fill="#935b44"/><path d="M129.849 46.904H94.807a8.979 8.979 0 018.979 8.979v287.783h35.043V55.883a8.98 8.98 0 00-8.98-8.979z" fill="#fdb441"/><path d="M365.552 81.324H330.51a8.979 8.979 0 018.979 8.979v253.363h35.042V90.303a8.979 8.979 0 00-8.979-8.979z" fill="#0268b4"/><path d="M444.119 81.324h-35.042a8.979 8.979 0 018.979 8.979v253.363h35.042V90.303a8.979 8.979 0 00-8.979-8.979z" fill="#006e66"/><path d="M286.984 46.904h-35.042a8.979 8.979 0 018.979 8.979v287.783h35.043V55.883a8.98 8.98 0 00-8.98-8.979z" fill="#ca2e43"/><path d="M217.396 104.651h78.568v38.402h-78.568z" fill="#fee8c7"/><path d="M260.921 104.651h35.043v38.402h-35.043z" fill="#fedba6"/><path d="M374.531 292.618h-78.568V258.67h78.568z" fill="#7bacdf"/><path d="M339.488 258.67h35.042v33.948h-35.042z" fill="#5f99d7"/><path d="M453.098 292.618H374.53V258.67h78.568z" fill="#0ab69f"/><path d="M418.056 258.67h35.042v33.948h-35.042z" fill="#01998d"/><path d="M208.417 46.904h-35.042a8.979 8.979 0 018.979 8.979v287.783h35.042V55.883a8.979 8.979 0 00-8.979-8.979z" fill="#0268b4"/><path d="M182.353 104.651h35.042v38.402h-35.042z" fill="#5f99d7"/><path d="M60.261 104.651h78.568v38.402H60.261z" fill="#fee8c7"/><path d="M103.786 104.651h35.043v38.402h-35.043z" fill="#fedba6"/></svg>