<svg xmlns="http://www.w3.org/2000/svg" viewBox="0 0 512.016 512.016"><path d="M411.336 4.687c-4.576-4.576-11.456-5.952-17.44-3.456s-9.888 8.32-9.888 14.784v48.672c-49.216 4.192-95.168 27.456-128 64.736-32.832-37.28-78.784-60.544-128-64.736V16.015c0-6.464-3.904-12.32-9.888-14.784-5.92-2.496-12.864-1.12-17.44 3.456l-96 96c-6.24 6.24-6.24 16.384 0 22.624l96 96c4.608 4.608 11.52 6.016 17.44 3.456 5.984-2.432 9.888-8.288 9.888-14.752v-46.656c45.344 7.616 80 47.168 80 94.656v240c0 8.832 7.168 16 16 16h64c8.832 0 16-7.168 16-16v-240c0-47.488 34.656-87.04 80-94.656v46.656c0 6.464 3.904 12.32 9.888 14.784 5.952 2.496 12.832 1.12 17.44-3.456l96-96c6.24-6.24 6.24-16.384 0-22.624l-96-96.032z" fill="#2196f3"/></svg>