<svg id="Capa_1" enable-background="new 0 0 512 512" viewBox="0 0 512 512"
  xmlns="http://www.w3.org/2000/svg">
  <g>
    <g>
      <g>
        <path d="m502 256c0 135.96-110.02 246-246 246-135.96 0-246-110.02-246-246 0-135.96 110.02-246 246-246 135.96 0 246 110.02 246 246z" fill="#60a4ff"/>
      </g>
      <path d="m406 286-90 60v-30h-30c-33.09 0-60 26.91-60 60v30h-60v-240h-30l60-90 60 90h-30v106.69c17.72-10.33 38.05-16.69 60-16.69h30v-30z" fill="#eefaff"/>
    </g>
    <g>
      <path d="m311.281 354.816c3.253 1.742 7.198 1.549 10.266-.496l90-60c2.782-1.854 4.453-4.977 4.453-8.32s-1.671-6.466-4.453-8.32l-90-60c-3.067-2.046-7.013-2.238-10.266-.496-3.251 1.74-5.281 5.129-5.281 8.816v20h-20c-17.176 0-33.93 3.505-50 10.44v-80.44h20c3.688 0 7.076-2.03 8.816-5.281 1.74-3.252 1.55-7.197-.496-10.266l-60-90c-1.854-2.782-4.976-4.453-8.32-4.453s-6.466 1.671-8.32 4.453l-60 90c-2.046 3.068-2.236 7.014-.496 10.266 1.74 3.251 5.129 5.281 8.816 5.281h20v230c0 5.522 4.478 10 10 10h60c5.522 0 10-4.478 10-10v-30c0-27.57 22.43-50 50-50h20v20c0 3.688 2.03 7.076 5.281 8.816zm-25.281-48.816c-38.598 0-70 31.402-70 70v20h-40v-230c0-5.522-4.478-10-10-10h-11.314l41.314-61.973 41.314 61.973h-11.314c-5.522 0-10 4.478-10 10v106.69c0 3.58 1.914 6.887 5.019 8.671 3.104 1.783 6.924 1.77 10.018-.031 17.448-10.173 35.941-15.33 54.963-15.33h30c5.522 0 10-4.478 10-10v-11.314l61.973 41.314-61.973 41.314v-11.314c0-5.522-4.478-10-10-10z"/>
      <circle cx="430" cy="430" r="10"/>
      <path d="m256 0c-141.581 0-256 114.382-256 256 0 141.581 114.382 256 256 256 52.164 0 102.336-15.56 145.091-44.997 4.549-3.132 5.697-9.358 2.565-13.907s-9.359-5.696-13.907-2.565c-39.404 27.129-85.653 41.469-133.749 41.469-130.131 0-236-105.869-236-236s105.869-236 236-236 236 105.869 236 236c0 48.094-14.34 94.344-41.47 133.749-3.132 4.549-1.983 10.775 2.565 13.907 4.549 3.131 10.774 1.981 13.907-2.565 29.438-42.757 44.998-92.928 44.998-145.091 0-141.581-114.382-256-256-256z"/>
    </g>
  </g>
</svg>
