<svg viewBox="0 0 512 512" xmlns="http://www.w3.org/2000/svg"><path d="M502 256c0 135.96-110.02 246-246 246-135.96 0-246-110.02-246-246C10 120.04 120.02 10 256 10c135.96 0 246 110.02 246 246z" fill="#60a4ff"/><path d="M406 286l-90 60v-30h-30c-33.09 0-60 26.91-60 60v30h-60V166h-30l60-90 60 90h-30v106.69c17.72-10.33 38.05-16.69 60-16.69h30v-30z" fill="#eefaff"/><g><path d="M311.281 354.816a9.998 9.998 0 0010.266-.496l90-60a9.999 9.999 0 000-16.64l-90-60A10 10 0 00306 226v20h-20c-17.176 0-33.93 3.505-50 10.44V176h20a10 10 0 008.32-15.547l-60-90a9.998 9.998 0 00-16.64 0l-60 90A10 10 0 00136 176h20v230c0 5.522 4.478 10 10 10h60c5.522 0 10-4.478 10-10v-30c0-27.57 22.43-50 50-50h20v20a10 10 0 005.281 8.816zM286 306c-38.598 0-70 31.402-70 70v20h-40V166c0-5.522-4.478-10-10-10h-11.314L196 94.027 237.314 156H226c-5.522 0-10 4.478-10 10v106.69a10 10 0 0015.037 8.64C248.485 271.157 266.978 266 286 266h30c5.522 0 10-4.478 10-10v-11.314L387.973 286 326 327.314V316c0-5.522-4.478-10-10-10z"/><circle cx="430" cy="430" r="10"/><path d="M256 0C114.419 0 0 114.382 0 256c0 141.581 114.382 256 256 256 52.164 0 102.336-15.56 145.091-44.997 4.549-3.132 5.697-9.358 2.565-13.907s-9.359-5.696-13.907-2.565C350.345 477.66 304.096 492 256 492 125.869 492 20 386.131 20 256S125.869 20 256 20s236 105.869 236 236c0 48.094-14.34 94.344-41.47 133.749-3.132 4.549-1.983 10.775 2.565 13.907 4.549 3.131 10.774 1.981 13.907-2.565C496.44 358.334 512 308.163 512 256 512 114.419 397.618 0 256 0z"/></g></svg>