<svg viewBox="0 -1 496 495" xmlns="http://www.w3.org/2000/svg"><path d="M288 157.445l32 24 .238.16c-6.316 7.118-11.68 15.278-15.68 24.079l-.558-.239-23.2-46.402zm0 0" fill="#e6e9ed"/><path d="M368 325.445h48v48h-48zm0 0" fill="#aab2bd"/><path d="M248 373.445l7.441 1.68L240 421.445l-24-24zm0 0M216 397.445l-24 24-15.441-46.32 7.441-1.68zm0 0M144 229.445l7.441 1.68L136 277.445l-24-24zm0 0M112 253.445l-24 24-15.441-46.32 7.441-1.68zm0 0" fill="#e6e9ed"/><path d="M416 373.445v88c0 13.278-10.719 24-24 24-6.64 0-12.64-2.722-16.96-7.043-4.321-4.316-7.04-10.316-7.04-16.957v-88zm0 0" fill="#b27946"/><path d="M304 205.445l.559.239c-5.52 12.082-8.559 25.601-8.559 39.761 0 8.32 1.04 16.32 3.04 24h-41.52c-2.079-3.68-4.641-6.96-7.598-9.922-8.64-8.718-20.64-14.078-33.922-14.078v-46.32c0-15.04 10.398-28 25.04-31.281l39.76-8.801zm0 0" fill="#fcd770"/><path d="M320 415.125v70.32H112v-70.32c0-15.04 10.398-28 25.04-31.281l39.519-8.719L192 421.445l24-24 24 24 15.441-46.32 39.52 8.719A32.02 32.02 0 01320 415.125zm0 0" fill="#ef7385"/><path d="M190.96 239.844c5.2 1.199 9.919 3.601 13.84 6.96-21.12 5.04-36.8 24-36.8 46.641v16c0 12.32 4.64 23.52 12.32 32H8v-70.32c0-15.04 10.398-28 25.04-31.281l39.519-8.719L88 277.445l24-24 24 24 15.441-46.32zm0 0" fill="#fcd770"/><path d="M299.04 269.445c-2-7.68-3.04-15.68-3.04-24 0-14.16 3.04-27.68 8.559-39.761 4-8.801 9.363-16.961 15.68-24.079a97.395 97.395 0 0132-23.601c12.081-5.52 25.6-8.559 39.761-8.559 53.04 0 96 42.957 96 96 0 53.04-42.96 96-96 96-44.719 0-82.32-30.562-92.96-72zm0 0" fill="#e6e9ed"/><path d="M456 245.445c0-35.36-28.64-64-64-64s-64 28.64-64 64 28.64 64 64 64 64-28.64 64-64zm0 0" fill="#69d6f4"/><path d="M379.602 52.004L368 69.445l-.719.078a46.914 46.914 0 00-13.36-26l2.798-2.8c7.203-7.2 11.281-17.04 11.281-27.278l1.602.797C378.398 18.645 384 27.684 384 37.523c0 5.2-1.52 10.243-4.398 14.48zm0 0M286.078 43.523a46.914 46.914 0 00-13.36 26l-.718-.078-11.602-17.441C257.52 47.766 256 42.723 256 37.524c0-9.84 5.602-18.88 14.398-23.282l1.602-.797c0 10.239 4.078 20.078 11.281 27.278zm0 0" fill="#e6e9ed"/><g fill="#f0d0b4"><path d="M248 345.125v28.32l-32 24-32-24v-28.32c8.48 7.68 19.68 12.32 32 12.32s23.52-4.64 32-12.32zm0 0"/><path d="M248 345.125c-8.48 7.68-19.68 12.32-32 12.32s-23.52-4.64-32-12.32a26.85 26.85 0 01-3.68-3.68c-7.68-8.48-12.32-19.68-12.32-32v-16c0-22.64 15.68-41.601 36.8-46.64a47.214 47.214 0 0111.2-1.36c13.281 0 25.281 5.36 33.922 14.078 2.957 2.961 5.52 6.243 7.598 9.922 4.16 7.04 6.48 15.2 6.48 24v16c0 14.16-6.16 26.957-16 35.68zm0 0M352 157.445l.238.559a97.395 97.395 0 00-32 23.601l-.238-.16-32-24v-28.32c8.48 7.68 19.68 12.32 32 12.32s23.52-4.64 32-12.32zm0 0"/><path d="M353.922 43.523a46.914 46.914 0 0113.36 26c.48 2.563.718 5.2.718 7.922v16c0 14.16-6.16 26.957-16 35.68-8.48 7.68-19.68 12.32-32 12.32s-23.52-4.64-32-12.32c-9.84-8.723-16-21.52-16-35.68v-16c0-2.722.238-5.36.719-7.922a46.914 46.914 0 0113.36-26c8.64-8.718 20.64-14.078 33.921-14.078s25.281 5.36 33.922 14.078zm0 0M144 201.125v28.32l-32 24-32-24v-28.32c8.48 7.68 19.68 12.32 32 12.32s23.52-4.64 32-12.32zm0 0"/><path d="M144 201.125c-8.48 7.68-19.68 12.32-32 12.32s-23.52-4.64-32-12.32c-9.84-8.723-16-21.52-16-35.68v-16c0-26.48 21.52-48 48-48 13.281 0 25.281 5.36 33.922 14.078C154.64 124.164 160 136.164 160 149.445v16c0 14.16-6.16 26.957-16 35.68zm0 0"/></g><path d="M496 245.445c0-57.343-46.656-104-104-104-11.168 0-21.91 1.817-32 5.086v-13.976c9.879-10.102 16-23.903 16-39.11v-16c0-1.754-.105-3.472-.266-5.183l10.547-15.817A33.973 33.973 0 00392 37.555c0-12.985-7.207-24.664-18.832-30.47L360 .5v12.945c0 6.918-2.52 13.614-6.8 19.008-9.305-6.883-20.766-11.008-33.2-11.008s-23.895 4.125-33.2 11.008c-4.28-5.394-6.8-12.09-6.8-19.008V.5l-13.168 6.586C255.207 12.89 248 24.57 248 37.555a33.954 33.954 0 005.719 18.89l10.547 15.817c-.16 1.71-.266 3.43-.266 5.183v16c0 15.215 6.121 29.008 16 39.11v18.472l-40.68 9.032c-18.449 4.113-31.32 20.168-31.32 39.058v38.969c-.414.062-.832.117-1.238.191-4.242-2.937-9.028-5.082-14.082-6.21l-40.68-9.04v-18.472c9.879-10.102 16-23.903 16-39.11v-16c0-30.875-25.129-56-56-56s-56 25.125-56 56v16c0 15.215 6.121 29.008 16 39.11v18.472l-40.68 9.032C12.871 236.172 0 252.227 0 271.117v78.328h176v17.582l-40.68 9.032c-18.449 4.113-31.32 20.168-31.32 39.058v78.328h224v-78.328c0-18.89-12.871-34.945-31.32-39.058L256 367.027v-18.472c9.879-10.102 16-23.903 16-39.11v-16c0-5.562-.84-10.93-2.36-16h23.45c10.262 31.63 35.277 56.649 66.91 66.91v21.09h-16v16h16v80c0 17.649 14.352 32 32 32s32-14.351 32-32v-80h16v-16h-16v-21.09c41.727-13.535 72-52.734 72-98.91zm-176.527-74.394L296 153.445v-9.488c7.29 3.48 15.406 5.488 24 5.488s16.71-2.007 24-5.48v9.312a104.67 104.67 0 00-24.527 17.774zm-14.73 17.992l-7.24-14.473 11.427 8.57c-1.45 1.926-2.867 3.88-4.188 5.903zm68.769-160.664A17.993 17.993 0 01376 37.555c0 3.578-1.047 7.043-3.031 10.015l-3.067 4.602a56.145 56.145 0 00-5.238-8.36c3.895-4.55 6.938-9.785 8.848-15.433zM360 77.445v16c0 22.055-17.945 40-40 40s-40-17.945-40-40v-16c0-22.058 17.945-40 40-40s40 17.942 40 40zM267.031 47.57A17.982 17.982 0 01264 37.555c0-3.301.879-6.453 2.488-9.168 1.918 5.648 4.953 10.875 8.856 15.425a55.907 55.907 0 00-5.239 8.36zM112 221.445c8.594 0 16.71-2.007 24-5.48v9.48l-24 18-24-18v-9.488c7.29 3.48 15.406 5.488 24 5.488zM99.824 254.31l-8.32 8.32-6.48-19.426zm39.153-11.106l-6.48 19.426-8.321-8.32zM72 149.445c0-22.058 17.945-40 40-40s40 17.942 40 40v16c0 22.055-17.945 40-40 40s-40-17.945-40-40zM16 271.117c0-11.336 7.727-20.969 18.793-23.433l32.453-7.215 17.258 51.785L112 264.758l27.504 27.504 17.258-51.785 28.367 6.304C170 256.813 160 273.973 160 293.445v16c0 8.59 2.008 16.711 5.48 24H16zM203.824 398.31l-8.32 8.32-6.48-19.426zm39.153-11.106l-6.48 19.426-8.321-8.32zM240 369.445l-24 18-24-18v-9.488c7.29 3.48 15.406 5.488 24 5.488s16.71-2.007 24-5.48zm72 45.672v62.328H120v-62.328c0-11.336 7.727-20.969 18.793-23.433l32.453-7.215 17.258 51.785L216 408.758l27.504 27.504 17.258-51.785 32.453 7.214c11.058 2.457 18.785 12.09 18.785 23.426zm-56-105.672c0 22.055-17.945 40-40 40s-40-17.945-40-40v-16c0-22.058 17.945-40 40-40s40 17.942 40 40zm5.887-48c-8.68-12.41-22.246-21.105-37.887-23.36v-38.968c0-11.336 7.727-20.969 18.793-23.433l33.648-7.48 19.176 38.35C290.742 218.59 288 231.692 288 245.446c0 5.453.55 10.766 1.36 16zm42.113-16c0-48.52 39.48-88 88-88s88 39.48 88 88-39.48 88-88 88-88-39.48-88-88zm104 216c0 8.825-7.176 16-16 16s-16-7.175-16-16v-80h32zm0-96h-32v-17.36c5.23.813 10.543 1.36 16 1.36s10.77-.554 16-1.36zm0 0"/><path d="M464 245.445c0-39.707-32.297-72-72-72s-72 32.293-72 72c0 39.703 32.297 72 72 72s72-32.297 72-72zm-128 0c0-30.875 25.129-56 56-56s56 25.125 56 56c0 30.871-25.129 56-56 56s-56-25.129-56-56zm0 0"/></svg>