<svg height="512" viewBox="0 0 58 58" width="512" xmlns="http://www.w3.org/2000/svg"><g id="Page-1" fill="none" fill-rule="evenodd"><g id="032---Gift-Box" fill-rule="nonzero"><path id="Shape" d="m49.343 58h-40.686c-1.06112579.0000387-2.07878407-.4215575-2.829-1.172l-4.656-4.656c-.75044253-.7502159-1.17203868-1.7678742-1.172-2.829v-40.686c-.00003868-1.06112579.42155747-2.07878407 1.172-2.829l4.656-4.656c.75021593-.75044253 1.76787421-1.17203868 2.829-1.172h40.686c1.0611258-.00003868 2.0787841.42155747 2.829 1.172l4.656 4.656c.7504425.75021593 1.1720387 1.76787421 1.172 2.829v40.686c.0000387 1.0611258-.4215575 2.0787841-1.172 2.829l-4.656 4.656c-.7502159.7504425-1.7678742 1.1720387-2.829 1.172z" fill="#955ba5"/><path id="Shape" d="m21 24v-24h6v24z" fill="#f3d55b"/><path id="Rectangle-path" d="m21 30h6v28h-6z" fill="#f3d55b"/><path id="Shape" d="m41.4 25h16.6v6h-58v-6z" fill="#f3d55b"/><g fill="#894b9d"><path id="Shape" d="m33 55h-2c-.5522847 0-1-.4477153-1-1s.4477153-1 1-1h2c.5522847 0 1 .4477153 1 1s-.4477153 1-1 1z"/><path id="Shape" d="m50 55h-13c-.5522847 0-1-.4477153-1-1s.4477153-1 1-1h13c.5522847 0 1 .4477153 1 1s-.4477153 1-1 1z"/><path id="Shape" d="m33 5h-2c-.5522847 0-1-.44771525-1-1s.4477153-1 1-1h2c.5522847 0 1 .44771525 1 1s-.4477153 1-1 1z"/><path id="Shape" d="m50 5h-13c-.5522847 0-1-.44771525-1-1s.4477153-1 1-1h13c.5522847 0 1 .44771525 1 1s-.4477153 1-1 1z"/></g><path id="Shape" d="m34.107 26.708c1.3-.2 6.1 4.811 6.893 10.292l-4-1.6-1-.4-2 5s-3-8-9-9h-2c-6 1-9 9-9 9l-2-5-1 .4-4 1.6c.79-5.481 5.6-10.488 6.893-10.292z" fill="#f29c1f"/><path id="Shape" d="m24 23.031s-1.921-11.415-11.378-12.007c-.5388817-.0271906-1.0745642.0975479-1.546.36-1.637.886-5.416 3.336-6.866 7.69-.39167312 1.1611639-.23146934 2.4376382.435 3.466 2 3.071 7.222 8.712 14.355 5.5z" fill="#f0c419"/><path id="Shape" d="m19.27 25.59c-4.311-2.619-5.745-7.894-6.14-9.843-.0345128-.1735199.0252421-.35236.1571323-.4702806.1318903-.1179205.3162776-.1573633.4848677-.1037194 4.648 1.309 6.653 6.9 7.118 8.437z" fill="#f29c1f"/><path id="Shape" d="m29 28.04c1.322806.6152479 2.7612203.9424701 4.22.96.5095548.0027058 1.0183051-.0408057 1.52-.13 4.17-.7 7.2-4.17 8.61-6.34.3050304-.462307.5094521-.9835822.6-1.53.1013818-.6502006.0465369-1.3151947-.16-1.94-1.45-4.36-5.23-6.81-6.87-7.69-.4673123-.2674341-1.0025599-.3925569-1.54-.36-6.93.43-9.82 6.68-10.86 9.99-.2160257.6540766-.3864344 1.3223461-.51 2-.0057054.0051905-.0092708.0123214-.01.02z" fill="#f0c419"/><path id="Shape" d="m27.11 23.61c.465-1.537 2.471-7.128 7.119-8.437.1685901-.0536439.3529774-.0142011.4848677.1037194.1318902.1179206.1916451.2967607.1571323.4702806-.4 1.949-1.829 7.224-6.141 9.843z" fill="#f29c1f"/><path id="Shape" d="m29 27v2c-.0032948 1.1032019-.8967981 1.9967052-2 2h-6c-1.1032019-.0032948-1.9967052-.8967981-2-2v-2c0-2.209139 1.790861-4 4-4h2c2.209139 0 4 1.790861 4 4z" fill="#f3d55b"/></g></g></svg>