<svg viewBox="0 0 58 58" xmlns="http://www.w3.org/2000/svg"><g fill-rule="nonzero" fill="none"><path d="M49.343 58H8.657a4 4 0 01-2.829-1.172l-4.656-4.656A4 4 0 010 49.343V8.657a4 4 0 011.172-2.829l4.656-4.656A4 4 0 018.657 0h40.686a4 4 0 012.829 1.172l4.656 4.656A4 4 0 0158 8.657v40.686a4 4 0 01-1.172 2.829l-4.656 4.656A4 4 0 0149.343 58z" fill="#955ba5"/><path d="M21 24V0h6v24zM21 30h6v28h-6z" fill="#f3d55b"/><path d="M41.4 25H58v6H0v-6z" fill="#f3d55b"/><g fill="#894b9d"><path d="M33 55h-2a1 1 0 010-2h2a1 1 0 010 2zM50 55H37a1 1 0 010-2h13a1 1 0 010 2zM33 5h-2a1 1 0 010-2h2a1 1 0 010 2zM50 5H37a1 1 0 010-2h13a1 1 0 010 2z"/></g><path d="M34.107 26.708c1.3-.2 6.1 4.811 6.893 10.292l-4-1.6-1-.4-2 5s-3-8-9-9h-2c-6 1-9 9-9 9l-2-5-1 .4L7 37c.79-5.481 5.6-10.488 6.893-10.292z" fill="#f29c1f"/><path d="M24 23.031s-1.921-11.415-11.378-12.007a2.88 2.88 0 00-1.546.36c-1.637.886-5.416 3.336-6.866 7.69a4.014 4.014 0 00.435 3.466c2 3.071 7.222 8.712 14.355 5.5z" fill="#f0c419"/><path d="M19.27 25.59c-4.311-2.619-5.745-7.894-6.14-9.843a.5.5 0 01.642-.574c4.648 1.309 6.653 6.9 7.118 8.437z" fill="#f29c1f"/><path d="M29 28.04a10.3 10.3 0 004.22.96c.51.003 1.018-.04 1.52-.13 4.17-.7 7.2-4.17 8.61-6.34.305-.462.51-.984.6-1.53a4.146 4.146 0 00-.16-1.94c-1.45-4.36-5.23-6.81-6.87-7.69a2.764 2.764 0 00-1.54-.36c-6.93.43-9.82 6.68-10.86 9.99a14.9 14.9 0 00-.51 2 .031.031 0 00-.01.02z" fill="#f0c419"/><path d="M27.11 23.61c.465-1.537 2.471-7.128 7.119-8.437a.5.5 0 01.642.574c-.4 1.949-1.829 7.224-6.141 9.843z" fill="#f29c1f"/><path d="M29 27v2a2.006 2.006 0 01-2 2h-6a2.006 2.006 0 01-2-2v-2a4 4 0 014-4h2a4 4 0 014 4z" fill="#f3d55b"/></g></svg>