<svg viewBox="0 -1 496 495"
  xmlns="http://www.w3.org/2000/svg">
  <path d="m288 157.445312 32 24 .238281.160157c-6.316406 7.117187-11.679687 15.277343-15.679687 24.078125l-.558594-.238282-23.199219-46.402343zm0 0" fill="#e6e9ed"/>
  <path d="m368 325.445312h48v48h-48zm0 0" fill="#aab2bd"/>
  <path d="m248 373.445312 7.441406 1.679688-15.441406 46.320312-24-24zm0 0" fill="#e6e9ed"/>
  <path d="m216 397.445312-24 24-15.441406-46.320312 7.441406-1.679688zm0 0" fill="#e6e9ed"/>
  <path d="m144 229.445312 7.441406 1.679688-15.441406 46.320312-24-24zm0 0" fill="#e6e9ed"/>
  <path d="m112 253.445312-24 24-15.441406-46.320312 7.441406-1.679688zm0 0" fill="#e6e9ed"/>
  <path d="m416 373.445312v88c0 13.277344-10.71875 24-24 24-6.640625 0-12.640625-2.722656-16.960938-7.042968-4.320312-4.316406-7.039062-10.316406-7.039062-16.957032v-88zm0 0" fill="#b27946"/>
  <path d="m304 205.445312.558594.238282c-5.519532 12.082031-8.558594 25.601562-8.558594 39.761718 0 8.320313 1.039062 16.320313 3.039062 24h-41.519531c-2.078125-3.679687-4.640625-6.960937-7.597656-9.921874-8.640625-8.71875-20.640625-14.078126-33.921875-14.078126v-46.320312c0-15.039062 10.398438-28 25.039062-31.28125l39.761719-8.800781zm0 0" fill="#fcd770"/>
  <path d="m320 415.125v70.320312h-208v-70.320312c0-15.039062 10.398438-28 25.039062-31.28125l39.519532-8.71875 15.441406 46.320312 24-24 24 24 15.441406-46.320312 39.519532 8.71875c14.640624 3.28125 25.039062 16.242188 25.039062 31.28125zm0 0" fill="#ef7385"/>
  <path d="m190.960938 239.84375c5.199218 1.199219 9.917968 3.601562 13.839843 6.960938-21.121093 5.039062-36.800781 24-36.800781 46.640624v16c0 12.320313 4.640625 23.519532 12.320312 32h-172.320312v-70.320312c0-15.039062 10.398438-28 25.039062-31.28125l39.519532-8.71875 15.441406 46.320312 24-24 24 24 15.441406-46.320312zm0 0" fill="#fcd770"/>
  <path d="m299.039062 269.445312c-2-7.679687-3.039062-15.679687-3.039062-24 0-14.160156 3.039062-27.679687 8.558594-39.761718 4-8.800782 9.363281-16.960938 15.679687-24.078125 8.882813-9.921875 19.761719-18 32-23.601563 12.082031-5.519531 25.601563-8.558594 39.761719-8.558594 53.039062 0 96 42.957032 96 96 0 53.039063-42.960938 96-96 96-44.71875 0-82.320312-30.5625-92.960938-72zm0 0" fill="#e6e9ed"/>
  <path d="m456 245.445312c0-35.359374-28.640625-64-64-64s-64 28.640626-64 64c0 35.359376 28.640625 64 64 64s64-28.640624 64-64zm0 0" fill="#69d6f4"/>
  <path d="m379.601562 52.003906-11.601562 17.441406-.71875.078126c-1.601562-10.078126-6.402344-19.121094-13.359375-26l2.796875-2.800782c7.203125-7.199218 11.28125-17.039062 11.28125-27.277344l1.601562.796876c8.796876 4.402343 14.398438 13.441406 14.398438 23.28125 0 5.199218-1.519531 10.242187-4.398438 14.480468zm0 0" fill="#e6e9ed"/>
  <path d="m286.078125 43.523438c-6.957031 6.878906-11.757813 15.921874-13.359375 26l-.71875-.078126-11.601562-17.441406c-2.878907-4.238281-4.398438-9.28125-4.398438-14.480468 0-9.839844 5.601562-18.878907 14.398438-23.28125l1.601562-.796876c0 10.238282 4.078125 20.078126 11.28125 27.277344zm0 0" fill="#e6e9ed"/>
  <g fill="#f0d0b4">
    <path d="m248 345.125v28.320312l-32 24-32-24v-28.320312c8.480469 7.679688 19.679688 12.320312 32 12.320312s23.519531-4.640624 32-12.320312zm0 0"/>
    <path d="m248 345.125c-8.480469 7.679688-19.679688 12.320312-32 12.320312s-23.519531-4.640624-32-12.320312c-1.359375-1.121094-2.558594-2.320312-3.679688-3.679688-7.679687-8.480468-12.320312-19.679687-12.320312-32v-16c0-22.640624 15.679688-41.601562 36.800781-46.640624 3.597657-.878907 7.359375-1.359376 11.199219-1.359376 13.28125 0 25.28125 5.359376 33.921875 14.078126 2.957031 2.960937 5.519531 6.242187 7.597656 9.921874 4.160157 7.039063 6.480469 15.199219 6.480469 24v16c0 14.160157-6.160156 26.957032-16 35.679688zm0 0"/>
    <path d="m352 157.445312.238281.558594c-12.238281 5.601563-23.117187 13.679688-32 23.601563l-.238281-.160157-32-24v-28.320312c8.480469 7.679688 19.679688 12.320312 32 12.320312s23.519531-4.640624 32-12.320312zm0 0"/>
    <path d="m353.921875 43.523438c6.957031 6.878906 11.757813 15.921874 13.359375 26 .480469 2.5625.71875 5.199218.71875 7.921874v16c0 14.160157-6.160156 26.957032-16 35.679688-8.480469 7.679688-19.679688 12.320312-32 12.320312s-23.519531-4.640624-32-12.320312c-9.839844-8.722656-16-21.519531-16-35.679688v-16c0-2.722656.238281-5.359374.71875-7.921874 1.601562-10.078126 6.402344-19.121094 13.359375-26 8.640625-8.71875 20.640625-14.078126 33.921875-14.078126s25.28125 5.359376 33.921875 14.078126zm0 0"/>
    <path d="m144 201.125v28.320312l-32 24-32-24v-28.320312c8.480469 7.679688 19.679688 12.320312 32 12.320312s23.519531-4.640624 32-12.320312zm0 0"/>
    <path d="m144 201.125c-8.480469 7.679688-19.679688 12.320312-32 12.320312s-23.519531-4.640624-32-12.320312c-9.839844-8.722656-16-21.519531-16-35.679688v-16c0-26.480468 21.519531-48 48-48 13.28125 0 25.28125 5.359376 33.921875 14.078126 8.71875 8.640624 14.078125 20.640624 14.078125 33.921874v16c0 14.160157-6.160156 26.957032-16 35.679688zm0 0"/>
  </g>
  <path d="m496 245.445312c0-57.34375-46.65625-104-104-104-11.167969 0-21.910156 1.816407-32 5.085938v-13.976562c9.878906-10.101563 16-23.902344 16-39.109376v-16c0-1.753906-.105469-3.472656-.265625-5.183593l10.546875-15.816407c3.742188-5.617187 5.71875-12.152343 5.71875-18.890624 0-12.984376-7.207031-24.664063-18.832031-30.46875l-13.167969-6.585938v12.945312c0 6.917969-2.519531 13.613282-6.800781 19.007813-9.304688-6.882813-20.765625-11.007813-33.199219-11.007813s-23.894531 4.125-33.199219 11.007813c-4.28125-5.394531-6.800781-12.089844-6.800781-19.007813v-12.945312l-13.167969 6.585938c-11.625 5.804687-18.832031 17.484374-18.832031 30.46875 0 6.746093 1.976562 13.273437 5.71875 18.890624l10.546875 15.816407c-.160156 1.710937-.265625 3.429687-.265625 5.183593v16c0 15.214844 6.121094 29.007813 16 39.109376v18.472656l-40.679688 9.03125c-18.449218 4.113281-31.320312 20.167968-31.320312 39.058594v38.96875c-.414062.0625-.832031.117187-1.238281.191406-4.242188-2.9375-9.027344-5.082032-14.082031-6.210938l-40.679688-9.039062v-18.472656c9.878906-10.101563 16-23.902344 16-39.109376v-16c0-30.875-25.128906-56-56-56s-56 25.125-56 56v16c0 15.214844 6.121094 29.007813 16 39.109376v18.472656l-40.679688 9.03125c-18.449218 4.113281-31.320312 20.167968-31.320312 39.058594v78.328124h176v17.582032l-40.679688 9.03125c-18.449218 4.113281-31.320312 20.167968-31.320312 39.058594v78.328124h224v-78.328124c0-18.890626-12.871094-34.945313-31.320312-39.058594l-40.679688-9.03125v-18.472656c9.878906-10.101563 16-23.902344 16-39.109376v-16c0-5.5625-.839844-10.929687-2.359375-16h23.449219c10.261718 31.628907 35.277344 56.648438 66.910156 66.910157v21.089843h-16v16h16v80c0 17.648438 14.351562 32 32 32s32-14.351562 32-32v-80h16v-16h-16v-21.089843c41.726562-13.535157 72-52.734375 72-98.910157zm-176.527344-74.394531-23.472656-17.605469v-9.488281c7.289062 3.480469 15.40625 5.488281 24 5.488281s16.710938-2.007812 24-5.480468v9.3125c-9.03125 4.726562-17.289062 10.71875-24.527344 17.773437zm-14.730468 17.992188-7.238282-14.472657 11.425782 8.570313c-1.449219 1.925781-2.867188 3.878906-4.1875 5.902344zm68.769531-160.664063c1.609375 2.722656 2.488281 5.875 2.488281 9.175782 0 3.578124-1.046875 7.042968-3.03125 10.015624l-3.066406 4.601563c-1.503906-2.953125-3.261719-5.742187-5.238282-8.359375 3.894532-4.550781 6.9375-9.785156 8.847657-15.433594zm-13.511719 49.066406v16c0 22.054688-17.945312 40-40 40s-40-17.945312-40-40v-16c0-22.058593 17.945312-40 40-40s40 17.941407 40 40zm-92.96875-29.875c-1.984375-2.972656-3.03125-6.4375-3.03125-10.015624 0-3.300782.878906-6.453126 2.488281-9.167969 1.917969 5.648437 4.953125 10.875 8.855469 15.425781-1.984375 2.625-3.734375 5.40625-5.238281 8.359375zm-155.03125 173.875c8.59375 0 16.710938-2.007812 24-5.480468v9.480468l-24 18-24-18v-9.488281c7.289062 3.480469 15.40625 5.488281 24 5.488281zm-12.175781 32.863282-8.320313 8.320312-6.480468-19.425781zm39.152343-11.105469-6.480468 19.425781-8.320313-8.320312zm-66.976562-93.757813c0-22.058593 17.945312-40 40-40s40 17.941407 40 40v16c0 22.054688-17.945312 40-40 40s-40-17.945312-40-40zm-56 121.671876c0-11.335938 7.726562-20.96875 18.792969-23.433594l32.453125-7.214844 17.257812 51.785156 27.496094-27.496094 27.503906 27.503907 17.257813-51.785157 28.367187 6.304688c-15.128906 10.03125-25.128906 27.191406-25.128906 46.664062v16c0 8.589844 2.007812 16.710938 5.480469 24h-149.480469zm187.824219 127.191406-8.320313 8.320312-6.480468-19.425781zm39.152343-11.105469-6.480468 19.425781-8.320313-8.320312zm-2.976562-17.757813-24 18-24-18v-9.488281c7.289062 3.480469 15.40625 5.488281 24 5.488281s16.710938-2.007812 24-5.480468zm72 45.671876v62.328124h-192v-62.328124c0-11.335938 7.726562-20.96875 18.792969-23.433594l32.453125-7.214844 17.257812 51.785156 27.496094-27.496094 27.503906 27.503907 17.257813-51.785157 32.453125 7.214844c11.058594 2.457032 18.785156 12.089844 18.785156 23.425782zm-56-105.671876c0 22.054688-17.945312 40-40 40s-40-17.945312-40-40v-16c0-22.058593 17.945312-40 40-40s40 17.941407 40 40zm5.886719-48c-8.679688-12.410156-22.246094-21.105468-37.886719-23.359374v-38.96875c0-11.335938 7.726562-20.96875 18.792969-23.433594l33.648437-7.480469 19.175782 38.351563c-4.875 12.035156-7.617188 25.136718-7.617188 38.890624 0 5.453126.550781 10.765626 1.359375 16zm42.113281-16c0-48.519531 39.480469-88 88-88s88 39.480469 88 88c0 48.519532-39.480469 88-88 88s-88-39.480468-88-88zm104 216c0 8.824219-7.175781 16-16 16s-16-7.175781-16-16v-80h32zm0-96h-32v-17.359374c5.230469.8125 10.542969 1.359374 16 1.359374s10.769531-.554687 16-1.359374zm0 0"/>
  <path d="m464 245.445312c0-39.707031-32.296875-72-72-72s-72 32.292969-72 72c0 39.703126 32.296875 72 72 72s72-32.296874 72-72zm-128 0c0-30.875 25.128906-56 56-56s56 25.125 56 56c0 30.871094-25.128906 56-56 56s-56-25.128906-56-56zm0 0"/>
</svg>
