<svg viewBox="0 0 512 512" xmlns="http://www.w3.org/2000/svg"><path d="M108.67 283.33L136 256l-1.38-1.38-21.24-21.24L112 232l-23.33 23.33z" fill="#4f5761"/><path d="M153.45 338.46L96 360l-32-32 24.77-72.52 13.32-8.88L112 240l24 24v24z" fill="#fdc5ca"/><path d="M488 344.49V448l-27.69 40H140.8L96 360l57.45-21.54 22.32 62.23 8.16-24.47 9.59-28.77a96.007 96.007 0 0153.88-58.13c.66-.28 1.34-.56 2.01-.82.49-.21.98-.4 1.47-.58L272 280l24-16 13.75-4.12L376 240l15.04 3.01a166.074 166.074 0 0120.94 5.7c.73.24 1.45.5 2.18.76.26.09.51.19.77.29 1.4.51 2.79 1.03 4.17 1.59q6.57 2.58 12.9 5.74 3.345 1.665 6.62 3.48A95.987 95.987 0 01488 344.49z" fill="#ba8b5d"/><path d="M312 422.25V488h-16v-66.75l8 8.278z" fill="#8a6231"/><path d="M424 256L304 432l-56.6-142.68c.66-.28 1.34-.56 2.01-.82.49-.21.98-.4 1.47-.58L272 280l24-16 13.75-4.12 102.23-11.17c.73.24 1.45.5 2.18.76.26.09.51.19.77.29 1.4.51 2.79 1.03 4.17 1.59z" fill="#c1d7e6"/><path d="M376 128v112l-56 48-24-24v-24h-40l-8-56-24-16 22.86-40z" fill="#fdc5ca"/><path d="M312 168l11.03-11.03a16.97 16.97 0 0112-4.97A16.97 16.97 0 01352 168.97a43.03 43.03 0 01-19.162 35.804l-2.027 1.352a11.158 11.158 0 01-6.19 1.874 11.158 11.158 0 01-7.889-3.268L312 200z" fill="#fc979e"/><path d="M382.77 128L376 216l-29.76-25.51-5.62-4.81-19.45-26.85-3.09-4.27-3.79-26.56z" fill="#fdca77"/><path d="M352 168.97a43.033 43.033 0 01-5.09 20.3c-.22.41-.44.81-.67 1.22l-5.62-4.81-19.45-26.85 1.86-1.86a16.97 16.97 0 0128.97 12z" fill="#fab53f"/><path d="M280 160h-8a8 8 0 010-16h8a8 8 0 010 16z" fill="#68737f"/><path d="M296 264l-24 16 16 32 32-24zM414.16 249.47L336 312l-16-24 56-48 15.04 3.01a166.107 166.107 0 0123.12 6.46z" fill="#d4e4f0"/><path d="M288 312l8 24h24l16-24-16-24zM288 392l8-56h24l8.35 58.45L304 432z" fill="#529ddf"/><path d="M288 312a31.394 31.394 0 0036.239 5.88L336 312l-16 24h-24z" fill="#4384c3"/><path d="M323.31 235.31L296 262.63V240l16-16z" fill="#fc979e"/><path d="M304 168l11.03-11.03a16.97 16.97 0 0112-4.97A16.97 16.97 0 01344 168.97a43.03 43.03 0 01-19.162 35.804l-2.027 1.352a11.158 11.158 0 01-6.19 1.874 11.158 11.158 0 01-7.889-3.268L304 200z" fill="#fdc5ca"/><g fill="#9f764a"><path d="M240 384l8-48-24-8v-24.64a95.246 95.246 0 0125.41-14.86l38.8 102L304 432zM432 257.09V312l-40 16-8 48-80 56 110.93-182.24a161.486 161.486 0 0117.07 7.33zM208 408h16v80h-16zM432 384v32a8.033 8.033 0 01-1.1 4.06L390.93 488h-18.57L416 413.82V384z"/></g><rect fill="#ba8b5d" height="32" rx="16" width="192" x="224" y="96"/><path d="M280 24h80a32 32 0 0132 32v40H248V56a32 32 0 0132-32z" fill="#ba8b5d"/><path d="M320 72a60.652 60.652 0 01-33.75-10.219l-10.687-7.125 8.875-13.312 10.687 7.125a44.846 44.846 0 0049.75 0l10.687-7.125 8.875 13.312-10.686 7.125A60.655 60.655 0 01320 72z" fill="#9f764a"/><path d="M133.65 290.78l-58.29 48.58L64 328l24.77-72.52 13.32-8.88z" fill="#fc979e"/><path d="M112 288l-40-56-48 48 40 48z" fill="#fdc5ca"/><path d="M42.18 301.82l-13.21 13.21a16.97 16.97 0 0024 24L64 328z" fill="#4f5761"/><circle cx="168" cy="200" fill="#68737f" r="64"/><path d="M184.05 423.87l15.02-5.25-15.14-42.4-8.16 24.47z" fill="#9f764a"/><circle cx="168" cy="200" fill="#d4e4f0" r="40"/><path d="M248 80h144v16H248z" fill="#9f764a"/></svg>