<svg xmlns="http://www.w3.org/2000/svg" viewBox="0 0 512 512"><path d="M0 102.535v305.669c0 22.058 17.882 39.939 39.939 39.939L512 448.107V102.535H0z" fill="#d1e7f8"/><path d="M463.356 143.472H231.898a7.834 7.834 0 00-7.838 7.838 7.841 7.841 0 007.838 7.838h28.542v104.855H156.975V159.148h43.57a7.841 7.841 0 007.838-7.838 7.835 7.835 0 00-7.838-7.838h-51.408a7.828 7.828 0 00-7.838 7.838v176.967c0 40.435 32.889 73.335 73.324 73.335h248.733a7.835 7.835 0 007.838-7.838V151.31a7.828 7.828 0 00-7.838-7.838zm-76.115 15.676v57.477H276.116v-57.477h111.125zM214.622 385.934c-31.792 0-57.648-25.866-57.648-57.658v-48.597H260.44v106.255h-45.818zm240.896 0H276.116V232.302H395.08a7.836 7.836 0 007.838-7.838v-65.316h52.6v226.786z" fill="#1e81ce"/><path d="M110.541 63.856v306.527H38.44c-2.404 0-4.766.219-7.054.648-16.283 3.052-29.043 16.46-31.081 33.088H.012V103.967h.031c-.01-.387-.031-.773-.031-1.16v-.523c0-18.728 13.576-34.436 31.374-37.77a37.453 37.453 0 017.054-.658h72.101z" fill="#78b9eb"/><path d="M31.385 64.514v306.517c-16.283 3.052-29.043 16.46-31.081 33.088H.011V103.967h.031c-.01-.387-.031-.773-.031-1.16v-.523c0-18.728 13.576-34.436 31.374-37.77z" fill="#5aaae7"/></svg>