<svg viewBox="0 0 512 512" xmlns="http://www.w3.org/2000/svg"><path d="M0 96v384c0 17.68 14.32 32 32 32h448c17.68 0 32-14.32 32-32V96zm0 0" fill="#e1eaf7"/><path d="M0 0h512v128H0zm0 0" fill="#b0bec5"/><path d="M64 48h32v32H64zm0 0M128 48h32v32h-32zm0 0" fill="#fff"/><path d="M432 80H208c-8.832 0-16-7.168-16-16s7.168-16 16-16h224c8.832 0 16 7.168 16 16s-7.168 16-16 16zm0 0" fill="#90a4ae"/><path d="M336 192h112v160H336zm0 0" fill="#4dd0e1"/><path d="M336 384h112v64H336zm0 0M64 192h112v112H64zm0 0" fill="#80deea"/><path d="M64 336h112v112H64zm0 0" fill="#4dd0e1"/><path d="M208 192h96v256h-96zm0 0" fill="#80deea"/></svg>