<svg version="1.0" xmlns="http://www.w3.org/2000/svg" viewBox="0 0 851.881 700"><path d="M0 350v350h700v-44h40v-14h-40v-40h33v-14h-33v-37h39.1l-.3-7.3-.3-7.2-19.2-.3-19.3-.2V0H0v350zm695-79.5V536h-44v120l21.8.2 21.7.3.3 19.2.2 19.3H5V5h690v265.5zm-.2 298.7l-.3 18.3-13.7.3-13.8.3V551h28l-.2 18.2zm.2 52.8v20h-28v-40h28v20z"/><path d="M82 325.6c-20.8 4.5-36.1 21.1-40.6 44.3-2 10.4-1.5 30.3 1.1 40.1 3.5 13 10.6 24.2 19.3 30.2 10.3 7.2 18.9 9.8 32.2 9.8 14.2 0 24.3-3.4 34.1-11.2 7.8-6.2 15.4-20.2 17.4-31.6l.7-4.2h-15.9l-1.7 6.2c-2.3 8.3-5.5 13.6-11.5 19-6.2 5.6-11.8 7.3-23.1 7.2-18.8-.2-30.6-9.9-35.6-29.5-2-7.7-2.2-25.7-.4-34.4 3.8-18.3 14.9-29.9 31.2-32.6 17.5-2.9 31.9 4.1 37.8 18.4l2.4 5.7h15.7l-.7-3.8c-1.5-8.6-8.9-19.9-16.9-25.8-11.1-8.3-29.1-11.4-45.5-7.8zm116-.4c-19 2.7-32 16.7-32.2 34.7-.1 9.2 1.8 14.5 6.9 19.7 5.4 5.6 10.2 7.6 27.8 12 23.9 5.9 26.1 6.5 31 9.3 5.9 3.2 8.5 6.5 9.2 11.9 1.6 11.8-5.4 20.1-19.5 23.1-11.3 2.4-24.1.7-32.6-4.3-5.5-3.2-10.3-10.8-11.2-17.9l-.7-4.7h-15.3l.8 6.7c2 16.8 13.6 29.1 31.4 33.4 7.4 1.8 24.8 1.5 32.4-.5 7.2-1.8 17.4-6.5 20.5-9.3 9.2-8.2 12.7-22.8 8.9-36.1-1.3-4.3-2.9-6.8-6.8-10.7-6.3-6.4-10.4-8-35.2-14-27.1-6.5-31.3-8.9-32.2-18.3-1.4-15.1 12.9-24.2 33.6-21.2 12.9 1.8 19 6.6 21.9 17.1l1.6 5.9H253v-4.5c0-5.5-3.3-14.5-6.8-18.7-5.6-6.7-16.8-12.1-28.7-13.8-8.1-1.1-10.6-1.1-19.5.2zm112.2-.2c-13.4 1.9-24.9 9.9-30.1 20.9-2.2 4.7-2.6 7-2.6 14.6 0 10.1 1.4 14.2 6.9 19.6 4.8 4.9 11.9 7.6 33.3 13 28.2 7.1 32.2 9.3 34.4 18.6 1.9 8.6-1.6 16.1-9.6 20.5-14.3 7.8-38 5.6-47-4.3-3.9-4.4-5.1-6.8-6.6-14.1l-1.1-4.8H273v3.2c0 4.4 2.2 12.4 4.8 17.3 4.6 8.9 15.5 16.8 27.2 19.6 7.7 1.8 25.1 1.6 32.7-.4 7.6-2 17.8-7 21.6-10.6 8.6-7.9 11.6-27 6.2-38.5-2.4-4.9-7.8-10.2-13.6-13.1-2.5-1.3-12.2-4.2-21.5-6.5-30.9-7.5-35.1-9.5-37.4-17.8-1.9-7.4 2-16.2 9.2-20.2 8.2-4.6 25.7-4.6 34.7-.1 5.2 2.7 9.8 8.2 11.1 13.3.6 2.4 1.3 4.9 1.5 5.5.3.9 2.9 1.3 8.1 1.3h7.7l-.7-5.1c-1.7-13-7.7-21.4-18.8-26.8-10.3-4.9-23.4-6.8-35.6-5.1zm-84.6 209c-16.1 2.9-27 9.8-35.2 22.2-8.2 12.3-11.5 24-11.5 41.3 0 31 13.9 52.5 39.1 60.2 7.4 2.3 23.4 2.7 32 .9 22.1-4.7 38.2-21.5 43.4-45.5 2.1-9.5 2.1-27.8 0-36.8-4.8-21.1-18.4-35.7-37.9-40.8-7.3-1.9-23.2-2.7-29.9-1.5zm25 15.7c13.6 4.6 22.3 14.5 26.5 30.3 1.8 6.7 1.6 24.3-.4 32-3.8 14.5-11.1 25.1-20.5 29.7-4.9 2.4-7.1 2.8-16.4 3.2-8.8.3-12-.1-17.6-1.8-16.8-5.1-26.6-22.1-26.4-46.1 0-15.2 3.7-27.5 10.7-35.8 3.3-3.9 11.8-9.5 17.5-11.5 6.2-2.1 20.3-2.2 26.6 0zM45 596v60h15l.1-49.8v-49.7l9.4 27.5c5.2 15.1 12.9 37.5 17.1 49.7l7.6 22.3h16.4l15.8-46.8c8.6-25.7 16.3-48 16.9-49.5.9-2.2 1.1 8 .8 46.7l-.3 49.6H160l-.2-59.8-.3-59.7h-22.7l-17 49.9c-9.2 27.5-17 50.1-17.2 50.3-.3.3-3.3-8.2-25.7-74L67.8 536H45v60zm270.5-58.8c-.3.7-.4 27.8-.3 60.3l.3 59 28-.1c29.8 0 35.3-.7 44.7-5.5 10.6-5.4 20.6-20.5 24.3-36.9 2.3-9.9 2.3-28.1.1-37.4-5.5-22.9-20.8-37.4-42.1-39.6-14-1.5-54.5-1.3-55 .2zm58.6 15.2c6.2 1.8 12.8 6.9 16.3 12.5 7.3 11.9 9.6 31.3 5.6 48-2.5 10.4-6.1 17.1-11.9 22.2-6.6 5.8-11.6 7-33.3 7.6l-18.8.6v-93.6l18.3.5c12.6.4 19.9 1.1 23.8 2.2zm63.1 26.8c.4 39.9.6 43.8 2.4 49.9 5.6 18.1 17.3 27.7 36.7 29.9 8.7 1 20.9-.1 27.7-2.5 7-2.4 14.6-8.2 18.3-13.9 8.1-12.3 8.7-16.9 8.7-65.9V536h-15.9l-.3 43.2c-.3 42.5-.4 43.4-2.6 49-4.5 11.2-14.3 16.8-29.4 16.8-10.4 0-17.1-2.9-22.2-9.5-6.8-8.9-6.9-10.1-7.4-57.3l-.4-42.2h-15.9l.3 43.2zm119.5-42.6c-.4.4-.7 27.4-.7 60.1V656h77v-14h-60l-.2-52.8-.3-52.7-7.5-.3c-4.2-.1-7.9 0-8.3.4zm242.8-2.9c-15.2 1-26.2 6.6-32.8 16.6-4.3 6.6-5.7 11.7-5.7 20.4 0 12 6.2 21 17.5 25.2 2.8 1.1 13.6 4 24 6.6 19.8 4.9 26.3 7.5 30.5 12 2.1 2.2 2.5 3.8 2.8 9.8.5 9.5-1.6 12.9-11.1 17.6-5.9 3-7.9 3.5-16.5 3.9-10.7.5-18.7-1.1-25.1-5-4.5-2.8-8.8-9.9-10.3-17l-1.2-5.8H757v4.3c0 9.8 5.8 21.1 14.2 27.8 12.2 9.6 34.9 12.5 53.3 6.8 19.1-5.9 26.3-14.3 27.3-31.5.6-10.2-1.3-16.5-6.9-22.8-5.4-6.2-11.6-8.8-31.4-13.6-28.7-6.9-32.7-8.6-36.2-15.4-3.4-6.6 1-18.2 8.5-22.3 5.1-2.8 8.3-3.4 17.2-3.4 17.3 0 26.1 5.6 29.4 18.9l1.2 4.7h14.9l-.4-5c-.5-7-3.7-15.1-7.8-19.6-7.7-8.5-25-14.1-40.8-13.2z"/></svg>