<svg xmlns="http://www.w3.org/2000/svg" viewBox="1 1 511 512"><path d="M415.395 0h-35.31v141.242h35.31zM247.672 326.621h35.312V185.38h-35.312zm-114.758 44.137H97.605V512h35.31zm0 0" fill="#1a6fb0"/><path d="M415.395 70.621H512.5v52.965h-97.105zm0 0" fill="#5aaae7"/><path d="M415.395 17.656H512.5v52.965h-97.105zm-273.653 0C63.734 17.656.5 80.891.5 158.898v8.825c0 78.007 63.234 141.242 141.242 141.242h105.93V256h-105.93c-48.754 0-88.277-39.523-88.277-88.277v-8.825c0-48.753 39.523-88.277 88.277-88.277h238.344V17.656zm0 0" fill="#78b9eb"/><path d="M53.465 158.898v8.825c0 48.754 39.523 88.277 88.277 88.277h105.93v-52.965H150.57c-19.504 0-35.312-15.808-35.312-35.312v-8.825c0-19.503 15.808-35.312 35.312-35.312h229.516V70.62H141.742c-48.754 0-88.277 39.524-88.277 88.277zm0 0" fill="#5aaae7"/><path d="M.5 388.414h97.105v52.965H.5zm0 0" fill="#78b9eb"/><path d="M.5 441.379h97.105v52.965H.5zm0 0" fill="#5aaae7"/><path d="M362.43 308.965c19.504 0 35.312 15.808 35.312 35.312v8.825c0 19.503-15.808 35.312-35.312 35.312H132.914v52.965h238.344c48.754 0 88.277-39.524 88.277-88.274v-8.828c0-48.754-39.523-88.277-88.277-88.277h-88.274v52.969h79.446zm0 0" fill="#78b9eb"/><path d="M459.535 344.277v8.825c0 48.753-39.523 88.277-88.277 88.277H132.914v52.965h238.344c78.004 0 141.242-63.235 141.242-141.242v-8.825c0-78.007-63.238-141.242-141.242-141.242h-88.274V256h88.274c48.754 0 88.277 39.523 88.277 88.277zm0 0" fill="#5aaae7"/></svg>