<svg viewBox="0 0 64 64"
  xmlns="http://www.w3.org/2000/svg">
  <path d="m45.405 3.812a6 6 0 0 1 2.177 8.2l-5.02 8.649 2.595 1.506-9.757 12.833-7.336 2.68 13.222-22.787a6 6 0 1 1 4.119-11.081zm-4.742 4.188a2 2 0 1 0 2.737-.729 2 2 0 0 0 -2.737.729z" fill="#34b2e4"/>
  <path d="m29.479 46.014a9.885 9.885 0 0 1 .434-7.84 9.89 9.89 0 0 0 .192-8.438l-.018-.04a9.89 9.89 0 0 1 .557-9.1l.563-.939a9.888 9.888 0 0 0 .366-9.509l-3.573-7.148h-3l-1 8-3 3-3-3-1-8h-3l-3.573 7.145a9.888 9.888 0 0 0 .366 9.509l.563.939a9.89 9.89 0 0 1 .557 9.1l-.018.04a9.89 9.89 0 0 0 .192 8.438l.869 1.738a9.881 9.881 0 0 1 1.044 4.425v8.666a8 8 0 0 0 8 8h13z" fill="#ffc569"/>
  <path d="m30.087 29.7a9.846 9.846 0 0 1 -.8-3.139l-1.477.589-4.538 6.367 7.428-1.947a9.846 9.846 0 0 0 -.6-1.834z" fill="#f06e7a"/>
  <path d="m39 39h16v22h-16z" fill="#92e5eb"/>
  <path d="m55 42.928-5.732 9.929-1.268 6.196 4.732-4.196 2.268-3.929z" fill="#68cbf2"/>
  <path d="m42 48v-9h-3v22h16v-3h-3a10 10 0 0 1 -10-10z" fill="#68cbf2"/>
  <path d="m60.793 23.771a5.973 5.973 0 0 1 -4.278 7.334 6.08 6.08 0 0 1 -7.406-4.278 5.965 5.965 0 0 1 -.182-2.024l-25.654 6.71 4.538-6.367 15.057-6.009.782 2.9 9.737-2.547a6.08 6.08 0 0 1 7.406 4.281zm-7.793 2.037a2.025 2.025 0 0 0 2.468 1.426 1.99 1.99 0 0 0 1.432-2.444 2.025 2.025 0 0 0 -2.468-1.426 1.99 1.99 0 0 0 -1.432 2.444z" fill="#92e5eb"/>
  <ellipse cx="56.447" cy="23.632" fill="none" rx="2" ry="2.017" transform="matrix(.261 -.965 .965 .261 18.898 71.951)"/>
  <path d="m37.415 26.538 13.008-3.4a5.887 5.887 0 0 0 .61 3.144 6.144 6.144 0 0 0 6.3 3.295 6.052 6.052 0 0 0 2.811-1.187 5.985 5.985 0 0 1 -3.631 2.717 6.08 6.08 0 0 1 -7.406-4.278 5.965 5.965 0 0 1 -.182-2.024l-25.654 6.71 4.538-6.367 5.234-2.088a3.486 3.486 0 0 0 4.372 3.478z" fill="#68cbf2"/>
  <path d="m27 19a7.961 7.961 0 0 1 -4.974-1.741 4.98 4.98 0 0 0 9.948 0 7.961 7.961 0 0 1 -4.974 1.741z" fill="#f06e7a"/>
  <path d="m34.631 60a16.665 16.665 0 0 1 -16.631-16.6 9.642 9.642 0 0 0 -.953-4.3l-.958-1.916a9.9 9.9 0 0 1 -.194-8.441l.021-.046a9.886 9.886 0 0 0 .417-6.893 4.984 4.984 0 0 0 3.641-4.538 4.448 4.448 0 0 1 -1.3.647 4.008 4.008 0 0 1 -5.256-3.48 9.885 9.885 0 0 1 1.007-5.281l2.675-5.352-.1-.8h-3l-3.573 7.145a9.888 9.888 0 0 0 .366 9.509l.559.933a9.9 9.9 0 0 1 .561 9.109l-.018.04a9.9 9.9 0 0 0 .2 8.444l.866 1.732a9.881 9.881 0 0 1 1.039 4.422v8.666a8 8 0 0 0 8 8h13z" fill="#f06e7a"/>
  <path d="m32.781 60.375-.2-.25a22.4 22.4 0 0 1 -4.6-10.289 1 1 0 1 0 -1.972.328 24.417 24.417 0 0 0 4.729 10.836h2.247a.979.979 0 0 0 -.204-.625z" fill="#a7325c"/>
  <path d="m4 6h1v18a1 1 0 0 0 2 0v-18h1a1 1 0 0 0 0-2h-4a1 1 0 0 0 0 2z" fill="#80e1b8"/>
  <path d="m8 59h-1v-19a1 1 0 0 0 -2 0v19h-1a1 1 0 0 0 0 2h4a1 1 0 0 0 0-2z" fill="#80e1b8"/>
  <path d="m8 27h-4a1 1 0 0 0 0 2h4a1 1 0 0 0 0-2z" fill="#ffc569"/>
  <path d="m7 31h-2a2 2 0 0 0 -2 2v2a2 2 0 0 0 2 2h2a2 2 0 0 0 2-2v-2a2 2 0 0 0 -2-2zm-2 4v-2h2v2z" fill="#ffc569"/>
  <path d="m27.985 61a.979.979 0 0 0 -.2-.625l-.2-.25a22.4 22.4 0 0 1 -4.595-10.289 1 1 0 1 0 -1.972.328 24.417 24.417 0 0 0 4.72 10.836z" fill="#a7325c"/>
  <path d="m22.985 61a.98.98 0 0 0 -.2-.625l-.251-.314a16.163 16.163 0 0 1 -3.534-10.061 1 1 0 0 0 -2 0 18.16 18.16 0 0 0 3.651 10.878 8.094 8.094 0 0 0 1.349.122z" fill="#a7325c"/>
  <path d="m47 43h-4a1 1 0 0 0 0 2h1v3a1 1 0 0 0 2 0v-3h1a1 1 0 0 0 0-2z" fill="#80e1b8"/>
  <path d="m48 55h-2v-3a1 1 0 0 0 -2 0v3h-1a1 1 0 0 0 0 2h5a1 1 0 0 0 0-2z" fill="#80e1b8"/>
  <path d="m43 57h4.663a10.029 10.029 0 0 1 -3.663-3.018v1.018h-1a1 1 0 0 0 0 2z" fill="#3aba80"/>
  <path d="m52.5 37.795h4v14h-4z" fill="#80e1b8" transform="matrix(.866 .5 -.5 .866 29.699 -21.248)"/>
  <path d="m52.732 51.857-3.464-2-1.268 6.196z" fill="#f06e7a"/>
  <path d="m59 35a2 2 0 0 1 2 2v2a0 0 0 0 1 0 0h-4a0 0 0 0 1 0 0v-2a2 2 0 0 1 2-2z" fill="#ffc569" transform="matrix(.866 .5 -.5 .866 26.405 -24.543)"/>
  <path d="m54.732 46.393a3.991 3.991 0 0 1 -4.532 1.841l-.936 1.623 3.464 2 7-12.125-.866-.5z" fill="#3aba80"/>
  <path d="m48.5 53.609-.5 2.444 4.732-4.196-1.366-.789z" fill="#a7325c"/>
  <path d="m58 36.732-.866-.5-.866 1.5 3.464 2 1-1.732a1.991 1.991 0 0 0 -.006-1.992 2 2 0 0 1 -2.726.724z" fill="#f06e7a"/>
  <path d="m49 56a.988.988 0 0 0 -.245-.637l-.312 1.522a.991.991 0 0 0 .557-.885z" fill="#3aba80"/>
</svg>
