<svg id="line" height="512" viewBox="0 0 64 64" width="512" xmlns="http://www.w3.org/2000/svg"><path d="m31 31h10v10h-10z" fill="#c4a2fc"/><path d="m31 55h10v8h-10z" fill="#c4a2fc"/><path d="m31 43h10v10h-10z" fill="#c4a2fc"/><path d="m31 21h10v8h-10z" fill="#c4a2fc"/><path d="m21 43h8v10h-8z" fill="#c4a2fc"/><path d="m43 43h10v10h-10z" fill="#c4a2fc"/><path d="m21 31h8v10h-8z" fill="#c4a2fc"/><path d="m43 31h10v10h-10z" fill="#c4a2fc"/><path d="m55 43h8v10h-8z" fill="#c4a2fc"/><path d="m29 29v-8h-5a3 3 0 0 0 -3 3v5z" fill="#c4a2fc"/><path d="m43 55h10v8h-10z" fill="#c4a2fc"/><path d="m55 55v8h5a3 3 0 0 0 3-3v-5z" fill="#c4a2fc"/><path d="m29 55h-8v5a3 3 0 0 0 3 3h5z" fill="#c4a2fc"/><path d="m55 29h8v-5a3 3 0 0 0 -3-3h-5z" fill="#c4a2fc"/><path d="m43 21h10v8h-10z" fill="#c4a2fc"/><path d="m55 31h8v10h-8z" fill="#c4a2fc"/><g fill="#151a6a"><path d="m14 9a1 1 0 0 0 -1 1v1a1 1 0 0 0 2 0v-1a1 1 0 0 0 -1-1z"/><path d="m14 16a1 1 0 0 0 -1 1v1a1 1 0 0 0 2 0v-1a1 1 0 0 0 -1-1z"/><path d="m11 13h-1a1 1 0 0 0 0 2h1a1 1 0 0 0 0-2z"/><path d="m18 13h-1a1 1 0 0 0 0 2h1a1 1 0 0 0 0-2z"/><path d="m26 9a1 1 0 0 0 -1 1v1a1 1 0 0 0 2 0v-1a1 1 0 0 0 -1-1z"/><path d="m26 16a1 1 0 0 0 -1 1v1a1 1 0 0 0 2 0v-1a1 1 0 0 0 -1-1z"/><path d="m23 13h-1a1 1 0 0 0 0 2h1a1 1 0 0 0 0-2z"/><path d="m30 13h-1a1 1 0 0 0 0 2h1a1 1 0 0 0 0-2z"/><path d="m38 9a1 1 0 0 0 -1 1v1a1 1 0 0 0 2 0v-1a1 1 0 0 0 -1-1z"/><path d="m38 16a1 1 0 0 0 -1 1v1a1 1 0 0 0 2 0v-1a1 1 0 0 0 -1-1z"/><path d="m35 13h-1a1 1 0 0 0 0 2h1a1 1 0 0 0 0-2z"/><path d="m42 13h-1a1 1 0 0 0 0 2h1a1 1 0 0 0 0-2z"/><path d="m14 21a1 1 0 0 0 -1 1v1a1 1 0 0 0 2 0v-1a1 1 0 0 0 -1-1z"/><path d="m14 28a1 1 0 0 0 -1 1v1a1 1 0 0 0 2 0v-1a1 1 0 0 0 -1-1z"/><path d="m11 25h-1a1 1 0 0 0 0 2h1a1 1 0 0 0 0-2z"/><path d="m18 25h-1a1 1 0 0 0 0 2h1a1 1 0 0 0 0-2z"/><path d="m26 21a1 1 0 0 0 -1 1v1a1 1 0 0 0 2 0v-1a1 1 0 0 0 -1-1z"/><path d="m26 28a1 1 0 0 0 -1 1v1a1 1 0 0 0 2 0v-1a1 1 0 0 0 -1-1z"/><path d="m23 25h-1a1 1 0 0 0 0 2h1a1 1 0 0 0 0-2z"/><path d="m30 25h-1a1 1 0 0 0 0 2h1a1 1 0 0 0 0-2z"/><path d="m38 21a1 1 0 0 0 -1 1v1a1 1 0 0 0 2 0v-1a1 1 0 0 0 -1-1z"/><path d="m38 28a1 1 0 0 0 -1 1v1a1 1 0 0 0 2 0v-1a1 1 0 0 0 -1-1z"/><path d="m35 25h-1a1 1 0 0 0 0 2h1a1 1 0 0 0 0-2z"/><path d="m42 25h-1a1 1 0 0 0 0 2h1a1 1 0 0 0 0-2z"/><path d="m14 33a1 1 0 0 0 -1 1v1a1 1 0 0 0 2 0v-1a1 1 0 0 0 -1-1z"/><path d="m14 40a1 1 0 0 0 -1 1v1a1 1 0 0 0 2 0v-1a1 1 0 0 0 -1-1z"/><path d="m11 37h-1a1 1 0 0 0 0 2h1a1 1 0 0 0 0-2z"/><path d="m18 37h-1a1 1 0 0 0 0 2h1a1 1 0 0 0 0-2z"/><path d="m26 33a1 1 0 0 0 -1 1v1a1 1 0 0 0 2 0v-1a1 1 0 0 0 -1-1z"/><path d="m26 40a1 1 0 0 0 -1 1v1a1 1 0 0 0 2 0v-1a1 1 0 0 0 -1-1z"/><path d="m23 37h-1a1 1 0 0 0 0 2h1a1 1 0 0 0 0-2z"/><path d="m30 37h-1a1 1 0 0 0 0 2h1a1 1 0 0 0 0-2z"/><path d="m38 33a1 1 0 0 0 -1 1v1a1 1 0 0 0 2 0v-1a1 1 0 0 0 -1-1z"/><path d="m38 40a1 1 0 0 0 -1 1v1a1 1 0 0 0 2 0v-1a1 1 0 0 0 -1-1z"/><path d="m35 37h-1a1 1 0 0 0 0 2h1a1 1 0 0 0 0-2z"/><path d="m42 37h-1a1 1 0 0 0 0 2h1a1 1 0 0 0 0-2z"/><path d="m46 1h-40a5 5 0 0 0 -5 5v40a5 5 0 0 0 5 5h40a5 5 0 0 0 5-5v-40a5 5 0 0 0 -5-5zm3 45a3 3 0 0 1 -3 3h-40a3 3 0 0 1 -3-3v-40a3 3 0 0 1 3-3h40a3 3 0 0 1 3 3z"/></g></svg>