<?xml version="1.0" standalone="no"?>
<!DOCTYPE svg PUBLIC "-//W3C//DTD SVG 20010904//EN"
 "http://www.w3.org/TR/2001/REC-SVG-20010904/DTD/svg10.dtd">
<svg version="1.0" xmlns="http://www.w3.org/2000/svg"
 width="119.623445pt" height="39.797457pt" viewBox="0 0 119.623445 39.797457"
 preserveAspectRatio="xMidYMid meet">
<metadata>
Created by potrace 1.12, written by Peter Selinger 2001-2015
</metadata>
<g transform="translate(-0.325632,39.893250) scale(0.100000,-0.100000)"
fill="#000000" stroke="none">
<path d="M135 385 c-52 -19 -111 -82 -125 -135 -24 -89 18 -182 102 -224 64
-32 119 -33 178 -3 70 35 103 85 108 161 6 99 -43 173 -137 205 -44 14 -77 13
-126 -4z m44 -104 c22 -14 3 -31 -34 -31 -35 0 -45 -13 -45 -55 0 -33 26 -56
55 -49 25 6 43 -12 27 -28 -5 -5 -27 -10 -48 -10 -77 0 -115 102 -59 157 25
26 76 33 104 16z m81 -53 c8 -31 18 -59 21 -62 3 -4 12 21 19 55 13 60 26 76
54 66 11 -4 7 -25 -19 -103 -34 -101 -65 -144 -106 -144 -25 0 -25 30 1 37 26
7 25 24 -5 113 -31 91 -31 102 -3 98 19 -2 26 -14 38 -60z"/>
<path d="M436 283 c-3 -4 -6 -60 -6 -125 l0 -118 25 0 c22 0 25 4 25 38 l0 38
39 -4 c31 -3 42 0 55 19 23 34 21 114 -4 139 -23 23 -60 26 -78 8 -8 -8 -15
-9 -20 -3 -9 12 -27 16 -36 8z m93 -32 c16 -10 19 -87 3 -103 -5 -5 -18 -8
-28 -6 -33 6 -29 119 5 118 3 0 12 -4 20 -9z"/>
<path d="M620 199 c0 -82 1 -89 20 -89 17 0 20 7 20 48 0 50 21 92 46 92 8 0
14 9 14 20 0 24 -22 26 -40 5 -10 -12 -15 -13 -21 -4 -4 7 -15 14 -23 15 -14
2 -16 -11 -16 -87z"/>
<path d="M755 265 c-32 -31 -34 -91 -4 -129 16 -21 29 -26 64 -26 24 0 47 6
54 14 15 18 -1 30 -29 21 -30 -10 -60 4 -60 26 0 18 6 20 50 18 27 -2 52 0 56
3 11 11 -17 78 -36 88 -32 17 -70 11 -95 -15z m79 -21 c11 -28 7 -34 -24 -34
-22 0 -30 5 -30 18 0 10 3 22 7 25 12 13 41 7 47 -9z"/>
<path d="M920 270 c-11 -11 -20 -23 -20 -28 0 -20 33 -51 60 -57 21 -5 30 -12
30 -27 0 -18 -4 -20 -39 -14 -25 4 -42 2 -47 -5 -19 -31 92 -41 119 -11 20 22
22 56 5 69 -7 6 -26 15 -43 20 -45 14 -39 39 8 35 27 -2 37 1 37 11 0 32 -80
37 -110 7z"/>
<path d="M1092 283 c-7 -2 -17 -13 -22 -24 -15 -27 3 -56 45 -74 20 -8 35 -21
35 -31 0 -14 -7 -15 -39 -10 -25 4 -42 2 -47 -5 -19 -31 92 -41 119 -11 20 22
22 56 5 69 -7 6 -26 15 -43 20 -45 14 -39 39 8 35 27 -2 37 1 37 11 0 24 -60
36 -98 20z"/>
</g>
</svg>
