<svg version="1.0" xmlns="http://www.w3.org/2000/svg" viewBox="0 0 119.623 39.797"><path d="M13.174 1.393c-5.2 1.9-11.1 8.2-12.5 13.5-2.4 8.9 1.8 18.2 10.2 22.4 6.4 3.2 11.9 3.3 17.8.3 7-3.5 10.3-8.5 10.8-16.1.6-9.9-4.3-17.3-13.7-20.5-4.4-1.4-7.7-1.3-12.6.4zm4.4 10.4c2.2 1.4.3 3.1-3.4 3.1-3.5 0-4.5 1.3-4.5 5.5 0 3.3 2.6 5.6 5.5 4.9 2.5-.6 4.3 1.2 2.7 2.8-.5.5-2.7 1-4.8 1-7.7 0-11.5-10.2-5.9-15.7 2.5-2.6 7.6-3.3 10.4-1.6zm8.1 5.3c.8 3.1 1.8 5.9 2.1 6.2.3.4 1.2-2.1 1.9-5.5 1.3-6 2.6-7.6 5.4-6.6 1.1.4.7 2.5-1.9 10.3-3.4 10.1-6.5 14.4-10.6 14.4-2.5 0-2.5-3 .1-3.7 2.6-.7 2.5-2.4-.5-11.3-3.1-9.1-3.1-10.2-.3-9.8 1.9.2 2.6 1.4 3.8 6zM43.274 11.593c-.3.4-.6 6-.6 12.5v11.8h2.5c2.2 0 2.5-.4 2.5-3.8v-3.8l3.9.4c3.1.3 4.2 0 5.5-1.9 2.3-3.4 2.1-11.4-.4-13.9-2.3-2.3-6-2.6-7.8-.8-.8.8-1.5.9-2 .3-.9-1.2-2.7-1.6-3.6-.8zm9.3 3.2c1.6 1 1.9 8.7.3 10.3-.5.5-1.8.8-2.8.6-3.3-.6-2.9-11.9.5-11.8.3 0 1.2.4 2 .9zM61.674 19.993c0 8.2.1 8.9 2 8.9 1.7 0 2-.7 2-4.8 0-5 2.1-9.2 4.6-9.2.8 0 1.4-.9 1.4-2 0-2.4-2.2-2.6-4-.5-1 1.2-1.5 1.3-2.1.4-.4-.7-1.5-1.4-2.3-1.5-1.4-.2-1.6 1.1-1.6 8.7zM75.174 13.393c-3.2 3.1-3.4 9.1-.4 12.9 1.6 2.1 2.9 2.6 6.4 2.6 2.4 0 4.7-.6 5.4-1.4 1.5-1.8-.1-3-2.9-2.1-3 1-6-.4-6-2.6 0-1.8.6-2 5-1.8 2.7.2 5.2 0 5.6-.3 1.1-1.1-1.7-7.8-3.6-8.8-3.2-1.7-7-1.1-9.5 1.5zm7.9 2.1c1.1 2.8.7 3.4-2.4 3.4-2.2 0-3-.5-3-1.8 0-1 .3-2.2.7-2.5 1.2-1.3 4.1-.7 4.7.9zM91.674 12.893c-1.1 1.1-2 2.3-2 2.8 0 2 3.3 5.1 6 5.7 2.1.5 3 1.2 3 2.7 0 1.8-.4 2-3.9 1.4-2.5-.4-4.2-.2-4.7.5-1.9 3.1 9.2 4.1 11.9 1.1 2-2.2 2.2-5.6.5-6.9-.7-.6-2.6-1.5-4.3-2-4.5-1.4-3.9-3.9.8-3.5 2.7.2 3.7-.1 3.7-1.1 0-3.2-8-3.7-11-.7zM108.874 11.593c-.7.2-1.7 1.3-2.2 2.4-1.5 2.7.3 5.6 4.5 7.4 2 .8 3.5 2.1 3.5 3.1 0 1.4-.7 1.5-3.9 1-2.5-.4-4.2-.2-4.7.5-1.9 3.1 9.2 4.1 11.9 1.1 2-2.2 2.2-5.6.5-6.9-.7-.6-2.6-1.5-4.3-2-4.5-1.4-3.9-3.9.8-3.5 2.7.2 3.7-.1 3.7-1.1 0-2.4-6-3.6-9.8-2z"/></svg>