<svg viewBox="0 0 512 512" xmlns="http://www.w3.org/2000/svg"><path d="M256 0C114.615 0 0 114.615 0 256c0 56.257 18.161 108.265 48.92 150.512l56.568 56.568C147.735 493.839 199.743 512 256 512c141.385 0 256-114.615 256-256S397.385 0 256 0z" fill="#ff4155"/><path d="M101.85 367.655l59.533-59.534 42.42 42.42-59.534 59.534z" fill="#e9efff"/><path d="M103.64 365.934c-3.905-3.905-10.237-3.905-14.142 0L48.92 406.511a257.44 257.44 0 0056.569 56.569l40.578-40.578c3.905-3.905 3.905-10.237 0-14.142z" fill="#3c58a0"/><path d="M131.924 394.218l-28.284-28.284c-3.905-3.905-10.237-3.905-14.142 0L48.92 406.511a257.427 257.427 0 0026.061 30.508l42.801-42.801c3.905-3.905 10.237-3.905 14.142 0z" fill="#1c2e7a"/><circle cx="302" cy="210" fill="#3c58a0" r="210"/><path d="M282 400c0-11.046 8.954-20 20-20V40c-11.046 0-20-8.954-20-20s8.954-20 20-20C186.02 0 92 94.02 92 210s94.02 210 210 210c-11.046 0-20-8.954-20-20z" fill="#1c2e7a"/><circle cx="302" cy="210" fill="#49d88b" r="170"/><path d="M191.783 228.818h-35.288a7.5 7.5 0 010-15h35.288a7.5 7.5 0 010 15zM264.306 168.985h-86.591a7.5 7.5 0 010-15h86.591a7.5 7.5 0 010 15zM376.569 89.667h-72.618a7.5 7.5 0 010-15h72.618a7.5 7.5 0 010 15zM431.202 269.239H366.89a7.5 7.5 0 010-15h64.312a7.5 7.5 0 010 15z" fill="#73f9a9"/><path d="M252.003 125.763a7.479 7.479 0 01-5.623-2.534l-7.596-8.596a7.5 7.5 0 0111.24-9.932l7.596 8.596a7.5 7.5 0 01-5.617 12.466z" fill="#112360"/><path d="M252 154.316a7.5 7.5 0 01-7.5-7.5v-28.553a7.5 7.5 0 0115 0v28.553a7.5 7.5 0 01-7.5 7.5z" fill="#1c2e7a"/><path d="M301.993 182.764a7.467 7.467 0 01-3.702-.982l-50-28.447a7.5 7.5 0 017.418-13.038l50 28.447a7.5 7.5 0 01-3.716 14.02z" fill="#2a428c"/><path d="M202.624 261.739a7.5 7.5 0 01-3.532-14.121l10.34-5.508a7.5 7.5 0 017.053 13.239l-10.34 5.508a7.48 7.48 0 01-3.521.882z" fill="#112360"/><path d="M212.957 256.231a7.501 7.501 0 01-7.034-10.103l21.447-58.008a7.5 7.5 0 1114.07 5.202l-21.447 58.008a7.505 7.505 0 01-7.036 4.901z" fill="#1c2e7a"/><path d="M302 198.221h-67.595a7.5 7.5 0 010-15H302a7.5 7.5 0 010 15z" fill="#2a428c"/><path d="M258.058 337.833a7.474 7.474 0 01-5.303-2.197 7.5 7.5 0 010-10.606l10-10a7.5 7.5 0 0110.606 0 7.5 7.5 0 010 10.606l-10 10a7.476 7.476 0 01-5.303 2.197z" fill="#112360"/><path d="M268.063 327.835a7.498 7.498 0 01-6.761-4.245l-30-62.234a7.5 7.5 0 0113.512-6.514l30 62.234a7.5 7.5 0 01-6.751 10.759z" fill="#1c2e7a"/><path d="M238.059 265.598a7.5 7.5 0 01-5.221-12.884l60-58.17a7.5 7.5 0 1110.441 10.769l-60 58.17a7.478 7.478 0 01-5.22 2.115z" fill="#2a428c"/><path d="M279.645 113.72a7.5 7.5 0 01-7.5-7.5V89.667a7.5 7.5 0 0115 0v16.553a7.5 7.5 0 01-7.5 7.5z" fill="#112360"/><path d="M301.995 131.849a7.47 7.47 0 01-4.72-1.675l-22.354-18.128a7.5 7.5 0 019.448-11.65l22.354 18.128a7.5 7.5 0 01-4.728 13.325z" fill="#2a428c"/><path d="M351.997 125.763a7.5 7.5 0 01-5.617-12.466l7.596-8.596a7.5 7.5 0 1111.24 9.932l-7.596 8.596a7.484 7.484 0 01-5.623 2.534z" fill="#112360"/><path d="M352 154.316a7.5 7.5 0 01-7.5-7.5v-28.553a7.5 7.5 0 0115 0v28.553a7.5 7.5 0 01-7.5 7.5z" fill="#1c2e7a"/><path d="M302.007 182.764a7.5 7.5 0 01-3.716-14.02l50-28.447a7.5 7.5 0 117.418 13.038l-50 28.447a7.467 7.467 0 01-3.702.982z" fill="#2a428c"/><path d="M401.376 261.739a7.473 7.473 0 01-3.52-.882l-10.34-5.508a7.5 7.5 0 117.053-13.239l10.34 5.508a7.5 7.5 0 01-3.533 14.121z" fill="#112360"/><path d="M391.043 256.231a7.504 7.504 0 01-7.036-4.901l-21.447-58.008a7.5 7.5 0 0114.07-5.202l21.447 58.008a7.5 7.5 0 01-7.034 10.103z" fill="#1c2e7a"/><path d="M369.596 198.221H302a7.5 7.5 0 010-15h67.595a7.5 7.5 0 01.001 15z" fill="#2a428c"/><path d="M345.942 337.833a7.474 7.474 0 01-5.303-2.197l-10-10a7.5 7.5 0 010-10.606 7.5 7.5 0 0110.606 0l10 10a7.5 7.5 0 01-5.303 12.803z" fill="#112360"/><path d="M335.937 327.835a7.5 7.5 0 01-6.75-10.759l30-62.234a7.5 7.5 0 0110.013-3.499 7.5 7.5 0 013.499 10.013l-30 62.234a7.504 7.504 0 01-6.762 4.245z" fill="#1c2e7a"/><path d="M365.941 265.598a7.476 7.476 0 01-5.22-2.115l-60-58.17a7.5 7.5 0 1110.441-10.769l60 58.17a7.5 7.5 0 01-5.221 12.884z" fill="#2a428c"/><path d="M324.355 113.72a7.5 7.5 0 01-7.5-7.5V89.667a7.5 7.5 0 0115 0v16.553a7.5 7.5 0 01-7.5 7.5z" fill="#1c2e7a"/><path d="M302.005 131.849a7.5 7.5 0 01-4.729-13.325l22.354-18.128a7.5 7.5 0 119.448 11.65l-22.354 18.128a7.465 7.465 0 01-4.719 1.675z" fill="#2a428c"/><path d="M302.001 108.263c-5.877 0-11 4-12.425 9.701l-7.575 30.299h40l-7.575-30.299a12.807 12.807 0 00-12.425-9.701z" fill="#1c2e7a"/><path d="M302.955 141.962h-1.909c-21.564 0-39.045 17.481-39.045 39.045h80c-.001-21.563-17.482-39.045-39.046-39.045z" fill="#3c58a0"/><path d="M321.595 146.692a38.867 38.867 0 00-18.641-4.73h-1.909c-21.564 0-39.045 17.481-39.045 39.046h39.191c0-14.813 8.249-27.699 20.404-34.316z" fill="#2a428c"/><path d="M302 285.263c-27.614 0-50-22.386-50-50v-50c0-5.523 4.477-10 10-10h80c5.523 0 10 4.477 10 10v50c0 27.614-22.386 50-50 50z" fill="#4b6bb2"/><path d="M279.645 235.263v-50c0-5.523 4.477-10 10-10H262c-5.523 0-10 4.477-10 10v50c0 27.614 22.386 50 50 50 4.797 0 9.431-.69 13.823-1.951-20.888-5.999-36.178-25.232-36.178-48.049z" fill="#3c58a0"/><circle cx="287.145" cy="127.462" fill="#4b6bb2" r="7.5"/><circle cx="316.856" cy="127.462" fill="#4b6bb2" r="7.5"/><circle cx="302" cy="227.763" fill="#3c58a0" r="7.5"/><path d="M324.501 205.263h-45a7.5 7.5 0 010-15h45a7.5 7.5 0 010 15z" fill="#3c58a0"/><g><path d="M219.404 302.489H159.43a171.085 171.085 0 0010.967 15h49.007a7.5 7.5 0 000-15z" fill="#73f9a9"/></g><g><path d="M404.472 204.183a7.5 7.5 0 007.5 7.5h60.007c.005-.561.021-1.12.021-1.683 0-4.481-.177-8.922-.519-13.317h-59.509a7.5 7.5 0 00-7.5 7.5z" fill="#73f9a9"/></g><g><path d="M448.371 296.365h-55.355a7.5 7.5 0 000 15h45.374a170.568 170.568 0 009.981-15z" fill="#73f9a9"/></g><g><path d="M422.116 142h-35.288a7.5 7.5 0 010-15h35.288a7.5 7.5 0 010 15z" fill="#73f9a9"/></g></svg>