<svg xmlns="http://www.w3.org/2000/svg" viewBox="0 0 512.001 512.001"><path d="M110.541 421.382c-16.633 0-31.355-1.509-44.021-4.524-23.522-5.598-38.627-16.101-44.897-31.212-16.079-38.754 33.904-89.735 78.665-125.68 25.878-20.78 43.932-38.408 53.66-52.393 6.699-9.631 9.197-17.294 6.851-21.021-6.602-10.49-50.955-6.852-89.018 11.389-13.649 6.541-27.378 8.234-39.7 4.9-11.934-3.229-21.547-10.993-27.068-21.861-7.903-15.553-6.408-35.495 4.103-54.712 11.903-21.766 34.911-42.26 66.534-59.269 37.029-19.915 78.983-30.852 118.274-30.852.39 0 .777.001 1.167.003 37.973.21 70.137 10.257 90.568 28.293 21.71 19.164 27.643 45.293 16.706 73.577-15.521 40.139-17.618 69.037-5.904 81.371 5.835 6.144 18.722 11.521 46.975 2.238a7.498 7.498 0 019.466 4.785 7.5 7.5 0 01-4.784 9.466c-35.709 11.73-53.715 3.125-62.533-6.159-16.393-17.26-15.454-49.933 2.79-97.111 8.63-22.319 4.259-42.002-12.643-56.921-17.456-15.409-46.879-24.352-80.725-24.539-.362-.002-.727-.003-1.09-.003-36.851 0-76.28 10.302-111.162 29.063-36.714 19.745-53.152 39.858-60.48 53.254-8.098 14.808-9.517 29.649-3.891 40.72 7.869 15.487 27.162 19.694 46.913 10.228 36.036-17.268 93.683-28.909 108.196-5.85 11.776 18.709-9.099 49.163-63.814 93.101-56.778 45.594-83.824 85.045-74.202 108.235 5.385 12.98 21.742 19.328 34.516 22.368 19.606 4.667 46.142 5.348 76.741 1.968 49.456-5.461 77.941-22.163 103.072-36.898 36.683-21.509 65.659-38.5 133.603-1.891a7.5 7.5 0 01-7.115 13.205c-60.517-32.606-83.743-18.988-118.9 1.625-25.117 14.727-56.377 33.055-109.013 38.867-13.517 1.494-26.151 2.239-37.84 2.24zm311.464-182.196l-85.78-85.781 34.576-34.578 85.782 85.782z" fill="#404b58"/><path d="M456.589 204.612l-85.785-85.785 46.318-46.318c12.125-12.125 31.782-12.125 43.908 0l41.878 41.878c12.125 12.125 12.125 31.782 0 43.908l-46.319 46.317z" fill="#ed718b"/><path fill="#fda75f" d="M422.003 239.187l-188.66 188.66-85.782-85.78 188.66-188.662z"/><path opacity=".05" d="M204.754 399.264l-28.596-28.596 188.66-188.66 28.597 28.595z"/><path d="M232.822 392.154l-17.855 4.52c-4.613 1.168-8.798-3.018-7.63-7.63l4.52-17.855c1.168-4.612-3.018-8.798-7.63-7.63l-17.855 4.52c-4.613 1.168-8.798-3.018-7.63-7.63l4.52-17.855c1.168-4.612-3.018-8.798-7.63-7.63l-28.071 7.107a90.205 90.205 0 00-21.645 34.826l-25.355 74.808c-4.856 14.329 8.822 28.007 23.151 23.151l74.808-25.355a90.197 90.197 0 0034.827-21.645l7.107-28.071c1.166-4.613-3.02-8.799-7.632-7.631z" fill="#fbe096"/><path d="M115.592 407.351l-15.033 44.354c-4.856 14.329 8.822 28.007 23.151 23.151l44.353-15.033-52.471-52.472z" fill="#404b58"/><path d="M502.907 114.386l-15.949-15.949c12.124 12.125 12.124 31.782 0 43.907l-46.318 46.318-34.578 34.578-188.667 188.668a90.19 90.19 0 01-34.826 21.645l-74.808 25.355c-2.756.934-5.487 1.177-8.068.866 1.303 10.835 12.446 19.005 24.017 15.083l74.808-25.355a90.197 90.197 0 0034.827-21.645L422.011 239.19l34.578-34.578 46.318-46.318c12.124-12.125 12.124-31.783 0-43.908z" opacity=".1"/></svg>