<svg xmlns="http://www.w3.org/2000/svg" viewBox="0 0 512 512"><path d="M345.605 171.482c-1.812-24.255-18.762-48.222-50.835-66.738-67.704-39.089-177.107-39.089-244.372.001C16.876 124.225.153 149.739.189 175.273c0-.082-.004-.164-.004-.246L0 240.023c-.074 25.78 16.942 51.598 51.011 71.267 32.073 18.518 73.51 28.255 115.383 29.227l.184-64.998c46.523 1.078 93.594-8.659 128.988-29.228 35.4-20.571 52.057-47.868 50.039-74.809z" fill="#f91"/><path d="M511.977 272.949c.509-26.101-16.492-52.323-50.99-72.24-32.073-18.518-73.504-28.257-115.383-29.227-46.517-1.081-93.589 8.656-128.988 29.229-35.395 20.569-52.053 47.866-50.039 74.81l-.184 64.998c1.816 24.252 18.763 48.222 50.835 66.738 67.704 39.089 177.112 39.085 244.372-.001 33.415-19.419 50.144-44.831 50.215-70.281l.185-64.997c-.001.323-.017.648-.023.971z" fill="#a258cb"/><path d="M166.231 335.992l.184-64.998c-.004 1.509.05 3.018.163 4.527l-.184 64.998a57.991 57.991 0 01-.163-4.527z" fill="#f91"/><path d="M0 240.023l.184-64.998c-.074 25.78 16.942 51.598 51.011 71.267 32.073 18.518 73.51 28.255 115.383 29.227l-.184 64.998c-41.874-.973-83.31-10.71-115.383-29.227C16.942 291.621-.072 265.803 0 240.023z" fill="#ff5023"/><path d="M294.77 104.743c32.073 18.518 49.025 42.484 50.835 66.738-46.517-1.081-93.589 8.656-128.988 29.228-35.395 20.569-52.053 47.866-50.039 74.81-41.874-.973-83.31-10.71-115.383-29.227-67.704-39.089-68.056-102.462-.796-141.549 67.263-39.088 176.667-39.089 244.371 0z" fill="#ff6342"/><path d="M345.605 171.482c2.018 26.942-14.638 54.239-50.039 74.81-35.395 20.569-82.465 30.307-128.988 29.228-2.014-26.944 14.643-54.242 50.039-74.81 35.399-20.572 82.47-30.309 128.988-29.228z" fill="#f91"/><path d="M512 271.977l-.184 64.998c-.073 25.451-16.8 50.861-50.215 70.281-67.259 39.086-176.668 39.09-244.372.001-32.073-18.518-49.019-42.487-50.835-66.738l.184-64.998c1.816 24.252 18.762 48.222 50.835 66.738 67.704 39.089 177.112 39.085 244.372-.001 33.416-19.419 50.143-44.831 50.215-70.281z" fill="#943ec7"/><path d="M460.988 200.709c67.704 39.089 68.06 102.459.796 141.549-67.259 39.086-176.668 39.09-244.372.001-32.073-18.518-49.019-42.487-50.835-66.738 46.523 1.078 93.594-8.659 128.988-29.228 35.399-20.572 52.057-47.869 50.039-74.81 41.88.969 83.311 10.709 115.384 29.226z" fill="#a258cb"/></svg>