<svg viewBox="0 0 512 512" xmlns="http://www.w3.org/2000/svg"><path d="M320 488H192l16-96v-32h96v32z" fill="#757c80"/><rect fill="#b5b8b9" height="368" rx="16" width="464" x="24" y="24"/><path d="M40 24h432a16 16 0 0116 16v48H24V40a16 16 0 0116-16z" fill="#2b70a8"/><path d="M24 88h464v224H24z" fill="#fae8d8"/><path d="M88 152h96v96H88z" fill="#fcb442"/><path d="M324.612 331.325l22.624-22.624 132.597 132.597a15.998 15.998 0 010 22.624 15.998 15.998 0 01-22.624 0L324.612 331.325z" fill="#2b70a8"/><path d="M288.623 295.32l22.624-22.625 66.784 66.784-22.624 22.624zM248 120h208v48H248z" fill="#fcb442"/><path d="M248 232l12.564 54.443a32 32 0 0023.419 23.849l26.242 6.561 22.628-22.628-6.561-26.242a32 32 0 00-23.849-23.419z" fill="#976048"/><path d="M496 376V40a24.028 24.028 0 00-24-24H40a24.028 24.028 0 00-24 24v336a24.028 24.028 0 0024 24h158.556l-13.333 80H152a8 8 0 000 16h208a8 8 0 000-16h-33.223l-13.333-80h68.613l69.589 69.589a24 24 0 0033.941 0 24.028 24.028 0 000-33.941L449.939 400H472a24.028 24.028 0 0024-24zm-174.459-59.144l11.313-11.314 33.94 33.94L355.48 350.8zm-13.765-8.862l-21.852-5.463a23.893 23.893 0 01-17.565-17.886l-9.686-41.972 41.972 9.686a23.893 23.893 0 0117.886 17.565l5.463 21.852zm32.3-17.855l-6.024-24.1a39.825 39.825 0 00-29.812-29.274l-54.44-12.56a8 8 0 00-9.594 9.594l12.564 54.443A40 40 0 00260.315 304H32V96h448v208H353.939zM40 32h432a8.009 8.009 0 018 8v40H32V40a8.009 8.009 0 018-8zm270.556 448H201.444l13.333-80h82.446zM40 384a8.009 8.009 0 01-8-8v-56h257.828l16.306 4.076L366.057 384zm434.273 74.275a8 8 0 01-11.314 0l-96.165-96.165 11.314-11.31 96.165 96.165a8.01 8.01 0 010 11.31zM369.939 320H480v56a8.009 8.009 0 01-8 8h-38.061z"/><path d="M272 336h-32a8 8 0 000 16h32a8 8 0 000-16z"/><circle cx="56" cy="56" r="8"/><circle cx="88" cy="56" r="8"/><circle cx="120" cy="56" r="8"/><path d="M104 128h16a8 8 0 000-16h-16a8 8 0 000 16zm48 0h16a8 8 0 000-16h-16a8 8 0 000 16zM72 272h-8v-8a8 8 0 00-16 0v16a8 8 0 008 8h16a8 8 0 000-16zm48 0h-16a8 8 0 000 16h16a8 8 0 000-16zm48 0h-16a8 8 0 000 16h16a8 8 0 000-16zm48-160h-16a8 8 0 000 16h8v8a8 8 0 0016 0v-16a8 8 0 00-8-8zm0 48a8 8 0 00-8 8v16a8 8 0 0016 0v-16a8 8 0 00-8-8zm0 48a8 8 0 00-8 8v16a8 8 0 0016 0v-16a8 8 0 00-8-8zm0 48a8 8 0 00-8 8v8h-8a8 8 0 000 16h16a8 8 0 008-8v-16a8 8 0 00-8-8zM56 144a8 8 0 008-8v-8h8a8 8 0 000-16H56a8 8 0 00-8 8v16a8 8 0 008 8zm0 48a8 8 0 008-8v-16a8 8 0 00-16 0v16a8 8 0 008 8zm0 48a8 8 0 008-8v-16a8 8 0 00-16 0v16a8 8 0 008 8zm240-48h-48a8 8 0 000 16h48a8 8 0 000-16zm160 0H328a8 8 0 000 16h128a8 8 0 000-16zm0 32H344a8 8 0 000 16h112a8 8 0 000-16zm0-112H248a8 8 0 00-8 8v48a8 8 0 008 8h208a8 8 0 008-8v-48a8 8 0 00-8-8zm-8 48H256v-32h192zm-256-8a8 8 0 00-8-8H88a8 8 0 00-8 8v96a8 8 0 008 8h96a8 8 0 008-8zm-16 88H96v-80h80z"/></svg>