<svg viewBox="0 0 512 512" xmlns="http://www.w3.org/2000/svg"><path d="M320 488H192l16-96v-32h96v32z" fill="#757c80"/><rect fill="#b5b8b9" height="368" rx="16" width="464" x="24" y="24"/><path d="M40 24h432a16 16 0 0116 16v48H24V40a16 16 0 0116-16z" fill="#2b70a8"/><path d="M344 488H168a8 8 0 010-16h176a8 8 0 010 16z" fill="#99a2a7"/><path d="M272 352h-32a8 8 0 010-16h32a8 8 0 010 16z" fill="#757c80"/><circle cx="56" cy="56" fill="#b01641" r="8"/><circle cx="88" cy="56" fill="#fcb442" r="8"/><circle cx="120" cy="56" fill="#8e9c4c" r="8"/><path d="M24 88h464v224H24z" fill="#fae8d8"/><g fill="#e2d2c2"><path d="M120 128h-16a8 8 0 010-16h16a8 8 0 010 16zM168 128h-16a8 8 0 010-16h16a8 8 0 010 16zM120 288h-16a8 8 0 010-16h16a8 8 0 010 16zM168 288h-16a8 8 0 010-16h16a8 8 0 010 16zM216 192a8 8 0 01-8-8v-16a8 8 0 0116 0v16a8 8 0 01-8 8zM216 240a8 8 0 01-8-8v-16a8 8 0 0116 0v16a8 8 0 01-8 8zM56 192a8 8 0 01-8-8v-16a8 8 0 0116 0v16a8 8 0 01-8 8zM56 240a8 8 0 01-8-8v-16a8 8 0 0116 0v16a8 8 0 01-8 8zM72 112H56a8 8 0 00-8 8v16a8 8 0 0016 0v-8h8a8 8 0 000-16zM72 272h-8v-8a8 8 0 00-16 0v16a8 8 0 008 8h16a8 8 0 000-16zM216 112h-16a8 8 0 000 16h8v8a8 8 0 0016 0v-16a8 8 0 00-8-8zM216 256a8 8 0 00-8 8v8h-8a8 8 0 000 16h16a8 8 0 008-8v-16a8 8 0 00-8-8z"/></g><path d="M88 152h96v96H88z" fill="#fcb442"/><path d="M296 208h-48a8 8 0 010-16h48a8 8 0 010 16zM456 208H328a8 8 0 010-16h128a8 8 0 010 16zM456 240H344a8 8 0 010-16h112a8 8 0 010 16z" fill="#e2d2c2"/><path d="M324.612 331.325l22.624-22.624 132.597 132.597a15.998 15.998 0 010 22.624 15.998 15.998 0 01-22.624 0L324.612 331.325z" fill="#2b70a8"/><path d="M288.623 295.32l22.624-22.625 66.784 66.784-22.624 22.624zM248 120h208v48H248z" fill="#fcb442"/><path d="M248 232l12.564 54.443a32 32 0 0023.419 23.849l26.242 6.561 22.628-22.628-6.561-26.242a32 32 0 00-23.849-23.419z" fill="#976048"/></svg>