<svg viewBox="1 -69 511.999 511" xmlns="http://www.w3.org/2000/svg"><path d="M183.137 22.29v32.956H60.89V22.29C60.89 10.254 70.648.5 82.68.5h78.668c12.035 0 21.789 9.754 21.789 21.79zm0 0" fill="#302e4f"/><path d="M0 60.758v275.785c0 19.922 16.152 36.074 36.074 36.074h439.852c19.922 0 36.074-16.152 36.074-36.074V60.758c0-19.922-16.152-36.074-36.074-36.074H36.074C16.152 24.684 0 40.836 0 60.758zm0 0" fill="#565574"/><path d="M406.977 55.246H109.734c-14.855 0-26.902 12.047-26.902 26.914v232.98a26.791 26.791 0 009.309 20.348 26.738 26.738 0 0017.593 6.57h297.243c14.87 0 26.918-12.058 26.918-26.917V82.16c0-4.638-1.168-8.997-3.239-12.798-4.547-8.414-13.437-14.117-23.68-14.117zm0 0" fill="#8fd4ef"/><path d="M490.32 198.652c0 8.653-7.015 15.672-15.672 15.672s-15.671-7.02-15.671-15.672c0-8.656 7.015-15.675 15.671-15.675s15.672 7.02 15.672 15.675zm-452.941 35a7.835 7.835 0 01-7.836-7.836v-81.5a7.835 7.835 0 017.836-7.836 7.836 7.836 0 017.84 7.836v81.5a7.839 7.839 0 01-7.84 7.836zm0 27.164c-7.016 0-10.461-8.953-5.262-13.644 2.59-2.34 6.5-2.672 9.45-.813 2.71 1.711 4.124 5 3.492 8.145-.723 3.61-3.985 6.312-7.68 6.312zm0 0" fill="#302e4f"/><path d="M433.898 302.02v13.12c0 14.86-12.05 26.919-26.918 26.919H178.672l57.793-76.079 85.031-111.96zm0 0" fill="#fecf77"/><path d="M236.473 265.977l-57.793 76.078h-68.934a26.738 26.738 0 01-17.594-6.57 26.792 26.792 0 01-9.312-20.344v-8.454l92.277-121.492zm0 0" fill="#ed9e27"/><path d="M225.7 121.012c0 20.195-16.372 36.57-36.571 36.57-20.195 0-36.57-16.375-36.57-36.57 0-20.2 16.375-36.575 36.57-36.575 20.2 0 36.57 16.376 36.57 36.575zm0 0" fill="#fecf77"/><path d="M406.977 349.895H109.734A34.653 34.653 0 0187 341.402a34.66 34.66 0 01-12.008-26.257V82.165c0-19.165 15.586-34.755 34.742-34.755h297.243a34.72 34.72 0 0130.574 18.227c2.73 5.023 4.18 10.746 4.18 16.527v232.98c0 19.16-15.59 34.75-34.754 34.75zM109.734 63.082c-10.511 0-19.066 8.559-19.066 19.082v232.98a19.022 19.022 0 006.59 14.41 19.02 19.02 0 0012.476 4.669h297.243c10.523 0 19.082-8.559 19.082-19.078V82.165c0-3.224-.77-6.27-2.286-9.06a19.073 19.073 0 00-16.793-10.023zm0 0" fill="#302e4f"/></svg>