<svg viewBox="1 -69 511.99896 511"
  xmlns="http://www.w3.org/2000/svg">
  <path d="m183.136719 22.289062v32.957032h-122.246094v-32.957032c0-12.035156 9.757813-21.789062 21.789063-21.789062h78.667968c12.035156 0 21.789063 9.753906 21.789063 21.789062zm0 0" fill="#302e4f"/>
  <path d="m0 60.757812v275.785157c0 19.921875 16.152344 36.074219 36.074219 36.074219h439.851562c19.921875 0 36.074219-16.152344 36.074219-36.074219v-275.785157c0-19.921874-16.152344-36.074218-36.074219-36.074218h-439.851562c-19.921875 0-36.074219 16.152344-36.074219 36.074218zm0 0" fill="#565574"/>
  <path d="m406.976562 55.246094h-297.242187c-14.855469 0-26.902344 12.046875-26.902344 26.914062v232.980469c0 8.132813 3.601563 15.425781 9.308594 20.347656 4.710937 4.09375 10.867187 6.570313 17.59375 6.570313h297.242187c14.871094 0 26.917969-12.058594 26.917969-26.917969v-232.980469c0-4.636718-1.167969-8.996094-3.238281-12.796875-4.546875-8.414062-13.4375-14.117187-23.679688-14.117187zm0 0" fill="#8fd4ef"/>
  <g fill="#302e4f">
    <path d="m490.320312 198.652344c0 8.652344-7.015624 15.671875-15.671874 15.671875s-15.671876-7.019531-15.671876-15.671875c0-8.65625 7.015626-15.675782 15.671876-15.675782s15.671874 7.019532 15.671874 15.675782zm0 0"/>
    <path d="m37.378906 233.652344c-4.328125 0-7.835937-3.507813-7.835937-7.835938v-81.5c0-4.328125 3.507812-7.835937 7.835937-7.835937 4.332032 0 7.839844 3.507812 7.839844 7.835937v81.5c0 4.328125-3.511719 7.835938-7.839844 7.835938zm0 0"/>
    <path d="m37.378906 260.816406c-7.015625 0-10.460937-8.953125-5.261718-13.644531 2.589843-2.339844 6.5-2.671875 9.449218-.8125 2.710938 1.710937 4.125 5 3.492188 8.144531-.722656 3.609375-3.984375 6.3125-7.679688 6.3125zm0 0"/>
  </g>
  <path d="m433.898438 302.019531v13.121094c0 14.859375-12.050782 26.917969-26.917969 26.917969h-228.308594l57.792969-76.078125 85.03125-111.960938zm0 0" fill="#fecf77"/>
  <path d="m236.472656 265.976562-57.792968 76.078126h-68.933594c-6.726563 0-12.882813-2.476563-17.59375-6.570313-5.707032-4.921875-9.3125-12.214844-9.3125-20.34375v-8.453125l92.277344-121.492188zm0 0" fill="#ed9e27"/>
  <path d="m225.699219 121.011719c0 20.195312-16.371094 36.570312-36.570313 36.570312-20.195312 0-36.570312-16.375-36.570312-36.570312 0-20.199219 16.375-36.574219 36.570312-36.574219 20.199219 0 36.570313 16.375 36.570313 36.574219zm0 0" fill="#fecf77"/>
  <path d="m406.976562 349.894531h-297.242187c-8.359375 0-16.433594-3.015625-22.734375-8.492187-7.621094-6.574219-12.007812-16.152344-12.007812-26.257813v-232.980469c0-19.164062 15.585937-34.753906 34.742187-34.753906h297.242187c12.78125 0 24.496094 6.984375 30.574219 18.226563 2.730469 5.023437 4.179688 10.746093 4.179688 16.527343v232.980469c0 19.160157-15.589844 34.75-34.753907 34.75zm-297.242187-286.8125c-10.511719 0-19.066406 8.558594-19.066406 19.082031v232.980469c0 5.542969 2.402343 10.792969 6.589843 14.410157 3.472657 3.015624 7.898438 4.667968 12.476563 4.667968h297.242187c10.523438 0 19.082032-8.558594 19.082032-19.078125v-232.980469c0-3.222656-.769532-6.269531-2.285156-9.058593-3.347657-6.1875-9.777344-10.023438-16.792969-10.023438zm0 0" fill="#302e4f"/>
</svg>
