<svg xmlns="http://www.w3.org/2000/svg" viewBox="0 0 480 480"><path d="M408 480H72c-8.837 0-16-7.163-16-16V16c0-8.837 7.163-16 16-16h264l88 88v376c0 8.837-7.163 16-16 16z" fill="#78b9eb"/><path d="M336 0v72c0 8.837 7.163 16 16 16h72L336 0z" fill="#679fc9"/><path d="M104 48h16v16h-16V48zm32 0h160v16H136V48zm-32 32h192v16H104V80z" fill="#fff"/><path d="M112 128h256a8 8 0 018 8v160a8 8 0 01-8 8H112a8 8 0 01-8-8V136a8 8 0 018-8z" fill="#ffeb99"/><path d="M112 336h88a8 8 0 018 8v80a8 8 0 01-8 8h-88a8 8 0 01-8-8v-80a8 8 0 018-8z" fill="#ffda44"/><path d="M224 336h16v16h-16v-16zm32 0h120v16H256v-16zm-32 32h152v16H224v-16zm0 32h152v16H224v-16z" fill="#fff"/></svg>