<svg viewBox="0 0 512 512" xmlns="http://www.w3.org/2000/svg"><path d="M360.626 487.468H43.671c-10.272 0-18.599-8.327-18.599-18.599V18.599C25.072 8.327 33.399 0 43.671 0h316.956c10.272 0 18.599 8.327 18.599 18.599V468.87c-.001 10.271-8.328 18.598-18.6 18.598z" fill="#c8effe"/><path d="M360.626 0h-31.48c10.272 0 18.599 8.327 18.599 18.599v450.27c0 10.272-8.327 18.599-18.599 18.599h31.48c10.272 0 18.599-8.327 18.599-18.599V18.599C379.225 8.327 370.898 0 360.626 0z" fill="#b3dafe"/><path d="M373.015 322.526V304.8a8.206 8.206 0 00-8.206-8.206h-29.746a8.206 8.206 0 00-8.206 8.206v17.725a84.4 84.4 0 00-18.415 7.639L295.9 317.623a8.205 8.205 0 00-11.605 0l-21.034 21.034a8.205 8.205 0 000 11.605l12.541 12.541a84.4 84.4 0 00-7.639 18.415h-17.725a8.206 8.206 0 00-8.206 8.206v29.746a8.206 8.206 0 008.206 8.206h17.725a84.359 84.359 0 007.639 18.415l-12.541 12.541a8.205 8.205 0 000 11.605l17.53 17.53h18.612l9.038-9.038a84.4 84.4 0 0018.415 7.639v1.399h33.77c10.272 0 18.599-8.327 18.599-18.599v-144.32a83.195 83.195 0 00-6.21-2.022z" fill="#b3dafe"/><path d="M56.552 166.499V43.929a9.299 9.299 0 019.299-9.299h126.998a9.299 9.299 0 019.299 9.299V166.5a9.299 9.299 0 01-9.299 9.299H65.852a9.3 9.3 0 01-9.3-9.3z" fill="#f47c7c"/><path d="M347.745 211.245v76.05a9.299 9.299 0 01-9.299 9.299H233.831a9.299 9.299 0 01-9.299-9.299v-76.05a9.299 9.299 0 019.299-9.299h104.614a9.3 9.3 0 019.3 9.299z" fill="#5f99d7"/><path d="M478.722 381.218h-17.725a84.4 84.4 0 00-7.639-18.415l12.541-12.541a8.205 8.205 0 000-11.605l-21.034-21.034a8.205 8.205 0 00-11.605 0l-12.541 12.541a84.4 84.4 0 00-18.415-7.639V304.8a8.206 8.206 0 00-8.206-8.206h-29.746a8.206 8.206 0 00-8.206 8.206v17.725a84.4 84.4 0 00-18.415 7.639l-12.541-12.541a8.205 8.205 0 00-11.605 0l-21.034 21.034a8.205 8.205 0 000 11.605l12.541 12.541a84.4 84.4 0 00-7.639 18.415h-17.725a8.206 8.206 0 00-8.206 8.206v29.747a8.206 8.206 0 008.206 8.206h17.725a84.359 84.359 0 007.639 18.415l-12.541 12.541a8.205 8.205 0 000 11.605l21.034 21.034a8.207 8.207 0 0011.605 0l12.541-12.541a84.4 84.4 0 0018.415 7.639v17.725a8.206 8.206 0 008.206 8.206h29.746a8.206 8.206 0 008.206-8.206V486.07a84.4 84.4 0 0018.415-7.639l12.541 12.541a8.207 8.207 0 0011.605 0l21.034-21.034a8.205 8.205 0 000-11.605l-12.541-12.541a84.4 84.4 0 007.639-18.415h17.725a8.206 8.206 0 008.206-8.206v-29.747a8.206 8.206 0 00-8.206-8.206z" fill="#537983"/><circle cx="379.225" cy="404.297" fill="#c8effe" r="36.607"/><path d="M478.722 381.218h-17.725a84.4 84.4 0 00-7.639-18.415l12.541-12.541a8.205 8.205 0 000-11.605l-21.034-21.034a8.205 8.205 0 00-11.605 0l-8.842 8.842 12.192 12.191a8.207 8.207 0 010 11.605l-12.541 12.541a84.4 84.4 0 017.639 18.415h17.725a8.206 8.206 0 018.206 8.206v29.746a8.206 8.206 0 01-8.206 8.206h-17.725a84.359 84.359 0 01-7.639 18.415l12.541 12.541a8.207 8.207 0 010 11.605l-12.192 12.192 8.842 8.842a8.207 8.207 0 0011.605 0l21.034-21.034a8.205 8.205 0 000-11.605l-12.541-12.541a84.428 84.428 0 007.639-18.415h17.725a8.206 8.206 0 008.206-8.206v-29.746a8.206 8.206 0 00-8.206-8.205z" fill="#3e5959"/><path d="M379.225 367.69c-4.097 0-8.035.687-11.716 1.934 14.455 4.898 24.892 18.585 24.892 34.673s-10.437 29.775-24.892 34.673a36.445 36.445 0 0011.716 1.934c20.185 0 36.607-16.422 36.607-36.607s-16.422-36.607-36.607-36.607z" fill="#b3dafe"/><path d="M339.995 75.942H232.281a7.75 7.75 0 010-15.498h107.714a7.75 7.75 0 010 15.498zM339.995 112.194H232.281a7.75 7.75 0 010-15.498h107.714a7.75 7.75 0 010 15.498zM339.995 148.446H232.281a7.75 7.75 0 010-15.498h107.714a7.75 7.75 0 010 15.498zM223.913 350.765H64.303a7.75 7.75 0 010-15.499h159.61a7.75 7.75 0 017.749 7.749 7.749 7.749 0 01-7.749 7.75zM172.016 275.146H64.302a7.75 7.75 0 010-15.498h107.714a7.75 7.75 0 010 15.498zM172.016 238.894H64.302a7.75 7.75 0 010-15.498h107.714a7.75 7.75 0 010 15.498zM223.913 384.228H64.303a7.75 7.75 0 010-15.498h159.61a7.75 7.75 0 010 15.498z" fill="#3e5959"/><g><path d="M223.913 417.691H64.303a7.75 7.75 0 010-15.499h159.61a7.75 7.75 0 017.749 7.749 7.748 7.748 0 01-7.749 7.75z" fill="#3e5959"/></g><g><path d="M223.913 452.839H64.303a7.75 7.75 0 010-15.498h159.61a7.75 7.75 0 010 15.498z" fill="#3e5959"/></g></svg>