<svg xmlns="http://www.w3.org/2000/svg" viewBox="0 0 480 480"><path d="M371.944 158.896L239.976 81.264 106.6 158.8l-8.048-13.832 137.424-79.88a7.981 7.981 0 018.08.024l136 80-8.112 13.784zM161.752 301L104 228.808 46.248 301l-12.496-9.992 64-80c3.048-3.8 9.456-3.8 12.496 0l64 80L161.752 301zM160 360h16v48h-16zm273.752-59L376 228.808 318.248 301l-12.496-9.992 64-80c3.048-3.8 9.456-3.8 12.496 0l64 80L433.752 301zM304 360h16v48h-16zm128 0h16v48h-16zm-400 0h16v48H32z" fill="#666"/><path fill="#ff9f1c" d="M80 400H0v80h80z"/><path fill="#ffbf69" d="M128 480h80v-80h-80z"/><path fill="#60c4c2" d="M272 480h80v-80h-80z"/><path fill="#cbf3f0" d="M400 480h80v-80h-80z"/><path fill="#ff9f1c" d="M80 288H0v80h80z"/><path fill="#ffbf69" d="M128 368h80v-80h-80z"/><path fill="#ff9f1c" d="M144 144H64v80h80z"/><path fill="#e8eded" d="M239.8 72h.4l-.2-.12z"/><path d="M280 0h-80v80h39.752l.248-.144.248.144H280zm136 144h-80v80h80zM272 368h80v-80h-80z" fill="#60c4c2"/><path fill="#cbf3f0" d="M400 288v80h80v-80h-40z"/></svg>