<?xml version="1.0" standalone="no"?>
<!DOCTYPE svg PUBLIC "-//W3C//DTD SVG 20010904//EN"
 "http://www.w3.org/TR/2001/REC-SVG-20010904/DTD/svg10.dtd">
<svg version="1.0"
  xmlns="http://www.w3.org/2000/svg" width="358.591884pt" height="388.801947pt" viewBox="0 0 358.591884 388.801947" preserveAspectRatio="xMidYMid meet">
  <metadata>
Created by potrace 1.12, written by Peter Selinger 2001-2015
  </metadata>
  <g transform="translate(-0.670956,390.496619) scale(0.100000,-0.100000)" fill="#000000" stroke="none">
    <path fill="#47848F" d="M1747 3899 c-78 -18 -143 -74 -173 -145 -20 -48 -17 -151 5 -199 40
-90 160 -155 254 -140 60 10 134 53 166 97 l28 38 59 -44 c260 -194 456 -626
537 -1186 29 -202 31 -688 4 -890 -21 -154 -58 -334 -87 -430 -31 -102 -24
-140 27 -140 34 0 48 30 86 185 173 692 107 1536 -163 2091 -100 206 -260 404
-386 478 -48 28 -51 33 -62 90 -15 79 -55 134 -123 168 -63 31 -119 40 -172
27z m123 -111 c104 -54 107 -196 4 -255 -62 -36 -122 -27 -177 25 -74 71 -45
202 53 241 40 16 73 13 120 -11z"/>
    <path fill="#47848F" d="M740 3093 c-166 -18 -355 -100 -453 -197 -174 -171 -203 -413 -86
-711 67 -170 114 -226 157 -183 20 20 14 50 -28 133 -22 44 -53 116 -67 160
-24 70 -27 96 -28 210 0 129 0 131 34 200 68 138 210 235 403 276 119 25 349
27 495 5 56 -9 109 -13 117 -10 33 13 31 78 -2 88 -84 27 -405 44 -542 29z"/>
    <path fill="#47848F" d="M2672 3088 c-18 -18 -15 -66 6 -76 9 -5 60 -12 112 -15 330 -21 545
-177 579 -422 29 -201 -78 -473 -290 -741 -56 -70 -63 -108 -25 -125 32 -15
45 -6 107 71 241 299 355 639 294 875 -47 180 -183 315 -389 386 -137 47 -366
75 -394 47z"/>
    <path fill="#47848F" d="M2130 3020 c-711 -193 -1426 -678 -1781 -1208 -132 -197 -204 -385
-216 -559 -6 -90 -7 -94 -39 -118 -18 -14 -45 -50 -60 -80 -63 -129 -15 -273
111 -331 89 -42 192 -30 263 32 165 141 85 406 -128 431 l-53 6 6 77 c3 50 17
112 39 177 202 591 1018 1235 1864 1473 59 16 116 30 126 30 21 0 58 34 58 54
0 23 -29 46 -58 45 -15 0 -74 -13 -132 -29z m-1810 -1945 c89 -46 105 -168 30
-240 -40 -39 -128 -47 -177 -16 -125 79 -69 271 80 271 21 0 51 -7 67 -15z"/>
    <path fill="#47848F" d="M1749 2030 c-60 -18 -106 -72 -123 -143 -24 -103 100 -224 207 -202
80 17 147 98 147 176 0 40 -29 107 -56 131 -46 41 -117 56 -175 38z"/>
    <path fill="#47848F" d="M552 1728 c-32 -32 -14 -62 101 -175 136 -135 179 -172 327 -282 341
-254 761 -462 1134 -561 230 -61 356 -79 562 -81 192 -2 307 18 449 78 79 33
80 33 115 16 19 -9 62 -19 96 -21 191 -13 315 178 229 354 -100 205 -406 163
-456 -62 -10 -46 -10 -63 5 -115 9 -34 15 -63 14 -65 -2 -1 -25 -12 -51 -23
-183 -79 -464 -88 -773 -26 -566 114 -1189 457 -1621 892 -80 81 -107 95 -131
71z m2879 -661 c44 -30 74 -100 65 -153 -15 -77 -106 -133 -183 -112 -127 34
-151 200 -40 268 45 28 115 26 158 -3z"/>
    <path fill="#47848F" d="M1029 837 c-9 -21 -5 -40 26 -118 84 -212 181 -367 314 -499 145
-145 274 -204 441 -203 180 1 356 100 500 282 91 115 124 174 111 200 -12 22
-41 34 -62 26 -8 -3 -39 -43 -69 -88 -66 -99 -176 -210 -255 -257 -63 -37
-166 -69 -230 -69 -164 -3 -360 128 -496 333 -72 107 -98 156 -159 301 -44
105 -47 110 -78 113 -26 3 -34 -1 -43 -21z"/>
  </g>
</svg>
