<svg version="1.0" xmlns="http://www.w3.org/2000/svg" viewBox="0 0 358.592 388.802"><g fill="#47848F"><path d="M174.029.597c-7.8 1.8-14.3 7.4-17.3 14.5-2 4.8-1.7 15.1.5 19.9 4 9 16 15.5 25.4 14 6-1 13.4-5.3 16.6-9.7l2.8-3.8 5.9 4.4c26 19.4 45.6 62.6 53.7 118.6 2.9 20.2 3.1 68.8.4 89-2.1 15.4-5.8 33.4-8.7 43-3.1 10.2-2.4 14 2.7 14 3.4 0 4.8-3 8.6-18.5 17.3-69.2 10.7-153.6-16.3-209.1-10-20.6-26-40.4-38.6-47.8-4.8-2.8-5.1-3.3-6.2-9-1.5-7.9-5.5-13.4-12.3-16.8-6.3-3.1-11.9-4-17.2-2.7zm12.3 11.1c10.4 5.4 10.7 19.6.4 25.5-6.2 3.6-12.2 2.7-17.7-2.5-7.4-7.1-4.5-20.2 5.3-24.1 4-1.6 7.3-1.3 12 1.1zM73.329 81.197c-16.6 1.8-35.5 10-45.3 19.7-17.4 17.1-20.3 41.3-8.6 71.1 6.7 17 11.4 22.6 15.7 18.3 2-2 1.4-5-2.8-13.3-2.2-4.4-5.3-11.6-6.7-16-2.4-7-2.7-9.6-2.8-21 0-12.9 0-13.1 3.4-20 6.8-13.8 21-23.5 40.3-27.6 11.9-2.5 34.9-2.7 49.5-.5 5.6.9 10.9 1.3 11.7 1 3.3-1.3 3.1-7.8-.2-8.8-8.4-2.7-40.5-4.4-54.2-2.9zM266.529 81.697c-1.8 1.8-1.5 6.6.6 7.6.9.5 6 1.2 11.2 1.5 33 2.1 54.5 17.7 57.9 42.2 2.9 20.1-7.8 47.3-29 74.1-5.6 7-6.3 10.8-2.5 12.5 3.2 1.5 4.5.6 10.7-7.1 24.1-29.9 35.5-63.9 29.4-87.5-4.7-18-18.3-31.5-38.9-38.6-13.7-4.7-36.6-7.5-39.4-4.7z"/><path d="M212.329 88.497c-71.1 19.3-142.6 67.8-178.1 120.8-13.2 19.7-20.4 38.5-21.6 55.9-.6 9-.7 9.4-3.9 11.8-1.8 1.4-4.5 5-6 8-6.3 12.9-1.5 27.3 11.1 33.1 8.9 4.2 19.2 3 26.3-3.2 16.5-14.1 8.5-40.6-12.8-43.1l-5.3-.6.6-7.7c.3-5 1.7-11.2 3.9-17.7 20.2-59.1 101.8-123.5 186.4-147.3 5.9-1.6 11.6-3 12.6-3 2.1 0 5.8-3.4 5.8-5.4 0-2.3-2.9-4.6-5.8-4.5-1.5 0-7.4 1.3-13.2 2.9zm-181 194.5c8.9 4.6 10.5 16.8 3 24-4 3.9-12.8 4.7-17.7 1.6-12.5-7.9-6.9-27.1 8-27.1 2.1 0 5.1.7 6.7 1.5zM174.229 187.497c-6 1.8-10.6 7.2-12.3 14.3-2.4 10.3 10 22.4 20.7 20.2 8-1.7 14.7-9.8 14.7-17.6 0-4-2.9-10.7-5.6-13.1-4.6-4.1-11.7-5.6-17.5-3.8z"/><path d="M54.529 217.697c-3.2 3.2-1.4 6.2 10.1 17.5 13.6 13.5 17.9 17.2 32.7 28.2 34.1 25.4 76.1 46.2 113.4 56.1 23 6.1 35.6 7.9 56.2 8.1 19.2.2 30.7-1.8 44.9-7.8 7.9-3.3 8-3.3 11.5-1.6 1.9.9 6.2 1.9 9.6 2.1 19.1 1.3 31.5-17.8 22.9-35.4-10-20.5-40.6-16.3-45.6 6.2-1 4.6-1 6.3.5 11.5.9 3.4 1.5 6.3 1.4 6.5-.2.1-2.5 1.2-5.1 2.3-18.3 7.9-46.4 8.8-77.3 2.6-56.6-11.4-118.9-45.7-162.1-89.2-8-8.1-10.7-9.5-13.1-7.1zm287.9 66.1c4.4 3 7.4 10 6.5 15.3-1.5 7.7-10.6 13.3-18.3 11.2-12.7-3.4-15.1-20-4-26.8 4.5-2.8 11.5-2.6 15.8.3zM102.229 306.797c-.9 2.1-.5 4 2.6 11.8 8.4 21.2 18.1 36.7 31.4 49.9 14.5 14.5 27.4 20.4 44.1 20.3 18-.1 35.6-10 50-28.2 9.1-11.5 12.4-17.4 11.1-20-1.2-2.2-4.1-3.4-6.2-2.6-.8.3-3.9 4.3-6.9 8.8-6.6 9.9-17.6 21-25.5 25.7-6.3 3.7-16.6 6.9-23 6.9-16.4.3-36-12.8-49.6-33.3-7.2-10.7-9.8-15.6-15.9-30.1-4.4-10.5-4.7-11-7.8-11.3-2.6-.3-3.4.1-4.3 2.1z"/></g></svg>