<!DOCTYPE svg PUBLIC "-//W3C//DTD SVG 20010904//EN" "http://www.w3.org/TR/2001/REC-SVG-20010904/DTD/svg10.dtd">
<svg version="1.0" xmlns="http://www.w3.org/2000/svg" width="1028px" height="1028px" viewBox="0 0 10280 10280" preserveAspectRatio="xMidYMid meet">
<g id="layer101" fill="#282828" stroke="none">
<path d="M860 10271 c0 -8 120 -210 191 -319 19 -30 59 -93 90 -140 30 -48 74 -120 98 -160 23 -40 79 -110 125 -158 l83 -85 -111 -188 c-116 -197 -252 -457 -262 -503 -6 -25 -1 -29 73 -66 43 -21 94 -45 113 -52 19 -7 41 -18 49 -24 8 -6 37 -16 65 -22 28 -7 139 -34 246 -62 400 -104 809 -182 1080 -206 74 -6 131 -14 125 -18 -59 -37 -458 -119 -670 -139 -135 -12 -352 -7 -447 11 -60 12 -85 6 -93 -20 -10 -30 19 -74 132 -198 116 -128 123 -134 233 -227 104 -88 380 -380 368 -390 -7 -6 -304 50 -510 96 -105 23 -181 25 -198 5 -15 -20 -5 -38 51 -84 131 -111 395 -387 493 -516 48 -63 109 -184 141 -280 23 -67 55 -202 55 -228 0 -14 -15 -9 -158 56 -158 72 -395 160 -497 185 -44 11 -133 27 -197 36 -99 13 -122 14 -145 3 -56 -27 -46 -42 171 -266 257 -266 358 -387 470 -565 144 -230 176 -285 239 -415 32 -67 63 -124 67 -127 4 -3 0 -27 -10 -53 -84 -222 -191 -759 -235 -1182 -9 -85 -25 -229 -35 -320 -46 -392 -49 -688 -11 -968 50 -356 177 -718 326 -927 271 -380 591 -660 860 -754 32 -12 67 -18 77 -15 20 6 22 -7 19 -116 -5 -134 40 -281 124 -401 56 -81 203 -229 272 -275 201 -133 441 -184 871 -184 274 0 376 10 702 66 476 82 737 166 1210 392 411 195 983 600 1293 916 387 393 512 540 633 743 73 122 271 509 334 653 23 52 84 185 135 295 206 444 286 627 280 646 -17 52 -70 17 -343 -228 -299 -268 -520 -494 -663 -678 -92 -119 -167 -201 -175 -193 -3 4 50 116 118 250 173 338 269 611 325 923 28 159 25 537 -6 710 -53 302 -185 591 -449 983 l-70 103 19 87 c77 351 260 716 582 1161 53 73 97 141 97 151 0 40 -77 40 -197 1 -123 -41 -190 -71 -323 -150 -205 -123 -293 -170 -301 -165 -13 8 -11 61 6 133 22 90 83 242 168 417 l74 150 169 136 c93 75 239 201 325 281 134 126 158 154 179 203 38 93 53 87 -303 110 -55 3 -95 10 -90 14 8 8 440 217 623 301 47 22 96 46 110 54 14 8 61 36 106 61 107 61 275 175 287 195 15 25 -7 54 -115 150 -51 46 -145 131 -208 191 l-114 108 50 52 c177 183 290 361 400 632 51 126 89 358 64 396 -8 13 -503 15 -4335 18 -2464 1 -4325 -2 -4325 -7z"/>
</g>
<g id="layer102" fill="#734574" stroke="none">
<path d="M1008 10273 c-21 -2 -38 -7 -38 -11 0 -13 110 -233 147 -295 71 -119 146 -237 149 -237 3 0 -3 17 -12 38 -90 207 -174 443 -174 487 0 18 -5 25 -17 23 -10 -1 -35 -3 -55 -5z"/>
<path d="M2099 10233 c-58 -83 -396 -524 -466 -611 -38 -46 -80 -107 -94 -135 -28 -56 -93 -166 -169 -287 -70 -111 -237 -425 -245 -460 -7 -30 -5 -31 70 -66 43 -20 81 -32 85 -27 4 4 13 30 19 56 15 61 147 371 212 497 27 52 78 142 113 200 36 58 97 158 137 223 82 135 108 170 269 357 109 127 172 208 213 273 l17 27 -63 0 -64 0 -34 -47z"/>
<path d="M2251 10193 c-33 -49 -127 -166 -208 -260 -145 -169 -207 -258 -396 -568 -112 -183 -369 -716 -354 -732 18 -17 278 -92 497 -141 472 -108 670 -143 957 -168 l202 -18 98 39 c322 126 383 160 695 387 272 197 362 273 567 477 200 198 302 324 456 561 48 74 111 171 140 215 57 88 153 205 167 205 6 0 -8 -20 -30 -46 -22 -25 -96 -137 -163 -250 -178 -298 -333 -500 -543 -709 -192 -191 -298 -280 -566 -477 -199 -146 -314 -225 -370 -253 -69 -35 -313 -135 -331 -135 -10 0 -55 -17 -101 -39 -177 -83 -424 -146 -728 -187 -122 -16 -394 -18 -494 -4 -38 6 -71 8 -74 5 -16 -16 209 -259 334 -361 51 -41 157 -142 235 -226 79 -83 198 -196 264 -252 66 -55 163 -139 215 -186 124 -111 358 -306 396 -330 l30 -19 88 121 c79 109 86 122 70 131 -10 6 -73 52 -140 103 -68 51 -138 101 -156 111 -138 76 -231 142 -374 266 -43 37 -110 89 -149 114 -85 56 -235 172 -290 224 -22 21 -80 66 -129 101 -49 35 -91 68 -93 75 -9 26 41 37 156 35 181 -4 365 28 694 119 165 46 251 86 692 319 218 114 299 163 420 253 559 412 778 650 972 1055 76 159 175 336 194 348 7 4 7 0 0 -12 -6 -11 -45 -95 -87 -189 -177 -393 -265 -532 -484 -759 -127 -132 -501 -434 -710 -573 -67 -44 -521 -286 -721 -384 -86 -42 -210 -82 -414 -133 -258 -64 -342 -78 -489 -82 -76 -2 -141 -5 -143 -7 -2 -3 36 -33 84 -67 48 -35 133 -102 188 -150 55 -48 136 -111 180 -140 44 -29 109 -78 144 -109 124 -108 187 -154 306 -224 66 -39 178 -115 249 -169 72 -54 133 -98 137 -98 4 0 15 12 24 28 10 15 68 95 130 177 142 190 248 305 281 305 53 0 48 -13 -168 -408 -49 -89 -88 -170 -86 -179 4 -21 43 -44 130 -77 l67 -25 48 38 c109 87 573 361 791 467 227 110 356 137 647 138 174 0 198 -2 280 -26 79 -22 327 -112 467 -169 26 -10 49 -19 53 -19 3 0 3 60 -1 133 -10 211 25 370 122 542 58 103 143 201 167 192 26 -10 21 -22 -39 -89 -95 -106 -184 -310 -208 -478 -4 -26 -17 -241 -18 -290 -1 -21 6 -29 35 -41 90 -36 286 -140 401 -212 114 -73 212 -146 360 -271 l46 -39 78 33 c42 19 84 39 92 45 8 7 38 24 65 37 28 14 66 34 85 45 19 11 69 40 110 63 206 118 339 212 835 590 230 175 545 484 545 535 0 3 -48 5 -107 5 -228 0 -452 35 -697 109 -72 22 -203 60 -291 86 -209 60 -296 93 -490 182 -203 94 -331 162 -472 250 -223 141 -341 241 -658 558 -317 316 -355 363 -440 535 -26 52 -67 125 -91 162 -44 66 -114 209 -114 231 0 7 10 -4 21 -23 12 -19 59 -91 104 -160 46 -69 102 -163 125 -210 24 -47 61 -112 83 -145 53 -78 594 -619 717 -716 222 -177 449 -311 770 -457 131 -59 168 -75 262 -107 136 -48 668 -200 745 -215 60 -10 64 -10 115 18 203 111 445 236 508 262 124 52 180 79 292 142 102 56 132 78 109 78 -17 0 -234 161 -381 283 -339 283 -573 552 -743 855 -45 80 -171 381 -198 470 l-12 42 -2634 0 c-1590 0 -2633 -4 -2633 -9 0 -5 -39 -51 -86 -103 -264 -286 -483 -569 -644 -833 -41 -66 -110 -174 -155 -240 -95 -139 -167 -260 -231 -387 -25 -50 -47 -88 -50 -85 -8 8 83 214 135 307 28 49 86 142 128 207 43 65 107 165 141 223 120 199 290 426 560 744 53 63 107 129 120 146 l24 30 -101 0 -100 0 -60 -87z m2999 -185 c65 -180 155 -322 365 -573 82 -99 192 -232 245 -295 187 -225 396 -414 624 -564 266 -175 507 -286 926 -426 146 -49 317 -107 380 -129 63 -22 148 -47 188 -56 122 -28 122 -67 -1 -189 -114 -113 -246 -210 -512 -376 -82 -51 -195 -123 -250 -160 -129 -86 -275 -170 -448 -255 -111 -56 -140 -66 -150 -56 -16 17 -3 26 222 141 102 53 236 128 296 167 61 39 187 120 280 179 312 196 448 297 558 413 32 34 57 66 55 72 -2 6 -51 23 -108 38 -58 15 -168 50 -245 78 -77 28 -214 74 -305 103 -478 151 -843 344 -1174 621 -156 131 -248 229 -524 562 -296 357 -307 373 -372 510 -45 95 -93 257 -76 257 2 0 14 -28 26 -62z m-9 -83 c66 -184 108 -264 259 -500 43 -66 120 -196 172 -290 98 -175 173 -300 320 -535 46 -74 104 -171 128 -215 24 -44 65 -114 92 -156 26 -42 48 -79 48 -84 0 -4 -24 24 -53 61 -47 61 -84 115 -172 254 -12 19 -48 76 -80 125 -166 258 -242 384 -371 615 -32 58 -98 166 -147 240 -100 153 -190 331 -236 467 -36 107 -38 126 -14 121 12 -2 29 -35 54 -103z m2057 63 c22 -18 52 -50 66 -71 14 -21 59 -86 99 -145 41 -59 102 -154 137 -212 35 -58 69 -112 76 -120 27 -35 84 -152 84 -176 0 -41 -39 -69 -148 -104 -57 -18 -105 -36 -107 -40 -7 -11 19 -123 48 -215 60 -186 89 -336 68 -349 -20 -13 -69 34 -124 117 -191 292 -305 496 -320 573 l-6 31 107 40 c59 22 115 43 125 46 9 4 17 14 17 24 0 31 -49 224 -79 313 -16 47 -43 132 -61 190 -17 58 -33 111 -35 118 -7 20 10 14 53 -20z m-2140 -65 c-141 -338 -298 -651 -553 -1104 -233 -413 -499 -848 -511 -836 -4 4 154 296 235 436 238 408 601 1089 671 1256 60 143 119 267 137 288 27 29 39 4 21 -40z m-927 -1985 c42 -46 97 -139 119 -202 40 -112 46 -245 18 -416 -17 -109 -23 -95 -19 47 3 140 -10 265 -36 343 -18 54 -71 144 -119 201 -18 22 -34 45 -34 50 0 21 43 7 71 -23z"/>
<path d="M7904 10188 c127 -345 238 -545 446 -799 148 -182 375 -389 712 -652 l138 -108 40 21 c22 11 40 24 40 29 0 10 -58 56 -152 119 -145 98 -531 432 -649 563 -159 177 -272 331 -352 479 -46 85 -144 318 -168 398 -12 40 -14 42 -50 42 l-39 0 34 -92z"/>
<path d="M7991 10253 c6 -16 26 -71 46 -123 134 -359 352 -660 698 -964 215 -188 320 -276 400 -331 39 -26 91 -70 116 -96 l45 -47 47 30 c26 17 47 34 47 39 0 4 -33 36 -72 70 -40 34 -134 119 -208 188 -375 349 -437 418 -745 822 -65 86 -174 283 -205 373 l-19 57 660 -2 c363 0 663 2 666 5 4 3 -330 6 -740 6 l-747 0 11 -27z"/>
<path d="M9378 10143 c-10 -43 -29 -132 -43 -198 -33 -151 -84 -306 -135 -407 -21 -43 -36 -78 -32 -78 8 0 72 90 121 170 85 138 176 387 183 500 3 41 1 45 -27 54 -16 6 -35 17 -40 24 -7 9 -15 -9 -27 -65z"/>
<path d="M9506 10069 c-4 -23 -5 -44 -2 -46 2 -2 7 14 11 37 4 23 5 43 2 46 -2 3 -7 -14 -11 -37z"/>
<path d="M9476 9944 c-4 -14 -5 -28 -3 -31 3 -2 8 8 11 23 4 14 5 28 3 31 -3 2 -8 -8 -11 -23z"/>
<path d="M9325 9600 c-9 -16 -13 -30 -11 -30 3 0 12 14 21 30 9 17 13 30 11 30 -3 0 -12 -13 -21 -30z"/>
<path d="M1370 9485 c30 -30 57 -55 59 -55 3 0 -19 25 -49 55 -30 30 -57 55 -59 55 -3 0 19 -25 49 -55z"/>
<path d="M9134 9328 l-29 -33 33 29 c30 28 37 36 29 36 -2 0 -16 -15 -33 -32z"/>
<path d="M9060 9245 c-24 -25 -42 -45 -39 -45 3 0 25 20 49 45 24 25 42 45 39 45 -3 0 -25 -20 -49 -45z"/>
<path d="M9000 9183 c0 -5 12 -20 28 -34 l27 -24 -25 30 c-14 17 -26 32 -27 34 -2 2 -3 0 -3 -6z"/>
<path d="M9135 9050 c33 -33 62 -60 64 -60 3 0 -21 27 -54 60 -33 33 -62 60 -64 60 -3 0 21 -27 54 -60z"/>
<path d="M1245 9070 c-9 -16 -13 -30 -11 -30 3 0 12 14 21 30 9 17 13 30 11 30 -3 0 -12 -13 -21 -30z"/>
<path d="M9280 8915 c19 -19 36 -35 39 -35 3 0 -10 16 -29 35 -19 19 -36 35 -39 35 -3 0 10 -16 29 -35z"/>
<path d="M9330 8877 c0 -2 15 -16 33 -33 l32 -29 -29 33 c-28 30 -36 37 -36 29z"/>
<path d="M1310 8578 c13 -14 90 -33 90 -23 0 2 -15 8 -32 13 -18 6 -42 13 -53 17 -18 7 -18 6 -5 -7z"/>
<path d="M1580 8500 c34 -11 60 -11 35 0 -11 5 -29 8 -40 8 -16 0 -15 -2 5 -8z"/>
<path d="M1820 8440 c14 -4 34 -8 45 -8 16 0 15 2 -5 8 -14 4 -34 8 -45 8 -16 0 -15 -2 5 -8z"/>
<path d="M1950 8410 c14 -4 34 -8 45 -8 16 0 15 2 -5 8 -14 4 -34 8 -45 8 -16 0 -15 -2 5 -8z"/>
<path d="M2233 8353 c9 -2 25 -2 35 0 9 3 1 5 -18 5 -19 0 -27 -2 -17 -5z"/>
<path d="M8740 8335 c-14 -8 -20 -14 -15 -14 6 0 21 6 35 14 14 8 21 14 15 14 -5 0 -21 -6 -35 -14z"/>
<path d="M2533 8303 c9 -2 25 -2 35 0 9 3 1 5 -18 5 -19 0 -27 -2 -17 -5z"/>
<path d="M2618 8293 c12 -2 32 -2 45 0 12 2 2 4 -23 4 -25 0 -35 -2 -22 -4z"/>
<path d="M2728 8283 c12 -2 32 -2 45 0 12 2 2 4 -23 4 -25 0 -35 -2 -22 -4z"/>
<path d="M2435 8170 c-27 -7 -27 -8 -5 -8 14 0 39 4 55 8 27 7 27 8 5 8 -14 0 -38 -4 -55 -8z"/>
<path d="M1660 8140 c25 -8 87 -13 79 -6 -2 2 -26 6 -54 9 -34 4 -42 3 -25 -3z"/>
<path d="M2238 8133 c12 -2 30 -2 40 0 9 3 -1 5 -23 4 -22 0 -30 -2 -17 -4z"/>
<path d="M1783 8123 c15 -2 39 -2 55 0 15 2 2 4 -28 4 -30 0 -43 -2 -27 -4z"/>
<path d="M2123 8123 c15 -2 39 -2 55 0 15 2 2 4 -28 4 -30 0 -43 -2 -27 -4z"/>
<path d="M8305 8120 c-9 -15 17 -22 61 -17 37 3 36 4 -9 5 -29 1 -46 6 -42 12 3 6 4 10 1 10 -3 0 -8 -5 -11 -10z"/>
<path d="M1953 8113 c15 -2 37 -2 50 0 12 2 0 4 -28 4 -27 0 -38 -2 -22 -4z"/>
<path d="M8478 8093 c23 -2 61 -2 85 0 23 2 4 4 -43 4 -47 0 -66 -2 -42 -4z"/>
<path d="M8698 8080 c13 -6 22 -19 23 -32 1 -18 2 -19 6 -5 6 22 -14 47 -36 46 -11 0 -9 -3 7 -9z"/>
<path d="M1685 7990 c21 -22 41 -40 44 -40 3 0 -13 18 -34 40 -21 22 -41 40 -44 40 -3 0 13 -18 34 -40z"/>
<path d="M8676 7962 c-14 -21 -40 -51 -56 -67 -17 -16 -30 -33 -30 -39 0 -18 99 87 109 116 13 37 9 35 -23 -10z"/>
<path d="M1775 7890 c21 -22 41 -40 44 -40 3 0 -13 18 -34 40 -21 22 -41 40 -44 40 -3 0 13 -18 34 -40z"/>
<path d="M8485 7758 l-70 -73 73 70 c39 38 72 71 72 72 0 8 -11 -2 -75 -69z"/>
<path d="M1920 7745 c19 -19 36 -35 39 -35 3 0 -10 16 -29 35 -19 19 -36 35 -39 35 -3 0 10 -16 29 -35z"/>
<path d="M8325 7619 c-100 -86 -114 -104 -23 -30 69 56 107 92 97 90 -2 0 -35 -27 -74 -60z"/>
<path d="M2095 7588 c42 -45 89 -90 103 -101 15 -11 -18 26 -73 81 -55 56 -101 102 -103 102 -2 0 31 -37 73 -82z"/>
<path d="M8125 7454 l-40 -36 43 32 c36 27 49 40 40 40 -2 0 -21 -16 -43 -36z"/>
<path d="M2284 7385 c37 -44 77 -90 88 -102 12 -12 19 -25 16 -29 -8 -8 -400 60 -553 95 -66 16 -122 27 -124 24 -3 -2 13 -17 35 -34 60 -47 327 -322 413 -425 128 -154 191 -279 242 -481 35 -139 35 -196 1 -201 -12 -2 -71 19 -131 47 -60 28 -112 51 -115 51 -3 0 -77 30 -164 66 -174 72 -287 105 -445 128 -120 18 -137 19 -137 8 0 -5 86 -99 192 -208 231 -240 336 -363 433 -509 121 -182 317 -578 299 -607 -3 -4 0 -8 5 -8 6 0 11 7 11 16 0 8 72 162 161 342 89 180 199 404 245 498 71 143 283 513 346 603 17 24 17 25 -20 50 -36 24 -171 136 -402 335 -63 54 -140 116 -171 137 -31 21 -109 93 -174 161 -95 100 -105 108 -51 43z"/>
<path d="M4980 7413 c-125 -13 -258 -56 -422 -139 -251 -126 -736 -415 -833 -496 -11 -10 -57 -44 -102 -78 -46 -33 -83 -63 -83 -66 0 -3 25 -35 56 -72 31 -36 67 -82 81 -103 13 -21 51 -61 84 -89 33 -29 117 -121 187 -204 179 -214 385 -455 467 -546 444 -492 753 -819 1056 -1115 195 -191 229 -228 229 -257 0 -48 -69 -43 -290 24 -191 57 -404 117 -408 114 -1 -2 24 -43 57 -92 33 -49 94 -145 137 -214 42 -69 114 -177 158 -240 45 -63 117 -168 159 -233 66 -100 80 -117 93 -107 16 14 109 167 194 320 93 166 124 203 146 168 20 -32 -7 -248 -49 -403 -31 -109 -100 -304 -132 -370 -18 -38 -32 -71 -31 -73 10 -9 357 397 482 563 67 89 194 273 194 282 0 3 -6 3 -14 0 -33 -13 -249 86 -311 142 -71 64 -204 251 -267 376 -35 68 -98 215 -98 228 0 22 25 -14 88 -131 38 -70 86 -154 107 -187 l39 -60 8 40 c40 194 95 320 173 398 173 172 461 230 654 132 l51 -25 9 22 c5 13 10 32 12 43 3 12 12 20 24 20 18 0 20 -6 17 -66 l-2 -67 68 -55 c37 -30 85 -80 107 -111 21 -31 42 -53 46 -49 10 11 38 184 54 342 23 207 37 664 27 821 -5 74 -7 138 -5 143 13 22 37 -4 91 -101 34 -59 73 -134 88 -167 71 -162 164 -446 195 -602 7 -35 16 -63 20 -63 9 0 22 288 17 370 -4 52 -20 101 -82 250 -124 301 -169 386 -314 603 -103 154 -365 434 -525 562 -235 188 -586 378 -892 484 -66 23 -151 54 -190 70 -109 45 -125 50 -195 61 -60 9 -350 11 -430 3z m426 -673 c66 -26 265 -137 312 -173 35 -27 -9 -9 -155 63 -210 103 -250 115 -383 112 -58 -1 -127 -6 -155 -12 -27 -6 -63 -13 -79 -15 -16 -3 -47 -10 -70 -17 -22 -6 -50 -13 -60 -15 -41 -7 -108 -44 -224 -122 -67 -44 -125 -81 -129 -81 -4 0 6 14 23 31 34 36 187 133 259 164 126 55 402 108 521 100 36 -2 93 -17 140 -35z m33 -171 c112 -18 231 -49 272 -70 58 -29 47 -31 -24 -5 -64 25 -238 56 -317 57 -25 0 -142 -2 -260 -4 -203 -4 -262 -10 -285 -27 -14 -11 -161 -40 -202 -40 -48 0 -33 16 24 25 27 4 84 18 128 33 75 24 95 25 303 28 123 1 226 5 229 8 9 9 58 7 132 -5z m-146 -675 c156 -40 238 -113 236 -210 l-1 -49 -9 40 c-20 87 -119 159 -256 185 -127 25 -212 -2 -318 -101 -85 -80 -116 -81 -52 -1 103 130 241 177 400 136z"/>
<path d="M1800 7400 c14 -4 34 -8 45 -8 16 0 15 2 -5 8 -14 4 -34 8 -45 8 -16 0 -15 -2 5 -8z"/>
<path d="M3633 7313 c-39 -49 -109 -142 -157 -208 -48 -66 -126 -174 -175 -240 -48 -66 -94 -131 -101 -145 -7 -14 -23 -36 -35 -50 -49 -53 -291 -475 -391 -680 -58 -118 -168 -341 -245 -495 -166 -333 -218 -481 -293 -835 -30 -138 -97 -608 -126 -885 -12 -110 -26 -243 -32 -295 -6 -52 -11 -221 -12 -375 -1 -350 18 -510 95 -774 65 -225 146 -409 236 -538 81 -118 228 -295 315 -380 109 -107 296 -256 378 -300 36 -20 81 -46 101 -59 20 -12 53 -26 73 -29 38 -8 56 -28 56 -66 0 -48 17 0 28 78 12 87 75 321 98 363 18 34 17 21 -5 -68 -61 -238 -87 -457 -71 -576 8 -51 25 -100 60 -172 43 -89 63 -116 156 -213 117 -122 183 -168 327 -226 177 -73 412 -101 767 -92 234 6 349 19 675 78 414 74 747 188 1176 404 132 66 447 253 557 330 255 179 460 343 616 495 185 179 471 486 546 585 168 224 312 506 705 1375 51 113 107 236 124 274 17 38 30 70 28 72 -9 10 -477 -417 -627 -572 -105 -109 -232 -261 -306 -367 -28 -41 -44 -55 -57 -51 -10 3 -20 -1 -23 -10 -5 -14 -197 -191 -328 -303 -87 -75 -92 -52 -7 31 128 125 320 474 480 876 123 308 173 556 174 860 0 231 -31 444 -88 616 -72 214 -309 632 -511 899 -109 145 -287 365 -291 361 -3 -2 5 -23 17 -45 24 -48 65 -196 80 -296 24 -151 27 -497 6 -649 -12 -82 -14 -151 -10 -285 13 -342 -33 -657 -147 -1009 -47 -147 -84 -232 -100 -232 -6 0 -9 6 -6 14 58 149 150 491 177 656 35 211 44 584 19 760 -25 176 -102 445 -187 650 -36 88 -119 260 -126 260 -2 0 -2 -37 1 -82 7 -107 -13 -538 -33 -727 -43 -416 -129 -729 -287 -1049 -70 -140 -72 -145 -232 -417 -154 -261 -202 -346 -222 -397 -9 -24 -25 -50 -34 -58 -9 -8 -49 -66 -88 -127 -73 -116 -231 -336 -250 -347 -31 -19 -1 38 92 176 190 285 251 389 326 556 145 324 264 756 305 1112 25 215 30 300 17 300 -6 0 -11 -6 -11 -13 0 -39 -171 -417 -275 -607 -71 -131 -192 -314 -305 -465 -102 -135 -364 -437 -479 -550 -55 -55 -101 -103 -101 -106 0 -20 -166 -272 -240 -366 -102 -128 -216 -246 -230 -238 -23 14 -6 44 61 110 38 39 94 99 124 135 70 85 205 288 205 308 0 9 9 25 19 36 53 57 168 320 231 525 52 170 91 381 71 381 -5 0 -28 -35 -52 -78 -134 -246 -224 -385 -419 -647 -345 -465 -613 -701 -1135 -1000 -93 -54 -200 -118 -237 -144 -226 -157 -410 -367 -540 -616 -57 -108 -61 -106 -12 7 129 293 360 541 684 733 290 171 370 221 440 271 194 139 368 293 497 439 54 60 112 123 129 140 17 16 52 62 77 100 26 39 92 131 146 205 l99 135 -46 65 c-26 36 -105 144 -177 240 -71 97 -150 208 -175 248 -25 40 -89 140 -142 221 -54 82 -98 157 -98 165 0 9 7 19 16 23 17 6 177 -35 414 -107 170 -52 268 -75 278 -65 3 3 -71 81 -165 173 -237 231 -641 648 -803 827 -74 83 -175 193 -224 245 -49 52 -134 149 -189 215 -55 66 -130 154 -167 195 -36 41 -109 127 -162 190 -52 63 -155 174 -229 245 -74 72 -154 153 -177 180 l-44 50 -26 -32 c-15 -17 -45 -52 -67 -78 l-39 -47 76 -72 c43 -39 106 -106 142 -148 111 -133 319 -352 601 -633 150 -148 395 -396 546 -550 151 -154 340 -343 419 -420 80 -77 167 -169 194 -205 45 -59 37 -53 -85 65 -74 72 -183 174 -244 227 -60 54 -227 218 -369 365 -143 147 -318 324 -390 393 -196 188 -308 301 -445 450 -181 196 -358 379 -364 374 -2 -2 -27 21 -56 51 -29 30 -55 55 -59 54 -4 0 -27 -26 -51 -57 -34 -43 -63 -103 -119 -247 -41 -104 -83 -199 -93 -210 -19 -21 -63 -150 -136 -400 -24 -82 -50 -170 -59 -195 -31 -91 -35 -85 53 -86 43 -1 158 -9 256 -19 98 -10 180 -15 183 -12 3 2 -11 33 -30 68 -19 35 -67 134 -106 219 -40 85 -90 193 -112 240 -49 103 -60 138 -47 146 17 10 36 -15 62 -80 30 -74 80 -181 192 -411 116 -238 116 -230 -2 -221 -49 3 -160 12 -248 20 -142 12 -179 13 -164 3 2 -1 38 -33 80 -69 88 -78 185 -209 171 -233 -7 -13 -21 -1 -72 57 -100 114 -232 248 -245 248 -6 0 -17 -35 -24 -80 -12 -73 -12 -82 4 -100 9 -10 35 -48 58 -84 48 -76 136 -200 257 -365 47 -64 101 -143 120 -176 34 -59 96 -135 110 -135 4 0 -4 30 -18 68 -33 89 -37 249 -8 328 44 119 163 243 272 284 100 37 236 55 327 42 213 -31 406 -233 452 -475 8 -43 15 -96 15 -118 0 -21 4 -39 9 -39 15 0 103 145 185 305 84 163 92 175 112 175 11 0 13 -7 8 -27 -12 -51 -181 -360 -239 -439 -175 -236 -393 -365 -617 -365 -49 -1 -88 -4 -88 -8 0 -5 12 -24 28 -44 15 -19 81 -106 146 -193 66 -87 176 -225 246 -308 106 -127 332 -421 428 -559 15 -21 47 -63 71 -95 68 -89 86 -116 73 -108 -7 4 -135 161 -285 349 -151 188 -308 383 -351 432 -43 50 -119 146 -169 214 -51 68 -118 156 -150 195 -31 39 -70 87 -86 106 -18 23 -63 52 -132 87 -57 28 -121 63 -143 78 -69 47 -74 55 184 -296 74 -101 187 -245 250 -319 64 -74 146 -173 182 -220 36 -47 123 -150 192 -230 141 -161 265 -329 326 -440 44 -80 49 -109 6 -36 -57 97 -190 265 -357 451 -59 66 -149 172 -201 236 -51 64 -147 181 -214 260 -66 79 -163 203 -214 274 -52 72 -122 167 -157 213 -34 45 -74 104 -88 131 -13 27 -57 86 -96 132 -83 96 -147 191 -182 270 -13 30 -48 83 -79 119 -30 36 -89 111 -131 168 -43 57 -77 102 -77 100 -23 -165 -26 -243 -14 -324 8 -49 16 -152 19 -229 7 -146 32 -309 63 -411 11 -32 27 -86 36 -119 10 -33 31 -89 46 -125 16 -36 54 -123 83 -195 30 -71 79 -184 109 -250 30 -66 60 -133 67 -150 17 -40 25 -24 45 95 40 235 31 462 -26 603 -29 73 -30 80 -14 95 15 15 19 13 57 -23 56 -54 254 -319 322 -430 166 -273 286 -600 328 -895 17 -116 15 -328 -4 -420 l-15 -75 5 145 c19 488 -167 1009 -530 1482 -77 100 -108 131 -92 91 47 -120 46 -421 -3 -648 -82 -375 -82 -377 -89 -547 -8 -216 -24 -226 -37 -23 -6 100 9 246 38 367 l23 93 -21 30 c-12 17 -41 75 -65 130 -24 55 -75 165 -113 245 -84 176 -77 161 -132 295 -56 138 -77 226 -117 495 -30 193 -33 238 -33 435 0 237 17 420 53 555 49 183 367 1020 511 1345 22 51 73 172 125 300 50 124 92 212 164 338 12 22 42 78 68 125 25 48 50 93 56 100 5 7 6 12 0 12 -5 0 -41 -39 -80 -87z"/>
<path d="M1890 7380 c14 -4 34 -8 45 -8 16 0 15 2 -5 8 -14 4 -34 8 -45 8 -16 0 -15 -2 5 -8z"/>
<path d="M1980 7360 c14 -4 36 -8 50 -8 l25 0 -25 8 c-14 4 -36 8 -50 8 l-25 0 25 -8z"/>
<path d="M7974 7269 c-19 -39 -34 -73 -32 -75 2 -2 21 30 41 71 20 41 35 75 32 75 -3 0 -21 -32 -41 -71z"/>
<path d="M2195 7320 c17 -4 44 -8 60 -8 25 0 24 2 -10 9 -51 10 -92 10 -50 -1z"/>
<path d="M7921 7299 c-13 -11 -96 -66 -185 -122 -90 -57 -185 -126 -216 -157 -65 -65 -340 -228 -446 -264 -73 -25 -174 -72 -174 -82 0 -4 51 -61 114 -128 62 -66 138 -154 169 -194 135 -176 283 -441 357 -639 19 -51 38 -93 42 -93 4 0 6 6 3 13 -2 6 -11 50 -20 97 -23 119 -48 187 -122 332 -61 119 -73 165 -40 152 16 -6 179 -200 337 -401 57 -73 108 -133 112 -133 4 0 8 -6 8 -12 0 -7 9 -24 19 -38 l19 -24 7 39 c49 281 163 570 347 880 67 112 212 325 275 403 20 24 32 46 29 49 -12 12 -200 -48 -291 -92 -49 -24 -171 -94 -269 -154 -99 -61 -190 -111 -202 -111 -53 0 -70 95 -39 215 21 79 96 268 152 378 24 49 43 93 41 97 -2 5 -14 0 -27 -11z"/>
<path d="M1760 7259 c8 -8 58 -55 110 -104 l95 -90 -80 83 c-44 46 -93 93 -110 104 -16 12 -23 15 -15 7z"/>
<path d="M2076 6935 c102 -117 130 -146 87 -90 -17 22 -63 74 -103 115 -64 67 -63 65 16 -25z"/>
<path d="M8240 6925 c-14 -8 -20 -14 -15 -14 6 0 21 6 35 14 14 8 21 14 15 14 -5 0 -21 -6 -35 -14z"/>
<path d="M8520 6860 c-12 -16 -19 -30 -16 -30 2 0 14 14 26 30 12 17 19 30 16 30 -2 0 -14 -13 -26 -30z"/>
<path d="M3486 6862 c-2 -4 -28 -68 -58 -142 -29 -74 -54 -138 -56 -141 -2 -4 10 -11 27 -17 27 -9 31 -7 59 26 16 21 66 69 111 107 44 38 81 73 81 77 0 4 -9 9 -19 13 -10 3 -46 23 -80 45 -33 21 -62 36 -65 32z"/>
<path d="M7881 6720 c-46 -27 -88 -47 -93 -44 -4 3 -8 0 -8 -5 0 -6 5 -11 11 -11 12 0 179 99 179 106 0 6 3 7 -89 -46z"/>
<path d="M2262 6675 c12 -24 23 -43 26 -41 4 5 -36 86 -43 86 -3 0 5 -20 17 -45z"/>
<path d="M1483 6573 c9 -2 25 -2 35 0 9 3 1 5 -18 5 -19 0 -27 -2 -17 -5z"/>
<path d="M1351 6544 c0 -11 13 -33 32 -50 l32 -29 -27 30 c-14 17 -28 39 -31 50 -5 19 -5 19 -6 -1z"/>
<path d="M1635 6550 c17 -4 39 -8 50 -8 16 0 15 2 -5 8 -14 4 -36 8 -50 8 -22 0 -22 -1 5 -8z"/>
<path d="M3321 6458 c-17 -39 -30 -72 -28 -74 1 -2 24 25 49 60 34 47 43 67 35 75 -18 18 -23 14 -56 -61z"/>
<path d="M2341 6480 c0 -8 4 -24 9 -35 5 -13 9 -14 9 -5 0 8 -4 24 -9 35 -5 13 -9 14 -9 5z"/>
<path d="M1560 6305 c80 -80 147 -145 150 -145 2 0 -60 65 -140 145 -80 80 -147 145 -150 145 -2 0 60 -65 140 -145z"/>
<path d="M2010 6437 c8 -8 134 -57 137 -53 2 2 -18 12 -44 23 -53 23 -101 38 -93 30z"/>
<path d="M8160 6300 c-11 -22 -18 -40 -15 -40 2 0 14 18 25 40 11 22 18 40 15 40 -2 0 -14 -18 -25 -40z"/>
<path d="M2380 6306 c0 -8 -6 -17 -12 -19 -8 -3 -6 -6 5 -6 11 -1 17 6 17 19 0 11 -2 20 -5 20 -3 0 -5 -6 -5 -14z"/>
<path d="M8102 6185 c-17 -37 -14 -45 4 -12 9 16 14 31 11 33 -2 2 -9 -7 -15 -21z"/>
<path d="M1755 6100 c21 -22 41 -40 44 -40 3 0 -13 18 -34 40 -21 22 -41 40 -44 40 -3 0 13 -18 34 -40z"/>
<path d="M1800 6047 c0 -2 15 -16 33 -33 l32 -29 -29 33 c-28 30 -36 37 -36 29z"/>
<path d="M2006 5775 c78 -128 115 -185 121 -185 8 0 -137 234 -170 274 -10 11 12 -28 49 -89z"/>
<path d="M7925 5690 c-4 -17 -5 -34 -2 -36 2 -3 7 10 11 27 3 18 4 34 2 36 -2 3 -7 -10 -11 -27z"/>
<path d="M2252 5355 c12 -24 23 -43 26 -41 4 5 -36 86 -43 86 -3 0 5 -20 17 -45z"/>
<path d="M8049 5375 c5 -11 17 -29 26 -40 l16 -20 -10 20 c-5 11 -17 29 -26 40 l-16 20 10 -20z"/>
<path d="M8210 5100 c11 -22 23 -40 25 -40 3 0 -4 18 -15 40 -11 22 -23 40 -25 40 -3 0 4 -18 15 -40z"/>
<path d="M2227 4828 c-9 -37 -17 -73 -16 -80 0 -7 9 19 20 57 10 39 17 74 16 80 -2 5 -11 -21 -20 -57z"/>
<path d="M3708 4855 c-92 -23 -149 -55 -216 -121 -127 -127 -159 -262 -107 -450 15 -55 33 -109 41 -120 15 -24 152 -119 160 -111 3 3 -1 16 -9 29 -47 72 -90 300 -77 399 16 118 78 212 168 255 50 24 69 28 152 28 77 1 106 -4 152 -22 63 -25 145 -93 179 -148 21 -34 21 -36 3 -55 -21 -24 -24 -80 -4 -104 8 -9 25 -21 39 -26 24 -9 24 -11 19 -112 -6 -100 -8 -108 -65 -246 -6 -14 73 37 162 106 68 53 72 69 54 218 -14 106 -22 136 -54 202 -49 99 -161 216 -250 259 -54 26 -71 29 -175 31 -73 1 -136 -3 -172 -12z"/>
<path d="M6894 4706 l-9 -84 37 -42 c40 -44 48 -70 24 -70 -20 0 -56 -48 -56 -76 0 -12 11 -35 24 -51 19 -22 32 -28 65 -27 39 1 41 0 41 -29 0 -54 18 -17 52 106 l32 119 -29 56 c-27 51 -145 182 -164 182 -4 0 -12 -38 -17 -84z"/>
<path d="M3678 4709 c-9 -5 -33 -32 -54 -60 -29 -40 -34 -53 -24 -62 9 -9 15 -8 24 8 6 11 30 39 53 62 31 31 39 44 30 52 -8 6 -18 6 -29 0z"/>
<path d="M6327 4655 c-55 -42 -72 -68 -54 -83 9 -8 27 4 70 45 50 48 63 73 38 73 -5 0 -29 -16 -54 -35z"/>
<path d="M2152 4450 c0 -19 2 -27 5 -17 2 9 2 25 0 35 -3 9 -5 1 -5 -18z"/>
<path d="M8432 4450 c0 -19 2 -27 5 -17 2 9 2 25 0 35 -3 9 -5 1 -5 -18z"/>
<path d="M6390 4461 c-63 -17 -79 -148 -24 -201 48 -46 77 -46 125 -3 47 42 83 113 74 143 -3 10 -20 31 -36 45 -31 26 -82 32 -139 16z"/>
<path d="M3713 4431 c-90 -57 -79 -192 19 -229 49 -19 83 -9 130 37 33 34 38 45 38 85 0 96 -107 157 -187 107z"/>
<path d="M2122 4265 c-12 -82 -22 -159 -21 -170 1 -11 12 50 25 135 13 85 23 162 21 170 -1 8 -13 -52 -25 -135z"/>
<path d="M8443 4370 c0 -25 2 -35 4 -22 2 12 2 32 0 45 -2 12 -4 2 -4 -23z"/>
<path d="M8453 4245 c0 -38 2 -53 4 -32 2 20 2 52 0 70 -2 17 -4 1 -4 -38z"/>
<path d="M8453 4025 c0 -38 2 -53 4 -32 2 20 2 52 0 70 -2 17 -4 1 -4 -38z"/>
<path d="M2092 4030 c0 -19 2 -27 5 -17 2 9 2 25 0 35 -3 9 -5 1 -5 -18z"/>
<path d="M2083 3940 c0 -25 2 -35 4 -22 2 12 2 32 0 45 -2 12 -4 2 -4 -23z"/>
<path d="M6860 3961 c-8 -5 -33 -11 -55 -13 -39 -4 -39 -4 -58 -68 -34 -122 -98 -315 -118 -359 -32 -68 -15 -59 29 16 128 223 232 414 232 428 0 7 -13 6 -30 -4z"/>
<path d="M8443 3900 c0 -25 2 -35 4 -22 2 12 2 32 0 45 -2 12 -4 2 -4 -23z"/>
<path d="M2073 3835 c0 -27 2 -38 4 -22 2 15 2 37 0 50 -2 12 -4 0 -4 -28z"/>
<path d="M8432 3820 c0 -19 2 -27 5 -17 2 9 2 25 0 35 -3 9 -5 1 -5 -18z"/>
<path d="M2062 3740 c0 -19 2 -27 5 -17 2 9 2 25 0 35 -3 9 -5 1 -5 -18z"/>
<path d="M8406 3689 c-4 -23 -5 -44 -2 -46 2 -2 7 14 11 37 4 23 5 43 2 46 -2 3 -7 -14 -11 -37z"/>
<path d="M2052 3660 c0 -19 2 -27 5 -17 2 9 2 25 0 35 -3 9 -5 1 -5 -18z"/>
<path d="M8979 3623 l-34 -38 38 34 c34 33 42 41 34 41 -2 0 -19 -17 -38 -37z"/>
<path d="M9142 3635 c-17 -37 -14 -45 4 -12 9 16 14 31 11 33 -2 2 -9 -7 -15 -21z"/>
<path d="M2043 3575 c0 -22 2 -30 4 -17 2 12 2 30 0 40 -3 9 -5 -1 -4 -23z"/>
<path d="M8895 3548 l-40 -43 43 40 c39 36 47 45 39 45 -2 0 -21 -19 -42 -42z"/>
<path d="M2033 3485 c0 -27 2 -38 4 -22 2 15 2 37 0 50 -2 12 -4 0 -4 -28z"/>
<path d="M9082 3505 c-17 -37 -14 -45 4 -12 9 16 14 31 11 33 -2 2 -9 -7 -15 -21z"/>
<path d="M8800 3465 c-24 -25 -42 -45 -39 -45 3 0 25 20 49 45 24 25 42 45 39 45 -3 0 -25 -20 -49 -45z"/>
<path d="M2022 3359 c-1 -31 -4 -78 -7 -105 l-4 -49 10 49 c5 27 8 74 6 105 l-3 56 -2 -56z"/>
<path d="M8690 3365 c-24 -25 -42 -45 -39 -45 3 0 25 20 49 45 24 25 42 45 39 45 -3 0 -25 -20 -49 -45z"/>
<path d="M8500 3183 l-105 -108 108 105 c99 97 112 110 104 110 -1 0 -50 -48 -107 -107z"/>
<path d="M8245 3177 c-21 -51 -58 -132 -82 -181 -24 -48 -42 -90 -39 -93 3 -3 25 35 49 83 47 94 120 274 114 280 -1 2 -20 -38 -42 -89z"/>
<path d="M8877 3055 c-24 -50 -20 -58 4 -12 11 22 19 41 17 43 -3 2 -12 -12 -21 -31z"/>
<path d="M8344 3018 l-29 -33 33 29 c17 17 32 31 32 33 0 8 -8 1 -36 -29z"/>
<path d="M2023 2850 c0 -30 2 -43 4 -27 2 15 2 39 0 55 -2 15 -4 2 -4 -28z"/>
<path d="M2032 2750 c0 -19 2 -27 5 -17 2 9 2 25 0 35 -3 9 -5 1 -5 -18z"/>
<path d="M8079 2703 l-34 -38 38 34 c34 33 42 41 34 41 -2 0 -19 -17 -38 -37z"/>
<path d="M8707 2684 c-37 -74 -33 -83 4 -10 17 32 29 60 27 62 -2 2 -16 -21 -31 -52z"/>
<path d="M2042 2670 c0 -19 2 -27 5 -17 2 9 2 25 0 35 -3 9 -5 1 -5 -18z"/>
<path d="M2052 2600 c0 -19 2 -27 5 -17 2 9 2 25 0 35 -3 9 -5 1 -5 -18z"/>
<path d="M7960 2598 c-31 -42 -20 -44 19 -5 20 22 26 34 17 34 -8 0 -24 -13 -36 -29z"/>
<path d="M8515 2300 c-9 -16 -13 -30 -11 -30 3 0 12 14 21 30 9 17 13 30 11 30 -3 0 -12 -13 -21 -30z"/>
<path d="M8214 1838 l-29 -33 33 29 c17 17 32 31 32 33 0 8 -8 1 -36 -29z"/>
<path d="M8140 1755 c-24 -25 -42 -45 -39 -45 3 0 25 20 49 45 24 25 42 45 39 45 -3 0 -25 -20 -49 -45z"/>
<path d="M7980 1583 l-85 -88 88 85 c48 46 87 86 87 87 0 8 -11 -3 -90 -84z"/>
<path d="M7765 1359 c-22 -22 -93 -86 -157 -141 -65 -56 -118 -103 -118 -105 0 -2 34 24 77 58 79 65 252 228 243 229 -3 0 -24 -18 -45 -41z"/>
<path d="M2750 1317 c0 -2 15 -16 33 -33 l32 -29 -29 33 c-28 30 -36 37 -36 29z"/>
<path d="M2820 1257 c0 -3 23 -24 50 -47 28 -23 50 -40 50 -37 0 3 -22 24 -50 47 -27 23 -50 40 -50 37z"/>
<path d="M3161 1026 c4 -4 21 -11 39 -16 19 -5 29 -6 24 -1 -10 10 -72 26 -63 17z"/>
<path d="M6570 510 c-41 -21 -72 -39 -67 -40 10 0 147 69 147 75 0 7 3 8 -80 -35z"/>
<path d="M3478 423 c16 -21 40 -47 53 -58 13 -11 1 6 -26 38 -55 64 -73 77 -27 20z"/>
<path d="M6350 405 c-14 -8 -20 -14 -15 -14 6 0 21 6 35 14 14 8 21 14 15 14 -5 0 -21 -6 -35 -14z"/>
<path d="M6250 360 c-19 -11 -30 -19 -25 -19 6 0 26 8 45 19 19 11 31 19 25 19 -5 0 -26 -8 -45 -19z"/>
<path d="M6188 335 c-3 -3 -66 -28 -139 -55 -155 -57 -160 -67 -8 -14 102 35 185 73 163 74 -6 0 -13 -2 -16 -5z"/>
<path d="M5705 170 c-13 -5 -14 -9 -5 -9 8 0 24 4 35 9 13 5 14 9 5 9 -8 0 -24 -4 -35 -9z"/>
<path d="M5435 110 c-27 -7 -27 -8 -5 -8 14 0 39 4 55 8 27 7 27 8 5 8 -14 0 -38 -4 -55 -8z"/>
<path d="M5063 43 c9 -2 25 -2 35 0 9 3 1 5 -18 5 -19 0 -27 -2 -17 -5z"/>
<path d="M4993 33 c9 -2 25 -2 35 0 9 3 1 5 -18 5 -19 0 -27 -2 -17 -5z"/>
<path d="M4238 23 c12 -2 30 -2 40 0 9 3 -1 5 -23 4 -22 0 -30 -2 -17 -4z"/>
<path d="M4908 23 c12 -2 30 -2 40 0 9 3 -1 5 -23 4 -22 0 -30 -2 -17 -4z"/>
<path d="M4343 13 c20 -2 54 -2 75 0 20 2 3 4 -38 4 -41 0 -58 -2 -37 -4z"/>
<path d="M4778 13 c17 -2 47 -2 65 0 17 2 3 4 -33 4 -36 0 -50 -2 -32 -4z"/>
</g>
<g id="layer103" fill="#994f44" stroke="none">
<path d="M2524 10212 c-274 -302 -540 -641 -665 -849 -29 -48 -101 -160 -160 -249 -129 -193 -309 -508 -297 -519 26 -22 652 -163 952 -215 98 -17 272 -39 386 -50 l208 -20 174 71 c254 104 312 136 538 297 346 248 401 293 624 511 216 211 343 369 522 651 111 175 186 279 238 329 50 48 45 32 -12 -42 -27 -34 -95 -140 -152 -236 -189 -319 -330 -500 -576 -741 -191 -187 -249 -236 -489 -412 -234 -172 -349 -250 -420 -286 -83 -41 -300 -132 -316 -132 -8 0 -50 -16 -94 -36 -191 -86 -407 -143 -710 -189 -121 -19 -447 -23 -547 -7 -32 5 -58 5 -58 1 0 -22 240 -269 355 -367 72 -60 167 -153 213 -205 46 -53 125 -132 175 -175 51 -44 139 -121 197 -171 188 -164 464 -396 498 -420 19 -13 37 -20 41 -15 22 25 153 208 156 217 4 16 -236 193 -355 263 -124 73 -199 127 -295 214 -43 39 -130 107 -193 151 -123 86 -230 169 -302 234 -25 23 -68 55 -96 73 -27 17 -61 43 -74 57 -23 24 -23 26 -7 43 15 14 41 17 175 19 132 2 183 7 307 33 353 72 527 129 745 242 85 45 238 125 340 177 199 104 251 136 435 275 530 397 731 620 935 1042 78 162 171 324 185 324 3 0 1 -8 -5 -17 -5 -10 -44 -94 -86 -188 -109 -243 -164 -348 -232 -450 -80 -120 -199 -261 -308 -365 -142 -136 -553 -457 -699 -546 -54 -34 -488 -261 -651 -343 -56 -27 -157 -66 -225 -86 -68 -21 -143 -43 -166 -51 -23 -7 -122 -30 -220 -50 -143 -29 -206 -37 -317 -40 -76 -2 -141 -5 -143 -7 -2 -3 36 -33 84 -67 48 -35 133 -102 188 -150 55 -48 136 -111 180 -140 44 -29 109 -78 145 -110 103 -90 217 -173 325 -236 55 -32 158 -102 229 -156 72 -54 133 -98 137 -98 4 0 15 12 24 28 10 15 68 95 130 177 142 190 248 305 281 305 53 0 57 8 -168 -409 -49 -91 -87 -172 -86 -180 4 -19 45 -43 130 -75 l67 -25 48 38 c109 87 573 361 791 467 227 110 356 137 647 138 174 0 198 -2 280 -26 79 -22 327 -112 467 -169 26 -10 49 -19 51 -19 3 0 3 59 0 131 -8 216 28 374 123 544 58 103 143 201 167 192 26 -10 21 -22 -39 -89 -39 -44 -74 -100 -114 -183 -75 -155 -94 -236 -106 -455 -3 -69 -8 -127 -10 -130 -7 -14 19 -31 126 -80 147 -68 167 -80 357 -201 87 -56 204 -141 261 -191 l103 -89 157 79 c173 87 390 209 496 280 94 62 679 501 701 526 6 6 53 48 105 93 143 123 340 328 340 353 0 5 -48 11 -107 14 -334 20 -438 38 -773 136 -361 105 -487 149 -707 250 -413 188 -727 400 -978 659 -60 62 -183 185 -273 274 -174 171 -233 249 -316 414 -25 50 -64 120 -86 155 -45 68 -123 228 -116 236 9 8 27 -10 45 -47 11 -20 53 -87 94 -147 40 -60 100 -159 132 -221 72 -141 155 -244 288 -361 58 -51 140 -133 182 -183 315 -368 941 -744 1520 -913 66 -19 206 -60 310 -91 105 -31 222 -61 260 -67 l70 -11 100 53 c202 106 482 247 566 283 47 21 134 65 193 99 l106 60 -53 32 c-115 69 -382 286 -580 471 -59 55 -154 156 -211 225 -205 249 -316 436 -421 710 -37 96 -71 185 -76 197 l-9 23 -2622 0 -2623 -1 -61 -67z m2725 -189 c17 -66 135 -294 190 -367 129 -170 552 -664 647 -756 348 -337 737 -558 1307 -741 122 -40 276 -92 342 -116 66 -25 158 -53 205 -64 128 -31 150 -52 116 -117 -45 -86 -344 -322 -581 -457 -27 -16 -133 -84 -235 -151 -189 -125 -539 -318 -597 -330 -26 -5 -33 -3 -33 9 0 19 25 34 235 141 94 47 222 119 285 160 63 41 192 123 285 181 313 197 448 298 559 414 43 46 56 65 47 74 -6 6 -61 25 -123 43 -184 53 -729 239 -858 294 -66 27 -122 50 -124 50 -32 0 -348 176 -481 268 -279 192 -464 371 -750 727 -48 61 -113 139 -144 174 -129 146 -214 279 -277 430 -13 31 -23 49 -23 41 -1 -24 92 -232 139 -312 24 -40 78 -127 120 -193 43 -66 112 -183 155 -260 98 -176 199 -346 242 -406 18 -26 33 -49 33 -53 0 -3 35 -63 79 -133 43 -71 102 -171 131 -223 29 -52 68 -116 86 -143 54 -75 39 -76 -19 -1 -47 61 -84 115 -172 254 -12 19 -48 76 -80 125 -166 258 -242 384 -371 615 -32 58 -98 166 -147 240 -49 74 -115 189 -147 255 -55 114 -120 287 -120 320 0 31 31 14 51 -27 21 -46 21 -40 3 56 -10 55 11 38 25 -21z m2069 -50 c69 -70 350 -499 426 -650 43 -87 23 -112 -137 -168 -87 -31 -107 -41 -102 -54 4 -9 13 -47 21 -84 8 -38 18 -76 24 -86 16 -31 79 -283 82 -331 2 -37 0 -45 -16 -48 -26 -5 -79 49 -134 138 -25 41 -83 134 -128 205 -87 136 -170 299 -180 351 l-6 30 114 45 c62 24 116 43 120 41 26 -8 -8 164 -68 343 -41 124 -94 296 -94 308 0 20 36 2 78 -40z m-2160 -50 c-141 -338 -298 -651 -553 -1104 -233 -413 -499 -848 -511 -836 -4 4 90 177 302 557 60 107 117 209 126 225 9 17 55 98 101 180 128 227 330 617 377 730 60 143 119 267 137 288 27 29 39 4 21 -40z m-927 -1985 c121 -131 172 -320 148 -543 -19 -178 -35 -193 -30 -30 6 262 -33 400 -155 546 -18 22 -34 45 -34 50 0 21 43 7 71 -23z"/>
<path d="M7310 9851 c16 -44 48 -124 71 -178 70 -164 90 -233 83 -280 -8 -57 -19 -67 -89 -87 -89 -26 -147 -50 -152 -62 -6 -16 56 -146 119 -249 169 -276 211 -341 225 -355 14 -13 15 -11 9 26 -3 22 -23 99 -45 170 -35 113 -48 167 -68 275 -6 31 6 41 82 67 114 39 175 72 175 96 0 8 -28 51 -62 97 -35 47 -87 127 -117 179 -75 131 -239 380 -251 380 -5 0 4 -36 20 -79z"/>
<path d="M4980 7413 c-125 -13 -258 -56 -422 -139 -251 -126 -736 -415 -833 -496 -11 -10 -57 -44 -102 -78 -46 -33 -83 -63 -83 -66 0 -4 22 -32 48 -63 27 -31 63 -76 81 -100 17 -24 59 -69 92 -99 34 -31 118 -124 188 -207 178 -213 384 -454 466 -545 444 -492 753 -819 1056 -1115 195 -191 229 -228 229 -257 0 -49 -84 -41 -315 31 -175 54 -346 101 -367 101 -12 0 -1 -23 42 -87 32 -49 93 -144 136 -213 42 -69 114 -177 158 -240 45 -63 117 -169 160 -235 90 -137 72 -139 164 13 31 51 67 110 80 130 12 20 32 55 43 77 12 22 41 70 65 108 63 97 88 91 86 -24 -3 -157 -98 -512 -187 -694 -18 -38 -32 -71 -31 -73 10 -9 387 432 476 556 25 35 60 84 79 109 52 72 121 174 121 180 0 3 -6 3 -14 0 -33 -13 -249 86 -311 142 -105 94 -244 311 -331 514 -61 142 -40 130 47 -26 34 -61 83 -146 108 -187 l46 -75 6 45 c12 79 67 243 104 305 84 143 270 251 465 270 77 8 185 -12 259 -48 l50 -24 14 41 c10 29 19 41 33 41 17 0 19 -8 20 -64 l1 -64 76 -71 c42 -39 89 -90 106 -114 l29 -43 11 53 c46 237 58 357 72 713 6 167 6 321 1 405 -5 74 -7 138 -5 143 11 19 34 2 62 -45 134 -235 245 -525 311 -816 22 -95 32 -45 34 165 l1 198 -78 185 c-128 305 -171 388 -315 603 -103 154 -365 434 -525 562 -235 188 -586 378 -892 484 -66 23 -151 54 -190 70 -109 45 -125 50 -195 61 -60 9 -350 11 -430 3z m426 -673 c66 -26 265 -137 312 -173 35 -27 -9 -9 -155 63 -210 103 -250 115 -383 112 -58 -1 -127 -6 -155 -12 -27 -6 -63 -13 -79 -15 -16 -3 -47 -10 -70 -17 -22 -6 -50 -13 -60 -15 -41 -7 -108 -44 -224 -122 -67 -44 -125 -81 -129 -81 -4 0 6 14 23 31 34 36 187 133 259 164 126 55 402 108 521 100 36 -2 93 -17 140 -35z m33 -171 c112 -18 231 -49 272 -70 58 -29 47 -31 -24 -5 -64 25 -238 56 -317 57 -25 0 -142 -2 -260 -4 -203 -4 -262 -10 -285 -27 -14 -11 -161 -40 -202 -40 -48 0 -33 16 24 25 27 4 84 18 128 33 75 24 95 25 303 28 123 1 226 5 229 8 9 9 58 7 132 -5z m-146 -675 c156 -40 238 -113 236 -210 l-1 -49 -9 40 c-20 87 -119 159 -256 185 -127 25 -212 -2 -318 -101 -85 -80 -116 -81 -52 -1 103 130 241 177 400 136z"/>
<path d="M3623 7293 c-71 -89 -197 -258 -243 -325 -14 -20 -59 -83 -100 -140 -41 -56 -79 -110 -85 -119 -5 -9 -33 -50 -61 -90 -121 -177 -263 -436 -491 -899 -134 -272 -258 -533 -274 -580 -85 -238 -175 -680 -224 -1096 -56 -483 -68 -603 -74 -809 -14 -419 20 -691 129 -1018 60 -180 109 -287 184 -399 83 -126 253 -333 334 -410 111 -104 284 -240 375 -292 45 -27 94 -57 109 -67 15 -11 39 -19 53 -19 33 0 65 -33 66 -67 1 -16 7 6 14 48 28 162 125 479 147 479 6 0 7 -7 3 -17 -17 -39 -85 -345 -100 -446 -42 -296 5 -447 202 -657 90 -96 143 -136 250 -189 183 -92 377 -124 743 -125 293 -1 429 14 861 95 705 131 1468 522 2133 1092 113 97 407 394 575 582 214 239 358 506 805 1500 62 138 123 269 135 292 11 23 21 45 21 48 0 8 -198 -167 -425 -376 -211 -194 -343 -339 -499 -552 -31 -42 -61 -75 -67 -72 -5 4 -62 -43 -127 -103 -193 -181 -283 -255 -295 -243 -7 7 9 28 54 69 123 114 350 527 496 907 110 283 163 556 163 836 0 340 -68 630 -211 898 -88 164 -245 417 -355 571 -39 54 -298 379 -301 377 -1 -1 12 -40 28 -87 52 -146 68 -277 71 -562 1 -176 -2 -274 -12 -323 -9 -48 -12 -148 -11 -320 2 -264 -10 -415 -50 -609 -52 -259 -174 -615 -200 -589 -8 8 0 45 25 121 142 440 181 683 173 1071 -5 238 -18 327 -80 551 -40 144 -145 412 -207 530 l-29 55 -1 -170 c-1 -294 -24 -633 -56 -830 -76 -467 -179 -728 -500 -1271 -81 -137 -166 -289 -190 -338 -25 -50 -48 -93 -53 -96 -6 -3 -44 -59 -86 -125 -102 -159 -256 -365 -273 -365 -21 0 -13 14 96 177 204 306 321 519 392 718 56 155 142 428 150 476 5 25 13 63 19 85 33 126 64 329 97 634 8 76 -4 59 -66 -93 -106 -259 -274 -578 -398 -757 -157 -227 -394 -512 -586 -705 -87 -88 -122 -132 -174 -220 -78 -134 -126 -202 -230 -325 -111 -131 -177 -194 -196 -187 -28 11 -17 45 25 79 96 76 306 345 359 460 11 24 37 70 56 103 91 152 203 442 244 632 24 112 36 222 23 208 -6 -5 -54 -86 -108 -180 -169 -296 -383 -597 -594 -837 -208 -237 -464 -444 -771 -625 -47 -28 -139 -82 -205 -121 -169 -99 -274 -178 -395 -301 -124 -126 -218 -254 -297 -409 -60 -118 -87 -148 -52 -59 55 140 151 301 252 422 58 69 194 202 226 219 9 5 41 28 71 51 49 37 335 215 345 215 20 0 314 196 413 275 12 10 -53 98 -295 401 -154 192 -314 390 -357 439 -43 50 -116 142 -163 205 -48 63 -107 140 -133 170 -26 30 -60 75 -77 100 -43 63 -53 70 -187 139 -66 34 -128 69 -138 78 -36 32 -27 5 20 -59 198 -274 333 -452 432 -568 64 -74 146 -173 182 -220 36 -47 121 -148 188 -225 67 -77 164 -198 216 -270 51 -71 98 -136 104 -142 6 -7 8 -13 5 -13 -4 0 5 -21 19 -47 34 -59 27 -68 -7 -10 -56 95 -186 260 -336 427 -57 63 -131 149 -164 190 -34 41 -136 165 -227 275 -92 110 -208 259 -260 330 -52 72 -122 167 -157 213 -34 45 -74 104 -88 131 -13 27 -57 86 -96 132 -83 96 -147 191 -182 270 -13 30 -48 83 -79 119 -30 36 -89 111 -131 168 -43 57 -77 102 -77 100 -23 -165 -26 -243 -14 -324 8 -49 16 -152 19 -229 7 -146 32 -309 63 -411 11 -32 27 -86 36 -119 10 -33 33 -94 51 -135 18 -41 54 -127 80 -190 26 -63 76 -173 110 -245 34 -71 66 -141 70 -154 11 -36 20 -13 41 104 11 67 18 155 18 270 1 181 -6 228 -52 343 -23 59 -24 65 -8 80 15 15 19 13 57 -23 51 -51 207 -253 284 -370 77 -118 192 -339 228 -440 78 -218 116 -362 138 -515 17 -117 15 -328 -4 -420 l-16 -75 6 135 c16 396 -124 872 -371 1263 -48 76 -237 329 -242 324 -2 -1 5 -27 13 -57 11 -39 15 -107 16 -230 1 -185 -12 -285 -68 -515 -42 -175 -55 -272 -55 -421 0 -137 -7 -171 -30 -148 -5 5 -12 63 -16 129 -7 131 4 253 37 396 l20 86 -29 44 c-16 24 -36 62 -45 85 -8 22 -54 121 -100 220 -113 238 -194 432 -217 518 -10 39 -33 168 -52 286 -31 203 -33 230 -33 475 0 261 12 408 42 530 18 73 107 330 231 665 21 58 46 125 55 150 8 25 31 81 50 125 76 174 249 588 302 721 31 77 97 215 146 305 100 180 141 259 136 259 -2 0 -35 -39 -74 -87z"/>
<path d="M3047 5814 c-11 -20 -127 -388 -147 -470 -12 -49 -29 -101 -36 -116 -8 -15 -14 -31 -14 -36 0 -5 42 -12 93 -16 50 -3 165 -14 255 -23 89 -9 165 -13 168 -11 3 3 -11 34 -30 69 -19 35 -67 134 -106 219 -40 85 -92 197 -116 249 -24 51 -44 98 -44 105 0 17 -17 39 -23 30z"/>
<path d="M6433 4915 c-122 -33 -300 -155 -319 -219 -3 -11 -16 -35 -29 -51 -31 -41 -77 -195 -83 -278 l-5 -68 44 -40 c56 -52 159 -132 164 -127 2 2 -3 32 -10 68 -18 83 -19 219 -1 291 26 111 105 206 214 257 76 36 197 37 287 4 33 -13 64 -24 70 -25 13 -3 55 81 55 108 0 25 -52 58 -127 80 -60 18 -191 18 -260 0z"/>
<path d="M3708 4855 c-92 -23 -149 -55 -216 -121 -127 -127 -159 -262 -107 -450 15 -55 33 -109 41 -120 15 -24 152 -119 160 -111 3 3 -1 16 -9 29 -47 72 -90 300 -77 399 16 118 78 212 168 255 50 24 69 28 152 28 77 1 106 -4 152 -22 76 -30 156 -105 199 -184 l34 -63 0 -150 c-1 -142 -2 -154 -29 -215 -15 -36 -30 -71 -33 -79 -6 -14 73 37 162 106 68 53 72 69 54 218 -14 106 -22 136 -54 202 -49 99 -161 216 -250 259 -54 26 -71 29 -175 31 -73 1 -136 -3 -172 -12z"/>
<path d="M6894 4705 l-10 -86 29 -27 c42 -40 97 -161 106 -234 7 -60 8 -62 19 -35 7 16 24 74 39 129 l27 100 -29 57 c-27 50 -145 181 -164 181 -4 0 -12 -38 -17 -85z"/>
<path d="M6860 3961 c-8 -5 -33 -11 -55 -13 -44 -4 -41 2 -90 -188 -14 -52 -38 -130 -55 -173 -37 -96 -38 -105 -4 -47 14 25 41 70 59 100 65 107 175 313 175 325 0 7 -13 6 -30 -4z"/>
</g>
<g id="layer104" fill="#ba1d92" stroke="none">
<path d="M3311 6338 c-13 -22 -13 -22 6 -6 18 17 21 16 67 -31 l48 -49 -29 -39 c-15 -22 -77 -140 -137 -261 -61 -121 -113 -219 -118 -216 -4 3 -1 -12 6 -33 20 -56 189 -417 230 -493 65 -118 53 -128 -127 -107 -72 9 -178 19 -235 22 l-103 7 85 -82 c96 -92 172 -200 161 -227 -5 -15 -19 -4 -73 57 -108 121 -235 250 -247 250 -7 0 -17 -35 -24 -81 -13 -76 -12 -81 6 -102 11 -12 33 -44 50 -72 28 -46 87 -130 275 -389 40 -54 93 -133 119 -175 46 -74 84 -119 94 -110 2 3 -4 28 -15 56 -67 176 -30 357 100 497 105 111 227 159 415 160 133 1 195 -19 297 -95 145 -108 242 -297 250 -483 l2 -58 26 30 c36 43 110 170 171 293 62 124 85 159 105 159 24 0 16 -26 -51 -159 -131 -263 -216 -382 -348 -492 -151 -127 -332 -198 -473 -186 -62 5 -63 4 -52 -17 6 -11 30 -43 53 -71 23 -27 82 -104 130 -170 49 -66 141 -183 206 -260 135 -162 301 -377 402 -520 76 -106 206 -275 214 -275 2 0 -16 26 -41 58 l-45 59 52 39 c29 21 102 87 162 145 61 59 120 109 131 113 26 8 403 458 448 533 4 7 -47 84 -126 190 -73 98 -164 228 -202 288 -39 61 -107 168 -152 238 -47 72 -81 134 -77 143 6 16 55 19 99 5 78 -25 326 -92 330 -88 5 5 -157 162 -286 276 -140 125 -1131 1120 -1394 1399 -115 123 -221 229 -235 237 -15 7 -48 36 -74 64 -26 28 -51 51 -55 51 -4 0 -13 -10 -21 -22z"/>
<path d="M3260 6275 c-13 -14 -22 -27 -19 -29 2 -2 14 10 27 25 29 36 24 38 -8 4z"/>
<path d="M5550 3440 c-12 -16 -19 -30 -16 -30 2 0 14 14 26 30 12 17 19 30 16 30 -2 0 -14 -13 -26 -30z"/>
<path d="M5448 3298 c-51 -69 -99 -142 -75 -114 32 37 109 146 104 146 -3 0 -15 -15 -29 -32z"/>
<path d="M5286 3068 c-15 -23 -20 -35 -11 -28 15 13 50 70 42 70 -2 0 -16 -19 -31 -42z"/>
<path d="M5170 2942 c-41 -47 -77 -91 -79 -96 -5 -13 141 151 152 170 15 26 2 13 -73 -74z"/>
<path d="M4985 2743 c-74 -70 -77 -74 -20 -25 39 33 81 72 94 86 48 51 15 24 -74 -61z"/>
<path d="M4854 2628 l-29 -33 33 29 c17 17 32 31 32 33 0 8 -8 1 -36 -29z"/>
</g>
<g id="layer105" fill="#b99631" stroke="none">
<path d="M2524 10212 c-274 -302 -540 -641 -665 -849 -29 -48 -101 -160 -160 -249 -129 -193 -309 -508 -297 -519 26 -22 652 -163 952 -215 98 -17 272 -39 386 -50 l208 -20 174 71 c254 104 312 136 538 297 346 248 401 293 624 511 216 211 343 369 522 651 111 175 186 279 238 329 50 48 45 32 -12 -42 -27 -34 -95 -140 -152 -236 -189 -319 -330 -500 -576 -741 -191 -187 -249 -236 -489 -412 -234 -172 -349 -250 -420 -286 -83 -41 -300 -132 -316 -132 -8 0 -50 -16 -94 -36 -191 -86 -407 -143 -710 -189 -121 -19 -447 -23 -547 -7 -32 5 -58 5 -58 1 0 -22 240 -269 355 -367 72 -60 167 -153 213 -205 46 -53 125 -132 175 -175 51 -44 139 -121 197 -171 188 -164 464 -396 498 -420 19 -13 37 -20 41 -15 22 25 153 208 156 217 4 16 -236 193 -355 263 -124 73 -199 127 -295 214 -43 39 -130 107 -193 151 -123 86 -230 169 -302 234 -25 23 -68 55 -96 73 -27 17 -61 43 -74 57 -23 24 -23 26 -7 43 15 14 41 17 175 19 132 2 183 7 307 33 353 72 527 129 745 242 85 45 238 125 340 177 199 104 251 136 435 275 530 397 731 620 935 1042 78 162 171 324 185 324 3 0 1 -8 -5 -17 -5 -10 -44 -94 -86 -188 -109 -243 -164 -348 -232 -450 -80 -120 -199 -261 -308 -365 -142 -136 -553 -457 -699 -546 -54 -34 -488 -261 -651 -343 -56 -27 -157 -66 -225 -86 -68 -21 -143 -43 -166 -51 -23 -7 -122 -30 -220 -50 -143 -29 -206 -37 -317 -40 -76 -2 -141 -5 -143 -7 -2 -3 36 -33 84 -67 48 -35 133 -102 188 -150 55 -48 136 -111 180 -140 44 -29 109 -78 145 -110 103 -90 217 -173 325 -236 55 -32 158 -102 229 -156 72 -54 133 -98 137 -98 4 0 15 12 24 28 10 15 68 95 130 177 142 190 248 305 281 305 53 0 57 8 -168 -409 -49 -91 -87 -172 -86 -180 4 -19 45 -43 130 -75 l67 -25 48 38 c99 79 571 360 784 466 213 107 385 145 658 145 170 0 270 -18 405 -72 56 -22 152 -58 215 -80 63 -21 127 -46 142 -54 15 -8 29 -14 31 -14 2 0 3 84 3 187 0 225 14 285 103 456 63 123 156 235 185 224 26 -10 21 -22 -39 -89 -39 -44 -74 -100 -114 -183 -75 -155 -94 -236 -106 -455 -3 -69 -8 -127 -10 -130 -7 -14 19 -31 126 -80 147 -68 167 -80 357 -201 87 -56 204 -141 261 -191 l103 -89 157 79 c173 87 390 209 496 280 94 62 679 501 701 526 6 6 53 48 105 93 143 123 340 328 340 353 0 5 -48 11 -107 14 -334 20 -438 38 -773 136 -361 105 -487 149 -707 250 -413 188 -727 400 -978 659 -60 62 -183 185 -273 274 -174 171 -233 249 -316 414 -25 50 -64 120 -86 155 -45 68 -123 228 -116 236 9 8 27 -10 45 -47 11 -20 53 -87 94 -147 40 -60 100 -159 132 -221 72 -141 155 -244 288 -361 58 -51 140 -133 182 -183 315 -368 941 -744 1520 -913 66 -19 206 -60 310 -91 105 -31 222 -61 260 -67 l70 -11 100 53 c202 106 482 247 566 283 47 21 134 65 193 99 l106 60 -53 32 c-115 69 -382 286 -580 471 -59 55 -154 156 -211 225 -205 249 -316 436 -421 710 -37 96 -71 185 -76 197 l-9 23 -2622 0 -2623 -1 -61 -67z m2725 -189 c17 -66 135 -294 190 -367 129 -170 552 -664 647 -756 348 -337 737 -558 1307 -741 122 -40 276 -92 342 -116 66 -25 158 -53 205 -64 128 -31 150 -52 116 -117 -45 -86 -344 -322 -581 -457 -27 -16 -133 -84 -235 -151 -189 -125 -539 -318 -597 -330 -26 -5 -33 -3 -33 9 0 19 25 34 235 141 94 47 222 119 285 160 63 41 192 123 285 181 313 197 448 298 559 414 43 46 56 65 47 74 -6 6 -61 25 -123 43 -184 53 -729 239 -858 294 -66 27 -122 50 -124 50 -32 0 -348 176 -481 268 -279 192 -464 371 -750 727 -48 61 -113 139 -144 174 -129 146 -214 279 -277 430 -13 31 -23 49 -23 41 -1 -24 92 -232 139 -312 24 -40 78 -127 120 -193 43 -66 112 -183 155 -260 98 -176 199 -346 242 -406 18 -26 33 -49 33 -53 0 -3 35 -63 79 -133 43 -71 102 -171 131 -223 29 -52 71 -121 93 -153 22 -31 38 -60 35 -63 -22 -22 -451 641 -658 1016 -35 63 -102 176 -150 250 -104 161 -153 247 -203 357 -43 95 -87 223 -87 252 0 36 30 23 51 -21 21 -46 21 -40 3 56 -10 55 11 38 25 -21z m2069 -50 c69 -70 350 -499 426 -650 43 -87 23 -112 -137 -168 -87 -31 -107 -41 -102 -54 4 -9 13 -47 21 -84 8 -38 18 -76 24 -86 16 -31 79 -283 82 -331 2 -37 0 -45 -16 -48 -26 -5 -79 49 -134 138 -25 41 -83 134 -128 205 -87 136 -170 299 -180 351 l-6 30 114 45 c62 24 116 43 120 41 26 -8 -8 164 -68 343 -41 124 -94 296 -94 308 0 20 36 2 78 -40z m-2148 -24 c0 -11 -15 -50 -34 -87 -18 -37 -53 -112 -76 -167 -51 -121 -255 -520 -378 -740 -181 -323 -301 -533 -387 -675 -88 -145 -195 -303 -202 -297 -3 4 96 186 303 557 60 107 117 209 126 225 9 17 55 98 101 180 128 227 330 617 377 730 59 142 119 267 137 287 18 21 33 15 33 -13z m-936 -2012 c47 -49 107 -157 130 -237 27 -90 32 -232 11 -359 -10 -61 -20 -111 -24 -111 -3 0 -4 61 -2 136 3 147 -10 268 -39 351 -17 47 -81 152 -131 215 -21 25 -19 48 3 48 6 0 30 -19 52 -43z"/>
<path d="M7290 9917 c0 -13 54 -158 85 -227 51 -116 95 -247 95 -284 0 -59 -19 -78 -100 -103 -122 -37 -151 -53 -144 -77 15 -47 108 -221 167 -313 35 -54 82 -129 105 -168 23 -38 51 -81 62 -95 l21 -25 -7 40 c-3 22 -23 99 -44 170 -21 72 -44 157 -50 190 -7 33 -17 66 -22 72 -14 17 14 59 44 68 116 33 218 84 218 109 0 7 -25 46 -56 87 -30 41 -80 117 -111 169 -132 225 -263 418 -263 387z"/>
<path d="M4947 7405 c-116 -16 -166 -32 -307 -94 -178 -80 -683 -372 -850 -492 -153 -110 -240 -178 -240 -188 0 -18 144 -191 239 -286 54 -55 143 -154 197 -220 54 -66 130 -156 169 -200 39 -44 107 -123 150 -175 43 -52 125 -144 181 -205 56 -60 147 -162 204 -225 139 -157 782 -821 902 -931 103 -96 126 -135 94 -167 -15 -15 -23 -15 -100 1 -47 9 -142 35 -213 57 -165 52 -354 103 -359 97 -7 -7 180 -296 466 -720 l114 -168 17 23 c10 13 69 110 131 217 162 279 181 302 209 250 23 -45 -10 -252 -77 -474 -36 -120 -108 -309 -127 -333 -5 -7 -8 -14 -6 -16 10 -10 352 389 457 534 34 47 67 91 74 99 6 7 38 52 70 100 l59 86 -47 13 c-95 28 -242 111 -300 170 -60 61 -183 239 -232 337 -50 99 -102 217 -102 231 0 32 19 7 84 -114 39 -70 88 -156 110 -192 l41 -65 6 45 c12 79 67 243 104 305 84 143 270 251 465 270 77 8 185 -12 259 -48 l51 -24 12 39 c25 85 60 74 57 -19 l-2 -65 76 -72 c42 -39 89 -90 106 -114 l29 -43 11 53 c49 249 64 443 67 877 2 235 7 388 13 394 14 14 94 -116 157 -255 79 -175 149 -381 204 -597 20 -79 31 -30 33 150 l2 174 -79 195 c-92 227 -152 352 -243 498 -114 185 -162 244 -397 492 -55 58 -108 110 -118 115 -9 6 -48 36 -87 68 -120 100 -350 246 -506 322 -189 92 -247 116 -415 175 -74 26 -164 59 -199 74 -35 14 -103 33 -150 41 -105 18 -328 18 -464 0z m449 -655 c112 -45 327 -173 432 -258 l43 -35 -48 -24 c-53 -25 -93 -34 -288 -61 -110 -15 -139 -16 -190 -6 -94 20 -193 19 -252 -1 -73 -24 -161 -16 -423 37 -163 33 -216 48 -218 60 -4 22 91 105 186 162 150 89 390 153 589 155 81 1 102 -3 169 -29z m-68 -866 c141 -46 202 -107 202 -198 l-1 -51 -19 55 c-28 82 -97 132 -233 167 -127 32 -228 0 -336 -108 -42 -42 -66 -58 -73 -51 -34 34 115 170 222 203 55 17 159 9 238 -17z"/>
<path d="M3623 7293 c-71 -89 -197 -258 -243 -325 -14 -20 -59 -83 -100 -140 -41 -56 -79 -110 -85 -119 -5 -9 -33 -50 -61 -90 -121 -177 -263 -436 -491 -899 -134 -272 -258 -533 -274 -580 -85 -238 -175 -680 -224 -1096 -56 -483 -68 -603 -74 -809 -14 -419 20 -691 129 -1018 60 -180 109 -287 184 -399 83 -126 253 -333 334 -410 111 -104 284 -240 375 -292 45 -27 94 -57 109 -67 15 -11 39 -19 53 -19 33 0 65 -33 66 -67 1 -16 7 6 14 48 28 162 125 479 147 479 6 0 7 -7 3 -17 -17 -39 -85 -345 -100 -446 -42 -296 5 -447 202 -657 90 -96 143 -136 250 -189 183 -92 377 -124 743 -125 293 -1 429 14 861 95 705 131 1468 522 2133 1092 113 97 407 394 575 582 214 239 358 506 805 1500 62 138 123 269 135 292 11 23 21 45 21 48 0 8 -198 -167 -425 -376 -211 -194 -343 -339 -499 -552 -31 -42 -61 -75 -67 -72 -5 4 -62 -43 -127 -103 -193 -181 -283 -255 -295 -243 -7 7 9 28 54 69 123 114 350 527 496 907 110 283 163 556 163 836 0 340 -68 630 -211 898 -88 164 -245 417 -355 571 -39 54 -298 379 -301 377 -1 -1 12 -40 28 -87 52 -146 68 -277 71 -562 1 -176 -2 -274 -12 -323 -9 -48 -12 -148 -11 -320 2 -264 -10 -415 -50 -609 -52 -259 -174 -615 -200 -589 -8 8 0 45 25 121 142 440 181 683 173 1071 -5 238 -18 327 -80 551 -40 144 -145 412 -207 530 l-29 55 -1 -170 c-1 -294 -24 -633 -56 -830 -76 -467 -179 -728 -500 -1271 -81 -137 -166 -289 -190 -338 -25 -50 -48 -93 -53 -96 -6 -3 -44 -59 -86 -125 -102 -159 -256 -365 -273 -365 -21 0 -13 14 96 177 204 306 321 519 392 718 56 155 142 428 150 476 5 25 13 63 19 85 33 126 64 329 97 634 8 76 -4 59 -66 -93 -106 -259 -274 -578 -398 -757 -157 -227 -394 -512 -586 -705 -87 -88 -122 -132 -174 -220 -78 -134 -126 -202 -230 -325 -111 -131 -177 -194 -196 -187 -28 11 -17 45 25 79 96 76 306 345 359 460 11 24 37 70 56 103 90 150 204 445 243 629 25 115 37 225 24 211 -6 -5 -54 -86 -108 -180 -169 -296 -383 -597 -594 -837 -208 -237 -464 -444 -771 -625 -47 -28 -139 -82 -205 -121 -169 -99 -274 -178 -395 -301 -124 -126 -218 -254 -297 -409 -60 -118 -87 -148 -52 -59 81 206 217 403 391 566 114 107 231 187 486 333 106 60 317 197 387 251 22 17 41 32 43 33 13 7 -55 99 -295 400 -154 192 -314 390 -357 439 -43 50 -116 142 -163 205 -48 63 -107 140 -133 170 -26 30 -60 75 -77 100 -43 63 -53 70 -187 139 -66 34 -127 68 -136 76 -26 24 -34 17 -14 -12 17 -27 133 -185 300 -408 45 -60 121 -155 169 -210 48 -55 122 -145 165 -200 42 -55 132 -163 200 -240 187 -214 391 -507 369 -529 -2 -3 -24 28 -49 67 -55 91 -195 266 -335 422 -59 66 -149 172 -200 235 -51 63 -130 158 -175 210 -126 148 -464 601 -505 678 -16 29 -57 86 -92 125 -74 84 -140 180 -182 266 -16 34 -72 114 -124 178 -52 65 -111 142 -130 171 l-34 53 -13 -128 c-11 -111 -10 -141 4 -229 9 -56 16 -150 16 -210 0 -173 71 -484 150 -659 18 -38 50 -115 72 -170 22 -55 70 -165 107 -245 37 -80 72 -156 78 -170 9 -22 12 -13 27 66 48 261 41 469 -20 642 -14 39 -24 79 -20 87 17 46 69 -3 224 -208 264 -350 419 -698 488 -1092 21 -123 24 -360 5 -462 -15 -85 -37 -101 -28 -20 23 203 18 301 -28 532 -53 263 -176 566 -329 808 -48 76 -237 329 -242 324 -2 -1 5 -27 13 -57 11 -39 15 -107 16 -230 1 -185 -12 -285 -68 -515 -42 -175 -55 -272 -55 -421 0 -137 -7 -171 -30 -148 -5 5 -12 63 -16 129 -7 131 4 253 37 396 l20 86 -29 44 c-16 24 -36 62 -45 85 -8 22 -54 121 -100 220 -113 238 -194 432 -217 518 -10 39 -33 168 -52 286 -31 203 -33 230 -33 475 0 261 12 408 42 530 18 73 107 330 231 665 21 58 46 125 55 150 8 25 31 81 50 125 76 174 249 588 302 721 31 77 97 215 146 305 100 180 141 259 136 259 -2 0 -35 -39 -74 -87z"/>
<path d="M3048 5805 c-3 -6 -37 -113 -77 -240 -97 -312 -112 -358 -118 -372 -3 -10 11 -13 54 -13 52 0 247 -17 406 -36 l59 -7 -50 99 c-54 106 -257 539 -264 564 -2 7 -7 10 -10 5z"/>
<path d="M6461 4914 c-135 -29 -292 -126 -332 -207 -12 -23 -31 -55 -43 -72 -24 -33 -71 -189 -82 -271 l-6 -52 59 -58 c73 -73 160 -137 148 -108 -45 108 -40 324 10 423 37 74 112 146 191 183 55 26 78 31 142 31 49 0 91 -6 115 -16 l37 -16 30 66 c17 36 28 68 26 71 -3 2 -36 13 -73 23 -79 22 -133 23 -222 3z m-99 -146 c-6 -6 -15 -8 -19 -4 -4 4 -1 11 7 16 8 5 17 7 19 4 3 -2 -1 -10 -7 -16z"/>
<path d="M3741 4855 c-191 -35 -338 -177 -372 -359 -12 -66 -4 -132 32 -250 23 -77 67 -129 142 -168 l38 -19 -15 30 c-30 58 -67 208 -73 296 -7 110 9 175 64 259 32 48 49 64 106 92 163 83 354 36 472 -114 58 -74 78 -142 79 -270 l1 -104 28 34 c16 18 47 59 68 91 l40 58 -16 57 c-35 122 -118 236 -223 306 -113 75 -208 90 -371 61z"/>
<path d="M6996 4462 c13 -31 24 -66 24 -76 0 -20 0 -20 15 0 18 24 19 73 1 96 -7 10 -24 22 -38 27 l-25 9 23 -56z"/>
<path d="M6816 3946 l-48 -12 -38 -129 c-40 -141 -60 -199 -85 -259 -9 -21 -15 -40 -13 -42 6 -6 247 430 248 449 0 8 0 8 -64 -7z"/>
</g>
<g id="layer106" fill="#3a97b1" stroke="none">
<path d="M1934 10008 c-113 -150 -218 -289 -232 -308 -14 -19 -44 -55 -67 -80 -45 -49 -105 -139 -105 -159 0 -7 -9 -25 -21 -39 -81 -106 -403 -691 -388 -707 13 -12 154 -74 157 -68 1 5 17 51 36 103 72 206 198 472 312 659 228 373 247 399 409 581 74 83 215 268 215 281 0 5 -24 9 -54 9 l-55 0 -207 -272z"/>
<path d="M2318 10272 c-9 -4 -41 -42 -71 -85 -29 -43 -120 -156 -202 -252 -194 -227 -415 -568 -554 -859 -134 -277 -201 -424 -201 -440 0 -9 94 -35 100 -29 4 5 24 51 44 103 50 126 114 243 233 426 54 83 114 179 133 213 97 173 298 442 527 707 115 134 171 204 172 217 1 9 -158 8 -181 -1z"/>
<path d="M2524 10212 c-274 -302 -540 -641 -665 -849 -29 -48 -101 -160 -160 -249 -129 -193 -309 -508 -297 -519 26 -22 652 -163 952 -215 98 -17 272 -39 386 -50 l208 -20 174 71 c254 104 312 136 538 297 346 248 401 293 624 511 216 211 343 369 522 651 111 175 186 279 238 329 50 48 45 32 -12 -42 -27 -34 -95 -140 -152 -236 -189 -319 -330 -500 -576 -741 -191 -187 -249 -236 -489 -412 -234 -172 -349 -250 -420 -286 -83 -41 -300 -132 -316 -132 -8 0 -50 -16 -94 -36 -191 -86 -407 -143 -710 -189 -121 -19 -447 -23 -547 -7 -32 5 -58 5 -58 1 0 -22 240 -269 355 -367 72 -60 167 -153 213 -205 46 -53 125 -132 175 -175 51 -44 139 -121 197 -171 188 -164 464 -396 498 -420 19 -13 37 -20 41 -15 22 25 153 208 156 217 4 16 -236 193 -355 263 -124 73 -199 127 -295 214 -43 39 -130 107 -193 151 -123 86 -230 169 -302 234 -25 23 -68 55 -96 73 -27 17 -61 43 -74 57 -23 24 -23 26 -7 43 15 14 41 17 175 19 132 2 183 7 307 33 353 72 527 129 745 242 85 45 238 125 340 177 199 104 251 136 435 275 530 397 731 620 935 1042 78 162 171 324 185 324 3 0 1 -8 -5 -17 -5 -10 -44 -94 -86 -188 -109 -243 -164 -348 -232 -450 -80 -120 -199 -261 -308 -365 -142 -136 -553 -457 -699 -546 -54 -34 -488 -261 -651 -343 -56 -27 -157 -66 -225 -86 -68 -21 -143 -43 -166 -51 -23 -7 -122 -30 -220 -50 -143 -29 -206 -37 -317 -40 -76 -2 -141 -5 -143 -7 -2 -3 36 -33 84 -67 48 -35 133 -102 188 -150 55 -48 136 -111 180 -140 44 -29 109 -78 145 -110 103 -90 217 -173 325 -236 55 -32 158 -102 229 -156 72 -54 133 -98 137 -98 4 0 15 12 24 28 10 15 68 95 130 177 142 190 248 305 281 305 53 0 57 8 -168 -409 -49 -91 -87 -172 -86 -180 4 -19 45 -43 130 -75 l67 -25 48 38 c55 44 342 223 485 302 l95 53 2 156 c2 162 -14 291 -45 365 -21 51 -77 138 -125 195 -26 30 -39 56 -39 76 l-1 29 -24 -30 c-14 -16 -25 -27 -25 -24 0 7 122 229 306 559 60 107 117 209 126 225 9 17 55 98 101 180 128 227 330 617 377 730 59 141 119 267 137 287 8 9 20 15 27 12 9 -3 11 4 8 26 -7 47 25 39 49 -12 l19 -43 -6 40 c-3 22 -8 53 -11 69 -10 48 13 22 26 -31 17 -66 135 -294 190 -367 129 -170 552 -664 647 -756 348 -337 737 -558 1307 -741 122 -40 276 -92 342 -116 66 -25 158 -53 205 -64 128 -31 150 -52 116 -117 -45 -86 -344 -322 -581 -457 -27 -16 -133 -84 -235 -151 -189 -125 -539 -318 -597 -330 -26 -5 -33 -3 -33 9 0 19 25 34 235 141 94 47 222 119 285 160 63 41 192 123 285 181 313 197 448 298 559 414 43 46 56 65 47 74 -6 6 -61 25 -123 43 -184 53 -729 239 -858 294 -66 27 -122 50 -124 50 -32 0 -348 176 -481 268 -279 192 -464 371 -750 727 -48 61 -113 139 -144 174 -129 146 -214 279 -277 430 -13 31 -23 49 -23 41 -1 -24 92 -232 139 -312 24 -40 78 -127 120 -193 43 -66 112 -183 155 -260 98 -176 199 -346 242 -406 18 -26 33 -49 33 -53 0 -3 35 -63 79 -133 43 -71 103 -173 134 -228 31 -55 72 -122 91 -150 20 -27 36 -55 36 -61 0 -7 9 -14 20 -17 11 -3 20 -10 20 -16 0 -5 -25 -39 -56 -73 -39 -44 -74 -100 -114 -183 -75 -155 -94 -236 -106 -455 -3 -69 -8 -127 -10 -130 -7 -14 19 -31 126 -80 147 -68 167 -80 357 -201 87 -56 204 -141 261 -191 l103 -89 157 79 c173 87 390 209 496 280 94 62 679 501 701 526 6 6 53 48 105 93 143 123 340 328 340 353 0 5 -48 11 -107 14 -334 20 -438 38 -773 136 -361 105 -487 149 -707 250 -413 188 -727 400 -978 659 -60 62 -183 185 -273 274 -174 171 -233 249 -316 414 -25 50 -64 120 -86 155 -45 68 -123 228 -116 236 9 8 27 -10 45 -47 11 -20 53 -87 94 -147 40 -60 100 -159 132 -221 72 -141 155 -244 288 -361 58 -51 140 -133 182 -183 315 -368 941 -744 1520 -913 66 -19 206 -60 310 -91 105 -31 222 -61 260 -67 l70 -11 100 53 c202 106 482 247 566 283 47 21 134 65 193 99 l106 60 -53 32 c-115 69 -382 286 -580 471 -59 55 -154 156 -211 225 -205 249 -316 436 -421 710 -37 96 -71 185 -76 197 l-9 23 -2622 0 -2623 -1 -61 -67z m4794 -239 c69 -70 350 -499 426 -650 43 -87 23 -112 -137 -168 -87 -31 -107 -41 -102 -54 4 -9 13 -47 21 -84 8 -38 18 -76 24 -86 16 -31 79 -283 82 -331 2 -37 0 -45 -16 -48 -26 -5 -79 49 -134 138 -25 41 -83 134 -128 205 -87 136 -170 299 -180 351 l-6 30 114 45 c62 24 116 43 120 41 26 -8 -8 164 -68 343 -41 124 -94 296 -94 308 0 20 36 2 78 -40z"/>
<path d="M7880 10272 c0 -40 124 -345 191 -471 199 -370 457 -648 991 -1064 l138 -108 40 21 c22 11 40 24 40 29 0 10 -58 56 -152 119 -145 98 -531 432 -649 563 -159 177 -272 331 -352 479 -46 85 -144 318 -168 398 -11 39 -15 42 -46 42 -18 0 -33 -4 -33 -8z"/>
<path d="M7990 10270 c0 -5 20 -63 45 -129 109 -294 268 -543 499 -779 143 -148 468 -432 596 -522 41 -29 96 -73 122 -98 l47 -45 45 29 c25 16 46 32 46 35 0 3 -24 26 -52 50 -110 92 -438 401 -563 530 -71 74 -168 184 -215 244 -47 59 -113 143 -147 185 -34 43 -77 102 -96 131 -47 73 -152 284 -167 337 l-13 42 -74 0 c-40 0 -73 -4 -73 -10z"/>
<path d="M1310 8575 c7 -8 24 -15 39 -15 25 1 25 1 -8 15 -42 19 -47 19 -31 0z"/>
<path d="M5012 7409 c-119 -13 -219 -35 -252 -56 -88 -56 -600 -424 -760 -546 -111 -85 -276 -225 -323 -274 l-28 -30 21 -25 c11 -15 20 -29 20 -33 0 -4 43 -48 95 -97 52 -50 134 -138 182 -197 48 -58 117 -140 153 -181 37 -41 118 -136 180 -210 63 -74 166 -191 230 -260 64 -69 175 -190 247 -270 153 -170 622 -653 800 -825 118 -114 124 -122 121 -155 -3 -33 -5 -35 -44 -38 -43 -3 -116 14 -294 68 -120 37 -344 99 -347 97 -1 -1 22 -38 52 -82 29 -44 83 -129 120 -190 37 -60 111 -173 165 -250 54 -77 114 -166 134 -198 20 -32 41 -55 46 -52 17 11 121 195 186 333 64 135 84 161 93 116 2 -10 10 -23 18 -27 8 -5 23 -22 33 -39 18 -30 18 -30 29 -9 14 25 43 27 61 6 27 -32 -8 -282 -61 -443 -12 -35 -18 -66 -14 -70 15 -15 176 172 287 334 65 94 120 178 123 186 4 10 -19 27 -82 58 -115 56 -199 143 -306 314 -87 137 -190 355 -176 370 11 12 4 22 79 -114 34 -63 84 -149 109 -190 l46 -75 6 45 c12 79 67 243 104 305 84 144 271 252 465 270 81 8 198 -14 263 -48 l47 -25 13 46 c10 34 20 48 34 50 17 3 24 19 42 110 38 191 52 323 58 542 9 349 -28 565 -137 785 -71 144 -210 355 -293 445 -30 32 -201 138 -332 207 -218 113 -395 182 -745 289 -114 34 -137 38 -255 40 -71 1 -168 -2 -213 -7z m459 -675 c130 -64 314 -186 362 -240 l37 -42 -55 -26 c-39 -18 -91 -31 -173 -41 -64 -8 -137 -20 -162 -25 -31 -8 -66 -7 -115 0 -148 23 -196 24 -276 1 -91 -25 -132 -26 -218 -4 -36 9 -147 32 -245 52 -100 20 -181 41 -183 48 -2 6 11 29 29 50 19 21 42 50 51 65 25 40 146 122 233 158 106 44 216 58 430 56 l180 -1 105 -51z m-200 -828 c115 -25 231 -98 259 -165 13 -32 10 -96 -5 -96 -5 0 -13 19 -18 42 -21 107 -234 202 -381 171 -72 -15 -97 -30 -175 -103 -38 -36 -74 -65 -80 -65 -26 0 -7 45 41 97 60 62 121 101 187 119 61 17 93 16 172 0z m1578 -908 c1 -20 -7 -22 -27 -9 -11 6 -11 13 0 35 11 25 13 26 19 9 4 -10 8 -26 8 -35z"/>
<path d="M3435 6500 c-33 -39 -61 -75 -63 -79 -2 -5 22 -31 54 -57 31 -27 93 -92 137 -144 139 -163 338 -371 742 -776 215 -214 446 -448 515 -520 69 -71 202 -203 296 -294 94 -91 197 -199 230 -242 57 -74 61 -77 129 -97 96 -28 175 -44 183 -37 3 4 -71 82 -165 174 -237 231 -641 648 -803 827 -74 83 -175 193 -224 245 -49 52 -134 149 -189 215 -55 66 -130 154 -167 195 -36 41 -109 127 -162 190 -52 63 -151 169 -219 234 -68 66 -146 145 -173 175 -27 31 -52 57 -55 59 -4 1 -33 -30 -66 -68z"/>
<path d="M2821 5049 c-13 -76 -12 -81 6 -102 11 -12 33 -44 50 -72 28 -46 87 -130 275 -389 40 -54 93 -133 119 -175 46 -74 84 -119 94 -110 2 3 -4 28 -15 56 -67 176 -30 357 100 497 105 111 227 159 415 160 133 1 195 -19 297 -95 145 -108 242 -297 250 -483 l2 -58 26 30 c36 44 112 173 177 304 31 62 67 123 79 135 l23 23 -90 44 c-49 25 -99 48 -112 51 -12 4 -85 38 -162 76 -182 90 -262 111 -425 111 -205 1 -388 -46 -617 -157 -62 -30 -116 -55 -119 -55 -4 0 -15 -7 -24 -15 -15 -14 -23 -9 -81 57 -99 114 -231 248 -244 248 -7 0 -17 -35 -24 -81z"/>
<path d="M3425 4073 c10 -16 43 -62 75 -103 31 -41 100 -134 153 -207 105 -144 148 -199 272 -343 44 -52 111 -133 147 -180 36 -47 121 -148 188 -225 133 -153 313 -394 367 -492 l35 -63 61 47 c34 26 63 47 65 48 12 9 -54 99 -295 401 -154 192 -314 390 -357 439 -43 50 -116 142 -163 205 -48 63 -107 140 -133 170 -26 30 -60 75 -77 100 -43 63 -53 70 -187 139 -66 34 -127 68 -136 76 -26 24 -34 17 -15 -12z"/>
</g>
<g id="layer107" fill="#9c569a" stroke="none">
<path d="M1934 10008 c-113 -150 -218 -289 -232 -308 -14 -19 -44 -55 -67 -80 -46 -50 -105 -139 -105 -160 0 -7 -7 -21 -15 -30 -14 -16 -71 -110 -217 -359 -63 -108 -178 -331 -178 -346 0 -10 51 -39 126 -71 l31 -13 38 117 c44 138 205 476 305 641 228 375 252 409 415 591 74 83 215 268 215 281 0 5 -24 9 -54 9 l-55 0 -207 -272z"/>
<path d="M2322 10273 c-7 -3 -31 -33 -54 -66 -55 -81 -91 -127 -220 -275 -150 -172 -178 -213 -401 -577 -112 -182 -364 -706 -346 -718 2 -1 21 -10 42 -20 l38 -17 25 55 c13 31 24 58 24 61 0 25 148 294 241 436 63 97 143 223 177 280 80 132 258 369 425 566 137 163 184 220 205 250 l23 32 -83 -1 c-46 0 -89 -3 -96 -6z"/>
<path d="M2524 10212 c-274 -302 -540 -641 -665 -849 -29 -48 -101 -160 -160 -249 -129 -193 -309 -508 -297 -519 26 -22 652 -163 952 -215 98 -17 272 -39 386 -50 l208 -20 174 71 c254 104 312 136 538 297 346 248 401 293 624 511 216 211 343 369 522 651 111 175 186 279 238 329 50 48 45 32 -12 -42 -27 -34 -95 -140 -152 -236 -189 -319 -330 -500 -576 -741 -191 -187 -249 -236 -489 -412 -234 -172 -349 -250 -420 -286 -83 -41 -300 -132 -316 -132 -8 0 -50 -16 -94 -36 -191 -86 -407 -143 -710 -189 -121 -19 -447 -23 -547 -7 -32 5 -58 5 -58 1 0 -22 240 -269 355 -367 72 -60 167 -153 213 -205 46 -53 125 -132 175 -175 51 -44 139 -121 197 -171 188 -164 464 -396 498 -420 19 -13 37 -20 41 -15 22 25 153 208 156 217 4 16 -236 193 -355 263 -124 73 -199 127 -295 214 -43 39 -130 107 -193 151 -123 86 -230 169 -302 234 -25 23 -68 55 -96 73 -27 17 -61 43 -74 57 -23 24 -23 26 -7 43 15 14 41 17 175 19 132 2 183 7 307 33 353 72 527 129 745 242 85 45 238 125 340 177 199 104 251 136 435 275 532 398 725 614 941 1051 51 105 106 213 121 241 15 27 34 64 41 82 8 19 23 34 37 38 34 8 79 -9 84 -32 1 -10 9 -26 16 -34 7 -8 19 -35 25 -60 18 -66 136 -293 189 -364 129 -170 552 -664 647 -756 348 -337 737 -558 1307 -741 122 -40 276 -92 342 -116 66 -25 158 -53 205 -64 128 -31 150 -52 116 -117 -22 -41 -160 -171 -266 -248 -100 -74 -118 -86 -350 -234 -80 -51 -181 -116 -225 -145 -190 -124 -544 -315 -587 -316 l-23 0 25 -17 c14 -9 74 -59 133 -110 l108 -93 157 79 c173 87 390 209 496 280 94 62 679 501 701 526 6 6 53 48 105 93 143 123 340 328 340 353 0 5 -48 11 -107 14 -334 20 -438 38 -773 136 -361 105 -487 149 -707 250 -413 188 -727 400 -978 659 -60 62 -183 185 -273 274 -174 171 -233 249 -316 414 -25 50 -64 120 -86 155 -45 68 -123 228 -116 236 9 8 27 -10 45 -47 11 -20 53 -87 94 -147 40 -60 100 -159 132 -221 72 -141 155 -244 288 -361 58 -51 140 -133 182 -183 315 -368 941 -744 1520 -913 66 -19 206 -60 310 -91 105 -31 222 -61 260 -67 l70 -11 100 53 c202 106 482 247 566 283 47 21 134 65 193 99 l106 60 -53 32 c-115 69 -382 286 -580 471 -59 55 -154 156 -211 225 -205 249 -316 436 -421 710 -37 96 -71 185 -76 197 l-9 23 -2622 0 -2623 -1 -61 -67z m4794 -239 c69 -70 350 -499 426 -650 43 -87 23 -112 -137 -168 -87 -31 -107 -41 -102 -54 4 -9 13 -47 21 -84 8 -38 18 -76 24 -86 16 -31 79 -283 82 -331 2 -37 0 -45 -16 -48 -26 -5 -79 49 -134 138 -25 41 -83 134 -128 205 -87 136 -170 299 -180 351 l-6 30 114 45 c62 24 116 43 120 41 26 -8 -8 164 -68 343 -41 124 -94 296 -94 308 0 20 36 2 78 -40z"/>
<path d="M7319 9838 c16 -46 47 -123 68 -173 67 -151 93 -231 87 -267 -12 -61 -28 -75 -131 -108 -54 -17 -104 -35 -112 -39 -25 -16 87 -223 306 -563 20 -32 38 -57 39 -55 5 6 -27 133 -59 232 -19 61 -38 135 -42 165 -4 30 -12 62 -18 72 -9 13 -7 21 7 37 18 20 29 25 135 62 35 13 77 34 92 47 34 28 32 34 -41 127 -26 33 -68 96 -93 140 -81 145 -250 405 -262 405 -2 0 9 -37 24 -82z"/>
<path d="M7880 10269 c0 -7 32 -93 71 -193 200 -508 477 -842 1089 -1316 52 -40 109 -86 125 -101 l30 -27 43 22 44 22 -36 32 c-20 17 -71 55 -114 83 -91 61 -184 137 -382 310 -321 281 -514 516 -653 794 -48 96 -131 296 -152 363 -5 16 -14 22 -36 22 -16 0 -29 -5 -29 -11z"/>
<path d="M7995 10253 c10 -41 112 -287 155 -373 79 -157 227 -358 384 -518 143 -148 468 -432 596 -522 41 -29 96 -73 122 -98 l47 -45 45 29 c25 16 46 32 46 35 0 3 -24 26 -52 50 -110 92 -438 401 -563 530 -71 74 -168 184 -215 244 -47 59 -113 143 -147 185 -34 43 -77 102 -96 131 -47 73 -152 284 -167 337 l-13 42 -75 0 -74 0 7 -27z"/>
<path d="M9190 10270 c113 -3 223 -2 245 1 22 4 -70 6 -205 6 l-245 -1 205 -6z"/>
<path d="M9074 9258 l-29 -33 33 29 c30 28 37 36 29 36 -2 0 -16 -15 -33 -32z"/>
<path d="M4489 9084 c-47 -49 -357 -301 -502 -408 -166 -123 -227 -160 -442 -271 -104 -54 -208 -108 -230 -120 -224 -126 -332 -169 -610 -240 -255 -65 -326 -77 -493 -82 l-163 -5 85 -59 c46 -33 126 -97 178 -142 51 -46 135 -111 186 -146 51 -34 123 -88 161 -121 l69 -59 69 19 c242 67 568 206 713 304 166 112 415 424 637 796 138 234 191 313 324 493 32 42 57 77 55 77 -1 0 -18 -16 -37 -36z"/>
<path d="M9080 9107 c0 -2 15 -16 33 -33 l32 -29 -29 33 c-28 30 -36 37 -36 29z"/>
<path d="M1315 8570 c3 -5 18 -10 32 -10 32 0 28 5 -10 14 -19 4 -26 3 -22 -4z"/>
<path d="M1465 8530 c11 -5 27 -9 35 -9 9 0 8 4 -5 9 -11 5 -27 9 -35 9 -9 0 -8 -4 5 -9z"/>
<path d="M2723 8283 c9 -2 25 -2 35 0 9 3 1 5 -18 5 -19 0 -27 -2 -17 -5z"/>
<path d="M1808 8123 c12 -2 30 -2 40 0 9 3 -1 5 -23 4 -22 0 -30 -2 -17 -4z"/>
<path d="M2118 8123 c12 -2 32 -2 45 0 12 2 2 4 -23 4 -25 0 -35 -2 -22 -4z"/>
<path d="M8353 8103 c9 -2 25 -2 35 0 9 3 1 5 -18 5 -19 0 -27 -2 -17 -5z"/>
<path d="M8493 8093 c20 -2 54 -2 75 0 20 2 3 4 -38 4 -41 0 -58 -2 -37 -4z"/>
<path d="M8706 8080 c7 -8 14 -24 17 -35 4 -19 5 -19 6 1 0 12 -7 28 -16 35 -16 12 -17 12 -7 -1z"/>
<path d="M8641 7912 l-54 -67 47 45 c45 43 72 78 64 85 -2 2 -28 -26 -57 -63z"/>
<path d="M8449 7723 l-34 -38 38 34 c20 19 37 36 37 38 0 8 -8 0 -41 -34z"/>
<path d="M2106 7578 c38 -42 71 -74 73 -72 3 3 -28 37 -69 77 l-73 72 69 -77z"/>
<path d="M2250 7425 c19 -19 36 -35 39 -35 3 0 -10 16 -29 35 -19 19 -36 35 -39 35 -3 0 10 -16 29 -35z"/>
<path d="M5012 7409 c-119 -13 -219 -35 -252 -56 -38 -24 -363 -254 -525 -372 -258 -187 -399 -299 -527 -420 -51 -48 -56 -56 -46 -75 6 -11 66 -77 133 -146 66 -69 152 -163 190 -210 38 -47 99 -119 135 -160 37 -41 118 -136 180 -210 63 -74 166 -191 230 -260 64 -69 175 -190 247 -270 153 -170 622 -653 800 -825 118 -114 124 -122 121 -155 -3 -33 -5 -35 -44 -38 -43 -3 -116 14 -294 68 -120 37 -344 99 -347 97 -1 -1 22 -38 52 -82 29 -44 83 -129 120 -190 37 -60 111 -173 165 -250 54 -77 114 -166 134 -198 20 -32 41 -55 46 -52 17 11 121 195 186 333 64 135 84 161 93 116 2 -10 10 -23 18 -27 8 -5 23 -22 33 -39 18 -30 18 -30 29 -9 14 25 43 27 61 6 27 -32 -8 -282 -61 -443 -12 -35 -18 -66 -14 -70 15 -15 176 172 287 334 65 94 120 178 123 186 4 10 -19 27 -82 58 -115 56 -199 143 -306 314 -87 137 -190 355 -176 370 11 12 4 22 79 -114 34 -63 84 -149 109 -190 l46 -75 6 45 c12 79 67 243 104 305 84 144 271 252 465 270 81 8 198 -14 263 -48 l47 -25 13 46 c10 34 20 48 34 50 17 3 24 19 42 110 38 191 52 323 58 542 9 349 -28 565 -137 785 -71 144 -210 355 -293 445 -30 32 -201 138 -332 207 -218 113 -395 182 -745 289 -114 34 -137 38 -255 40 -71 1 -168 -2 -213 -7z m459 -675 c130 -64 314 -186 362 -240 l37 -42 -55 -26 c-39 -18 -91 -31 -173 -41 -64 -8 -137 -20 -162 -25 -31 -8 -66 -7 -115 0 -148 23 -196 24 -276 1 -91 -25 -132 -26 -218 -4 -36 9 -147 32 -245 52 -100 20 -181 41 -183 48 -2 6 11 29 29 50 19 21 42 50 51 65 25 40 146 122 233 158 106 44 216 58 430 56 l180 -1 105 -51z m-200 -828 c115 -25 231 -98 259 -165 13 -32 10 -96 -5 -96 -5 0 -13 19 -18 42 -21 107 -234 202 -381 171 -72 -15 -97 -30 -175 -103 -38 -36 -74 -65 -80 -65 -26 0 -7 45 41 97 60 62 121 101 187 119 61 17 93 16 172 0z m1578 -908 c1 -20 -7 -22 -27 -9 -11 6 -11 13 0 35 11 25 13 26 19 9 4 -10 8 -26 8 -35z"/>
<path d="M2318 7345 c47 -58 65 -76 71 -70 3 3 -19 29 -49 58 -46 45 -49 47 -22 12z"/>
<path d="M3623 7293 c-71 -89 -197 -258 -243 -325 -14 -20 -59 -83 -100 -140 -41 -56 -79 -110 -85 -119 -5 -9 -33 -50 -61 -90 -121 -177 -263 -436 -491 -899 -134 -272 -258 -533 -274 -580 -85 -238 -175 -680 -224 -1096 -56 -483 -68 -603 -74 -809 -14 -419 20 -691 129 -1018 60 -180 109 -287 184 -399 83 -126 253 -333 334 -410 111 -104 284 -240 375 -292 45 -27 94 -57 109 -67 15 -11 39 -19 53 -19 33 0 65 -33 66 -67 1 -16 7 6 14 48 28 162 125 479 147 479 6 0 7 -7 3 -17 -17 -39 -85 -345 -100 -446 -42 -296 5 -447 202 -657 90 -96 143 -136 250 -189 183 -92 377 -124 743 -125 293 -1 429 14 861 95 705 131 1468 522 2133 1092 113 97 407 394 575 582 214 239 358 506 805 1500 62 138 123 269 135 292 11 23 21 45 21 48 0 8 -198 -167 -425 -376 -211 -194 -343 -339 -499 -552 -31 -42 -61 -75 -67 -72 -5 4 -62 -43 -127 -103 -193 -181 -283 -255 -295 -243 -7 7 9 28 54 69 123 114 350 527 496 907 110 283 163 556 163 836 0 340 -68 630 -211 898 -88 164 -245 417 -355 571 -39 54 -298 379 -301 377 -1 -1 12 -40 28 -87 52 -146 68 -277 71 -562 1 -176 -2 -274 -12 -323 -9 -48 -12 -148 -11 -320 2 -264 -10 -415 -50 -609 -52 -259 -174 -615 -200 -589 -8 8 0 45 25 121 142 440 181 683 173 1071 -5 238 -18 327 -80 551 -40 144 -145 412 -207 530 l-29 55 -1 -170 c-1 -294 -24 -633 -56 -830 -76 -467 -179 -728 -500 -1271 -81 -137 -166 -289 -190 -338 -25 -50 -48 -93 -53 -96 -6 -3 -44 -59 -86 -125 -102 -159 -256 -365 -273 -365 -21 0 -13 14 96 177 204 306 321 519 392 718 56 155 142 428 150 476 5 25 13 63 19 85 33 126 64 329 97 634 8 76 -4 59 -66 -93 -106 -259 -274 -578 -398 -757 -157 -227 -394 -512 -586 -705 -87 -88 -122 -132 -174 -220 -78 -134 -126 -202 -230 -325 -111 -131 -177 -194 -196 -187 -28 11 -17 45 25 79 96 76 306 345 359 460 11 24 37 70 56 103 90 150 204 445 243 629 25 115 37 225 24 211 -6 -5 -54 -86 -108 -180 -169 -296 -383 -597 -594 -837 -208 -237 -464 -444 -771 -625 -47 -28 -139 -82 -205 -121 -169 -99 -274 -178 -395 -301 -124 -126 -218 -254 -297 -409 -60 -118 -87 -148 -52 -59 77 196 206 387 369 547 37 36 55 56 42 45 -22 -18 -24 -18 -19 -2 4 9 14 83 23 165 14 125 15 164 5 262 -37 360 -165 727 -365 1043 -48 76 -237 329 -242 324 -2 -1 5 -27 13 -57 11 -39 15 -107 16 -230 1 -185 -12 -285 -68 -515 -42 -175 -55 -272 -55 -421 0 -137 -7 -171 -30 -148 -5 5 -12 63 -16 129 -7 131 4 253 37 396 l20 86 -29 44 c-16 24 -36 62 -45 85 -8 22 -54 121 -100 220 -113 238 -194 432 -217 518 -10 39 -33 168 -52 286 -31 203 -33 230 -33 475 0 261 12 408 42 530 18 73 107 330 231 665 21 58 46 125 55 150 8 25 31 81 50 125 76 174 249 588 302 721 31 77 97 215 146 305 100 180 141 259 136 259 -2 0 -35 -39 -74 -87z"/>
<path d="M1855 7170 c27 -27 51 -50 54 -50 3 0 -17 23 -44 50 -27 28 -51 50 -54 50 -3 0 17 -22 44 -50z"/>
<path d="M2020 6995 c19 -19 36 -35 39 -35 3 0 -10 16 -29 35 -19 19 -36 35 -39 35 -3 0 10 -16 29 -35z"/>
<path d="M2080 6927 c0 -2 15 -16 33 -33 l32 -29 -29 33 c-28 30 -36 37 -36 29z"/>
<path d="M3480 6834 c-6 -16 -32 -80 -56 -143 -37 -90 -43 -115 -32 -122 7 -5 17 -9 21 -9 5 0 59 48 121 106 l112 107 -50 27 c-28 14 -64 34 -78 44 -28 18 -28 18 -38 -10z"/>
<path d="M7830 6691 c-19 -11 -39 -17 -44 -14 -5 4 -6 1 -2 -5 5 -9 18 -6 47 8 21 11 39 23 39 25 0 7 0 7 -40 -14z"/>
<path d="M1545 6320 c71 -71 132 -130 135 -130 2 0 -54 59 -125 130 -71 72 -132 130 -135 130 -2 0 54 -58 125 -130z"/>
<path d="M3570 6423 c-12 -15 -37 -44 -55 -64 l-33 -36 80 -94 c199 -232 454 -500 718 -754 75 -71 243 -242 375 -380 132 -137 267 -274 300 -305 152 -140 323 -313 386 -391 l70 -86 109 -27 c59 -16 113 -27 119 -25 5 2 -169 184 -387 404 -514 518 -840 875 -1308 1435 -111 132 -314 338 -343 348 -5 2 -19 -10 -31 -25z"/>
<path d="M2049 5705 c5 -11 17 -29 26 -40 l16 -20 -10 20 c-5 11 -17 29 -26 40 l-16 20 10 -20z"/>
<path d="M2286 5132 c-4 -7 0 -19 8 -28 17 -17 19 -11 7 20 -5 14 -10 16 -15 8z"/>
<path d="M3820 5050 c-161 -16 -324 -66 -507 -155 -62 -30 -116 -55 -119 -55 -4 0 -16 -8 -26 -17 -18 -16 -21 -14 -66 38 -25 30 -76 85 -112 123 l-66 68 -19 -95 -19 -95 60 -81 c32 -45 64 -89 69 -99 19 -32 99 -147 155 -222 31 -41 77 -109 103 -150 45 -74 82 -118 92 -109 2 3 -4 28 -15 56 -67 176 -30 357 100 497 105 111 227 159 415 160 133 1 195 -19 297 -95 145 -108 242 -297 250 -483 l2 -58 26 30 c36 44 112 173 177 304 31 62 67 123 79 135 l23 23 -90 44 c-49 25 -99 48 -112 51 -12 4 -85 38 -162 76 -77 38 -174 77 -215 88 -92 23 -220 31 -320 21z"/>
<path d="M6908 4907 l-3 -50 64 -56 c36 -31 84 -82 107 -114 l43 -57 10 52 c6 29 13 71 17 93 3 22 8 48 11 58 3 10 -2 20 -14 24 -10 3 -25 12 -34 19 -8 8 -56 29 -106 47 l-91 34 -4 -50z"/>
<path d="M2869 4684 c-3 -276 20 -589 52 -709 10 -38 63 -163 116 -276 96 -202 98 -205 106 -170 5 20 6 122 3 227 -5 161 -4 193 8 203 8 7 21 11 29 9 16 -4 187 -191 187 -205 0 -5 43 -69 95 -142 118 -164 161 -234 235 -386 73 -151 80 -167 125 -295 77 -221 115 -429 115 -625 l0 -118 31 47 c39 58 62 75 224 166 244 136 346 201 337 213 -61 82 -223 278 -309 373 -59 66 -162 188 -228 270 -65 82 -147 181 -182 219 -76 86 -406 534 -452 614 -18 32 -62 92 -98 132 -79 90 -113 139 -170 247 -34 65 -130 196 -219 301 -2 2 -5 -40 -5 -95z"/>
<path d="M6390 4457 c-30 -15 -60 -71 -60 -112 0 -43 35 -94 76 -111 34 -14 36 -14 76 18 25 19 50 53 65 85 23 50 23 53 7 78 -33 50 -109 70 -164 42z"/>
<path d="M3725 4435 c-40 -20 -75 -74 -75 -114 0 -61 46 -116 101 -121 55 -5 73 2 110 39 34 34 39 44 39 85 0 90 -96 152 -175 111z"/>
<path d="M8453 4270 c0 -25 2 -35 4 -22 2 12 2 32 0 45 -2 12 -4 2 -4 -23z"/>
<path d="M3473 4014 c37 -49 116 -156 176 -239 60 -82 143 -190 185 -240 42 -49 137 -164 210 -255 74 -91 175 -212 226 -270 79 -89 227 -279 280 -358 l15 -22 57 37 c32 21 57 41 55 45 -4 13 -367 467 -518 648 -80 96 -191 236 -247 310 -202 269 -192 258 -321 325 -65 34 -132 72 -151 85 -29 21 -24 12 33 -66z"/>
<path d="M8453 3995 c0 -22 2 -30 4 -17 2 12 2 30 0 40 -3 9 -5 -1 -4 -23z"/>
<path d="M2072 3850 c0 -19 2 -27 5 -17 2 9 2 25 0 35 -3 9 -5 1 -5 -18z"/>
<path d="M6675 3614 c3 -12 -3 -31 -13 -45 -11 -13 -22 -35 -26 -49 -7 -22 -5 -21 12 6 32 50 55 97 44 90 -6 -3 -13 0 -16 6 -3 7 -4 4 -1 -8z"/>
<path d="M2032 3500 c0 -19 2 -27 5 -17 2 9 2 25 0 35 -3 9 -5 1 -5 -18z"/>
<path d="M8814 3478 l-29 -33 33 29 c17 17 32 31 32 33 0 8 -8 1 -36 -29z"/>
<path d="M2023 3360 c0 -30 2 -43 4 -27 2 15 2 39 0 55 -2 15 -4 2 -4 -28z"/>
<path d="M8704 3378 l-29 -33 33 29 c17 17 32 31 32 33 0 8 -8 1 -36 -29z"/>
<path d="M8545 3228 l-60 -63 63 60 c58 55 67 65 59 65 -1 0 -29 -28 -62 -62z"/>
<path d="M8236 3149 c-9 -23 -15 -43 -13 -46 3 -2 12 15 21 38 9 23 15 43 13 46 -3 2 -12 -15 -21 -38z"/>
<path d="M3191 3145 c0 -5 9 -28 20 -50 10 -22 16 -29 13 -15 -7 28 -33 80 -33 65z"/>
<path d="M8424 3108 l-29 -33 33 29 c17 17 32 31 32 33 0 8 -8 1 -36 -29z"/>
<path d="M8194 3054 c-9 -21 -29 -65 -45 -96 -16 -32 -27 -58 -24 -58 8 0 97 182 91 188 -3 3 -13 -12 -22 -34z"/>
<path d="M2022 2830 c0 -19 2 -27 5 -17 2 9 2 25 0 35 -3 9 -5 1 -5 -18z"/>
<path d="M8074 2698 l-29 -33 33 29 c17 17 32 31 32 33 0 8 -8 1 -36 -29z"/>
<path d="M7969 2606 c-31 -46 -30 -49 5 -17 42 40 40 38 22 38 -7 0 -20 -10 -27 -21z"/>
<path d="M8154 1768 l-29 -33 33 29 c17 17 32 31 32 33 0 8 -8 1 -36 -29z"/>
<path d="M8010 1613 l-55 -58 58 55 c53 50 62 60 54 60 -1 0 -27 -26 -57 -57z"/>
<path d="M2655 1400 c44 -44 82 -80 85 -80 2 0 -31 36 -75 80 -44 44 -82 80 -85 80 -2 0 31 -36 75 -80z"/>
<path d="M7614 1218 l-29 -33 33 29 c17 17 32 31 32 33 0 8 -8 1 -36 -29z"/>
<path d="M3323 840 c0 -41 2 -58 4 -37 2 20 2 54 0 75 -2 20 -4 3 -4 -38z"/>
<path d="M6588 519 c-32 -16 -58 -32 -58 -34 0 -3 27 8 60 25 33 17 60 32 60 35 0 7 2 8 -62 -26z"/>
<path d="M6097 297 c-42 -17 -75 -32 -73 -34 4 -5 166 56 166 63 0 7 -11 3 -93 -29z"/>
<path d="M4328 13 c12 -2 32 -2 45 0 12 2 2 4 -23 4 -25 0 -35 -2 -22 -4z"/>
<path d="M4818 13 c12 -2 30 -2 40 0 9 3 -1 5 -23 4 -22 0 -30 -2 -17 -4z"/>
</g>
<g id="layer108" fill="#ffcb2c" stroke="none">
<path d="M7319 9838 c16 -46 47 -123 68 -173 67 -151 93 -231 87 -267 -12 -61 -28 -75 -131 -108 -54 -17 -104 -35 -112 -39 -17 -11 40 -135 134 -286 37 -60 94 -153 126 -206 78 -128 89 -137 73 -56 -8 34 -27 102 -43 151 -17 49 -35 116 -41 150 -6 33 -16 71 -22 84 -22 42 12 69 141 114 35 12 77 33 92 46 34 28 32 34 -41 127 -26 33 -68 96 -93 140 -81 145 -250 405 -262 405 -2 0 9 -37 24 -82z"/>
<path d="M5060 9688 c-54 -127 -258 -526 -379 -741 -187 -333 -286 -505 -364 -634 l-85 -141 25 -24 c41 -37 142 -177 175 -241 37 -74 108 -283 108 -319 0 -35 7 -35 51 -2 136 101 413 195 662 224 121 14 200 1 375 -64 64 -24 118 -43 119 -42 1 0 13 53 28 116 36 158 66 443 53 504 -5 26 -45 105 -95 188 -98 163 -201 352 -318 583 -44 88 -99 194 -122 235 -42 77 -64 136 -129 345 -20 66 -40 124 -44 128 -4 5 -31 -47 -60 -115z"/>
<path d="M5012 7409 c-119 -13 -219 -35 -252 -56 -38 -24 -363 -254 -525 -372 -258 -187 -399 -299 -527 -420 -51 -48 -56 -56 -46 -75 6 -11 66 -77 133 -146 66 -69 152 -163 190 -210 38 -47 99 -119 135 -160 37 -41 118 -136 180 -210 63 -74 166 -191 230 -260 64 -69 175 -190 247 -270 153 -170 622 -653 800 -825 118 -114 124 -122 121 -155 -3 -33 -5 -35 -44 -38 -43 -3 -116 14 -294 68 -120 37 -344 99 -347 97 -1 -1 22 -38 52 -82 29 -44 83 -129 120 -190 37 -60 111 -173 165 -250 54 -77 114 -166 134 -198 20 -32 41 -55 46 -52 17 11 121 195 186 333 64 135 84 161 93 116 2 -10 10 -23 18 -27 8 -5 23 -22 33 -39 18 -30 18 -30 29 -9 14 25 43 27 61 6 27 -32 -8 -282 -61 -443 -12 -35 -18 -66 -14 -70 15 -15 176 172 287 334 65 94 120 178 123 186 4 10 -19 27 -82 58 -115 56 -199 143 -306 314 -87 137 -190 355 -176 370 11 12 8 17 69 -94 90 -161 155 -270 163 -270 4 0 7 13 7 29 0 39 54 214 86 277 104 207 406 345 637 290 37 -9 86 -25 108 -37 23 -11 43 -18 46 -15 3 2 11 22 18 43 8 24 20 39 33 41 16 3 23 20 41 110 38 191 52 323 58 542 9 349 -28 565 -137 785 -71 144 -210 355 -293 445 -30 32 -201 138 -332 207 -218 113 -395 182 -745 289 -114 34 -137 38 -255 40 -71 1 -168 -2 -213 -7z m459 -675 c130 -64 314 -186 362 -240 l37 -42 -55 -26 c-39 -18 -91 -31 -173 -41 -64 -8 -137 -20 -162 -25 -31 -8 -66 -7 -115 0 -148 23 -196 24 -276 1 -91 -25 -132 -26 -218 -4 -36 9 -147 32 -245 52 -100 20 -181 41 -183 48 -2 6 11 29 29 50 19 21 42 50 51 65 25 40 146 122 233 158 106 44 216 58 430 56 l180 -1 105 -51z m-200 -828 c115 -25 231 -98 259 -165 13 -32 10 -96 -5 -96 -5 0 -13 19 -18 42 -21 107 -234 202 -381 171 -72 -15 -97 -30 -175 -103 -38 -36 -74 -65 -80 -65 -26 0 -7 45 41 97 60 62 121 101 187 119 61 17 93 16 172 0z m1578 -908 c1 -20 -7 -22 -27 -9 -11 6 -11 13 0 35 11 25 13 26 19 9 4 -10 8 -26 8 -35z"/>
<path d="M3106 5608 c-9 -21 -23 -55 -32 -75 -8 -21 -37 -109 -64 -195 -42 -139 -46 -158 -30 -158 26 0 320 -29 356 -35 l30 -5 -88 182 c-49 101 -104 215 -123 253 l-33 70 -16 -37z"/>
<path d="M2869 4684 c-3 -276 20 -589 52 -709 10 -38 63 -163 116 -276 96 -202 98 -205 106 -170 5 20 6 122 3 227 -5 161 -4 193 8 203 8 7 21 11 29 9 17 -4 187 -192 187 -206 0 -6 33 -55 73 -109 166 -224 288 -448 368 -674 91 -258 129 -456 129 -664 l0 -118 31 47 c39 58 62 75 224 166 244 136 346 201 337 213 -61 82 -223 278 -309 373 -59 66 -162 188 -228 270 -65 82 -147 181 -182 219 -76 86 -406 534 -452 614 -18 32 -62 92 -98 132 -79 90 -113 139 -170 247 -34 65 -130 196 -219 301 -2 2 -5 -40 -5 -95z"/>
</g>
<g id="layer109" fill="#46cbe5" stroke="none">
<path d="M2322 10273 c-7 -3 -31 -33 -54 -66 -55 -81 -91 -127 -220 -275 -150 -172 -178 -213 -401 -577 -112 -182 -364 -706 -346 -718 2 -1 21 -10 41 -20 44 -20 36 -30 99 123 50 122 107 225 226 405 47 72 113 175 145 230 121 204 262 392 533 710 60 72 120 145 133 163 l23 32 -83 -1 c-46 0 -89 -3 -96 -6z"/>
<path d="M7886 10253 c17 -69 148 -381 195 -465 207 -369 465 -645 959 -1028 52 -40 109 -86 125 -101 l30 -27 43 22 44 22 -36 32 c-20 17 -71 55 -114 83 -91 61 -184 137 -382 310 -321 281 -514 516 -653 794 -48 96 -131 296 -152 363 -5 16 -14 22 -36 22 -27 0 -29 -2 -23 -27z"/>
<path d="M4489 9084 c-47 -49 -357 -301 -502 -408 -166 -123 -227 -160 -442 -271 -104 -54 -208 -108 -230 -120 -248 -140 -420 -202 -779 -282 -136 -30 -186 -36 -324 -40 l-163 -5 85 -59 c46 -33 126 -97 178 -142 51 -46 135 -111 186 -146 51 -34 123 -88 161 -121 l69 -59 69 19 c242 67 568 206 713 304 166 112 415 424 637 796 138 234 191 313 324 493 32 42 57 77 55 77 -1 0 -18 -16 -37 -36z"/>
<path d="M6115 8781 c19 -29 66 -111 106 -184 39 -73 81 -148 94 -167 12 -19 61 -125 109 -235 49 -110 126 -274 172 -365 50 -100 104 -224 135 -315 28 -82 64 -175 80 -205 39 -72 130 -178 149 -172 22 8 171 100 312 193 70 46 189 122 264 169 74 47 183 120 241 164 112 84 243 208 243 230 0 9 -21 19 -52 26 -29 7 -228 71 -443 142 -722 241 -972 372 -1407 738 l-38 32 35 -51z"/>
<path d="M1315 8570 c3 -5 16 -10 28 -9 21 0 21 1 2 9 -28 12 -37 12 -30 0z"/>
<path d="M3570 6423 c-12 -15 -37 -44 -55 -64 l-33 -36 80 -94 c153 -178 412 -455 552 -589 78 -74 200 -195 271 -269 72 -74 310 -315 530 -535 221 -221 422 -428 448 -462 l47 -60 109 -28 c60 -16 114 -27 120 -25 5 2 -169 184 -387 404 -514 518 -840 875 -1308 1435 -111 132 -314 338 -343 348 -5 2 -19 -10 -31 -25z"/>
<path d="M3820 5050 c-160 -16 -320 -65 -510 -156 -142 -68 -146 -70 -142 -83 5 -26 -19 -6 -86 72 -39 45 -90 101 -115 125 l-43 43 -19 -95 -19 -94 54 -73 c29 -40 82 -116 118 -169 35 -52 86 -122 112 -155 26 -33 60 -82 75 -110 64 -114 143 -200 110 -121 -7 17 -21 70 -31 116 -13 68 -14 95 -6 147 30 179 162 332 337 390 69 22 98 26 210 27 l130 1 79 -39 c182 -89 306 -275 340 -509 l11 -81 51 79 c28 44 81 139 117 211 36 72 78 145 92 163 15 17 26 33 24 35 -2 1 -25 10 -51 20 -26 9 -63 28 -82 41 -18 13 -45 26 -57 30 -13 4 -87 38 -164 76 -77 38 -174 77 -215 88 -92 23 -220 31 -320 21z"/>
<path d="M3473 4014 c37 -49 116 -156 176 -239 60 -82 143 -190 185 -240 42 -49 137 -164 210 -255 74 -91 175 -212 226 -270 79 -89 227 -279 280 -358 l15 -22 57 37 c32 21 57 41 55 45 -4 13 -367 467 -518 648 -80 96 -185 227 -232 290 -217 289 -207 278 -336 345 -65 34 -132 72 -151 85 -29 21 -24 12 33 -66z"/>
</g>
<g id="layer110" fill="#d36ac2" stroke="none">
<path d="M2077 10193 c-128 -174 -378 -499 -434 -567 -32 -37 -74 -97 -93 -132 -19 -35 -90 -155 -156 -267 -117 -194 -255 -449 -268 -493 -6 -18 3 -25 71 -56 l77 -34 37 110 c75 223 204 482 386 775 158 256 167 268 304 426 119 137 248 303 249 318 0 4 -24 7 -54 7 l-54 0 -65 -87z"/>
<path d="M2559 10245 c-12 -19 -24 -35 -28 -35 -9 0 -180 -197 -331 -380 -120 -145 -277 -365 -352 -488 -28 -48 -91 -146 -139 -218 -119 -178 -160 -247 -240 -397 l-67 -128 26 -10 c14 -6 98 -28 186 -49 l160 -40 81 16 c165 31 222 49 345 104 69 31 211 87 315 125 279 99 448 166 555 220 192 96 691 409 869 544 162 123 388 341 503 485 73 91 198 268 198 281 0 3 -464 5 -1030 5 l-1031 0 -20 -35z"/>
<path d="M5817 10166 c165 -241 542 -705 703 -865 363 -361 438 -429 628 -569 153 -114 225 -156 426 -250 360 -167 498 -219 703 -268 l71 -17 162 88 c89 49 228 117 309 152 137 60 335 165 346 184 3 4 -9 16 -27 25 -88 45 -434 324 -607 489 -117 112 -278 305 -375 450 -123 183 -193 328 -291 600 l-33 90 -1047 3 -1046 2 78 -114z m1487 -177 c71 -63 328 -448 434 -651 32 -62 34 -69 22 -98 -15 -36 -33 -47 -161 -90 l-95 -32 14 -62 c7 -33 24 -92 38 -131 35 -104 76 -274 78 -325 1 -36 -3 -45 -18 -48 -25 -5 -88 58 -134 133 -19 33 -77 125 -128 205 -50 80 -104 170 -119 200 -23 45 -75 173 -75 184 0 1 56 25 125 52 102 40 125 53 125 69 0 30 -47 220 -75 300 -36 107 -95 304 -95 321 0 23 14 17 64 -27z"/>
<path d="M7995 10258 c20 -64 102 -263 143 -347 93 -187 233 -380 407 -560 103 -107 490 -443 580 -504 33 -23 85 -64 115 -93 l56 -53 42 25 c23 14 42 29 42 34 0 5 -39 43 -87 86 -153 134 -485 453 -576 553 -97 105 -141 158 -296 358 -109 141 -250 386 -272 475 l-13 48 -74 0 c-71 0 -73 -1 -67 -22z"/>
<path d="M5029 10118 c-20 -24 -87 -128 -149 -232 -110 -183 -223 -347 -339 -491 -72 -90 -338 -353 -461 -457 -90 -75 -440 -334 -579 -428 -88 -59 -401 -200 -444 -200 -9 0 -52 -16 -94 -36 -301 -142 -831 -230 -1172 -195 -62 7 -115 10 -117 8 -10 -10 244 -272 344 -355 61 -51 146 -132 189 -180 43 -47 96 -105 118 -127 l40 -41 90 1 c57 0 112 7 150 19 l59 19 -39 33 c-22 19 -80 62 -129 97 -140 98 -226 164 -295 225 -35 31 -101 82 -145 113 -137 95 -117 119 98 119 177 0 376 36 694 126 150 42 194 62 557 251 344 179 367 192 535 317 554 409 769 643 966 1050 45 94 102 206 127 250 35 60 45 88 44 117 -1 22 -4 39 -7 39 -3 0 -22 -19 -41 -42z"/>
<path d="M5252 10058 c7 -57 20 -97 63 -184 74 -153 111 -204 393 -543 280 -337 353 -416 507 -546 324 -274 669 -457 1165 -619 124 -40 288 -96 365 -124 77 -27 174 -57 215 -67 41 -9 83 -24 92 -32 46 -42 0 -118 -143 -239 -124 -105 -293 -218 -799 -537 -52 -33 -99 -63 -103 -67 -4 -4 34 -36 85 -70 51 -35 108 -76 126 -92 18 -15 38 -28 45 -28 30 0 292 169 489 316 387 289 541 413 717 579 78 74 201 212 201 227 0 4 -31 8 -69 8 -229 0 -478 39 -736 115 -104 31 -251 74 -325 96 -179 53 -325 112 -555 223 -393 191 -715 421 -951 681 -43 48 -110 117 -149 153 -214 203 -270 273 -360 452 -26 52 -64 120 -84 150 -19 30 -54 91 -76 135 -40 79 -41 80 -81 83 l-41 3 9 -73z"/>
<path d="M8690 7974 c0 -6 -23 -37 -52 -70 l-52 -59 48 45 c50 47 72 78 62 88 -3 3 -6 1 -6 -4z"/>
<path d="M2104 7580 c69 -77 85 -92 49 -45 -17 22 -46 54 -64 70 -20 17 -13 7 15 -25z"/>
<path d="M3395 6988 c-10 -18 -56 -83 -102 -144 -46 -61 -83 -115 -83 -121 0 -5 -11 -20 -24 -32 -13 -12 -32 -39 -42 -59 -10 -20 -26 -46 -35 -57 -48 -59 -245 -408 -336 -595 -57 -118 -167 -341 -243 -495 -161 -325 -206 -454 -285 -818 -30 -139 -88 -526 -110 -732 -8 -83 -22 -206 -30 -275 -57 -483 -45 -906 37 -1235 62 -252 168 -503 273 -649 165 -230 293 -367 494 -527 122 -98 319 -219 356 -219 32 0 51 -18 53 -51 4 -50 11 -48 11 2 -1 47 24 154 73 314 17 55 37 129 44 165 8 37 44 129 85 215 40 83 77 161 83 175 6 14 73 88 150 165 l138 140 -5 160 c-6 183 -29 325 -83 502 -72 238 -175 458 -310 658 -121 181 -110 186 -106 -48 4 -247 -11 -420 -48 -547 -15 -52 -38 -135 -49 -185 -53 -223 -76 -305 -87 -301 -6 2 -17 -1 -23 -7 -24 -24 -34 12 -38 150 -4 93 0 175 10 253 16 121 12 194 -14 241 -8 15 -43 61 -79 104 -89 104 -122 154 -179 265 -96 187 -197 471 -253 715 -47 206 -27 673 42 970 61 266 203 677 337 980 84 190 225 476 284 575 21 36 52 108 70 160 17 52 42 116 55 142 36 71 8 112 -31 46z"/>
<path d="M7760 5689 c0 -3 9 -45 19 -94 32 -146 63 -421 57 -505 -3 -41 -8 -133 -11 -205 -16 -375 -48 -584 -115 -750 -74 -184 -121 -281 -204 -419 -42 -69 -84 -145 -93 -169 -18 -47 -39 -74 -50 -64 -3 4 6 49 22 100 108 355 133 457 160 661 39 301 28 615 -29 856 -20 80 -42 165 -49 190 -14 43 -14 39 -10 -80 5 -133 -3 -188 -50 -375 -14 -55 -44 -183 -67 -285 -60 -267 -96 -367 -209 -580 -113 -212 -134 -246 -290 -468 -123 -176 -323 -415 -486 -582 -56 -58 -134 -149 -174 -202 -62 -86 -101 -120 -101 -88 0 6 49 83 108 173 121 182 202 310 202 321 0 4 -4 5 -9 1 -6 -3 14 47 43 112 30 65 75 186 101 268 27 83 72 222 101 310 91 278 240 916 219 943 -1 1 -33 -71 -70 -160 -38 -90 -108 -239 -156 -333 -48 -93 -100 -197 -117 -230 -17 -33 -47 -107 -68 -165 -98 -275 -273 -637 -430 -889 -143 -230 -349 -498 -488 -636 -150 -149 -236 -216 -468 -367 -191 -124 -272 -167 -600 -316 -209 -95 -309 -152 -423 -237 -186 -141 -256 -219 -379 -423 -36 -60 -87 -138 -113 -172 -27 -35 -58 -77 -71 -94 -12 -17 -26 -31 -30 -31 -4 0 -16 -6 -27 -12 -19 -11 -18 -15 27 -105 55 -109 171 -248 269 -322 176 -132 389 -192 734 -205 330 -13 547 6 965 85 215 40 394 88 570 151 553 199 1055 492 1549 903 113 93 448 425 601 595 236 262 379 524 832 1530 50 110 97 216 104 235 l15 35 -22 -30 c-12 -16 -56 -61 -98 -100 -131 -119 -278 -274 -409 -430 -272 -323 -365 -410 -527 -490 -50 -24 -102 -56 -115 -71 -42 -44 -187 -164 -199 -164 -27 0 -6 31 59 89 39 35 70 67 70 72 0 5 33 62 73 127 123 197 168 285 294 582 151 354 207 608 207 950 1 353 -52 588 -195 870 -87 172 -238 417 -375 610 -26 37 -74 88 -74 79z"/>
<path d="M3820 5050 c-159 -16 -322 -66 -505 -154 -60 -29 -118 -56 -127 -59 -10 -4 -18 -13 -18 -21 0 -7 -11 -17 -24 -20 -13 -3 -47 -31 -75 -63 l-50 -56 17 -29 c9 -16 54 -78 99 -138 44 -60 94 -130 109 -157 65 -113 142 -197 109 -119 -7 17 -21 70 -31 116 -13 68 -14 95 -6 147 30 179 162 332 337 390 69 22 98 26 210 27 l130 1 79 -39 c182 -89 306 -275 340 -509 l11 -81 51 79 c28 44 81 139 117 211 36 72 78 145 92 163 15 17 26 33 24 35 -2 1 -25 10 -51 20 -26 9 -63 28 -82 41 -18 13 -45 26 -57 30 -13 4 -87 38 -164 76 -77 38 -174 77 -215 88 -92 23 -220 31 -320 21z"/>
<path d="M5860 3832 c-23 -42 -72 -126 -107 -185 -36 -59 -82 -152 -103 -206 -51 -130 -196 -418 -285 -566 -40 -66 -127 -196 -193 -290 -66 -93 -119 -171 -117 -173 2 -2 39 17 82 44 88 53 167 125 253 229 70 86 190 267 190 288 0 9 4 18 9 22 5 3 15 22 22 43 6 20 31 72 56 114 24 43 42 81 41 85 -2 5 9 24 24 43 29 39 96 225 133 370 24 97 50 249 43 256 -2 2 -24 -31 -48 -74z"/>
<path d="M6468 3291 c-42 -85 -75 -157 -73 -160 3 -2 39 67 81 153 42 86 75 158 73 160 -2 2 -39 -67 -81 -153z"/>
<path d="M8237 3148 c-9 -23 -15 -43 -13 -45 2 -2 11 15 20 38 9 23 15 43 13 45 -2 2 -11 -15 -20 -38z"/>
<path d="M8167 2995 c-26 -52 -45 -95 -42 -95 7 0 97 181 93 186 -2 2 -25 -39 -51 -91z"/>
</g>
<g id="layer111" fill="#dfacd6" stroke="none">
<path d="M8063 10273 c15 -2 39 -2 55 0 15 2 2 4 -28 4 -30 0 -43 -2 -27 -4z"/>
<path d="M9290 10270 c58 -3 112 -2 120 2 8 4 -39 7 -105 6 l-120 -2 105 -6z"/>
<path d="M9523 10215 c0 -22 2 -30 4 -17 2 12 2 30 0 40 -3 9 -5 -1 -4 -23z"/>
<path d="M9265 8840 c-3 -5 -15 -10 -26 -10 -11 0 -26 -5 -33 -12 -10 -10 -2 -22 38 -63 49 -50 52 -52 79 -38 16 8 27 22 27 33 0 11 6 20 13 20 12 1 -72 80 -85 80 -4 0 -10 -4 -13 -10z"/>
<path d="M8917 8667 c-53 -29 -168 -106 -255 -173 -86 -66 -181 -137 -211 -157 -43 -30 -49 -37 -30 -37 27 0 259 94 484 195 88 40 165 74 170 76 6 2 28 15 51 28 l41 24 -73 49 c-39 26 -73 48 -75 48 -2 -1 -48 -24 -102 -53z"/>
<path d="M8538 8093 c12 -2 32 -2 45 0 12 2 2 4 -23 4 -25 0 -35 -2 -22 -4z"/>
<path d="M8489 7894 c-24 -26 -53 -48 -379 -291 -146 -109 -430 -352 -430 -369 0 -2 51 21 113 53 186 95 556 389 645 512 51 71 84 121 79 121 -2 0 -14 -12 -28 -26z"/>
<path d="M1530 6335 c63 -63 117 -115 120 -115 2 0 -47 52 -110 115 -63 63 -117 115 -120 115 -2 0 47 -52 110 -115z"/>
<path d="M7935 5443 c4 -10 23 -72 42 -138 18 -66 50 -172 69 -235 76 -244 93 -311 115 -441 20 -123 21 -156 16 -399 -7 -298 -16 -408 -53 -594 -29 -151 -51 -220 -135 -422 -130 -315 -240 -520 -388 -724 -158 -217 -243 -341 -237 -347 4 -4 32 18 64 49 31 31 98 80 147 108 89 51 159 101 221 157 31 27 154 208 180 263 4 8 15 26 24 40 18 26 148 308 195 420 15 36 33 79 41 95 34 75 97 291 125 429 64 323 54 684 -28 980 -48 174 -130 343 -310 639 -77 125 -107 165 -88 120z"/>
<path d="M6218 5040 c-119 -25 -145 -34 -285 -102 -72 -35 -142 -77 -170 -102 -47 -43 -47 -43 -33 -77 29 -71 210 -389 223 -389 4 0 7 13 7 29 0 39 54 214 86 277 104 207 406 345 637 290 37 -9 86 -25 108 -37 23 -11 42 -19 44 -17 7 9 25 48 25 56 0 15 -167 60 -283 77 -139 19 -250 18 -359 -5z"/>
<path d="M3725 5034 c-44 -8 -134 -33 -200 -55 -136 -46 -355 -148 -355 -165 0 -7 -11 -15 -24 -18 -13 -3 -47 -31 -75 -63 l-50 -56 17 -29 c9 -16 54 -78 99 -138 44 -60 94 -130 109 -157 65 -113 142 -197 109 -119 -7 17 -21 70 -31 116 -13 68 -14 95 -6 147 30 179 162 332 337 390 69 22 98 26 210 27 l130 1 79 -39 c182 -89 306 -275 340 -509 l11 -81 51 79 c28 44 81 139 117 211 36 72 77 144 91 161 30 36 32 43 10 43 -9 0 -46 15 -83 34 -300 152 -408 199 -495 217 -109 22 -275 24 -391 3z"/>
<path d="M6910 4901 c0 -48 1 -50 63 -100 34 -28 80 -76 102 -106 l40 -56 12 53 c7 29 15 79 19 111 5 47 4 57 -8 57 -9 0 -21 6 -27 14 -11 13 -169 76 -192 76 -5 0 -9 -22 -9 -49z"/>
<path d="M6405 4463 c-33 -8 -52 -31 -65 -78 -15 -54 -1 -105 37 -135 40 -31 73 -26 121 20 51 49 72 108 51 146 -23 44 -79 63 -144 47z"/>
<path d="M7491 4425 c0 -22 -12 -103 -26 -180 -14 -77 -32 -178 -40 -225 -68 -385 -238 -848 -433 -1181 -51 -88 -133 -236 -196 -354 l-37 -70 119 121 c125 128 196 224 281 384 105 198 244 560 216 560 -23 0 -18 36 19 145 39 115 101 342 117 430 12 64 6 299 -10 370 l-9 40 -1 -40z"/>
<path d="M3730 4433 c-40 -21 -80 -75 -80 -110 0 -69 57 -123 130 -123 34 0 48 6 75 33 43 43 52 79 34 130 -25 71 -96 102 -159 70z"/>
<path d="M6476 3570 c-27 -68 -304 -599 -383 -735 -69 -120 -231 -425 -219 -414 3 3 45 55 93 116 110 139 250 372 352 585 93 195 121 264 156 382 28 99 29 135 1 66z"/>
<path d="M2022 3380 c0 -19 2 -27 5 -17 2 9 2 25 0 35 -3 9 -5 1 -5 -18z"/>
<path d="M3545 3274 c8 -21 50 -133 94 -249 100 -264 125 -371 156 -664 8 -73 16 -135 18 -137 7 -7 39 194 46 285 6 65 3 105 -10 166 -18 85 -71 260 -94 310 -7 17 -21 50 -31 75 -19 51 -53 98 -136 190 -57 63 -57 63 -43 24z"/>
<path d="M2012 3240 c0 -19 2 -27 5 -17 2 9 2 25 0 35 -3 9 -5 1 -5 -18z"/>
<path d="M2014 3060 c0 -80 2 -112 3 -72 2 39 2 105 0 145 -1 39 -3 7 -3 -73z"/>
<path d="M8816 3052 c-78 -165 -521 -856 -665 -1037 -162 -203 -271 -318 -446 -470 -71 -61 -170 -149 -220 -195 -148 -136 -522 -437 -645 -520 -197 -132 -578 -346 -710 -398 -329 -130 -911 -296 -1230 -352 -118 -20 92 1 250 26 240 37 452 81 605 126 77 22 156 45 175 50 19 6 40 13 45 17 6 4 39 18 75 30 36 13 74 27 85 32 11 4 61 26 110 48 229 99 378 173 505 251 206 125 275 170 398 257 276 197 426 324 677 577 426 427 502 531 734 994 50 100 125 256 166 347 41 91 84 183 96 206 11 23 19 43 16 45 -2 2 -11 -13 -21 -34z"/>
<path d="M7966 2603 c-26 -35 -14 -38 18 -5 15 17 21 29 13 29 -7 0 -21 -11 -31 -24z"/>
<path d="M8034 1638 l-29 -33 33 29 c17 17 32 31 32 33 0 8 -8 1 -36 -29z"/>
<path d="M7735 1328 l-70 -73 73 70 c39 38 72 71 72 72 0 8 -11 -2 -75 -69z"/>
</g>


</svg>