<svg version="1.0" xmlns="http://www.w3.org/2000/svg" viewBox="0 0 10280 10280"><path d="M860 10271c0-8 120-210 191-319 19-30 59-93 90-140 30-48 74-120 98-160 23-40 79-110 125-158l83-85-111-188c-116-197-252-457-262-503-6-25-1-29 73-66 43-21 94-45 113-52s41-18 49-24 37-16 65-22c28-7 139-34 246-62 400-104 809-182 1080-206 74-6 131-14 125-18-59-37-458-119-670-139-135-12-352-7-447 11-60 12-85 6-93-20-10-30 19-74 132-198 116-128 123-134 233-227 104-88 380-380 368-390-7-6-304 50-510 96-105 23-181 25-198 5-15-20-5-38 51-84 131-111 395-387 493-516 48-63 109-184 141-280 23-67 55-202 55-228 0-14-15-9-158 56-158 72-395 160-497 185-44 11-133 27-197 36-99 13-122 14-145 3-56-27-46-42 171-266 257-266 358-387 470-565 144-230 176-285 239-415 32-67 63-124 67-127s0-27-10-53c-84-222-191-759-235-1182-9-85-25-229-35-320-46-392-49-688-11-968 50-356 177-718 326-927 271-380 591-660 860-754 32-12 67-18 77-15 20 6 22-7 19-116-5-134 40-281 124-401 56-81 203-229 272-275 201-133 441-184 871-184 274 0 376 10 702 66 476 82 737 166 1210 392 411 195 983 600 1293 916 387 393 512 540 633 743 73 122 271 509 334 653 23 52 84 185 135 295 206 444 286 627 280 646-17 52-70 17-343-228-299-268-520-494-663-678-92-119-167-201-175-193-3 4 50 116 118 250 173 338 269 611 325 923 28 159 25 537-6 710-53 302-185 591-449 983l-70 103 19 87c77 351 260 716 582 1161 53 73 97 141 97 151 0 40-77 40-197 1-123-41-190-71-323-150-205-123-293-170-301-165-13 8-11 61 6 133 22 90 83 242 168 417l74 150 169 136c93 75 239 201 325 281 134 126 158 154 179 203 38 93 53 87-303 110-55 3-95 10-90 14 8 8 440 217 623 301 47 22 96 46 110 54s61 36 106 61c107 61 275 175 287 195 15 25-7 54-115 150-51 46-145 131-208 191l-114 108 50 52c177 183 290 361 400 632 51 126 89 358 64 396-8 13-503 15-4335 18-2464 1-4325-2-4325-7z" fill="#282828"/><g fill="#734574"><path d="M1008 10273c-21-2-38-7-38-11 0-13 110-233 147-295 71-119 146-237 149-237s-3 17-12 38c-90 207-174 443-174 487 0 18-5 25-17 23-10-1-35-3-55-5zM2099 10233c-58-83-396-524-466-611-38-46-80-107-94-135-28-56-93-166-169-287-70-111-237-425-245-460-7-30-5-31 70-66 43-20 81-32 85-27 4 4 13 30 19 56 15 61 147 371 212 497 27 52 78 142 113 200 36 58 97 158 137 223 82 135 108 170 269 357 109 127 172 208 213 273l17 27h-127l-34-47z"/><path d="M2251 10193c-33-49-127-166-208-260-145-169-207-258-396-568-112-183-369-716-354-732 18-17 278-92 497-141 472-108 670-143 957-168l202-18 98 39c322 126 383 160 695 387 272 197 362 273 567 477 200 198 302 324 456 561 48 74 111 171 140 215 57 88 153 205 167 205 6 0-8-20-30-46-22-25-96-137-163-250-178-298-333-500-543-709-192-191-298-280-566-477-199-146-314-225-370-253-69-35-313-135-331-135-10 0-55-17-101-39-177-83-424-146-728-187-122-16-394-18-494-4-38 6-71 8-74 5-16-16 209-259 334-361 51-41 157-142 235-226 79-83 198-196 264-252 66-55 163-139 215-186 124-111 358-306 396-330l30-19 88 121c79 109 86 122 70 131-10 6-73 52-140 103-68 51-138 101-156 111-138 76-231 142-374 266-43 37-110 89-149 114-85 56-235 172-290 224-22 21-80 66-129 101s-91 68-93 75c-9 26 41 37 156 35 181-4 365 28 694 119 165 46 251 86 692 319 218 114 299 163 420 253 559 412 778 650 972 1055 76 159 175 336 194 348 7 4 7 0 0-12-6-11-45-95-87-189-177-393-265-532-484-759-127-132-501-434-710-573-67-44-521-286-721-384-86-42-210-82-414-133-258-64-342-78-489-82-76-2-141-5-143-7-2-3 36-33 84-67 48-35 133-102 188-150s136-111 180-140 109-78 144-109c124-108 187-154 306-224 66-39 178-115 249-169 72-54 133-98 137-98s15 12 24 28c10 15 68 95 130 177 142 190 248 305 281 305 53 0 48-13-168-408-49-89-88-170-86-179 4-21 43-44 130-77l67-25 48 38c109 87 573 361 791 467 227 110 356 137 647 138 174 0 198-2 280-26 79-22 327-112 467-169 26-10 49-19 53-19 3 0 3 60-1 133-10 211 25 370 122 542 58 103 143 201 167 192 26-10 21-22-39-89-95-106-184-310-208-478-4-26-17-241-18-290-1-21 6-29 35-41 90-36 286-140 401-212 114-73 212-146 360-271l46-39 78 33c42 19 84 39 92 45 8 7 38 24 65 37 28 14 66 34 85 45s69 40 110 63c206 118 339 212 835 590 230 175 545 484 545 535 0 3-48 5-107 5-228 0-452 35-697 109-72 22-203 60-291 86-209 60-296 93-490 182-203 94-331 162-472 250-223 141-341 241-658 558-317 316-355 363-440 535-26 52-67 125-91 162-44 66-114 209-114 231 0 7 10-4 21-23 12-19 59-91 104-160 46-69 102-163 125-210 24-47 61-112 83-145 53-78 594-619 717-716 222-177 449-311 770-457 131-59 168-75 262-107 136-48 668-200 745-215 60-10 64-10 115 18 203 111 445 236 508 262 124 52 180 79 292 142 102 56 132 78 109 78-17 0-234 161-381 283-339 283-573 552-743 855-45 80-171 381-198 470l-12 42H5203c-1590 0-2633-4-2633-9s-39-51-86-103c-264-286-483-569-644-833-41-66-110-174-155-240-95-139-167-260-231-387-25-50-47-88-50-85-8 8 83 214 135 307 28 49 86 142 128 207 43 65 107 165 141 223 120 199 290 426 560 744 53 63 107 129 120 146l24 30h-201l-60-87zm2999-185c65-180 155-322 365-573 82-99 192-232 245-295 187-225 396-414 624-564 266-175 507-286 926-426 146-49 317-107 380-129s148-47 188-56c122-28 122-67-1-189-114-113-246-210-512-376-82-51-195-123-250-160-129-86-275-170-448-255-111-56-140-66-150-56-16 17-3 26 222 141 102 53 236 128 296 167 61 39 187 120 280 179 312 196 448 297 558 413 32 34 57 66 55 72s-51 23-108 38c-58 15-168 50-245 78s-214 74-305 103c-478 151-843 344-1174 621-156 131-248 229-524 562-296 357-307 373-372 510-45 95-93 257-76 257 2 0 14-28 26-62zm-9-83c66-184 108-264 259-500 43-66 120-196 172-290 98-175 173-300 320-535 46-74 104-171 128-215s65-114 92-156c26-42 48-79 48-84 0-4-24 24-53 61-47 61-84 115-172 254-12 19-48 76-80 125-166 258-242 384-371 615-32 58-98 166-147 240-100 153-190 331-236 467-36 107-38 126-14 121 12-2 29-35 54-103zm2057 63c22-18 52-50 66-71s59-86 99-145c41-59 102-154 137-212s69-112 76-120c27-35 84-152 84-176 0-41-39-69-148-104-57-18-105-36-107-40-7-11 19-123 48-215 60-186 89-336 68-349-20-13-69 34-124 117-191 292-305 496-320 573l-6 31 107 40c59 22 115 43 125 46 9 4 17 14 17 24 0 31-49 224-79 313-16 47-43 132-61 190-17 58-33 111-35 118-7 20 10 14 53-20zm-2140-65c-141-338-298-651-553-1104-233-413-499-848-511-836-4 4 154 296 235 436 238 408 601 1089 671 1256 60 143 119 267 137 288 27 29 39 4 21-40zm-927-1985c42-46 97-139 119-202 40-112 46-245 18-416-17-109-23-95-19 47 3 140-10 265-36 343-18 54-71 144-119 201-18 22-34 45-34 50 0 21 43 7 71-23z"/><path d="M7904 10188c127-345 238-545 446-799 148-182 375-389 712-652l138-108 40 21c22 11 40 24 40 29 0 10-58 56-152 119-145 98-531 432-649 563-159 177-272 331-352 479-46 85-144 318-168 398-12 40-14 42-50 42h-39l34-92z"/><path d="M7991 10253c6-16 26-71 46-123 134-359 352-660 698-964 215-188 320-276 400-331 39-26 91-70 116-96l45-47 47 30c26 17 47 34 47 39 0 4-33 36-72 70-40 34-134 119-208 188-375 349-437 418-745 822-65 86-174 283-205 373l-19 57 660-2c363 0 663 2 666 5 4 3-330 6-740 6h-747l11-27z"/><path d="M9378 10143c-10-43-29-132-43-198-33-151-84-306-135-407-21-43-36-78-32-78 8 0 72 90 121 170 85 138 176 387 183 500 3 41 1 45-27 54-16 6-35 17-40 24-7 9-15-9-27-65zM9506 10069c-4-23-5-44-2-46 2-2 7 14 11 37s5 43 2 46c-2 3-7-14-11-37zM9476 9944c-4-14-5-28-3-31 3-2 8 8 11 23 4 14 5 28 3 31-3 2-8-8-11-23zM9325 9600c-9-16-13-30-11-30 3 0 12 14 21 30 9 17 13 30 11 30-3 0-12-13-21-30zM1370 9485c30-30 57-55 59-55 3 0-19 25-49 55s-57 55-59 55c-3 0 19-25 49-55zM9134 9328l-29-33 33 29c30 28 37 36 29 36-2 0-16-15-33-32zM9060 9245c-24-25-42-45-39-45s25 20 49 45 42 45 39 45-25-20-49-45zM9000 9183c0-5 12-20 28-34l27-24-25 30c-14 17-26 32-27 34-2 2-3 0-3-6zM9135 9050c33-33 62-60 64-60 3 0-21 27-54 60s-62 60-64 60c-3 0 21-27 54-60zM1245 9070c-9-16-13-30-11-30 3 0 12 14 21 30 9 17 13 30 11 30-3 0-12-13-21-30zM9280 8915c19-19 36-35 39-35s-10 16-29 35-36 35-39 35 10-16 29-35zM9330 8877c0-2 15-16 33-33l32-29-29 33c-28 30-36 37-36 29zM1310 8578c13-14 90-33 90-23 0 2-15 8-32 13-18 6-42 13-53 17-18 7-18 6-5-7zM1580 8500c34-11 60-11 35 0-11 5-29 8-40 8-16 0-15-2 5-8zM1820 8440c14-4 34-8 45-8 16 0 15 2-5 8-14 4-34 8-45 8-16 0-15-2 5-8zM1950 8410c14-4 34-8 45-8 16 0 15 2-5 8-14 4-34 8-45 8-16 0-15-2 5-8zM2233 8353c9-2 25-2 35 0 9 3 1 5-18 5s-27-2-17-5zM8740 8335c-14-8-20-14-15-14 6 0 21 6 35 14s21 14 15 14c-5 0-21-6-35-14zM2533 8303c9-2 25-2 35 0 9 3 1 5-18 5s-27-2-17-5zM2618 8293c12-2 32-2 45 0 12 2 2 4-23 4s-35-2-22-4zM2728 8283c12-2 32-2 45 0 12 2 2 4-23 4s-35-2-22-4zM2435 8170c-27-7-27-8-5-8 14 0 39 4 55 8 27 7 27 8 5 8-14 0-38-4-55-8zM1660 8140c25-8 87-13 79-6-2 2-26 6-54 9-34 4-42 3-25-3zM2238 8133c12-2 30-2 40 0 9 3-1 5-23 4-22 0-30-2-17-4zM1783 8123c15-2 39-2 55 0 15 2 2 4-28 4s-43-2-27-4zM2123 8123c15-2 39-2 55 0 15 2 2 4-28 4s-43-2-27-4zM8305 8120c-9-15 17-22 61-17 37 3 36 4-9 5-29 1-46 6-42 12 3 6 4 10 1 10s-8-5-11-10zM1953 8113c15-2 37-2 50 0 12 2 0 4-28 4-27 0-38-2-22-4zM8478 8093c23-2 61-2 85 0 23 2 4 4-43 4s-66-2-42-4zM8698 8080c13-6 22-19 23-32 1-18 2-19 6-5 6 22-14 47-36 46-11 0-9-3 7-9zM1685 7990c21-22 41-40 44-40s-13 18-34 40-41 40-44 40 13-18 34-40zM8676 7962c-14-21-40-51-56-67-17-16-30-33-30-39 0-18 99 87 109 116 13 37 9 35-23-10zM1775 7890c21-22 41-40 44-40s-13 18-34 40-41 40-44 40 13-18 34-40zM8485 7758l-70-73 73 70c39 38 72 71 72 72 0 8-11-2-75-69zM1920 7745c19-19 36-35 39-35s-10 16-29 35-36 35-39 35 10-16 29-35zM8325 7619c-100-86-114-104-23-30 69 56 107 92 97 90-2 0-35-27-74-60zM2095 7588c42-45 89-90 103-101 15-11-18 26-73 81-55 56-101 102-103 102s31-37 73-82zM8125 7454l-40-36 43 32c36 27 49 40 40 40-2 0-21-16-43-36zM2284 7385c37-44 77-90 88-102 12-12 19-25 16-29-8-8-400 60-553 95-66 16-122 27-124 24-3-2 13-17 35-34 60-47 327-322 413-425 128-154 191-279 242-481 35-139 35-196 1-201-12-2-71 19-131 47s-112 51-115 51-77 30-164 66c-174 72-287 105-445 128-120 18-137 19-137 8 0-5 86-99 192-208 231-240 336-363 433-509 121-182 317-578 299-607-3-4 0-8 5-8 6 0 11 7 11 16 0 8 72 162 161 342s199 404 245 498c71 143 283 513 346 603 17 24 17 25-20 50-36 24-171 136-402 335-63 54-140 116-171 137s-109 93-174 161c-95 100-105 108-51 43zM4980 7413c-125-13-258-56-422-139-251-126-736-415-833-496-11-10-57-44-102-78-46-33-83-63-83-66s25-35 56-72c31-36 67-82 81-103 13-21 51-61 84-89 33-29 117-121 187-204 179-214 385-455 467-546 444-492 753-819 1056-1115 195-191 229-228 229-257 0-48-69-43-290 24-191 57-404 117-408 114-1-2 24-43 57-92s94-145 137-214c42-69 114-177 158-240 45-63 117-168 159-233 66-100 80-117 93-107 16 14 109 167 194 320 93 166 124 203 146 168 20-32-7-248-49-403-31-109-100-304-132-370-18-38-32-71-31-73 10-9 357 397 482 563 67 89 194 273 194 282 0 3-6 3-14 0-33-13-249 86-311 142-71 64-204 251-267 376-35 68-98 215-98 228 0 22 25-14 88-131 38-70 86-154 107-187l39-60 8 40c40 194 95 320 173 398 173 172 461 230 654 132l51-25 9 22c5 13 10 32 12 43 3 12 12 20 24 20 18 0 20-6 17-66l-2-67 68-55c37-30 85-80 107-111 21-31 42-53 46-49 10 11 38 184 54 342 23 207 37 664 27 821-5 74-7 138-5 143 13 22 37-4 91-101 34-59 73-134 88-167 71-162 164-446 195-602 7-35 16-63 20-63 9 0 22 288 17 370-4 52-20 101-82 250-124 301-169 386-314 603-103 154-365 434-525 562-235 188-586 378-892 484-66 23-151 54-190 70-109 45-125 50-195 61-60 9-350 11-430 3zm426-673c66-26 265-137 312-173 35-27-9-9-155 63-210 103-250 115-383 112-58-1-127-6-155-12-27-6-63-13-79-15-16-3-47-10-70-17-22-6-50-13-60-15-41-7-108-44-224-122-67-44-125-81-129-81s6 14 23 31c34 36 187 133 259 164 126 55 402 108 521 100 36-2 93-17 140-35zm33-171c112-18 231-49 272-70 58-29 47-31-24-5-64 25-238 56-317 57-25 0-142-2-260-4-203-4-262-10-285-27-14-11-161-40-202-40-48 0-33 16 24 25 27 4 84 18 128 33 75 24 95 25 303 28 123 1 226 5 229 8 9 9 58 7 132-5zm-146-675c156-40 238-113 236-210l-1-49-9 40c-20 87-119 159-256 185-127 25-212-2-318-101-85-80-116-81-52-1 103 130 241 177 400 136z"/><path d="M1800 7400c14-4 34-8 45-8 16 0 15 2-5 8-14 4-34 8-45 8-16 0-15-2 5-8zM3633 7313c-39-49-109-142-157-208s-126-174-175-240c-48-66-94-131-101-145s-23-36-35-50c-49-53-291-475-391-680-58-118-168-341-245-495-166-333-218-481-293-835-30-138-97-608-126-885-12-110-26-243-32-295s-11-221-12-375c-1-350 18-510 95-774 65-225 146-409 236-538 81-118 228-295 315-380 109-107 296-256 378-300 36-20 81-46 101-59 20-12 53-26 73-29 38-8 56-28 56-66 0-48 17 0 28 78 12 87 75 321 98 363 18 34 17 21-5-68-61-238-87-457-71-576 8-51 25-100 60-172 43-89 63-116 156-213 117-122 183-168 327-226 177-73 412-101 767-92 234 6 349 19 675 78 414 74 747 188 1176 404 132 66 447 253 557 330 255 179 460 343 616 495 185 179 471 486 546 585 168 224 312 506 705 1375 51 113 107 236 124 274s30 70 28 72c-9 10-477-417-627-572-105-109-232-261-306-367-28-41-44-55-57-51-10 3-20-1-23-10-5-14-197-191-328-303-87-75-92-52-7 31 128 125 320 474 480 876 123 308 173 556 174 860 0 231-31 444-88 616-72 214-309 632-511 899-109 145-287 365-291 361-3-2 5-23 17-45 24-48 65-196 80-296 24-151 27-497 6-649-12-82-14-151-10-285 13-342-33-657-147-1009-47-147-84-232-100-232-6 0-9 6-6 14 58 149 150 491 177 656 35 211 44 584 19 760s-102 445-187 650c-36 88-119 260-126 260-2 0-2-37 1-82 7-107-13-538-33-727-43-416-129-729-287-1049-70-140-72-145-232-417-154-261-202-346-222-397-9-24-25-50-34-58s-49-66-88-127c-73-116-231-336-250-347-31-19-1 38 92 176 190 285 251 389 326 556 145 324 264 756 305 1112 25 215 30 300 17 300-6 0-11-6-11-13 0-39-171-417-275-607-71-131-192-314-305-465-102-135-364-437-479-550-55-55-101-103-101-106 0-20-166-272-240-366-102-128-216-246-230-238-23 14-6 44 61 110 38 39 94 99 124 135 70 85 205 288 205 308 0 9 9 25 19 36 53 57 168 320 231 525 52 170 91 381 71 381-5 0-28-35-52-78-134-246-224-385-419-647-345-465-613-701-1135-1000-93-54-200-118-237-144-226-157-410-367-540-616-57-108-61-106-12 7 129 293 360 541 684 733 290 171 370 221 440 271 194 139 368 293 497 439 54 60 112 123 129 140 17 16 52 62 77 100 26 39 92 131 146 205l99 135-46 65c-26 36-105 144-177 240-71 97-150 208-175 248s-89 140-142 221c-54 82-98 157-98 165 0 9 7 19 16 23 17 6 177-35 414-107 170-52 268-75 278-65 3 3-71 81-165 173-237 231-641 648-803 827-74 83-175 193-224 245s-134 149-189 215-130 154-167 195c-36 41-109 127-162 190-52 63-155 174-229 245-74 72-154 153-177 180l-44 50-26-32c-15-17-45-52-67-78l-39-47 76-72c43-39 106-106 142-148 111-133 319-352 601-633 150-148 395-396 546-550s340-343 419-420c80-77 167-169 194-205 45-59 37-53-85 65-74 72-183 174-244 227-60 54-227 218-369 365-143 147-318 324-390 393-196 188-308 301-445 450-181 196-358 379-364 374-2-2-27 21-56 51s-55 55-59 54c-4 0-27-26-51-57-34-43-63-103-119-247-41-104-83-199-93-210-19-21-63-150-136-400-24-82-50-170-59-195-31-91-35-85 53-86 43-1 158-9 256-19s180-15 183-12c3 2-11 33-30 68s-67 134-106 219c-40 85-90 193-112 240-49 103-60 138-47 146 17 10 36-15 62-80 30-74 80-181 192-411 116-238 116-230-2-221-49 3-160 12-248 20-142 12-179 13-164 3 2-1 38-33 80-69 88-78 185-209 171-233-7-13-21-1-72 57-100 114-232 248-245 248-6 0-17-35-24-80-12-73-12-82 4-100 9-10 35-48 58-84 48-76 136-200 257-365 47-64 101-143 120-176 34-59 96-135 110-135 4 0-4 30-18 68-33 89-37 249-8 328 44 119 163 243 272 284 100 37 236 55 327 42 213-31 406-233 452-475 8-43 15-96 15-118 0-21 4-39 9-39 15 0 103 145 185 305 84 163 92 175 112 175 11 0 13-7 8-27-12-51-181-360-239-439-175-236-393-365-617-365-49-1-88-4-88-8 0-5 12-24 28-44 15-19 81-106 146-193 66-87 176-225 246-308 106-127 332-421 428-559 15-21 47-63 71-95 68-89 86-116 73-108-7 4-135 161-285 349-151 188-308 383-351 432-43 50-119 146-169 214-51 68-118 156-150 195-31 39-70 87-86 106-18 23-63 52-132 87-57 28-121 63-143 78-69 47-74 55 184-296 74-101 187-245 250-319 64-74 146-173 182-220s123-150 192-230c141-161 265-329 326-440 44-80 49-109 6-36-57 97-190 265-357 451-59 66-149 172-201 236-51 64-147 181-214 260-66 79-163 203-214 274-52 72-122 167-157 213-34 45-74 104-88 131-13 27-57 86-96 132-83 96-147 191-182 270-13 30-48 83-79 119-30 36-89 111-131 168-43 57-77 102-77 100-23-165-26-243-14-324 8-49 16-152 19-229 7-146 32-309 63-411 11-32 27-86 36-119 10-33 31-89 46-125 16-36 54-123 83-195 30-71 79-184 109-250s60-133 67-150c17-40 25-24 45 95 40 235 31 462-26 603-29 73-30 80-14 95 15 15 19 13 57-23 56-54 254-319 322-430 166-273 286-600 328-895 17-116 15-328-4-420l-15-75 5 145c19 488-167 1009-530 1482-77 100-108 131-92 91 47-120 46-421-3-648-82-375-82-377-89-547-8-216-24-226-37-23-6 100 9 246 38 367l23 93-21 30c-12 17-41 75-65 130s-75 165-113 245c-84 176-77 161-132 295-56 138-77 226-117 495-30 193-33 238-33 435 0 237 17 420 53 555 49 183 367 1020 511 1345 22 51 73 172 125 300 50 124 92 212 164 338 12 22 42 78 68 125 25 48 50 93 56 100 5 7 6 12 0 12-5 0-41-39-80-87zM1890 7380c14-4 34-8 45-8 16 0 15 2-5 8-14 4-34 8-45 8-16 0-15-2 5-8zM1980 7360c14-4 36-8 50-8h25l-25 8c-14 4-36 8-50 8h-25l25-8zM7974 7269c-19-39-34-73-32-75s21 30 41 71 35 75 32 75-21-32-41-71zM2195 7320c17-4 44-8 60-8 25 0 24 2-10 9-51 10-92 10-50-1z"/><path d="M7921 7299c-13-11-96-66-185-122-90-57-185-126-216-157-65-65-340-228-446-264-73-25-174-72-174-82 0-4 51-61 114-128 62-66 138-154 169-194 135-176 283-441 357-639 19-51 38-93 42-93s6 6 3 13c-2 6-11 50-20 97-23 119-48 187-122 332-61 119-73 165-40 152 16-6 179-200 337-401 57-73 108-133 112-133s8-6 8-12c0-7 9-24 19-38l19-24 7 39c49 281 163 570 347 880 67 112 212 325 275 403 20 24 32 46 29 49-12 12-200-48-291-92-49-24-171-94-269-154-99-61-190-111-202-111-53 0-70 95-39 215 21 79 96 268 152 378 24 49 43 93 41 97-2 5-14 0-27-11zM1760 7259c8-8 58-55 110-104l95-90-80 83c-44 46-93 93-110 104-16 12-23 15-15 7zM2076 6935c102-117 130-146 87-90-17 22-63 74-103 115-64 67-63 65 16-25z"/><path d="M8240 6925c-14-8-20-14-15-14 6 0 21 6 35 14s21 14 15 14c-5 0-21-6-35-14zM8520 6860c-12-16-19-30-16-30 2 0 14 14 26 30 12 17 19 30 16 30-2 0-14-13-26-30zM3486 6862c-2-4-28-68-58-142-29-74-54-138-56-141-2-4 10-11 27-17 27-9 31-7 59 26 16 21 66 69 111 107 44 38 81 73 81 77s-9 9-19 13c-10 3-46 23-80 45-33 21-62 36-65 32zM7881 6720c-46-27-88-47-93-44-4 3-8 0-8-5 0-6 5-11 11-11 12 0 179 99 179 106 0 6 3 7-89-46zM2262 6675c12-24 23-43 26-41 4 5-36 86-43 86-3 0 5-20 17-45zM1483 6573c9-2 25-2 35 0 9 3 1 5-18 5s-27-2-17-5zM1351 6544c0-11 13-33 32-50l32-29-27 30c-14 17-28 39-31 50-5 19-5 19-6-1zM1635 6550c17-4 39-8 50-8 16 0 15 2-5 8-14 4-36 8-50 8-22 0-22-1 5-8zM3321 6458c-17-39-30-72-28-74 1-2 24 25 49 60 34 47 43 67 35 75-18 18-23 14-56-61zM2341 6480c0-8 4-24 9-35 5-13 9-14 9-5 0 8-4 24-9 35-5 13-9 14-9 5zM1560 6305c80-80 147-145 150-145 2 0-60 65-140 145s-147 145-150 145c-2 0 60-65 140-145zM2010 6437c8-8 134-57 137-53 2 2-18 12-44 23-53 23-101 38-93 30zM8160 6300c-11-22-18-40-15-40 2 0 14 18 25 40s18 40 15 40c-2 0-14-18-25-40zM2380 6306c0-8-6-17-12-19-8-3-6-6 5-6 11-1 17 6 17 19 0 11-2 20-5 20s-5-6-5-14zM8102 6185c-17-37-14-45 4-12 9 16 14 31 11 33-2 2-9-7-15-21zM1755 6100c21-22 41-40 44-40s-13 18-34 40-41 40-44 40 13-18 34-40zM1800 6047c0-2 15-16 33-33l32-29-29 33c-28 30-36 37-36 29zM2006 5775c78-128 115-185 121-185 8 0-137 234-170 274-10 11 12-28 49-89zM7925 5690c-4-17-5-34-2-36 2-3 7 10 11 27 3 18 4 34 2 36-2 3-7-10-11-27zM2252 5355c12-24 23-43 26-41 4 5-36 86-43 86-3 0 5-20 17-45zM8049 5375c5-11 17-29 26-40l16-20-10 20c-5 11-17 29-26 40l-16 20 10-20zM8210 5100c11-22 23-40 25-40 3 0-4 18-15 40s-23 40-25 40c-3 0 4-18 15-40zM2227 4828c-9-37-17-73-16-80 0-7 9 19 20 57 10 39 17 74 16 80-2 5-11-21-20-57zM3708 4855c-92-23-149-55-216-121-127-127-159-262-107-450 15-55 33-109 41-120 15-24 152-119 160-111 3 3-1 16-9 29-47 72-90 300-77 399 16 118 78 212 168 255 50 24 69 28 152 28 77 1 106-4 152-22 63-25 145-93 179-148 21-34 21-36 3-55-21-24-24-80-4-104 8-9 25-21 39-26 24-9 24-11 19-112-6-100-8-108-65-246-6-14 73 37 162 106 68 53 72 69 54 218-14 106-22 136-54 202-49 99-161 216-250 259-54 26-71 29-175 31-73 1-136-3-172-12zM6894 4706l-9-84 37-42c40-44 48-70 24-70-20 0-56-48-56-76 0-12 11-35 24-51 19-22 32-28 65-27 39 1 41 0 41-29 0-54 18-17 52 106l32 119-29 56c-27 51-145 182-164 182-4 0-12-38-17-84z"/><path d="M3678 4709c-9-5-33-32-54-60-29-40-34-53-24-62 9-9 15-8 24 8 6 11 30 39 53 62 31 31 39 44 30 52-8 6-18 6-29 0zM6327 4655c-55-42-72-68-54-83 9-8 27 4 70 45 50 48 63 73 38 73-5 0-29-16-54-35zM2152 4450c0-19 2-27 5-17 2 9 2 25 0 35-3 9-5 1-5-18zM8432 4450c0-19 2-27 5-17 2 9 2 25 0 35-3 9-5 1-5-18zM6390 4461c-63-17-79-148-24-201 48-46 77-46 125-3 47 42 83 113 74 143-3 10-20 31-36 45-31 26-82 32-139 16zM3713 4431c-90-57-79-192 19-229 49-19 83-9 130 37 33 34 38 45 38 85 0 96-107 157-187 107zM2122 4265c-12-82-22-159-21-170s12 50 25 135 23 162 21 170c-1 8-13-52-25-135zM8443 4370c0-25 2-35 4-22 2 12 2 32 0 45-2 12-4 2-4-23zM8453 4245c0-38 2-53 4-32 2 20 2 52 0 70-2 17-4 1-4-38zM8453 4025c0-38 2-53 4-32 2 20 2 52 0 70-2 17-4 1-4-38zM2092 4030c0-19 2-27 5-17 2 9 2 25 0 35-3 9-5 1-5-18zM2083 3940c0-25 2-35 4-22 2 12 2 32 0 45-2 12-4 2-4-23zM6860 3961c-8-5-33-11-55-13-39-4-39-4-58-68-34-122-98-315-118-359-32-68-15-59 29 16 128 223 232 414 232 428 0 7-13 6-30-4zM8443 3900c0-25 2-35 4-22 2 12 2 32 0 45-2 12-4 2-4-23zM2073 3835c0-27 2-38 4-22 2 15 2 37 0 50-2 12-4 0-4-28zM8432 3820c0-19 2-27 5-17 2 9 2 25 0 35-3 9-5 1-5-18zM2062 3740c0-19 2-27 5-17 2 9 2 25 0 35-3 9-5 1-5-18zM8406 3689c-4-23-5-44-2-46 2-2 7 14 11 37s5 43 2 46c-2 3-7-14-11-37zM2052 3660c0-19 2-27 5-17 2 9 2 25 0 35-3 9-5 1-5-18zM8979 3623l-34-38 38 34c34 33 42 41 34 41-2 0-19-17-38-37zM9142 3635c-17-37-14-45 4-12 9 16 14 31 11 33-2 2-9-7-15-21zM2043 3575c0-22 2-30 4-17 2 12 2 30 0 40-3 9-5-1-4-23zM8895 3548l-40-43 43 40c39 36 47 45 39 45-2 0-21-19-42-42zM2033 3485c0-27 2-38 4-22 2 15 2 37 0 50-2 12-4 0-4-28zM9082 3505c-17-37-14-45 4-12 9 16 14 31 11 33-2 2-9-7-15-21zM8800 3465c-24-25-42-45-39-45s25 20 49 45 42 45 39 45-25-20-49-45zM2022 3359c-1-31-4-78-7-105l-4-49 10 49c5 27 8 74 6 105l-3 56-2-56zM8690 3365c-24-25-42-45-39-45s25 20 49 45 42 45 39 45-25-20-49-45zM8500 3183l-105-108 108 105c99 97 112 110 104 110-1 0-50-48-107-107zM8245 3177c-21-51-58-132-82-181-24-48-42-90-39-93s25 35 49 83c47 94 120 274 114 280-1 2-20-38-42-89zM8877 3055c-24-50-20-58 4-12 11 22 19 41 17 43-3 2-12-12-21-31zM8344 3018l-29-33 33 29c17 17 32 31 32 33 0 8-8 1-36-29zM2023 2850c0-30 2-43 4-27 2 15 2 39 0 55-2 15-4 2-4-28zM2032 2750c0-19 2-27 5-17 2 9 2 25 0 35-3 9-5 1-5-18zM8079 2703l-34-38 38 34c34 33 42 41 34 41-2 0-19-17-38-37zM8707 2684c-37-74-33-83 4-10 17 32 29 60 27 62s-16-21-31-52zM2042 2670c0-19 2-27 5-17 2 9 2 25 0 35-3 9-5 1-5-18zM2052 2600c0-19 2-27 5-17 2 9 2 25 0 35-3 9-5 1-5-18zM7960 2598c-31-42-20-44 19-5 20 22 26 34 17 34-8 0-24-13-36-29zM8515 2300c-9-16-13-30-11-30 3 0 12 14 21 30 9 17 13 30 11 30-3 0-12-13-21-30zM8214 1838l-29-33 33 29c17 17 32 31 32 33 0 8-8 1-36-29zM8140 1755c-24-25-42-45-39-45s25 20 49 45 42 45 39 45-25-20-49-45zM7980 1583l-85-88 88 85c48 46 87 86 87 87 0 8-11-3-90-84zM7765 1359c-22-22-93-86-157-141-65-56-118-103-118-105s34 24 77 58c79 65 252 228 243 229-3 0-24-18-45-41zM2750 1317c0-2 15-16 33-33l32-29-29 33c-28 30-36 37-36 29zM2820 1257c0-3 23-24 50-47 28-23 50-40 50-37s-22 24-50 47c-27 23-50 40-50 37zM3161 1026c4-4 21-11 39-16 19-5 29-6 24-1-10 10-72 26-63 17zM6570 510c-41-21-72-39-67-40 10 0 147 69 147 75 0 7 3 8-80-35zM3478 423c16-21 40-47 53-58s1 6-26 38c-55 64-73 77-27 20zM6350 405c-14-8-20-14-15-14 6 0 21 6 35 14s21 14 15 14c-5 0-21-6-35-14zM6250 360c-19-11-30-19-25-19 6 0 26 8 45 19s31 19 25 19c-5 0-26-8-45-19zM6188 335c-3-3-66-28-139-55-155-57-160-67-8-14 102 35 185 73 163 74-6 0-13-2-16-5zM5705 170c-13-5-14-9-5-9 8 0 24 4 35 9 13 5 14 9 5 9-8 0-24-4-35-9zM5435 110c-27-7-27-8-5-8 14 0 39 4 55 8 27 7 27 8 5 8-14 0-38-4-55-8zM5063 43c9-2 25-2 35 0 9 3 1 5-18 5s-27-2-17-5zM4993 33c9-2 25-2 35 0 9 3 1 5-18 5s-27-2-17-5zM4238 23c12-2 30-2 40 0 9 3-1 5-23 4-22 0-30-2-17-4zM4908 23c12-2 30-2 40 0 9 3-1 5-23 4-22 0-30-2-17-4zM4343 13c20-2 54-2 75 0 20 2 3 4-38 4s-58-2-37-4zM4778 13c17-2 47-2 65 0 17 2 3 4-33 4s-50-2-32-4z"/></g><g fill="#994f44"><path d="M2524 10212c-274-302-540-641-665-849-29-48-101-160-160-249-129-193-309-508-297-519 26-22 652-163 952-215 98-17 272-39 386-50l208-20 174 71c254 104 312 136 538 297 346 248 401 293 624 511 216 211 343 369 522 651 111 175 186 279 238 329 50 48 45 32-12-42-27-34-95-140-152-236-189-319-330-500-576-741-191-187-249-236-489-412-234-172-349-250-420-286-83-41-300-132-316-132-8 0-50-16-94-36-191-86-407-143-710-189-121-19-447-23-547-7-32 5-58 5-58 1 0-22 240-269 355-367 72-60 167-153 213-205 46-53 125-132 175-175 51-44 139-121 197-171 188-164 464-396 498-420 19-13 37-20 41-15 22 25 153 208 156 217 4 16-236 193-355 263-124 73-199 127-295 214-43 39-130 107-193 151-123 86-230 169-302 234-25 23-68 55-96 73-27 17-61 43-74 57-23 24-23 26-7 43 15 14 41 17 175 19 132 2 183 7 307 33 353 72 527 129 745 242 85 45 238 125 340 177 199 104 251 136 435 275 530 397 731 620 935 1042 78 162 171 324 185 324 3 0 1-8-5-17-5-10-44-94-86-188-109-243-164-348-232-450-80-120-199-261-308-365-142-136-553-457-699-546-54-34-488-261-651-343-56-27-157-66-225-86-68-21-143-43-166-51-23-7-122-30-220-50-143-29-206-37-317-40-76-2-141-5-143-7-2-3 36-33 84-67 48-35 133-102 188-150s136-111 180-140 109-78 145-110c103-90 217-173 325-236 55-32 158-102 229-156 72-54 133-98 137-98s15 12 24 28c10 15 68 95 130 177 142 190 248 305 281 305 53 0 57 8-168-409-49-91-87-172-86-180 4-19 45-43 130-75l67-25 48 38c109 87 573 361 791 467 227 110 356 137 647 138 174 0 198-2 280-26 79-22 327-112 467-169 26-10 49-19 51-19 3 0 3 59 0 131-8 216 28 374 123 544 58 103 143 201 167 192 26-10 21-22-39-89-39-44-74-100-114-183-75-155-94-236-106-455-3-69-8-127-10-130-7-14 19-31 126-80 147-68 167-80 357-201 87-56 204-141 261-191l103-89 157 79c173 87 390 209 496 280 94 62 679 501 701 526 6 6 53 48 105 93 143 123 340 328 340 353 0 5-48 11-107 14-334 20-438 38-773 136-361 105-487 149-707 250-413 188-727 400-978 659-60 62-183 185-273 274-174 171-233 249-316 414-25 50-64 120-86 155-45 68-123 228-116 236 9 8 27-10 45-47 11-20 53-87 94-147 40-60 100-159 132-221 72-141 155-244 288-361 58-51 140-133 182-183 315-368 941-744 1520-913 66-19 206-60 310-91 105-31 222-61 260-67l70-11 100 53c202 106 482 247 566 283 47 21 134 65 193 99l106 60-53 32c-115 69-382 286-580 471-59 55-154 156-211 225-205 249-316 436-421 710-37 96-71 185-76 197l-9 23H5208l-2623-1-61-67zm2725-189c17-66 135-294 190-367 129-170 552-664 647-756 348-337 737-558 1307-741 122-40 276-92 342-116 66-25 158-53 205-64 128-31 150-52 116-117-45-86-344-322-581-457-27-16-133-84-235-151-189-125-539-318-597-330-26-5-33-3-33 9 0 19 25 34 235 141 94 47 222 119 285 160s192 123 285 181c313 197 448 298 559 414 43 46 56 65 47 74-6 6-61 25-123 43-184 53-729 239-858 294-66 27-122 50-124 50-32 0-348 176-481 268-279 192-464 371-750 727-48 61-113 139-144 174-129 146-214 279-277 430-13 31-23 49-23 41-1-24 92-232 139-312 24-40 78-127 120-193 43-66 112-183 155-260 98-176 199-346 242-406 18-26 33-49 33-53 0-3 35-63 79-133 43-71 102-171 131-223s68-116 86-143c54-75 39-76-19-1-47 61-84 115-172 254-12 19-48 76-80 125-166 258-242 384-371 615-32 58-98 166-147 240s-115 189-147 255c-55 114-120 287-120 320 0 31 31 14 51-27 21-46 21-40 3 56-10 55 11 38 25-21zm2069-50c69-70 350-499 426-650 43-87 23-112-137-168-87-31-107-41-102-54 4-9 13-47 21-84 8-38 18-76 24-86 16-31 79-283 82-331 2-37 0-45-16-48-26-5-79 49-134 138-25 41-83 134-128 205-87 136-170 299-180 351l-6 30 114 45c62 24 116 43 120 41 26-8-8 164-68 343-41 124-94 296-94 308 0 20 36 2 78-40zm-2160-50c-141-338-298-651-553-1104-233-413-499-848-511-836-4 4 90 177 302 557 60 107 117 209 126 225 9 17 55 98 101 180 128 227 330 617 377 730 60 143 119 267 137 288 27 29 39 4 21-40zm-927-1985c121-131 172-320 148-543-19-178-35-193-30-30 6 262-33 400-155 546-18 22-34 45-34 50 0 21 43 7 71-23z"/><path d="M7310 9851c16-44 48-124 71-178 70-164 90-233 83-280-8-57-19-67-89-87-89-26-147-50-152-62-6-16 56-146 119-249 169-276 211-341 225-355 14-13 15-11 9 26-3 22-23 99-45 170-35 113-48 167-68 275-6 31 6 41 82 67 114 39 175 72 175 96 0 8-28 51-62 97-35 47-87 127-117 179-75 131-239 380-251 380-5 0 4-36 20-79zM4980 7413c-125-13-258-56-422-139-251-126-736-415-833-496-11-10-57-44-102-78-46-33-83-63-83-66 0-4 22-32 48-63 27-31 63-76 81-100 17-24 59-69 92-99 34-31 118-124 188-207 178-213 384-454 466-545 444-492 753-819 1056-1115 195-191 229-228 229-257 0-49-84-41-315 31-175 54-346 101-367 101-12 0-1-23 42-87 32-49 93-144 136-213 42-69 114-177 158-240 45-63 117-169 160-235 90-137 72-139 164 13 31 51 67 110 80 130 12 20 32 55 43 77 12 22 41 70 65 108 63 97 88 91 86-24-3-157-98-512-187-694-18-38-32-71-31-73 10-9 387 432 476 556 25 35 60 84 79 109 52 72 121 174 121 180 0 3-6 3-14 0-33-13-249 86-311 142-105 94-244 311-331 514-61 142-40 130 47-26 34-61 83-146 108-187l46-75 6 45c12 79 67 243 104 305 84 143 270 251 465 270 77 8 185-12 259-48l50-24 14 41c10 29 19 41 33 41 17 0 19-8 20-64l1-64 76-71c42-39 89-90 106-114l29-43 11 53c46 237 58 357 72 713 6 167 6 321 1 405-5 74-7 138-5 143 11 19 34 2 62-45 134-235 245-525 311-816 22-95 32-45 34 165l1 198-78 185c-128 305-171 388-315 603-103 154-365 434-525 562-235 188-586 378-892 484-66 23-151 54-190 70-109 45-125 50-195 61-60 9-350 11-430 3zm426-673c66-26 265-137 312-173 35-27-9-9-155 63-210 103-250 115-383 112-58-1-127-6-155-12-27-6-63-13-79-15-16-3-47-10-70-17-22-6-50-13-60-15-41-7-108-44-224-122-67-44-125-81-129-81s6 14 23 31c34 36 187 133 259 164 126 55 402 108 521 100 36-2 93-17 140-35zm33-171c112-18 231-49 272-70 58-29 47-31-24-5-64 25-238 56-317 57-25 0-142-2-260-4-203-4-262-10-285-27-14-11-161-40-202-40-48 0-33 16 24 25 27 4 84 18 128 33 75 24 95 25 303 28 123 1 226 5 229 8 9 9 58 7 132-5zm-146-675c156-40 238-113 236-210l-1-49-9 40c-20 87-119 159-256 185-127 25-212-2-318-101-85-80-116-81-52-1 103 130 241 177 400 136z"/><path d="M3623 7293c-71-89-197-258-243-325-14-20-59-83-100-140-41-56-79-110-85-119-5-9-33-50-61-90-121-177-263-436-491-899-134-272-258-533-274-580-85-238-175-680-224-1096-56-483-68-603-74-809-14-419 20-691 129-1018 60-180 109-287 184-399 83-126 253-333 334-410 111-104 284-240 375-292 45-27 94-57 109-67 15-11 39-19 53-19 33 0 65-33 66-67 1-16 7 6 14 48 28 162 125 479 147 479 6 0 7-7 3-17-17-39-85-345-100-446-42-296 5-447 202-657 90-96 143-136 250-189 183-92 377-124 743-125 293-1 429 14 861 95 705 131 1468 522 2133 1092 113 97 407 394 575 582 214 239 358 506 805 1500 62 138 123 269 135 292 11 23 21 45 21 48 0 8-198-167-425-376-211-194-343-339-499-552-31-42-61-75-67-72-5 4-62-43-127-103-193-181-283-255-295-243-7 7 9 28 54 69 123 114 350 527 496 907 110 283 163 556 163 836 0 340-68 630-211 898-88 164-245 417-355 571-39 54-298 379-301 377-1-1 12-40 28-87 52-146 68-277 71-562 1-176-2-274-12-323-9-48-12-148-11-320 2-264-10-415-50-609-52-259-174-615-200-589-8 8 0 45 25 121 142 440 181 683 173 1071-5 238-18 327-80 551-40 144-145 412-207 530l-29 55-1-170c-1-294-24-633-56-830-76-467-179-728-500-1271-81-137-166-289-190-338-25-50-48-93-53-96-6-3-44-59-86-125-102-159-256-365-273-365-21 0-13 14 96 177 204 306 321 519 392 718 56 155 142 428 150 476 5 25 13 63 19 85 33 126 64 329 97 634 8 76-4 59-66-93-106-259-274-578-398-757-157-227-394-512-586-705-87-88-122-132-174-220-78-134-126-202-230-325-111-131-177-194-196-187-28 11-17 45 25 79 96 76 306 345 359 460 11 24 37 70 56 103 91 152 203 442 244 632 24 112 36 222 23 208-6-5-54-86-108-180-169-296-383-597-594-837-208-237-464-444-771-625-47-28-139-82-205-121-169-99-274-178-395-301-124-126-218-254-297-409-60-118-87-148-52-59 55 140 151 301 252 422 58 69 194 202 226 219 9 5 41 28 71 51 49 37 335 215 345 215 20 0 314 196 413 275 12 10-53 98-295 401-154 192-314 390-357 439-43 50-116 142-163 205-48 63-107 140-133 170s-60 75-77 100c-43 63-53 70-187 139-66 34-128 69-138 78-36 32-27 5 20-59 198-274 333-452 432-568 64-74 146-173 182-220s121-148 188-225 164-198 216-270c51-71 98-136 104-142 6-7 8-13 5-13-4 0 5-21 19-47 34-59 27-68-7-10-56 95-186 260-336 427-57 63-131 149-164 190-34 41-136 165-227 275-92 110-208 259-260 330-52 72-122 167-157 213-34 45-74 104-88 131-13 27-57 86-96 132-83 96-147 191-182 270-13 30-48 83-79 119-30 36-89 111-131 168-43 57-77 102-77 100-23-165-26-243-14-324 8-49 16-152 19-229 7-146 32-309 63-411 11-32 27-86 36-119 10-33 33-94 51-135s54-127 80-190 76-173 110-245c34-71 66-141 70-154 11-36 20-13 41 104 11 67 18 155 18 270 1 181-6 228-52 343-23 59-24 65-8 80 15 15 19 13 57-23 51-51 207-253 284-370 77-118 192-339 228-440 78-218 116-362 138-515 17-117 15-328-4-420l-16-75 6 135c16 396-124 872-371 1263-48 76-237 329-242 324-2-1 5-27 13-57 11-39 15-107 16-230 1-185-12-285-68-515-42-175-55-272-55-421 0-137-7-171-30-148-5 5-12 63-16 129-7 131 4 253 37 396l20 86-29 44c-16 24-36 62-45 85-8 22-54 121-100 220-113 238-194 432-217 518-10 39-33 168-52 286-31 203-33 230-33 475 0 261 12 408 42 530 18 73 107 330 231 665 21 58 46 125 55 150 8 25 31 81 50 125 76 174 249 588 302 721 31 77 97 215 146 305 100 180 141 259 136 259-2 0-35-39-74-87z"/><path d="M3047 5814c-11-20-127-388-147-470-12-49-29-101-36-116-8-15-14-31-14-36s42-12 93-16c50-3 165-14 255-23 89-9 165-13 168-11 3 3-11 34-30 69s-67 134-106 219c-40 85-92 197-116 249-24 51-44 98-44 105 0 17-17 39-23 30zM6433 4915c-122-33-300-155-319-219-3-11-16-35-29-51-31-41-77-195-83-278l-5-68 44-40c56-52 159-132 164-127 2 2-3 32-10 68-18 83-19 219-1 291 26 111 105 206 214 257 76 36 197 37 287 4 33-13 64-24 70-25 13-3 55 81 55 108 0 25-52 58-127 80-60 18-191 18-260 0zM3708 4855c-92-23-149-55-216-121-127-127-159-262-107-450 15-55 33-109 41-120 15-24 152-119 160-111 3 3-1 16-9 29-47 72-90 300-77 399 16 118 78 212 168 255 50 24 69 28 152 28 77 1 106-4 152-22 76-30 156-105 199-184l34-63v-150c-1-142-2-154-29-215-15-36-30-71-33-79-6-14 73 37 162 106 68 53 72 69 54 218-14 106-22 136-54 202-49 99-161 216-250 259-54 26-71 29-175 31-73 1-136-3-172-12zM6894 4705l-10-86 29-27c42-40 97-161 106-234 7-60 8-62 19-35 7 16 24 74 39 129l27 100-29 57c-27 50-145 181-164 181-4 0-12-38-17-85zM6860 3961c-8-5-33-11-55-13-44-4-41 2-90-188-14-52-38-130-55-173-37-96-38-105-4-47 14 25 41 70 59 100 65 107 175 313 175 325 0 7-13 6-30-4z"/></g><g fill="#ba1d92"><path d="M3311 6338c-13-22-13-22 6-6 18 17 21 16 67-31l48-49-29-39c-15-22-77-140-137-261-61-121-113-219-118-216-4 3-1-12 6-33 20-56 189-417 230-493 65-118 53-128-127-107-72 9-178 19-235 22l-103 7 85-82c96-92 172-200 161-227-5-15-19-4-73 57-108 121-235 250-247 250-7 0-17-35-24-81-13-76-12-81 6-102 11-12 33-44 50-72 28-46 87-130 275-389 40-54 93-133 119-175 46-74 84-119 94-110 2 3-4 28-15 56-67 176-30 357 100 497 105 111 227 159 415 160 133 1 195-19 297-95 145-108 242-297 250-483l2-58 26 30c36 43 110 170 171 293 62 124 85 159 105 159 24 0 16-26-51-159-131-263-216-382-348-492-151-127-332-198-473-186-62 5-63 4-52-17 6-11 30-43 53-71 23-27 82-104 130-170 49-66 141-183 206-260 135-162 301-377 402-520 76-106 206-275 214-275 2 0-16 26-41 58l-45 59 52 39c29 21 102 87 162 145 61 59 120 109 131 113 26 8 403 458 448 533 4 7-47 84-126 190-73 98-164 228-202 288-39 61-107 168-152 238-47 72-81 134-77 143 6 16 55 19 99 5 78-25 326-92 330-88 5 5-157 162-286 276-140 125-1131 1120-1394 1399-115 123-221 229-235 237-15 7-48 36-74 64s-51 51-55 51-13-10-21-22zM3260 6275c-13-14-22-27-19-29 2-2 14 10 27 25 29 36 24 38-8 4zM5550 3440c-12-16-19-30-16-30 2 0 14 14 26 30 12 17 19 30 16 30-2 0-14-13-26-30zM5448 3298c-51-69-99-142-75-114 32 37 109 146 104 146-3 0-15-15-29-32zM5286 3068c-15-23-20-35-11-28 15 13 50 70 42 70-2 0-16-19-31-42zM5170 2942c-41-47-77-91-79-96-5-13 141 151 152 170 15 26 2 13-73-74z"/><path d="M4985 2743c-74-70-77-74-20-25 39 33 81 72 94 86 48 51 15 24-74-61zM4854 2628l-29-33 33 29c17 17 32 31 32 33 0 8-8 1-36-29z"/></g><g fill="#b99631"><path d="M2524 10212c-274-302-540-641-665-849-29-48-101-160-160-249-129-193-309-508-297-519 26-22 652-163 952-215 98-17 272-39 386-50l208-20 174 71c254 104 312 136 538 297 346 248 401 293 624 511 216 211 343 369 522 651 111 175 186 279 238 329 50 48 45 32-12-42-27-34-95-140-152-236-189-319-330-500-576-741-191-187-249-236-489-412-234-172-349-250-420-286-83-41-300-132-316-132-8 0-50-16-94-36-191-86-407-143-710-189-121-19-447-23-547-7-32 5-58 5-58 1 0-22 240-269 355-367 72-60 167-153 213-205 46-53 125-132 175-175 51-44 139-121 197-171 188-164 464-396 498-420 19-13 37-20 41-15 22 25 153 208 156 217 4 16-236 193-355 263-124 73-199 127-295 214-43 39-130 107-193 151-123 86-230 169-302 234-25 23-68 55-96 73-27 17-61 43-74 57-23 24-23 26-7 43 15 14 41 17 175 19 132 2 183 7 307 33 353 72 527 129 745 242 85 45 238 125 340 177 199 104 251 136 435 275 530 397 731 620 935 1042 78 162 171 324 185 324 3 0 1-8-5-17-5-10-44-94-86-188-109-243-164-348-232-450-80-120-199-261-308-365-142-136-553-457-699-546-54-34-488-261-651-343-56-27-157-66-225-86-68-21-143-43-166-51-23-7-122-30-220-50-143-29-206-37-317-40-76-2-141-5-143-7-2-3 36-33 84-67 48-35 133-102 188-150s136-111 180-140 109-78 145-110c103-90 217-173 325-236 55-32 158-102 229-156 72-54 133-98 137-98s15 12 24 28c10 15 68 95 130 177 142 190 248 305 281 305 53 0 57 8-168-409-49-91-87-172-86-180 4-19 45-43 130-75l67-25 48 38c99 79 571 360 784 466 213 107 385 145 658 145 170 0 270-18 405-72 56-22 152-58 215-80 63-21 127-46 142-54s29-14 31-14 3 84 3 187c0 225 14 285 103 456 63 123 156 235 185 224 26-10 21-22-39-89-39-44-74-100-114-183-75-155-94-236-106-455-3-69-8-127-10-130-7-14 19-31 126-80 147-68 167-80 357-201 87-56 204-141 261-191l103-89 157 79c173 87 390 209 496 280 94 62 679 501 701 526 6 6 53 48 105 93 143 123 340 328 340 353 0 5-48 11-107 14-334 20-438 38-773 136-361 105-487 149-707 250-413 188-727 400-978 659-60 62-183 185-273 274-174 171-233 249-316 414-25 50-64 120-86 155-45 68-123 228-116 236 9 8 27-10 45-47 11-20 53-87 94-147 40-60 100-159 132-221 72-141 155-244 288-361 58-51 140-133 182-183 315-368 941-744 1520-913 66-19 206-60 310-91 105-31 222-61 260-67l70-11 100 53c202 106 482 247 566 283 47 21 134 65 193 99l106 60-53 32c-115 69-382 286-580 471-59 55-154 156-211 225-205 249-316 436-421 710-37 96-71 185-76 197l-9 23H5208l-2623-1-61-67zm2725-189c17-66 135-294 190-367 129-170 552-664 647-756 348-337 737-558 1307-741 122-40 276-92 342-116 66-25 158-53 205-64 128-31 150-52 116-117-45-86-344-322-581-457-27-16-133-84-235-151-189-125-539-318-597-330-26-5-33-3-33 9 0 19 25 34 235 141 94 47 222 119 285 160s192 123 285 181c313 197 448 298 559 414 43 46 56 65 47 74-6 6-61 25-123 43-184 53-729 239-858 294-66 27-122 50-124 50-32 0-348 176-481 268-279 192-464 371-750 727-48 61-113 139-144 174-129 146-214 279-277 430-13 31-23 49-23 41-1-24 92-232 139-312 24-40 78-127 120-193 43-66 112-183 155-260 98-176 199-346 242-406 18-26 33-49 33-53 0-3 35-63 79-133 43-71 102-171 131-223s71-121 93-153c22-31 38-60 35-63-22-22-451 641-658 1016-35 63-102 176-150 250-104 161-153 247-203 357-43 95-87 223-87 252 0 36 30 23 51-21 21-46 21-40 3 56-10 55 11 38 25-21zm2069-50c69-70 350-499 426-650 43-87 23-112-137-168-87-31-107-41-102-54 4-9 13-47 21-84 8-38 18-76 24-86 16-31 79-283 82-331 2-37 0-45-16-48-26-5-79 49-134 138-25 41-83 134-128 205-87 136-170 299-180 351l-6 30 114 45c62 24 116 43 120 41 26-8-8 164-68 343-41 124-94 296-94 308 0 20 36 2 78-40zm-2148-24c0-11-15-50-34-87-18-37-53-112-76-167-51-121-255-520-378-740-181-323-301-533-387-675-88-145-195-303-202-297-3 4 96 186 303 557 60 107 117 209 126 225 9 17 55 98 101 180 128 227 330 617 377 730 59 142 119 267 137 287 18 21 33 15 33-13zm-936-2012c47-49 107-157 130-237 27-90 32-232 11-359-10-61-20-111-24-111-3 0-4 61-2 136 3 147-10 268-39 351-17 47-81 152-131 215-21 25-19 48 3 48 6 0 30-19 52-43z"/><path d="M7290 9917c0-13 54-158 85-227 51-116 95-247 95-284 0-59-19-78-100-103-122-37-151-53-144-77 15-47 108-221 167-313 35-54 82-129 105-168 23-38 51-81 62-95l21-25-7 40c-3 22-23 99-44 170-21 72-44 157-50 190-7 33-17 66-22 72-14 17 14 59 44 68 116 33 218 84 218 109 0 7-25 46-56 87-30 41-80 117-111 169-132 225-263 418-263 387zM4947 7405c-116-16-166-32-307-94-178-80-683-372-850-492-153-110-240-178-240-188 0-18 144-191 239-286 54-55 143-154 197-220s130-156 169-200 107-123 150-175 125-144 181-205c56-60 147-162 204-225 139-157 782-821 902-931 103-96 126-135 94-167-15-15-23-15-100 1-47 9-142 35-213 57-165 52-354 103-359 97-7-7 180-296 466-720l114-168 17 23c10 13 69 110 131 217 162 279 181 302 209 250 23-45-10-252-77-474-36-120-108-309-127-333-5-7-8-14-6-16 10-10 352 389 457 534 34 47 67 91 74 99 6 7 38 52 70 100l59 86-47 13c-95 28-242 111-300 170-60 61-183 239-232 337-50 99-102 217-102 231 0 32 19 7 84-114 39-70 88-156 110-192l41-65 6 45c12 79 67 243 104 305 84 143 270 251 465 270 77 8 185-12 259-48l51-24 12 39c25 85 60 74 57-19l-2-65 76-72c42-39 89-90 106-114l29-43 11 53c49 249 64 443 67 877 2 235 7 388 13 394 14 14 94-116 157-255 79-175 149-381 204-597 20-79 31-30 33 150l2 174-79 195c-92 227-152 352-243 498-114 185-162 244-397 492-55 58-108 110-118 115-9 6-48 36-87 68-120 100-350 246-506 322-189 92-247 116-415 175-74 26-164 59-199 74-35 14-103 33-150 41-105 18-328 18-464 0zm449-655c112-45 327-173 432-258l43-35-48-24c-53-25-93-34-288-61-110-15-139-16-190-6-94 20-193 19-252-1-73-24-161-16-423 37-163 33-216 48-218 60-4 22 91 105 186 162 150 89 390 153 589 155 81 1 102-3 169-29zm-68-866c141-46 202-107 202-198l-1-51-19 55c-28 82-97 132-233 167-127 32-228 0-336-108-42-42-66-58-73-51-34 34 115 170 222 203 55 17 159 9 238-17z"/><path d="M3623 7293c-71-89-197-258-243-325-14-20-59-83-100-140-41-56-79-110-85-119-5-9-33-50-61-90-121-177-263-436-491-899-134-272-258-533-274-580-85-238-175-680-224-1096-56-483-68-603-74-809-14-419 20-691 129-1018 60-180 109-287 184-399 83-126 253-333 334-410 111-104 284-240 375-292 45-27 94-57 109-67 15-11 39-19 53-19 33 0 65-33 66-67 1-16 7 6 14 48 28 162 125 479 147 479 6 0 7-7 3-17-17-39-85-345-100-446-42-296 5-447 202-657 90-96 143-136 250-189 183-92 377-124 743-125 293-1 429 14 861 95 705 131 1468 522 2133 1092 113 97 407 394 575 582 214 239 358 506 805 1500 62 138 123 269 135 292 11 23 21 45 21 48 0 8-198-167-425-376-211-194-343-339-499-552-31-42-61-75-67-72-5 4-62-43-127-103-193-181-283-255-295-243-7 7 9 28 54 69 123 114 350 527 496 907 110 283 163 556 163 836 0 340-68 630-211 898-88 164-245 417-355 571-39 54-298 379-301 377-1-1 12-40 28-87 52-146 68-277 71-562 1-176-2-274-12-323-9-48-12-148-11-320 2-264-10-415-50-609-52-259-174-615-200-589-8 8 0 45 25 121 142 440 181 683 173 1071-5 238-18 327-80 551-40 144-145 412-207 530l-29 55-1-170c-1-294-24-633-56-830-76-467-179-728-500-1271-81-137-166-289-190-338-25-50-48-93-53-96-6-3-44-59-86-125-102-159-256-365-273-365-21 0-13 14 96 177 204 306 321 519 392 718 56 155 142 428 150 476 5 25 13 63 19 85 33 126 64 329 97 634 8 76-4 59-66-93-106-259-274-578-398-757-157-227-394-512-586-705-87-88-122-132-174-220-78-134-126-202-230-325-111-131-177-194-196-187-28 11-17 45 25 79 96 76 306 345 359 460 11 24 37 70 56 103 90 150 204 445 243 629 25 115 37 225 24 211-6-5-54-86-108-180-169-296-383-597-594-837-208-237-464-444-771-625-47-28-139-82-205-121-169-99-274-178-395-301-124-126-218-254-297-409-60-118-87-148-52-59 81 206 217 403 391 566 114 107 231 187 486 333 106 60 317 197 387 251 22 17 41 32 43 33 13 7-55 99-295 400-154 192-314 390-357 439-43 50-116 142-163 205-48 63-107 140-133 170s-60 75-77 100c-43 63-53 70-187 139-66 34-127 68-136 76-26 24-34 17-14-12 17-27 133-185 300-408 45-60 121-155 169-210s122-145 165-200c42-55 132-163 200-240 187-214 391-507 369-529-2-3-24 28-49 67-55 91-195 266-335 422-59 66-149 172-200 235s-130 158-175 210c-126 148-464 601-505 678-16 29-57 86-92 125-74 84-140 180-182 266-16 34-72 114-124 178-52 65-111 142-130 171l-34 53-13-128c-11-111-10-141 4-229 9-56 16-150 16-210 0-173 71-484 150-659 18-38 50-115 72-170s70-165 107-245 72-156 78-170c9-22 12-13 27 66 48 261 41 469-20 642-14 39-24 79-20 87 17 46 69-3 224-208 264-350 419-698 488-1092 21-123 24-360 5-462-15-85-37-101-28-20 23 203 18 301-28 532-53 263-176 566-329 808-48 76-237 329-242 324-2-1 5-27 13-57 11-39 15-107 16-230 1-185-12-285-68-515-42-175-55-272-55-421 0-137-7-171-30-148-5 5-12 63-16 129-7 131 4 253 37 396l20 86-29 44c-16 24-36 62-45 85-8 22-54 121-100 220-113 238-194 432-217 518-10 39-33 168-52 286-31 203-33 230-33 475 0 261 12 408 42 530 18 73 107 330 231 665 21 58 46 125 55 150 8 25 31 81 50 125 76 174 249 588 302 721 31 77 97 215 146 305 100 180 141 259 136 259-2 0-35-39-74-87z"/><path d="M3048 5805c-3-6-37-113-77-240-97-312-112-358-118-372-3-10 11-13 54-13 52 0 247-17 406-36l59-7-50 99c-54 106-257 539-264 564-2 7-7 10-10 5zM6461 4914c-135-29-292-126-332-207-12-23-31-55-43-72-24-33-71-189-82-271l-6-52 59-58c73-73 160-137 148-108-45 108-40 324 10 423 37 74 112 146 191 183 55 26 78 31 142 31 49 0 91-6 115-16l37-16 30 66c17 36 28 68 26 71-3 2-36 13-73 23-79 22-133 23-222 3zm-99-146c-6-6-15-8-19-4s-1 11 7 16 17 7 19 4c3-2-1-10-7-16zM3741 4855c-191-35-338-177-372-359-12-66-4-132 32-250 23-77 67-129 142-168l38-19-15 30c-30 58-67 208-73 296-7 110 9 175 64 259 32 48 49 64 106 92 163 83 354 36 472-114 58-74 78-142 79-270l1-104 28 34c16 18 47 59 68 91l40 58-16 57c-35 122-118 236-223 306-113 75-208 90-371 61zM6996 4462c13-31 24-66 24-76 0-20 0-20 15 0 18 24 19 73 1 96-7 10-24 22-38 27l-25 9 23-56zM6816 3946l-48-12-38-129c-40-141-60-199-85-259-9-21-15-40-13-42 6-6 247 430 248 449 0 8 0 8-64-7z"/></g><g fill="#3a97b1"><path d="M1934 10008c-113-150-218-289-232-308s-44-55-67-80c-45-49-105-139-105-159 0-7-9-25-21-39-81-106-403-691-388-707 13-12 154-74 157-68 1 5 17 51 36 103 72 206 198 472 312 659 228 373 247 399 409 581 74 83 215 268 215 281 0 5-24 9-54 9h-55l-207-272z"/><path d="M2318 10272c-9-4-41-42-71-85-29-43-120-156-202-252-194-227-415-568-554-859-134-277-201-424-201-440 0-9 94-35 100-29 4 5 24 51 44 103 50 126 114 243 233 426 54 83 114 179 133 213 97 173 298 442 527 707 115 134 171 204 172 217 1 9-158 8-181-1z"/><path d="M2524 10212c-274-302-540-641-665-849-29-48-101-160-160-249-129-193-309-508-297-519 26-22 652-163 952-215 98-17 272-39 386-50l208-20 174 71c254 104 312 136 538 297 346 248 401 293 624 511 216 211 343 369 522 651 111 175 186 279 238 329 50 48 45 32-12-42-27-34-95-140-152-236-189-319-330-500-576-741-191-187-249-236-489-412-234-172-349-250-420-286-83-41-300-132-316-132-8 0-50-16-94-36-191-86-407-143-710-189-121-19-447-23-547-7-32 5-58 5-58 1 0-22 240-269 355-367 72-60 167-153 213-205 46-53 125-132 175-175 51-44 139-121 197-171 188-164 464-396 498-420 19-13 37-20 41-15 22 25 153 208 156 217 4 16-236 193-355 263-124 73-199 127-295 214-43 39-130 107-193 151-123 86-230 169-302 234-25 23-68 55-96 73-27 17-61 43-74 57-23 24-23 26-7 43 15 14 41 17 175 19 132 2 183 7 307 33 353 72 527 129 745 242 85 45 238 125 340 177 199 104 251 136 435 275 530 397 731 620 935 1042 78 162 171 324 185 324 3 0 1-8-5-17-5-10-44-94-86-188-109-243-164-348-232-450-80-120-199-261-308-365-142-136-553-457-699-546-54-34-488-261-651-343-56-27-157-66-225-86-68-21-143-43-166-51-23-7-122-30-220-50-143-29-206-37-317-40-76-2-141-5-143-7-2-3 36-33 84-67 48-35 133-102 188-150s136-111 180-140 109-78 145-110c103-90 217-173 325-236 55-32 158-102 229-156 72-54 133-98 137-98s15 12 24 28c10 15 68 95 130 177 142 190 248 305 281 305 53 0 57 8-168-409-49-91-87-172-86-180 4-19 45-43 130-75l67-25 48 38c55 44 342 223 485 302l95 53 2 156c2 162-14 291-45 365-21 51-77 138-125 195-26 30-39 56-39 76l-1 29-24-30c-14-16-25-27-25-24 0 7 122 229 306 559 60 107 117 209 126 225 9 17 55 98 101 180 128 227 330 617 377 730 59 141 119 267 137 287 8 9 20 15 27 12 9-3 11 4 8 26-7 47 25 39 49-12l19-43-6 40c-3 22-8 53-11 69-10 48 13 22 26-31 17-66 135-294 190-367 129-170 552-664 647-756 348-337 737-558 1307-741 122-40 276-92 342-116 66-25 158-53 205-64 128-31 150-52 116-117-45-86-344-322-581-457-27-16-133-84-235-151-189-125-539-318-597-330-26-5-33-3-33 9 0 19 25 34 235 141 94 47 222 119 285 160s192 123 285 181c313 197 448 298 559 414 43 46 56 65 47 74-6 6-61 25-123 43-184 53-729 239-858 294-66 27-122 50-124 50-32 0-348 176-481 268-279 192-464 371-750 727-48 61-113 139-144 174-129 146-214 279-277 430-13 31-23 49-23 41-1-24 92-232 139-312 24-40 78-127 120-193 43-66 112-183 155-260 98-176 199-346 242-406 18-26 33-49 33-53 0-3 35-63 79-133 43-71 103-173 134-228s72-122 91-150c20-27 36-55 36-61 0-7 9-14 20-17s20-10 20-16c0-5-25-39-56-73-39-44-74-100-114-183-75-155-94-236-106-455-3-69-8-127-10-130-7-14 19-31 126-80 147-68 167-80 357-201 87-56 204-141 261-191l103-89 157 79c173 87 390 209 496 280 94 62 679 501 701 526 6 6 53 48 105 93 143 123 340 328 340 353 0 5-48 11-107 14-334 20-438 38-773 136-361 105-487 149-707 250-413 188-727 400-978 659-60 62-183 185-273 274-174 171-233 249-316 414-25 50-64 120-86 155-45 68-123 228-116 236 9 8 27-10 45-47 11-20 53-87 94-147 40-60 100-159 132-221 72-141 155-244 288-361 58-51 140-133 182-183 315-368 941-744 1520-913 66-19 206-60 310-91 105-31 222-61 260-67l70-11 100 53c202 106 482 247 566 283 47 21 134 65 193 99l106 60-53 32c-115 69-382 286-580 471-59 55-154 156-211 225-205 249-316 436-421 710-37 96-71 185-76 197l-9 23H5208l-2623-1-61-67zm4794-239c69-70 350-499 426-650 43-87 23-112-137-168-87-31-107-41-102-54 4-9 13-47 21-84 8-38 18-76 24-86 16-31 79-283 82-331 2-37 0-45-16-48-26-5-79 49-134 138-25 41-83 134-128 205-87 136-170 299-180 351l-6 30 114 45c62 24 116 43 120 41 26-8-8 164-68 343-41 124-94 296-94 308 0 20 36 2 78-40z"/><path d="M7880 10272c0-40 124-345 191-471 199-370 457-648 991-1064l138-108 40 21c22 11 40 24 40 29 0 10-58 56-152 119-145 98-531 432-649 563-159 177-272 331-352 479-46 85-144 318-168 398-11 39-15 42-46 42-18 0-33-4-33-8z"/><path d="M7990 10270c0-5 20-63 45-129 109-294 268-543 499-779 143-148 468-432 596-522 41-29 96-73 122-98l47-45 45 29c25 16 46 32 46 35s-24 26-52 50c-110 92-438 401-563 530-71 74-168 184-215 244-47 59-113 143-147 185-34 43-77 102-96 131-47 73-152 284-167 337l-13 42h-74c-40 0-73-4-73-10zM1310 8575c7-8 24-15 39-15 25 1 25 1-8 15-42 19-47 19-31 0zM5012 7409c-119-13-219-35-252-56-88-56-600-424-760-546-111-85-276-225-323-274l-28-30 21-25c11-15 20-29 20-33s43-48 95-97c52-50 134-138 182-197 48-58 117-140 153-181 37-41 118-136 180-210 63-74 166-191 230-260s175-190 247-270c153-170 622-653 800-825 118-114 124-122 121-155s-5-35-44-38c-43-3-116 14-294 68-120 37-344 99-347 97-1-1 22-38 52-82 29-44 83-129 120-190 37-60 111-173 165-250s114-166 134-198 41-55 46-52c17 11 121 195 186 333 64 135 84 161 93 116 2-10 10-23 18-27 8-5 23-22 33-39 18-30 18-30 29-9 14 25 43 27 61 6 27-32-8-282-61-443-12-35-18-66-14-70 15-15 176 172 287 334 65 94 120 178 123 186 4 10-19 27-82 58-115 56-199 143-306 314-87 137-190 355-176 370 11 12 4 22 79-114 34-63 84-149 109-190l46-75 6 45c12 79 67 243 104 305 84 144 271 252 465 270 81 8 198-14 263-48l47-25 13 46c10 34 20 48 34 50 17 3 24 19 42 110 38 191 52 323 58 542 9 349-28 565-137 785-71 144-210 355-293 445-30 32-201 138-332 207-218 113-395 182-745 289-114 34-137 38-255 40-71 1-168-2-213-7zm459-675c130-64 314-186 362-240l37-42-55-26c-39-18-91-31-173-41-64-8-137-20-162-25-31-8-66-7-115 0-148 23-196 24-276 1-91-25-132-26-218-4-36 9-147 32-245 52-100 20-181 41-183 48-2 6 11 29 29 50 19 21 42 50 51 65 25 40 146 122 233 158 106 44 216 58 430 56l180-1 105-51zm-200-828c115-25 231-98 259-165 13-32 10-96-5-96-5 0-13 19-18 42-21 107-234 202-381 171-72-15-97-30-175-103-38-36-74-65-80-65-26 0-7 45 41 97 60 62 121 101 187 119 61 17 93 16 172 0zm1578-908c1-20-7-22-27-9-11 6-11 13 0 35 11 25 13 26 19 9 4-10 8-26 8-35z"/><path d="M3435 6500c-33-39-61-75-63-79-2-5 22-31 54-57 31-27 93-92 137-144 139-163 338-371 742-776 215-214 446-448 515-520 69-71 202-203 296-294s197-199 230-242c57-74 61-77 129-97 96-28 175-44 183-37 3 4-71 82-165 174-237 231-641 648-803 827-74 83-175 193-224 245s-134 149-189 215-130 154-167 195c-36 41-109 127-162 190-52 63-151 169-219 234-68 66-146 145-173 175-27 31-52 57-55 59-4 1-33-30-66-68zM2821 5049c-13-76-12-81 6-102 11-12 33-44 50-72 28-46 87-130 275-389 40-54 93-133 119-175 46-74 84-119 94-110 2 3-4 28-15 56-67 176-30 357 100 497 105 111 227 159 415 160 133 1 195-19 297-95 145-108 242-297 250-483l2-58 26 30c36 44 112 173 177 304 31 62 67 123 79 135l23 23-90 44c-49 25-99 48-112 51-12 4-85 38-162 76-182 90-262 111-425 111-205 1-388-46-617-157-62-30-116-55-119-55-4 0-15-7-24-15-15-14-23-9-81 57-99 114-231 248-244 248-7 0-17-35-24-81zM3425 4073c10-16 43-62 75-103 31-41 100-134 153-207 105-144 148-199 272-343 44-52 111-133 147-180s121-148 188-225c133-153 313-394 367-492l35-63 61 47c34 26 63 47 65 48 12 9-54 99-295 401-154 192-314 390-357 439-43 50-116 142-163 205-48 63-107 140-133 170s-60 75-77 100c-43 63-53 70-187 139-66 34-127 68-136 76-26 24-34 17-15-12z"/></g><g fill="#9c569a"><path d="M1934 10008c-113-150-218-289-232-308s-44-55-67-80c-46-50-105-139-105-160 0-7-7-21-15-30-14-16-71-110-217-359-63-108-178-331-178-346 0-10 51-39 126-71l31-13 38 117c44 138 205 476 305 641 228 375 252 409 415 591 74 83 215 268 215 281 0 5-24 9-54 9h-55l-207-272z"/><path d="M2322 10273c-7-3-31-33-54-66-55-81-91-127-220-275-150-172-178-213-401-577-112-182-364-706-346-718 2-1 21-10 42-20l38-17 25 55c13 31 24 58 24 61 0 25 148 294 241 436 63 97 143 223 177 280 80 132 258 369 425 566 137 163 184 220 205 250l23 32-83-1c-46 0-89-3-96-6z"/><path d="M2524 10212c-274-302-540-641-665-849-29-48-101-160-160-249-129-193-309-508-297-519 26-22 652-163 952-215 98-17 272-39 386-50l208-20 174 71c254 104 312 136 538 297 346 248 401 293 624 511 216 211 343 369 522 651 111 175 186 279 238 329 50 48 45 32-12-42-27-34-95-140-152-236-189-319-330-500-576-741-191-187-249-236-489-412-234-172-349-250-420-286-83-41-300-132-316-132-8 0-50-16-94-36-191-86-407-143-710-189-121-19-447-23-547-7-32 5-58 5-58 1 0-22 240-269 355-367 72-60 167-153 213-205 46-53 125-132 175-175 51-44 139-121 197-171 188-164 464-396 498-420 19-13 37-20 41-15 22 25 153 208 156 217 4 16-236 193-355 263-124 73-199 127-295 214-43 39-130 107-193 151-123 86-230 169-302 234-25 23-68 55-96 73-27 17-61 43-74 57-23 24-23 26-7 43 15 14 41 17 175 19 132 2 183 7 307 33 353 72 527 129 745 242 85 45 238 125 340 177 199 104 251 136 435 275 532 398 725 614 941 1051 51 105 106 213 121 241 15 27 34 64 41 82 8 19 23 34 37 38 34 8 79-9 84-32 1-10 9-26 16-34s19-35 25-60c18-66 136-293 189-364 129-170 552-664 647-756 348-337 737-558 1307-741 122-40 276-92 342-116 66-25 158-53 205-64 128-31 150-52 116-117-22-41-160-171-266-248-100-74-118-86-350-234-80-51-181-116-225-145-190-124-544-315-587-316h-23l25-17c14-9 74-59 133-110l108-93 157 79c173 87 390 209 496 280 94 62 679 501 701 526 6 6 53 48 105 93 143 123 340 328 340 353 0 5-48 11-107 14-334 20-438 38-773 136-361 105-487 149-707 250-413 188-727 400-978 659-60 62-183 185-273 274-174 171-233 249-316 414-25 50-64 120-86 155-45 68-123 228-116 236 9 8 27-10 45-47 11-20 53-87 94-147 40-60 100-159 132-221 72-141 155-244 288-361 58-51 140-133 182-183 315-368 941-744 1520-913 66-19 206-60 310-91 105-31 222-61 260-67l70-11 100 53c202 106 482 247 566 283 47 21 134 65 193 99l106 60-53 32c-115 69-382 286-580 471-59 55-154 156-211 225-205 249-316 436-421 710-37 96-71 185-76 197l-9 23H5208l-2623-1-61-67zm4794-239c69-70 350-499 426-650 43-87 23-112-137-168-87-31-107-41-102-54 4-9 13-47 21-84 8-38 18-76 24-86 16-31 79-283 82-331 2-37 0-45-16-48-26-5-79 49-134 138-25 41-83 134-128 205-87 136-170 299-180 351l-6 30 114 45c62 24 116 43 120 41 26-8-8 164-68 343-41 124-94 296-94 308 0 20 36 2 78-40z"/><path d="M7319 9838c16-46 47-123 68-173 67-151 93-231 87-267-12-61-28-75-131-108-54-17-104-35-112-39-25-16 87-223 306-563 20-32 38-57 39-55 5 6-27 133-59 232-19 61-38 135-42 165s-12 62-18 72c-9 13-7 21 7 37 18 20 29 25 135 62 35 13 77 34 92 47 34 28 32 34-41 127-26 33-68 96-93 140-81 145-250 405-262 405-2 0 9-37 24-82zM7880 10269c0-7 32-93 71-193 200-508 477-842 1089-1316 52-40 109-86 125-101l30-27 43 22 44 22-36 32c-20 17-71 55-114 83-91 61-184 137-382 310-321 281-514 516-653 794-48 96-131 296-152 363-5 16-14 22-36 22-16 0-29-5-29-11z"/><path d="M7995 10253c10-41 112-287 155-373 79-157 227-358 384-518 143-148 468-432 596-522 41-29 96-73 122-98l47-45 45 29c25 16 46 32 46 35s-24 26-52 50c-110 92-438 401-563 530-71 74-168 184-215 244-47 59-113 143-147 185-34 43-77 102-96 131-47 73-152 284-167 337l-13 42h-149l7-27zM9190 10270c113-3 223-2 245 1 22 4-70 6-205 6l-245-1 205-6zM9074 9258l-29-33 33 29c30 28 37 36 29 36-2 0-16-15-33-32zM4489 9084c-47-49-357-301-502-408-166-123-227-160-442-271-104-54-208-108-230-120-224-126-332-169-610-240-255-65-326-77-493-82l-163-5 85-59c46-33 126-97 178-142 51-46 135-111 186-146 51-34 123-88 161-121l69-59 69 19c242 67 568 206 713 304 166 112 415 424 637 796 138 234 191 313 324 493 32 42 57 77 55 77-1 0-18-16-37-36z"/><path d="M9080 9107c0-2 15-16 33-33l32-29-29 33c-28 30-36 37-36 29zM1315 8570c3-5 18-10 32-10 32 0 28 5-10 14-19 4-26 3-22-4zM1465 8530c11-5 27-9 35-9 9 0 8 4-5 9-11 5-27 9-35 9-9 0-8-4 5-9zM2723 8283c9-2 25-2 35 0 9 3 1 5-18 5s-27-2-17-5zM1808 8123c12-2 30-2 40 0 9 3-1 5-23 4-22 0-30-2-17-4zM2118 8123c12-2 32-2 45 0 12 2 2 4-23 4s-35-2-22-4zM8353 8103c9-2 25-2 35 0 9 3 1 5-18 5s-27-2-17-5zM8493 8093c20-2 54-2 75 0 20 2 3 4-38 4s-58-2-37-4zM8706 8080c7-8 14-24 17-35 4-19 5-19 6 1 0 12-7 28-16 35-16 12-17 12-7-1zM8641 7912l-54-67 47 45c45 43 72 78 64 85-2 2-28-26-57-63zM8449 7723l-34-38 38 34c20 19 37 36 37 38 0 8-8 0-41-34zM2106 7578c38-42 71-74 73-72 3 3-28 37-69 77l-73 72 69-77zM2250 7425c19-19 36-35 39-35s-10 16-29 35-36 35-39 35 10-16 29-35zM5012 7409c-119-13-219-35-252-56-38-24-363-254-525-372-258-187-399-299-527-420-51-48-56-56-46-75 6-11 66-77 133-146 66-69 152-163 190-210s99-119 135-160c37-41 118-136 180-210 63-74 166-191 230-260s175-190 247-270c153-170 622-653 800-825 118-114 124-122 121-155s-5-35-44-38c-43-3-116 14-294 68-120 37-344 99-347 97-1-1 22-38 52-82 29-44 83-129 120-190 37-60 111-173 165-250s114-166 134-198 41-55 46-52c17 11 121 195 186 333 64 135 84 161 93 116 2-10 10-23 18-27 8-5 23-22 33-39 18-30 18-30 29-9 14 25 43 27 61 6 27-32-8-282-61-443-12-35-18-66-14-70 15-15 176 172 287 334 65 94 120 178 123 186 4 10-19 27-82 58-115 56-199 143-306 314-87 137-190 355-176 370 11 12 4 22 79-114 34-63 84-149 109-190l46-75 6 45c12 79 67 243 104 305 84 144 271 252 465 270 81 8 198-14 263-48l47-25 13 46c10 34 20 48 34 50 17 3 24 19 42 110 38 191 52 323 58 542 9 349-28 565-137 785-71 144-210 355-293 445-30 32-201 138-332 207-218 113-395 182-745 289-114 34-137 38-255 40-71 1-168-2-213-7zm459-675c130-64 314-186 362-240l37-42-55-26c-39-18-91-31-173-41-64-8-137-20-162-25-31-8-66-7-115 0-148 23-196 24-276 1-91-25-132-26-218-4-36 9-147 32-245 52-100 20-181 41-183 48-2 6 11 29 29 50 19 21 42 50 51 65 25 40 146 122 233 158 106 44 216 58 430 56l180-1 105-51zm-200-828c115-25 231-98 259-165 13-32 10-96-5-96-5 0-13 19-18 42-21 107-234 202-381 171-72-15-97-30-175-103-38-36-74-65-80-65-26 0-7 45 41 97 60 62 121 101 187 119 61 17 93 16 172 0zm1578-908c1-20-7-22-27-9-11 6-11 13 0 35 11 25 13 26 19 9 4-10 8-26 8-35zM2318 7345c47-58 65-76 71-70 3 3-19 29-49 58-46 45-49 47-22 12z"/><path d="M3623 7293c-71-89-197-258-243-325-14-20-59-83-100-140-41-56-79-110-85-119-5-9-33-50-61-90-121-177-263-436-491-899-134-272-258-533-274-580-85-238-175-680-224-1096-56-483-68-603-74-809-14-419 20-691 129-1018 60-180 109-287 184-399 83-126 253-333 334-410 111-104 284-240 375-292 45-27 94-57 109-67 15-11 39-19 53-19 33 0 65-33 66-67 1-16 7 6 14 48 28 162 125 479 147 479 6 0 7-7 3-17-17-39-85-345-100-446-42-296 5-447 202-657 90-96 143-136 250-189 183-92 377-124 743-125 293-1 429 14 861 95 705 131 1468 522 2133 1092 113 97 407 394 575 582 214 239 358 506 805 1500 62 138 123 269 135 292 11 23 21 45 21 48 0 8-198-167-425-376-211-194-343-339-499-552-31-42-61-75-67-72-5 4-62-43-127-103-193-181-283-255-295-243-7 7 9 28 54 69 123 114 350 527 496 907 110 283 163 556 163 836 0 340-68 630-211 898-88 164-245 417-355 571-39 54-298 379-301 377-1-1 12-40 28-87 52-146 68-277 71-562 1-176-2-274-12-323-9-48-12-148-11-320 2-264-10-415-50-609-52-259-174-615-200-589-8 8 0 45 25 121 142 440 181 683 173 1071-5 238-18 327-80 551-40 144-145 412-207 530l-29 55-1-170c-1-294-24-633-56-830-76-467-179-728-500-1271-81-137-166-289-190-338-25-50-48-93-53-96-6-3-44-59-86-125-102-159-256-365-273-365-21 0-13 14 96 177 204 306 321 519 392 718 56 155 142 428 150 476 5 25 13 63 19 85 33 126 64 329 97 634 8 76-4 59-66-93-106-259-274-578-398-757-157-227-394-512-586-705-87-88-122-132-174-220-78-134-126-202-230-325-111-131-177-194-196-187-28 11-17 45 25 79 96 76 306 345 359 460 11 24 37 70 56 103 90 150 204 445 243 629 25 115 37 225 24 211-6-5-54-86-108-180-169-296-383-597-594-837-208-237-464-444-771-625-47-28-139-82-205-121-169-99-274-178-395-301-124-126-218-254-297-409-60-118-87-148-52-59 77 196 206 387 369 547 37 36 55 56 42 45-22-18-24-18-19-2 4 9 14 83 23 165 14 125 15 164 5 262-37 360-165 727-365 1043-48 76-237 329-242 324-2-1 5-27 13-57 11-39 15-107 16-230 1-185-12-285-68-515-42-175-55-272-55-421 0-137-7-171-30-148-5 5-12 63-16 129-7 131 4 253 37 396l20 86-29 44c-16 24-36 62-45 85-8 22-54 121-100 220-113 238-194 432-217 518-10 39-33 168-52 286-31 203-33 230-33 475 0 261 12 408 42 530 18 73 107 330 231 665 21 58 46 125 55 150 8 25 31 81 50 125 76 174 249 588 302 721 31 77 97 215 146 305 100 180 141 259 136 259-2 0-35-39-74-87zM1855 7170c27-27 51-50 54-50s-17 23-44 50c-27 28-51 50-54 50s17-22 44-50zM2020 6995c19-19 36-35 39-35s-10 16-29 35-36 35-39 35 10-16 29-35zM2080 6927c0-2 15-16 33-33l32-29-29 33c-28 30-36 37-36 29z"/><path d="M3480 6834c-6-16-32-80-56-143-37-90-43-115-32-122 7-5 17-9 21-9 5 0 59 48 121 106l112 107-50 27c-28 14-64 34-78 44-28 18-28 18-38-10zM7830 6691c-19-11-39-17-44-14-5 4-6 1-2-5 5-9 18-6 47 8 21 11 39 23 39 25 0 7 0 7-40-14zM1545 6320c71-71 132-130 135-130 2 0-54 59-125 130-71 72-132 130-135 130-2 0 54-58 125-130zM3570 6423c-12-15-37-44-55-64l-33-36 80-94c199-232 454-500 718-754 75-71 243-242 375-380 132-137 267-274 300-305 152-140 323-313 386-391l70-86 109-27c59-16 113-27 119-25 5 2-169 184-387 404-514 518-840 875-1308 1435-111 132-314 338-343 348-5 2-19-10-31-25zM2049 5705c5-11 17-29 26-40l16-20-10 20c-5 11-17 29-26 40l-16 20 10-20zM2286 5132c-4-7 0-19 8-28 17-17 19-11 7 20-5 14-10 16-15 8zM3820 5050c-161-16-324-66-507-155-62-30-116-55-119-55-4 0-16-8-26-17-18-16-21-14-66 38-25 30-76 85-112 123l-66 68-19-95-19-95 60-81c32-45 64-89 69-99 19-32 99-147 155-222 31-41 77-109 103-150 45-74 82-118 92-109 2 3-4 28-15 56-67 176-30 357 100 497 105 111 227 159 415 160 133 1 195-19 297-95 145-108 242-297 250-483l2-58 26 30c36 44 112 173 177 304 31 62 67 123 79 135l23 23-90 44c-49 25-99 48-112 51-12 4-85 38-162 76s-174 77-215 88c-92 23-220 31-320 21zM6908 4907l-3-50 64-56c36-31 84-82 107-114l43-57 10 52c6 29 13 71 17 93 3 22 8 48 11 58s-2 20-14 24c-10 3-25 12-34 19-8 8-56 29-106 47l-91 34-4-50zM2869 4684c-3-276 20-589 52-709 10-38 63-163 116-276 96-202 98-205 106-170 5 20 6 122 3 227-5 161-4 193 8 203 8 7 21 11 29 9 16-4 187-191 187-205 0-5 43-69 95-142 118-164 161-234 235-386 73-151 80-167 125-295 77-221 115-429 115-625v-118l31 47c39 58 62 75 224 166 244 136 346 201 337 213-61 82-223 278-309 373-59 66-162 188-228 270-65 82-147 181-182 219-76 86-406 534-452 614-18 32-62 92-98 132-79 90-113 139-170 247-34 65-130 196-219 301-2 2-5-40-5-95zM6390 4457c-30-15-60-71-60-112 0-43 35-94 76-111 34-14 36-14 76 18 25 19 50 53 65 85 23 50 23 53 7 78-33 50-109 70-164 42z"/><path d="M3725 4435c-40-20-75-74-75-114 0-61 46-116 101-121s73 2 110 39c34 34 39 44 39 85 0 90-96 152-175 111zM8453 4270c0-25 2-35 4-22 2 12 2 32 0 45-2 12-4 2-4-23zM3473 4014c37-49 116-156 176-239 60-82 143-190 185-240 42-49 137-164 210-255 74-91 175-212 226-270 79-89 227-279 280-358l15-22 57 37c32 21 57 41 55 45-4 13-367 467-518 648-80 96-191 236-247 310-202 269-192 258-321 325-65 34-132 72-151 85-29 21-24 12 33-66zM8453 3995c0-22 2-30 4-17 2 12 2 30 0 40-3 9-5-1-4-23zM2072 3850c0-19 2-27 5-17 2 9 2 25 0 35-3 9-5 1-5-18zM6675 3614c3-12-3-31-13-45-11-13-22-35-26-49-7-22-5-21 12 6 32 50 55 97 44 90-6-3-13 0-16 6-3 7-4 4-1-8zM2032 3500c0-19 2-27 5-17 2 9 2 25 0 35-3 9-5 1-5-18zM8814 3478l-29-33 33 29c17 17 32 31 32 33 0 8-8 1-36-29zM2023 3360c0-30 2-43 4-27 2 15 2 39 0 55-2 15-4 2-4-28zM8704 3378l-29-33 33 29c17 17 32 31 32 33 0 8-8 1-36-29zM8545 3228l-60-63 63 60c58 55 67 65 59 65-1 0-29-28-62-62zM8236 3149c-9-23-15-43-13-46 3-2 12 15 21 38s15 43 13 46c-3 2-12-15-21-38zM3191 3145c0-5 9-28 20-50 10-22 16-29 13-15-7 28-33 80-33 65zM8424 3108l-29-33 33 29c17 17 32 31 32 33 0 8-8 1-36-29zM8194 3054c-9-21-29-65-45-96-16-32-27-58-24-58 8 0 97 182 91 188-3 3-13-12-22-34zM2022 2830c0-19 2-27 5-17 2 9 2 25 0 35-3 9-5 1-5-18zM8074 2698l-29-33 33 29c17 17 32 31 32 33 0 8-8 1-36-29zM7969 2606c-31-46-30-49 5-17 42 40 40 38 22 38-7 0-20-10-27-21zM8154 1768l-29-33 33 29c17 17 32 31 32 33 0 8-8 1-36-29zM8010 1613l-55-58 58 55c53 50 62 60 54 60-1 0-27-26-57-57zM2655 1400c44-44 82-80 85-80 2 0-31 36-75 80s-82 80-85 80c-2 0 31-36 75-80zM7614 1218l-29-33 33 29c17 17 32 31 32 33 0 8-8 1-36-29zM3323 840c0-41 2-58 4-37 2 20 2 54 0 75-2 20-4 3-4-38zM6588 519c-32-16-58-32-58-34 0-3 27 8 60 25s60 32 60 35c0 7 2 8-62-26zM6097 297c-42-17-75-32-73-34 4-5 166 56 166 63s-11 3-93-29zM4328 13c12-2 32-2 45 0 12 2 2 4-23 4s-35-2-22-4zM4818 13c12-2 30-2 40 0 9 3-1 5-23 4-22 0-30-2-17-4z"/></g><g fill="#ffcb2c"><path d="M7319 9838c16-46 47-123 68-173 67-151 93-231 87-267-12-61-28-75-131-108-54-17-104-35-112-39-17-11 40-135 134-286 37-60 94-153 126-206 78-128 89-137 73-56-8 34-27 102-43 151-17 49-35 116-41 150-6 33-16 71-22 84-22 42 12 69 141 114 35 12 77 33 92 46 34 28 32 34-41 127-26 33-68 96-93 140-81 145-250 405-262 405-2 0 9-37 24-82zM5060 9688c-54-127-258-526-379-741-187-333-286-505-364-634l-85-141 25-24c41-37 142-177 175-241 37-74 108-283 108-319 0-35 7-35 51-2 136 101 413 195 662 224 121 14 200 1 375-64 64-24 118-43 119-42 1 0 13 53 28 116 36 158 66 443 53 504-5 26-45 105-95 188-98 163-201 352-318 583-44 88-99 194-122 235-42 77-64 136-129 345-20 66-40 124-44 128-4 5-31-47-60-115zM5012 7409c-119-13-219-35-252-56-38-24-363-254-525-372-258-187-399-299-527-420-51-48-56-56-46-75 6-11 66-77 133-146 66-69 152-163 190-210s99-119 135-160c37-41 118-136 180-210 63-74 166-191 230-260s175-190 247-270c153-170 622-653 800-825 118-114 124-122 121-155s-5-35-44-38c-43-3-116 14-294 68-120 37-344 99-347 97-1-1 22-38 52-82 29-44 83-129 120-190 37-60 111-173 165-250s114-166 134-198 41-55 46-52c17 11 121 195 186 333 64 135 84 161 93 116 2-10 10-23 18-27 8-5 23-22 33-39 18-30 18-30 29-9 14 25 43 27 61 6 27-32-8-282-61-443-12-35-18-66-14-70 15-15 176 172 287 334 65 94 120 178 123 186 4 10-19 27-82 58-115 56-199 143-306 314-87 137-190 355-176 370 11 12 8 17 69-94 90-161 155-270 163-270 4 0 7 13 7 29 0 39 54 214 86 277 104 207 406 345 637 290 37-9 86-25 108-37 23-11 43-18 46-15 3 2 11 22 18 43 8 24 20 39 33 41 16 3 23 20 41 110 38 191 52 323 58 542 9 349-28 565-137 785-71 144-210 355-293 445-30 32-201 138-332 207-218 113-395 182-745 289-114 34-137 38-255 40-71 1-168-2-213-7zm459-675c130-64 314-186 362-240l37-42-55-26c-39-18-91-31-173-41-64-8-137-20-162-25-31-8-66-7-115 0-148 23-196 24-276 1-91-25-132-26-218-4-36 9-147 32-245 52-100 20-181 41-183 48-2 6 11 29 29 50 19 21 42 50 51 65 25 40 146 122 233 158 106 44 216 58 430 56l180-1 105-51zm-200-828c115-25 231-98 259-165 13-32 10-96-5-96-5 0-13 19-18 42-21 107-234 202-381 171-72-15-97-30-175-103-38-36-74-65-80-65-26 0-7 45 41 97 60 62 121 101 187 119 61 17 93 16 172 0zm1578-908c1-20-7-22-27-9-11 6-11 13 0 35 11 25 13 26 19 9 4-10 8-26 8-35zM3106 5608c-9-21-23-55-32-75-8-21-37-109-64-195-42-139-46-158-30-158 26 0 320-29 356-35l30-5-88 182c-49 101-104 215-123 253l-33 70-16-37zM2869 4684c-3-276 20-589 52-709 10-38 63-163 116-276 96-202 98-205 106-170 5 20 6 122 3 227-5 161-4 193 8 203 8 7 21 11 29 9 17-4 187-192 187-206 0-6 33-55 73-109 166-224 288-448 368-674 91-258 129-456 129-664v-118l31 47c39 58 62 75 224 166 244 136 346 201 337 213-61 82-223 278-309 373-59 66-162 188-228 270-65 82-147 181-182 219-76 86-406 534-452 614-18 32-62 92-98 132-79 90-113 139-170 247-34 65-130 196-219 301-2 2-5-40-5-95z"/></g><g fill="#46cbe5"><path d="M2322 10273c-7-3-31-33-54-66-55-81-91-127-220-275-150-172-178-213-401-577-112-182-364-706-346-718 2-1 21-10 41-20 44-20 36-30 99 123 50 122 107 225 226 405 47 72 113 175 145 230 121 204 262 392 533 710 60 72 120 145 133 163l23 32-83-1c-46 0-89-3-96-6zM7886 10253c17-69 148-381 195-465 207-369 465-645 959-1028 52-40 109-86 125-101l30-27 43 22 44 22-36 32c-20 17-71 55-114 83-91 61-184 137-382 310-321 281-514 516-653 794-48 96-131 296-152 363-5 16-14 22-36 22-27 0-29-2-23-27zM4489 9084c-47-49-357-301-502-408-166-123-227-160-442-271-104-54-208-108-230-120-248-140-420-202-779-282-136-30-186-36-324-40l-163-5 85-59c46-33 126-97 178-142 51-46 135-111 186-146 51-34 123-88 161-121l69-59 69 19c242 67 568 206 713 304 166 112 415 424 637 796 138 234 191 313 324 493 32 42 57 77 55 77-1 0-18-16-37-36zM6115 8781c19-29 66-111 106-184 39-73 81-148 94-167 12-19 61-125 109-235 49-110 126-274 172-365 50-100 104-224 135-315 28-82 64-175 80-205 39-72 130-178 149-172 22 8 171 100 312 193 70 46 189 122 264 169 74 47 183 120 241 164 112 84 243 208 243 230 0 9-21 19-52 26-29 7-228 71-443 142-722 241-972 372-1407 738l-38 32 35-51zM1315 8570c3-5 16-10 28-9 21 0 21 1 2 9-28 12-37 12-30 0zM3570 6423c-12-15-37-44-55-64l-33-36 80-94c153-178 412-455 552-589 78-74 200-195 271-269 72-74 310-315 530-535 221-221 422-428 448-462l47-60 109-28c60-16 114-27 120-25 5 2-169 184-387 404-514 518-840 875-1308 1435-111 132-314 338-343 348-5 2-19-10-31-25zM3820 5050c-160-16-320-65-510-156-142-68-146-70-142-83 5-26-19-6-86 72-39 45-90 101-115 125l-43 43-19-95-19-94 54-73c29-40 82-116 118-169 35-52 86-122 112-155s60-82 75-110c64-114 143-200 110-121-7 17-21 70-31 116-13 68-14 95-6 147 30 179 162 332 337 390 69 22 98 26 210 27l130 1 79-39c182-89 306-275 340-509l11-81 51 79c28 44 81 139 117 211s78 145 92 163c15 17 26 33 24 35-2 1-25 10-51 20-26 9-63 28-82 41-18 13-45 26-57 30-13 4-87 38-164 76s-174 77-215 88c-92 23-220 31-320 21zM3473 4014c37-49 116-156 176-239 60-82 143-190 185-240 42-49 137-164 210-255 74-91 175-212 226-270 79-89 227-279 280-358l15-22 57 37c32 21 57 41 55 45-4 13-367 467-518 648-80 96-185 227-232 290-217 289-207 278-336 345-65 34-132 72-151 85-29 21-24 12 33-66z"/></g><g fill="#d36ac2"><path d="M2077 10193c-128-174-378-499-434-567-32-37-74-97-93-132s-90-155-156-267c-117-194-255-449-268-493-6-18 3-25 71-56l77-34 37 110c75 223 204 482 386 775 158 256 167 268 304 426 119 137 248 303 249 318 0 4-24 7-54 7h-54l-65-87zM2559 10245c-12-19-24-35-28-35-9 0-180-197-331-380-120-145-277-365-352-488-28-48-91-146-139-218-119-178-160-247-240-397l-67-128 26-10c14-6 98-28 186-49l160-40 81 16c165 31 222 49 345 104 69 31 211 87 315 125 279 99 448 166 555 220 192 96 691 409 869 544 162 123 388 341 503 485 73 91 198 268 198 281 0 3-464 5-1030 5H2579l-20-35zM5817 10166c165-241 542-705 703-865 363-361 438-429 628-569 153-114 225-156 426-250 360-167 498-219 703-268l71-17 162 88c89 49 228 117 309 152 137 60 335 165 346 184 3 4-9 16-27 25-88 45-434 324-607 489-117 112-278 305-375 450-123 183-193 328-291 600l-33 90-1047 3-1046 2 78-114zm1487-177c71-63 328-448 434-651 32-62 34-69 22-98-15-36-33-47-161-90l-95-32 14-62c7-33 24-92 38-131 35-104 76-274 78-325 1-36-3-45-18-48-25-5-88 58-134 133-19 33-77 125-128 205-50 80-104 170-119 200-23 45-75 173-75 184 0 1 56 25 125 52 102 40 125 53 125 69 0 30-47 220-75 300-36 107-95 304-95 321 0 23 14 17 64-27z"/><path d="M7995 10258c20-64 102-263 143-347 93-187 233-380 407-560 103-107 490-443 580-504 33-23 85-64 115-93l56-53 42 25c23 14 42 29 42 34s-39 43-87 86c-153 134-485 453-576 553-97 105-141 158-296 358-109 141-250 386-272 475l-13 48h-74c-71 0-73-1-67-22zM5029 10118c-20-24-87-128-149-232-110-183-223-347-339-491-72-90-338-353-461-457-90-75-440-334-579-428-88-59-401-200-444-200-9 0-52-16-94-36-301-142-831-230-1172-195-62 7-115 10-117 8-10-10 244-272 344-355 61-51 146-132 189-180 43-47 96-105 118-127l40-41 90 1c57 0 112 7 150 19l59 19-39 33c-22 19-80 62-129 97-140 98-226 164-295 225-35 31-101 82-145 113-137 95-117 119 98 119 177 0 376 36 694 126 150 42 194 62 557 251 344 179 367 192 535 317 554 409 769 643 966 1050 45 94 102 206 127 250 35 60 45 88 44 117-1 22-4 39-7 39s-22-19-41-42zM5252 10058c7-57 20-97 63-184 74-153 111-204 393-543 280-337 353-416 507-546 324-274 669-457 1165-619 124-40 288-96 365-124 77-27 174-57 215-67 41-9 83-24 92-32 46-42 0-118-143-239-124-105-293-218-799-537-52-33-99-63-103-67s34-36 85-70c51-35 108-76 126-92 18-15 38-28 45-28 30 0 292 169 489 316 387 289 541 413 717 579 78 74 201 212 201 227 0 4-31 8-69 8-229 0-478 39-736 115-104 31-251 74-325 96-179 53-325 112-555 223-393 191-715 421-951 681-43 48-110 117-149 153-214 203-270 273-360 452-26 52-64 120-84 150-19 30-54 91-76 135-40 79-41 80-81 83l-41 3 9-73zM8690 7974c0-6-23-37-52-70l-52-59 48 45c50 47 72 78 62 88-3 3-6 1-6-4zM2104 7580c69-77 85-92 49-45-17 22-46 54-64 70-20 17-13 7 15-25zM3395 6988c-10-18-56-83-102-144s-83-115-83-121c0-5-11-20-24-32s-32-39-42-59-26-46-35-57c-48-59-245-408-336-595-57-118-167-341-243-495-161-325-206-454-285-818-30-139-88-526-110-732-8-83-22-206-30-275-57-483-45-906 37-1235 62-252 168-503 273-649 165-230 293-367 494-527 122-98 319-219 356-219 32 0 51-18 53-51 4-50 11-48 11 2-1 47 24 154 73 314 17 55 37 129 44 165 8 37 44 129 85 215 40 83 77 161 83 175s73 88 150 165l138 140-5 160c-6 183-29 325-83 502-72 238-175 458-310 658-121 181-110 186-106-48 4-247-11-420-48-547-15-52-38-135-49-185-53-223-76-305-87-301-6 2-17-1-23-7-24-24-34 12-38 150-4 93 0 175 10 253 16 121 12 194-14 241-8 15-43 61-79 104-89 104-122 154-179 265-96 187-197 471-253 715-47 206-27 673 42 970 61 266 203 677 337 980 84 190 225 476 284 575 21 36 52 108 70 160 17 52 42 116 55 142 36 71 8 112-31 46zM7760 5689c0-3 9-45 19-94 32-146 63-421 57-505-3-41-8-133-11-205-16-375-48-584-115-750-74-184-121-281-204-419-42-69-84-145-93-169-18-47-39-74-50-64-3 4 6 49 22 100 108 355 133 457 160 661 39 301 28 615-29 856-20 80-42 165-49 190-14 43-14 39-10-80 5-133-3-188-50-375-14-55-44-183-67-285-60-267-96-367-209-580-113-212-134-246-290-468-123-176-323-415-486-582-56-58-134-149-174-202-62-86-101-120-101-88 0 6 49 83 108 173 121 182 202 310 202 321 0 4-4 5-9 1-6-3 14 47 43 112 30 65 75 186 101 268 27 83 72 222 101 310 91 278 240 916 219 943-1 1-33-71-70-160-38-90-108-239-156-333-48-93-100-197-117-230s-47-107-68-165c-98-275-273-637-430-889-143-230-349-498-488-636-150-149-236-216-468-367-191-124-272-167-600-316-209-95-309-152-423-237-186-141-256-219-379-423-36-60-87-138-113-172-27-35-58-77-71-94-12-17-26-31-30-31s-16-6-27-12c-19-11-18-15 27-105 55-109 171-248 269-322 176-132 389-192 734-205 330-13 547 6 965 85 215 40 394 88 570 151 553 199 1055 492 1549 903 113 93 448 425 601 595 236 262 379 524 832 1530 50 110 97 216 104 235l15 35-22-30c-12-16-56-61-98-100-131-119-278-274-409-430-272-323-365-410-527-490-50-24-102-56-115-71-42-44-187-164-199-164-27 0-6 31 59 89 39 35 70 67 70 72s33 62 73 127c123 197 168 285 294 582 151 354 207 608 207 950 1 353-52 588-195 870-87 172-238 417-375 610-26 37-74 88-74 79z"/><path d="M3820 5050c-159-16-322-66-505-154-60-29-118-56-127-59-10-4-18-13-18-21 0-7-11-17-24-20s-47-31-75-63l-50-56 17-29c9-16 54-78 99-138 44-60 94-130 109-157 65-113 142-197 109-119-7 17-21 70-31 116-13 68-14 95-6 147 30 179 162 332 337 390 69 22 98 26 210 27l130 1 79-39c182-89 306-275 340-509l11-81 51 79c28 44 81 139 117 211s78 145 92 163c15 17 26 33 24 35-2 1-25 10-51 20-26 9-63 28-82 41-18 13-45 26-57 30-13 4-87 38-164 76s-174 77-215 88c-92 23-220 31-320 21zM5860 3832c-23-42-72-126-107-185-36-59-82-152-103-206-51-130-196-418-285-566-40-66-127-196-193-290-66-93-119-171-117-173s39 17 82 44c88 53 167 125 253 229 70 86 190 267 190 288 0 9 4 18 9 22 5 3 15 22 22 43 6 20 31 72 56 114 24 43 42 81 41 85-2 5 9 24 24 43 29 39 96 225 133 370 24 97 50 249 43 256-2 2-24-31-48-74zM6468 3291c-42-85-75-157-73-160 3-2 39 67 81 153s75 158 73 160-39-67-81-153zM8237 3148c-9-23-15-43-13-45s11 15 20 38 15 43 13 45-11-15-20-38zM8167 2995c-26-52-45-95-42-95 7 0 97 181 93 186-2 2-25-39-51-91z"/></g><g fill="#dfacd6"><path d="M8063 10273c15-2 39-2 55 0 15 2 2 4-28 4s-43-2-27-4zM9290 10270c58-3 112-2 120 2s-39 7-105 6l-120-2 105-6zM9523 10215c0-22 2-30 4-17 2 12 2 30 0 40-3 9-5-1-4-23zM9265 8840c-3-5-15-10-26-10s-26-5-33-12c-10-10-2-22 38-63 49-50 52-52 79-38 16 8 27 22 27 33s6 20 13 20c12 1-72 80-85 80-4 0-10-4-13-10zM8917 8667c-53-29-168-106-255-173-86-66-181-137-211-157-43-30-49-37-30-37 27 0 259 94 484 195 88 40 165 74 170 76 6 2 28 15 51 28l41 24-73 49c-39 26-73 48-75 48-2-1-48-24-102-53zM8538 8093c12-2 32-2 45 0 12 2 2 4-23 4s-35-2-22-4zM8489 7894c-24-26-53-48-379-291-146-109-430-352-430-369 0-2 51 21 113 53 186 95 556 389 645 512 51 71 84 121 79 121-2 0-14-12-28-26zM1530 6335c63-63 117-115 120-115 2 0-47 52-110 115s-117 115-120 115c-2 0 47-52 110-115zM7935 5443c4-10 23-72 42-138 18-66 50-172 69-235 76-244 93-311 115-441 20-123 21-156 16-399-7-298-16-408-53-594-29-151-51-220-135-422-130-315-240-520-388-724-158-217-243-341-237-347 4-4 32 18 64 49 31 31 98 80 147 108 89 51 159 101 221 157 31 27 154 208 180 263 4 8 15 26 24 40 18 26 148 308 195 420 15 36 33 79 41 95 34 75 97 291 125 429 64 323 54 684-28 980-48 174-130 343-310 639-77 125-107 165-88 120zM6218 5040c-119-25-145-34-285-102-72-35-142-77-170-102-47-43-47-43-33-77 29-71 210-389 223-389 4 0 7 13 7 29 0 39 54 214 86 277 104 207 406 345 637 290 37-9 86-25 108-37 23-11 42-19 44-17 7 9 25 48 25 56 0 15-167 60-283 77-139 19-250 18-359-5zM3725 5034c-44-8-134-33-200-55-136-46-355-148-355-165 0-7-11-15-24-18s-47-31-75-63l-50-56 17-29c9-16 54-78 99-138 44-60 94-130 109-157 65-113 142-197 109-119-7 17-21 70-31 116-13 68-14 95-6 147 30 179 162 332 337 390 69 22 98 26 210 27l130 1 79-39c182-89 306-275 340-509l11-81 51 79c28 44 81 139 117 211s77 144 91 161c30 36 32 43 10 43-9 0-46 15-83 34-300 152-408 199-495 217-109 22-275 24-391 3zM6910 4901c0-48 1-50 63-100 34-28 80-76 102-106l40-56 12 53c7 29 15 79 19 111 5 47 4 57-8 57-9 0-21 6-27 14-11 13-169 76-192 76-5 0-9-22-9-49zM6405 4463c-33-8-52-31-65-78-15-54-1-105 37-135 40-31 73-26 121 20 51 49 72 108 51 146-23 44-79 63-144 47zM7491 4425c0-22-12-103-26-180s-32-178-40-225c-68-385-238-848-433-1181-51-88-133-236-196-354l-37-70 119 121c125 128 196 224 281 384 105 198 244 560 216 560-23 0-18 36 19 145 39 115 101 342 117 430 12 64 6 299-10 370l-9 40-1-40z"/><path d="M3730 4433c-40-21-80-75-80-110 0-69 57-123 130-123 34 0 48 6 75 33 43 43 52 79 34 130-25 71-96 102-159 70zM6476 3570c-27-68-304-599-383-735-69-120-231-425-219-414 3 3 45 55 93 116 110 139 250 372 352 585 93 195 121 264 156 382 28 99 29 135 1 66zM2022 3380c0-19 2-27 5-17 2 9 2 25 0 35-3 9-5 1-5-18zM3545 3274c8-21 50-133 94-249 100-264 125-371 156-664 8-73 16-135 18-137 7-7 39 194 46 285 6 65 3 105-10 166-18 85-71 260-94 310-7 17-21 50-31 75-19 51-53 98-136 190-57 63-57 63-43 24zM2012 3240c0-19 2-27 5-17 2 9 2 25 0 35-3 9-5 1-5-18zM2014 3060c0-80 2-112 3-72 2 39 2 105 0 145-1 39-3 7-3-73zM8816 3052c-78-165-521-856-665-1037-162-203-271-318-446-470-71-61-170-149-220-195-148-136-522-437-645-520-197-132-578-346-710-398-329-130-911-296-1230-352-118-20 92 1 250 26 240 37 452 81 605 126 77 22 156 45 175 50 19 6 40 13 45 17 6 4 39 18 75 30 36 13 74 27 85 32 11 4 61 26 110 48 229 99 378 173 505 251 206 125 275 170 398 257 276 197 426 324 677 577 426 427 502 531 734 994 50 100 125 256 166 347s84 183 96 206c11 23 19 43 16 45-2 2-11-13-21-34zM7966 2603c-26-35-14-38 18-5 15 17 21 29 13 29-7 0-21-11-31-24zM8034 1638l-29-33 33 29c17 17 32 31 32 33 0 8-8 1-36-29zM7735 1328l-70-73 73 70c39 38 72 71 72 72 0 8-11-2-75-69z"/></g></svg>