<svg viewBox="0 0 512 512" xmlns="http://www.w3.org/2000/svg"><path d="M0 0h512v512H0z" fill="#e7eced"/><path d="M79.45 105.93c0-19.5 15.808-35.309 35.308-35.309S150.07 86.43 150.07 105.93s-15.812 35.312-35.312 35.312-35.309-15.812-35.309-35.312zm0 0" fill="#dd352e"/><path d="M79.45 256c0-19.5 15.808-35.309 35.308-35.309S150.07 236.5 150.07 256s-15.812 35.309-35.312 35.309S79.449 275.5 79.449 256zm0 0" fill="#366db6"/><path d="M79.45 406.07c0-19.5 15.808-35.312 35.308-35.312s35.312 15.812 35.312 35.312-15.812 35.309-35.312 35.309-35.309-15.809-35.309-35.309zm0 0" fill="#ed8a19"/><g fill="#28384c"><path d="M229.516 88.277H432.55v35.309H229.516zm0 0M229.516 238.344H432.55v35.312H229.516zm0 0M229.516 388.414H432.55v35.309H229.516zm0 0"/></g></svg>