<svg viewBox="0 0 511.768 511.768" xmlns="http://www.w3.org/2000/svg"><path d="M439.504 472.581L321.641 187.245V15.464l-67.249.014-67.246-.014v160.401a58.745 58.745 0 01-4.25 21.937L72.167 472.816c-7.502 18.633 6.197 38.952 26.263 38.952h314.908c20.174 0 33.877-20.521 26.166-39.187z" fill="#dbf5ff"/><path d="M369.318 30.907h-229.85c-8.535 0-15.454-6.919-15.454-15.454S130.934 0 139.468 0h229.849c8.535 0 15.453 6.919 15.453 15.454s-6.918 15.453-15.452 15.453z" fill="#a4ceff"/><path d="M187.126 60.824h50.321c8.535 0 15.454 6.919 15.454 15.454s-6.919 15.454-15.454 15.454h-50.321zm0 63.491h48.034c8.535 0 15.454 6.919 15.454 15.454s-6.919 15.454-15.454 15.454h-48.034z" fill="#59a7ff"/><path d="M321.641 175.592V15.464l-65.757.014v496.29h157.454c20.174 0 33.877-20.521 26.167-39.187L326.09 198.015a58.733 58.733 0 01-4.449-22.423z" fill="#b3ddff"/><path d="M369.318 0H255.884v30.907h113.434c8.535 0 15.453-6.919 15.453-15.453C384.771 6.919 377.852 0 369.318 0z" fill="#59a7ff"/><path d="M121.047 448.1c-5.506 13.676 4.548 28.588 19.275 28.588h231.122c14.806 0 24.863-15.061 19.205-28.761l-64.27-158.516a9.138 9.138 0 00-8.47-5.705H193.746a9.139 9.139 0 00-8.472 5.711z" fill="#ff5ca8"/><path d="M317.91 283.706h-62.026v192.982h115.561c14.806 0 24.863-15.061 19.205-28.761l-64.27-158.516a9.142 9.142 0 00-8.47-5.705z" fill="#ff1786"/><path d="M228.236 406.446c0 14.5-11.739 26.253-26.219 26.253s-26.219-11.753-26.219-26.253c0-14.496 11.738-26.249 26.219-26.249s26.219 11.753 26.219 26.249z" fill="#ffb3e5"/><g fill="#ff7cb9"><ellipse cx="305.759" cy="354.112" rx="15.454" ry="15.473"/><ellipse cx="316.237" cy="428.005" rx="15.454" ry="15.473"/></g></svg>