<svg height="512" viewBox="0 0 48 61" width="512" xmlns="http://www.w3.org/2000/svg"><g id="Page-1" fill="none" fill-rule="evenodd"><g id="015---Baseball-Glove-with-Ball" fill-rule="nonzero"><g id="Icons" transform="translate(0 1)"><g fill="#a0522d"><path id="Shape" d="m28.74 14.98c.2776604-2.8748161.3311553-5.76688215.16-8.65-.1241417-1.48503159.5892008-2.91557239 1.85-3.71"/><path id="Shape" d="m33.76 17.8c.2657971-2.8154555.3126044-5.6472981.14-8.47-.1547698-1.90370505 1.0543082-3.65247536 2.89-4.18"/><path id="Shape" d="m37.07 45.35c-2.0400562 1.8556625-4.5834104 3.0664522-7.31 3.48-.6938055.116978-1.3964128.1738558-2.1.17h-.08c-4.4265882.0457263-8.7549787-1.3049275-12.37-3.86-2.3091427-1.6555153-4.3238332-3.6871076-5.96-6.01-6.98-9.66-8.18-23.01-8.24-23.71-.17637573-2.2017278 1.45921223-4.1322579 3.66-4.32.361036-.0304983.72456403-.0103023 1.08.06 1.76141467.3372604 3.08455907 1.8033371 3.24 3.59.18439237 1.7507372.46481481 3.490024.84 5.21 0 .01.01.02.01.03.13.58.27 1.2.43 1.85.8127073 3.4341391 2.0594005 6.7508133 3.71 9.87 3.23 5.87 11.48 8.96 17.66 6.22 2.0198508-.8449761 3.7477421-2.2634462 4.97-4.08 2.4-3.83-1.36-7.73-4.61-9.34-2.44-1.2-5.42-1.36-7.15-3.66-1.1374113-1.6396976-1.8487964-3.5367245-2.07-5.52.438928-3.529383.5226806-7.09389691.25-10.64-.01-.22-.02-.35-.02-.36-.1636665-1.99358088 1.1704876-3.80158146 3.1236756-4.23309974s3.9248678.64612366 4.6163244 2.52309974c1.1016503-.70129819 2.47691-.81862919 3.6814374-.31408376s2.0856061 1.56699832 2.3585626 2.84408376c1.0624804-.30335614 2.2031653-.15289031 3.1506424.41559597s1.617034 1.50416549 1.8493576 2.58440403c1.1510349-.3271063 2.3880615-.12171584 3.3716276.55981023.983566.68152607 1.6103559 1.76759907 1.7083724 2.96018977.06.71 1.81 23.06-9.8 33.68z"/><path id="Shape" d="m38.77 20.62c.2538325-2.7560203.2972916-5.5273759.13-8.29-.1547698-1.903705 1.0543082-3.65247536 2.89-4.18"/></g><path id="Shape" d="m29.77 48.9-5.53 8.3c-.359735.5638972-.9811369.9066098-1.65.91-1.55 0-4.76-.45-10.09-3.11-5.84-2.92-7.42-6.38-7.84-8.03-.13938624-.550799-.04144706-1.1348066.27-1.61l4.32-6.23c1.6361668 2.3228924 3.6508573 4.3544847 5.96 6.01 3.6150213 2.5550725 7.9434118 3.9057263 12.37 3.86h.08c.7035872.0038558 1.4061945-.053022 2.1-.17z" fill="#783e22"/><path id="Shape" d="m22.78 15.33c-.28 2.98-.95 9.21-2.72 11.35-.5127742.66562-1.2410126 1.1322582-2.06 1.32-.3457896.0667285-.6980924.0935706-1.05.08-3.28-.13-5.72-3.37-6.68-6.24-.16-.65-.3-1.27-.43-1.85 0-.01-.01-.02-.01-.03-.37518519-1.719976-.65560763-3.4592628-.84-5.21-.15544093-1.7866629-1.47858533-3.2527396-3.24-3.59 10.52 1.15 15.41-3.78 17.28-6.47.2726806 3.54610309.188928 7.110617-.25 10.64z" fill="#dfc49c"/><path id="Shape" d="m5.99 14.75c.18439237 1.7507372.46481481 3.490024.84 5.21 0 .01.01.02.01.03.13.58.27 1.2.43 1.85.81270734 3.4341391 2.05940045 6.7508133 3.71 9.87 2.9559992 4.926888 8.4886056 7.7068222 14.206 7.138-4.6542537-.4724737-8.8103059-3.1197966-11.206-7.138-1.6505995-3.1191867-2.8972927-6.4358609-3.71-9.87-.16-.65-.3-1.27-.43-1.85 0-.01-.01-.02-.01-.03-.37518519-1.719976-.65560763-3.4592628-.84-5.21-.15544093-1.7866629-1.47858533-3.2527396-3.24-3.59-.35543597-.0703023-.718964-.0904983-1.08-.06-.39897786.0407092-.78944308.141866-1.158.3 1.38833365.564296 2.34477133 1.857301 2.478 3.35z" fill="#783e22"/><path id="Shape" d="m40.961 8.142c1.6125214.45120499 2.773351 1.8590451 2.909 3.528.06.71 1.81 23.06-9.8 33.68-2.0400562 1.8556625-4.5834104 3.0664522-7.31 3.48-.29.05-.583.082-.876.109.558.0406667 1.1246667.061 1.7.061h.08c.7035872.0038558 1.4061945-.053022 2.1-.17 2.7265896-.4135478 5.2699438-1.6243375 7.31-3.48 11.61-10.62 9.86-32.97 9.8-33.68-.0980165-1.1925907-.7248064-2.2786637-1.7083724-2.96018977-.9835661-.68152607-2.2205927-.88691653-3.3716276-.55981023" fill="#783e22"/><circle id="Oval" cx="26.004" cy="26" fill="#ffe0b2" r="15"/><path id="Shape" d="m26 11c-.506 0-1.006.027-1.5.076 7.6612948.774165 13.491947 7.2236903 13.491947 14.924s-5.8306522 14.149835-13.491947 14.924c.5.049 1 .076 1.5.076 8.2842712-.0000001 14.9999998-6.7157288 14.9999998-15s-6.7157286-14.9999999-14.9999998-15z" fill="#dfc49c"/><path id="Shape" d="m23.112 25h-1.027c-.0450036-1.0255408-.159264-2.0468679-.342-3.057l1-.228c.5247633-.1339318.8475367-.6612786.7280721-1.1895232-.1194645-.5282447-.6377448-.865384-1.1690721-.7604768l-1.006.228c-.2769474-1.007478-.6217346-1.9950661-1.032-2.956l.933-.448c.4679516-.2547649.6539723-.8316898.4229765-1.3118198-.2309959-.4801299-.7978746-.6948266-1.2889765-.4881802l-.94.451c-.3708579-.7040443-.7808324-1.3867788-1.228-2.045-.1994858-.3018126-.5464308-.4723439-.9072463-.445932-.3608156.0264118-.6792294.2456476-.8326388.5732922-.1534093.3276447-.1178886.7125992.0928851 1.0066398.389866.570804.7490418 1.1619753 1.076 1.771l-.863.414c-.4655993.2557226-.6500091.8308495-.4199249 1.3096375.2300843.4787881.7943586.6941306 1.2849249.4903625l.871-.418c.3479048.8241194.6431647 1.6694846.884 2.531l-.945.214c-.4980741.111127-.8325681.5794681-.7760999 1.0866548.0564681.5071867.4857807.8904887.9960999.8893452.0743738.0000283.148512-.0083583.221-.025l.947-.215c.1532272.8672301.2510917 1.7433351.293 2.623h-.973c-.5522847 0-1 .4477153-1 1s.4477153 1 1 1h.973c-.0421475.8773267-.1400115 1.7510878-.293 2.616l-.947-.215c-.5387538-.1217788-1.0742212.2162463-1.196.755-.1217787.5387538.2162463 1.0742212.755 1.196l.945.214c-.2408353.8615154-.5360952 1.7068806-.884 2.531l-.871-.418c-.4905663-.2037681-1.0548406.0115744-1.2849249.4903625-.2300842.478788-.0456744 1.0539149.4199249 1.3096375l.863.414c-.3255029.6106385-.6833445 1.2034806-1.072 1.776-.2107737.2940406-.2462944.6789951-.0928851 1.0066398.1534094.3276446.4718232.5468804.8326388.5732922.3608155.0264119.7077605-.1441194.9072463-.445932.4483846-.6570358.8600157-1.3384137 1.233-2.041l.94.451c.1348313.0658823.2829335.100086.433.1.4655978-.0013415.8686651-.3238376.9721203-.7777981s-.1200786-.9192557-.5391203-1.1222019l-.933-.448c.4089604-.9615913.7520846-1.9498691 1.027-2.958l1.006.228c.072488.0166417.1466262.0250283.221.025.5086038-.001116.9353522-.3838113.9916587-.8892899.0563065-.5054787-.2757676-.972701-.7716587-1.0857101l-1-.228c.1813943-1.0102236.2943182-2.03155.338-3.057h1.027c.5522847 0 1-.4477153 1-1s-.4477153-1-1-1z" fill="#f44335"/><path id="Shape" d="m35.747 34.148c-.2389113-.497831-.8361114-.7077911-1.334-.469l-.871.418c-.3475956-.8242385-.6428486-1.6695839-.884-2.531l.945-.214c.5387538-.1217788.8767787-.6572462.755-1.196-.1217788-.5387538-.6572462-.8767788-1.196-.755l-.947.215c-.1529325-.8649202-.2507961-1.7386778-.293-2.616h.978c.5522847 0 1-.4477153 1-1s-.4477153-1-1-1h-.973c.0422039-.8773222.1400675-1.7510798.293-2.616l.947.215c.072488.0166417.1466262.0250283.221.025.5103192.0011435.9396318-.3821585.9960999-.8893452.0564682-.5071867-.2780258-.9755278-.7760999-1.0866548l-.945-.214c.2408353-.8615154.5360952-1.7068806.884-2.531l.871.418c.4905663.2037681 1.0548406-.0115744 1.2849249-.4903625.2300842-.478788.0456744-1.0539149-.4199249-1.3096375l-.863-.414c.3258749-.6104272.6837048-1.2032499 1.072-1.776.3134216-.4548065.1988064-1.0775784-.256-1.391-.4548065-.3134215-1.0775784-.1988065-1.391.256-.446666.6588865-.8566229 1.3419254-1.228 2.046l-.941-.451c-.3245032-.178228-.7209224-.1625856-1.030373.0406577-.3094507.2032432-.4812885.5608249-.4466411.9294264.0346475.3686015.2701099.6878981.6120141.8299159l.932.448c-.4096559.9610635-.7541024 1.9486328-1.031 2.956l-1.012-.23c-.5324742-.1078213-1.0536265.2292089-1.1737237.7590493s.2048 1.0586418.7317237 1.1909507l1 .228c-.1807235 1.0102694-.2929792 2.0315955-.336 3.057h-1.022c-.5522847 0-1 .4477153-1 1s.4477153 1 1 1h1.027c.0450036 1.0255408.159264 2.0468679.342 3.057l-1 .228c-.3555595.0719976-.6442409.330912-.7543566.6765719-.1101156.3456598-.0243933.7238467.224002.9882441s.6205015.3735332.9723546.285184l1.005-.228c.2770564 1.0073178.6214992 1.9948764 1.031 2.956l-.932.448c-.3419042.1420178-.5773666.4613144-.6120141.8299159-.0346474.3686015.1371904.7261832.4466411.9294264.3094506.2032433.7058698.2188857 1.030373.0406577l.941-.451c.3716008.7039485.7815504 1.3869754 1.228 2.046.3134216.4548065.9361935.5694216 1.391.256s.5694216-.9361935.256-1.391c-.3915704-.57069-.7524165-1.1618634-1.081-1.771l.863-.414c.2401044-.1147147.4245857-.3203959.5126092-.5715163.0880235-.2511203.0723291-.5269678-.0436092-.7664837z" fill="#f44335"/></g><g id="Layer_11" fill="#000"><path id="Shape" d="m5.862 11.166c-.013 0-.025 0-.038 0-.40792574-.0738585-.82353114-.096033-1.237-.066-2.75729931.2430401-4.7990857 2.669757-4.567 5.428.16 1.731 1.518 14.163 8.014 23.6l-3.934 5.672c-.47403454.7118618-.62343639 1.5915516-.411 2.42.495 1.925 2.239 5.611 8.365 8.675 5.311 2.655 8.656 3.214 10.528 3.216 1.007009-.0004403 1.9448625-.5123049 2.49-1.359l5.339-8.011c2.7377125-.5092499 5.2782216-1.7746548 7.334-3.653 11.98-10.959 10.2-33.547 10.121-34.5-.2255755-2.74898558-2.6346485-4.79607127-5.384-4.575h-.013c-.8453731-1.96690941-2.8522308-3.17440499-4.986-3h-.014c-.8507058-1.96890904-2.8623952-3.17592269-5-3-.4379026.03949658-.8688316.13563207-1.282.286-1.2300873-1.91617162-3.6013149-2.7566025-5.7635517-2.04276752s-3.5670015 2.80086175-3.4144483 5.07276752v.057c-1.995 2.73-6.638 6.821-16.147 5.78zm20.138 1.834c7.7319865 0 14 6.2680135 14 14s-6.2680135 14-14 14-14-6.2680135-14-14c.0088173-7.7283313 6.2716687-13.9911827 14-14zm-2.6 44.654c-.1770665.2816775-.4853064.4538848-.818.457-1.356 0-4.411-.393-9.635-3.006-5.619-2.809-6.993-6.1-7.323-7.383-.07395064-.2725617-.02772597-.5637407.127-.8l3.537-5.1c1.5250796 1.9591039 3.3261474 3.6867412 5.347 5.129 3.8098969 2.6869827 8.3702213 4.1038607 13.032 4.049.059 0 .118-.008.177-.009zm22.473-44.9c.019.224 1.783 22.556-9.478 32.857-2.4190743 2.1774129-5.5573071 3.3843434-8.812 3.389-4.2199657.0404351-8.3459565-1.2461604-11.795-3.678-2.1955619-1.5766042-4.1154358-3.5052632-5.682-5.708-.009-.015-.021-.029-.031-.044-6.542-9.034-7.907-21.526-8.065-23.232-.12757778-1.6540928 1.10990717-3.0984222 2.764-3.226s3.09842222 1.1099072 3.226 2.764c.1900991 1.7779661.47517308 3.54449.854 5.292.006.029.014.057.022.085.128.574.267 1.185.424 1.825.234.957.491 1.879.761 2.752-.029.388-.06.775-.06 1.17-.01053731 6.711307 4.1684583 12.7159385 10.4654775 15.0374255 6.2970191 2.3214871 13.3736163.4663925 17.721954-4.6457217s5.044167-12.3946567 1.7425685-18.2377038c.105324-1.9676341.0933027-3.9397961-.036-5.906-.1123138-1.4253483.790611-2.7340256 2.163-3.135.1902167-.053833.3850746-.0896574.582-.107 1.6516965-.13075181 3.098499 1.0979352 3.237 2.749zm-5.341-4.148c-1.7566295.94996028-2.7854341 2.8486581-2.622 4.839.023.226.09 1.355.088 3-.8847652-1.01102-1.892599-1.9073202-3-2.668.012-1.649-.049-3.036-.1-3.529-.1123138-1.42534829.790611-2.73402563 2.163-3.135.1908131-.05419133.3863689-.09002091.584-.107 1.196379-.0950838 2.3334875.53511143 2.887 1.6zm-7.885-4.6c1.195444-.0931683 2.3309838.53659384 2.885 1.6-1.7492461.94109921-2.7785503 2.82560812-2.625 4.806.0010198.0180954.0030228.036122.006.054.015.159.067.959.083 2.165-.960221-.4692186-1.9653037-.8404292-3-1.108.038-2.179-.047-3.811-.094-4.277-.1302749-1.6513772 1.0965565-3.09838625 2.747-3.24zm-5.887-1.99c1.0857001-.09125398 2.1343444.41867951 2.733 1.329-1.1340483 1.04776955-1.7183379 2.56204729-1.582 4.1 0 .014.114 1.418.087 3.69-1.268111-.1752141-2.5537065-.1836188-3.824-.025.061-2.513-.072-4.455-.133-5.352l-.031-.512c-.1323303-1.65126093 1.0987729-3.09724768 2.75-3.23zm-4.593 6.264c.027.909.033 2-.006 3.206-5.1567194 1.2880232-9.3404295 5.047033-11.171 10.037-.059-.256-.116-.509-.171-.752-.006-.023-.011-.046-.018-.068-.3595119-1.6644307-.6302278-3.3468078-.811-5.04-.07885582-.8396213-.37035995-1.6453015-.847-2.341 6.573-.083 10.641-2.622 13.024-5.042z"/></g></g></g></svg>