<svg viewBox="0 0 48 61" xmlns="http://www.w3.org/2000/svg"><g fill-rule="nonzero" fill="none"><g transform="translate(0 1)"><g fill="sienna"><path d="M28.74 14.98c.278-2.875.331-5.767.16-8.65a3.992 3.992 0 011.85-3.71M33.76 17.8c.266-2.815.313-5.647.14-8.47a4.011 4.011 0 012.89-4.18"/><path d="M37.07 45.35a13.979 13.979 0 01-7.31 3.48c-.694.117-1.396.174-2.1.17h-.08a21.055 21.055 0 01-12.37-3.86 25.374 25.374 0 01-5.96-6.01c-6.98-9.66-8.18-23.01-8.24-23.71a4.014 4.014 0 013.66-4.32 4.009 4.009 0 014.32 3.65c.184 1.75.465 3.49.84 5.21 0 .01.01.02.01.03.13.58.27 1.2.43 1.85a41.57 41.57 0 003.71 9.87c3.23 5.87 11.48 8.96 17.66 6.22a11.2 11.2 0 004.97-4.08c2.4-3.83-1.36-7.73-4.61-9.34-2.44-1.2-5.42-1.36-7.15-3.66a12.023 12.023 0 01-2.07-5.52c.439-3.53.523-7.094.25-10.64-.01-.22-.02-.35-.02-.36a4 4 0 017.74-1.71 3.987 3.987 0 016.04 2.53 3.993 3.993 0 015 3 4 4 0 015.08 3.52c.06.71 1.81 23.06-9.8 33.68z"/><path d="M38.77 20.62c.254-2.756.297-5.527.13-8.29a4.011 4.011 0 012.89-4.18"/></g><path d="M29.77 48.9l-5.53 8.3c-.36.564-.981.907-1.65.91-1.55 0-4.76-.45-10.09-3.11-5.84-2.92-7.42-6.38-7.84-8.03a2.029 2.029 0 01.27-1.61l4.32-6.23a25.374 25.374 0 005.96 6.01A21.055 21.055 0 0027.58 49h.08c.704.004 1.406-.053 2.1-.17z" fill="#783e22"/><path d="M22.78 15.33c-.28 2.98-.95 9.21-2.72 11.35A3.622 3.622 0 0118 28a4.605 4.605 0 01-1.05.08c-3.28-.13-5.72-3.37-6.68-6.24-.16-.65-.3-1.27-.43-1.85 0-.01-.01-.02-.01-.03a48.072 48.072 0 01-.84-5.21 4.009 4.009 0 00-3.24-3.59c10.52 1.15 15.41-3.78 17.28-6.47.273 3.546.189 7.11-.25 10.64z" fill="#dfc49c"/><path d="M5.99 14.75c.184 1.75.465 3.49.84 5.21 0 .01.01.02.01.03.13.58.27 1.2.43 1.85a41.57 41.57 0 003.71 9.87 14.852 14.852 0 0014.206 7.138A14.785 14.785 0 0113.98 31.71a41.57 41.57 0 01-3.71-9.87c-.16-.65-.3-1.27-.43-1.85 0-.01-.01-.02-.01-.03a48.072 48.072 0 01-.84-5.21 4.009 4.009 0 00-4.32-3.65c-.399.04-.79.142-1.158.3a4 4 0 012.478 3.35zM40.961 8.142a4 4 0 012.909 3.528c.06.71 1.81 23.06-9.8 33.68a13.979 13.979 0 01-7.31 3.48c-.29.05-.583.082-.876.109.558.04 1.125.061 1.7.061h.08c.704.004 1.406-.053 2.1-.17a13.979 13.979 0 007.31-3.48c11.61-10.62 9.86-32.97 9.8-33.68a4 4 0 00-5.08-3.52" fill="#783e22"/><circle cx="26.004" cy="26" fill="#ffe0b2" r="15"/><path d="M26 11c-.506 0-1.006.027-1.5.076C32.161 11.85 37.992 18.3 37.992 26S32.162 40.15 24.5 40.924c.5.049 1 .076 1.5.076 8.284 0 15-6.716 15-15s-6.716-15-15-15z" fill="#dfc49c"/><path d="M23.112 25h-1.027a22.784 22.784 0 00-.342-3.057l1-.228a1 1 0 00-.441-1.95l-1.006.228a23.167 23.167 0 00-1.032-2.956l.933-.448a1 1 0 00-.866-1.8l-.94.451c-.37-.704-.78-1.387-1.228-2.045a1 1 0 10-1.647 1.134c.39.57.749 1.162 1.076 1.771l-.863.414a1 1 0 00.865 1.8l.871-.418c.348.824.643 1.67.884 2.531l-.945.214a1 1 0 10.441 1.951l.947-.215c.153.867.251 1.743.293 2.623h-.973a1 1 0 000 2h.973a20.73 20.73 0 01-.293 2.616l-.947-.215a1 1 0 00-.441 1.951l.945.214c-.24.862-.536 1.707-.884 2.531l-.871-.418a1 1 0 00-.865 1.8l.863.414a19.46 19.46 0 01-1.072 1.776 1 1 0 101.647 1.134c.448-.657.86-1.338 1.233-2.041l.94.451c.135.066.283.1.433.1a1 1 0 00.433-1.9l-.933-.448c.409-.962.752-1.95 1.027-2.958l1.006.228a1 1 0 00.441-1.95l-1-.228c.181-1.01.294-2.032.338-3.057h1.027a1 1 0 000-2zM35.747 34.148a1 1 0 00-1.334-.469l-.871.418a21.27 21.27 0 01-.884-2.531l.945-.214a1 1 0 00-.441-1.951l-.947.215A20.751 20.751 0 0131.922 27h.978a1 1 0 000-2h-.973c.042-.877.14-1.751.293-2.616l.947.215a1 1 0 10.441-1.951l-.945-.214c.24-.862.536-1.707.884-2.531l.871.418a1 1 0 00.865-1.8l-.863-.414c.326-.61.684-1.203 1.072-1.776a1 1 0 00-1.647-1.135 21.632 21.632 0 00-1.228 2.046l-.941-.451a1 1 0 10-.865 1.8l.932.448c-.41.961-.754 1.949-1.031 2.956l-1.012-.23a1 1 0 00-.442 1.95l1 .228A22.784 22.784 0 0029.922 25H28.9a1 1 0 000 2h1.027c.045 1.026.16 2.047.342 3.057l-1 .228a1 1 0 10.442 1.95l1.005-.228a23.317 23.317 0 001.031 2.956l-.932.448a1 1 0 10.865 1.8l.941-.451c.372.704.782 1.387 1.228 2.046a1 1 0 101.647-1.135 19.46 19.46 0 01-1.081-1.771l.863-.414a1 1 0 00.469-1.338z" fill="#f44335"/></g><path d="M5.862 11.166h-.038a4.936 4.936 0 00-1.237-.066A5.026 5.026 0 00.02 16.528c.16 1.731 1.518 14.163 8.014 23.6L4.1 45.8a3.015 3.015 0 00-.411 2.42c.495 1.925 2.239 5.611 8.365 8.675 5.311 2.655 8.656 3.214 10.528 3.216a2.963 2.963 0 002.49-1.359l5.339-8.011a14.917 14.917 0 007.334-3.653c11.98-10.959 10.2-33.547 10.121-34.5a5 5 0 00-5.384-4.575h-.013a4.985 4.985 0 00-4.986-3h-.014a5 5 0 00-5-3c-.438.04-.869.136-1.282.286a4.99 4.99 0 00-9.178 3.03v.057c-1.995 2.73-6.638 6.821-16.147 5.78zM26 13c7.732 0 14 6.268 14 14s-6.268 14-14 14-14-6.268-14-14c.009-7.728 6.272-13.991 14-14zm-2.6 44.654a.977.977 0 01-.818.457c-1.356 0-4.411-.393-9.635-3.006-5.619-2.809-6.993-6.1-7.323-7.383a.988.988 0 01.127-.8l3.537-5.1a25.685 25.685 0 005.347 5.129A22.159 22.159 0 0027.667 51c.059 0 .118-.008.177-.009zm22.473-44.9c.019.224 1.783 22.556-9.478 32.857A13.2 13.2 0 0127.583 49a20.134 20.134 0 01-11.795-3.678 24.529 24.529 0 01-5.682-5.708c-.009-.015-.021-.029-.031-.044-6.542-9.034-7.907-21.526-8.065-23.232A3.004 3.004 0 018 15.876c.19 1.778.475 3.544.854 5.292.006.029.014.057.022.085.128.574.267 1.185.424 1.825.234.957.491 1.879.761 2.752-.029.388-.06.775-.06 1.17a16 16 0 1029.93-7.846 49.6 49.6 0 00-.036-5.906 3.019 3.019 0 012.163-3.135c.19-.054.385-.09.582-.107a3.01 3.01 0 013.237 2.749zm-5.341-4.148a5.033 5.033 0 00-2.622 4.839c.023.226.09 1.355.088 3a16.1 16.1 0 00-3-2.668c.012-1.649-.049-3.036-.1-3.529a3.019 3.019 0 012.163-3.135 2.987 2.987 0 013.471 1.493zm-7.885-4.6a2.991 2.991 0 012.885 1.6 5.017 5.017 0 00-2.619 4.86c.015.159.067.959.083 2.165a15.9 15.9 0 00-3-1.108c.038-2.179-.047-3.811-.094-4.277a3.014 3.014 0 012.747-3.24zm-5.887-1.99a2.973 2.973 0 012.733 1.329 4.983 4.983 0 00-1.582 4.1c0 .014.114 1.418.087 3.69a14.664 14.664 0 00-3.824-.025c.061-2.513-.072-4.455-.133-5.352l-.031-.512a3 3 0 012.75-3.23zM22.167 8.28c.027.909.033 2-.006 3.206A16.039 16.039 0 0010.99 21.523l-.171-.752c-.006-.023-.011-.046-.018-.068a48.015 48.015 0 01-.811-5.04 4.963 4.963 0 00-.847-2.341c6.573-.083 10.641-2.622 13.024-5.042z" fill="#000"/></g></svg>