<svg viewBox="0 -11 464 463" xmlns="http://www.w3.org/2000/svg"><path d="M206.48 136.5a88.138 88.138 0 01-14 33.84l23.68 23.68-22.64 22.64-23.68-23.68a88.138 88.138 0 01-33.84 14v33.52h-32v-33.52a88.138 88.138 0 01-33.84-14l-23.68 23.68-22.64-22.64 23.68-23.68a88.138 88.138 0 01-14-33.84H0v-32h33.52a88.138 88.138 0 0114-33.84L23.84 46.98l22.64-22.64 23.68 23.68a88.138 88.138 0 0133.84-14V.5h32v33.52a88.138 88.138 0 0133.84 14l23.68-23.68 22.64 22.64-23.68 23.68a88.138 88.138 0 0114 33.84H240v32zm0 0" fill="#ffa733"/><path d="M176 120.5c0 30.93-25.07 56-56 56s-56-25.07-56-56 25.07-56 56-56 56 25.07 56 56zm0 0" fill="#e6e7e8"/><path d="M136 120.5c0 8.836-7.164 16-16 16s-16-7.164-16-16 7.164-16 16-16 16 7.164 16 16zm0 0" fill="#ff6243"/><path d="M277.68 376.5a54.399 54.399 0 01-4.399 10.64l18.64 18.641-22.64 22.64-18.64-18.64A54.399 54.399 0 01240 414.18v26.32h-32v-26.32a54.399 54.399 0 01-10.64-4.399l-18.641 18.64-22.64-22.64 18.64-18.64a54.399 54.399 0 01-4.399-10.641H144v-32h26.32a54.399 54.399 0 014.399-10.64l-18.64-18.641 22.64-22.64 18.64 18.64A54.399 54.399 0 01208 306.82V280.5h32v26.32a54.399 54.399 0 0110.64 4.399l18.641-18.64 22.64 22.64-18.64 18.64a54.399 54.399 0 014.399 10.641H304v32zm0 0" fill="#ffd422"/><path d="M248 360.5c0 13.254-10.746 24-24 24s-24-10.746-24-24 10.746-24 24-24 24 10.746 24 24zm0 0" fill="#ff5023"/><path d="M429.922 208.5a66.48 66.48 0 01-6.8 16.48l24.077 24.079-22.64 22.64-24.079-24.078a66.48 66.48 0 01-16.48 6.8V288.5h-32v-34.078a66.48 66.48 0 01-16.48-6.8l-24.079 24.077-22.64-22.64 24.078-24.079a66.48 66.48 0 01-6.8-16.48H272v-32h34.078a66.48 66.48 0 016.8-16.48l-24.077-24.079 22.64-22.64 24.079 24.078a66.48 66.48 0 0116.48-6.8V96.5h32v34.078a66.48 66.48 0 0116.48 6.8l24.079-24.077 22.64 22.64-24.078 24.079a66.48 66.48 0 016.8 16.48H464v32zm0 0" fill="#ff6243"/><path d="M392 192.5c0 13.254-10.746 24-24 24s-24-10.746-24-24 10.746-24 24-24 24 10.746 24 24zm0 0" fill="#ffa733"/></svg>