<svg xmlns="http://www.w3.org/2000/svg" viewBox="0 0 512 512"><linearGradient id="a" gradientUnits="userSpaceOnUse" x1="0" y1="258" x2="512" y2="258" gradientTransform="matrix(1 0 0 -1 0 514)"><stop offset="0" stop-color="#00f2fe"/><stop offset=".021" stop-color="#03effe"/><stop offset=".293" stop-color="#24d2fe"/><stop offset=".554" stop-color="#3cbdfe"/><stop offset=".796" stop-color="#4ab0fe"/><stop offset="1" stop-color="#4facfe"/></linearGradient><path d="M216 158H20c-11.046 0-20-8.954-20-20s8.954-20 20-20h196c11.046 0 20 8.954 20 20s-8.954 20-20 20zm20-138c0-11.046-8.954-20-20-20H20C8.954 0 0 8.954 0 20s8.954 20 20 20h196c11.046 0 20-8.954 20-20zm0 472c0-11.046-8.954-20-20-20H20c-11.046 0-20 8.954-20 20s8.954 20 20 20h196c11.046 0 20-8.954 20-20zm0-118c0-11.046-8.954-20-20-20H20c-11.046 0-20 8.954-20 20s8.954 20 20 20h196c11.046 0 20-8.954 20-20zm0-118c0-11.046-8.954-20-20-20H20c-11.046 0-20 8.954-20 20s8.954 20 20 20h196c11.046 0 20-8.954 20-20zm276-118c0-11.046-8.954-20-20-20H296c-11.046 0-20 8.954-20 20s8.954 20 20 20h196c11.046 0 20-8.954 20-20zm0-118c0-11.046-8.954-20-20-20H296c-11.046 0-20 8.954-20 20s8.954 20 20 20h196c11.046 0 20-8.954 20-20zm0 354c0-11.046-8.954-20-20-20H296c-11.046 0-20 8.954-20 20s8.954 20 20 20h196c11.046 0 20-8.954 20-20zm0-118c0-11.046-8.954-20-20-20H296c-11.046 0-20 8.954-20 20s8.954 20 20 20h196c11.046 0 20-8.954 20-20z" fill="url(#a)"/></svg>