<svg xmlns="http://www.w3.org/2000/svg" viewBox="0 0 512.001 512.001"><path d="M48.636 504.4l57.537-37.84a36.252 36.252 0 0125.338-5.556l171.828 25.959a71.958 71.958 0 0049.19-10.321L498.017 384.7c14.056-8.883 18.213-27.5 9.269-41.518-8.522-13.359-25.96-17.792-39.827-10.125l-112.573 62.239a44.036 44.036 0 01-28.667 4.88l-110.625-18.739c-12.008-2.034-20.426-12.966-19.327-25.094 1.221-13.471 13.61-23.08 26.962-20.91L319.64 351.1c12.921 2.1 25.294-6.063 28.447-18.768 3.454-13.917-5.409-27.903-19.468-30.721l-152.963-30.665a97.098 97.098 0 00-17.334-1.881c-25.451-.467-49.217 12.735-62.927 34.182a192.258 192.258 0 01-61.213 60.171L0 384.451" fill="#ffc9bd"/><path d="M319.638 327.201l-96.412-15.667c-13.351-2.169-25.741 7.439-26.962 20.91-.461 5.081.767 9.941 3.211 14.036 4.743-7.916 13.987-12.632 23.75-11.046l96.412 15.667c12.921 2.1 25.293-6.063 28.447-18.768a25.033 25.033 0 00-2.296-18.024c-4.973 9.228-15.359 14.646-26.15 12.892zm178.377 33.598l-145.488 91.942a71.953 71.953 0 01-49.19 10.321l-171.828-25.959a36.26 36.26 0 00-25.338 5.556l-65.28 42.985 7.743 18.756 57.537-37.84a36.252 36.252 0 0125.338-5.556l171.828 25.959a71.953 71.953 0 0049.19-10.322l145.488-91.942c12.694-8.022 17.31-23.981 11.5-37.323a29.859 29.859 0 01-11.5 13.423z" fill="#fcafa2"/><path fill="#ed4596" d="M437.628 188.124V67.775L333.404 7.601 229.179 67.775v120.349l104.225 60.174z"/><path fill="#f777ce" d="M437.628 188.124V67.775L333.404 127.95v120.348z"/><path fill="#e65091" d="M229.179 188.124V67.775l104.225 60.175v120.348z"/></svg>