<?xml version="1.0" encoding="iso-8859-1"?>
<!-- Generator: Adobe Illustrator 19.0.0, SVG Export Plug-In . SVG Version: 6.00 Build 0)  -->
<svg version="1.1" id="Capa_1" xmlns="http://www.w3.org/2000/svg" xmlns:xlink="http://www.w3.org/1999/xlink" x="0px" y="0px"
	 viewBox="0 0 512.001 512.001" style="enable-background:new 0 0 512.001 512.001;" xml:space="preserve">
<path style="fill:#FFC9BD;" d="M48.636,504.4l57.537-37.84c7.471-4.913,16.495-6.893,25.338-5.556l171.828,25.959
	c17.104,2.584,34.567-1.08,49.19-10.321l145.488-91.942c14.056-8.883,18.213-27.5,9.269-41.518l0,0
	c-8.522-13.359-25.96-17.792-39.827-10.125l-112.573,62.239c-8.727,4.826-18.834,6.546-28.667,4.88l-110.625-18.739
	c-12.008-2.034-20.426-12.966-19.327-25.094l0,0c1.221-13.471,13.61-23.08,26.962-20.91L319.64,351.1
	c12.921,2.1,25.294-6.063,28.447-18.768l0,0c3.454-13.917-5.409-27.903-19.468-30.721l-152.963-30.665
	c-5.744-1.152-11.545-1.776-17.334-1.881c-25.451-0.467-49.217,12.735-62.927,34.182l0,0c-15.61,24.415-36.536,44.984-61.213,60.171
	L0,384.451"/>
<g>
	<path style="fill:#FCAFA2;" d="M319.638,327.201l-96.412-15.667c-13.351-2.169-25.741,7.439-26.962,20.91l0,0
		c-0.461,5.081,0.767,9.941,3.211,14.036c4.743-7.916,13.987-12.632,23.75-11.046l96.412,15.667
		c12.921,2.1,25.293-6.063,28.447-18.768l0,0c1.576-6.351,0.582-12.712-2.296-18.024
		C340.815,323.537,330.429,328.955,319.638,327.201z"/>
	<path style="fill:#FCAFA2;" d="M498.015,360.799l-145.488,91.942c-14.623,9.241-32.086,12.906-49.19,10.321l-171.828-25.959
		c-8.842-1.336-17.866,0.643-25.338,5.556l-65.28,42.985l7.743,18.756l57.537-37.84c7.471-4.913,16.495-6.893,25.338-5.556
		l171.828,25.959c17.104,2.584,34.567-1.08,49.19-10.322l145.488-91.942c12.694-8.022,17.31-23.981,11.5-37.323
		C507.202,352.722,503.312,357.452,498.015,360.799z"/>
</g>
<polygon style="fill:#ED4596;" points="437.628,188.124 437.628,67.775 333.404,7.601 229.179,67.775 229.179,188.124 
	333.404,248.298 "/>
<polygon style="fill:#F777CE;" points="437.628,188.124 437.628,67.775 333.404,127.95 333.404,248.298 "/>
<polygon style="fill:#E65091;" points="229.179,188.124 229.179,67.775 333.404,127.95 333.404,248.298 "/>
<g>
</g>
<g>
</g>
<g>
</g>
<g>
</g>
<g>
</g>
<g>
</g>
<g>
</g>
<g>
</g>
<g>
</g>
<g>
</g>
<g>
</g>
<g>
</g>
<g>
</g>
<g>
</g>
<g>
</g>
</svg>
