<svg viewBox="0 0 64 64" xmlns="http://www.w3.org/2000/svg"><path d="M1 58c0 .55.45 1 1 1h60c.55 0 1-.45 1-1V9H1z" fill="#e6e9ed"/><path d="M63 7v2H1V7c0-1.109.89-2 2-2h58c1.11 0 2 .891 2 2z" fill="#ccd1d9"/><g fill="#e6e9ed"><path d="M4.006 5.998h-.01a.995.995 0 00-.995 1c0 .552.453 1 1.005 1a1 1 0 100-2zM7.005 5.998h-.01a.995.995 0 00-.995 1c0 .552.452 1 1.005 1a1 1 0 100-2zM10.008 5.998h-.01a.995.995 0 00-.995 1c0 .552.453 1 1.005 1a1 1 0 100-2z"/></g><path d="M63 7v2H1V7a2 2 0 012-2h58c1.11 0 2 .89 2 2z" fill="#ccd1d9"/><path d="M30.497 26.998H5a1 1 0 00-1 1v2.999a1 1 0 001 1h25.497a1 1 0 001-1v-2.999a1 1 0 00-1-1zM59 26.998H33.502a1 1 0 00-1 1v2.999a1 1 0 001 1H59a1 1 0 001-1v-2.999a1 1 0 00-1-1zM59 32.998H5a1 1 0 00-1 1v12.995a1 1 0 001 1h54a1 1 0 001-1V33.998a1 1 0 00-1-1z" fill="#fff"/><path d="M30.497 30.996H5a1 1 0 01-1-1v1.001a1 1 0 001 1h25.497a1 1 0 001-1v-1.001a1 1 0 01-1 1zM59 30.996H33.502a1 1 0 01-1-1v1.001a1 1 0 001 1H59a1 1 0 001-1v-1.001a1 1 0 01-1 1zM59 46.992H5a1 1 0 01-1-1v1.001a1 1 0 001 1h54a1 1 0 001-1v-1.001a1 1 0 01-1 1z" fill="#ccd1d9"/><path d="M44.509 50.998H19.487c-1.379 0-2.5 1.121-2.5 2.5s1.121 2.5 2.5 2.5h25.021c1.379 0 2.5-1.121 2.5-2.5s-1.12-2.5-2.499-2.5z" fill="#4a89dc"/><path d="M59 11.999H5a1 1 0 00-1 1v11.002a1 1 0 001 1h42.744l1.813.897a1 1 0 00.89-.001l1.789-.896H59a1 1 0 001-1V12.999a1 1 0 00-1-1zm-53 2h8v9.002H6z" fill="#fff"/><path d="M16.004 25.001a1 1 0 01-1-1V13.165a1 1 0 112 0v10.836a1 1 0 01-1 1z"/><path d="M55 17.999H21.005a1 1 0 110-2H55a1 1 0 110 2zM36.982 20.999H21.005a1 1 0 110-2h15.978a1 1 0 11-.001 2z" fill="#e6e9ed"/><path d="M4.001 13.001c0-.55.45-1 1-1h11c.55 0 1 .45 1 1v10.998c0 .55-.45 1-1 1h-11c-.55 0-1-.45-1-1z" fill="#ed5565"/><path d="M10.501 19.999a1 1 0 01-1-1v-3.001a1 1 0 112 0v3.001a1 1 0 01-1 1zM10.531 22.5c-.553 0-1.005-.447-1.005-1s.442-1 .994-1h.011a1 1 0 110 2z" fill="#da4453"/><path d="M16.987 52.497h30.021v1.001H16.987z" fill="#4a89dc"/><path d="M44.509 49.997H19.487c-1.379 0-2.5 1.121-2.5 2.5s1.121 2.5 2.5 2.5h25.021c1.379 0 2.5-1.121 2.5-2.5s-1.12-2.5-2.499-2.5z" fill="#5d9cec"/></svg>