<svg viewBox="0 0 256 256" xmlns="http://www.w3.org/2000/svg"><path d="M227 2.5H29c-.9 0-1.6.7-1.6 1.7v246.7c0 1.4 1.2 2.6 2.6 2.6h196c1.4 0 2.6-1.2 2.6-2.6V4.2c0-1-.7-1.7-1.6-1.7z" fill="#edf4fc"/><path d="M227 2.5H29c-.9 0-1.6.7-1.6 1.7v16.3h201.3V4.2c-.1-1-.8-1.7-1.7-1.7z" fill="#5290db"/><circle cx="42.3" cy="11.5" r="2.9"/><circle cx="52.4" cy="11.5" r="2.9"/><circle cx="62.5" cy="11.5" r="2.9"/><g fill="#9be5f9"><path d="M56.2 60.5h143.5c1.3 0 2.3 1 2.3 2.3v12.5c0 1.3-1 2.3-2.3 2.3H56.2c-1.3 0-2.3-1-2.3-2.3V62.8c0-1.3 1.1-2.3 2.3-2.3zM56.2 99.1h143.5c1.3 0 2.3 1 2.3 2.3v12.5c0 1.3-1 2.3-2.3 2.3H56.2c-1.3 0-2.3-1-2.3-2.3v-12.5c0-1.3 1.1-2.3 2.3-2.3zM56.2 137.7h143.5c1.3 0 2.3 1 2.3 2.3v12.5c0 1.3-1 2.3-2.3 2.3H56.2c-1.3 0-2.3-1-2.3-2.3V140c0-1.3 1.1-2.3 2.3-2.3z"/></g><path d="M255.8 213.2c-4-.7-7.1-3.8-7.9-7.7 0-.1-.1-.2-.2-.1-.1 0-.1.1-.1.1-.8 4-3.9 7-7.9 7.7-.1 0-.2.1-.1.2 0 .1.1.1.1.1 4 .7 7.1 3.8 7.9 7.7 0 .1.1.2.2.1.1 0 .1-.1.1-.1.8-4 3.9-7 7.9-7.7.1 0 .2-.1.1-.2.1 0 0 0-.1-.1z" fill="#3caadc"/><circle cx="15" cy="119" fill="#ef4460" r="3"/><circle cx="15" cy="32" fill="#b2e26d" r="3"/><circle cx="242" cy="181" fill="#f5c84c" r="3"/><path d="M12.6 89.2h-2.1v-2.1c0-1.5-1.3-2.8-2.8-2.8s-2.8 1.3-2.8 2.8v2.1H2.8C1.3 89.2 0 90.5 0 92s1.3 2.8 2.8 2.8h2.1v2.1c0 1.5 1.3 2.8 2.8 2.8s2.8-1.3 2.8-2.8v-2.1h2.1c1.5 0 2.8-1.3 2.8-2.8s-1.3-2.8-2.8-2.8z" fill="#f5c84c"/><path d="M59.6 167.8h14.1c2.3 0 4.2 1.9 4.2 4.2v14.1c0 2.3-1.9 4.2-4.2 4.2H59.6c-2.3 0-4.2-1.9-4.2-4.2V172c0-2.4 1.9-4.2 4.2-4.2zM104.6 218.4v-9.9c0-2.1-1.7-3.9-3.9-3.9H59.3c-2.1 0-3.9 1.7-3.9 3.9v9.9c0 2.1 1.7 3.9 3.9 3.9h41.4c2.2 0 3.9-1.8 3.9-3.9z" fill="#87d147"/><path d="M227 0H29c-2.3 0-4.1 1.9-4.2 4.2v246.7c0 2.8 2.3 5.1 5.1 5.1h196c2.8 0 5.1-2.3 5.1-5.1V4.2c.1-2.3-1.7-4.2-4-4.2zm-.9 250.9c0 .1-.1.1-.1.1H30c-.1 0-.1-.1-.1-.1v-228h196.3v228zm0-233H29.9V5h196.3v12.9z"/><path d="M56.2 80h143.5c2.6 0 4.8-2.1 4.8-4.8V62.8c0-2.6-2.1-4.8-4.8-4.8H56.2c-2.6 0-4.8 2.1-4.8 4.8v12.5c0 2.6 2.2 4.7 4.8 4.7zm.2-17h143.1v12H56.4zM53.9 51.7h35.8c1.4 0 2.5-1.1 2.5-2.5s-1.1-2.5-2.5-2.5H53.9c-1.4 0-2.5 1.1-2.5 2.5s1.2 2.5 2.5 2.5zM56.2 118.6h143.5c2.6 0 4.8-2.1 4.8-4.8v-12.5c0-2.6-2.1-4.8-4.8-4.8H56.2c-2.6 0-4.8 2.1-4.8 4.8v12.5c0 2.7 2.2 4.8 4.8 4.8zm.2-17h143.1v12.1H56.4zM53.9 90.4h35.8c1.4 0 2.5-1.1 2.5-2.5s-1.1-2.5-2.5-2.5H53.9c-1.4 0-2.5 1.1-2.5 2.5s1.2 2.5 2.5 2.5zM56.2 157.3h143.5c2.6 0 4.8-2.1 4.8-4.8V140c0-2.6-2.1-4.8-4.8-4.8H56.2c-2.6 0-4.8 2.1-4.8 4.8v12.5c0 2.6 2.2 4.8 4.8 4.8zm.2-17.1h143.1v12.1H56.4zM53.9 129h35.8c1.4 0 2.5-1.1 2.5-2.5s-1.1-2.5-2.5-2.5H53.9c-1.4 0-2.5 1.1-2.5 2.5s1.2 2.5 2.5 2.5zM63.6 183.2c1 1 2.6 1 3.5 0l5.3-5.3c1-1 1-2.6 0-3.5-1-1-2.6-1-3.5 0l-3.5 3.5-1.2-1.2c-1-1-2.5-1-3.5 0s-1 2.5 0 3.5z"/><path d="M59.6 192.8h14.1c3.7 0 6.7-3 6.7-6.7V172c0-3.7-3-6.7-6.7-6.7H59.6c-3.7 0-6.7 3-6.7 6.7v14.1c0 3.7 3 6.7 6.7 6.7zm-1.7-20.9c0-.9.8-1.7 1.7-1.7h14.1c.9 0 1.7.8 1.7 1.7V186c0 .9-.8 1.7-1.7 1.7H59.6c-.9 0-1.7-.8-1.7-1.7zM200.6 166.3H89c-1.4 0-2.5 1.1-2.5 2.5s1.1 2.5 2.5 2.5h111.6c1.4 0 2.5-1.1 2.5-2.5s-1.1-2.5-2.5-2.5zM200.6 176.5H89c-1.4 0-2.5 1.1-2.5 2.5s1.1 2.5 2.5 2.5h111.6c1.4 0 2.5-1.1 2.5-2.5s-1.1-2.5-2.5-2.5zM147.5 186.7H89c-1.4 0-2.5 1.1-2.5 2.5s1.1 2.5 2.5 2.5h58.5c1.4 0 2.5-1.1 2.5-2.5s-1.1-2.5-2.5-2.5zM100.7 202.1H59.3c-3.5 0-6.4 2.9-6.4 6.4v9.9c0 3.5 2.9 6.4 6.4 6.4h41.4c3.5 0 6.4-2.9 6.4-6.4v-9.9c0-3.6-2.9-6.4-6.4-6.4zm1.4 16.3c0 .8-.6 1.4-1.4 1.4H59.3c-.8 0-1.4-.6-1.4-1.4v-9.9c0-.8.6-1.4 1.4-1.4h41.4c.8 0 1.4.6 1.4 1.4z"/></svg>