<svg xmlns="http://www.w3.org/2000/svg" fill="none" viewBox="0 0 367 84"><path fill="#172B4D" d="M83.37 59c-.313 0-.595-.11-.846-.329a1.251 1.251 0 01-.329-.846V27.322c0-.345.11-.627.33-.846.218-.25.5-.376.845-.376h21.855c.345 0 .627.125.846.376.251.22.376.501.376.846v4.982c0 .345-.125.627-.376.846-.219.22-.501.329-.846.329H90.843v6.533h13.442c.345 0 .627.125.846.376.251.22.376.501.376.846v4.982c0 .345-.125.627-.376.846-.219.22-.501.329-.846.329H90.843v10.434c0 .313-.11.595-.329.846-.22.22-.501.329-.846.329H83.37zm41.417.47c-4.449 0-7.959-1.081-10.528-3.243-2.569-2.162-3.932-5.342-4.089-9.541-.031-.877-.047-2.225-.047-4.042 0-1.817.016-3.18.047-4.089.125-4.136 1.488-7.316 4.089-9.541 2.632-2.256 6.141-3.384 10.528-3.384 4.355 0 7.833 1.128 10.434 3.384 2.632 2.225 4.011 5.405 4.136 9.541.063 1.817.094 3.18.094 4.089 0 .94-.031 2.287-.094 4.042-.157 4.199-1.52 7.379-4.089 9.541-2.538 2.162-6.032 3.243-10.481 3.243zm0-7.05c1.629 0 2.93-.486 3.901-1.457.971-1.003 1.488-2.522 1.551-4.559.063-1.817.094-3.118.094-3.901 0-.783-.031-2.052-.094-3.807-.063-2.037-.58-3.54-1.551-4.512-.971-1.003-2.272-1.504-3.901-1.504-1.661 0-2.977.501-3.948 1.504-.971.971-1.488 2.475-1.551 4.512-.031.877-.047 2.146-.047 3.807 0 1.692.016 2.992.047 3.901.063 2.037.58 3.556 1.551 4.559.971.971 2.287 1.457 3.948 1.457zM145.93 59a1.25 1.25 0 01-.846-.329 1.248 1.248 0 01-.329-.846V27.322c0-.345.109-.627.329-.846.219-.25.501-.376.846-.376h12.925c4.136 0 7.363.94 9.682 2.82 2.35 1.88 3.525 4.528 3.525 7.943 0 2.193-.517 4.058-1.551 5.593-1.003 1.535-2.397 2.726-4.183 3.572l6.345 11.468c.094.188.141.36.141.517 0 .25-.094.486-.282.705a.957.957 0 01-.705.282H165.2c-.909 0-1.551-.423-1.927-1.269l-5.17-10.199h-4.512v10.293c0 .345-.126.627-.376.846-.22.22-.502.329-.846.329h-6.439zm12.878-18.377c1.347 0 2.365-.329 3.055-.987.72-.69 1.081-1.63 1.081-2.82s-.361-2.146-1.081-2.867c-.69-.72-1.708-1.081-3.055-1.081h-5.217v7.755h5.217zM178.656 59c-.344 0-.642-.11-.893-.329-.219-.22-.329-.501-.329-.846V27.322c0-.345.11-.627.329-.846.251-.25.549-.376.893-.376h5.311c.784 0 1.348.345 1.692 1.034l8.084 14.476 8.131-14.476c.345-.69.909-1.034 1.692-1.034h5.311c.345 0 .627.125.846.376.251.22.376.501.376.846v30.503c0 .345-.125.627-.376.846-.219.22-.501.329-.846.329h-5.969c-.313 0-.595-.11-.846-.329a1.253 1.253 0 01-.329-.846V40.717l-5.076 9.306c-.407.72-.955 1.081-1.645 1.081h-2.538c-.626 0-1.175-.36-1.645-1.081l-5.029-9.306v17.108c0 .345-.125.627-.376.846-.219.22-.501.329-.846.329h-5.922zm39.013 0c-.313 0-.595-.11-.846-.329a1.253 1.253 0 01-.329-.846v-30.55c0-.345.11-.627.329-.846a1.25 1.25 0 01.846-.329h6.721c.345 0 .627.11.846.329.219.22.329.501.329.846v30.55c0 .313-.11.595-.329.846-.219.22-.501.329-.846.329h-6.721zm15.468 0a1.25 1.25 0 01-.846-.329 1.248 1.248 0 01-.329-.846V27.322c0-.345.109-.627.329-.846.219-.25.501-.376.846-.376h6.298c.344 0 .626.125.846.376.219.22.329.501.329.846v10.246l8.319-10.528c.344-.627.955-.94 1.833-.94h7.191c.25 0 .47.11.658.329.219.188.329.407.329.658 0 .25-.063.439-.188.564l-10.951 14.194 11.844 15.604c.125.125.188.313.188.564 0 .25-.11.486-.329.705a.957.957 0 01-.705.282h-7.379c-.502 0-.909-.094-1.222-.282-.314-.22-.533-.439-.658-.658l-8.93-11.468v11.233c0 .313-.11.595-.329.846-.22.22-.502.329-.846.329h-6.298z"/><path fill="#4C9AFF" d="M282.3 59.47c-3.29 0-5.766-1.065-7.426-3.196-1.63-2.13-2.507-4.825-2.632-8.084l-.047-1.41.047-1.41c.125-3.227 1.018-5.906 2.679-8.037 1.66-2.162 4.12-3.243 7.379-3.243 3.258 0 5.796 1.16 7.614 3.478V26.711c0-.313.094-.564.282-.752.219-.22.485-.329.799-.329h2.115c.313 0 .564.11.752.329a.942.942 0 01.329.752v31.208c0 .313-.11.58-.329.799-.188.188-.439.282-.752.282h-2.021c-.314 0-.564-.094-.752-.282a1.186 1.186 0 01-.282-.799v-2.021c-1.786 2.381-4.371 3.572-7.755 3.572zm.893-3.666c2.193 0 3.838-.72 4.935-2.162 1.096-1.473 1.692-3.212 1.786-5.217.031-.345.047-.94.047-1.786 0-.877-.016-1.488-.047-1.833-.063-1.911-.674-3.556-1.833-4.935-1.128-1.41-2.758-2.115-4.888-2.115-2.256 0-3.901.705-4.935 2.115-1.034 1.41-1.598 3.259-1.692 5.546l-.047 1.363c0 6.016 2.224 9.024 6.674 9.024zm26 3.666c-3.447 0-6.11-.971-7.99-2.914-1.849-1.943-2.836-4.528-2.961-7.755l-.047-2.021.047-2.021c.125-3.227 1.128-5.812 3.008-7.755 1.911-1.943 4.559-2.914 7.943-2.914 3.384 0 6.016.971 7.896 2.914 1.911 1.943 2.93 4.528 3.055 7.755.063.69.094 1.363.094 2.021 0 .658-.031 1.332-.094 2.021-.125 3.227-1.128 5.812-3.008 7.755-1.849 1.943-4.496 2.914-7.943 2.914zm0-3.525c2.005 0 3.588-.627 4.747-1.88 1.191-1.285 1.833-3.118 1.927-5.499.031-.313.047-.909.047-1.786s-.016-1.473-.047-1.786c-.094-2.381-.736-4.199-1.927-5.452-1.159-1.285-2.742-1.927-4.747-1.927s-3.603.642-4.794 1.927c-1.159 1.253-1.786 3.07-1.88 5.452l-.047 1.786.047 1.786c.094 2.381.721 4.214 1.88 5.499 1.191 1.253 2.789 1.88 4.794 1.88zm24.756 3.525c-3.353 0-5.969-.94-7.849-2.82-1.88-1.911-2.867-4.575-2.961-7.99l-.047-1.88.047-1.88c.094-3.415 1.081-6.063 2.961-7.943 1.88-1.911 4.496-2.867 7.849-2.867 2.256 0 4.151.407 5.686 1.222 1.567.783 2.726 1.77 3.478 2.961.784 1.19 1.207 2.381 1.269 3.572.032.282-.078.533-.329.752-.219.22-.47.329-.752.329h-2.068c-.313 0-.548-.063-.704-.188-.157-.157-.314-.423-.47-.799-.564-1.535-1.348-2.616-2.35-3.243-.972-.658-2.209-.987-3.713-.987-1.974 0-3.541.611-4.7 1.833-1.16 1.222-1.786 3.086-1.88 5.593l-.048 1.645.048 1.645c.094 2.507.72 4.371 1.88 5.593 1.159 1.222 2.726 1.833 4.7 1.833 1.535 0 2.788-.313 3.76-.94.971-.658 1.739-1.755 2.303-3.29.156-.376.313-.627.47-.752.156-.157.391-.235.704-.235h2.068c.282 0 .533.11.752.329.251.22.361.47.329.752-.062 1.16-.485 2.334-1.269 3.525-.752 1.19-1.911 2.193-3.478 3.008-1.535.815-3.43 1.222-5.686 1.222zm22.43 0c-2.162 0-3.995-.345-5.499-1.034-1.472-.72-2.569-1.535-3.29-2.444-.72-.909-1.081-1.66-1.081-2.256 0-.313.11-.548.329-.705.22-.188.455-.282.705-.282h1.974c.188 0 .329.031.423.094.126.063.282.204.47.423.721.877 1.52 1.567 2.397 2.068.909.501 2.115.752 3.619.752 1.692 0 3.04-.313 4.042-.94 1.034-.627 1.551-1.535 1.551-2.726 0-.783-.219-1.41-.658-1.88-.438-.47-1.175-.893-2.209-1.269-1.002-.376-2.506-.783-4.512-1.222-2.726-.595-4.653-1.457-5.781-2.585-1.128-1.128-1.692-2.585-1.692-4.371 0-1.16.345-2.272 1.034-3.337.69-1.097 1.708-1.974 3.055-2.632 1.379-.69 3.008-1.034 4.888-1.034 1.974 0 3.651.329 5.029.987 1.41.658 2.46 1.426 3.149 2.303.721.877 1.081 1.614 1.081 2.209a.889.889 0 01-.329.705.957.957 0 01-.705.282h-1.786c-.438 0-.752-.172-.94-.517-.532-.595-.987-1.05-1.363-1.363-.344-.345-.861-.627-1.551-.846-.689-.25-1.551-.376-2.585-.376-1.535 0-2.71.329-3.525.987-.814.627-1.222 1.473-1.222 2.538 0 .658.173 1.222.517 1.692.345.439 1.003.862 1.974 1.269.972.376 2.413.768 4.324 1.175 2.977.627 5.076 1.52 6.298 2.679 1.254 1.16 1.88 2.648 1.88 4.465 0 1.347-.391 2.57-1.175 3.666-.752 1.097-1.895 1.958-3.431 2.585-1.504.627-3.305.94-5.405.94z"/><path fill="#172B4D" d="M38.869 0l9.694 5.575-38.176 21.953-9.694-5.574L38.869 0zm10.085 6.745L11.018 28.551l-.001 11.032 37.936-21.805V6.745zM33.699 28.276l-22.601 12.99-.002 11.034 22.601-12.992.002-11.032zm-8.664 17.441l-13.99 8.042-.002 11.033 13.99-8.042.002-11.033zM.004 23.017l9.75 5.605-.003 11.035L0 34.053l.004-11.036zm.093 12.64l9.632 5.537-.004 11.035-9.632-5.536.004-11.036zM.092 48.221l9.636 5.539-.004 11.763-9.636-5.539.004-11.763zM21.564 84l-9.694-5.575 37.743-21.704 9.694 5.575L21.564 84zm-10.462-6.529l37.879-21.773.001-11.032-37.879 21.773-.001 11.032zM26.3 55.974l22.601-12.992.001-11.032-22.6 12.99-.002 11.034zm8.664-17.442l13.99-8.042.002-11.033-13.99 8.042-.002 11.033zm25.032 22.774l-9.75-5.605.003-11.035L60 50.271l-.004 11.035zm-.092-12.711l-9.633-5.537.004-11.035 9.633 5.536-.004 11.036zm.004-12.565l-9.636-5.538.004-11.552 9.636 5.539-.004 11.552z"/></svg>