<svg viewBox="0 0 64 64" xmlns="http://www.w3.org/2000/svg"><path d="M3 9h53v48a4 4 0 01-4 4H7a4 4 0 01-4-4V9z" fill="#ffeb99"/><path d="M5 57V9H3v48a4 4 0 004 4h2a4 4 0 01-4-4z" fill="#ffde55"/><path d="M13 53H5v4a2 2 0 002 2h6z" fill="#00479b"/><path d="M5 47h8v6H5z" fill="#004fac"/><path d="M7.243 51.1l-.241.241z" fill="#315a13"/><path d="M5 41h8v6H5z" fill="#006df0"/><path d="M5 35h8v6H5z" fill="#9bc9ff"/><path d="M25 53h6v8h-6z" fill="#ff8c9e"/><path d="M54 3H5a2 2 0 00-2 2v4h53V5a2 2 0 00-2-2z" fill="#004fac"/><path d="M7 3H5a2 2 0 00-2 2v4h2V5a2 2 0 012-2z" fill="#003f8a"/><path d="M59 34H35a2 2 0 00-2 2v4h28v-4a2 2 0 00-2-2z" fill="#006df0"/><path d="M33 40v19a2 2 0 002 2h4V40z" fill="#ffb655"/><path d="M39 61h20a2 2 0 002-2V40H39z" fill="#ffc477"/><path d="M17.479 42.856l4.242-4.242 5.656 5.656-4.242 4.242z" fill="#c8ec74"/><path d="M18.899 52.757l-5.656-5.656-.241.24L9 51.343 14.657 57z" fill="#5eac24"/><path d="M13.236 47.098l4.242-4.242 5.656 5.656-4.242 4.242z" fill="#9bdf69"/><path d="M6.172 54.172a4 4 0 005.656 5.656L14.657 57 9 51.343z" fill="#4e901e"/><path d="M6 5h2v2H6zM10 5h2v2h-2zM14 5h2v2h-2z" fill="#f1f2f2"/><g fill="#ffcd00"><path d="M9 32a1 1 0 01-1-1V15a1 1 0 012 0v16a1 1 0 01-1 1zM16 19a1 1 0 01-.554-.168l-3-2a1 1 0 010-1.664l3-2a1 1 0 111.11 1.664L14.8 16l1.752 1.168A1 1 0 0116 19zM24 19a1 1 0 01-.556-1.832L25.2 16l-1.752-1.168a1 1 0 011.11-1.664l3 2a1 1 0 010 1.664l-3 2A1 1 0 0124 19zM19 20a1 1 0 01-.949-1.316l2-6a1 1 0 011.9.632l-2 6A1 1 0 0119 20zM12 22h6v2h-6zM20 22h2v2h-2zM15 25h12v2H15zM33 25h7v2h-7zM15 28h2v2h-2zM19 28h12v2H19zM33 28h4v2h-4zM29 25h2v2h-2zM13 31h4v2h-4zM19 31h2v2h-2zM23 31h9v2h-9zM15 34h11v2H15zM28 34h2v2h-2zM40 28h11v2H40zM42 25h9v2h-9z"/></g><path d="M9 53a4 4 0 000 8h4v-8z" fill="#d80027"/><path d="M19 61v-8h-6v8z" fill="#ff3051"/><path d="M19 53h6v8h-6z" fill="#ff5e78"/><path d="M8 56h2v2H8z" fill="#f1f2f2"/></svg>