<svg viewBox="0 0 256 256" xmlns="http://www.w3.org/2000/svg"><path d="M15 186v63.003a4.51 4.51 0 004.497 4.497h55.006A4.51 4.51 0 0079 249.003V186zM96 186v63.003a4.51 4.51 0 004.497 4.497h55.006a4.51 4.51 0 004.497-4.497V186zM177 186v63.003a4.51 4.51 0 004.497 4.497h55.006a4.51 4.51 0 004.497-4.497V186z" fill="#70d6f9"/><path d="M74.503 174.5H19.497A4.51 4.51 0 0015 178.997V186h64v-7.003a4.51 4.51 0 00-4.497-4.497zM155.503 174.5h-55.007a4.51 4.51 0 00-4.497 4.497V186h64v-7.003a4.51 4.51 0 00-4.496-4.497zM236.503 174.5h-55.007a4.51 4.51 0 00-4.497 4.497V186h64v-7.003a4.51 4.51 0 00-4.496-4.497z" fill="#fcdd86"/><path d="M217.194 8.551c-4.149.773-7.419 3.976-8.208 8.041-.04.204-.325.204-.364 0-.789-4.065-4.059-7.268-8.208-8.041a.18.18 0 010-.357c4.149-.773 7.419-3.976 8.208-8.041.04-.204.325-.204.364 0 .789 4.065 4.059 7.268 8.208 8.041a.18.18 0 010 .357z" fill="#f5c84c"/><path d="M220.688 122.998c-2.91.542-5.204 2.789-5.757 5.64-.028.143-.228.143-.255 0-.553-2.851-2.847-5.098-5.757-5.64a.126.126 0 010-.25c2.91-.542 5.204-2.789 5.757-5.64.028-.143.228-.143.255 0 .553 2.851 2.847 5.098 5.757 5.64a.126.126 0 010 .25z" fill="#fc657e"/><circle cx="212.257" cy="33.377" fill="#87d147" r="3.377"/><circle cx="27.257" cy="147.377" fill="#f5c84c" r="3.377"/><path d="M44.73 118.758h-1.824v-1.824a2.473 2.473 0 10-4.946 0v1.824h-1.824a2.473 2.473 0 100 4.946h1.824v1.824a2.473 2.473 0 104.946 0v-1.824h1.824a2.473 2.473 0 100-4.946z" fill="#70d6f9"/><path d="M61.492 33.684v82.278a4.86 4.86 0 004.86 4.86h123.297a4.86 4.86 0 004.86-4.86V33.684z" fill="#edf4fc"/><path d="M189.648 14.5H66.352a4.86 4.86 0 00-4.86 4.86v14.324h133.016V19.36a4.86 4.86 0 00-4.86-4.86z" fill="#5290db"/><path d="M82.046 14.5H66.352a4.86 4.86 0 00-4.86 4.86v14.324h20.554z" fill="#fc657e"/><path d="M162.078 26.592H94.835a2.5 2.5 0 110-5h67.243a2.5 2.5 0 110 5zM183.81 26.592h-9.943a2.5 2.5 0 110-5h9.943a2.5 2.5 0 110 5zM189.648 123.321H66.352c-4.058 0-7.359-3.301-7.359-7.359V33.684a2.5 2.5 0 115 0v82.278a2.362 2.362 0 002.359 2.359h123.297a2.362 2.362 0 002.359-2.359V33.684a2.5 2.5 0 115 0v82.278c0 4.058-3.302 7.359-7.36 7.359z"/><path d="M194.508 36.184H61.492a2.5 2.5 0 01-2.5-2.5V19.359c0-4.058 3.301-7.359 7.359-7.359h123.297c4.058 0 7.359 3.301 7.359 7.359v14.324a2.499 2.499 0 01-2.499 2.501zm-130.516-5h128.016V19.359A2.362 2.362 0 00189.649 17H66.352a2.362 2.362 0 00-2.359 2.359v11.825z"/><path d="M82.046 35.313a2.5 2.5 0 01-2.5-2.5V15.438a2.5 2.5 0 115 0v17.375a2.5 2.5 0 01-2.5 2.5zM74.503 256H19.497a7.005 7.005 0 01-6.997-6.997V186a2.5 2.5 0 115 0v63.003A2 2 0 0019.497 251h55.007a2 2 0 001.997-1.997V186a2.5 2.5 0 115 0v63.003c-.001 3.858-3.14 6.997-6.998 6.997z"/><path d="M67.082 200.365H40.306a2.5 2.5 0 110-5h26.776a2.5 2.5 0 110 5zM31.334 200.365h-4.416a2.5 2.5 0 110-5h4.416a2.5 2.5 0 110 5zM67.082 211.603H52.595a2.5 2.5 0 110-5h14.487a2.5 2.5 0 110 5zM43.479 211.603H26.918a2.5 2.5 0 110-5h16.561a2.5 2.5 0 110 5zM67.082 222.842h-2.074a2.5 2.5 0 110-5h2.074a2.5 2.5 0 110 5zM55.991 222.842H26.918a2.5 2.5 0 110-5h29.073a2.5 2.5 0 110 5zM67.082 234.08H44.945a2.5 2.5 0 110-5h22.137a2.5 2.5 0 110 5zM35.821 234.08h-8.903a2.5 2.5 0 110-5h8.903a2.5 2.5 0 110 5zM67.082 245.318H52.595a2.5 2.5 0 110-5h14.487a2.5 2.5 0 110 5zM43.479 245.318H26.918a2.5 2.5 0 110-5H43.48a2.5 2.5 0 11-.001 5zM155.503 256h-55.006a7.005 7.005 0 01-6.997-6.997V186a2.5 2.5 0 115 0v63.003a2 2 0 001.997 1.997h55.006a1.999 1.999 0 001.997-1.997V186a2.5 2.5 0 115 0v63.003a7.005 7.005 0 01-6.997 6.997z"/><path d="M148.082 200.365h-26.776a2.5 2.5 0 110-5h26.776a2.5 2.5 0 110 5zM112.334 200.365h-4.416a2.5 2.5 0 110-5h4.416a2.5 2.5 0 110 5zM148.082 211.603h-14.487a2.5 2.5 0 110-5h14.487a2.5 2.5 0 110 5zM124.479 211.603h-16.561a2.5 2.5 0 110-5h16.561a2.5 2.5 0 110 5zM148.082 222.842h-2.074a2.5 2.5 0 110-5h2.074a2.5 2.5 0 110 5zM136.99 222.842h-29.072a2.5 2.5 0 110-5h29.072a2.5 2.5 0 110 5zM148.082 234.08h-22.137a2.5 2.5 0 110-5h22.137a2.5 2.5 0 110 5zM116.821 234.08h-8.903a2.5 2.5 0 110-5h8.903a2.5 2.5 0 110 5zM148.082 245.318h-14.487a2.5 2.5 0 110-5h14.487a2.5 2.5 0 110 5zM124.479 245.318h-16.562a2.5 2.5 0 110-5h16.562a2.5 2.5 0 110 5zM236.503 256h-55.006a7.005 7.005 0 01-6.997-6.997V186a2.5 2.5 0 115 0v63.003a2 2 0 001.997 1.997h55.006a1.999 1.999 0 001.997-1.997V186a2.5 2.5 0 115 0v63.003a7.005 7.005 0 01-6.997 6.997z"/><path d="M229.082 200.365h-26.776a2.5 2.5 0 110-5h26.776a2.5 2.5 0 110 5zM193.334 200.365h-4.416a2.5 2.5 0 110-5h4.416a2.5 2.5 0 110 5zM229.082 211.603h-14.487a2.5 2.5 0 110-5h14.487a2.5 2.5 0 110 5zM205.479 211.603h-16.562a2.5 2.5 0 110-5h16.562a2.5 2.5 0 110 5zM229.082 222.842h-2.074a2.5 2.5 0 110-5h2.074a2.5 2.5 0 110 5zM217.99 222.842h-29.072a2.5 2.5 0 110-5h29.072a2.5 2.5 0 110 5zM229.082 234.08h-22.137a2.5 2.5 0 110-5h22.137a2.5 2.5 0 110 5zM197.821 234.08h-8.903a2.5 2.5 0 110-5h8.903a2.5 2.5 0 110 5zM229.082 245.318h-14.487a2.5 2.5 0 110-5h14.487a2.5 2.5 0 110 5zM205.479 245.318h-16.562a2.5 2.5 0 110-5h16.562a2.5 2.5 0 110 5zM47.5 176a2.5 2.5 0 01-2.5-2.5v-20.563c0-4.377 3.561-7.938 7.937-7.938h22.625a2.941 2.941 0 002.938-2.938V121.82a2.5 2.5 0 115 0v20.241c0 4.377-3.561 7.938-7.938 7.938H52.937A2.94 2.94 0 0050 152.937V173.5a2.5 2.5 0 01-2.5 2.5zM208.5 176a2.5 2.5 0 01-2.5-2.5v-20.563a2.94 2.94 0 00-2.938-2.938h-22.625c-4.377 0-7.937-3.561-7.937-7.938V121.82a2.5 2.5 0 115 0v20.241a2.94 2.94 0 002.937 2.938h22.625c4.377 0 7.938 3.561 7.938 7.938V173.5a2.5 2.5 0 01-2.5 2.5zM128 176a2.5 2.5 0 01-2.5-2.5v-51.679a2.5 2.5 0 115 0V173.5a2.5 2.5 0 01-2.5 2.5z"/><path d="M167.01 72.109l-20.377-15.311a4.6 4.6 0 00-6.444.915 4.608 4.608 0 00.915 6.444l15.481 11.632-15.482 11.631a4.607 4.607 0 00-.914 6.444 4.607 4.607 0 006.443.915l20.378-15.312c2.449-1.84 2.452-5.514 0-7.358zM114.895 87.42L99.414 75.789l15.481-11.632a4.598 4.598 0 00.915-6.443 4.606 4.606 0 00-6.443-.915L88.989 72.11c-1.167.877-1.837 2.219-1.837 3.68s.67 2.801 1.837 3.678l20.377 15.311a4.6 4.6 0 006.443-.915 4.599 4.599 0 00-.914-6.444zM136.642 50.869a4.6 4.6 0 00-5.874 2.801l-14.579 41.163a4.6 4.6 0 002.801 5.874 4.6 4.6 0 005.874-2.801l14.579-41.163a4.599 4.599 0 00-2.801-5.874z" fill="#70d6f9"/><path d="M143.877 98.199a7.1 7.1 0 01-5.687-2.833 7.055 7.055 0 01-1.353-5.264 7.061 7.061 0 012.764-4.681l12.821-9.633-12.821-9.633a7.063 7.063 0 01-2.764-4.68 7.051 7.051 0 011.353-5.264c2.353-3.13 6.812-3.765 9.944-1.411l20.377 15.311c1.803 1.355 2.836 3.425 2.836 5.678s-1.033 4.322-2.835 5.677l-20.379 15.312a7.065 7.065 0 01-4.256 1.421zm-.006-39.823c-.64 0-1.271.29-1.685.838-.336.447-.478 1-.398 1.557.079.558.37 1.05.817 1.386l15.481 11.632a2.5 2.5 0 010 3.998l-15.481 11.632a2.094 2.094 0 00-.817 1.386 2.09 2.09 0 00.398 1.557 2.105 2.105 0 002.943.419l20.379-15.312c.533-.401.839-1.013.839-1.68s-.306-1.279-.84-1.681L145.13 58.797a2.084 2.084 0 00-1.259-.421zM112.117 98.204a7.052 7.052 0 01-4.252-1.425L87.487 81.466a7.045 7.045 0 01-2.835-5.676 7.043 7.043 0 012.835-5.679L107.864 54.8a7.055 7.055 0 015.265-1.351 7.053 7.053 0 014.68 2.763 7.05 7.05 0 011.354 5.265 7.059 7.059 0 01-2.766 4.679l-12.821 9.633 12.821 9.633a7.055 7.055 0 012.767 4.684c.265 1.876-.217 3.745-1.356 5.261s-2.8 2.499-4.679 2.765a7.207 7.207 0 01-1.012.072zm.007-39.827c-.452 0-.89.145-1.256.42L90.491 74.108a2.058 2.058 0 00-.839 1.681c0 .676.298 1.273.839 1.68l20.377 15.312c.449.337 1.002.479 1.558.401s1.047-.37 1.384-.818c.339-.45.481-1.003.403-1.558a2.092 2.092 0 00-.82-1.386l-15.48-11.632a2.5 2.5 0 010-3.998l15.48-11.632c.45-.338.741-.83.82-1.385s-.063-1.108-.401-1.557a2.087 2.087 0 00-1.386-.817 2.203 2.203 0 00-.302-.022z"/><path d="M120.52 103.473a7.074 7.074 0 01-2.363-.407c-3.691-1.308-5.631-5.375-4.325-9.066l14.579-41.164c1.307-3.691 5.373-5.63 9.064-4.324h.001c3.69 1.308 5.63 5.375 4.323 9.065L127.22 98.741c-1.029 2.91-3.775 4.732-6.7 4.732zm14.587-50.368c-.865 0-1.679.539-1.983 1.399l-14.579 41.163a2.105 2.105 0 001.279 2.684 2.106 2.106 0 002.683-1.278l14.58-41.164a2.107 2.107 0 00-1.279-2.684 2.122 2.122 0 00-.701-.12zM79 188.5H15a2.5 2.5 0 01-2.5-2.5v-7.003A7.005 7.005 0 0119.497 172h55.007a7.005 7.005 0 016.997 6.997V186A2.501 2.501 0 0179 188.5zm-61.5-5h59v-4.503A2 2 0 0074.503 177H19.497a2 2 0 00-1.997 1.997zM160 188.5H96a2.5 2.5 0 01-2.5-2.5v-7.003a7.005 7.005 0 016.997-6.997h55.006a7.005 7.005 0 016.997 6.997V186a2.5 2.5 0 01-2.5 2.5zm-61.5-5h59v-4.503a2 2 0 00-1.997-1.997h-55.006a2 2 0 00-1.997 1.997zM241 188.5h-64a2.5 2.5 0 01-2.5-2.5v-7.003a7.005 7.005 0 016.997-6.997h55.006a7.005 7.005 0 016.997 6.997V186a2.5 2.5 0 01-2.5 2.5zm-61.5-5h59v-4.503a2 2 0 00-1.997-1.997h-55.006a1.999 1.999 0 00-1.997 1.997z"/></svg>