<svg viewBox="0 0 464 464" xmlns="http://www.w3.org/2000/svg"><path d="M320 0H144c-17.672 0-32 14.328-32 32v16h240V32c0-17.672-14.328-32-32-32zm0 0M112 432c0 17.672 14.328 32 32 32h176c17.672 0 32-14.328 32-32v-32H112zm0 0" fill="#126099"/><path d="M112 48h240v352H112zm0 0" fill="#4398d1"/><path d="M240 212a107.701 107.701 0 00-38.984-83.223A107.701 107.701 0 00112 105.93v212.14a108.428 108.428 0 0020 1.93c1.352 0 2.664-.152 4-.2V336h24v-19.8c47.164-12.641 79.973-55.372 80-104.2zm0 0" fill="#3e8cc7"/><path d="M112 384v16h240V144zm0 0" fill="#3e8cc7"/><path d="M224 424h16v16h-16zm0 0" fill="#3181bd"/><path d="M240 200c0 53.02-42.98 96-96 96s-96-42.98-96-96 42.98-96 96-96a95.693 95.693 0 0167.98 28.02A95.693 95.693 0 01240 200zm0 0" fill="#126099"/><path d="M176 184c0 17.672-14.328 32-32 32s-32-14.328-32-32 14.328-32 32-32 32 14.328 32 32zm0 0" fill="#fec9a3"/><path d="M304 280l131.063-115.64a17.433 17.433 0 0111.523-4.36c9.617 0 17.414 7.797 17.414 17.414a17.433 17.433 0 01-4.36 11.524L344 320zm0 0" fill="#e3584b"/><path d="M304 280c-26.508 0-48 21.492-48 48v14.113A28.946 28.946 0 01240 368h56c26.508 0 48-21.492 48-48zm0 0M0 360h176v64H0zm0 0" fill="#87ced9"/><path d="M24 384h40v16H24zm0 0M80 384h72v16H80zm0 0" fill="#5eb3d1"/><path d="M0 32h80v64H0zm0 0" fill="#87ced9"/><path d="M24 56h32v16H24zm0 0" fill="#5eb3d1"/><path d="M144 216c-26.508 0-48 21.492-48 48v19.113a95.831 95.831 0 0096 0V264c0-26.508-21.492-48-48-48zm0 0" fill="#e3584b"/><path d="M272 192h-24.406c-3.989-51.05-44.543-91.605-95.594-95.594V72h-16v24.406C84.95 100.395 44.395 140.95 40.406 192H16v16h24.426c3.773 51.148 44.426 91.828 95.574 95.633V328h16v-24.367c51.148-3.805 91.8-44.485 95.574-95.633H272zm-69.336 73.602A87.596 87.596 0 01152 287.632V272h-16v15.633C93.7 283.84 60.187 250.3 56.426 208H72v-16H56.406c3.91-42.234 37.36-75.684 79.594-79.594V128h16v-15.594c42.234 3.91 75.684 37.36 79.594 79.594H216v16h15.574a88.045 88.045 0 01-28.91 57.64zm0 0" fill="#e3584b"/><path d="M256 48h96v96h-96zm0 0" fill="#3e8cc7"/><path d="M272 32h176v96H272zm0 0" fill="#87ced9"/><g fill="#5eb3d1"><path d="M296 56h32v16h-32zm0 0M344 56h80v16h-80zm0 0M296 88h128v16H296zm0 0"/></g></svg>