<svg xmlns="http://www.w3.org/2000/svg" viewBox="0 0 512 512"><g fill="#5e6875"><path d="M216.462 362.624v30.905H107.018a4 4 0 01-4-4v-186.15h30.905v157.245a2 2 0 002 2h80.539zM293.723 149.376v-30.905h109.444a4 4 0 014 4V302.5h-30.905V151.376a2 2 0 00-2-2h-80.539z"/></g><g fill="#ef6161"><path d="M251.335 381.768l-37.94 27.226c-2.726 1.956-6.523.008-6.523-3.348v-54.451c0-3.356 3.797-5.304 6.523-3.348l37.94 27.226c2.291 1.643 2.291 5.051 0 6.695zM258.851 130.232l37.94-27.226c2.726-1.956 6.523-.008 6.523 3.348v54.451c0 3.356-3.797 5.304-6.523 3.348l-37.94-27.226c-2.291-1.643-2.291-5.051 0-6.695z"/></g><path d="M216.338 236.942H20.604C9.225 236.942 0 227.717 0 216.338V20.604C0 9.225 9.225 0 20.604 0h195.734c11.379 0 20.604 9.225 20.604 20.604v195.734c0 11.379-9.225 20.604-20.604 20.604z" fill="#d5e3f5"/><path d="M216.338 0h-30.905c11.379 0 20.604 9.225 20.604 20.604v195.734c0 11.379-9.225 20.604-20.604 20.604h30.905c11.379 0 20.604-9.225 20.604-20.604V20.604C236.942 9.225 227.717 0 216.338 0z" fill="#b1c4de"/><path d="M491.396 512H295.662c-11.379 0-20.604-9.225-20.604-20.604V295.662c0-11.379 9.225-20.604 20.604-20.604h195.734c11.379 0 20.604 9.225 20.604 20.604v195.734c0 11.379-9.225 20.604-20.604 20.604z" fill="#d5e3f5"/><path d="M491.396 275.058h-30.905c11.379 0 20.604 9.225 20.604 20.604v195.734c0 11.379-9.225 20.604-20.604 20.604h30.905c11.379 0 20.604-9.225 20.604-20.604V295.662c0-11.379-9.225-20.604-20.604-20.604z" fill="#b1c4de"/><path d="M115.054 37.333L71.733 101.58c-1.845 2.737.116 6.424 3.417 6.424h86.642c3.301 0 5.262-3.688 3.417-6.424l-43.321-64.247c-1.634-2.422-5.2-2.422-6.834 0z" fill="#ffd45e"/><path d="M384.739 387.83l-31.974-31.974c-4.855-4.855-4.855-12.726 0-17.58l31.974-31.974c4.855-4.855 12.726-4.855 17.58 0l31.974 31.974c4.855 4.855 4.855 12.726 0 17.58l-31.974 31.974c-4.854 4.855-12.725 4.855-17.58 0z" fill="#3ad1e6"/><g fill="#5e6875"><path d="M51.509 149.067h133.923c4.142 0 7.5-3.357 7.5-7.5s-3.358-7.5-7.5-7.5H51.509c-4.142 0-7.5 3.357-7.5 7.5s3.358 7.5 7.5 7.5zM185.433 164.974H51.509c-4.142 0-7.5 3.357-7.5 7.5s3.358 7.5 7.5 7.5h133.923c4.142 0 7.5-3.357 7.5-7.5s-3.357-7.5-7.499-7.5zM185.433 195.879H51.509c-4.142 0-7.5 3.357-7.5 7.5s3.358 7.5 7.5 7.5h133.923c4.142 0 7.5-3.357 7.5-7.5s-3.357-7.5-7.499-7.5zM326.567 424.724h133.924c4.143 0 7.5-3.357 7.5-7.5s-3.357-7.5-7.5-7.5H326.567c-4.143 0-7.5 3.357-7.5 7.5s3.358 7.5 7.5 7.5zM460.491 440.629H326.567c-4.143 0-7.5 3.357-7.5 7.5s3.357 7.5 7.5 7.5h133.924c4.143 0 7.5-3.357 7.5-7.5s-3.357-7.5-7.5-7.5zM460.491 471.534H326.567c-4.143 0-7.5 3.357-7.5 7.5s3.357 7.5 7.5 7.5h133.924c4.143 0 7.5-3.357 7.5-7.5s-3.357-7.5-7.5-7.5z"/></g></svg>