<svg xmlns="http://www.w3.org/2000/svg" viewBox="0 0 512 512"><path d="M286 46v421c0 24.899-20.099 45-45 45H61c-24.901 0-45-20.101-45-45V46C16 21.099 36.099 0 61 0h180c24.901 0 45 21.099 45 46z" fill="#6f7d96"/><path d="M286 46v421c0 24.899-20.099 45-45 45h-90V0h90c24.901 0 45 21.099 45 46z" fill="#66728b"/><path d="M151 91c-24.901 0-45 20.099-45 45v240c0 24.899 20.099 45 45 45s45-20.101 45-45V136c0-24.901-20.099-45-45-45z" fill="#495a79"/><path d="M196 136v240c0 24.899-20.099 45-45 45V91c24.901 0 45 20.099 45 45z" fill="#42516d"/><circle cx="91" cy="76" r="15" fill="#c5c9f7"/><circle cx="211" cy="76" r="15" fill="#a8aff1"/><circle cx="91" cy="436" r="15" fill="#c5c9f7"/><circle cx="211" cy="436" r="15" fill="#a8aff1"/><path d="M331 91c-90.901 0-165 74.099-165 165 0 90.899 74.099 165 165 165s165-74.101 165-165c0-90.901-74.099-165-165-165z" fill="#ffa81f"/><path d="M496 256c0 90.899-74.099 165-165 165V91c90.901 0 165 74.099 165 165z" fill="#ff9800"/><path d="M331 361c-57.891 0-105-47.109-105-105s47.109-105 105-105 105 47.109 105 105-47.109 105-105 105z" fill="#ffda2d"/><path d="M436 256c0-57.891-47.109-105-105-105v210c57.891 0 105-47.109 105-105z" fill="#ffbc33"/></svg>