<svg xmlns="http://www.w3.org/2000/svg" viewBox="0 0 512 512"><circle cx="256" cy="256" r="256" fill="#00c7ff"/><path d="M512 256l-.001-.11-119.872-119.872L100.5 375.982l135.219 135.219c6.692.525 13.454.799 20.281.799 141.385 0 256-114.615 256-256z" fill="#0093c4"/><path fill="#9abadb" d="M392.127 136.018H256l-12.158 213.376 148.285-12.158z"/><g fill="#d1e8ff"><path d="M119.873 136.018v201.218L256 349.394V136.018z"/><path d="M411.5 337.236H256l-12.158 19.373L256 375.982h155.5z"/></g><path fill="#f5f5ff" d="M100.5 337.24H256v38.747H100.5z"/><path fill="#294b6e" d="M373.904 154.24H256l-12.158 82.387L256 319.013h117.904z"/><path fill="#6283a3" d="M138.1 154.24H256v164.77H138.1z"/><path fill="#f5f5ff" d="M209.124 284.901l-48.274-48.274 48.274-48.274 12.885 12.885-35.389 35.389 35.389 35.389z"/><g fill="#d1e8ff"><path d="M302.876 284.901l-12.885-12.885 35.389-35.389-35.389-35.389 12.885-12.885 48.274 48.274zM253.697 294.9l-17.873-3.555 22.472-112.97 17.873 3.555z"/></g></svg>