<svg xmlns="http://www.w3.org/2000/svg" viewBox="0 0 512 512"><path d="M439.082 95.315C381.094 37.326 303.995 5.391 221.987 5.391c-82.007 0-159.106 31.935-217.094 89.924-6.524 6.523-6.524 17.1 0 23.623 6.523 6.525 17.1 6.525 23.623 0 106.679-106.68 280.26-106.681 386.943 0 84.042 84.042 84.042 220.788 0 304.83-65.932 65.93-173.207 65.93-239.139 0-51.442-51.442-51.442-135.144 0-186.587 39.852-39.85 104.692-39.85 144.545 0 14.813 14.813 22.971 34.507 22.971 55.456 0 20.947-8.158 40.642-22.971 55.455-23.16 23.16-60.845 23.16-84.004 0-8.383-8.383-13.33-20.411-13.574-32.998-.246-12.677 4.127-24.167 12.311-32.351 12.799-12.797 32.073-13.217 44.834-.975 5.049 4.842 7.456 12.986 5.854 19.802-1.528 6.495-6.433 11.077-14.579 13.62-8.807 2.75-13.716 12.117-10.969 20.923 2.749 8.808 12.115 13.713 20.923 10.969 19.369-6.047 32.908-19.847 37.145-37.863 4.307-18.307-1.678-38.546-15.247-51.56-25.792-24.739-66.022-24.1-91.583 1.462-14.456 14.455-22.507 35.093-22.09 56.621.41 21.141 8.922 41.544 23.354 55.974 18.095 18.095 41.857 27.142 65.625 27.139 23.763-.002 47.534-9.049 65.625-27.139 21.123-21.122 32.756-49.206 32.756-79.077 0-29.873-11.633-57.956-32.756-79.078-52.875-52.877-138.915-52.877-191.79 0-64.468 64.468-64.468 169.364 0 233.831 39.479 39.479 91.335 59.218 143.192 59.218s103.715-19.739 143.192-59.218C486.103 400.369 512 337.85 512 271.352s-25.897-129.015-72.918-176.037z" fill="#855fb8"/><g fill="#7b49ad"><path d="M278.862 388.822c-23.768.003-47.531-9.045-65.625-27.139-13.623-13.622-21.963-32.565-23.2-52.428a81.845 81.845 0 00-.153 6.486c.41 21.141 8.922 41.544 23.354 55.974 18.094 18.095 41.857 27.142 65.625 27.139 23.763-.002 47.534-9.049 65.625-27.139 21.123-21.122 32.756-49.206 32.756-79.077 0-1.678-.042-3.35-.115-5.016-1.227 27.989-12.704 54.127-32.64 74.062-18.092 18.09-41.864 27.136-65.627 27.138z"/><path d="M320.864 237.181c13.623 13.624 21.598 31.38 22.794 50.44.104-1.664.177-3.334.177-5.016 0-20.948-8.158-40.644-22.97-55.457-39.852-39.85-104.692-39.85-144.545 0-26.994 26.994-39.814 62.871-38.478 98.309 1.21-32.096 14.03-63.829 38.478-88.277 39.852-39.849 104.693-39.849 144.544.001z"/><path d="M415.46 118.938c40.748 40.748 61.737 93.885 62.971 147.399 1.311-56.857-19.677-114.136-62.971-157.43-106.683-106.681-280.264-106.68-386.944 0-6.523 6.525-17.1 6.525-23.623 0a16.616 16.616 0 01-4.114-6.796c-1.805 5.747-.44 12.274 4.114 16.827 6.523 6.525 17.1 6.525 23.623 0 106.679-106.68 280.261-106.681 386.944 0zM281.66 337.049c-8.792 2.741-18.137-2.144-20.905-10.921a16.623 16.623 0 00-.018 9.984c2.749 8.808 12.115 13.713 20.923 10.969 19.369-6.047 32.907-19.847 37.145-37.863 1.312-5.579 1.664-11.337 1.142-17.015a51.744 51.744 0 01-1.142 6.983c-4.237 18.016-17.776 31.816-37.145 37.863z"/><path d="M439.082 437.359c-39.478 39.479-91.335 59.219-143.192 59.219s-103.713-19.74-143.192-59.219c-30.961-30.96-47.043-71.247-48.266-111.899-1.323 43.996 14.76 88.425 48.266 121.931 39.479 39.479 91.336 59.219 143.192 59.219 51.857 0 103.715-19.74 143.192-59.219C486.103 400.37 512 337.852 512 271.354c0-1.675-.028-3.346-.061-5.016-1.269 64.619-27.019 125.184-72.857 171.021z"/><path d="M280.431 281.768c2.791 2.676 4.769 6.364 5.715 10.277.045-.17.097-.335.138-.507 1.603-6.816-.805-14.959-5.853-19.802-12.761-12.243-32.036-11.822-44.834.974-8.184 8.185-12.557 19.674-12.311 32.351.026 1.347.117 2.688.25 4.019 1.023-10.271 5.194-19.47 12.061-26.338 12.799-12.796 32.073-13.217 44.834-.974z"/></g></svg>