<svg id="Capa_1" enable-background="new 0 0 512 512" viewBox="0 0 512 512"
  xmlns="http://www.w3.org/2000/svg">
  <g>
    <g fill="#da4a54">
      <path d="m91.935 294.172c-3.924-1.05-7.958 1.396-9.172 5.272-4.05 12.93-14.328 34.11-24.994 36.652-1.489.356-6.024 1.436-13.443-6.239-6.75-6.984-10.88-17.958-13.288-30.269 2.807.855 5.583 1.249 8.304 1.249 23.315-.004 42.579-28.212 43.539-29.642 2.309-3.438 1.394-8.099-2.046-10.407-3.438-2.308-8.098-1.394-10.407 2.046-.178.265-15.86 22.898-31.107 22.896-2.313 0-4.618-.521-6.855-1.721-.254-.136-3.233-1.982-4.29-13.19-.33-14.032.622-27.309 1.732-36.416 1.4-10.793 3.602-23.904 6.917-39.857 8.99-43.262 21.611-85.288 21.737-85.707 1.195-3.966-1.05-8.15-5.016-9.345-3.966-1.197-8.151 1.05-9.346 5.016-.128.425-12.917 43.002-22.044 86.899-4.068 19.565-6.311 39.206-7.54 54.134-1.788 21.706-.137 43.589 5.366 64.662 3.158 12.094 7.572 23.881 13.559 30.076 8.332 8.622 16.138 11.046 22.28 11.046 2.005 0 3.833-.258 5.444-.644 22.466-5.373 34.598-42.809 35.907-47.06 1.247-4.049-1.106-8.345-5.237-9.451z"/>
      <path d="m484.367 191.41c-9.127-43.897-21.916-86.475-22.044-86.899-1.195-3.966-5.382-6.214-9.346-5.016-3.966 1.195-6.211 5.379-5.016 9.345.126.419 12.747 42.445 21.737 85.707 3.325 16.001 5.531 29.145 6.93 39.956 1.104 9.103 2.048 22.329 1.719 36.308-1.056 11.215-4.037 13.062-4.291 13.198-2.22 1.189-4.507 1.707-6.807 1.707-15.214-.002-30.981-22.624-31.155-22.882-2.309-3.439-6.969-4.354-10.407-2.046-3.439 2.309-4.354 6.969-2.046 10.407.96 1.43 20.221 29.642 43.538 29.642 2.72 0 5.497-.394 8.305-1.249-2.408 12.311-6.538 23.286-13.288 30.27-7.417 7.675-11.952 6.597-13.443 6.239-10.732-2.559-21.072-23.987-25.069-36.894-1.222-3.956-5.419-6.176-9.374-4.955-3.958 1.22-6.179 5.417-4.96 9.376 1.31 4.251 13.441 41.687 35.907 47.06 1.611.386 3.438.644 5.444.644 6.143 0 13.948-2.425 22.28-11.046 8.962-9.272 14.397-31.073 17.375-47.678 2.312-12.889 3.028-26.009 2.148-39.075-1.037-15.426-3.294-38.828-8.137-62.119z"/>
    </g>
    <path d="m289.501 437.395h-72.479c-7.393 0-13.386-5.993-13.386-13.386v-35.267h99.25v35.267c0 7.393-5.993 13.386-13.385 13.386z" fill="#454045"/>
    <path d="m135.168 500.75h-63.258c-2.936 0-5.317-2.38-5.317-5.317v-17.965c0-2.936 2.38-5.317 5.317-5.317h63.258c2.936 0 5.317 2.38 5.317 5.317v17.965c-.001 2.937-2.381 5.317-5.317 5.317z" fill="#afaab4"/>
    <path d="m135.168 472.152h-19.367c2.936 0 5.317 2.38 5.317 5.317v17.965c0 2.936-2.38 5.317-5.317 5.317h19.367c2.936 0 5.317-2.38 5.317-5.317v-17.965c-.001-2.937-2.381-5.317-5.317-5.317z" fill="#a298a5"/>
    <path d="m203.636 382.937-71.602 35.54c-8.922 4.428-14.565 13.529-14.565 23.489v30.185h-27.861v-42.005c0-17.089 6.122-33.612 17.258-46.575l49.989-58.195z" fill="#544f57"/>
    <path d="m114.148 375.094c13.587 11.79 28.693 21.872 44.975 29.938l44.513-22.094-46.781-57.56z" fill="#454045"/>
    <path d="m371.355 500.75h63.258c2.936 0 5.317-2.38 5.317-5.317v-17.965c0-2.936-2.38-5.317-5.317-5.317h-63.258c-2.936 0-5.317 2.38-5.317 5.317v17.965c0 2.937 2.38 5.317 5.317 5.317z" fill="#afaab4"/>
    <path d="m434.613 472.152h-20.776c2.936 0 5.316 2.38 5.316 5.317v17.965c0 2.936-2.38 5.317-5.316 5.317h20.776c2.936 0 5.316-2.38 5.316-5.317v-17.965c.001-2.937-2.38-5.317-5.316-5.317z" fill="#a298a5"/>
    <path d="m302.886 382.937 71.602 35.54c8.922 4.428 14.565 13.529 14.565 23.489v30.185h27.861v-42.005c0-17.089-6.122-33.612-17.258-46.575l-49.989-58.195z" fill="#544f57"/>
    <path d="m349.668 325.377-46.781 57.56 44.513 22.094c16.282-8.066 31.388-18.147 44.975-29.938z" fill="#454045"/>
    <path d="m198.238 64.067-104.536 104.536-51.927-51.927c-11.186-11.186-11.186-29.322 0-40.508l64.028-64.028c11.186-11.186 29.322-11.186 40.508 0z" fill="#544f57"/>
    <path d="m57.442 132.343 36.26 36.26 104.536-104.536-39.582-39.582c-45.343 22.602-81.468 60.932-101.214 107.858z" fill="#454045"/>
    <path d="m87.975 29.966-28.374 28.374-5.084-5.084c-7.835-7.835-7.835-20.539 0-28.374 7.835-7.835 20.539-7.835 28.374 0z" fill="#da4a54"/>
    <path d="m418.547 29.966 28.374 28.374 5.084-5.084c7.835-7.835 7.835-20.539 0-28.374-7.835-7.835-20.539-7.835-28.374 0z" fill="#da4a54"/>
    <path d="m308.285 64.067 104.536 104.536 51.927-51.927c11.186-11.186 11.186-29.322 0-40.508l-64.028-64.029c-11.186-11.186-29.322-11.186-40.508 0z" fill="#544f57"/>
    <path d="m449.08 132.343c-19.746-46.926-55.871-85.256-101.214-107.858l-39.582 39.582 104.536 104.536z" fill="#454045"/>
    <circle cx="253.261" cy="214.642" fill="#afaab4" r="193.389"/>
    <path d="m253.261 21.253c-4.204 0-8.373.15-12.51.414 100.974 6.449 180.879 90.373 180.879 192.975s-79.905 186.526-180.879 192.975c4.137.264 8.306.414 12.51.414 106.806 0 193.389-86.583 193.389-193.389s-86.583-193.389-193.389-193.389z" fill="#a298a5"/>
    <path d="m362.704 209.998c12.481 0 21.72-11.558 19.039-23.748-12.98-59.011-65.57-103.17-128.481-103.17s-115.502 44.158-128.482 103.17c-2.681 12.19 6.558 23.748 19.039 23.748z" fill="#e4f6ff"/>
    <path d="m381.742 186.25c-12.98-59.011-65.57-103.17-128.481-103.17-4.22 0-8.392.205-12.51.594 57.276 5.404 103.862 47.524 115.971 102.577 2.681 12.19-6.558 23.748-19.039 23.748h25.02c12.482-.001 21.72-11.56 19.039-23.749z" fill="#d3effb"/>
    <path d="m292.403 209.998h-78.284v-16.424c0-15.539 12.597-28.135 28.135-28.135h22.013c15.539 0 28.135 12.597 28.135 28.135v16.424z" fill="#f4dd45"/>
    <path d="m264.268 165.439h-18.205c15.539 0 28.135 12.597 28.135 28.135v16.424h18.205v-16.424c0-15.539-12.596-28.135-28.135-28.135z" fill="#ecbe6b"/>
    <circle cx="253.261" cy="145.989" fill="#ffe4c1" r="25.02"/>
    <path d="m253.261 120.969c-2.991 0-5.858.527-8.516 1.489 9.625 3.484 16.504 12.703 16.504 23.531 0 10.827-6.879 20.047-16.504 23.531 2.659.962 5.526 1.489 8.516 1.489 13.818 0 25.02-11.202 25.02-25.02s-11.202-25.02-25.02-25.02z" fill="#f1d0a5"/>
    <path d="m331.08 262.695v19.25c0 6.26-5.07 11.33-11.33 11.33h-132.98c-6.26 0-11.33-5.07-11.33-11.33v-19.25c0-6.25 5.07-11.33 11.33-11.33h132.98c6.26 0 11.33 5.08 11.33 11.33z" fill="#da4a54"/>
    <g>
      <g>
        <path d="m205.72 251.365h15v41.91h-15z" fill="#c63d4f"/>
      </g>
      <g>
        <path d="m245.76 251.365h15v41.91h-15z" fill="#c63d4f"/>
      </g>
      <g>
        <path d="m285.8 251.365h15v41.91h-15z" fill="#c63d4f"/>
      </g>
    </g>
    <g>
      <g>
        <path d="m253.262 61.863c-4.143 0-7.5-3.358-7.5-7.5v-6.151c0-4.142 3.357-7.5 7.5-7.5s7.5 3.358 7.5 7.5v6.151c0 4.142-3.358 7.5-7.5 7.5z" fill="#454045"/>
      </g>
      <g>
        <path d="m366.596 108.808c-1.919 0-3.839-.732-5.303-2.196-2.93-2.929-2.93-7.678-.001-10.607l4.35-4.35c2.93-2.929 7.679-2.929 10.606 0 2.93 2.929 2.93 7.678.001 10.607l-4.35 4.35c-1.464 1.463-3.384 2.196-5.303 2.196z" fill="#454045"/>
      </g>
      <g>
        <path d="m419.691 222.142h-6.151c-4.143 0-7.5-3.358-7.5-7.5s3.357-7.5 7.5-7.5h6.151c4.143 0 7.5 3.358 7.5 7.5s-3.357 7.5-7.5 7.5z" fill="#454045"/>
      </g>
      <g>
        <path d="m370.945 339.826c-1.919 0-3.839-.732-5.304-2.196l-4.35-4.35c-2.929-2.93-2.929-7.678 0-10.607 2.93-2.928 7.678-2.928 10.607 0l4.35 4.35c2.929 2.93 2.929 7.678 0 10.607-1.464 1.464-3.384 2.196-5.303 2.196z" fill="#454045"/>
      </g>
      <g>
        <path d="m253.262 388.572c-4.143 0-7.5-3.357-7.5-7.5v-6.151c0-4.143 3.357-7.5 7.5-7.5s7.5 3.357 7.5 7.5v6.151c0 4.143-3.358 7.5-7.5 7.5z" fill="#454045"/>
      </g>
      <g>
        <path d="m135.577 339.826c-1.919 0-3.839-.732-5.304-2.196-2.929-2.93-2.929-7.678 0-10.607l4.35-4.35c2.93-2.928 7.678-2.928 10.607 0 2.929 2.93 2.929 7.678 0 10.607l-4.35 4.35c-1.464 1.464-3.384 2.196-5.303 2.196z" fill="#454045"/>
      </g>
      <g>
        <path d="m92.982 222.142h-6.151c-4.143 0-7.5-3.358-7.5-7.5s3.357-7.5 7.5-7.5h6.151c4.143 0 7.5 3.358 7.5 7.5s-3.357 7.5-7.5 7.5z" fill="#454045"/>
      </g>
      <g>
        <path d="m139.927 108.808c-1.92 0-3.839-.732-5.304-2.197l-4.35-4.35c-2.929-2.929-2.929-7.678.001-10.607 2.928-2.929 7.677-2.927 10.606 0l4.35 4.35c2.929 2.929 2.929 7.678-.001 10.607-1.463 1.464-3.383 2.197-5.302 2.197z" fill="#454045"/>
      </g>
    </g>
    <g>
      <path d="m504.5 508.25h-497c-4.143 0-7.5-3.357-7.5-7.5s3.357-7.5 7.5-7.5h497c4.143 0 7.5 3.357 7.5 7.5s-3.357 7.5-7.5 7.5z" fill="#7dbe3b"/>
    </g>
  </g>
</svg>