<svg viewBox="0 0 512 512" xmlns="http://www.w3.org/2000/svg"><g fill="#da4a54"><path d="M91.935 294.172c-3.924-1.05-7.958 1.396-9.172 5.272-4.05 12.93-14.328 34.11-24.994 36.652-1.489.356-6.024 1.436-13.443-6.239-6.75-6.984-10.88-17.958-13.288-30.269a28.374 28.374 0 008.304 1.249c23.315-.004 42.579-28.212 43.539-29.642a7.499 7.499 0 00-2.046-10.407 7.5 7.5 0 00-10.407 2.046c-.178.265-15.86 22.898-31.107 22.896-2.313 0-4.618-.521-6.855-1.721-.254-.136-3.233-1.982-4.29-13.19-.33-14.032.622-27.309 1.732-36.416 1.4-10.793 3.602-23.904 6.917-39.857 8.99-43.262 21.611-85.288 21.737-85.707a7.5 7.5 0 00-5.016-9.345 7.499 7.499 0 00-9.346 5.016c-.128.425-12.917 43.002-22.044 86.899-4.068 19.565-6.311 39.206-7.54 54.134-1.788 21.706-.137 43.589 5.366 64.662 3.158 12.094 7.572 23.881 13.559 30.076 8.332 8.622 16.138 11.046 22.28 11.046 2.005 0 3.833-.258 5.444-.644 22.466-5.373 34.598-42.809 35.907-47.06a7.497 7.497 0 00-5.237-9.451zM484.367 191.41c-9.127-43.897-21.916-86.475-22.044-86.899a7.499 7.499 0 00-9.346-5.016 7.5 7.5 0 00-5.016 9.345c.126.419 12.747 42.445 21.737 85.707 3.325 16.001 5.531 29.145 6.93 39.956 1.104 9.103 2.048 22.329 1.719 36.308-1.056 11.215-4.037 13.062-4.291 13.198a14.211 14.211 0 01-6.807 1.707c-15.214-.002-30.981-22.624-31.155-22.882a7.5 7.5 0 00-12.453 8.361c.96 1.43 20.221 29.642 43.538 29.642 2.72 0 5.497-.394 8.305-1.249-2.408 12.311-6.538 23.286-13.288 30.27-7.417 7.675-11.952 6.597-13.443 6.239-10.732-2.559-21.072-23.987-25.069-36.894-1.222-3.956-5.419-6.176-9.374-4.955a7.501 7.501 0 00-4.96 9.376c1.31 4.251 13.441 41.687 35.907 47.06a23.34 23.34 0 005.444.644c6.143 0 13.948-2.425 22.28-11.046 8.962-9.272 14.397-31.073 17.375-47.678a160.282 160.282 0 002.148-39.075c-1.037-15.426-3.294-38.828-8.137-62.119z"/></g><path d="M289.501 437.395h-72.479c-7.393 0-13.386-5.993-13.386-13.386v-35.267h99.25v35.267c0 7.393-5.993 13.386-13.385 13.386z" fill="#454045"/><path d="M135.168 500.75H71.91a5.317 5.317 0 01-5.317-5.317v-17.965a5.317 5.317 0 015.317-5.317h63.258a5.317 5.317 0 015.317 5.317v17.965a5.318 5.318 0 01-5.317 5.317z" fill="#afaab4"/><path d="M135.168 472.152h-19.367a5.317 5.317 0 015.317 5.317v17.965a5.317 5.317 0 01-5.317 5.317h19.367a5.317 5.317 0 005.317-5.317v-17.965a5.318 5.318 0 00-5.317-5.317z" fill="#a298a5"/><path d="M203.636 382.937l-71.602 35.54a26.223 26.223 0 00-14.565 23.489v30.185H89.608v-42.005a71.473 71.473 0 0117.258-46.575l49.989-58.195z" fill="#544f57"/><path d="M114.148 375.094a212.69 212.69 0 0044.975 29.938l44.513-22.094-46.781-57.56z" fill="#454045"/><path d="M371.355 500.75h63.258a5.317 5.317 0 005.317-5.317v-17.965a5.317 5.317 0 00-5.317-5.317h-63.258a5.317 5.317 0 00-5.317 5.317v17.965a5.316 5.316 0 005.317 5.317z" fill="#afaab4"/><path d="M434.613 472.152h-20.776a5.316 5.316 0 015.316 5.317v17.965a5.317 5.317 0 01-5.316 5.317h20.776a5.316 5.316 0 005.316-5.317v-17.965a5.316 5.316 0 00-5.316-5.317z" fill="#a298a5"/><path d="M302.886 382.937l71.602 35.54a26.223 26.223 0 0114.565 23.489v30.185h27.861v-42.005a71.473 71.473 0 00-17.258-46.575l-49.989-58.195z" fill="#544f57"/><path d="M349.668 325.377l-46.781 57.56 44.513 22.094a212.652 212.652 0 0044.975-29.938z" fill="#454045"/><path d="M198.238 64.067L93.702 168.603l-51.927-51.927c-11.186-11.186-11.186-29.322 0-40.508l64.028-64.028c11.186-11.186 29.322-11.186 40.508 0z" fill="#544f57"/><path d="M57.442 132.343l36.26 36.26L198.238 64.067l-39.582-39.582C113.313 47.087 77.188 85.417 57.442 132.343z" fill="#454045"/><path d="M87.975 29.966L59.601 58.34l-5.084-5.084c-7.835-7.835-7.835-20.539 0-28.374 7.835-7.835 20.539-7.835 28.374 0zM418.547 29.966l28.374 28.374 5.084-5.084c7.835-7.835 7.835-20.539 0-28.374-7.835-7.835-20.539-7.835-28.374 0z" fill="#da4a54"/><path d="M308.285 64.067l104.536 104.536 51.927-51.927c11.186-11.186 11.186-29.322 0-40.508L400.72 12.139c-11.186-11.186-29.322-11.186-40.508 0z" fill="#544f57"/><path d="M449.08 132.343c-19.746-46.926-55.871-85.256-101.214-107.858l-39.582 39.582L412.82 168.603z" fill="#454045"/><circle cx="253.261" cy="214.642" fill="#afaab4" r="193.389"/><path d="M253.261 21.253c-4.204 0-8.373.15-12.51.414C341.725 28.116 421.63 112.04 421.63 214.642s-79.905 186.526-180.879 192.975c4.137.264 8.306.414 12.51.414 106.806 0 193.389-86.583 193.389-193.389S360.067 21.253 253.261 21.253z" fill="#a298a5"/><path d="M362.704 209.998c12.481 0 21.72-11.558 19.039-23.748-12.98-59.011-65.57-103.17-128.481-103.17S137.76 127.238 124.78 186.25c-2.681 12.19 6.558 23.748 19.039 23.748z" fill="#e4f6ff"/><path d="M381.742 186.25c-12.98-59.011-65.57-103.17-128.481-103.17-4.22 0-8.392.205-12.51.594 57.276 5.404 103.862 47.524 115.971 102.577 2.681 12.19-6.558 23.748-19.039 23.748h25.02c12.482-.001 21.72-11.56 19.039-23.749z" fill="#d3effb"/><path d="M292.403 209.998h-78.284v-16.424c0-15.539 12.597-28.135 28.135-28.135h22.013c15.539 0 28.135 12.597 28.135 28.135v16.424z" fill="#f4dd45"/><path d="M264.268 165.439h-18.205c15.539 0 28.135 12.597 28.135 28.135v16.424h18.205v-16.424c0-15.539-12.596-28.135-28.135-28.135z" fill="#ecbe6b"/><circle cx="253.261" cy="145.989" fill="#ffe4c1" r="25.02"/><path d="M253.261 120.969c-2.991 0-5.858.527-8.516 1.489 9.625 3.484 16.504 12.703 16.504 23.531 0 10.827-6.879 20.047-16.504 23.531a24.982 24.982 0 008.516 1.489c13.818 0 25.02-11.202 25.02-25.02s-11.202-25.02-25.02-25.02z" fill="#f1d0a5"/><path d="M331.08 262.695v19.25c0 6.26-5.07 11.33-11.33 11.33H186.77c-6.26 0-11.33-5.07-11.33-11.33v-19.25c0-6.25 5.07-11.33 11.33-11.33h132.98c6.26 0 11.33 5.08 11.33 11.33z" fill="#da4a54"/><path d="M205.72 251.365h15v41.91h-15zM245.76 251.365h15v41.91h-15zM285.8 251.365h15v41.91h-15z" fill="#c63d4f"/><g><path d="M253.262 61.863a7.5 7.5 0 01-7.5-7.5v-6.151c0-4.142 3.357-7.5 7.5-7.5s7.5 3.358 7.5 7.5v6.151a7.5 7.5 0 01-7.5 7.5zM366.596 108.808a7.5 7.5 0 01-5.304-12.803l4.35-4.35a7.5 7.5 0 0110.606 0 7.5 7.5 0 01.001 10.607l-4.35 4.35a7.481 7.481 0 01-5.303 2.196zM419.691 222.142h-6.151c-4.143 0-7.5-3.358-7.5-7.5s3.357-7.5 7.5-7.5h6.151c4.143 0 7.5 3.358 7.5 7.5s-3.357 7.5-7.5 7.5zM370.945 339.826a7.481 7.481 0 01-5.304-2.196l-4.35-4.35a7.5 7.5 0 0110.607-10.607l4.35 4.35a7.5 7.5 0 01-5.303 12.803zM253.262 388.572a7.499 7.499 0 01-7.5-7.5v-6.151c0-4.143 3.357-7.5 7.5-7.5s7.5 3.357 7.5 7.5v6.151a7.5 7.5 0 01-7.5 7.5zM135.577 339.826a7.5 7.5 0 01-5.304-12.803l4.35-4.35a7.5 7.5 0 0110.607 10.607l-4.35 4.35a7.477 7.477 0 01-5.303 2.196zM92.982 222.142h-6.151c-4.143 0-7.5-3.358-7.5-7.5s3.357-7.5 7.5-7.5h6.151c4.143 0 7.5 3.358 7.5 7.5s-3.357 7.5-7.5 7.5zM139.927 108.808a7.476 7.476 0 01-5.304-2.197l-4.35-4.35a7.501 7.501 0 0110.607-10.607l4.35 4.35a7.5 7.5 0 01-.001 10.607 7.474 7.474 0 01-5.302 2.197z" fill="#454045"/></g><g><path d="M504.5 508.25H7.5c-4.143 0-7.5-3.357-7.5-7.5s3.357-7.5 7.5-7.5h497c4.143 0 7.5 3.357 7.5 7.5s-3.357 7.5-7.5 7.5z" fill="#7dbe3b"/></g></svg>