<svg viewBox="0 0 512 512" xmlns="http://www.w3.org/2000/svg"><path d="M31 137h450v60H31z" fill="#384949"/><path d="M256 137h225v60H256z" fill="#293939"/><path d="M31 317h450v60H31z" fill="#384949"/><path d="M256 317h225v60H256z" fill="#293939"/><path d="M0 0v152h512V0z" fill="#4a696f"/><path d="M256 0h256v152H256z" fill="#384949"/><path d="M61 62h30v30H61zm60 0h30v30h-30zm60 0h30v30h-30z" fill="#9bfcff"/><path d="M301 62h150v30H301z" fill="#293939"/><path d="M0 182v150h512V182z" fill="#4a696f"/><path d="M256 182h256v150H256z" fill="#384949"/><path d="M61 242h30v30H61zm60 0h30v30h-30zm60 0h30v30h-30z" fill="#9bfcff"/><path d="M301 242h150v30H301z" fill="#293939"/><path d="M0 362v150h512V362z" fill="#4a696f"/><path d="M256 362h256v150H256z" fill="#384949"/><path d="M61 422h30v30H61zm60 0h30v30h-30zm60 0h30v30h-30z" fill="#9bfcff"/><path d="M301 422h150v30H301z" fill="#293939"/></svg>