<svg viewBox="0 0 512 512" xmlns="http://www.w3.org/2000/svg"><path d="M488 192v48c0 8.837-7.163 16-16 16H232c-8.837 0-16-7.163-16-16v-48z" fill="#f98800"/><path d="M472 208H232c-8.837 0-16-7.163-16-16v-48c0-8.837 7.163-16 16-16h240c8.837 0 16 7.163 16 16v48c0 8.837-7.163 16-16 16z" fill="#f8f117"/><path d="M456 128v24c0 13.255-10.745 24-24 24s-24-10.745-24-24v-24zM360 128v24c0 13.255-10.745 24-24 24s-24-10.745-24-24v-24zM296 128v24c0 13.255-10.745 24-24 24s-24-10.745-24-24v-24z" fill="#fcc200"/><g fill="#f8f117"><circle cx="432" cy="128" r="24"/><circle cx="336" cy="128" r="24"/><circle cx="272" cy="128" r="24"/></g><g><path d="M296 112v48c0 8.837-7.163 16-16 16H40c-8.837 0-16-7.163-16-16v-48z" fill="#e22526"/><path d="M280 128H40c-8.837 0-16-7.163-16-16V64c0-8.837 7.163-16 16-16h240c8.837 0 16 7.163 16 16v48c0 8.837-7.163 16-16 16z" fill="#f46b69"/><g fill="#e22526"><path d="M264 48v24c0 13.255-10.745 24-24 24s-24-10.745-24-24V48zM184 48v24c0 13.255-10.745 24-24 24s-24-10.745-24-24V48zM104 48v24c0 13.255-10.745 24-24 24S56 85.255 56 72V48z"/></g><circle cx="240" cy="48" fill="#f46b69" r="24"/><circle cx="160" cy="48" fill="#f46b69" r="24"/><circle cx="80" cy="48" fill="#f46b69" r="24"/></g><g><path d="M296 344v48c0 8.837-7.163 16-16 16H40c-8.837 0-16-7.163-16-16v-48z" fill="#006837"/><path d="M280 360H40c-8.837 0-16-7.163-16-16v-48c0-8.837 7.163-16 16-16h240c8.837 0 16 7.163 16 16v48c0 8.837-7.163 16-16 16z" fill="#009245"/><path d="M200 280v24c0 13.255-10.745 24-24 24s-24-10.745-24-24v-24z" fill="#006837"/><circle cx="176" cy="280" fill="#009245" r="24"/></g><g><path d="M488 112v48c0 8.837-7.163 16-16 16h-80c-8.837 0-16-7.163-16-16v-48z" fill="#00a8e7"/><path d="M472 128h-80c-8.837 0-16-7.163-16-16V64c0-8.837 7.163-16 16-16h80c8.837 0 16 7.163 16 16v48c0 8.837-7.163 16-16 16z" fill="#aedef8"/><path d="M456 48v24c0 13.255-10.745 24-24 24s-24-10.745-24-24V48z" fill="#00a8e7"/><circle cx="432" cy="48" fill="#aedef8" r="24"/></g><g><path d="M24 424v48c0 8.837 7.163 16 16 16h80c8.837 0 16-7.163 16-16v-48z" fill="#acdd12"/><path d="M120 128H40c-8.837 0-16 7.163-16 16v280c0 8.837 7.163 16 16 16h80c8.837 0 16-7.163 16-16V144c0-8.837-7.163-16-16-16z" fill="#ddf216"/><g fill="#acdd12"><path d="M104 256v24c0 13.255-10.745 24-24 24s-24-10.745-24-24v-24zM104 160v24c0 13.255-10.745 24-24 24s-24-10.745-24-24v-24zM104 360v24c0 13.255-10.745 24-24 24s-24-10.745-24-24v-24z"/></g><circle cx="80" cy="256" fill="#f4faaf" r="24"/><circle cx="80" cy="160" fill="#f4faaf" r="24"/><circle cx="80" cy="360" fill="#f4faaf" r="24"/></g><g><path d="M216 424v48c0 8.837 7.163 16 16 16h240c8.837 0 16-7.163 16-16v-48z" fill="#931d5b"/><path d="M472 440H232c-8.837 0-16-7.163-16-16V272c0-8.837 7.163-16 16-16h240c8.837 0 16 7.163 16 16v152c0 8.837-7.163 16-16 16z" fill="#b3226f"/><g fill="#931d5b"><path d="M456 360v24c0 13.255-10.745 24-24 24s-24-10.745-24-24v-24zM376 360v24c0 13.255-10.745 24-24 24s-24-10.745-24-24v-24zM296 360v24c0 13.255-10.745 24-24 24s-24-10.745-24-24v-24zM456 256v24c0 13.255-10.745 24-24 24s-24-10.745-24-24v-24zM376 256v24c0 13.255-10.745 24-24 24s-24-10.745-24-24v-24zM296 256v24c0 13.255-10.745 24-24 24s-24-10.745-24-24v-24z"/></g><circle cx="432" cy="360" fill="#f98dd4" r="24"/><circle cx="352" cy="360" fill="#f98dd4" r="24"/><circle cx="272" cy="360" fill="#f98dd4" r="24"/><circle cx="432" cy="256" fill="#f98dd4" r="24"/><circle cx="352" cy="256" fill="#f98dd4" r="24"/><circle cx="272" cy="256" fill="#f98dd4" r="24"/></g></svg>