<svg id="Flat" enable-background="new 0 0 512 512" height="512" viewBox="0 0 512 512" width="512" xmlns="http://www.w3.org/2000/svg"><g><g><path d="m488 192v48c0 8.8365631-7.1634521 16-16 16h-240c-8.8365631 0-16-7.1634369-16-16v-48z" fill="#f98800"/><path d="m472 208h-240c-8.8365631 0-16-7.1634369-16-16v-48c0-8.8365631 7.1634369-16 16-16h240c8.8365479 0 16 7.1634369 16 16v48c0 8.8365631-7.1634521 16-16 16z" fill="#f8f117"/><path d="m456 128v24c0 13.254837-10.7451782 24-24 24s-24-10.745163-24-24v-24z" fill="#fcc200"/><path d="m360 128v24c0 13.254837-10.7451782 24-24 24s-24-10.745163-24-24v-24z" fill="#fcc200"/><path d="m296 128v24c0 13.254837-10.7451782 24-24 24s-24-10.745163-24-24v-24z" fill="#fcc200"/><g fill="#f8f117"><circle cx="432" cy="128" r="24"/><circle cx="336" cy="128" r="24"/><circle cx="272" cy="128" r="24"/></g></g><g><path d="m296 112v48c0 8.8365631-7.1634521 16-16 16h-240c-8.8365555 0-16-7.1634369-16-16v-48z" fill="#e22526"/><path d="m280 128h-240c-8.8365555 0-16-7.1634445-16-16v-48c0-8.8365555 7.1634445-16 16-16h240c8.8365479 0 16 7.1634445 16 16v48c0 8.8365555-7.1634521 16-16 16z" fill="#f46b69"/><g fill="#e22526"><path d="m264 48v24c0 13.254837-10.745163 24-24 24s-24-10.745163-24-24v-24z"/><path d="m184 48v24c0 13.254837-10.745163 24-24 24s-24-10.745163-24-24v-24z"/><path d="m104 48v24c0 13.254837-10.745163 24-24 24s-24-10.745163-24-24v-24z"/></g><circle cx="240" cy="48" fill="#f46b69" r="24"/><circle cx="160" cy="48" fill="#f46b69" r="24"/><circle cx="80" cy="48" fill="#f46b69" r="24"/></g><g><path d="m296 344v48c0 8.8365479-7.1634521 16-16 16h-240c-8.8365555 0-16-7.1634521-16-16v-48z" fill="#006837"/><path d="m280 360h-240c-8.8365555 0-16-7.1634521-16-16v-48c0-8.8365479 7.1634445-16 16-16h240c8.8365479 0 16 7.1634521 16 16v48c0 8.8365479-7.1634521 16-16 16z" fill="#009245"/><path d="m200 280v24c0 13.2548218-10.745163 24-24 24s-24-10.7451782-24-24v-24z" fill="#006837"/><circle cx="176" cy="280" fill="#009245" r="24"/></g><g><path d="m488 112v48c0 8.8365631-7.1634521 16-16 16h-80c-8.8365479 0-16-7.1634369-16-16v-48z" fill="#00a8e7"/><path d="m472 128h-80c-8.8365479 0-16-7.1634445-16-16v-48c0-8.8365555 7.1634521-16 16-16h80c8.8365479 0 16 7.1634445 16 16v48c0 8.8365555-7.1634521 16-16 16z" fill="#aedef8"/><path d="m456 48v24c0 13.254837-10.7451782 24-24 24s-24-10.745163-24-24v-24z" fill="#00a8e7"/><circle cx="432" cy="48" fill="#aedef8" r="24"/></g><g><path d="m24 424v48c0 8.8365479 7.1634445 16 16 16h80c8.8365479 0 16-7.1634521 16-16v-48z" fill="#acdd12"/><path d="m120 128h-80c-8.8365555 0-16 7.1634369-16 16v280c0 8.8365479 7.1634445 16 16 16h80c8.8365631 0 16-7.1634521 16-16v-280c0-8.8365631-7.1634369-16-16-16z" fill="#ddf216"/><g fill="#acdd12"><path d="m104 256v24c0 13.2548218-10.745163 24-24 24s-24-10.7451782-24-24v-24z"/><path d="m104 160v24c0 13.254837-10.745163 24-24 24s-24-10.745163-24-24v-24z"/><path d="m104 360v24c0 13.2548218-10.745163 24-24 24s-24-10.7451782-24-24v-24z"/></g><circle cx="80" cy="256" fill="#f4faaf" r="24"/><circle cx="80" cy="160" fill="#f4faaf" r="24"/><circle cx="80" cy="360" fill="#f4faaf" r="24"/></g><g><path d="m216 424v48c0 8.8365479 7.1634369 16 16 16h240c8.8365479 0 16-7.1634521 16-16v-48z" fill="#931d5b"/><path d="m472 440h-240c-8.8365631 0-16-7.1634521-16-16v-152c0-8.8365479 7.1634369-16 16-16h240c8.8365479 0 16 7.1634521 16 16v152c0 8.8365479-7.1634521 16-16 16z" fill="#b3226f"/><g fill="#931d5b"><path d="m456 360v24c0 13.2548218-10.7451782 24-24 24s-24-10.7451782-24-24v-24z"/><path d="m376 360v24c0 13.2548218-10.7451782 24-24 24s-24-10.7451782-24-24v-24z"/><path d="m296 360v24c0 13.2548218-10.7451782 24-24 24s-24-10.7451782-24-24v-24z"/><path d="m456 256v24c0 13.2548218-10.7451782 24-24 24s-24-10.7451782-24-24v-24z"/><path d="m376 256v24c0 13.2548218-10.7451782 24-24 24s-24-10.7451782-24-24v-24z"/><path d="m296 256v24c0 13.2548218-10.7451782 24-24 24s-24-10.7451782-24-24v-24z"/></g><circle cx="432" cy="360" fill="#f98dd4" r="24"/><circle cx="352" cy="360" fill="#f98dd4" r="24"/><circle cx="272" cy="360" fill="#f98dd4" r="24"/><circle cx="432" cy="256" fill="#f98dd4" r="24"/><circle cx="352" cy="256" fill="#f98dd4" r="24"/><circle cx="272" cy="256" fill="#f98dd4" r="24"/></g></g></svg>