<svg xmlns="http://www.w3.org/2000/svg" viewBox="0 0 512 512"><path fill="#7c4221" d="M365 389l37.596 123H512V118.964z"/><path fill="#af7234" d="M402.596 415.202L512 118.964 279 260.331z"/><path fill="#7c4221" d="M305.928 260.331L512 118.964l-55.227-82.859L371.79 0 217.667 110.333 256 260.331z"/><path fill="#af7234" d="M256 0l-20.016 47.667L256 113.299 371.79 0z"/><path fill="#56352a" d="M256 260.331l-20.016 121.336L256 512h146.596v-96.798l-96.668-154.871z"/><path fill="#e4a02c" d="M184.826 0l8.58 100.333L256 113.299V0z"/><path fill="#af7234" d="M256 260.331V113.299L184.826 0 33.981 157.961 130.812 409z"/><path fill="#7c4221" d="M256 260.331l-125.188 92.338-20.016 75.664L130.812 512H256z"/><path fill="#e4a02c" d="M33.981 157.961L0 256v256h130.812V352.669z"/></svg>