<?xml version="1.0" encoding="iso-8859-1"?>
<!-- Generator: Adobe Illustrator 19.0.0, SVG Export Plug-In . SVG Version: 6.00 Build 0)  -->
<svg version="1.1" id="Capa_1" xmlns="http://www.w3.org/2000/svg" xmlns:xlink="http://www.w3.org/1999/xlink" x="0px" y="0px"
	 viewBox="0 0 512 512" style="enable-background:new 0 0 512 512;" xml:space="preserve">
<polygon style="fill:#7C4221;" points="365,389 402.596,512 512,512 512,118.964 "/>
<polygon style="fill:#AF7234;" points="402.596,415.202 512,118.964 279,260.331 "/>
<polygon style="fill:#7C4221;" points="305.928,260.331 512,118.964 456.773,36.105 371.79,0 217.667,110.333 256,260.331 "/>
<polygon style="fill:#AF7234;" points="256,0 235.984,47.667 256,113.299 371.79,0 "/>
<polygon style="fill:#56352A;" points="256,260.331 235.984,381.667 256,512 402.596,512 402.596,415.202 305.928,260.331 "/>
<polygon style="fill:#E4A02C;" points="184.826,0 193.406,100.333 256,113.299 256,0 "/>
<polygon style="fill:#AF7234;" points="256,260.331 256,113.299 184.826,0 33.981,157.961 130.812,409 "/>
<polygon style="fill:#7C4221;" points="256,260.331 130.812,352.669 110.796,428.333 130.812,512 256,512 "/>
<polygon style="fill:#E4A02C;" points="33.981,157.961 0,256 0,512 130.812,512 130.812,352.669 "/>
<g>
</g>
<g>
</g>
<g>
</g>
<g>
</g>
<g>
</g>
<g>
</g>
<g>
</g>
<g>
</g>
<g>
</g>
<g>
</g>
<g>
</g>
<g>
</g>
<g>
</g>
<g>
</g>
<g>
</g>
</svg>
