<svg xmlns="http://www.w3.org/2000/svg" viewBox="0 0 300 77"><g fill="none" fill-rule="evenodd"><path fill="#518EBD" d="M164.495 14.3c-2.968-1.163-2.062-5.397 1.133-5.72 1.204-.118 2.346.424 2.78 1.552.761 1.984-1.266 4.973-3.913 4.168m12.605 3.653c-3.687 6.082-16.903 6.986-20.844-.566-4.28-9.588 4.955-16.776 13.172-13.427 4.666 1.902 4.805 9.564 1.983 7.283-.659-.533-.645-2.14-1.373-3.043-.938-1.163-1.938-2.188-4.465-2.275-2.656-.095-5.245 1.72-6.388 3.79-.65 1.183-.734 3.225-.509 4.545.226 1.325.832 2.526 1.643 3.31 1.501 1.45 3.821 2.303 5.821 2.099 4.572-.46 4.4-3.23 4.768-3.692.087-.107.404.108.822.36 4.866 2.96 7.008-9.306 1.191-13.992C169.734-.22 165.111-.486 161.21.61c-8.056 2.266-11.552 8.536-9.114 16.993 2.016 4.142 4.853 6.41 8.013 7.55a9.343 9.343 0 00-.969.143c-8.837-.205-15.245 6.456-17.852 9.604-.653.68-.443 1.972.482 2.898.926.925 2.215 1.135 2.89.475.784-.765 1.527-1.605 2.292-2.408.112-.122.237-.253.35-.373.564-.63 1.167-1.29 1.81-1.884.135-.123.264-.24.406-.355 1.487-1.14 3.665-1.766 5.226-.83 3.427 1.869 1.556 6.537-.259 9.335-.072.136-10.223 17.686-12.389 21.428a2.41 2.41 0 00-.382.628c-.417 1.29.636 2.265 2.395 2.269 1.76.002 3.553-.97 4.075-2.18.176-.19 7.177-13.335 7.173-13.327.243-.281 2.341-4.56 6.521-2.704 3.244 1.766 1.245 5.266.463 7.693-.134.79.681 1.28 1.903 1.294 1.314.014 2.587-.53 2.843-1.215 1.91-4.293 4.75-12.425-4.61-13.99.04-.072.115-.4.151-.484.54-1.736 1.272-4.74 3.455-3.442 1.85.948 3.874.695 5.52.01.138-.047.28-.107.417-.154 1.3-.513 2.447-1.154 3.12-1.61.674-.457 1.606-1.004 1.93-1.33 1.026-1.028 1.447-2.551.944-3.401-.366-.618-1.12-.708-1.899-.32-.333.034-6.707 5.025-10.3 1.43-1.44-1.371-.338-3.76-1.438-5.365a1.958 1.958 0 00-.587-.99c.384.045.768.08 1.154.104 5.213.307 10.621-1.321 14.376-5.462.072-.122 1.964-2.905-.317-3.581-1.485-.196-1.859.822-1.902.893z"/><path fill="#518EBF" d="M176.505 45.91c-1.27 0-2.271 1.047-2.271 2.33 0 1.309 1 2.33 2.204 2.33 1.27 0 2.249-1.068 2.249-2.33 0-1.283-.978-2.33-2.182-2.33m-1.982 19.03h3.877V52.48l-3.877.381v12.08zm13.298-12.58c-1.848 0-2.984.881-3.319 1.166-.046-.57-.134-.903-.223-1.142l-3.563.643c.355 1.806.355 2.925.355 4.113v7.8h3.876v-8.466c.334-.332.801-.667 1.27-.714a.736.736 0 01.31 0c.401.047.648.333.648 1.332v7.848h3.875v-9.202c0-1.285-.31-3.378-3.229-3.378m9.779-1.306c0-.548.424-.881.892-.881.422 0 .846.119 1.113.285l.914-2.592c-.848-.498-1.672-.641-2.852-.641-1.448 0-4.01.428-4.01 3.972 0 .476 0 1.044.067 1.473h-.98v2.71h.98v9.56h3.876v-9.56h1.915l.514-2.71h-2.43v-1.616zm8.932 10.511c-.244.71-.646.782-.936.782-.51 0-.868-.188-1.046-.88-.088-.355-.179-.925-.179-2.304 0-2.213.068-3.094.512-3.616.247-.26.446-.309.69-.309.313 0 .58.07.825.403.312.428.402 1.143.402 2.951 0 .808-.045 2.306-.268 2.973m-.802-9.205c-1.938 0-3.186.834-3.988 1.761-.778.904-1.56 2.496-1.56 4.97 0 2.068.58 3.401 1.383 4.4.712.88 1.871 1.762 3.943 1.762 1.358 0 2.584-.433 3.653-1.478 1.358-1.332 1.827-3.14 1.827-5.278 0-2.308-.645-3.735-1.472-4.638-.8-.88-2.07-1.499-3.786-1.499m13.633 4.924l-1.426-.334c-.624-.143-.868-.333-.957-.405a.757.757 0 01-.247-.57c0-.214.111-.38.27-.5.221-.167.6-.189.756-.189.846 0 1.96.381 2.807.903l1.203-2.568-.424-.214c-1.49-.76-2.65-1.047-4.12-1.047-1.225 0-2.428.263-3.43 1.143-.936.832-1.293 1.878-1.293 3.042 0 2.641 2.005 3.19 2.696 3.353l1.492.332c.712.17 1.091.312 1.316.525a.744.744 0 01.2.546c0 .264-.112.5-.335.69-.245.216-.58.284-.869.284-1.025 0-2.85-.925-3.765-1.566l-1.358 2.995.668.355c.534.287 1.18.548 1.65.714.688.243 1.78.48 2.938.48 1.07 0 2.43-.237 3.565-1.168.98-.808 1.515-1.81 1.515-3.376 0-.952-.224-1.714-.825-2.356-.624-.666-1.425-.926-2.027-1.069m9.846 5.136c-.178 0-.602-.025-.823-.31-.225-.261-.291-.832-.291-1.781V55.38h1.603l.514-2.711h-2.117v-.424c0-1.18-.022-1.984.113-3.215l-3.855.615c-.068.496-.178 1.347-.134 3.024h-.936v2.71h.936v6.92c0 .69.09 1.643.891 2.308.423.36 1.203.67 2.719.67.801 0 1.759-.12 2.917-.717l-.468-2.38a2.236 2.236 0 01-1.069.239m12.742-1.236v-8.847l-3.876.665v8.538c-.135.142-.31.309-.49.405a1.289 1.289 0 01-.735.215c-.089 0-.603 0-.825-.262-.157-.192-.178-.452-.178-.666v-8.895l-3.875.665v7.634c0 .83.022 1.737.221 2.475.224.785.913 2.142 3.61 2.142.845 0 1.891-.213 2.873-1.121l.065.215c.156.524.314.765.425.906l3.364-1.287c-.066-.142-.31-.664-.446-1.284-.089-.406-.133-1.048-.133-1.498m8.354.547a1.065 1.065 0 01-.847.403c-.335 0-.801-.143-1.025-.689-.268-.62-.268-2.023-.268-2.33 0-1.975.134-2.688.424-3.117.224-.33.49-.45.89-.45.157 0 .58.046.826.474v5.71zm3.876-13.65l-3.876-.548v3.305c0 .691-.022.621.133 1.951-.29-.19-.757-.429-1.582-.429-1.07 0-2.495.405-3.497 1.712-1.226 1.595-1.403 3.687-1.403 4.971 0 2.45.646 3.971 1.493 4.9.602.664 1.58 1.31 3.118 1.31 1.448 0 2.137-.599 2.495-1.049 0 .142.044.308.178.736h3.364c-.335-.928-.423-1.83-.423-4.876V48.08zm4.499 12.436c-1.247 0-2.271 1.096-2.271 2.403 0 1.357 1.024 2.452 2.27 2.452 1.249 0 2.296-1.095 2.296-2.452 0-1.307-1.047-2.403-2.295-2.403m9.221 1.665c-.423 0-.713-.094-.958-.522-.267-.453-.4-1.166-.4-2.878 0-2.021.244-2.712.511-3.021.268-.308.603-.355.892-.355.334 0 .868.094 1.626.903l1.782-2.496c-1.358-1.31-2.763-1.452-3.54-1.452-1.54 0-3.03.522-4.035 1.712-.712.833-1.468 2.33-1.468 4.85 0 1.856.38 3.52 1.447 4.757.647.76 1.715 1.573 3.765 1.573 1.136 0 2.74-.26 4.121-1.737l-1.626-2.428c-.6.76-1.449 1.094-2.117 1.094m10.537-.617c-.244.71-.646.782-.936.782-.511 0-.868-.188-1.045-.88-.092-.355-.18-.925-.18-2.304 0-2.213.068-3.094.513-3.616.244-.26.445-.309.69-.309.311 0 .578.07.823.403.312.428.4 1.143.4 2.951 0 .808-.043 2.306-.266 2.973m-.8-9.205c-1.94 0-3.187.834-3.989 1.761-.779.904-1.56 2.496-1.56 4.97 0 2.068.58 3.401 1.382 4.4.712.88 1.871 1.762 3.943 1.762 1.36 0 2.585-.433 3.651-1.478 1.36-1.332 1.83-3.14 1.83-5.278 0-2.308-.647-3.735-1.472-4.638-.8-.88-2.07-1.499-3.786-1.499m21.406.69c-.334-.308-.979-.69-2.182-.69-.915 0-2.117.216-3.275 1.333-.846-1.117-1.826-1.332-2.584-1.332-.379 0-1.627.072-2.785 1.212a4.576 4.576 0 00-.156-.925l-.066-.263-3.563.643c.355 1.805.355 2.924.355 4.113v7.8h3.721v-8.918c.557-.428 1.024-.475 1.357-.475.202 0 .379.023.515.213.042.072.153.285.153.977v8.203h3.722v-8.918c.558-.428 1.023-.475 1.359-.475.2 0 .378.023.512.213.043.072.156.285.156.977v8.203H300v-8.943c0-.76-.022-2.115-.958-2.948"/><path fill="#ED6600" d="M11.852 59.249c-.58.522-1.248.569-1.782.569-1.07 0-1.382-.284-1.604-.664V48.166c.535-.903 1.559-1.235 2.406-1.235.49 0 1.247.094 1.782 1.139.49.952.535 3.14.535 4.758 0 1.806.044 5.185-1.337 6.421m.936-18.692c-1.783 0-4.322.665-5.168 2.234-.09-.522-.178-1.283-.491-2.186l-7.13 1.284c.715 3.614.715 5.851.715 8.227v26.453l7.752-2.237v-5.04c0-1.617 0-2.615-.356-3.766 1.693.721 2.584.817 3.43.817 4.099 0 6.104-1.863 7.218-3.338 2.049-2.709 2.718-6.277 2.718-10.795 0-2.617-.356-5.804-1.872-8.134-.891-1.379-2.896-3.519-6.816-3.519m19.87 18.216c-.178-.714-.356-1.856-.356-4.615 0-4.422.133-6.182 1.025-7.228.489-.524.89-.619 1.38-.619.624 0 1.159.144 1.65.81.623.855.8 2.281.8 5.895 0 1.617-.088 4.615-.533 5.945-.491 1.43-1.293 1.571-1.872 1.571-1.024 0-1.737-.38-2.094-1.759m9.223 4.613c2.717-2.663 3.652-6.278 3.652-10.558 0-4.614-1.292-7.468-2.94-9.276-1.603-1.758-4.143-2.996-7.574-2.996-3.876 0-6.371 1.665-7.975 3.52-1.56 1.808-3.118 4.994-3.118 9.941 0 4.137 1.158 6.8 2.762 8.798 1.426 1.76 3.742 3.527 7.886 3.527 2.718 0 5.168-.863 7.307-2.956m23.078.619c1.96-1.618 3.029-3.614 3.029-6.754 0-1.903-.445-3.425-1.648-4.71-1.248-1.331-2.852-1.854-4.054-2.14l-2.852-.665c-1.247-.286-1.738-.666-1.915-.808a1.518 1.518 0 01-.491-1.142c0-.427.223-.761.535-1 .446-.331 1.203-.38 1.515-.38 1.693 0 3.92.76 5.613 1.809l2.406-5.138-.847-.427c-2.984-1.522-5.301-2.093-8.241-2.093-2.451 0-4.857.523-6.862 2.28-1.871 1.667-2.584 3.76-2.584 6.09 0 5.279 4.009 6.374 5.391 6.707l2.985.665c1.426.332 2.183.618 2.628 1.047.268.286.401.619.401 1.094 0 .522-.222.999-.667 1.378-.491.427-1.159.573-1.738.573-2.049 0-5.703-1.856-7.53-3.14l-2.717 5.992 1.336.715c1.07.569 2.362 1.094 3.297 1.424 1.382.486 3.565.96 5.882.96 2.137 0 4.856-.474 7.128-2.337m6.594-24.02v18.93c0 1.617.044 4.28 1.515 5.85 1.292 1.387 3.519 1.578 5.168 1.578s3.163-.144 4.989-.77l-1.247-5.135-.49.094c-1.024.192-1.514-.287-1.737-.618-.267-.428-.446-1.187-.446-4.803V36.893c0-2.851-.134-4.612-.356-6.133l-7.664 1.378c.312 2.237.268 3.426.268 7.848m24.682 18.976c-.49 1.429-1.292 1.57-1.871 1.57-1.025 0-1.738-.381-2.094-1.758-.18-.714-.357-1.857-.357-4.616 0-4.422.134-6.182 1.025-7.227.49-.525.89-.62 1.38-.62.625 0 1.16.144 1.649.81.624.855.803 2.28.803 5.896 0 1.617-.09 4.615-.535 5.945m5.97-15.41c-1.604-1.757-4.144-2.995-7.574-2.995-3.876 0-6.371 1.665-7.975 3.519-1.56 1.808-3.12 4.994-3.12 9.942 0 4.136 1.159 6.799 2.764 8.798 1.425 1.758 3.742 3.527 7.885 3.527 2.717 0 5.169-.863 7.307-2.956 2.718-2.663 3.654-6.28 3.654-10.56 0-4.612-1.293-7.466-2.941-9.275m25.529-2.377h-7.931l-1.736 6.468c-.581 2.188-1.16 4.614-1.515 7.61h-.09c-.401-1.903-1.203-5.517-1.648-7.087l-2.05-7.325-7.85.81 8.518 24.066h5.97l8.332-24.542zm9.089-.38l-7.752.76v24.161h7.752V40.794zm-3.92-2.324c2.54 0 4.5-2.14 4.5-4.66 0-2.57-1.96-4.66-4.367-4.66-2.54 0-4.546 2.09-4.546 4.66 0 2.616 2.006 4.66 4.412 4.66m35.102 23.807a3.688 3.688 0 00-3.688-3.688 3.69 3.69 0 000 7.376 3.688 3.688 0 003.688-3.688"/></g></svg>