<svg viewBox="0 0 512 512" xmlns="http://www.w3.org/2000/svg"><path d="M331.896 445.567V85.419c-14.454-3.231-25.256-16.135-25.256-31.563V5.717c0-1.485-.83-2.871-2.178-3.494A24.109 24.109 0 00294.349 0H61.36C43.778 0 29.524 14.254 29.524 31.837v410.095c0 17.583 14.254 31.837 31.837 31.837h254.038c9.846-5.545 16.497-16.097 16.497-28.202z" fill="#f6f9f9"/><path d="M336.176 88.182c-2.397 0-4.729-.274-6.975-.776v354.526c0 17.583-14.254 31.837-31.837 31.837h63.321c17.583 0 31.837-14.254 31.837-31.837V98.172c0-3.481-.758-6.882-2.173-9.99z" fill="#e7ecf1"/><path d="M385.457 81.118L311.404 7.064a24.106 24.106 0 00-7.064-4.891v54.172c0 17.583 14.254 31.837 31.836 31.837h54.173a24.115 24.115 0 00-4.892-7.064z" fill="#fc8086"/><path d="M299.931 329.927l5.817-9.82-23.006-13.61c-15.176-8.709-22.273-10.32-35.965-5.027l-14.922 5.769a31.766 31.766 0 01-27.646-2.299l-39.94-23.549-56.727 95.752 51.142 30.186a31.764 31.764 0 018.965 7.933l17.233 22.35c9.519 11.133 29.164 25.574 41.766 33.04l17.901 10.605a21.139 21.139 0 009.239-8.38 21.164 21.164 0 002.529-15.086c-.333-1.626.337-3.293 1.692-4.251s3.146-1.03 4.574-.184l7.192 4.261c10.06 5.96 23.29 3.111 29.431-6.84 4.767-7.725 3.977-17.241-1.164-24.025a.844.844 0 011.101-1.239l8.758 5.227c10.111 5.99 23.163 2.65 29.152-7.461 4.403-7.432 3.754-16.447-.91-23.083a.985.985 0 01.077-1.247.987.987 0 011.22-.172l11.147 6.604c8.621 5.107 19.779 3.933 26.73-3.284 2.561-2.66 4.612-6.7 5.56-9.963l-76.648-45.39c-5.828-3.457-7.753-10.985-4.298-16.817z" fill="#ffece3"/><path d="M417.945 414.083l-39.188-23.207c-.862 3.352-2.526 6.599-5.24 9.417-6.361 6.605-16.248 8.148-24.487 4.447l-15.516-9.192a7.728 7.728 0 00-10.589 2.709 7.728 7.728 0 002.709 10.589l11.927 7.066a21.232 21.232 0 01-2.309 5.563c-5.501 9.285-16.958 12.86-26.623 8.742l-12.661-7.501a7.728 7.728 0 10-7.88 13.298l11.839 7.014a21.236 21.236 0 01-2.523 5.945c-6.141 9.951-19.371 12.8-29.431 6.84l-7.192-4.261c-1.428-.846-3.219-.774-4.574.184s-2.025 2.625-1.692 4.251a21.165 21.165 0 01-2.529 15.086c-2.396 4.044-5.93 6.983-9.945 8.697l49.972 29.605c8.812 5.22 20.567 2.442 25.621-6.465 4.901-8.638 1.999-19.647-6.582-24.732l20.138 11.93c8.812 5.22 20.567 2.443 25.621-6.465 4.901-8.638 1.999-19.647-6.582-24.731l13.287 7.872c8.811 5.22 20.566 2.443 25.621-6.465 4.902-8.638 2-19.648-6.582-24.732l16.354 9.689c8.811 5.22 20.565 2.443 25.619-6.464 4.9-8.638 1.998-19.646-6.583-24.729z" fill="#ffddce"/><path d="M434.328 331.388l-26.232-44.278-30.675 17.83a31.766 31.766 0 01-27.646 2.299l-16.829-6.611a27.04 27.04 0 00-16.525-1.046l-25.784 6.525c-12.003 3.038-20.411 13.838-20.411 26.22v34.419c0 4.867 3.944 8.825 8.81 8.828 14.675.01 26.575-11.884 26.575-26.557v-1.457l50.293 29.783z" fill="#fcd0a3"/><path d="M432.557 328.398l-80.072 46.92 63.492 37.599a31.771 31.771 0 016.967-5.589l41.878-24.467z" fill="#ffb983"/><g><g fill="#fcd0a3"><path d="M181.099 427.607l-10.347 14.413c-5.883 8.195-17.296 10.069-25.491 4.186-8.195-5.883-10.069-17.296-4.186-25.491l10.347-14.413c5.883-8.195 17.296-10.069 25.491-4.186 8.195 5.883 10.069 17.296 4.186 25.491z"/><path d="M222.195 433.006l-21.766 30.319c-5.883 8.195-17.296 10.069-25.491 4.186-8.195-5.883-10.069-17.296-4.186-25.491l21.766-30.319c5.883-8.195 17.296-10.069 25.491-4.186 8.196 5.883 10.07 17.296 4.186 25.491zM251.873 454.312l-21.766 30.319c-5.883 8.195-17.296 10.069-25.491 4.186-8.195-5.883-10.069-17.296-4.186-25.491l21.766-30.319c5.883-8.195 17.296-10.069 25.491-4.186 8.195 5.883 10.069 17.296 4.186 25.491z"/></g><path d="M271.878 489.089l-7.238 10.082c-5.883 8.195-17.296 10.069-25.491 4.186-8.195-5.883-10.069-17.296-4.186-25.491l7.238-10.082c5.883-8.195 17.296-10.069 25.491-4.186 8.195 5.883 10.069 17.296 4.186 25.491z" fill="#ffb983"/></g><g fill="#7c8b96"><path d="M185.649 271.436l-15.999-9.478a9.263 9.263 0 00-12.69 3.248L91.184 376.233a9.263 9.263 0 003.248 12.69l15.999 9.478c10.731 6.358 24.585 2.812 30.942-7.919l52.196-88.104c6.357-10.731 2.812-24.584-7.92-30.942zM402.715 261.958l-15.999 9.478c-10.731 6.358-14.277 20.211-7.919 30.942l52.196 88.104c6.358 10.731 20.211 14.277 30.942 7.919l15.999-9.478a9.263 9.263 0 003.248-12.69l-65.776-111.027a9.264 9.264 0 00-12.691-3.248z"/></g><g><path d="M337.378 149.759H84.667c-4.269 0-7.729-3.46-7.729-7.729s3.46-7.729 7.729-7.729h252.711c4.269 0 7.729 3.46 7.729 7.729s-3.46 7.729-7.729 7.729z" fill="#ddeafb"/></g><g><path d="M211.023 95.911H84.667c-4.269 0-7.729-3.46-7.729-7.729s3.46-7.729 7.729-7.729h126.356c4.269 0 7.729 3.46 7.729 7.729s-3.46 7.729-7.729 7.729z" fill="#ddeafb"/></g><g><path d="M337.378 197.472H84.667c-4.269 0-7.729-3.46-7.729-7.729s3.46-7.729 7.729-7.729h252.711c4.269 0 7.729 3.46 7.729 7.729s-3.46 7.729-7.729 7.729z" fill="#ddeafb"/></g></svg>