<svg height="512pt" viewBox="0 -32 512 512" width="512pt" xmlns="http://www.w3.org/2000/svg"><path d="M256 368.469c-8.285 0-15 6.719-15 15v34.27c0 8.28 6.715 15 15 15s15-6.72 15-15v-34.27c0-8.281-6.715-15-15-15zm0 0" fill="#d9e4ef"/><path d="M271 383.469v34.27c0 8.28-6.719 15-15 15v-64.27c8.281 0 15 6.722 15 15zm0 0" fill="#c1cedb"/><path d="M464.867.004H47.133C21.313.004 0 20.87 0 47.137v289.199c0 26.352 21.402 47.133 47.133 47.133h417.734c25.82 0 47.133-20.867 47.133-47.133v-289.2C512 20.787 490.598.005 464.867.005zm0 0" fill="#eff6fe"/><path d="M464.871 0H256v383.469h208.871c25.82 0 47.129-20.867 47.129-47.13V47.142C512 20.78 490.602 0 464.871 0zm0 0" fill="#d9e4ef"/><path d="M336.332 417.738H175.668c-8.285 0-15 6.715-15 15 0 8.282 6.715 15 15 15h160.664c8.285 0 15-6.718 15-15 0-8.285-6.715-15-15-15zm0 0" fill="#eff6fe"/><path d="M0 319.203v17.133c0 26.351 21.402 47.133 47.133 47.133h417.734c25.82 0 47.133-20.867 47.133-47.133v-17.133zm0 0" fill="#3ab4fb"/><path d="M351.328 432.738c0 8.282-6.707 15-15 15H256v-30h80.328c8.293 0 15 6.711 15 15zm0 0" fill="#d9e4ef"/><path d="M512 319.2v17.14c0 26.262-21.309 47.129-47.129 47.129H256v-64.27zm0 0" fill="#1d9cfd"/><path d="M95.332 174.602c25.8 0 47.133-20.844 47.133-47.133V63.203c0-8.285-6.715-15-15-15H95.332c-8.281 0-15 6.715-15 15s6.719 15 15 15h17.133v49.266c0 9.39-7.582 17.136-17.149 17.136-9.437 0-17.117-7.68-17.117-17.136 0-8.281-6.715-14.992-15-14.992s-15 6.726-15 15.011c0 25.98 21.137 47.114 47.133 47.114zm0 0M207.8 174.602c25.802 0 47.134-20.844 47.134-47.133V95.336c0-25.86-20.907-47.133-47.133-47.133-25.828 0-47.133 20.871-47.133 47.133v32.133c0 26.351 21.398 47.133 47.133 47.133zm-17.132-79.266c0-9.477 7.676-17.133 17.133-17.133 9.418 0 17.133 7.617 17.133 17.133v32.133c0 9.476-7.676 17.136-17.133 17.136-9.442 0-17.133-7.64-17.133-17.136zm0 0" fill="#ff7579"/><path d="M288.133 174.602H328.3c21.558 0 39.101-17.54 39.101-39.098 0-9.09-3.125-17.453-8.343-24.102 5.218-6.644 8.343-15.011 8.343-24.097 0-21.563-17.543-39.102-39.101-39.102h-40.168c-8.281 0-15 6.715-15 15v96.399c0 8.285 6.719 15 15 15zm40.168-30h-25.168v-18.2H328.3c12.039 0 12.035 18.2 0 18.2zm0-48.2h-25.168V78.203H328.3c12.039 0 12.035 18.2 0 18.2zm0 0" fill="#fe4a60"/><path d="M470.328 443.344l-69.242-69.246c-5.86-5.856-5.86-15.356 0-21.211 5.86-5.86 15.355-5.86 21.215 0l69.238 69.242c5.86 5.86 5.86 15.355 0 21.215-5.855 5.855-15.355 5.855-21.21 0zm0 0" fill="#ff7579"/><path d="M491.54 443.344c5.858-5.86 5.858-15.356 0-21.215l-69.24-69.242c-5.859-5.86-15.355-5.86-21.214 0zm0 0" fill="#fe4a60"/><path d="M344.367 399.535C287.371 399.535 241 353.168 241 296.172s46.371-103.367 103.367-103.367 103.367 46.37 103.367 103.367-46.37 103.363-103.367 103.363zm0-176.73c-40.457 0-73.367 32.91-73.367 73.367 0 40.453 32.91 73.363 73.367 73.363 40.453 0 73.367-32.91 73.367-73.363 0-40.457-32.914-73.367-73.367-73.367zm0 0" fill="#ffcc4b"/><path d="M292.512 244.316c13.285-13.285 31.629-21.511 51.855-21.511 40.453 0 73.367 32.91 73.367 73.367 0 20.226-8.23 38.566-21.511 51.851l21.203 21.204c18.715-18.715 30.308-44.559 30.308-73.055 0-56.996-46.37-103.367-103.367-103.367-28.5 0-54.34 11.59-73.058 30.308zm0 0" fill="#ffb826"/></svg>