<svg viewBox="0 0 511.767 511.767" xmlns="http://www.w3.org/2000/svg"><path d="M502.668 394.269c-2.234 20.595-18.731 36.741-39.366 38.368-87.578 6.899-175.146 9.432-262.725 7.579a2638.093 2638.093 0 01-152.111-7.579C27.83 431.01 11.334 414.864 9.1 394.269-.682 304.024-2.577 213.778 3.416 123.533c.968-14.509 9.607-18.998 15.92-26.886 3.12-3.892 5.674-8.609 6.456-15.786 2.224-20.584 18.72-36.73 39.366-38.357C203.429 31.61 297.68 28.716 435.952 39.621c20.646 1.627 37.142 17.773 39.376 38.357 2.348 21.686 31.582 23.9 33.023 45.576 5.994 90.245 4.099 180.48-5.683 270.715z" fill="#f9f6f6"/><path d="M508.357 123.558l-.206-.021c-168.175-14.828-336.35-14.828-504.525 0l-.206.031A1539.113 1539.113 0 019.104 58.52c2.234-20.594 18.73-36.74 39.366-38.367a2636.622 2636.622 0 01414.836 0c20.636 1.627 37.132 17.773 39.366 38.368a1538.46 1538.46 0 015.685 65.037z" fill="#9dc6fb"/><circle cx="65.158" cy="66.661" fill="#dd636e" r="24.154"/><circle cx="210.083" cy="66.661" fill="#78c2a4" r="24.154"/><circle cx="137.621" cy="66.661" fill="#f1e64d" r="24.154"/><g><path d="M380.422 348.155c72.62 48.804 119.369 95.553 119.369 95.553s4.644 15.998-17.515 38.157-38.157 17.515-38.157 17.515-46.749-46.749-95.553-119.369" fill="#365e7d"/><path d="M348.571 380.01l11.566-11.566c56.067 61.736 102.825 109.227 114.081 120.585-17.873 13.894-30.096 10.352-30.096 10.352S397.37 452.63 348.571 380.01z" fill="#2b4d66"/><circle cx="277.191" cy="276.779" fill="#e7a561" r="144.571"/><path d="M288.12 420.949c-3.612.267-7.247.405-10.924.405-79.843 0-144.577-64.733-144.577-144.577 0-79.843 64.733-144.569 144.577-144.569 3.676 0 7.312.138 10.924.405-74.742 5.579-133.653 67.988-133.653 144.164S213.378 415.37 288.12 420.949z" fill="#e49542"/><circle cx="277.191" cy="276.776" fill="#bed8fb" r="113.735"/><path d="M163.455 276.778c0-62.815 50.921-113.736 113.736-113.736 5.304 0 10.517.365 15.623 1.061-55.422 7.617-98.113 55.165-98.113 112.675s42.691 105.058 98.113 112.675a115.579 115.579 0 01-15.623 1.061c-62.814 0-113.736-50.921-113.736-113.736z" fill="#9dc6fb"/></g><g><path d="M199.488 311.905c-7.132 0-13.243-3.922-16.4-7.099a7.726 7.726 0 0110.907-10.947c.267.253 4.19 3.882 7.626 1.976 1.822-1.011 2.954-3.01 2.954-5.214v-53.846a7.727 7.727 0 0115.454 0v53.846c0 7.816-4.179 14.991-10.907 18.726-3.297 1.829-6.561 2.558-9.634 2.558z" fill="#365e7d"/><g fill="#365e7d"><path d="M324.691 275.574a7.725 7.725 0 01-7.726-7.727v-31.073a7.727 7.727 0 017.727-7.727h19.57c12.808 0 23.229 10.42 23.229 23.229s-10.42 23.229-23.229 23.229c-4.239 0-19.533.068-19.535.068l-.036.001zm7.726-31.073v15.587c4.477-.018 9.644-.036 11.843-.036 4.287 0 7.775-3.488 7.775-7.775s-3.488-7.775-7.775-7.775h-11.843z"/><path d="M324.691 311.872a7.725 7.725 0 01-7.726-7.727v-36.348a7.727 7.727 0 017.727-7.727h22.987c14.26 0 25.861 11.601 25.861 25.861s-11.601 25.861-25.861 25.861c-4.959 0-22.952.08-22.953.08h-.035zm7.726-36.348v20.862c5.531-.022 12.463-.047 15.261-.047 5.739 0 10.407-4.669 10.407-10.407 0-5.739-4.669-10.408-10.407-10.408zM269.888 311.872c-22.835 0-41.412-18.577-41.412-41.412s18.577-41.412 41.412-41.412S311.3 247.625 311.3 270.46c.001 22.835-18.577 41.412-41.412 41.412zm0-67.371c-14.314 0-25.959 11.645-25.959 25.959s11.645 25.959 25.959 25.959 25.959-11.645 25.959-25.959-11.645-25.959-25.959-25.959z"/></g></g></svg>