<svg viewBox="0 0 511.998 511.998" xmlns="http://www.w3.org/2000/svg"><path d="M149.884 504.003c-16.263 12.247-40.135 10.366-55.741-5.24-4.575-4.575-7.962-9.857-10.168-15.457-14.68 4.667-31.834.834-43.975-11.307s-15.974-29.295-11.307-43.975c-5.6-2.206-10.882-5.593-15.457-10.168-15.606-15.606-17.487-39.478-5.24-55.741-.622-.552 187.086-45.198 187.086-45.198s-44.647 187.708-45.198 187.086zM316.916 195.082S361.563 7.373 362.114 7.996c16.263-12.247 40.135-10.366 55.741 5.24 4.575 4.575 7.962 9.857 10.168 15.457 14.68-4.667 31.834-.834 43.975 11.307s15.974 29.295 11.307 43.975c5.6 2.206 10.882 5.593 15.457 10.168 15.606 15.606 17.487 39.478 5.24 55.741.623.551-187.086 45.198-187.086 45.198z" fill="#59c7f8"/><path d="M316.916 195.082L471.999 39.999c12.141 12.141 15.974 29.295 11.307 43.975 5.6 2.206 10.882 5.593 15.457 10.168 15.606 15.606 17.487 39.478 5.24 55.741.622.552-187.087 45.199-187.087 45.199zM195.082 316.916s-44.647 187.709-45.198 187.086c-16.263 12.247-40.135 10.366-55.741-5.24-4.575-4.575-7.962-9.857-10.168-15.457-14.68 4.667-31.834.834-43.975-11.307z" fill="#019be6"/><path d="M256.005 256.003h-.001l-.001.002h.006l-.003-.004z"/><path d="M364.848 401.674c-30.342 22.705-68.024 36.161-108.845 36.154-25.696 0-50.155-5.324-72.316-14.941-22.012-9.553-35.801-29.395-44.88-49.688-6.548-14.623-10.642-29.479-13.612-40.892 0 0-47.171-32.294-49.816-55.275a181.145 181.145 0 01-1.209-21.036c0-59.397 28.482-112.133 72.528-145.317 30.427-22.931 114.205-2.652 114.205-2.652s44.534-28.68 66.433-19.325a181.808 181.808 0 0157.24 38.728c28.143 28.143 47.093 65.45 51.994 107.077.467 3.917-6.428 64.552-36.14 84.719-.001-.001-15.911 67.726-35.582 82.448z" fill="#fff9e1"/><path d="M364.848 401.674c-30.342 22.705-68.024 36.161-108.845 36.154-25.696 0-50.155-5.324-72.316-14.941-22.012-9.553-35.801-29.395-44.88-49.688L384.576 127.43c28.143 28.143 47.093 65.45 51.994 107.077.467 3.917-6.428 64.552-36.14 84.719-.001-.001-15.911 67.726-35.582 82.448z" fill="#ffdea8"/><g fill="#ff7b49"><path d="M256.003 256.003c27.238-47.419 10.699-107.784-36.72-134.994-22.882-13.138-48.819-16.094-72.585-10.331 30.427-22.931 68.285-36.508 109.298-36.508 25.329 0 49.441 5.176 71.34 14.531a99.46 99.46 0 0112.495 16.002c9.518 15.203 15.033 33.177 15.033 52.439v.014c-.001 54.674-44.181 98.84-98.861 98.847z"/><path d="M183.687 422.887c-21.143-9.178-40.199-22.253-56.257-38.311-28.242-28.242-47.242-65.726-52.05-107.544 7.015-23.278 22.535-44.032 45.248-57.127 15.585-9.009 32.612-13.28 49.399-13.279 34.217-.007 67.649 17.614 85.977 49.377-54.659 0-99.158 44.47-99.151 99.136v.014c.006 26.213 10.196 50.035 26.834 67.734z"/><path d="M364.848 401.674a99.608 99.608 0 01-23.264 2.758c-16.702 0-33.616-4.229-49.137-13.145-47.419-27.209-63.661-87.872-36.444-135.284 18.328 31.763 51.47 49.674 85.687 49.667 16.794.007 33.814-4.271 49.406-13.272 22.953-13.251 38.587-34.316 45.474-57.891a181.303 181.303 0 011.259 21.496c.006 59.602-28.681 112.5-72.981 145.671z"/></g><g fill="#fd435b"><path d="M256.003 256.003l98.861-98.861v.014c-.001 54.674-44.181 98.84-98.861 98.847zM156.852 355.153c.007 26.212 10.197 50.035 26.835 67.734-21.143-9.178-40.199-22.253-56.257-38.311z"/><path d="M364.848 401.674a99.608 99.608 0 01-23.264 2.758c-16.702 0-33.616-4.229-49.137-13.145-47.419-27.209-63.661-87.872-36.444-135.284 18.328 31.763 51.47 49.674 85.687 49.667 16.794.007 33.814-4.271 49.406-13.272 22.953-13.251 38.587-34.316 45.474-57.891a181.303 181.303 0 011.259 21.496c.006 59.602-28.681 112.5-72.981 145.671z"/></g></svg>