<svg viewBox="0 0 64 64" xmlns="http://www.w3.org/2000/svg"><path d="M60.494 33.499h-26c-1.1 0-2 .9-2 2v17h30v-17c0-1.1-.898-2-2-2z" fill="#e6e9ed"/><path d="M51.994 56.499l1 5h-11l1-5z" fill="#545c66"/><path d="M32.545 52.499h29.949v2c0 1.1-.898 2-2 2h-26c-1.1 0-2-.9-2-2v-2z" fill="#656d78"/><path d="M36.504 19.499c0 4.42-3.59 8-8 8h-21.5a6.5 6.5 0 01-6.5-6.5v-4.01a6.5 6.5 0 006.5 6.5h21.5c4.41 0 8-3.58 8-7.99z" fill="#ccd1d9"/><path d="M28.504 7.499c4.41 0 8 3.58 8 8 0 4.41-3.59 7.99-8 7.99h-21.5a6.5 6.5 0 01-6.5-6.5c0-3.58 2.91-6.49 6.5-6.49h.682c.939-5.12 5.42-9 10.818-9 4.271 0 7.98 2.44 9.801 6z" fill="#e6e9ed"/><path d="M60.496 57.501H34.5c-1.654 0-3-1.346-3-3V35.504c0-1.654 1.346-3 3-3h25.996c1.654 0 3 1.346 3 3v18.997c0 1.654-1.346 3-3 3zM34.5 34.504a1 1 0 00-1 1v18.997a1 1 0 001 1h25.996c.551 0 1-.448 1-1V35.504c0-.552-.449-1-1-1zM54.496 62.501h-14a1 1 0 110-2h14a1 1 0 110 2z" fill="#656d78"/><g fill="#ccd1d9"><path d="M50.504 47.498h-5.998a1 1 0 110-2h5.998a1 1 0 110 2zM50.506 30.498a1 1 0 01-1-1V18.5a1 1 0 112 0v10.998a1 1 0 01-1 1z"/><path d="M50.5 19.5h-9.996a1 1 0 110-2H50.5a1 1 0 110 2z"/><path d="M42.504 21.5a.997.997 0 01-.707-.293l-2-2a.999.999 0 111.414-1.414l2 2a.999.999 0 01-.707 1.707z"/><path d="M40.504 19.5a.999.999 0 01-.707-1.707l2-2a.999.999 0 111.414 1.414l-2 2a.997.997 0 01-.707.293zM18.506 43.497a1 1 0 01-1-1V31.499a1 1 0 112 0v10.998a1 1 0 01-1 1z"/><path d="M28.508 43.497h-9.996a1 1 0 110-2h9.996a1 1 0 110 2z"/><path d="M28.508 43.497a.997.997 0 01-.707-.293l-2-2a.999.999 0 111.414-1.414l2 2a.999.999 0 01-.707 1.707z"/><path d="M26.508 45.497a.999.999 0 01-.707-1.707l2-2a.999.999 0 111.414 1.414l-2 2a.997.997 0 01-.707.293z"/></g><path d="M47.527 56.001c-.553 0-1.006-.447-1.006-1s.443-1 .994-1h.012a1 1 0 010 2z" fill="#545c66"/><path d="M47.496 40.501H38.5c-.551 0-1 .45-1 1v.999c0 .55.449 1 1 1h17.992c.551 0 1-.45 1-1v-.999c0-.55-.449-1-1-1z" fill="#ccd1d9"/><path d="M45.496 40.501H38.5c-.551 0-1 .45-1 1v.999c0 .55.449 1 1 1h10.996l-3-2.999h-1z" fill="#5d9cec"/></svg>