<svg id="Capa_1" enable-background="new 0 0 511.92 511.92" height="512" viewBox="0 0 511.92 511.92" width="512" xmlns="http://www.w3.org/2000/svg"><g id="XMLID_673_"><path id="XMLID_524_" d="m507.527 57.087c-80.989-21.502-166.187-21.502-247.176 0l-4.391 1.166-4.391-1.166c-80.989-21.502-166.187-21.502-247.176 0l-4.391 1.166v329.575l4.391-1.166c80.989-21.502 166.187-21.502 247.176 0l4.391 1.166 4.391-1.166c80.989-21.502 166.187-21.502 247.176 0l4.391 1.166v-329.575z" fill="none"/><path id="XMLID_3434_" d="m.001 387.828v46.909h219.097c0 20.006 16.218 36.224 36.224 36.224h1.275c20.006 0 36.224-16.218 36.224-36.224h219.097v-46.909l-255.958-66.387z" fill="#ffc34d"/><path id="XMLID_3497_" d="m255.96 321.441v149.52h.638c20.006 0 36.224-16.218 36.224-36.224h219.097v-46.909z" fill="#ffa64d"/><path id="XMLID_301_" d="m507.527 57.087c-80.989-21.502-166.187-21.502-247.176 0l-4.391 1.166-4.391-1.166c-80.989-21.502-166.187-21.502-247.176 0l-4.391 1.166v329.575l4.391-1.166c80.989-21.502 166.187-21.502 247.176 0l4.391 1.166 4.391-1.166c80.989-21.502 166.187-21.502 247.176 0l4.391 1.166v-329.575z" fill="#fff4f4"/><path id="XMLID_3507_" d="m511.92 58.251v329.58l-4.39-1.17c-80.99-21.5-166.19-21.5-247.18 0l-4.39 1.17-4.39-1.17c-80.99-21.5-166.19-21.5-247.18 0l-4.39 1.17v-329.58l4.39-1.16c80.99-21.51 166.19-21.51 247.18 0l4.39 1.16 4.39-1.16c25.11-6.67 50.64-11.27 76.31-13.8 57.12-5.64 115-1.04 170.87 13.8z" fill="#fff4f4"/><path id="XMLID_3500_" d="m507.53 57.091c-55.87-14.84-113.75-19.44-170.87-13.8-25.67 2.53-51.2 7.13-76.31 13.8l-4.39 1.16v329.58l4.39-1.17c80.99-21.5 166.19-21.5 247.18 0l4.39 1.17v-329.58z" fill="#f2e6e6"/><path id="XMLID_3505_" d="m336.66 43.291v209.7l-40.35-32.05-40.35 32.05v-194.74l4.39-1.16c25.11-6.67 50.64-11.27 76.31-13.8z" fill="#ff3650"/></g></svg>