<svg viewBox="0 0 64 64" xmlns="http://www.w3.org/2000/svg"><path d="M6 52l2 2 2-2 1 .5V10H5v42.5z" fill="#f0bc5e"/><path d="M26.168 10.445l1.664 1.11L29 9.803V17h2V7h-2.535zM29 57c1.654 0 3-1.346 3-3v-.438a2.996 2.996 0 00-2.272-2.91L28 50.219V49h4v-2h-6v4.781l3.242.81a1 1 0 01.758.971V54a1.001 1.001 0 01-2 0v-1h-2v1c0 1.654 1.346 3 3 3zM32 35v-2c0-.366-.106-.705-.278-1 .172-.295.278-.634.278-1v-2c0-1.103-.897-2-2-2h-2v2h2v2h-2v2h2v2h-2v2h2c1.103 0 2-.897 2-2z"/><path d="M48 21h12c1.654 0 3-1.346 3-3V6c0-1.654-1.346-3-3-3H48c-1.654 0-3 1.346-3 3v5h-6V6c0-1.654-1.346-3-3-3H24c-1.654 0-3 1.346-3 3v5h-6V8c0-3.859-3.14-7-7-7S1 4.141 1 8v46.287l4.622 7.396C6.138 62.508 7.027 63 8 63s1.862-.492 2.378-1.317L15 54.287V53h6v5c0 1.654 1.346 3 3 3h12c1.654 0 3-1.346 3-3v-5h6v5c0 1.654 1.346 3 3 3h12c1.654 0 3-1.346 3-3V46c0-1.654-1.346-3-3-3H48c-1.654 0-3 1.346-3 3v5h-6v-5c0-1.654-1.346-3-3-3H24c-1.654 0-3 1.346-3 3v5h-6V33h6v5c0 1.654 1.346 3 3 3h12c1.654 0 3-1.346 3-3v-5h6v5c0 1.654 1.346 3 3 3h12c1.654 0 3-1.346 3-3V26c0-1.654-1.346-3-3-3H48c-1.654 0-3 1.346-3 3v5h-6v-5c0-1.654-1.346-3-3-3H24c-1.654 0-3 1.346-3 3v5h-6V13h6v5c0 1.654 1.346 3 3 3h12c1.654 0 3-1.346 3-3v-5h6v5c0 1.654 1.346 3 3 3zm-1 25c0-.552.449-1 1-1h12c.551 0 1 .448 1 1v12c0 .552-.449 1-1 1H48c-.551 0-1-.448-1-1zm-24 0c0-.552.449-1 1-1h12c.551 0 1 .448 1 1v12c0 .552-.449 1-1 1H24c-.551 0-1-.448-1-1zm24-20c0-.552.449-1 1-1h12c.551 0 1 .448 1 1v12c0 .552-.449 1-1 1H48c-.551 0-1-.448-1-1zm-24 0c0-.552.449-1 1-1h12c.551 0 1 .448 1 1v12c0 .552-.449 1-1 1H24c-.551 0-1-.448-1-1zM9.803 50.783L8 52.586l-1.803-1.803L3 52.382V11h10v41.382zM8 3c2.757 0 5 2.243 5 5v1H3V8c0-2.757 2.243-5 5-5zm.682 57.622c-.295.473-1.068.473-1.363 0l-3.887-6.219 2.372-1.186L8 55.414l2.197-2.197 2.372 1.186zM37 18c0 .552-.449 1-1 1H24c-.551 0-1-.448-1-1V6c0-.552.449-1 1-1h12c.551 0 1 .448 1 1zM47 6c0-.552.449-1 1-1h12c.551 0 1 .448 1 1v12c0 .552-.449 1-1 1H48c-.551 0-1-.448-1-1z"/><path d="M57 15h-3.586l2.707-2.707c.567-.566.879-1.32.879-2.121V10c0-1.654-1.346-3-3-3s-3 1.346-3 3v1h2v-1a1.001 1.001 0 012 0v.172c0 .263-.107.521-.293.707L51 14.586V17h6zM55 37h2V27h-2v4h-2v-4h-2v6h4zM54 57c1.654 0 3-1.346 3-3s-1.346-3-3-3c-.352 0-.686.072-1 .184V50a1.001 1.001 0 012 0h2c0-1.654-1.346-3-3-3s-3 1.346-3 3v4c0 1.654 1.346 3 3 3zm0-4a1.001 1.001 0 11-1 1c0-.552.449-1 1-1z"/></svg>