<svg viewBox="0 0 512 512" xmlns="http://www.w3.org/2000/svg"><path d="M4.688 36.688l22.625 22.624L54.624 32H64v96h32V0H41.375zm0 0" fill="#e76e54"/><path d="M0 224h64v16H0v80h96v-32H32v-16h64v-80H0zm0 0" fill="#fe9d58"/><path d="M0 416h64v16H32v32h32v16H0v32h96V384H0zm0 0" fill="#ffcb5a"/><g fill="#e76e54"><path d="M160 48c0 8.832 7.168 16 16 16h320c8.832 0 16-7.168 16-16s-7.168-16-16-16H176c-8.832 0-16 7.168-16 16zm0 0M384 96H176c-8.832 0-16 7.168-16 16s7.168 16 16 16h208zm0 0M480 96h32v32h-32zm0 0M416 96h32v32h-32zm0 0"/></g><path d="M176 256h320c8.832 0 16-7.168 16-16s-7.168-16-16-16H176c-8.832 0-16 7.168-16 16s7.168 16 16 16zm0 0M384 288H176c-8.832 0-16 7.168-16 16s7.168 16 16 16h208zm0 0M480 288h32v32h-32zm0 0M416 288h32v32h-32zm0 0" fill="#fe9d58"/><path d="M176 448h320c8.832 0 16-7.168 16-16s-7.168-16-16-16H176c-8.832 0-16 7.168-16 16s7.168 16 16 16zm0 0M176 512h208v-32H176c-8.832 0-16 7.168-16 16s7.168 16 16 16zm0 0M480 480h32v32h-32zm0 0M416 480h32v32h-32zm0 0" fill="#ffcb5a"/></svg>