<svg viewBox="0 0 512 512" xmlns="http://www.w3.org/2000/svg"><linearGradient id="a" gradientUnits="userSpaceOnUse" x1="256" x2="256" y1="512" y2="0"><stop offset="0" stop-color="#c3ffe8"/><stop offset=".997" stop-color="#f0fff4"/></linearGradient><linearGradient id="b" gradientUnits="userSpaceOnUse" x1="256" x2="256" y1="407" y2="105"><stop offset="0" stop-color="#9cffac"/><stop offset="1" stop-color="#00b59c"/></linearGradient><circle cx="256" cy="256" fill="url(#a)" r="256"/><path d="M238.235 122.765H256c4.91 0 8.882-3.973 8.882-8.882S260.91 105 256 105h-17.765c-4.91 0-8.882 3.973-8.882 8.882s3.973 8.883 8.882 8.883zm-53.294 0h17.765c4.91 0 8.882-3.973 8.882-8.882S207.615 105 202.706 105h-17.765c-4.91 0-8.882 3.973-8.882 8.882s3.973 8.883 8.882 8.883zm106.588 0h26.647v26.647a8.877 8.877 0 008.882 8.882 8.877 8.877 0 008.882-8.882v-35.529a8.877 8.877 0 00-8.882-8.882h-35.529c-4.91 0-8.882 3.973-8.882 8.882s3.973 8.882 8.882 8.882zM149.412 105h-35.529a8.877 8.877 0 00-8.882 8.882v35.529a8.877 8.877 0 008.882 8.882 8.877 8.877 0 008.882-8.882v-26.647h26.647c4.91 0 8.882-3.973 8.882-8.882S154.321 105 149.412 105zm0 213.176h-26.647v-26.647a8.877 8.877 0 00-8.882-8.882 8.877 8.877 0 00-8.882 8.882v35.529a8.878 8.878 0 008.882 8.883h35.529a8.877 8.877 0 008.882-8.883 8.877 8.877 0 00-8.882-8.882zm248.706-142.117H184.941a8.877 8.877 0 00-8.882 8.883v213.176a8.877 8.877 0 008.882 8.882h213.177a8.877 8.877 0 008.882-8.882V184.941a8.877 8.877 0 00-8.882-8.882zm-284.236 35.529a8.877 8.877 0 008.882-8.882v-17.765a8.878 8.878 0 00-8.882-8.883 8.877 8.877 0 00-8.882 8.883v17.765a8.877 8.877 0 008.882 8.882zm0 53.294a8.877 8.877 0 008.882-8.882v-17.765a8.877 8.877 0 00-8.882-8.882 8.877 8.877 0 00-8.882 8.882V256a8.877 8.877 0 008.882 8.882z" fill="url(#b)"/></svg>