<?xml version="1.0" encoding="iso-8859-1"?>
<!-- Generator: Adobe Illustrator 19.0.0, SVG Export Plug-In . SVG Version: 6.00 Build 0)  -->
<svg version="1.1" id="Capa_1" xmlns="http://www.w3.org/2000/svg" xmlns:xlink="http://www.w3.org/1999/xlink" x="0px" y="0px"
	 viewBox="0 0 480 480" style="enable-background:new 0 0 480 480;" xml:space="preserve">
<path style="fill:#78B9EB;" d="M408,480H72c-8.837,0-16-7.163-16-16V16c0-8.837,7.163-16,16-16h264l88,88v376
	C424,472.837,416.837,480,408,480z"/>
<path style="fill:#679FC9;" d="M336,0v72c0,8.837,7.163,16,16,16h72L336,0z"/>
<path style="fill:#FBB040;" d="M113.016,128h109.968c4.979,0,9.016,4.037,9.016,9.016v141.968c0,4.979-4.037,9.016-9.016,9.016
	H113.016c-4.979,0-9.016-4.037-9.016-9.016V137.016C104,132.037,108.037,128,113.016,128z"/>
<g>
	<path style="fill:#FFFFFF;" d="M104,48h16v16h-16V48z"/>
	<path style="fill:#FFFFFF;" d="M136,48h160v16H136V48z"/>
	<path style="fill:#FFFFFF;" d="M104,80h192v16H104V80z"/>
	<path style="fill:#FFFFFF;" d="M248,128h16v16h-16V128z"/>
	<path style="fill:#FFFFFF;" d="M280,128h96v16h-96V128z"/>
	<path style="fill:#FFFFFF;" d="M248,176h128v16H248V176z"/>
	<path style="fill:#FFFFFF;" d="M248,224h128v16H248V224z"/>
	<path style="fill:#FFFFFF;" d="M248,272h128v16H248V272z"/>
	<path style="fill:#FFFFFF;" d="M104,320h16v16h-16V320z"/>
	<path style="fill:#FFFFFF;" d="M136,320h240v16H136V320z"/>
	<path style="fill:#FFFFFF;" d="M104,368h272v16H104V368z"/>
	<path style="fill:#FFFFFF;" d="M104,416h272v16H104V416z"/>
</g>
<g>
</g>
<g>
</g>
<g>
</g>
<g>
</g>
<g>
</g>
<g>
</g>
<g>
</g>
<g>
</g>
<g>
</g>
<g>
</g>
<g>
</g>
<g>
</g>
<g>
</g>
<g>
</g>
<g>
</g>
</svg>
