<svg viewBox="0 0 480 480" xmlns="http://www.w3.org/2000/svg"><path d="M343.992 168l-104 56v128l104-56zm0 0" fill="#9bc9ff"/><path d="M343.992 168l-104-56-104 56 104 56zm0 0M135.992 168v128l104 56V224zm0 0" fill="#9bc9ff"/><g fill="#1e81ce"><path d="M351.992 163.2l-112-60.29-112 60.29v137.6l112 60.313 112-60.312zm-24.87 4.8l-87.13 46.91L152.863 168l87.13-46.91zm-183.13 13.39l88 47.41v109.81l-88-47.41zm104 157.22V228.8l88-47.386V291.2zm0 0M439.992 400c-19 .023-35.37 13.387-39.199 32h-72.8a8 8 0 01-8-8v-72h-16v72c0 13.254 10.745 24 24 24h72.8c4.207 20.625 23.68 34.457 44.543 31.64 20.86-2.816 35.969-21.316 34.559-42.316-1.41-21.004-18.856-37.32-39.903-37.324zm0 64c-13.254 0-24-10.746-24-24s10.746-24 24-24 24 10.746 24 24-10.746 24-24 24zm0 0M159.992 424a8 8 0 01-8 8h-72.8c-4.106-20.121-22.782-33.863-43.212-31.797C15.55 402.266 0 419.465 0 440s15.55 37.734 35.98 39.797C56.41 481.863 75.086 468.12 79.191 448h72.801c13.254 0 24-10.746 24-24v-72h-16zm-120 40c-13.254 0-24-10.746-24-24s10.746-24 24-24 24 10.746 24 24-10.746 24-24 24zm0 0M319.992 56a8 8 0 018-8h72.801c4.105 20.121 22.781 33.863 43.21 31.797 20.43-2.063 35.981-19.262 35.981-39.797S464.434 2.266 444.004.203C423.574-1.863 404.898 11.88 400.793 32h-72.8c-13.255 0-24 10.746-24 24v64h16zm120-40c13.254 0 24 10.746 24 24s-10.746 24-24 24-24-10.746-24-24 10.746-24 24-24zm0 0M39.992 80c19-.023 35.371-13.387 39.2-32h72.8a8 8 0 018 8v64h16V56c0-13.254-10.746-24-24-24h-72.8C74.98 11.375 55.507-2.457 34.647.36 13.79 3.175-1.32 21.675.09 42.675 1.5 63.68 18.94 79.996 39.992 80zm0-64c13.254 0 24 10.746 24 24s-10.746 24-24 24-24-10.746-24-24 10.746-24 24-24zm0 0"/><path d="M431.992 32h16v16h-16zm0 0M439.992 200c-19 .023-35.37 13.387-39.199 32h-32.8v16h32.8c4.207 20.625 23.68 34.457 44.543 31.64 20.86-2.816 35.969-21.316 34.559-42.316-1.41-21.004-18.856-37.32-39.903-37.324zm0 64c-13.254 0-24-10.746-24-24s10.746-24 24-24 24 10.746 24 24-10.746 24-24 24zm0 0"/><path d="M431.992 232h16v16h-16zm0 0M431.992 432h16v16h-16zm0 0M31.992 432h16v16h-16zm0 0M31.992 32h16v16h-16zm0 0M39.992 280c19-.023 35.371-13.387 39.2-32h32.8v-16h-32.8c-4.212-20.625-23.684-34.457-44.544-31.64C13.79 203.175-1.32 221.675.09 242.675 1.5 263.68 18.94 279.996 39.992 280zm0-64c13.254 0 24 10.746 24 24s-10.746 24-24 24-24-10.746-24-24 10.746-24 24-24zm0 0"/><path d="M31.992 232h16v16h-16zm0 0"/></g></svg>