<svg height="480pt" viewBox="0 0 480 480" width="480pt" xmlns="http://www.w3.org/2000/svg"><path d="m343.992188 168-104 56v128l104-56zm0 0" fill="#9bc9ff"/><path d="m343.992188 168-104-56-104 56 104 56zm0 0" fill="#9bc9ff"/><path d="m135.992188 168v128l104 56v-128zm0 0" fill="#9bc9ff"/><g fill="#1e81ce"><path d="m351.992188 163.199219-112-60.289063-112 60.289063v137.601562l112 60.3125 112-60.3125zm-24.871094 4.800781-87.128906 46.910156-87.128907-46.910156 87.128907-46.910156zm-183.128906 13.390625 88 47.410156v109.808594l-88-47.410156zm104 157.21875v-109.808594l88-47.386719v109.785157zm0 0"/><path d="m439.992188 400c-19 .023438-35.371094 13.386719-39.199219 32h-72.800781c-4.417969 0-8-3.582031-8-8v-72h-16v72c0 13.253906 10.746093 24 24 24h72.800781c4.207031 20.625 23.679687 34.457031 44.542969 31.640625 20.859374-2.816406 35.96875-21.316406 34.558593-42.316406-1.410156-21.003907-18.855469-37.320313-39.902343-37.324219zm0 64c-13.253907 0-24-10.746094-24-24s10.746093-24 24-24c13.253906 0 24 10.746094 24 24s-10.746094 24-24 24zm0 0"/><path d="m159.992188 424c0 4.417969-3.582032 8-8 8h-72.800782c-4.105468-20.121094-22.78125-33.863281-43.210937-31.796875-20.429688 2.0625-35.980469 19.261719-35.980469 39.796875s15.550781 37.734375 35.980469 39.796875c20.429687 2.066406 39.105469-11.675781 43.210937-31.796875h72.800782c13.253906 0 24-10.746094 24-24v-72h-16zm-120 40c-13.253907 0-24-10.746094-24-24s10.746093-24 24-24c13.253906 0 24 10.746094 24 24s-10.746094 24-24 24zm0 0"/><path d="m319.992188 56c0-4.417969 3.582031-8 8-8h72.800781c4.105469 20.121094 22.78125 33.863281 43.210937 31.796875 20.429688-2.0625 35.980469-19.261719 35.980469-39.796875s-15.550781-37.734375-35.980469-39.796875c-20.429687-2.066406-39.105468 11.675781-43.210937 31.796875h-72.800781c-13.253907 0-24 10.746094-24 24v64h16zm120-40c13.253906 0 24 10.746094 24 24s-10.746094 24-24 24c-13.253907 0-24-10.746094-24-24s10.746093-24 24-24zm0 0"/><path d="m39.992188 80c19-.023438 35.371093-13.386719 39.199218-32h72.800782c4.417968 0 8 3.582031 8 8v64h16v-64c0-13.253906-10.746094-24-24-24h-72.800782c-4.210937-20.625-23.683594-34.457031-44.542968-31.640625-20.859376 2.816406-35.96875 21.316406-34.5585942 42.316406 1.4101562 21.003907 18.8515622 37.320313 39.9023442 37.324219zm0-64c13.253906 0 24 10.746094 24 24s-10.746094 24-24 24c-13.253907 0-24-10.746094-24-24s10.746093-24 24-24zm0 0"/><path d="m431.992188 32h16v16h-16zm0 0"/><path d="m439.992188 200c-19 .023438-35.371094 13.386719-39.199219 32h-32.800781v16h32.800781c4.207031 20.625 23.679687 34.457031 44.542969 31.640625 20.859374-2.816406 35.96875-21.316406 34.558593-42.316406-1.410156-21.003907-18.855469-37.320313-39.902343-37.324219zm0 64c-13.253907 0-24-10.746094-24-24s10.746093-24 24-24c13.253906 0 24 10.746094 24 24s-10.746094 24-24 24zm0 0"/><path d="m431.992188 232h16v16h-16zm0 0"/><path d="m431.992188 432h16v16h-16zm0 0"/><path d="m31.992188 432h16v16h-16zm0 0"/><path d="m31.992188 32h16v16h-16zm0 0"/><path d="m39.992188 280c19-.023438 35.371093-13.386719 39.199218-32h32.800782v-16h-32.800782c-4.210937-20.625-23.683594-34.457031-44.542968-31.640625-20.859376 2.816406-35.96875 21.316406-34.5585942 42.316406 1.4101562 21.003907 18.8515622 37.320313 39.9023442 37.324219zm0-64c13.253906 0 24 10.746094 24 24s-10.746094 24-24 24c-13.253907 0-24-10.746094-24-24s10.746093-24 24-24zm0 0"/><path d="m31.992188 232h16v16h-16zm0 0"/></g></svg>