<svg viewBox="0 0 512 512" xmlns="http://www.w3.org/2000/svg"><path d="M432.608 97.334c-53.893 0-106.184 10.56-155.422 31.385-47.547 20.111-90.246 48.897-126.908 85.56s-65.449 79.36-85.559 126.908C49.56 377.026 39.847 414.485 35.68 453h40.266c9.554-79.455 45.147-152.967 102.617-210.438 67.858-67.858 158.08-105.229 254.045-105.229H512v-40h-79.392z" fill="#aeadb3"/><path d="M240.542 423.832l-36.805-15.665c41.756-98.108 137.627-161.501 244.242-161.501h64v40h-64c-90.548.001-171.972 53.841-207.437 137.166z" fill="#8f8e92"/><path d="M37.667 21.333h40V512h-40z" fill="#e4e4e6"/><path d="M187 21.333h40V512h-40z" fill="#c6c5c9"/><path d="M0 473.667h132.333L140.399 416l-8.066-57.667H0z" fill="#ffb62d"/><path d="M132.333 358.333h132.333v115.333H132.333z" fill="#f90"/><path d="M0 260.333h132.333l8.066-57.666L132.333 145H0z" fill="#ffb62d"/><path d="M132.333 145h132.333v115.333H132.333z" fill="#f90"/><g><path d="M358.333 59.667V192L416 200.066 473.667 192V59.667z" fill="#eb8d00"/><path d="M358.333 192h115.333v132.333H358.333z" fill="#bd6800"/></g><g><path d="M0 47.332h132.333l8.066-27.665L132.333 0H0z" fill="#ffb62d"/><path d="M132.333 0h132.333v47.332H132.333z" fill="#f90"/></g></svg>