<svg xmlns="http://www.w3.org/2000/svg" viewBox="0 0 496.221 496.221"><linearGradient id="a" gradientUnits="userSpaceOnUse" x1="-61.809" y1="560.681" x2="9.379" y2="631.875" gradientTransform="matrix(8 0 0 -8 454.204 5013.954)"><stop offset="0" stop-color="#003f8a"/><stop offset=".148" stop-color="#024089"/><stop offset=".201" stop-color="#094485"/><stop offset=".239" stop-color="#144a7f"/><stop offset=".269" stop-color="#255476"/><stop offset=".296" stop-color="#3b606a"/><stop offset=".319" stop-color="#576f5b"/><stop offset=".34" stop-color="#77814a"/><stop offset=".359" stop-color="#9d9635"/><stop offset=".377" stop-color="#c8ae1e"/><stop offset=".393" stop-color="#f6c805"/><stop offset=".396" stop-color="#ffcd00"/><stop offset=".402" stop-color="#e2c91b"/><stop offset=".414" stop-color="#b3c447"/><stop offset=".426" stop-color="#88bf6f"/><stop offset=".439" stop-color="#63ba92"/><stop offset=".454" stop-color="#44b6af"/><stop offset=".469" stop-color="#2bb3c6"/><stop offset=".486" stop-color="#18b1d9"/><stop offset=".506" stop-color="#0aafe5"/><stop offset=".531" stop-color="#02aeed"/><stop offset=".577" stop-color="#00aeef"/><stop offset=".608" stop-color="#009de0"/><stop offset=".682" stop-color="#007bc1"/><stop offset=".758" stop-color="#0061a9"/><stop offset=".835" stop-color="#004e98"/><stop offset=".915" stop-color="#00438d"/><stop offset="1" stop-color="#003f8a"/></linearGradient><path d="M440.114 304.106c-.024-19.001-13.389-35.373-32-39.2V46.634c12.497-4.418 19.046-18.131 14.627-30.627S404.61-3.039 392.114 1.379s-19.046 18.131-14.627 30.627a23.998 23.998 0 0014.627 14.627v218.272c-21.65 4.396-35.636 25.51-31.24 47.16a40 40 0 0031.24 31.24v56.8c0 39.764-32.236 72-72 72s-72-32.236-72-72v-192.8c21.65-4.396 35.636-25.51 31.24-47.16a40 40 0 00-31.24-31.24v-32.8c0-48.601-39.399-88-88-88s-88 39.399-88 88v352c.048.469.142.933.28 1.384-12.55 4.264-19.268 17.894-15.004 30.444 4.264 12.55 17.894 19.268 30.444 15.004s19.268-17.894 15.004-30.444a23.997 23.997 0 00-15.004-15.004c.138-.451.232-.915.28-1.384v-352c0-39.765 32.236-72 72-72s72 32.235 72 72v32.8c-21.65 4.396-35.636 25.51-31.24 47.16a40 40 0 0031.24 31.24v192.8c0 48.601 39.399 88 88 88s88-39.399 88-88v-56.8c18.611-3.827 31.976-20.198 32-39.199zm-360 176a8 8 0 110-16 8 8 0 010 16zm136-312c0-13.255 10.745-24 24-24s24 10.745 24 24-10.745 24-24 24-24-10.745-24-24zm184-152a8 8 0 110 16 8 8 0 010-16zm0 312c-13.255 0-24-10.745-24-24s10.745-24 24-24 24 10.745 24 24-10.745 24-24 24z" fill="url(#a)"/></svg>