<svg id="Capa_1" enable-background="new 0 0 511.954 511.954" height="512" viewBox="0 0 511.954 511.954" width="512" xmlns="http://www.w3.org/2000/svg"><g><path d="m240.822 200.342h30v106.67h-30z" fill="#626d7f"/><path d="m255.822 200.342h15v106.67h-15z" fill="#464f53"/><path d="m141.176 84.94 15.034 41.405 25.969 29.614c18.116-8.486 37.932-13.94 58.798-15.72l8.845-41.217-8.845-40.766c-35.725 2.065-69.485 11.446-99.801 26.684z" fill="#ffea01"/><path d="m270.982 58.232v82c-4.53-.39-9.1-.61-13.72-.64h-1.44c-5 .01-9.95.23-14.84.65v-81.99c3.39-.19 6.8-.34 10.23-.4 1.54-.03 3.08-.05 4.61-.05 5.09-.01 10.14.14 15.16.43z" fill="#fff"/><circle cx="255.822" cy="341.262" fill="#ff6826" r="49.25"/><path d="m183.732 424.152h144.18v30h-144.18z" fill="#626d7f"/><path d="m42.16 173.013 30.662 27.329 40.359 13.675c11.715-16.737 26.292-31.323 43.029-43.038l-12.055-39.633-28.949-31.386c-29.017 19.142-53.903 44.035-73.046 73.053z" fill="#ffa84a"/><path d="m270.977 58.23-7.655 40.787 7.655 41.219c20.832 1.794 40.628 7.297 58.737 15.829l29.441-31.386 11.695-39.864c-30.342-15.19-64.125-24.54-99.873-26.585z" fill="#ffc303"/><path d="m396.843 99.795-27.354 32.884-13.838 38.463c16.688 11.723 31.247 26.286 42.957 42.971l39.881-12.434 31.496-28.775c-19.149-29.1-44.075-53.992-73.142-73.109z" fill="#80c200"/><path d="m411.541 392.237c-9.83 19.451-2.933 43.173 15.941 54.07 20.3 11.721 46.304 4.028 56.911-16.876 15.493-30.533 25.039-64.59 27.124-100.649l-40.782-10.102-41.22 10.102c-1.935 22.667-8.193 44.1-17.974 63.455z" fill="#019a5a"/><path d="m27.622 429.549c10.594 20.852 36.597 28.452 56.852 16.757 18.823-10.867 25.829-34.544 16.008-53.934-9.821-19.391-16.112-40.87-18.051-63.591l-41.214-7.102-40.782 7.102c2.088 36.107 11.659 70.204 27.187 100.768z" fill="#ff6826"/><path d="m.449 298.781 40.768 7.564 41.217-7.564c1.78-20.866 7.238-40.681 15.723-58.797l-31.003-28.639-40.022-12.368c-15.237 30.317-24.618 64.079-26.683 99.804z" fill="#ff8548"/><path d="m484.979 198.888-39.824 12.791-31.474 28.372c8.539 18.126 14.032 37.929 15.833 58.73l42.975 8.231 39.019-8.231c-2.053-35.845-11.374-69.618-26.529-99.893z" fill="#01b71d"/><path d="m0 313.781c0 5.036.149 10.036.436 15h81.996c-.422-4.945-.646-9.946-.646-15s.228-10.055.65-15h-81.987c-.287 4.965-.449 9.963-.449 15z" fill="#fff"/><g fill="#d7e5f4"><path d="m511.924 309.749c-.057-3.678-.208-7.331-.417-10.968h-81.993c.488 5.635.711 11.342.643 17.111-.052 4.338-.28 8.633-.643 12.889h82.002c.364-6.286.506-12.632.408-19.032z"/><path d="m469.985 172.904-71.377 41.209c5.733 8.168 10.788 16.841 15.073 25.938l71.298-41.164c-4.496-8.982-9.512-17.652-14.994-25.983z"/><path d="m370.851 84.815-41.136 71.25c9.101 4.288 17.772 9.343 25.936 15.077l41.192-71.347c-8.336-5.483-17.014-10.486-25.992-14.98z"/></g><path d="m115.207 99.959 41.003 71.02c8.17-5.719 16.855-10.75 25.969-15.02l-41.003-71.019c-8.97 4.509-17.641 9.525-25.969 15.019z" fill="#fff"/><path d="m27.133 198.978 71.025 41.006c4.269-9.114 9.303-17.797 15.022-25.968l-71.02-41.003c-5.494 8.329-10.518 16.995-15.027 25.965z" fill="#fff"/><path d="m255.822 424.152h72.09v30h-72.09z" fill="#464f53"/><path d="m257.262 139.592h-1.44v-81.79c5.09-.01 10.14.14 15.16.43v82c-4.53-.39-9.1-.61-13.72-.64z" fill="#d7e5f4"/><path d="m305.072 341.262c0 27.16-22.09 49.25-49.25 49.25v-98.5c27.16 0 49.25 22.09 49.25 49.25z" fill="#e50057"/></g></svg>