<svg viewBox="0 0 511.954 511.954" xmlns="http://www.w3.org/2000/svg"><path d="M240.822 200.342h30v106.67h-30z" fill="#626d7f"/><path d="M255.822 200.342h15v106.67h-15z" fill="#464f53"/><path d="M141.176 84.94l15.034 41.405 25.969 29.614c18.116-8.486 37.932-13.94 58.798-15.72l8.845-41.217-8.845-40.766c-35.725 2.065-69.485 11.446-99.801 26.684z" fill="#ffea01"/><path d="M270.982 58.232v82c-4.53-.39-9.1-.61-13.72-.64h-1.44c-5 .01-9.95.23-14.84.65v-81.99a265.782 265.782 0 0114.84-.45c5.09-.01 10.14.14 15.16.43z" fill="#fff"/><circle cx="255.822" cy="341.262" fill="#ff6826" r="49.25"/><path d="M183.732 424.152h144.18v30h-144.18z" fill="#626d7f"/><path d="M42.16 173.013l30.662 27.329 40.359 13.675a175.164 175.164 0 0143.029-43.038l-12.055-39.633-28.949-31.386a257.355 257.355 0 00-73.046 73.053z" fill="#ffa84a"/><path d="M270.977 58.23l-7.655 40.787 7.655 41.219a172.314 172.314 0 0158.737 15.829l29.441-31.386 11.695-39.864c-30.342-15.19-64.125-24.54-99.873-26.585z" fill="#ffc303"/><path d="M396.843 99.795l-27.354 32.884-13.838 38.463a176.402 176.402 0 0142.957 42.971l39.881-12.434 31.496-28.775a255.968 255.968 0 00-73.142-73.109z" fill="#80c200"/><path d="M411.541 392.237c-9.83 19.451-2.933 43.173 15.941 54.07 20.3 11.721 46.304 4.028 56.911-16.876 15.493-30.533 25.039-64.59 27.124-100.649l-40.782-10.102-41.22 10.102c-1.935 22.667-8.193 44.1-17.974 63.455z" fill="#019a5a"/><path d="M27.622 429.549c10.594 20.852 36.597 28.452 56.852 16.757 18.823-10.867 25.829-34.544 16.008-53.934-9.821-19.391-16.112-40.87-18.051-63.591l-41.214-7.102-40.782 7.102c2.088 36.107 11.659 70.204 27.187 100.768z" fill="#ff6826"/><path d="M.449 298.781l40.768 7.564 41.217-7.564a173.112 173.112 0 0115.723-58.797l-31.003-28.639-40.022-12.368C11.895 229.294 2.514 263.056.449 298.781z" fill="#ff8548"/><path d="M484.979 198.888l-39.824 12.791-31.474 28.372a172.576 172.576 0 0115.833 58.73l42.975 8.231 39.019-8.231c-2.053-35.845-11.374-69.618-26.529-99.893z" fill="#01b71d"/><path d="M0 313.781c0 5.036.149 10.036.436 15h81.996c-.422-4.945-.646-9.946-.646-15s.228-10.055.65-15H.449a259.777 259.777 0 00-.449 15z" fill="#fff"/><g fill="#d7e5f4"><path d="M511.924 309.749a261.725 261.725 0 00-.417-10.968h-81.993c.488 5.635.711 11.342.643 17.111-.052 4.338-.28 8.633-.643 12.889h82.002c.364-6.286.506-12.632.408-19.032zM469.985 172.904l-71.377 41.209a174.865 174.865 0 0115.073 25.938l71.298-41.164a254.572 254.572 0 00-14.994-25.983zM370.851 84.815l-41.136 71.25a174.635 174.635 0 0125.936 15.077l41.192-71.347a255.003 255.003 0 00-25.992-14.98z"/></g><path d="M115.207 99.959l41.003 71.02a174.038 174.038 0 0125.969-15.02L141.176 84.94a255.727 255.727 0 00-25.969 15.019zM27.133 198.978l71.025 41.006a174.003 174.003 0 0115.022-25.968l-71.02-41.003a255.841 255.841 0 00-15.027 25.965z" fill="#fff"/><path d="M255.822 424.152h72.09v30h-72.09z" fill="#464f53"/><path d="M257.262 139.592h-1.44v-81.79c5.09-.01 10.14.14 15.16.43v82c-4.53-.39-9.1-.61-13.72-.64z" fill="#d7e5f4"/><path d="M305.072 341.262c0 27.16-22.09 49.25-49.25 49.25v-98.5c27.16 0 49.25 22.09 49.25 49.25z" fill="#e50057"/></svg>