<svg viewBox="0 0 512.104 512.104" xmlns="http://www.w3.org/2000/svg"><path d="M506.755 395.545c-4.282-11.759-16.463-18.674-28.755-16.325l-128.923 24.643c12.22-2.107 21.149-12.706 21.149-25.107 0-14.793-12.557-26.477-27.312-25.412l-29.648 2.14a69.72 69.72 0 01-41.088-9.873l-35.054-21.188a72.689 72.689 0 00-70.101-2.811l-57.455 28.72-20.302 13.935v93.882l20.302 21.883 33.238 13.557a214.34 214.34 0 00151.992 3.758l196.444-69.011c13.398-4.706 20.372-19.448 15.513-32.791z" fill="#f1d0a5"/><path d="M506.755 395.545a25.424 25.424 0 00-2.453-4.934c-2.646 6.563-7.991 12.004-15.2 14.536l-196.444 69.011c-56.204 19.745-104.988 11.422-134.766 2.283-18.075-5.547-30.398-22.252-30.398-41.159v-93.908l-17.924 8.96v129.699l33.238 13.557a214.34 214.34 0 00151.992 3.758l196.444-69.011c13.396-4.707 20.37-19.449 15.511-32.792z" fill="#f1b986"/><path d="M256.736 424.845c-10.291 0-20.576-.881-30.794-2.645l-24.389-4.208a7.613 7.613 0 012.589-15.005l24.389 4.208a165.425 165.425 0 0056.383.005l62.869-10.839a7.605 7.605 0 018.796 6.209 7.612 7.612 0 01-6.209 8.796l-62.869 10.839a180.955 180.955 0 01-30.765 2.64z" fill="#f1b986"/><path d="M96.415 512.104h-79.46c-7.264 0-13.153-5.889-13.153-13.153v-174.09c0-7.264 5.889-13.153 13.153-13.153h79.46c7.264 0 13.153 5.889 13.153 13.153v174.091c0 7.263-5.888 13.152-13.153 13.152z" fill="#365e7d"/><path d="M96.415 311.708H73.594c7.264 0 13.153 5.889 13.153 13.153v174.091c0 7.264-5.889 13.153-13.153 13.153h22.821c7.264 0 13.153-5.889 13.153-13.153V324.861c0-7.265-5.888-13.153-13.153-13.153z" fill="#2b4d66"/><path d="M68.903 475.378a7.612 7.612 0 01-7.613-7.613v-19.228c0-4.205 3.408-7.613 7.613-7.613s7.613 3.408 7.613 7.613v19.228a7.612 7.612 0 01-7.613 7.613z" fill="#fff6f4"/><path d="M394.724 170.99c0-46.528-37.403-84.319-83.781-84.948-46.578-.631-85.302 36.853-86.116 83.427-.525 30.021 14.529 56.558 37.61 72.072 3.569 2.399 5.734 6.393 5.734 10.693v12.34l12.123 12.334h53.473l17.6-12.334v-12.341c0-4.291 2.152-8.286 5.714-10.679 22.702-15.249 37.643-41.16 37.643-70.564z" fill="#f6e266"/><path d="M310.943 86.043a84.787 84.787 0 00-12.932.814c41.392 5.693 73.281 41.177 73.281 84.133 0 29.404-14.941 55.315-37.643 70.565a12.87 12.87 0 00-5.714 10.679v12.341l-17.6 12.334h23.432l17.6-12.334v-12.341c0-4.291 2.152-8.286 5.714-10.679 22.702-15.25 37.643-41.161 37.643-70.565 0-46.528-37.402-84.319-83.781-84.947z" fill="#ecbe6b"/><path d="M309.769 282.34a7.612 7.612 0 01-7.613-7.613v-68.872c0-4.205 3.408-7.613 7.613-7.613s7.613 3.408 7.613 7.613v68.872a7.612 7.612 0 01-7.613 7.613z" fill="#4a80aa"/><path d="M309.769 212.084c-14.115 0-25.598-11.483-25.598-25.598 0-4.205 3.408-7.613 7.613-7.613s7.613 3.408 7.613 7.613c0 5.719 4.653 10.372 10.372 10.372s10.371-4.653 10.371-10.372c0-4.205 3.408-7.613 7.613-7.613s7.613 3.408 7.613 7.613c.001 14.114-11.483 25.598-25.597 25.598z" fill="#4a80aa"/><path d="M324.779 316.93h-30.02c-14.684 0-26.588-11.904-26.588-26.588v-25.767h83.196v25.767c0 14.685-11.904 26.588-26.588 26.588z" fill="#365e7d"/><path d="M327.935 264.576v25.767c0 14.684-11.904 26.588-26.588 26.588h23.432c14.684 0 26.588-11.904 26.588-26.588v-25.767z" fill="#2b4d66"/><path d="M309.769 47.973a7.612 7.612 0 01-7.613-7.613V7.613c0-4.205 3.408-7.613 7.613-7.613s7.613 3.408 7.613 7.613V40.36a7.612 7.612 0 01-7.613 7.613zm88.984 36.857a7.614 7.614 0 01-5.384-12.996l23.155-23.155a7.614 7.614 0 0110.767 10.767l-23.155 23.155a7.59 7.59 0 01-5.383 2.229zm-177.968.001a7.594 7.594 0 01-5.384-2.229l-23.156-23.156a7.614 7.614 0 0110.768-10.767l23.156 23.156a7.614 7.614 0 01-5.384 12.996zm-36.858 88.984H151.18c-4.205 0-7.613-3.408-7.613-7.613s3.408-7.613 7.613-7.613h32.747c4.205 0 7.613 3.408 7.613 7.613s-3.408 7.613-7.613 7.613zm284.43 0h-32.746c-4.205 0-7.613-3.408-7.613-7.613s3.408-7.613 7.613-7.613h32.746c4.205 0 7.613 3.408 7.613 7.613s-3.408 7.613-7.613 7.613z" fill="#dd636e"/></svg>