<svg viewBox="0 0 46 60" xmlns="http://www.w3.org/2000/svg"><g fill-rule="nonzero" fill="none"><circle cx="23" cy="27" fill="#f4cea4" r="5"/><path d="M28 49.25c6.39.66 11 2.54 11 4.75 0 2.76-7.16 5-16 5S7 56.76 7 54c0-2.21 4.61-4.09 11-4.75z" fill="#e9931f"/><path d="M6 60a1 1 0 01-.361-.067C1.9 58.483 0 56.489 0 54s1.9-4.488 5.639-5.937a1 1 0 01.721 1.866C3.467 51.053 2 52.422 2 54c0 1.963 2.372 3.293 4.361 4.063A1 1 0 016 60zM40 60a1 1 0 01-.361-1.933C41.628 57.3 44 55.967 44 54c0-1.581-1.467-2.95-4.361-4.071a1 1 0 11.723-1.866C44.1 49.517 46 51.515 46 54s-1.9 4.479-5.639 5.929A1 1 0 0140 60z" fill="#e7bb19"/><path d="M36.37 43.16a2.5 2.5 0 01-3.53.21L28 39.62V48H18v-8.38l-4.84 4.12A2.5 2.5 0 119.84 40l7.46-6.52A6.048 6.048 0 0121.25 32h3.58a6 6 0 013.84 1.39l7.49 6.24a2.5 2.5 0 01.21 3.53z" fill="#ff5364"/><path d="M18 47h10v7.75H18z" fill="#285680"/><path d="M18 10.75C11.61 10.09 7 8.21 7 6c0-2.76 7.16-5 16-5s16 2.24 16 5c0 2.21-4.61 4.09-11 4.75z" fill="#2f9fc3"/><path d="M23 5v8.5a2.5 2.5 0 11-5 0V5.25z" fill="#2c3e50"/><path d="M28 5.25v8.25a2.5 2.5 0 11-5 0V5z" fill="#285680"/><path d="M6 12a1 1 0 01-.361-.067C1.9 10.483 0 8.489 0 6S1.9 1.516 5.639.067a1 1 0 01.721 1.866C3.467 3.053 2 4.422 2 6c0 1.963 2.372 3.293 4.361 4.063A1 1 0 016 12zM40 12a1 1 0 01-.361-1.933C41.628 9.3 44 7.967 44 6c0-1.581-1.467-2.95-4.361-4.071a1 1 0 01.723-1.862C44.1 1.517 46 3.515 46 6s-1.9 4.479-5.639 5.929A1 1 0 0140 12z" fill="#67b0c3"/><path d="M23 56a1 1 0 01-1-1v-4a1 1 0 012 0v4a1 1 0 01-1 1z" fill="#2c3e50"/><path d="M23 56a47.86 47.86 0 01-7.086-.5 1 1 0 01.3-1.978c2.247.328 4.515.487 6.786.478a45.546 45.546 0 006.969-.51 1 1 0 11.307 1.977c-2.408.363-4.84.542-7.276.533z" fill="#dc7e25"/><path d="M30.124 6.521c-.052 0-.104-.003-.155-.011A45.546 45.546 0 0023 6a45.735 45.735 0 00-6.788.482 1 1 0 11-.3-1.978A47.86 47.86 0 0123 4c2.435-.009 4.868.17 7.276.533a1 1 0 01-.152 1.988z" fill="#2980b1"/></g></svg>