<svg viewBox="0 0 512 512" xmlns="http://www.w3.org/2000/svg"><path d="M81.68 313.48l-75-45C2.505 265.697 0 261.01 0 256s2.505-9.697 6.68-12.48l75-45c4.585-3.047 10.532-3.369 15.396-.747A14.996 14.996 0 01105 211v15h61c8.291 0 15 6.709 15 15v30c0 8.291-6.709 15-15 15h-61v15a14.997 14.997 0 01-23.32 12.48z" fill="#76e2f8"/><path d="M414.925 314.228A14.997 14.997 0 01407 301v-15h-61c-8.291 0-15-6.709-15-15v-30c0-8.291 6.709-15 15-15h61v-15c0-5.537 3.047-10.62 7.925-13.228 4.878-2.622 10.796-2.3 15.396.747l75 45c4.175 2.783 6.68 7.471 6.68 12.48s-2.505 9.697-6.68 12.48l-75 45a15.001 15.001 0 01-15.396.749z" fill="#73bcff"/><path d="M211 105h15v61c0 8.291 6.709 15 15 15h30c8.291 0 15-6.709 15-15v-61h15a14.997 14.997 0 0012.481-23.321l-45-75.417C265.697 2.087 260.849 0 256 0s-9.697 2.087-12.48 6.262l-45 75.417c-3.062 4.6-3.354 10.518-.747 15.396S205.463 105 211 105zm90 302h-15v-61c0-8.291-6.709-15-15-15h-30c-8.291 0-15 6.709-15 15v61h-15a14.997 14.997 0 00-12.481 23.321l45 75c2.783 4.175 7.471 6.68 12.48 6.68s9.697-2.505 12.48-6.68l45-75c3.062-4.6 3.354-10.518.747-15.396S306.537 407 301 407z" fill="#76e2f8"/><path d="M286 166v-61h15a14.997 14.997 0 0012.481-23.321l-45-75.417C265.697 2.087 260.849 0 256 0v181h15c8.291 0 15-6.709 15-15zm27.48 264.32c3.062-4.6 3.354-10.518.747-15.396S306.537 407 301 407h-15v-61c0-8.291-6.709-15-15-15h-15v181c5.01 0 9.697-2.505 12.48-6.68z" fill="#73bcff"/><path d="M286 211h-60c-8.291 0-15 6.709-15 15v60c0 8.291 6.709 15 15 15h60c8.291 0 15-6.709 15-15v-60c0-8.291-6.709-15-15-15z" fill="#61729b"/><path d="M301 286v-60c0-8.291-6.709-15-15-15h-30v90h30c8.291 0 15-6.709 15-15z" fill="#47568c"/></svg>