<svg id="Capa_1" enable-background="new 0 0 512 512" viewBox="0 0 512 512"
  xmlns="http://www.w3.org/2000/svg">
  <g>
    <path d="m81.68 313.48-75-45c-4.175-2.783-6.68-7.47-6.68-12.48s2.505-9.697 6.68-12.48l75-45c4.585-3.047 10.532-3.369 15.396-.747 4.877 2.607 7.924 7.69 7.924 13.227v15h61c8.291 0 15 6.709 15 15v30c0 8.291-6.709 15-15 15h-61v15c0 5.537-3.047 10.62-7.925 13.228-4.81 2.58-10.744 2.353-15.395-.748z" fill="#76e2f8"/>
    <path d="m414.925 314.228c-4.878-2.608-7.925-7.691-7.925-13.228v-15h-61c-8.291 0-15-6.709-15-15v-30c0-8.291 6.709-15 15-15h61v-15c0-5.537 3.047-10.62 7.925-13.228 4.878-2.622 10.796-2.3 15.396.747l75 45c4.175 2.783 6.68 7.471 6.68 12.48s-2.505 9.697-6.68 12.48l-75 45c-4.652 3.102-10.586 3.329-15.396.749z" fill="#73bcff"/>
    <g fill="#76e2f8">
      <path d="m211 105h15v61c0 8.291 6.709 15 15 15h15 15c8.291 0 15-6.709 15-15v-61h15c5.537 0 10.62-3.047 13.228-7.925s2.314-10.796-.747-15.396l-45-75.417c-2.784-4.175-7.632-6.262-12.481-6.262s-9.697 2.087-12.48 6.262l-45 75.417c-3.062 4.6-3.354 10.518-.747 15.396s7.69 7.925 13.227 7.925z"/>
      <path d="m301 407h-15v-61c0-8.291-6.709-15-15-15h-15-15c-8.291 0-15 6.709-15 15v61h-15c-5.537 0-10.62 3.047-13.228 7.925s-2.314 10.796.747 15.396l45 75c2.783 4.175 7.471 6.68 12.48 6.68s9.697-2.505 12.48-6.68l45-75c3.062-4.6 3.354-10.518.747-15.396s-7.689-7.925-13.226-7.925z"/>
    </g>
    <path d="m286 166v-61h15c5.537 0 10.62-3.047 13.228-7.925s2.314-10.796-.747-15.396l-45-75.417c-2.784-4.175-7.632-6.262-12.481-6.262v181h15c8.291 0 15-6.709 15-15z" fill="#73bcff"/>
    <path d="m313.48 430.32c3.062-4.6 3.354-10.518.747-15.396s-7.69-7.924-13.227-7.924h-15v-61c0-8.291-6.709-15-15-15h-15v181c5.01 0 9.697-2.505 12.48-6.68z" fill="#73bcff"/>
    <path d="m286 211h-30-30c-8.291 0-15 6.709-15 15v60c0 8.291 6.709 15 15 15h30 30c8.291 0 15-6.709 15-15v-60c0-8.291-6.709-15-15-15z" fill="#61729b"/>
    <path d="m301 286v-60c0-8.291-6.709-15-15-15h-30v90h30c8.291 0 15-6.709 15-15z" fill="#47568c"/>
  </g>
</svg>
