<svg viewBox="0 0 140 140" xmlns="http://www.w3.org/2000/svg"><circle cx="70" cy="70" fill="#4da0dc" r="64"/><path d="M134 70c0-3.79-.348-7.496-.98-11.105l-22.794-22.794-.32.12-2.64-2.64-3.04-1.79-1.15 1.14-2.49-2.49-3.47-.64-1.1 2.33c-.57-.02-1.14-.03-1.71 0l-1.07-2.36-3.48.59-.24 2.57c-.55.17-1.09.36-1.61.57l-1.81-1.84-3.07 1.74.65 2.49c-.46.34-.9.71-1.33 1.09l-2.32-1.11-1.03 1.2-8.51-8.51-1.82-1.52-.57.4-1.69-1.69-2.23-.8-.87 1.26-1.7-1.7-2.36.01-.44 1.68c-.26.03-.52.08-.78.13l-1.35-1.35-2.22.82.16 1.72c-.34.18-.67.37-1 .58l-1.41-.99-1.8 1.53.73 1.55c-.27.28-.52.58-.75.89l-1.65-.44-1.18 2.06 1.2 1.18c-.15.37-.29.74-.41 1.12l-1.67.15-.4 2.33 1.51 1.51c0 .13 0 .26.01.39l-1.51.71.42 2.32 1.67 1.67-.77.78 1.19 2.04 1.79 1.79-.1.2 4.6 4.6h-2.9l-.97 3.65c-.57.07-1.13.16-1.68.28l-2.95-2.95-4.85 1.76.33 3.75c-.75.39-1.47.81-2.18 1.26l-3.08-2.16-3.94 3.31 1.57 3.39c-.57.62-1.12 1.27-1.63 1.94l-3.6-.97-2.58 4.47 2.61 2.59c-.34.8-.64 1.61-.91 2.44l-3.65.31-.89 5.08 3.27 3.27c0 .3 0 .59.02.89l-3.29 1.53.89 5.08 3.65 3.65-1.7 1.7 2.58 4.46 3.88 3.88-.22.48 26.528 26.528A64.4 64.4 0 0070 134c35.346 0 64-28.653 64-64z" opacity=".1"/><path d="M82.486 84.63c0-.488-.013-.974-.039-1.454l3.295-1.533-.894-5.077-3.657-.316a28.299 28.299 0 00-.895-2.434l2.605-2.597-2.578-4.466-3.598.967a27.158 27.158 0 00-1.644-1.94l1.585-3.388-3.947-3.315-3.078 2.164a29.727 29.727 0 00-2.183-1.256l.335-3.75-4.847-1.762-2.164 3.098a27.492 27.492 0 00-2.466-.427l-.974-3.657h-5.156l-.973 3.657c-.836.105-1.658.25-2.467.427l-2.164-3.098-4.847 1.763.335 3.749c-.75.388-1.473.809-2.183 1.256l-3.078-2.164-3.946 3.315 1.578 3.387a27.08 27.08 0 00-1.638 1.94l-3.597-.966-2.579 4.466 2.605 2.597a28.368 28.368 0 00-.901 2.434l-3.65.316-.895 5.077 3.295 1.533a23.435 23.435 0 00-.007 2.63l-3.288 1.526.895 5.078 3.564.309c.264.855.566 1.697.901 2.519l-2.519 2.52 2.579 4.465 3.413-.921a27.73 27.73 0 001.737 2.085l-1.493 3.19 3.946 3.315 2.867-2.013c.763.5 1.56.96 2.368 1.381l-.309 3.48 4.847 1.762 1.993-2.854c.888.204 1.796.362 2.71.48l.9 3.36h5.157l.895-3.36a28.15 28.15 0 002.716-.48l1.993 2.854 4.847-1.763-.309-3.479a28.437 28.437 0 002.368-1.381l2.867 2.013 3.947-3.315-1.493-3.19a27.729 27.729 0 001.736-2.085l3.414.92 2.578-4.465-2.526-2.519a28 28 0 00.908-2.52l3.565-.308.894-5.078-3.288-1.525c.02-.395.032-.783.032-1.178zm-27.722 9.155a9.3 9.3 0 01-9.3-9.3c0-5.13 4.163-9.294 9.3-9.294s9.3 4.163 9.3 9.293a9.3 9.3 0 01-9.3 9.3z" fill="#344d5b"/><path d="M54.764 65.575c-10.444 0-18.916 8.465-18.916 18.91 0 10.45 8.472 18.915 18.916 18.915s18.91-8.465 18.91-18.916c0-10.444-8.466-18.909-18.91-18.909zm0 32.07c-7.27 0-13.162-5.892-13.162-13.162 0-7.26 5.892-13.153 13.162-13.153s13.162 5.892 13.162 13.153c0 7.27-5.892 13.162-13.162 13.162z" fill="#304551"/><path d="M113.713 47.904c-.055-.328-.12-.655-.192-.975l2.047-1.407-1.18-3.32-2.5.203a19.336 19.336 0 00-.879-1.538l1.46-2.047-2.245-2.716-2.314 1.06a18.56 18.56 0 00-1.328-1.12l.683-2.463-3.036-1.786-1.828 1.808c-.53-.22-1.065-.422-1.614-.598l-.2-2.565-3.466-.637-1.107 2.333a18.785 18.785 0 00-1.71-.008l-1.071-2.353-3.475.585-.24 2.575c-.551.166-1.089.357-1.614.568l-1.81-1.841-3.066 1.738.652 2.488c-.461.347-.901.713-1.329 1.095l-2.32-1.109-2.282 2.682 1.448 2.103a18.51 18.51 0 00-.883 1.494l-2.534-.243-1.23 3.302 2.05 1.454a19.386 19.386 0 00-.331 1.743l-2.424.627-.026 3.523 2.395.659a16.016 16.016 0 00.294 1.774l-2.043 1.4 1.18 3.32 2.437-.196c.274.546.574 1.08.893 1.595l-1.411 1.984 2.244 2.716 2.196-1.008c.45.425.92.83 1.407 1.207l-.644 2.32 3.036 1.785 1.703-1.682c.571.25 1.16.47 1.753.662l.187 2.38 3.466.637 1.019-2.15c.621.036 1.25.04 1.88.016l.99 2.162 3.474-.586.22-2.366c.608-.184 1.202-.394 1.777-.632l1.667 1.697 3.066-1.738-.604-2.31c.498-.375.977-.775 1.439-1.2l2.16 1.031 2.284-2.682-1.369-1.98c.337-.517.648-1.052.933-1.602l2.405.233 1.23-3.302-1.988-1.41c.137-.593.246-1.195.326-1.801l2.367-.613.026-3.523-2.39-.655a16.048 16.048 0 00-.111-.797zm-17.64 9.318a6.354 6.354 0 11-2.112-12.529 6.354 6.354 0 112.111 12.529z" fill="#dbd8dd"/><path d="M92.868 38.213C85.83 39.4 81.084 46.066 82.27 53.103c1.187 7.043 7.857 11.785 14.895 10.598 7.037-1.186 11.78-7.851 10.593-14.894-1.186-7.037-7.852-11.78-14.89-10.594zm3.643 21.61a8.994 8.994 0 01-10.364-7.374c-.825-4.893 2.476-9.532 7.375-10.358 4.899-.825 9.538 2.476 10.363 7.368a8.994 8.994 0 01-7.374 10.365z" fill="#b1b2b6"/><path d="M73.193 38.74c0-.223-.008-.446-.02-.666l1.507-.709-.42-2.326-1.677-.137c-.122-.38-.259-.75-.414-1.114l1.189-1.196-1.19-2.043-1.648.45a12.45 12.45 0 00-.757-.886l.72-1.556-1.815-1.512-1.407.998a13.627 13.627 0 00-1.004-.572l.147-1.72-2.226-.798-.986 1.424c-.37-.08-.748-.145-1.131-.191l-.453-1.675-2.364.01-.44 1.678c-.382.05-.759.118-1.13.2l-.997-1.415-2.219.817.16 1.718c-.342.18-.673.374-.998.58l-1.415-.986-1.803 1.527.73 1.55c-.261.284-.513.584-.747.892l-1.651-.436-1.174 2.052 1.2 1.186c-.153.365-.29.737-.41 1.117l-1.672.152-.4 2.33 1.513.696a10.747 10.747 0 00.002 1.206l-1.505.705.42 2.326 1.635.135c.122.392.262.777.418 1.153l-1.15 1.16 1.19 2.042 1.563-.428c.252.33.518.649.8.952l-.679 1.465 1.816 1.513 1.31-.928c.351.227.717.437 1.089.628l-.136 1.596 2.226.799.908-1.313c.408.092.824.163 1.243.215l.42 1.54 2.364-.01.403-1.543c.422-.056.838-.13 1.245-.225l.919 1.305 2.218-.817-.148-1.595c.37-.194.731-.407 1.083-.637l1.318.917 1.803-1.527-.69-1.46c.279-.305.543-.626.792-.959l1.566.416 1.174-2.052-1.163-1.15c.156-.378.293-.764.412-1.157l1.633-.148.4-2.33-1.51-.693c.009-.18.014-.359.013-.54zm-12.691 4.25a4.262 4.262 0 11-.035-8.524 4.262 4.262 0 11.035 8.524z" fill="#feda6f"/><path d="M60.449 30.058a8.671 8.671 0 10.07 17.338 8.671 8.671 0 00-.07-17.338zm.06 14.702a6.033 6.033 0 11-.05-12.064 6.033 6.033 0 11.05 12.064z" fill="#efc65e"/></svg>