<svg viewBox="0 0 512 512" xmlns="http://www.w3.org/2000/svg"><circle cx="256" cy="256" fill="#7584f2" r="256"/><path d="M512 256c0-9.716-.542-19.306-1.596-28.741L380.368 97.222 109.883 386.109l125.035 125.035c6.952.567 13.983.856 21.082.856 141.385 0 256-114.615 256-256z" fill="#4855b7"/><circle cx="256" cy="385.166" fill="#ffce00" r="47.891"/><path d="M256 337.275c-.089 0-.177.006-.266.007v95.769c.089 0 .177.007.266.007 26.45 0 47.891-21.442 47.891-47.891 0-26.45-21.441-47.892-47.891-47.892z" fill="#fdba12"/><path d="M389.874 355.811H122.126l54.01-203.441c9.615-36.215 42.394-61.428 79.864-61.428 37.47 0 70.249 25.213 79.864 61.428z" fill="#ffce00"/><path d="M335.864 152.37C326.249 116.155 293.47 90.942 256 90.942c-.089 0-.177.005-.266.006v264.863h134.14z" fill="#fdba12"/><path d="M109.883 325.512h292.235v60.597H109.883z" fill="#fa0"/><path d="M255.734 325.512h146.383v60.597H255.734z" fill="#ff9500"/><circle cx="335.844" cy="136.131" fill="#ff475a" r="59.131"/><path d="M394.975 136.131c0-32.567-26.329-58.978-58.862-59.124v118.249c32.533-.147 58.862-26.558 58.862-59.125z" fill="#f03049"/><path d="M330.257 175.04v-56.468l-12.95 13.184-9.45-9.917 24.5-24.617h14.467v77.818z" fill="#fff"/><path d="M336.114 97.222h10.71v77.818h-10.71z" fill="#e9edf5"/></svg>