<?xml version="1.0" encoding="iso-8859-1"?>
<!-- Generator: Adobe Illustrator 19.0.0, SVG Export Plug-In . SVG Version: 6.00 Build 0)  -->
<svg version="1.1" id="Capa_1" xmlns="http://www.w3.org/2000/svg" xmlns:xlink="http://www.w3.org/1999/xlink" x="0px" y="0px"
	 viewBox="0 0 512 512" style="enable-background:new 0 0 512 512;" xml:space="preserve">
<path style="fill:#34D1AE;" d="M426.948,127.999V88.873c0-23.72-19.229-42.948-42.948-42.948l-20.016,210.074L384,466.073
	c23.72,0,42.949-19.229,42.949-42.949V384H512v-256H426.948z"/>
<path style="fill:#46EDB5;" d="M341.051,88.873v39.126H256l-20.016,128L256,384h85.051v39.126c0,23.72,19.229,42.949,42.948,42.949
	V45.925C360.28,45.925,341.051,65.154,341.051,88.873z"/>
<path style="fill:#1AA8A8;" d="M295.126,213.051H256v-85.052h-85.052V88.873c0-23.72-19.229-42.948-42.948-42.948l0,0
	l-20.016,210.074L128,301.925l0,0c23.72,0,42.948,19.229,42.948,42.948V384H256v-85.051h39.126c23.72,0,42.949-19.229,42.949-42.948
	C338.074,232.281,318.845,213.051,295.126,213.051z"/>
<path style="fill:#4ADEE0;" d="M85.051,88.873v39.126H0v256h85.051v-39.126c0-23.72,19.229-42.948,42.949-42.948v-256
	C104.28,45.925,85.051,65.153,85.051,88.873z"/>
<g>
</g>
<g>
</g>
<g>
</g>
<g>
</g>
<g>
</g>
<g>
</g>
<g>
</g>
<g>
</g>
<g>
</g>
<g>
</g>
<g>
</g>
<g>
</g>
<g>
</g>
<g>
</g>
<g>
</g>
</svg>
