<svg xmlns="http://www.w3.org/2000/svg" viewBox="0 0 512 512"><path d="M426.948 127.999V88.873c0-23.72-19.229-42.948-42.948-42.948l-20.016 210.074L384 466.073c23.72 0 42.949-19.229 42.949-42.949V384H512V128h-85.052z" fill="#34d1ae"/><path d="M341.051 88.873v39.126H256l-20.016 128L256 384h85.051v39.126c0 23.72 19.229 42.949 42.948 42.949V45.925c-23.719 0-42.948 19.229-42.948 42.948z" fill="#46edb5"/><path d="M295.126 213.051H256v-85.052h-85.052V88.873c0-23.72-19.229-42.948-42.948-42.948l-20.016 210.074L128 301.925c23.72 0 42.948 19.229 42.948 42.948V384H256v-85.051h39.126c23.72 0 42.949-19.229 42.949-42.948-.001-23.72-19.23-42.95-42.949-42.95z" fill="#1aa8a8"/><path d="M85.051 88.873v39.126H0v256h85.051v-39.126c0-23.72 19.229-42.948 42.949-42.948v-256c-23.72 0-42.949 19.228-42.949 42.948z" fill="#4adee0"/></svg>