<!DOCTYPE svg PUBLIC "-//W3C//DTD SVG 20010904//EN" "http://www.w3.org/TR/2001/REC-SVG-20010904/DTD/svg10.dtd">
<svg version="1.0"
  xmlns="http://www.w3.org/2000/svg" viewBox="0 0 12000 1600" preserveAspectRatio="xMidYMid meet">
  <g id="layer101" fill="#013d88" stroke="none">
    <path d="M7020 1564 c-216 -57 -322 -211 -321 -468 0 -56 7 -132 16 -171 21 -93 93 -238 149 -302 182 -205 483 -271 722 -157 127 60 194 157 222 319 13 76 13 105 3 188 -13 101 -46 219 -80 283 -83 155 -226 264 -402 308 -81 20 -234 20 -309 0z m310 -200 c142 -66 245 -262 245 -469 0 -134 -44 -220 -135 -268 -50 -26 -63 -28 -135 -25 -99 4 -153 29 -225 101 -92 93 -140 229 -139 393 0 145 44 234 133 275 64 29 185 26 256 -7z"/>
    <path d="M8165 1563 c-69 -24 -135 -92 -158 -162 -26 -82 -22 -176 19 -367 19 -93 39 -189 44 -214 17 -81 70 -331 76 -356 6 -24 7 -24 126 -24 109 0 119 2 114 18 -3 9 -10 40 -15 67 -6 28 -28 138 -51 245 -100 484 -101 485 -76 545 23 54 67 75 157 75 65 0 85 -5 137 -31 116 -58 195 -177 232 -349 32 -149 60 -284 90 -430 l27 -135 120 -3 120 -3 -32 158 c-49 239 -90 435 -179 863 -9 41 -16 78 -16 83 0 4 -49 7 -110 7 -125 0 -118 7 -96 -97 7 -35 11 -63 7 -63 -3 0 -28 23 -56 51 -48 49 -108 86 -185 117 -57 22 -235 25 -295 5z"/>
    <path d="M10251 1554 c-119 -40 -203 -111 -256 -215 -114 -222 -42 -576 157 -765 141 -136 341 -192 534 -150 158 34 258 124 315 282 17 47 22 84 23 189 0 72 -2 138 -6 148 -7 16 -37 17 -424 17 l-417 0 5 85 c8 114 42 178 118 218 46 24 63 27 144 27 74 0 100 -4 141 -24 55 -25 103 -74 124 -124 l13 -32 119 0 118 0 -14 41 c-76 215 -258 329 -525 329 -75 0 -111 -6 -169 -26z m539 -718 c0 -136 -85 -227 -222 -234 -128 -8 -219 36 -286 136 -36 53 -72 130 -72 152 0 6 107 10 290 10 l290 0 0 -64z"/>
    <path d="M9420 1553 c-40 -8 -91 -52 -111 -97 -27 -60 -24 -131 17 -322 19 -93 39 -189 44 -214 5 -25 20 -100 35 -167 14 -67 25 -124 25 -127 0 -3 -43 -6 -96 -6 l-96 0 6 -27 c3 -16 11 -56 18 -91 l13 -62 97 0 c83 0 97 -2 102 -17 3 -10 17 -76 31 -148 15 -72 29 -138 31 -147 5 -16 19 -18 121 -18 l116 0 -6 28 c-3 15 -17 82 -32 149 -14 67 -25 129 -25 137 0 14 17 16 108 16 l108 0 -18 87 c-10 49 -18 89 -18 91 0 1 -49 2 -109 2 -61 0 -112 3 -115 8 -2 4 -11 41 -20 82 -8 41 -34 163 -56 270 -59 282 -62 300 -55 337 9 49 56 67 146 59 l67 -7 -13 58 c-8 32 -16 70 -19 84 -4 16 -14 29 -28 33 -32 8 -238 16 -268 9z"/>
    <path d="M20 1535 c0 -13 247 -15 2176 -15 1736 0 2175 3 2172 13 -4 9 -450 13 -2176 15 -1927 2 -2172 0 -2172 -13z"/>
    <path d="M4440 1547 c0 -7 90 -418 115 -522 88 -372 72 -468 -86 -520 -173 -58 -368 92 -449 345 -17 55 -68 281 -91 411 -13 70 -20 81 -51 77 l-25 -3 18 -80 c10 -44 48 -219 84 -390 36 -171 70 -328 75 -350 11 -42 54 -245 70 -328 6 -27 12 -53 15 -58 8 -12 55 -12 55 1 0 10 -54 267 -70 335 -15 63 -40 176 -40 182 0 3 30 -26 68 -64 92 -95 157 -126 274 -131 80 -4 93 -2 144 23 66 32 108 85 123 154 12 56 0 142 -49 361 -17 74 -35 155 -40 180 -5 25 -16 74 -24 110 -8 36 -24 111 -36 168 -22 100 -23 102 -51 102 -16 0 -29 -1 -29 -3z"/>
    <path d="M4560 1535 c0 -13 21 -15 125 -15 104 0 125 2 125 15 0 13 -21 15 -125 15 -104 0 -125 -2 -125 -15z"/>
    <path d="M5150 1546 c0 -7 20 -105 65 -321 25 -121 55 -263 65 -315 11 -52 27 -129 35 -170 44 -203 99 -469 122 -587 l26 -133 396 0 c421 0 473 5 562 51 54 27 125 93 154 144 34 58 49 165 36 260 -24 168 -112 273 -275 325 -36 12 -66 25 -66 28 1 4 20 16 43 28 52 25 92 88 108 167 10 46 9 94 -1 217 -7 87 -10 192 -7 234 l7 76 -134 0 -135 0 -7 -57 c-4 -36 -1 -126 10 -233 13 -135 14 -184 5 -215 -12 -45 -41 -80 -81 -101 -40 -21 -212 -35 -383 -32 l-150 3 -21 105 c-64 312 -107 516 -111 523 -4 7 -263 11 -263 3z m1025 -855 c78 -30 146 -99 164 -164 19 -65 11 -169 -15 -204 -27 -36 -77 -70 -123 -83 -20 -5 -143 -10 -273 -10 -266 0 -239 -9 -257 85 -6 28 -26 126 -45 219 -20 93 -36 173 -36 178 0 6 104 8 263 6 246 -4 266 -5 322 -27z"/>
    <path d="M11100 1546 c0 -7 20 -105 60 -296 22 -107 52 -249 65 -315 13 -66 36 -176 50 -245 15 -69 32 -152 39 -185 l13 -60 111 -3 c86 -2 112 0 112 10 0 7 -9 51 -20 98 -29 128 -25 141 23 65 39 -61 126 -138 192 -171 57 -28 168 -43 218 -30 l25 6 -13 57 c-7 32 -18 83 -24 113 l-12 55 -102 1 c-86 1 -110 5 -152 25 -98 46 -178 152 -220 290 -14 48 -80 349 -106 488 -21 107 -13 101 -144 101 -63 0 -115 -2 -115 -4z"/>
    <path d="M1510 1361 c-87 -27 -164 -95 -203 -179 -31 -67 -31 -276 1 -374 50 -157 127 -255 250 -315 74 -37 79 -38 186 -38 122 0 158 12 230 75 71 63 111 207 92 334 l-7 46 -360 0 -359 0 0 83 c0 109 20 172 71 231 65 73 107 91 214 90 78 0 98 -4 148 -28 69 -34 148 -117 172 -181 15 -39 22 -45 46 -45 l29 0 -15 38 c-75 178 -213 273 -394 271 -42 0 -87 -4 -101 -8z m498 -564 c6 -123 -48 -227 -143 -271 -80 -39 -138 -43 -222 -18 -120 37 -204 120 -257 254 -43 108 -72 99 297 96 l322 -3 3 -58z"/>
    <path d="M2271 1351 c-29 -10 -64 -27 -78 -37 -75 -56 -97 -201 -47 -303 50 -100 132 -132 374 -150 85 -6 171 -16 191 -21 100 -28 142 -97 121 -199 -22 -104 -116 -159 -251 -148 -127 11 -225 75 -259 169 -14 42 -20 48 -44 48 -34 0 -34 -6 -3 -72 64 -136 184 -195 371 -186 137 7 220 58 244 150 13 48 8 90 -37 283 -63 269 -75 329 -69 364 6 40 19 51 64 51 25 0 32 4 32 19 0 39 -99 43 -137 5 -23 -23 -25 -31 -20 -82 l6 -57 -34 41 c-98 118 -284 173 -424 125z m299 -67 c97 -53 156 -142 205 -310 32 -114 32 -147 -2 -113 -16 16 -105 36 -195 43 -320 25 -390 64 -392 221 -1 80 15 117 70 154 48 33 87 41 180 37 67 -3 92 -9 134 -32z"/>
    <path d="M3233 1351 c-98 -33 -151 -86 -189 -186 -27 -71 -27 -267 0 -345 54 -158 149 -274 273 -333 64 -30 75 -32 178 -32 96 0 116 3 155 24 92 48 146 121 157 212 6 49 6 49 -24 49 -27 0 -30 -3 -41 -58 -27 -131 -163 -212 -306 -182 -211 44 -358 245 -358 490 0 149 52 252 152 303 50 26 62 28 140 25 66 -4 96 -10 135 -30 60 -31 136 -110 167 -172 18 -38 27 -46 50 -46 35 0 35 12 -2 77 -40 70 -126 156 -181 181 -102 46 -215 55 -306 23z"/>
    <path d="M180 1327 c0 -7 9 -56 20 -108 12 -52 25 -114 30 -139 15 -76 144 -683 165 -780 8 -36 20 -91 26 -123 l12 -57 257 0 c281 0 337 6 420 48 133 66 175 232 102 393 -45 97 -148 175 -246 186 -70 8 -74 14 -21 35 28 11 61 29 73 41 51 47 55 66 56 299 l1 218 -32 0 c-39 0 -37 16 -38 -246 l0 -190 -28 -37 c-36 -48 -66 -62 -154 -76 -70 -11 -463 -16 -463 -6 0 8 -110 518 -116 538 -6 21 -64 24 -64 4z m742 -608 c182 -39 285 -187 248 -359 -11 -51 -21 -71 -54 -105 -67 -68 -107 -76 -391 -73 l-239 3 -22 105 c-12 58 -35 173 -53 255 -17 83 -31 158 -31 168 0 16 20 17 245 17 142 0 266 -5 297 -11z"/>
  </g>
</svg>
