<svg viewBox="0 0 512 512" xmlns="http://www.w3.org/2000/svg"><path d="M304.368 256v149.722c0 33.789-27.49 61.278-61.279 61.278s-61.278-27.489-61.278-61.278v-64.414l-45 39.641v24.773C136.81 464.323 184.487 512 243.089 512c34.096 0 64.489-16.142 83.949-41.182l11.497-139.982L327.038 256z" fill="#0b495d"/><path d="M349.368 256h-22.33v214.818c13.988-17.998 22.33-40.59 22.33-65.096z" fill="#07303d"/><path d="M312.342 0v124.415h14.696l6.871-57.798L327.038 0z" fill="#f2f6fc"/><path d="M327.038 0h15.306v124.415h-15.306z" fill="#dce1eb"/><path d="M304.368 193.115V256h22.67l11.497-29.394-11.497-33.491z" fill="#12617c"/><path d="M327.038 193.115h22.33V256h-22.33z" fill="#0b495d"/><g><path d="M326.868 111.331c-26.687 0-48.322 21.634-48.322 48.322s21.634 48.322 48.322 48.322c.061 0 .121-.004.182-.005l16.338-49.384-16.338-47.25c-.061-.001-.121-.005-.182-.005z" fill="#fd445f"/><path d="M375.19 159.653c0-26.626-21.537-48.219-48.14-48.317v96.634c26.603-.099 48.14-21.691 48.14-48.317z" fill="#cf0d52"/></g><g><path d="M326.868 50.103c-17.961 0-32.521 14.56-32.521 32.521s14.56 32.521 32.521 32.521c.041 0 .081-.003.122-.003l10.995-33.236-10.995-31.8c-.041 0-.081-.003-.122-.003z" fill="#a1e2f7"/><path d="M359.389 82.624c0-17.92-14.494-32.451-32.399-32.518v65.035c17.904-.066 32.399-14.598 32.399-32.517z" fill="#64cef2"/></g><path d="M136.81 382.811V226.606l83.637 83.636z" fill="#12617c"/></svg>