<svg viewBox="0 0 831 111" xmlns="http://www.w3.org/2000/svg"><g fill="#fff"><path d="M29.8 8.2h31.7c3.2 0 6.3.3 9.4.9 3 .6 5.7 1.7 8 3.2 2.3 1.5 4.2 3.6 5.6 6.2 1.4 2.6 2.1 6 2.1 10.1 0 3.5-.6 6.7-1.8 9.7-1.2 2.9-2.9 5.5-5 7.6-2.1 2.2-4.7 3.9-7.7 5.1-3 1.2-6.2 1.9-9.6 2v.2c8.2 1.4 12.3 6.2 12.3 14.7 0 3-.1 6-.3 9-.2 3-.3 5.9-.3 8.5 0 1.4.1 2.9.3 4.3.2 1.4.5 2.8 1 4.2h-5.2c-.5-1.1-.8-2.4-.9-3.8-.1-1.4-.2-3-.2-4.9 0-1.4 0-2.8.1-4.1 0-1.3.1-2.6.1-3.9 0-1.3.1-2.7.1-4.2s.1-3.1.1-5c0-2.9-.5-5.2-1.4-7-.9-1.8-2.3-3.1-4.1-4-1.8-.9-4-1.5-6.5-1.8-2.6-.3-5.4-.4-8.6-.4H25.3l-8.4 39h-5.2L29.8 8.2zm-3.6 42.2h31.1c3.4 0 6.5-.5 9.4-1.4 2.9-.9 5.5-2.2 7.6-4 2.2-1.7 3.9-3.9 5.1-6.4 1.2-2.6 1.9-5.5 1.9-8.9 0-3.5-.5-6.4-1.6-8.6-1-2.2-2.5-3.9-4.4-5.2-1.9-1.2-4.2-2.1-6.9-2.5-2.7-.4-5.7-.7-9.1-.7H34.1l-7.9 37.7zM93.4 63.7c-.2 1.1-.3 2.2-.4 3.4-.1 1.1-.2 2.2-.2 3.4 0 2.8.4 5.5 1.3 8 .9 2.6 2.1 4.8 3.8 6.7 1.6 1.9 3.7 3.4 6.1 4.6 2.4 1.1 5.2 1.7 8.3 1.7 2.9 0 5.6-.5 8.2-1.5 2.6-1 4.9-2.3 7-4 2-1.6 3.8-3.5 5.2-5.7 1.4-2.2 2.4-4.4 2.9-6.8h4.6c-.9 3.2-2.2 6.1-3.8 8.8-1.7 2.7-3.7 5-6.1 7-2.4 2-5.1 3.5-8.2 4.6-3.1 1.1-6.5 1.6-10.2 1.6-3.9 0-7.4-.6-10.3-1.9-3-1.3-5.4-3-7.4-5.3-2-2.2-3.4-4.8-4.4-7.8-1-3-1.5-6.1-1.5-9.4 0-5.8.8-11.1 2.3-16 1.5-4.9 3.7-9.1 6.5-12.7 2.8-3.6 6.2-6.4 10.3-8.5 4.1-2 8.6-3.1 13.7-3.1 3.6 0 6.8.6 9.6 1.8 2.8 1.2 5.2 2.9 7.1 5 1.9 2.1 3.4 4.6 4.4 7.6 1 2.9 1.5 6.1 1.5 9.4 0 1.6-.1 3.1-.2 4.6l-.6 4.5H93.4zm45.1-4c.2-1 .3-2 .4-2.8.1-.8.2-1.6.2-2.4 0-2.6-.4-5.2-1.1-7.6-.8-2.4-1.9-4.5-3.4-6.3-1.5-1.8-3.5-3.2-5.9-4.3-2.4-1.1-5.2-1.6-8.4-1.6-3.6 0-6.9.7-9.8 2-2.9 1.4-5.5 3.2-7.6 5.5-2.2 2.3-4 5-5.4 8-1.4 3-2.5 6.1-3.2 9.4h44.2v.1zM155.3 50c1.6-6.9 4.7-11.8 9.2-14.8 4.6-3 10.3-4.4 17.3-4.4 1.5 0 3.4.2 5.6.5 2.2.4 4.3 1.1 6.3 2.2s3.7 2.6 5.1 4.4c1.4 1.9 2.1 4.4 2.1 7.5 0 1.4-.2 3.1-.6 5.3-.4 2.2-.8 4.4-1.3 6.5-.5 2.2-.9 4.1-1.4 5.9-.4 1.8-.7 2.9-.8 3.4-.4 1.6-.8 3.4-1.3 5.3s-.9 3.8-1.3 5.6c-.4 1.8-.7 3.5-1 5.1-.3 1.6-.4 2.8-.4 3.7 0 1.1.3 2.1.8 2.8.6.8 1.4 1.1 2.5 1.1.6 0 1.3-.1 2-.2.7-.2 1.4-.3 2-.5l-.7 4.1c-.9.2-1.8.4-2.7.5-.9.1-1.8.1-2.6.1-2.1 0-3.6-.7-4.6-2.2-1-1.5-1.4-2.8-1.4-4.2 0-.6.1-1.5.4-2.5.2-1 .4-1.9.6-2.7h-.2c-1.2 2.2-2.7 4.2-4.6 5.8-1.8 1.6-3.8 2.9-5.9 4-2.1 1-4.2 1.8-6.5 2.3-2.2.5-4.4.7-6.4.7-2.6 0-5.1-.3-7.4-.9-2.3-.6-4.3-1.6-6.1-2.9-1.7-1.3-3.1-3-4.1-5.1-1-2.1-1.5-4.6-1.5-7.7 0-3.9.8-7.1 2.3-9.6 1.5-2.5 3.5-4.4 6.1-5.8 2.5-1.4 5.4-2.3 8.6-2.8 3.2-.5 6.6-.8 10.2-.9 4.3-.2 7.9-.5 10.8-.9 2.9-.4 5.2-1.1 7-2 1.8-.9 3-2.1 3.8-3.7.8-1.5 1.1-3.4 1.1-5.8 0-3.8-1.2-6.9-3.5-9.2-2.4-2.3-6.3-3.4-12-3.4-5.5 0-10.1 1.2-13.6 3.7-3.5 2.4-6 6.3-7.3 11.6h-4.6v.1zm38.7 9.1h-.2c-.9.9-2.1 1.6-3.7 2.1s-3.3 1-5.2 1.3c-1.8.4-3.7.6-5.6.8-1.9.2-3.5.3-4.7.4-2.9.1-5.7.3-8.5.6s-5.3 1-7.5 2-4 2.5-5.3 4.5c-1.4 2-2 4.6-2 8 0 2.3.4 4.3 1.3 5.9.9 1.6 2 2.9 3.5 3.9 1.4 1 3.1 1.7 5 2.2 1.9.4 3.9.7 5.9.7 3.7 0 6.9-.6 9.7-1.9 2.8-1.3 5.1-3 7.1-5.2s3.6-4.7 4.9-7.6c1.3-2.9 2.4-5.9 3.3-9.1l2-8.6zM260.8 73.8c-2.4 6.4-5.9 11.6-10.6 15.6-4.7 4-10.6 6-17.6 6-4.2 0-7.9-.7-10.9-2s-5.5-3.2-7.4-5.5c-1.9-2.4-3.3-5.1-4.2-8.3-.9-3.2-1.3-6.7-1.3-10.6 0-4.8.8-9.5 2.4-14.1 1.6-4.6 3.9-8.6 6.8-12.3 2.9-3.6 6.4-6.5 10.6-8.6 4.1-2.2 8.7-3.2 13.6-3.2 3.2 0 6.2.5 8.9 1.5 2.8 1 5.1 2.4 7.1 4.2 2 1.8 3.5 4 4.6 6.5 1 2.5 1.4 5.3 1.2 8.5h-4.6c0-5.3-1.5-9.4-4.6-12.3-3.1-2.9-7.3-4.4-12.7-4.4-4.5 0-8.5 1-12.1 3.1-3.6 2-6.6 4.7-9.1 8s-4.4 6.9-5.7 11c-1.3 4-2 8-2 12 0 3 .4 5.8 1.1 8.5.7 2.7 1.8 5.1 3.4 7.3 1.5 2.1 3.5 3.8 5.8 5 2.4 1.2 5.2 1.9 8.5 1.9 5.8 0 10.6-1.6 14.6-4.9 4-3.2 7-7.5 9.1-12.8h5.1v-.1zM284.8 8.2h4.6l-7.9 37h.2c2.7-4.3 6.2-7.8 10.3-10.5 4.2-2.6 9-4 14.5-4 2.3 0 4.5.4 6.7 1.1 2.1.8 4 1.9 5.6 3.4 1.6 1.5 2.9 3.3 3.8 5.4 1 2.1 1.4 4.5 1.4 7.1 0 .7-.1 1.6-.2 2.8-.1 1.1-.3 2.3-.5 3.5-.2 1.2-.4 2.3-.6 3.4-.2 1.1-.4 2-.5 2.7l-10.5 47.6h-4.6l10.5-47.5c.1-.6.2-1.4.4-2.4s.4-2.1.6-3.3c.2-1.2.4-2.3.5-3.5.2-1.2.2-2.2.2-3.1 0-3.9-1.3-7.1-3.8-9.5-2.5-2.4-6.1-3.7-10.8-3.7-3.9 0-7.4.9-10.5 2.8-3.1 1.8-5.8 4.2-8 7.1-2.3 2.9-4.2 6.2-5.7 9.7-1.5 3.6-2.6 7.1-3.4 10.5L271 93.9h-4.6l18.4-85.7z"/><path d="M.8 105h301.7v2.8H.8zM315.8 105h17.5v2.8h-17.5zM387.35 49.65h27.45c8.1 0 14.275-1.675 18.525-5.025 4.25-3.35 6.375-8.175 6.375-14.475 0-2.9-.525-5.275-1.575-7.125-1.05-1.85-2.475-3.275-4.275-4.275-1.8-1-3.85-1.675-6.15-2.025-2.3-.35-4.7-.525-7.2-.525h-26.25l-6.9 33.45zm-9-48.75h46.35c2.3 0 5.35.2 9.15.6 3.8.4 7.525 1.5 11.175 3.3 3.65 1.8 6.8 4.525 9.45 8.175 2.65 3.65 3.975 8.725 3.975 15.225 0 8.5-2.15 15.125-6.45 19.875-4.3 4.75-10.25 7.825-17.85 9.225v.3c4.5 1.7 7.525 4.225 9.075 7.575 1.55 3.35 2.325 7.275 2.325 11.775 0 3.7-.3 7.4-.9 11.1-.6 3.7-.85 7.4-.75 11.1 0 1.5.125 3 .375 4.5s.775 2.95 1.575 4.35H426.2c-.5-1.4-.825-2.75-.975-4.05-.15-1.3-.225-2.7-.225-4.2 0-4 .3-7.925.9-11.775.6-3.85.9-7.725.9-11.625 0-3.1-.575-5.5-1.725-7.2a9.71 9.71 0 00-4.575-3.675c-1.9-.75-4.05-1.2-6.45-1.35-2.4-.15-4.85-.225-7.35-.225h-22.35L375.2 108h-19.05L378.35.9zM506.6 41.85c-4.4 0-8.225 1.1-11.475 3.3-3.25 2.2-5.975 4.975-8.175 8.325-2.2 3.35-3.825 7.075-4.875 11.175-1.05 4.1-1.575 8.1-1.575 12 0 5.7 1.425 10.45 4.275 14.25 2.85 3.8 7.375 5.7 13.575 5.7 4.4 0 8.225-1.075 11.475-3.225 3.25-2.15 5.975-4.9 8.175-8.25 2.2-3.35 3.825-7.1 4.875-11.25 1.05-4.15 1.575-8.175 1.575-12.075 0-5.7-1.425-10.45-4.275-14.25-2.85-3.8-7.375-5.7-13.575-5.7zm-9.3 68.25c-10.8 0-19.15-2.925-25.05-8.775-5.9-5.85-8.85-14.225-8.85-25.125 0-6.4 1.05-12.475 3.15-18.225 2.1-5.75 5.075-10.825 8.925-15.225 3.85-4.4 8.5-7.9 13.95-10.5 5.45-2.6 11.525-3.9 18.225-3.9 10.8 0 19.15 2.825 25.05 8.475 5.9 5.65 8.85 13.925 8.85 24.825 0 6.8-1 13.15-3 19.05s-4.925 11.025-8.775 15.375c-3.85 4.35-8.5 7.775-13.95 10.275-5.45 2.5-11.625 3.75-18.525 3.75zm119.1-2.1h-16.05l2.4-11.25-.3-.3c-3.1 4.3-6.975 7.65-11.625 10.05-4.65 2.4-9.675 3.6-15.075 3.6-7.8 0-13.525-1.85-17.175-5.55-3.65-3.7-5.475-8.7-5.475-15 0-1.4.05-3 .15-4.8.1-1.8.3-3.4.6-4.8l10.35-49.5h17.1l-9.9 47.85c-.3 1.3-.575 2.55-.825 3.75-.25 1.2-.375 2.35-.375 3.45 0 .6.025 1.525.075 2.775.05 1.25.425 2.5 1.125 3.75s1.85 2.325 3.45 3.225c1.6.9 4 1.35 7.2 1.35 3.3 0 6.325-.725 9.075-2.175A26.544 26.544 0 00598.4 88.8c2.1-2.3 3.85-4.875 5.25-7.725 1.4-2.85 2.4-5.725 3-8.625l8.7-42h17.1L616.4 108zM660.5 7.2h16.65l-4.8 23.25h15.45l-2.7 12.75h-15.45l-7.95 37.95c-.4 1.7-.75 3.3-1.05 4.8-.3 1.5-.45 2.7-.45 3.6 0 1.7.375 3.075 1.125 4.125.75 1.05 2.425 1.575 5.025 1.575 1.3 0 2.725-.025 4.275-.075 1.55-.05 3.175-.275 4.875-.675l-2.85 12.6c-2.2.5-4.55.9-7.05 1.2-2.5.3-4.85.45-7.05.45-3.1 0-5.65-.4-7.65-1.2-2-.8-3.575-1.875-4.725-3.225-1.15-1.35-1.95-2.9-2.4-4.65a21.298 21.298 0 01-.675-5.325c0-1.5.125-3.15.375-4.95.25-1.8.475-3.05.675-3.75L653 43.2h-13.5l2.7-12.75h13.5l4.8-23.25zm86.4 55.2c.1-.5.15-.925.15-1.275V57.6c0-4.6-1.45-8.375-4.35-11.325-2.9-2.95-6.9-4.425-12-4.425-6.4 0-11.5 1.925-15.3 5.775-3.8 3.85-6.55 8.775-8.25 14.775h39.75zM759.35 84c-2.7 9.1-7.25 15.725-13.65 19.875S731.4 110.1 722 110.1c-4.9 0-9.425-.775-13.575-2.325-4.15-1.55-7.725-3.8-10.725-6.75s-5.35-6.5-7.05-10.65c-1.7-4.15-2.55-8.875-2.55-14.175 0-6 .95-11.85 2.85-17.55 1.9-5.7 4.675-10.8 8.325-15.3 3.65-4.5 8.15-8.125 13.5-10.875s11.475-4.125 18.375-4.125 12.5 1.15 16.8 3.45c4.3 2.3 7.65 5.2 10.05 8.7 2.4 3.5 4.025 7.35 4.875 11.55.85 4.2 1.275 8.2 1.275 12 0 1.9-.1 3.65-.3 5.25-.2 1.6-.4 3.05-.6 4.35H705.5c-.1.5-.175.95-.225 1.35-.05.4-.075.8-.075 1.2v2.4c0 5.4 1.425 9.75 4.275 13.05 2.85 3.3 7.575 4.95 14.175 4.95 4.6 0 8.55-1.05 11.85-3.15 3.3-2.1 5.55-5.25 6.75-9.45h17.1zm24.9-53.55h16.2L797.3 45.6l.3.3c1.2-2.1 2.675-4.2 4.425-6.3a38.342 38.342 0 015.775-5.625c2.1-1.65 4.375-3 6.825-4.05a19.408 19.408 0 017.725-1.575c1.4 0 2.775.025 4.125.075a39.5 39.5 0 014.125.375L827 45.15c-1-.2-2-.35-3-.45-1-.1-2-.15-3-.15-4.4 0-8.225.775-11.475 2.325-3.25 1.55-6 3.675-8.25 6.375s-4.075 5.8-5.475 9.3c-1.4 3.5-2.5 7.2-3.3 11.1L785.3 108h-17.1l16.05-77.55z"/></g></svg>