<?xml version="1.0" encoding="UTF-8" standalone="yes"?>
<!-- Created with sK1/UniConvertor (http://sk1project.org/) -->
<svg xmlns="http://www.w3.org/2000/svg" xmlns:xlink="http://www.w3.org/1999/xlink"
  width="160pt" height="160pt" viewBox="0 0 160 160"
  fill-rule="evenodd">
<g>
<path style="stroke:none; fill:#ffffff" d="M 0 0L 0 68.8L 0.8 68.8C 3.44269 35.5922 35.5923 3.44273 68.8 0.800003C 62.8804 -1.68396 53.6059 0 47.2 0L 0 0z"/>
<path style="stroke:none; fill:#9e9e9e" d="M 68.8 0L 68.8 0.800003L 72 0.800003C 70.7952 0.253571 70.1482 0.139282 68.8 0z"/>
<path style="stroke:none; fill:#5f5f5f" d="M 72.5334 0.266663C 72.1778 0.622238 73.0222 0.577789 73.0666 0.53334C 73.4222 0.17778 72.5778 0.222214 72.5334 0.266663z"/>
<path style="stroke:none; fill:#273433" d="M 74.1334 0.266663C 73.7778 0.622253 74.6222 0.577805 74.6666 0.53334C 75.0222 0.17778 74.1778 0.222214 74.1334 0.266663z"/>
<path style="stroke:none; fill:#010101" d="M 75.2 0.339508C 58.4155 2.54442 42.9946 7.00504 29.6 17.9716C 21.5622 24.5524 15.0134 32.5686 9.94016 41.6C -22.0755 98.5952 28.59 167.999 92 158.96C 131.536 153.324 161.667 116.605 159.917 76.8C 158.078 34.9788 118.967 -5.41005 75.2 0.339508z"/>
<path style="stroke:none; fill:#273433" d="M 84.8 0L 84.8 0.800003L 87.2 0.800003C 86.2016 0.252197 85.9608 0.200958 84.8 0z"/>
<path style="stroke:none; fill:#9e9e9e" d="M 87.2 0L 87.2 0.800003L 91.2 0.800003C 89.7848 0.176849 88.7712 0.0700684 87.2 0z"/>
<path style="stroke:none; fill:#ffffff" d="M 91.2 0L 91.2 0.800003C 124.408 3.44273 156.558 35.5922 159.2 68.8L 160 68.8L 160 0L 91.2 0z"/>
<path style="stroke:none; fill:#9e9e9e" d="M 65.3334 1.06667C 64.9778 1.42226 65.8222 1.37778 65.8666 1.33334C 66.2222 0.977798 65.3778 1.0222 65.3334 1.06667z"/>
<path style="stroke:none; fill:#5f5f5f" d="M 66.4 0.800003L 67.2 1.60001L 66.4 0.800003M 92.8 0.800003L 93.6 1.60001L 92.8 0.800003z"/>
<path style="stroke:none; fill:#9e9e9e" d="M 94.1336 1.06667C 93.7776 1.42226 94.6224 1.37776 94.6664 1.33334C 95.0224 0.977814 94.1776 1.02219 94.1336 1.06667M 61.3334 1.86667C 60.9778 2.22226 61.8222 2.17776 61.8666 2.13333C 62.2222 1.77779 61.3778 1.8222 61.3334 1.86667z"/>
<path style="stroke:none; fill:#5f5f5f" d="M 62.4 1.60001L 63.2 2.39999L 62.4 1.60001z"/>
<path style="stroke:none; fill:#273433" d="M 63.2 1.60001L 64 2.39999L 63.2 1.60001M 96 1.60001L 96.8 2.39999L 96 1.60001z"/>
<path style="stroke:none; fill:#5f5f5f" d="M 96.8 1.60001L 97.6 2.39999L 96.8 1.60001z"/>
<path style="stroke:none; fill:#9e9e9e" d="M 98.1336 1.86667C 97.7776 2.22227 98.6224 2.17776 98.6664 2.13333C 99.0224 1.7778 98.1776 1.82219 98.1336 1.86667M 58.4 2.39999L 59.2 3.2L 58.4 2.39999z"/>
<path style="stroke:none; fill:#5f5f5f" d="M 59.2 2.39999L 60 3.2L 59.2 2.39999M 100 2.39999L 100.8 3.2L 100 2.39999z"/>
<path style="stroke:none; fill:#9e9e9e" d="M 100.8 2.39999L 101.6 3.2L 100.8 2.39999M 55.7334 3.46666C 55.3778 3.82227 56.2222 3.77777 56.2666 3.73334C 56.6222 3.37781 55.7778 3.42221 55.7334 3.46666z"/>
<path style="stroke:none; fill:#273433" d="M 56.8 3.2L 57.6 4L 56.8 3.2M 102.4 3.2L 103.2 4L 102.4 3.2z"/>
<path style="stroke:none; fill:#9e9e9e" d="M 103.734 3.46666C 103.378 3.82225 104.222 3.77776 104.266 3.73334C 104.622 3.37781 103.778 3.42218 103.734 3.46666z"/>
<path style="stroke:none; fill:#5f5f5f" d="M 53.6 4L 54.4 4.8L 53.6 4M 105.6 4L 106.4 4.8L 105.6 4z"/>
<path style="stroke:none; fill:#9e9e9e" d="M 51.2 4.8L 52 5.60001L 51.2 4.8z"/>
<path style="stroke:none; fill:#5f5f5f" d="M 52 4.8L 52.8 5.60001L 52 4.8z"/>
<path style="stroke:none; fill:#273433" d="M 68.5334 5.06667C 68.1778 5.42224 69.0222 5.37781 69.0666 5.33334C 69.4222 4.97778 68.5778 5.02222 68.5334 5.06667z"/>
<path style="stroke:none; fill:#016060" d="M 62.4 6.39999L 62.4 7.2C 71.2644 6.8194 79.8595 5.60001 88.8 5.60001C 81.5336 2.55089 69.9179 4.98354 62.4 6.39999z"/>
<path style="stroke:none; fill:#273433" d="M 87.2 5.60001L 87.2 6.39999L 92 5.60001C 90.2088 4.95137 89.0824 5.17699 87.2 5.60001z"/>
<path style="stroke:none; fill:#5f5f5f" d="M 107.2 4.8L 108 5.60001L 107.2 4.8z"/>
<path style="stroke:none; fill:#9e9e9e" d="M 108 4.8L 108.8 5.60001L 108 4.8z"/>
<path style="stroke:none; fill:#5f5f5f" d="M 49.6 5.60001L 50.4 6.39999L 49.6 5.60001z"/>
<path style="stroke:none; fill:#010101" d="M 72 5.95123C 43.515 10.3892 18.5841 27.649 9.39632 56C -6.44475 104.881 33.4607 161.753 87.2 154.058C 117.47 149.722 142.953 131.101 151.553 100.8C 165.297 52.377 124.342 -2.20364 72 5.95123z"/>
<path style="stroke:none; fill:#016060" d="M 90.4 5.60001L 90.4 6.39999C 92.832 6.97943 95.1024 7.17903 97.6 7.2C 95.2888 5.81528 93.0712 5.65665 90.4 5.60001z"/>
<path style="stroke:none; fill:#5f5f5f" d="M 109.6 5.60001L 110.4 6.39999L 109.6 5.60001z"/>
<path style="stroke:none; fill:#9e9e9e" d="M 47.2 6.39999L 48 7.2L 47.2 6.39999z"/>
<path style="stroke:none; fill:#273433" d="M 48 6.39999L 48.8 7.2L 48 6.39999M 60.8 6.39999C 61.2361 7.70815 61.0918 7.56395 62.4 8L 62.4 6.39999L 60.8 6.39999M 66.9334 6.66666C 66.5778 7.02226 67.4222 6.97777 67.4666 6.93333C 67.8222 6.57779 66.9778 6.62222 66.9334 6.66666M 97.6 6.39999L 96.8 8L 98.4 8C 98.4 6.5174 98.64 6.91988 97.6 6.39999z"/>
<path style="stroke:none; fill:#5f5f5f" d="M 111.2 6.39999L 112 7.2L 111.2 6.39999z"/>
<path style="stroke:none; fill:#9e9e9e" d="M 112 6.39999L 112.8 7.2L 112 6.39999z"/>
<path style="stroke:none; fill:#5f5f5f" d="M 45.6 7.2L 46.4 8L 45.6 7.2z"/>
<path style="stroke:none; fill:#016060" d="M 32 22.4C 42.329 18.0551 50.4757 11.158 61.6 8C 53.7725 4.97548 36.5643 16.4862 32 22.4M 98.4 7.2L 98.4 8C 102.159 9.00536 105.759 10.5471 109.6 11.2C 106.429 8.64056 102.423 7.55127 98.4 7.2z"/>
<path style="stroke:none; fill:#5f5f5f" d="M 113.6 7.2L 114.4 8L 113.6 7.2M 44 8L 44.8 8.8L 44 8M 115.2 8L 116 8.8L 115.2 8M 42.4 8.8L 43.2 9.60001L 42.4 8.8M 116.8 8.8L 117.6 9.60001L 116.8 8.8z"/>
<path style="stroke:none; fill:#9e9e9e" d="M 40.8 9.60001L 41.6 10.4L 40.8 9.60001M 118.4 9.60001L 119.2 10.4L 118.4 9.60001M 39.2 10.4L 40 11.2L 39.2 10.4z"/>
<path style="stroke:none; fill:#273433" d="M 40 10.4L 40.8 11.2L 40 10.4M 119.2 10.4L 120 11.2L 119.2 10.4z"/>
<path style="stroke:none; fill:#9e9e9e" d="M 120 10.4L 120.8 11.2L 120 10.4z"/>
<path style="stroke:none; fill:#5f5f5f" d="M 38.4 11.2L 39.2 12L 38.4 11.2z"/>
<path style="stroke:none; fill:#016060" d="M 109.6 11.2L 109.6 12C 120.818 16.672 127.971 25.2174 137.6 32C 133.389 22.9698 119.437 12.9534 109.6 11.2z"/>
<path style="stroke:none; fill:#5f5f5f" d="M 120.8 11.2L 121.6 12L 120.8 11.2z"/>
<path style="stroke:none; fill:#9e9e9e" d="M 36.8 12L 37.6 12.8L 36.8 12M 122.4 12L 123.2 12.8L 122.4 12M 35.2 12.8L 36 13.6L 35.2 12.8z"/>
<path style="stroke:none; fill:#273433" d="M 36 12.8L 36.8 13.6L 36 12.8M 123.2 12.8L 124 13.6L 123.2 12.8z"/>
<path style="stroke:none; fill:#9e9e9e" d="M 124 12.8L 124.8 13.6L 124 12.8z"/>
<path style="stroke:none; fill:#5f5f5f" d="M 34.4 13.6L 35.2 14.4L 34.4 13.6M 124.8 13.6L 125.6 14.4L 124.8 13.6z"/>
<path style="stroke:none; fill:#9e9e9e" d="M 32.8 14.4L 33.6 15.2L 32.8 14.4z"/>
<path style="stroke:none; fill:#273433" d="M 33.6 14.4L 34.4 15.2L 33.6 14.4M 125.6 14.4L 126.4 15.2L 125.6 14.4z"/>
<path style="stroke:none; fill:#9e9e9e" d="M 126.4 14.4L 127.2 15.2L 126.4 14.4M 32 15.2L 32.8 16L 32 15.2M 127.2 15.2L 128 16L 127.2 15.2M 31.2 16L 32 16.8L 31.2 16M 128 16L 128.8 16.8L 128 16z"/>
<path style="stroke:none; fill:#273433" d="M 30.4 16.8L 31.2 17.6L 30.4 16.8M 128.8 16.8L 129.6 17.6L 128.8 16.8z"/>
<path style="stroke:none; fill:#9e9e9e" d="M 28.8 17.6L 29.6 18.4L 28.8 17.6M 130.4 17.6L 131.2 18.4L 130.4 17.6M 28 18.4L 28.8 19.2L 28 18.4M 131.2 18.4L 132 19.2L 131.2 18.4M 27.2 19.2L 28 20L 27.2 19.2z"/>
<path style="stroke:none; fill:#630163" d="M 85.6 19.2L 85.6 20L 88.8 20C 87.5952 19.4536 86.948 19.3393 85.6 19.2z"/>
<path style="stroke:none; fill:#9e9e9e" d="M 132 19.2L 132.8 20L 132 19.2z"/>
<path style="stroke:none; fill:#5f5f5f" d="M 26.4 20L 27.2 20.8L 26.4 20z"/>
<path style="stroke:none; fill:#630163" d="M 81.3336 20.2666C 80.9776 20.6222 81.8224 20.5778 81.8664 20.5334C 82.2224 20.1778 81.3776 20.2222 81.3336 20.2666z"/>
<path style="stroke:none; fill:#d307c6" d="M 82.9336 20.2666C 82.5776 20.6222 83.4224 20.5778 83.4664 20.5334C 83.8224 20.1778 82.9776 20.2222 82.9336 20.2666z"/>
<path style="stroke:none; fill:#ff01ff" d="M 84 20.3518C 48.4551 26.0498 40.6974 77.863 44.0407 106.4C 45.8826 122.122 56.7707 142.14 75.2 139.769C 86.8984 138.263 96.1096 129.486 102.397 120C 115.196 100.692 119.325 75.4957 115.893 52.8C 113.51 37.0511 102.658 17.3608 84 20.3518z"/>
<path style="stroke:none; fill:#a101a1" d="M 91.7336 20.2666C 91.3776 20.6222 92.2224 20.5778 92.2664 20.5334C 92.6224 20.1778 91.7776 20.2222 91.7336 20.2666z"/>
<path style="stroke:none; fill:#630163" d="M 92.8 20L 93.6 20.8L 92.8 20z"/>
<path style="stroke:none; fill:#5f5f5f" d="M 132.8 20L 133.6 20.8L 132.8 20z"/>
<path style="stroke:none; fill:#273433" d="M 25.6 20.8L 26.4 21.6L 25.6 20.8z"/>
<path style="stroke:none; fill:#630163" d="M 79.2 20.8L 80 21.6L 79.2 20.8z"/>
<path style="stroke:none; fill:#d307c6" d="M 94.4 20.8L 95.2 21.6L 94.4 20.8z"/>
<path style="stroke:none; fill:#630163" d="M 95.2 20.8L 96 21.6L 95.2 20.8z"/>
<path style="stroke:none; fill:#273433" d="M 133.6 20.8L 134.4 21.6L 133.6 20.8z"/>
<path style="stroke:none; fill:#5f5f5f" d="M 24.8 21.6L 25.6 22.4L 24.8 21.6z"/>
<path style="stroke:none; fill:#630163" d="M 76.8 21.6L 77.6 22.4L 76.8 21.6z"/>
<path style="stroke:none; fill:#d307c6" d="M 77.6 21.6L 78.4 22.4L 77.6 21.6z"/>
<path style="stroke:none; fill:#a101a1" d="M 82.9336 21.8666C 82.5776 22.2222 83.4224 22.1778 83.4664 22.1334C 83.8224 21.7778 82.9776 21.8222 82.9336 21.8666z"/>
<path style="stroke:none; fill:#630163" d="M 84.5336 21.8666C 84.1776 22.2222 85.0224 22.1778 85.0664 22.1334C 85.4224 21.7778 84.5776 21.8222 84.5336 21.8666z"/>
<path style="stroke:none; fill:#010101" d="M 58.4 43.2C 78.749 39.4222 95.5976 48.1854 114.4 53.6C 111.794 43.5505 108.774 32.5931 99.9992 26.0457C 85.1296 14.951 64.5986 28.4638 58.4 43.2z"/>
<path style="stroke:none; fill:#a101a1" d="M 90.4 21.6L 90.4 22.4L 92.8 22.4C 91.8016 21.8522 91.5616 21.801 90.4 21.6z"/>
<path style="stroke:none; fill:#630163" d="M 96.8 21.6L 97.6 22.4L 96.8 21.6z"/>
<path style="stroke:none; fill:#5f5f5f" d="M 134.4 21.6L 135.2 22.4L 134.4 21.6z"/>
<path style="stroke:none; fill:#273433" d="M 24 22.4L 24.8 23.2L 24 22.4z"/>
<path style="stroke:none; fill:#016060" d="M 22.4 32C 26.125 29.3761 29.3761 26.125 32 22.4C 27.8306 24.3444 24.3444 27.8306 22.4 32z"/>
<path style="stroke:none; fill:#630163" d="M 75.2 22.4L 76 23.2L 75.2 22.4z"/>
<path style="stroke:none; fill:#a101a1" d="M 80 22.4L 80.8 23.2L 80 22.4z"/>
<path style="stroke:none; fill:#630163" d="M 80.8 22.4L 81.6 23.2L 80.8 22.4M 93.6 22.4L 94.4 23.2L 93.6 22.4M 98.4 22.4L 99.2 23.2L 98.4 22.4z"/>
<path style="stroke:none; fill:#273433" d="M 23.2 23.2L 24 24L 23.2 23.2z"/>
<path style="stroke:none; fill:#630163" d="M 73.6 23.2L 74.4 24L 73.6 23.2z"/>
<path style="stroke:none; fill:#a101a1" d="M 77.6 23.2L 78.4 24L 77.6 23.2z"/>
<path style="stroke:none; fill:#630163" d="M 78.4 23.2L 79.2 24L 78.4 23.2M 95.2 23.2L 96 24L 95.2 23.2z"/>
<path style="stroke:none; fill:#a101a1" d="M 96 23.2L 96.8 24L 96 23.2z"/>
<path style="stroke:none; fill:#d307c6" d="M 99.2 23.2L 100 24L 99.2 23.2z"/>
<path style="stroke:none; fill:#273433" d="M 136 23.2L 136.8 24L 136 23.2z"/>
<path style="stroke:none; fill:#d307c6" d="M 72.8 24L 73.6 24.8L 72.8 24z"/>
<path style="stroke:none; fill:#630163" d="M 76.8 24L 77.6 24.8L 76.8 24M 100.8 24L 101.6 24.8L 100.8 24z"/>
<path style="stroke:none; fill:#273433" d="M 21.6 24.8L 22.4 25.6L 21.6 24.8z"/>
<path style="stroke:none; fill:#630163" d="M 71.2 24.8L 72 25.6L 71.2 24.8z"/>
<path style="stroke:none; fill:#d307c6" d="M 74.4 24.8L 75.2 25.6L 74.4 24.8z"/>
<path style="stroke:none; fill:#630163" d="M 75.2 24.8L 76 25.6L 75.2 24.8M 98.4 24.8L 99.2 25.6L 98.4 24.8M 101.6 24.8L 102.4 25.6L 101.6 24.8z"/>
<path style="stroke:none; fill:#273433" d="M 137.6 24.8L 138.4 25.6L 137.6 24.8M 20.8 25.6L 21.6 26.4L 20.8 25.6z"/>
<path style="stroke:none; fill:#a101a1" d="M 70.4 25.6L 71.2 26.4L 70.4 25.6z"/>
<path style="stroke:none; fill:#630163" d="M 73.6 25.6L 74.4 26.4L 73.6 25.6z"/>
<path style="stroke:none; fill:#a101a1" d="M 102.4 25.6L 103.2 26.4L 102.4 25.6z"/>
<path style="stroke:none; fill:#273433" d="M 138.4 25.6L 139.2 26.4L 138.4 25.6z"/>
<path style="stroke:none; fill:#5f5f5f" d="M 20 26.4L 20.8 27.2L 20 26.4z"/>
<path style="stroke:none; fill:#d307c6" d="M 72 26.4L 72.8 27.2L 72 26.4M 100.8 26.4L 101.6 27.2L 100.8 26.4z"/>
<path style="stroke:none; fill:#a101a1" d="M 103.2 26.4L 104 27.2L 103.2 26.4z"/>
<path style="stroke:none; fill:#5f5f5f" d="M 139.2 26.4L 140 27.2L 139.2 26.4z"/>
<path style="stroke:none; fill:#9e9e9e" d="M 19.2 27.2L 20 28L 19.2 27.2z"/>
<path style="stroke:none; fill:#630163" d="M 68 27.2L 68.8 28L 68 27.2M 71.2 27.2L 72 28L 71.2 27.2M 101.6 27.2L 102.4 28L 101.6 27.2z"/>
<path style="stroke:none; fill:#9e9e9e" d="M 140 27.2L 140.8 28L 140 27.2M 18.4 28L 19.2 28.8L 18.4 28z"/>
<path style="stroke:none; fill:#a101a1" d="M 67.2 28L 68 28.8L 67.2 28z"/>
<path style="stroke:none; fill:#630163" d="M 102.4 28L 103.2 28.8L 102.4 28z"/>
<path style="stroke:none; fill:#d307c6" d="M 104.8 28L 105.6 28.8L 104.8 28z"/>
<path style="stroke:none; fill:#9e9e9e" d="M 140.8 28L 141.6 28.8L 140.8 28M 17.6 28.8L 18.4 29.6L 17.6 28.8z"/>
<path style="stroke:none; fill:#a101a1" d="M 66.4 28.8L 67.2 29.6L 66.4 28.8M 68.8 28.8L 69.6 29.6L 68.8 28.8z"/>
<path style="stroke:none; fill:#630163" d="M 103.2 28.8L 104 29.6L 103.2 28.8z"/>
<path style="stroke:none; fill:#a101a1" d="M 105.6 28.8L 106.4 29.6L 105.6 28.8z"/>
<path style="stroke:none; fill:#9e9e9e" d="M 141.6 28.8L 142.4 29.6L 141.6 28.8z"/>
<path style="stroke:none; fill:#a101a1" d="M 65.6 29.6L 66.4 30.4L 65.6 29.6M 68 29.6L 68.8 30.4L 68 29.6M 104 29.6L 104.8 30.4L 104 29.6z"/>
<path style="stroke:none; fill:#630163" d="M 106.4 29.6L 107.2 30.4L 106.4 29.6z"/>
<path style="stroke:none; fill:#273433" d="M 16.8 30.4L 17.6 31.2L 16.8 30.4z"/>
<path style="stroke:none; fill:#a101a1" d="M 64.8 30.4L 65.6 31.2L 64.8 30.4M 67.2 30.4L 68 31.2L 67.2 30.4M 104.8 30.4L 105.6 31.2L 104.8 30.4z"/>
<path style="stroke:none; fill:#273433" d="M 142.4 30.4L 143.2 31.2L 142.4 30.4z"/>
<path style="stroke:none; fill:#5f5f5f" d="M 16 31.2L 16.8 32L 16 31.2z"/>
<path style="stroke:none; fill:#a101a1" d="M 64 31.2L 64.8 32L 64 31.2M 66.4 31.2L 67.2 32L 66.4 31.2M 107.2 31.2L 108 32L 107.2 31.2z"/>
<path style="stroke:none; fill:#5f5f5f" d="M 143.2 31.2L 144 32L 143.2 31.2z"/>
<path style="stroke:none; fill:#9e9e9e" d="M 15.2 32L 16 32.8L 15.2 32z"/>
<path style="stroke:none; fill:#016060" d="M 21.6 32C 15.0997 39.6266 8.22152 50.607 7.2 60.8L 8 60.8C 10.4206 54.4873 12.467 48.2081 16.0518 42.4C 17.9432 39.3357 21.7888 35.6728 21.6 32z"/>
<path style="stroke:none; fill:#a101a1" d="M 63.2 32L 64 32.8L 63.2 32M 65.6 32L 66.4 32.8L 65.6 32z"/>
<path style="stroke:none; fill:#630163" d="M 105.6 32L 106.4 32.8L 105.6 32M 108 32L 108.8 32.8L 108 32z"/>
<path style="stroke:none; fill:#016060" d="M 137.6 32L 138.4 32.8L 137.6 32z"/>
<path style="stroke:none; fill:#9e9e9e" d="M 144 32L 144.8 32.8L 144 32M 14.4 32.8L 15.2 33.6L 14.4 32.8z"/>
<path style="stroke:none; fill:#a101a1" d="M 62.4 32.8L 63.2 33.6L 62.4 32.8M 64.8 32.8L 65.6 33.6L 64.8 32.8z"/>
<path style="stroke:none; fill:#630163" d="M 106.4 32.8L 107.2 33.6L 106.4 32.8M 108.8 32.8L 109.6 33.6L 108.8 32.8z"/>
<path style="stroke:none; fill:#016060" d="M 138.4 32.8C 139.348 35.2453 140.386 36.7235 142.4 38.4C 141.452 35.9548 140.414 34.4765 138.4 32.8z"/>
<path style="stroke:none; fill:#9e9e9e" d="M 144.8 32.8L 145.6 33.6L 144.8 32.8z"/>
<path style="stroke:none; fill:#273433" d="M 14.4 33.6L 15.2 34.4L 14.4 33.6z"/>
<path style="stroke:none; fill:#630163" d="M 61.6 33.6L 62.4 34.4L 61.6 33.6z"/>
<path style="stroke:none; fill:#a101a1" d="M 64 33.6L 64.8 34.4L 64 33.6z"/>
<path style="stroke:none; fill:#d307c6" d="M 108.8 33.6L 109.6 34.4L 108.8 33.6z"/>
<path style="stroke:none; fill:#273433" d="M 144.8 33.6L 145.6 34.4L 144.8 33.6z"/>
<path style="stroke:none; fill:#5f5f5f" d="M 13.6 34.4L 14.4 35.2L 13.6 34.4z"/>
<path style="stroke:none; fill:#630163" d="M 60.8 34.4L 61.6 35.2L 60.8 34.4z"/>
<path style="stroke:none; fill:#a101a1" d="M 63.2 34.4L 64 35.2L 63.2 34.4z"/>
<path style="stroke:none; fill:#630163" d="M 107.2 34.4L 108 35.2L 107.2 34.4M 109.6 34.4L 110.4 35.2L 109.6 34.4z"/>
<path style="stroke:none; fill:#5f5f5f" d="M 145.6 34.4L 146.4 35.2L 145.6 34.4z"/>
<path style="stroke:none; fill:#9e9e9e" d="M 12.8 35.2L 13.6 36L 12.8 35.2M 146.4 35.2L 147.2 36L 146.4 35.2z"/>
<path style="stroke:none; fill:#630163" d="M 108 36L 108.8 36.8L 108 36M 110.4 36L 111.2 36.8L 110.4 36z"/>
<path style="stroke:none; fill:#9e9e9e" d="M 12 36.8L 12.8 37.6L 12 36.8z"/>
<path style="stroke:none; fill:#630163" d="M 59.2 36.8L 60 37.6L 59.2 36.8M 61.6 36.8L 62.4 37.6L 61.6 36.8z"/>
<path style="stroke:none; fill:#d307c6" d="M 108.8 36.8L 109.6 37.6L 108.8 36.8z"/>
<path style="stroke:none; fill:#9e9e9e" d="M 147.2 36.8L 148 37.6L 147.2 36.8z"/>
<path style="stroke:none; fill:#a101a1" d="M 60.8 37.6L 61.6 38.4L 60.8 37.6z"/>
<path style="stroke:none; fill:#630163" d="M 108.8 37.6L 109.6 38.4L 108.8 37.6M 111.2 37.6L 112 38.4L 111.2 37.6z"/>
<path style="stroke:none; fill:#5f5f5f" d="M 11.2 38.4L 12 39.2L 11.2 38.4z"/>
<path style="stroke:none; fill:#016060" d="M 142.4 38.4C 144.922 46.3712 149.673 53.401 152 61.6L 152.8 61.6C 152.415 54.0981 147.931 43.51 142.4 38.4z"/>
<path style="stroke:none; fill:#5f5f5f" d="M 148 38.4L 148.8 39.2L 148 38.4z"/>
<path style="stroke:none; fill:#9e9e9e" d="M 10.4 39.2L 11.2 40L 10.4 39.2z"/>
<path style="stroke:none; fill:#a101a1" d="M 57.6 39.2L 58.4 40L 57.6 39.2z"/>
<path style="stroke:none; fill:#630163" d="M 60 39.2L 60.8 40L 60 39.2M 109.6 39.2L 110.4 40L 109.6 39.2M 112 39.2L 112.8 40L 112 39.2z"/>
<path style="stroke:none; fill:#9e9e9e" d="M 148.8 39.2L 149.6 40L 148.8 39.2z"/>
<path style="stroke:none; fill:#273433" d="M 10.4 40L 11.2 40.8L 10.4 40z"/>
<path style="stroke:none; fill:#630163" d="M 56.8 40L 57.6 40.8L 56.8 40z"/>
<path style="stroke:none; fill:#a101a1" d="M 59.2 40L 60 40.8L 59.2 40z"/>
<path style="stroke:none; fill:#d307c6" d="M 110.4 40L 111.2 40.8L 110.4 40z"/>
<path style="stroke:none; fill:#a101a1" d="M 112 40L 112.8 40.8L 112 40z"/>
<path style="stroke:none; fill:#273433" d="M 148.8 40L 149.6 40.8L 148.8 40z"/>
<path style="stroke:none; fill:#9e9e9e" d="M 9.6 40.8L 10.4 41.6L 9.6 40.8z"/>
<path style="stroke:none; fill:#630163" d="M 110.4 40.8L 111.2 41.6L 110.4 40.8z"/>
<path style="stroke:none; fill:#9e9e9e" d="M 149.6 40.8L 150.4 41.6L 149.6 40.8z"/>
<path style="stroke:none; fill:#a101a1" d="M 56 41.6L 56.8 42.4L 56 41.6z"/>
<path style="stroke:none; fill:#630163" d="M 112.8 41.6L 113.6 42.4L 112.8 41.6z"/>
<path style="stroke:none; fill:#5f5f5f" d="M 8.8 42.4L 9.6 43.2L 8.8 42.4z"/>
<path style="stroke:none; fill:#a101a1" d="M 57.6 42.4L 58.4 43.2L 57.6 42.4z"/>
<path style="stroke:none; fill:#744601" d="M 60.5334 42.6666C 60.1778 43.0222 61.0222 42.9778 61.0666 42.9334C 61.4222 42.5778 60.5778 42.6222 60.5334 42.6666z"/>
<path style="stroke:none; fill:#9f5f01" d="M 62.1334 42.6666C 61.7778 43.0222 62.6222 42.9778 62.6666 42.9334C 63.0222 42.5778 62.1778 42.6222 62.1334 42.6666z"/>
<path style="stroke:none; fill:#ce7a01" d="M 63.2 42.4L 63.2 43.2L 72 43.2C 69.2541 42.0478 66.1602 42.4 63.2 42.4z"/>
<path style="stroke:none; fill:#9f5f01" d="M 72 42.4L 72 43.2L 74.4 43.2C 73.4014 42.6522 73.1612 42.601 72 42.4z"/>
<path style="stroke:none; fill:#553401" d="M 74.4 42.4L 74.4 43.2L 76.8 43.2C 75.8014 42.6522 75.5612 42.601 74.4 42.4z"/>
<path style="stroke:none; fill:#a101a1" d="M 111.2 42.4L 112 43.2L 111.2 42.4M 112.8 42.4L 113.6 43.2L 112.8 42.4z"/>
<path style="stroke:none; fill:#5f5f5f" d="M 150.4 42.4L 151.2 43.2L 150.4 42.4z"/>
<path style="stroke:none; fill:#553401" d="M 52.8 43.2L 52.8 44L 55.2 44C 54.2014 43.4522 53.9612 43.401 52.8 43.2z"/>
<path style="stroke:none; fill:#ff9901" d="M 57.6 43.2L 57.6 44.8C 78.6202 44.3662 94.9344 47.8958 114.4 56C 111.841 51.4909 104.758 49.5426 100 48.0228C 85.9368 43.5312 72.2115 43.2 57.6 43.2z"/>
<path style="stroke:none; fill:#ce7a01" d="M 78.9334 43.4666C 78.5778 43.8222 79.4222 43.7778 79.4666 43.7334C 79.8222 43.3778 78.9778 43.4222 78.9334 43.4666z"/>
<path style="stroke:none; fill:#9f5f01" d="M 80 43.2L 80 44L 82.4 44C 81.4016 43.4522 81.1616 43.401 80 43.2z"/>
<path style="stroke:none; fill:#273433" d="M 82.9336 43.4666C 82.5776 43.8222 83.4224 43.7778 83.4664 43.7334C 83.8224 43.3778 82.9776 43.4222 82.9336 43.4666z"/>
<path style="stroke:none; fill:#5f5f5f" d="M 8 44L 8.8 44.8L 8 44z"/>
<path style="stroke:none; fill:#553401" d="M 49.6 44L 50.4 44.8L 49.6 44z"/>
<path style="stroke:none; fill:#744601" d="M 50.4 44L 51.2 44.8L 50.4 44z"/>
<path style="stroke:none; fill:#ff9901" d="M 43.2 104C 38.9481 95.6776 28.5107 91.5928 24.0407 82.4C 14.1936 62.1484 37.0326 47.9387 54.4 45.6L 54.4 44C 34.8245 45.707 12.9984 61.5346 22.3043 83.2C 24.3031 87.8536 27.6592 91.6544 31.2031 95.1968C 34.7889 98.7816 38.607 101.827 43.2 104z"/>
<path style="stroke:none; fill:#ff5c66" d="M 54.4 44L 55.2 44.8L 54.4 44M 56.8 44L 57.6 44.8L 56.8 44z"/>
<path style="stroke:none; fill:#9f5f01" d="M 62.4 44L 62.4 44.8L 72 44.8C 69.042 43.5588 65.5866 44 62.4 44z"/>
<path style="stroke:none; fill:#744601" d="M 86.1336 44.2666C 85.7776 44.6222 86.6224 44.5778 86.6664 44.5334C 87.0224 44.1778 86.1776 44.2222 86.1336 44.2666z"/>
<path style="stroke:none; fill:#630163" d="M 113.6 44L 114.4 44.8L 113.6 44z"/>
<path style="stroke:none; fill:#5f5f5f" d="M 151.2 44L 152 44.8L 151.2 44z"/>
<path style="stroke:none; fill:#553401" d="M 46.4 44.8L 47.2 45.6L 46.4 44.8z"/>
<path style="stroke:none; fill:#ce7a01" d="M 47.7334 45.0666C 47.3778 45.4222 48.2222 45.3778 48.2666 45.3334C 48.6222 44.9778 47.7778 45.0222 47.7334 45.0666z"/>
<path style="stroke:none; fill:#d307c6" d="M 56 44.8L 56.8 45.6L 56 44.8z"/>
<path style="stroke:none; fill:#553401" d="M 56.8 44.8L 56.8 45.6L 59.2 45.6C 58.2014 45.0522 57.9612 45.001 56.8 44.8z"/>
<path style="stroke:none; fill:#010101" d="M 59.2123 45.258C 54.1248 46.7621 52.5765 53.1943 50.8895 57.6C 46.8206 68.2263 44.8 79.8461 44.8 91.2C 44.8 94.6048 44.0297 99.2256 45.7432 102.316C 47.9074 106.219 53.7341 107.59 57.6 109.119C 69.3602 113.77 88.2512 118.327 100.788 114.621C 105.915 113.105 107.402 106.86 109.11 102.4C 113.14 91.876 115.182 80.0504 115.2 68.8C 115.206 65.3985 115.968 60.7706 114.257 57.6839C 112.106 53.8055 106.264 52.369 102.4 50.8895C 90.7208 46.4174 71.6339 41.5858 59.2123 45.258z"/>
<path style="stroke:none; fill:#553401" d="M 75.7334 45.0666C 75.3778 45.4222 76.2222 45.3778 76.2666 45.3334C 76.6222 44.9778 75.7778 45.0222 75.7334 45.0666z"/>
<path style="stroke:none; fill:#744601" d="M 76.8 44.8L 76.8 45.6L 79.2 45.6C 78.2014 45.0522 77.9612 45.001 76.8 44.8z"/>
<path style="stroke:none; fill:#9f5f01" d="M 79.2 44.8L 79.2 45.6L 81.6 45.6C 80.6016 45.0522 80.3616 45.001 79.2 44.8z"/>
<path style="stroke:none; fill:#744601" d="M 89.3336 45.0666C 88.9776 45.4222 89.8224 45.3778 89.8664 45.3334C 90.2224 44.9778 89.3776 45.0222 89.3336 45.0666z"/>
<path style="stroke:none; fill:#a101a1" d="M 112 44.8L 112.8 45.6L 112 44.8z"/>
<path style="stroke:none; fill:#d307c6" d="M 113.6 44.8L 114.4 45.6L 113.6 44.8z"/>
<path style="stroke:none; fill:#5f5f5f" d="M 7.2 45.6L 8 46.4L 7.2 45.6z"/>
<path style="stroke:none; fill:#553401" d="M 44 45.6L 44.8 46.4L 44 45.6z"/>
<path style="stroke:none; fill:#ce7a01" d="M 44.8 45.6L 45.6 46.4L 44.8 45.6z"/>
<path style="stroke:none; fill:#9f5f01" d="M 51.2 45.6L 52 46.4L 51.2 45.6z"/>
<path style="stroke:none; fill:#744601" d="M 52 45.6L 52.8 46.4L 52 45.6z"/>
<path style="stroke:none; fill:#010101" d="M 52.8 45.6C 43.2838 49.1901 33.5586 50.7897 26.6722 59.2031C 14.5757 73.9819 28.2947 95.3304 43.2 101.6C 40.7758 88.5424 43.5042 74.9706 47.1278 62.4C 48.5443 57.4859 53.6284 50.5734 52.8 45.6z"/>
<path style="stroke:none; fill:#a101a1" d="M 53.6 45.6L 54.4 46.4L 53.6 45.6z"/>
<path style="stroke:none; fill:#630163" d="M 56 45.6L 56.8 46.4L 56 45.6z"/>
<path style="stroke:none; fill:#744601" d="M 83.2 45.6L 83.2 46.4L 85.6 46.4C 84.6016 45.8522 84.3616 45.801 83.2 45.6M 92.8 45.6L 93.6 46.4L 92.8 45.6z"/>
<path style="stroke:none; fill:#630163" d="M 112 45.6L 112.8 46.4L 112 45.6z"/>
<path style="stroke:none; fill:#5f5f5f" d="M 152 45.6L 152.8 46.4L 152 45.6z"/>
<path style="stroke:none; fill:#553401" d="M 41.6 46.4L 42.4 47.2L 41.6 46.4z"/>
<path style="stroke:none; fill:#9f5f01" d="M 42.4 46.4L 43.2 47.2L 42.4 46.4z"/>
<path style="stroke:none; fill:#553401" d="M 48.5334 46.6666C 48.1778 47.0222 49.0222 46.9778 49.0666 46.9334C 49.4222 46.5778 48.5778 46.6222 48.5334 46.6666z"/>
<path style="stroke:none; fill:#a101a1" d="M 55.2 46.4L 56 47.2L 55.2 46.4z"/>
<path style="stroke:none; fill:#744601" d="M 87.2 46.4L 87.2 47.2L 89.6 47.2C 88.6016 46.6522 88.3616 46.601 87.2 46.4z"/>
<path style="stroke:none; fill:#553401" d="M 95.7336 46.6666C 95.3776 47.0222 96.2224 46.9778 96.2664 46.9334C 96.6224 46.5778 95.7776 46.6222 95.7336 46.6666z"/>
<path style="stroke:none; fill:#630163" d="M 114.4 46.4L 115.2 47.2L 114.4 46.4z"/>
<path style="stroke:none; fill:#9e9e9e" d="M 6.4 47.2L 7.2 48L 6.4 47.2z"/>
<path style="stroke:none; fill:#553401" d="M 39.2 47.2L 40 48L 39.2 47.2z"/>
<path style="stroke:none; fill:#9f5f01" d="M 40 47.2L 40.8 48L 40 47.2z"/>
<path style="stroke:none; fill:#553401" d="M 45.3334 47.4666C 44.9778 47.8222 45.8222 47.7778 45.8666 47.7334C 46.2222 47.3778 45.3778 47.4222 45.3334 47.4666z"/>
<path style="stroke:none; fill:#a101a1" d="M 52.8 47.2L 53.6 48L 52.8 47.2z"/>
<path style="stroke:none; fill:#744601" d="M 91.7336 47.4666C 91.3776 47.8222 92.2224 47.7778 92.2664 47.7334C 92.6224 47.3778 91.7776 47.4222 91.7336 47.4666z"/>
<path style="stroke:none; fill:#9f5f01" d="M 98.4 47.2L 99.2 48L 98.4 47.2z"/>
<path style="stroke:none; fill:#553401" d="M 99.2 47.2L 100 48L 99.2 47.2z"/>
<path style="stroke:none; fill:#d307c6" d="M 112.8 47.2L 113.6 48L 112.8 47.2z"/>
<path style="stroke:none; fill:#a101a1" d="M 114.4 47.2L 115.2 48L 114.4 47.2z"/>
<path style="stroke:none; fill:#9e9e9e" d="M 152.8 47.2L 153.6 48L 152.8 47.2z"/>
<path style="stroke:none; fill:#273433" d="M 6.4 48L 7.2 48.8L 6.4 48z"/>
<path style="stroke:none; fill:#553401" d="M 37.6 48L 38.4 48.8L 37.6 48z"/>
<path style="stroke:none; fill:#9f5f01" d="M 42.4 48L 43.2 48.8L 42.4 48z"/>
<path style="stroke:none; fill:#630163" d="M 54.4 48L 55.2 48.8L 54.4 48z"/>
<path style="stroke:none; fill:#553401" d="M 94.4 48L 95.2 48.8L 94.4 48z"/>
<path style="stroke:none; fill:#9f5f01" d="M 95.2 48L 96 48.8L 95.2 48z"/>
<path style="stroke:none; fill:#744601" d="M 100.8 48L 101.6 48.8L 100.8 48z"/>
<path style="stroke:none; fill:#a101a1" d="M 112.8 48L 113.6 48.8L 112.8 48z"/>
<path style="stroke:none; fill:#273433" d="M 152.8 48L 153.6 48.8L 152.8 48z"/>
<path style="stroke:none; fill:#553401" d="M 36 48.8L 36.8 49.6L 36 48.8z"/>
<path style="stroke:none; fill:#9f5f01" d="M 40 48.8L 40.8 49.6L 40 48.8z"/>
<path style="stroke:none; fill:#553401" d="M 40.8 48.8L 41.6 49.6L 40.8 48.8z"/>
<path style="stroke:none; fill:#630163" d="M 52 48.8L 52.8 49.6L 52 48.8z"/>
<path style="stroke:none; fill:#553401" d="M 96.8 48.8L 97.6 49.6L 96.8 48.8z"/>
<path style="stroke:none; fill:#9f5f01" d="M 97.6 48.8L 98.4 49.6L 97.6 48.8z"/>
<path style="stroke:none; fill:#744601" d="M 103.2 48.8L 104 49.6L 103.2 48.8z"/>
<path style="stroke:none; fill:#5f5f5f" d="M 5.6 49.6L 6.4 50.4L 5.6 49.6z"/>
<path style="stroke:none; fill:#553401" d="M 34.4 49.6L 35.2 50.4L 34.4 49.6z"/>
<path style="stroke:none; fill:#a101a1" d="M 53.6 49.6L 54.4 50.4L 53.6 49.6z"/>
<path style="stroke:none; fill:#9f5f01" d="M 100 49.6L 100.8 50.4L 100 49.6M 104.8 49.6L 105.6 50.4L 104.8 49.6z"/>
<path style="stroke:none; fill:#630163" d="M 115.2 49.6L 116 50.4L 115.2 49.6z"/>
<path style="stroke:none; fill:#5f5f5f" d="M 153.6 49.6L 154.4 50.4L 153.6 49.6z"/>
<path style="stroke:none; fill:#ce7a01" d="M 33.6 50.4L 34.4 51.2L 33.6 50.4z"/>
<path style="stroke:none; fill:#553401" d="M 37.6 50.4L 38.4 51.2L 37.6 50.4z"/>
<path style="stroke:none; fill:#630163" d="M 51.2 50.4L 52 51.2L 51.2 50.4z"/>
<path style="stroke:none; fill:#553401" d="M 101.6 50.4L 102.4 51.2L 101.6 50.4z"/>
<path style="stroke:none; fill:#9f5f01" d="M 102.4 50.4L 103.2 51.2L 102.4 50.4z"/>
<path style="stroke:none; fill:#ce7a01" d="M 106.4 50.4L 107.2 51.2L 106.4 50.4z"/>
<path style="stroke:none; fill:#553401" d="M 107.2 50.4L 108 51.2L 107.2 50.4z"/>
<path style="stroke:none; fill:#a101a1" d="M 115.2 50.4L 116 51.2L 115.2 50.4z"/>
<path style="stroke:none; fill:#9e9e9e" d="M 4.8 51.2L 5.6 52L 4.8 51.2z"/>
<path style="stroke:none; fill:#744601" d="M 32 51.2L 32.8 52L 32 51.2z"/>
<path style="stroke:none; fill:#553401" d="M 36 51.2L 36.8 52L 36 51.2z"/>
<path style="stroke:none; fill:#a101a1" d="M 52.8 51.2L 53.6 52L 52.8 51.2z"/>
<path style="stroke:none; fill:#9f5f01" d="M 104 51.2L 104.8 52L 104 51.2z"/>
<path style="stroke:none; fill:#744601" d="M 108.8 51.2L 109.6 52L 108.8 51.2z"/>
<path style="stroke:none; fill:#d307c6" d="M 113.6 51.2L 114.4 52L 113.6 51.2z"/>
<path style="stroke:none; fill:#9e9e9e" d="M 154.4 51.2L 155.2 52L 154.4 51.2z"/>
<path style="stroke:none; fill:#273433" d="M 4.8 52L 5.6 52.8L 4.8 52z"/>
<path style="stroke:none; fill:#9f5f01" d="M 31.2 52L 32 52.8L 31.2 52z"/>
<path style="stroke:none; fill:#744601" d="M 34.4 52L 35.2 52.8L 34.4 52z"/>
<path style="stroke:none; fill:#630163" d="M 50.4 52L 51.2 52.8L 50.4 52z"/>
<path style="stroke:none; fill:#553401" d="M 105.6 52L 106.4 52.8L 105.6 52z"/>
<path style="stroke:none; fill:#ce7a01" d="M 106.4 52L 107.2 52.8L 106.4 52z"/>
<path style="stroke:none; fill:#744601" d="M 110.4 52L 111.2 52.8L 110.4 52z"/>
<path style="stroke:none; fill:#630163" d="M 113.6 52L 114.4 52.8L 113.6 52z"/>
<path style="stroke:none; fill:#273433" d="M 154.4 52L 155.2 52.8L 154.4 52z"/>
<path style="stroke:none; fill:#744601" d="M 29.6 52.8L 30.4 53.6L 29.6 52.8M 32.8 52.8L 33.6 53.6L 32.8 52.8z"/>
<path style="stroke:none; fill:#d307c6" d="M 50.4 52.8L 51.2 53.6L 50.4 52.8z"/>
<path style="stroke:none; fill:#a101a1" d="M 52 52.8L 52.8 53.6L 52 52.8z"/>
<path style="stroke:none; fill:#9f5f01" d="M 108 52.8L 108.8 53.6L 108 52.8M 112 52.8L 112.8 53.6L 112 52.8z"/>
<path style="stroke:none; fill:#630163" d="M 116 52.8L 116 55.2L 116.8 55.2C 116.599 54.0387 116.548 53.7987 116 52.8z"/>
<path style="stroke:none; fill:#5f5f5f" d="M 4 53.6L 4.8 54.4L 4 53.6z"/>
<path style="stroke:none; fill:#9f5f01" d="M 28.8 53.6L 29.6 54.4L 28.8 53.6z"/>
<path style="stroke:none; fill:#553401" d="M 32 53.6L 32.8 54.4L 32 53.6z"/>
<path style="stroke:none; fill:#630163" d="M 52 53.6L 52.8 54.4L 52 53.6z"/>
<path style="stroke:none; fill:#9f5f01" d="M 109.6 53.6L 110.4 54.4L 109.6 53.6M 113.6 53.6L 114.4 54.4L 113.6 53.6z"/>
<path style="stroke:none; fill:#5f5f5f" d="M 155.2 53.6L 156 54.4L 155.2 53.6z"/>
<path style="stroke:none; fill:#ce7a01" d="M 28 54.4L 28.8 55.2L 28 54.4z"/>
<path style="stroke:none; fill:#a101a1" d="M 49.6 54.4L 50.4 55.2L 49.6 54.4z"/>
<path style="stroke:none; fill:#744601" d="M 111.2 54.4L 112 55.2L 111.2 54.4z"/>
<path style="stroke:none; fill:#d307c6" d="M 114.4 54.4L 114.4 56.8L 115.2 56.8C 114.999 55.6387 114.948 55.3987 114.4 54.4z"/>
<path style="stroke:none; fill:#9e9e9e" d="M 3.2 55.2L 4 56L 3.2 55.2z"/>
<path style="stroke:none; fill:#9f5f01" d="M 29.6 55.2L 30.4 56L 29.6 55.2z"/>
<path style="stroke:none; fill:#a101a1" d="M 51.2 55.2L 52 56L 51.2 55.2z"/>
<path style="stroke:none; fill:#9f5f01" d="M 112.8 55.2L 113.6 56L 112.8 55.2z"/>
<path style="stroke:none; fill:#d307c6" d="M 116.266 55.7334C 116.222 55.7778 116.178 56.6222 116.534 56.2666C 116.578 56.2222 116.622 55.3778 116.266 55.7334z"/>
<path style="stroke:none; fill:#9e9e9e" d="M 156 55.2L 156.8 56L 156 55.2z"/>
<path style="stroke:none; fill:#5f5f5f" d="M 3.2 56L 4 56.8L 3.2 56z"/>
<path style="stroke:none; fill:#9f5f01" d="M 26.4 56L 27.2 56.8L 26.4 56M 28.8 56L 29.6 56.8L 28.8 56z"/>
<path style="stroke:none; fill:#630163" d="M 48.8 56L 49.6 56.8L 48.8 56z"/>
<path style="stroke:none; fill:#553401" d="M 113.6 56L 114.4 56.8L 113.6 56z"/>
<path style="stroke:none; fill:#ff9901" d="M 116.8 56C 119.126 60.5526 124.354 62.939 127.968 66.4716C 137.346 75.6379 142.217 88.7288 133.678 99.9968C 131.638 102.688 129.234 104.923 126.4 106.762C 121.026 110.248 109.114 111.379 105.6 116C 125.23 114.397 147.055 98.4264 137.696 76.8C 135.683 72.1477 132.346 68.3509 128.797 64.8031C 125.211 61.2185 121.393 58.1728 116.8 56z"/>
<path style="stroke:none; fill:#9f5f01" d="M 117.6 56L 118.4 56.8L 117.6 56z"/>
<path style="stroke:none; fill:#5f5f5f" d="M 156 56L 156.8 56.8L 156 56z"/>
<path style="stroke:none; fill:#273433" d="M 3.2 56.8L 4 57.6L 3.2 56.8z"/>
<path style="stroke:none; fill:#9f5f01" d="M 25.6 56.8L 26.4 57.6L 25.6 56.8z"/>
<path style="stroke:none; fill:#744601" d="M 28 56.8L 28.8 57.6L 28 56.8z"/>
<path style="stroke:none; fill:#a101a1" d="M 50.4 56.8L 51.2 57.6L 50.4 56.8z"/>
<path style="stroke:none; fill:#630163" d="M 114.666 57.3334C 114.622 57.3778 114.578 58.2222 114.934 57.8666C 114.978 57.8222 115.022 56.9778 114.666 57.3334z"/>
<path style="stroke:none; fill:#553401" d="M 119.2 56.8L 120 57.6L 119.2 56.8z"/>
<path style="stroke:none; fill:#273433" d="M 156 56.8L 156.8 57.6L 156 56.8z"/>
<path style="stroke:none; fill:#744601" d="M 24.8 57.6L 25.6 58.4L 24.8 57.6z"/>
<path style="stroke:none; fill:#9f5f01" d="M 27.2 57.6L 28 58.4L 27.2 57.6z"/>
<path style="stroke:none; fill:#630163" d="M 50.4 57.6L 51.2 58.4L 50.4 57.6z"/>
<path style="stroke:none; fill:#ffffff" d="M 64 57.6L 64 100L 72.8 100L 72.8 84.8C 84.4248 84.8088 80.664 94.0352 88.3792 99.1776C 90.7408 100.753 94.8904 100 97.6 100C 95.8016 93.7584 91.548 88.568 89.6 82.4C 98.7728 79.1888 99.0376 64.9785 91.168 60.0068C 84.008 55.4834 72.083 57.6 64 57.6z"/>
<path style="stroke:none; fill:#9e9e9e" d="M 85.3336 57.8666C 84.9776 58.2222 85.8224 58.1778 85.8664 58.1334C 86.2224 57.7778 85.3776 57.8222 85.3336 57.8666z"/>
<path style="stroke:none; fill:#5f5f5f" d="M 86.4 57.6L 87.2 58.4L 86.4 57.6z"/>
<path style="stroke:none; fill:#273433" d="M 87.2 57.6L 88 58.4L 87.2 57.6z"/>
<path style="stroke:none; fill:#9f5f01" d="M 116.8 57.6L 117.6 58.4L 116.8 57.6z"/>
<path style="stroke:none; fill:#744601" d="M 120 57.6L 120.8 58.4L 120 57.6z"/>
<path style="stroke:none; fill:#9e9e9e" d="M 2.4 58.4L 3.2 59.2L 2.4 58.4z"/>
<path style="stroke:none; fill:#a101a1" d="M 48 58.4L 48.8 59.2L 48 58.4z"/>
<path style="stroke:none; fill:#9e9e9e" d="M 88.8 58.4L 89.6 59.2L 88.8 58.4z"/>
<path style="stroke:none; fill:#630163" d="M 116.8 58.4L 116.8 62.4L 117.6 62.4C 117.53 60.8287 117.423 59.8153 116.8 58.4z"/>
<path style="stroke:none; fill:#010101" d="M 117.6 58.4C 117.6 79.3669 112.074 94.6976 106.4 114.4C 115.231 111.913 124.329 109.735 131.168 103.126C 147.052 87.7728 132.319 67.4852 117.6 58.4z"/>
<path style="stroke:none; fill:#9e9e9e" d="M 156.8 58.4L 157.6 59.2L 156.8 58.4z"/>
<path style="stroke:none; fill:#5f5f5f" d="M 2.4 59.2L 3.2 60L 2.4 59.2z"/>
<path style="stroke:none; fill:#a101a1" d="M 49.6 59.2L 50.4 60L 49.6 59.2z"/>
<path style="stroke:none; fill:#9e9e9e" d="M 90.4 59.2L 91.2 60L 90.4 59.2z"/>
<path style="stroke:none; fill:#9f5f01" d="M 119.2 59.2L 120 60L 119.2 59.2z"/>
<path style="stroke:none; fill:#744601" d="M 122.4 59.2L 123.2 60L 122.4 59.2z"/>
<path style="stroke:none; fill:#5f5f5f" d="M 156.8 59.2L 157.6 60L 156.8 59.2z"/>
<path style="stroke:none; fill:#ce7a01" d="M 23.2 60L 24 60.8L 23.2 60z"/>
<path style="stroke:none; fill:#630163" d="M 47.2 60L 48 60.8L 47.2 60z"/>
<path style="stroke:none; fill:#5f5f5f" d="M 92 60L 92.8 60.8L 92 60z"/>
<path style="stroke:none; fill:#553401" d="M 120 60L 120.8 60.8L 120 60z"/>
<path style="stroke:none; fill:#9e9e9e" d="M 1.86666 61.3334C 1.82221 61.3778 1.77778 62.2222 2.13334 61.8666C 2.17775 61.8222 2.22225 60.9778 1.86666 61.3334z"/>
<path style="stroke:none; fill:#273433" d="M 6.4 60.8L 6.4 62.4L 8 62.4L 8 60.8L 6.4 60.8z"/>
<path style="stroke:none; fill:#553401" d="M 22.4 60.8L 23.2 61.6L 22.4 60.8z"/>
<path style="stroke:none; fill:#744601" d="M 24.8 60.8L 25.6 61.6L 24.8 60.8z"/>
<path style="stroke:none; fill:#a101a1" d="M 47.2 60.8L 48 61.6L 47.2 60.8z"/>
<path style="stroke:none; fill:#5f5f5f" d="M 92.8 60.8L 93.6 61.6L 92.8 60.8z"/>
<path style="stroke:none; fill:#9f5f01" d="M 121.6 60.8L 122.4 61.6L 121.6 60.8z"/>
<path style="stroke:none; fill:#273433" d="M 152.8 60.8L 152 62.4L 153.6 62.4C 153.6 60.9174 153.84 61.3199 152.8 60.8z"/>
<path style="stroke:none; fill:#9e9e9e" d="M 157.866 61.3334C 157.822 61.3778 157.778 62.2222 158.134 61.8666C 158.178 61.8222 158.222 60.9778 157.866 61.3334z"/>
<path style="stroke:none; fill:#a101a1" d="M 48.8 61.6L 49.6 62.4L 48.8 61.6z"/>
<path style="stroke:none; fill:#5f5f5f" d="M 93.6 61.6L 94.4 62.4L 93.6 61.6z"/>
<path style="stroke:none; fill:#744601" d="M 122.4 61.6L 123.2 62.4L 122.4 61.6M 125.6 61.6L 126.4 62.4L 125.6 61.6z"/>
<path style="stroke:none; fill:#5f5f5f" d="M 1.6 62.4L 2.4 63.2L 1.6 62.4z"/>
<path style="stroke:none; fill:#016060" d="M 6.4 62.4C 4.11798 73.4622 3.67578 85.7424 6.4 96.8L 7.2 96.8C 7.05506 89.7776 5.31985 83.1168 5.63148 76C 5.82007 71.6932 7.99293 66.4811 6.4 62.4z"/>
<path style="stroke:none; fill:#744601" d="M 21.6 62.4L 22.4 63.2L 21.6 62.4z"/>
<path style="stroke:none; fill:#630163" d="M 48.8 62.4L 49.6 63.2L 48.8 62.4z"/>
<path style="stroke:none; fill:#273433" d="M 94.4 62.4L 95.2 63.2L 94.4 62.4z"/>
<path style="stroke:none; fill:#a101a1" d="M 115.2 62.4L 115.2 70.4L 116 70.4C 116 67.6685 116.262 64.9306 115.2 62.4z"/>
<path style="stroke:none; fill:#d307c6" d="M 116.8 62.4L 116.8 70.4L 117.6 70.4C 117.6 67.6685 117.862 64.9306 116.8 62.4z"/>
<path style="stroke:none; fill:#9f5f01" d="M 126.4 62.4L 127.2 63.2L 126.4 62.4z"/>
<path style="stroke:none; fill:#016060" d="M 152.8 62.4C 153.316 74.4271 152.899 85.6456 152.8 97.6L 153.6 97.6C 154.894 87.4136 158.501 71.7334 152.8 62.4z"/>
<path style="stroke:none; fill:#5f5f5f" d="M 157.6 62.4L 158.4 63.2L 157.6 62.4z"/>
<path style="stroke:none; fill:#ce7a01" d="M 23.2 63.2L 24 64L 23.2 63.2z"/>
<path style="stroke:none; fill:#630163" d="M 46.4 63.2L 47.2 64L 46.4 63.2z"/>
<path style="stroke:none; fill:#9e9e9e" d="M 94.4 63.2L 95.2 64L 94.4 63.2z"/>
<path style="stroke:none; fill:#9f5f01" d="M 127.2 63.2L 128 64L 127.2 63.2z"/>
<path style="stroke:none; fill:#553401" d="M 20.8 64L 21.6 64.8L 20.8 64M 23.2 64L 24 64.8L 23.2 64z"/>
<path style="stroke:none; fill:#a101a1" d="M 46.4 64L 47.2 64.8L 46.4 64M 48 64L 48.8 64.8L 48 64z"/>
<path style="stroke:none; fill:#5f5f5f" d="M 95.2 64L 96 64.8L 95.2 64z"/>
<path style="stroke:none; fill:#9f5f01" d="M 125.6 64L 126.4 64.8L 125.6 64M 128 64L 128.8 64.8L 128 64z"/>
<path style="stroke:none; fill:#9e9e9e" d="M 1.06666 65.3334C 1.02222 65.3778 0.977784 66.2222 1.33334 65.8666C 1.37778 65.8222 1.42223 64.9778 1.06666 65.3334z"/>
<path style="stroke:none; fill:#630163" d="M 48 64.8L 48.8 65.6L 48 64.8z"/>
<path style="stroke:none; fill:#9e9e9e" d="M 72.8 64.8C 72.8 74.2778 71.798 78.4 82.4 78.4L 82.4 77.6L 73.6 77.6C 73.6 73.5278 74.3858 68.579 72.8 64.8z"/>
<path style="stroke:none; fill:#010101" d="M 73.6 64.8L 73.6 77.6C 76.954 77.6 81.6472 78.4099 84.6176 76.5457C 88.0448 74.3945 87.9728 68.5665 84.6816 66.3506C 81.604 64.279 77.1162 64.8004 73.6 64.8z"/>
<path style="stroke:none; fill:#5f5f5f" d="M 82.1336 65.0666C 81.7776 65.4222 82.6224 65.3778 82.6664 65.3334C 83.0224 64.9778 82.1776 65.0222 82.1336 65.0666z"/>
<path style="stroke:none; fill:#9e9e9e" d="M 83.2 64.8L 84 65.6L 83.2 64.8z"/>
<path style="stroke:none; fill:#9f5f01" d="M 126.4 64.8L 127.2 65.6L 126.4 64.8M 128.8 64.8L 129.6 65.6L 128.8 64.8z"/>
<path style="stroke:none; fill:#9e9e9e" d="M 158.666 65.3334C 158.622 65.3778 158.578 66.2222 158.934 65.8666C 158.978 65.8222 159.022 64.9778 158.666 65.3334z"/>
<path style="stroke:none; fill:#744601" d="M 22.4 65.6L 23.2 66.4L 22.4 65.6z"/>
<path style="stroke:none; fill:#9e9e9e" d="M 84.8 65.6L 85.6 66.4L 84.8 65.6z"/>
<path style="stroke:none; fill:#5f5f5f" d="M 96 65.6L 96.8 66.4L 96 65.6z"/>
<path style="stroke:none; fill:#ce7a01" d="M 127.2 65.6L 128 66.4L 127.2 65.6z"/>
<path style="stroke:none; fill:#9f5f01" d="M 129.6 65.6L 130.4 66.4L 129.6 65.6z"/>
<path style="stroke:none; fill:#5f5f5f" d="M 0.8 66.4L 1.6 67.2L 0.8 66.4z"/>
<path style="stroke:none; fill:#273433" d="M 6.66666 66.9334C 6.62222 66.9778 6.57777 67.8222 6.93334 67.4666C 6.97779 67.4222 7.02222 66.5778 6.66666 66.9334z"/>
<path style="stroke:none; fill:#553401" d="M 20 66.4L 20.8 67.2L 20 66.4z"/>
<path style="stroke:none; fill:#a101a1" d="M 45.6 66.4L 46.4 67.2L 45.6 66.4z"/>
<path style="stroke:none; fill:#d307c6" d="M 47.2 66.4L 48 67.2L 47.2 66.4z"/>
<path style="stroke:none; fill:#5f5f5f" d="M 85.6 66.4L 86.4 67.2L 85.6 66.4z"/>
<path style="stroke:none; fill:#9e9e9e" d="M 96 66.4L 96.8 67.2L 96 66.4z"/>
<path style="stroke:none; fill:#ce7a01" d="M 128 66.4L 128.8 67.2L 128 66.4z"/>
<path style="stroke:none; fill:#9f5f01" d="M 130.4 66.4L 131.2 67.2L 130.4 66.4z"/>
<path style="stroke:none; fill:#273433" d="M 153.066 66.9334C 153.022 66.9778 152.978 67.8222 153.334 67.4666C 153.378 67.4222 153.422 66.5778 153.066 66.9334z"/>
<path style="stroke:none; fill:#5f5f5f" d="M 158.4 66.4L 159.2 67.2L 158.4 66.4z"/>
<path style="stroke:none; fill:#ce7a01" d="M 20.2666 67.7334C 20.2222 67.7778 20.1778 68.6222 20.5334 68.2666C 20.5778 68.2222 20.6222 67.3778 20.2666 67.7334z"/>
<path style="stroke:none; fill:#630163" d="M 47.2 67.2L 48 68L 47.2 67.2z"/>
<path style="stroke:none; fill:#9e9e9e" d="M 86.4 67.2L 87.2 68L 86.4 67.2z"/>
<path style="stroke:none; fill:#9f5f01" d="M 128.8 67.2L 129.6 68L 128.8 67.2M 131.2 67.2L 132 68L 131.2 67.2z"/>
<path style="stroke:none; fill:#744601" d="M 21.6 68L 21.6 70.4L 22.4 70.4C 22.199 69.2387 22.1478 68.9987 21.6 68z"/>
<path style="stroke:none; fill:#9f5f01" d="M 129.6 68L 130.4 68.8L 129.6 68z"/>
<path style="stroke:none; fill:#744601" d="M 132 68L 132.8 68.8L 132 68z"/>
<path style="stroke:none; fill:#9e9e9e" d="M 0.266666 69.3334C 0.22221 69.3778 0.177794 70.2222 0.533334 69.8666C 0.577772 69.8222 0.622228 68.9778 0.266666 69.3334z"/>
<path style="stroke:none; fill:#a101a1" d="M 44.8 68.8L 44.8 71.2L 45.6 71.2C 45.399 70.0388 45.3478 69.7986 44.8 68.8z"/>
<path style="stroke:none; fill:#273433" d="M 97.0664 69.3334C 97.0224 69.3778 96.9776 70.2222 97.3336 69.8666C 97.3776 69.8222 97.4224 68.9778 97.0664 69.3334z"/>
<path style="stroke:none; fill:#ce7a01" d="M 130.4 68.8L 131.2 69.6L 130.4 68.8z"/>
<path style="stroke:none; fill:#9e9e9e" d="M 159.2 68.8L 159.2 71.2L 160 71.2C 159.799 70.0387 159.748 69.7986 159.2 68.8M 87.2 69.6L 87.2 73.6L 88 73.6C 87.9296 72.0287 87.8232 71.0153 87.2 69.6z"/>
<path style="stroke:none; fill:#5f5f5f" d="M 0 70.4L 0 73.6L 0.8 73.6C 0.660713 72.2518 0.546428 71.6048 0 70.4z"/>
<path style="stroke:none; fill:#273433" d="M 21.6 70.4L 21.6 76L 22.4 76C 22.385 73.9654 22.3876 72.2652 21.6 70.4z"/>
<path style="stroke:none; fill:#630163" d="M 46.4 70.4L 46.4 72.8L 47.2 72.8C 46.999 71.6388 46.9478 71.3986 46.4 70.4z"/>
<path style="stroke:none; fill:#5f5f5f" d="M 96.8 70.4L 96.8 72.8L 97.6 72.8C 97.3992 71.6388 97.348 71.3986 96.8 70.4z"/>
<path style="stroke:none; fill:#d307c6" d="M 115.2 70.4L 115.2 72.8L 116 72.8C 115.799 71.6387 115.748 71.3987 115.2 70.4z"/>
<path style="stroke:none; fill:#a101a1" d="M 116.8 70.4L 116.8 72.8L 117.6 72.8C 117.399 71.6387 117.348 71.3987 116.8 70.4z"/>
<path style="stroke:none; fill:#9f5f01" d="M 133.6 70.4L 134.4 71.2L 133.6 70.4z"/>
<path style="stroke:none; fill:#553401" d="M 132 71.2L 132.8 72L 132 71.2M 134.4 71.2L 135.2 72L 134.4 71.2z"/>
<path style="stroke:none; fill:#5f5f5f" d="M 159.466 71.7334C 159.422 71.7778 159.378 72.6222 159.734 72.2666C 159.778 72.2222 159.822 71.3778 159.466 71.7334z"/>
<path style="stroke:none; fill:#630163" d="M 44 72.8L 44.8 73.6L 44 72.8M 116.8 72.8L 116.8 76.8L 117.6 76.8C 117.53 75.2287 117.423 74.2153 116.8 72.8z"/>
<path style="stroke:none; fill:#273433" d="M 159.466 73.3334C 159.422 73.3778 159.378 74.2222 159.734 73.8666C 159.778 73.8222 159.822 72.9778 159.466 73.3334M 0.266666 74.1334C 0.22221 74.1778 0.177794 75.0222 0.533334 74.6666C 0.577772 74.6222 0.622228 73.7778 0.266666 74.1334z"/>
<path style="stroke:none; fill:#a101a1" d="M 44 73.6L 44.8 74.4L 44 73.6z"/>
<path style="stroke:none; fill:#744601" d="M 133.6 73.6L 134.4 74.4L 133.6 73.6M 136 73.6L 136.8 74.4L 136 73.6z"/>
<path style="stroke:none; fill:#a101a1" d="M 45.6 74.4L 46.4 75.2L 45.6 74.4z"/>
<path style="stroke:none; fill:#5f5f5f" d="M 86.4 74.4L 87.2 75.2L 86.4 74.4z"/>
<path style="stroke:none; fill:#9e9e9e" d="M 96 74.4L 96.8 75.2L 96 74.4z"/>
<path style="stroke:none; fill:#ce7a01" d="M 134.4 74.4L 135.2 75.2L 134.4 74.4z"/>
<path style="stroke:none; fill:#630163" d="M 45.8666 75.7334C 45.8222 75.7778 45.7778 76.6222 46.1334 76.2666C 46.1778 76.2222 46.2222 75.3778 45.8666 75.7334z"/>
<path style="stroke:none; fill:#5f5f5f" d="M 96 75.2L 96.8 76L 96 75.2z"/>
<path style="stroke:none; fill:#630163" d="M 114.4 75.2L 114.4 80L 115.2 80C 115.162 78.1978 115.099 76.8417 114.4 75.2z"/>
<path style="stroke:none; fill:#553401" d="M 134.4 75.2L 135.2 76L 134.4 75.2z"/>
<path style="stroke:none; fill:#744601" d="M 136.8 75.2L 137.6 76L 136.8 75.2z"/>
<path style="stroke:none; fill:#9f5f01" d="M 20 76L 20 78.4L 20.8 78.4C 20.599 77.2387 20.5478 76.9987 20 76z"/>
<path style="stroke:none; fill:#ce7a01" d="M 21.8666 76.5334C 21.8222 76.5778 21.7778 77.4222 22.1334 77.0666C 22.1778 77.0222 22.2222 76.1778 21.8666 76.5334z"/>
<path style="stroke:none; fill:#630163" d="M 43.4666 76.5334C 43.4222 76.5778 43.3778 77.4222 43.7334 77.0666C 43.7778 77.0222 43.8222 76.1778 43.4666 76.5334z"/>
<path style="stroke:none; fill:#273433" d="M 84.8 76L 85.6 76.8L 84.8 76z"/>
<path style="stroke:none; fill:#9e9e9e" d="M 84 76.8L 84.8 77.6L 84 76.8M 95.2 76.8L 96 77.6L 95.2 76.8z"/>
<path style="stroke:none; fill:#744601" d="M 137.6 76.8L 138.4 77.6L 137.6 76.8z"/>
<path style="stroke:none; fill:#a101a1" d="M 43.2 77.6L 43.2 80L 44 80C 43.799 78.8387 43.7478 78.5986 43.2 77.6z"/>
<path style="stroke:none; fill:#273433" d="M 95.2 77.6L 96 78.4L 95.2 77.6z"/>
<path style="stroke:none; fill:#9f5f01" d="M 136 77.6L 136.8 78.4L 136 77.6z"/>
<path style="stroke:none; fill:#a101a1" d="M 45.0666 78.9334C 45.0222 78.9778 44.9778 79.8222 45.3334 79.4666C 45.3778 79.4222 45.4222 78.5778 45.0666 78.9334z"/>
<path style="stroke:none; fill:#9e9e9e" d="M 94.4 78.4L 95.2 79.2L 94.4 78.4z"/>
<path style="stroke:none; fill:#d307c6" d="M 116.266 78.9334C 116.222 78.9778 116.178 79.8222 116.534 79.4666C 116.578 79.4222 116.622 78.5778 116.266 78.9334z"/>
<path style="stroke:none; fill:#553401" d="M 136 78.4L 136.8 79.2L 136 78.4z"/>
<path style="stroke:none; fill:#9f5f01" d="M 22.4 79.2L 23.2 80L 22.4 79.2M 138.4 79.2L 139.2 80L 138.4 79.2M 20.8 80L 21.6 80.8L 20.8 80z"/>
<path style="stroke:none; fill:#d307c6" d="M 43.4666 80.5336C 43.4222 80.5776 43.3778 81.4224 43.7334 81.0664C 43.7778 81.0224 43.8222 80.1776 43.4666 80.5336z"/>
<path style="stroke:none; fill:#630163" d="M 44.8 80L 44.8 82.4L 45.6 82.4C 45.399 81.2384 45.3478 80.9984 44.8 80z"/>
<path style="stroke:none; fill:#9e9e9e" d="M 92.8 80L 93.6 80.8L 92.8 80z"/>
<path style="stroke:none; fill:#d307c6" d="M 114.666 80.5336C 114.622 80.5776 114.578 81.4224 114.934 81.0664C 114.978 81.0224 115.022 80.1776 114.666 80.5336z"/>
<path style="stroke:none; fill:#a101a1" d="M 116.266 80.5336C 116.222 80.5776 116.178 81.4224 116.534 81.0664C 116.578 81.0224 116.622 80.1776 116.266 80.5336z"/>
<path style="stroke:none; fill:#9f5f01" d="M 136.8 80L 137.6 80.8L 136.8 80z"/>
<path style="stroke:none; fill:#553401" d="M 23.2 80.8L 24 81.6L 23.2 80.8z"/>
<path style="stroke:none; fill:#744601" d="M 139.2 80.8L 139.2 83.2L 140 83.2C 139.799 82.0384 139.748 81.7984 139.2 80.8z"/>
<path style="stroke:none; fill:#273433" d="M 159.2 80.8L 159.2 87.2L 160 87.2C 159.994 84.9312 160.078 82.8904 159.2 80.8z"/>
<path style="stroke:none; fill:#9f5f01" d="M 23.2 81.6L 24 82.4L 23.2 81.6z"/>
<path style="stroke:none; fill:#9e9e9e" d="M 91.2 81.6L 92 82.4L 91.2 81.6z"/>
<path style="stroke:none; fill:#630163" d="M 116 81.6L 116 84L 116.8 84C 116.599 82.8384 116.548 82.5984 116 81.6z"/>
<path style="stroke:none; fill:#744601" d="M 21.6 82.4L 22.4 83.2L 21.6 82.4z"/>
<path style="stroke:none; fill:#9e9e9e" d="M 89.6 82.4L 90.4 83.2L 89.6 82.4z"/>
<path style="stroke:none; fill:#273433" d="M 90.4 82.4L 91.2 83.2L 90.4 82.4z"/>
<path style="stroke:none; fill:#9f5f01" d="M 137.866 82.9336C 137.822 82.9776 137.778 83.8224 138.134 83.4664C 138.178 83.4224 138.222 82.5776 137.866 82.9336z"/>
<path style="stroke:none; fill:#273433" d="M 0 83.2L 0 87.2L 0.8 87.2C 0.729925 85.6288 0.62315 84.6152 0 83.2z"/>
<path style="stroke:none; fill:#630163" d="M 42.4 83.2L 42.4 87.2L 43.2 87.2C 43.1299 85.6288 43.0231 84.6152 42.4 83.2M 113.866 83.7336C 113.822 83.7776 113.778 84.6224 114.134 84.2664C 114.178 84.2224 114.222 83.3776 113.866 83.7336z"/>
<path style="stroke:none; fill:#744601" d="M 22.4 84L 23.2 84.8L 22.4 84z"/>
<path style="stroke:none; fill:#553401" d="M 24.8 84L 25.6 84.8L 24.8 84z"/>
<path style="stroke:none; fill:#9e9e9e" d="M 89.6 84L 90.4 84.8L 89.6 84z"/>
<path style="stroke:none; fill:#553401" d="M 137.6 84L 137.6 86.4L 138.4 86.4C 138.199 85.2384 138.148 84.9984 137.6 84z"/>
<path style="stroke:none; fill:#ce7a01" d="M 24.8 84.8L 25.6 85.6L 24.8 84.8z"/>
<path style="stroke:none; fill:#9e9e9e" d="M 72.8 84.8L 72.8 100L 73.6 100C 73.6 95.2792 74.636 89.1752 72.8 84.8M 80 84.8L 80.8 85.6L 80 84.8z"/>
<path style="stroke:none; fill:#273433" d="M 90.4 84.8L 91.2 85.6L 90.4 84.8z"/>
<path style="stroke:none; fill:#a101a1" d="M 113.6 84.8L 114.4 85.6L 113.6 84.8z"/>
<path style="stroke:none; fill:#273433" d="M 140 84.8L 140 88.8L 140.8 88.8C 140.73 87.2288 140.623 86.2152 140 84.8z"/>
<path style="stroke:none; fill:#744601" d="M 23.2 85.6L 24 86.4L 23.2 85.6z"/>
<path style="stroke:none; fill:#553401" d="M 25.6 85.6L 26.4 86.4L 25.6 85.6z"/>
<path style="stroke:none; fill:#273433" d="M 80 85.6L 80.8 86.4L 80 85.6z"/>
<path style="stroke:none; fill:#9e9e9e" d="M 90.4 85.6L 91.2 86.4L 90.4 85.6z"/>
<path style="stroke:none; fill:#a101a1" d="M 115.2 85.6L 116 86.4L 115.2 85.6z"/>
<path style="stroke:none; fill:#9e9e9e" d="M 80.8 86.4L 81.6 87.2L 80.8 86.4z"/>
<path style="stroke:none; fill:#273433" d="M 91.2 86.4L 92 87.2L 91.2 86.4z"/>
<path style="stroke:none; fill:#630163" d="M 115.2 86.4L 116 87.2L 115.2 86.4z"/>
<path style="stroke:none; fill:#5f5f5f" d="M 0 87.2L 0 89.6L 0.8 89.6C 0.599032 88.4384 0.547845 88.1984 0 87.2z"/>
<path style="stroke:none; fill:#a101a1" d="M 42.4 87.2L 42.4 89.6L 43.2 89.6C 42.999 88.4384 42.9478 88.1984 42.4 87.2z"/>
<path style="stroke:none; fill:#d307c6" d="M 44.2666 87.7336C 44.2222 87.7776 44.1778 88.6224 44.5334 88.2664C 44.5778 88.2224 44.6222 87.3776 44.2666 87.7336z"/>
<path style="stroke:none; fill:#630163" d="M 112.8 87.2L 112.8 89.6L 113.6 89.6C 113.399 88.4384 113.348 88.1984 112.8 87.2z"/>
<path style="stroke:none; fill:#9e9e9e" d="M 159.2 87.2L 159.2 91.2L 160 91.2C 159.93 89.6288 159.823 88.6152 159.2 87.2z"/>
<path style="stroke:none; fill:#553401" d="M 24.8 88L 25.6 88.8L 24.8 88M 27.2 88L 28 88.8L 27.2 88z"/>
<path style="stroke:none; fill:#9e9e9e" d="M 81.6 88L 82.4 88.8L 81.6 88z"/>
<path style="stroke:none; fill:#5f5f5f" d="M 92 88L 92.8 88.8L 92 88z"/>
<path style="stroke:none; fill:#9f5f01" d="M 25.6 88.8L 26.4 89.6L 25.6 88.8z"/>
<path style="stroke:none; fill:#a101a1" d="M 44 88.8L 44 96L 44.8 96C 44.7986 93.4992 44.9703 91.112 44 88.8z"/>
<path style="stroke:none; fill:#630163" d="M 114.4 88.8L 114.4 91.2L 115.2 91.2C 114.999 90.0384 114.948 89.7984 114.4 88.8z"/>
<path style="stroke:none; fill:#553401" d="M 137.6 88.8L 137.6 91.2L 138.4 91.2C 138.199 90.0384 138.148 89.7984 137.6 88.8z"/>
<path style="stroke:none; fill:#9e9e9e" d="M 0.266666 90.1336C 0.222228 90.1776 0.177772 91.0224 0.533334 90.6664C 0.577772 90.6224 0.622228 89.7776 0.266666 90.1336z"/>
<path style="stroke:none; fill:#d307c6" d="M 42.4 89.6L 42.4 96L 43.2 96C 43.1942 93.732 43.2782 91.6904 42.4 89.6z"/>
<path style="stroke:none; fill:#5f5f5f" d="M 82.4 89.6L 83.2 90.4L 82.4 89.6M 92.8 89.6L 93.6 90.4L 92.8 89.6z"/>
<path style="stroke:none; fill:#273433" d="M 154.4 89.6L 154.4 92L 155.2 92C 154.999 90.8384 154.948 90.5984 154.4 89.6z"/>
<path style="stroke:none; fill:#ce7a01" d="M 28.8 90.4L 29.6 91.2L 28.8 90.4z"/>
<path style="stroke:none; fill:#9e9e9e" d="M 92.8 90.4L 93.6 91.2L 92.8 90.4z"/>
<path style="stroke:none; fill:#ffffff" d="M 0 91.2L 0 160L 68.8 160L 68.8 159.2C 44.5375 157.269 21.1618 139.284 9.84688 118.4C 5.13699 109.707 4.13951 99.8112 0 91.2z"/>
<path style="stroke:none; fill:#744601" d="M 27.2 91.2L 28 92L 27.2 91.2z"/>
<path style="stroke:none; fill:#9f5f01" d="M 29.6 91.2L 30.4 92L 29.6 91.2z"/>
<path style="stroke:none; fill:#5f5f5f" d="M 83.2 91.2L 84 92L 83.2 91.2z"/>
<path style="stroke:none; fill:#273433" d="M 93.6 91.2L 94.4 92L 93.6 91.2z"/>
<path style="stroke:none; fill:#630163" d="M 112.266 91.7336C 112.222 91.7776 112.178 92.6224 112.534 92.2664C 112.578 92.2224 112.622 91.3776 112.266 91.7336z"/>
<path style="stroke:none; fill:#ce7a01" d="M 137.866 91.7336C 137.822 91.7776 137.778 92.6224 138.134 92.2664C 138.178 92.2224 138.222 91.3776 137.866 91.7336z"/>
<path style="stroke:none; fill:#ffffff" d="M 159.2 91.2C 156.577 124.159 123.9 157.758 90.4 159.2L 90.4 160L 160 160L 160 112.8C 160 106.394 161.684 97.12 159.2 91.2z"/>
<path style="stroke:none; fill:#9f5f01" d="M 28 92L 28.8 92.8L 28 92M 30.4 92L 31.2 92.8L 30.4 92M 139.2 92L 140 92.8L 139.2 92z"/>
<path style="stroke:none; fill:#5f5f5f" d="M 0.8 92.8L 1.6 93.6L 0.8 92.8z"/>
<path style="stroke:none; fill:#9f5f01" d="M 28.8 92.8L 29.6 93.6L 28.8 92.8z"/>
<path style="stroke:none; fill:#ce7a01" d="M 31.2 92.8L 32 93.6L 31.2 92.8z"/>
<path style="stroke:none; fill:#5f5f5f" d="M 84 92.8L 84.8 93.6L 84 92.8M 94.4 92.8L 95.2 93.6L 94.4 92.8z"/>
<path style="stroke:none; fill:#d307c6" d="M 112 92.8L 112.8 93.6L 112 92.8z"/>
<path style="stroke:none; fill:#630163" d="M 113.6 92.8L 114.4 93.6L 113.6 92.8z"/>
<path style="stroke:none; fill:#5f5f5f" d="M 158.4 92.8L 159.2 93.6L 158.4 92.8z"/>
<path style="stroke:none; fill:#9e9e9e" d="M 1.06666 94.1336C 1.02222 94.1776 0.977792 95.0224 1.33334 94.6664C 1.37778 94.6224 1.42222 93.7776 1.06666 94.1336z"/>
<path style="stroke:none; fill:#9f5f01" d="M 29.6 93.6L 30.4 94.4L 29.6 93.6z"/>
<path style="stroke:none; fill:#ce7a01" d="M 32 93.6L 32.8 94.4L 32 93.6z"/>
<path style="stroke:none; fill:#9e9e9e" d="M 84.8 93.6L 85.6 94.4L 84.8 93.6z"/>
<path style="stroke:none; fill:#744601" d="M 136.8 93.6L 137.6 94.4L 136.8 93.6z"/>
<path style="stroke:none; fill:#9e9e9e" d="M 158.666 94.1336C 158.622 94.1776 158.578 95.0224 158.934 94.6664C 158.978 94.6224 159.022 93.7776 158.666 94.1336z"/>
<path style="stroke:none; fill:#9f5f01" d="M 30.4 94.4L 31.2 95.2L 30.4 94.4M 32.8 94.4L 33.6 95.2L 32.8 94.4z"/>
<path style="stroke:none; fill:#5f5f5f" d="M 84.8 94.4L 85.6 95.2L 84.8 94.4z"/>
<path style="stroke:none; fill:#9e9e9e" d="M 95.2 94.4L 96 95.2L 95.2 94.4z"/>
<path style="stroke:none; fill:#630163" d="M 111.2 94.4L 112 95.2L 111.2 94.4z"/>
<path style="stroke:none; fill:#9f5f01" d="M 31.2 95.2L 32 96L 31.2 95.2M 33.6 95.2L 34.4 96L 33.6 95.2z"/>
<path style="stroke:none; fill:#a101a1" d="M 111.2 95.2L 112 96L 111.2 95.2M 112.8 95.2L 113.6 96L 112.8 95.2z"/>
<path style="stroke:none; fill:#553401" d="M 136 95.2L 136.8 96L 136 95.2M 138.4 95.2L 139.2 96L 138.4 95.2z"/>
<path style="stroke:none; fill:#9f5f01" d="M 32 96L 32.8 96.8L 32 96z"/>
<path style="stroke:none; fill:#ce7a01" d="M 34.4 96L 35.2 96.8L 34.4 96z"/>
<path style="stroke:none; fill:#a101a1" d="M 42.6666 96.5336C 42.6222 96.5776 42.5778 97.4224 42.9334 97.0664C 42.9778 97.0224 43.0222 96.1776 42.6666 96.5336z"/>
<path style="stroke:none; fill:#273433" d="M 85.6 96L 86.4 96.8L 85.6 96z"/>
<path style="stroke:none; fill:#9e9e9e" d="M 96 96L 96.8 96.8L 96 96z"/>
<path style="stroke:none; fill:#630163" d="M 112.8 96L 113.6 96.8L 112.8 96z"/>
<path style="stroke:none; fill:#ce7a01" d="M 136 96L 136.8 96.8L 136 96z"/>
<path style="stroke:none; fill:#5f5f5f" d="M 1.6 96.8L 2.4 97.6L 1.6 96.8z"/>
<path style="stroke:none; fill:#273433" d="M 6.4 96.8L 6.4 98.4L 8 98.4L 8 96.8L 6.4 96.8z"/>
<path style="stroke:none; fill:#9f5f01" d="M 32.8 96.8L 33.6 97.6L 32.8 96.8z"/>
<path style="stroke:none; fill:#9e9e9e" d="M 86.4 96.8L 87.2 97.6L 86.4 96.8z"/>
<path style="stroke:none; fill:#630163" d="M 110.4 96.8L 111.2 97.6L 110.4 96.8z"/>
<path style="stroke:none; fill:#744601" d="M 137.6 96.8L 138.4 97.6L 137.6 96.8z"/>
<path style="stroke:none; fill:#273433" d="M 152 96.8L 152 98.4L 153.6 98.4C 153.164 97.092 153.308 97.236 152 96.8z"/>
<path style="stroke:none; fill:#5f5f5f" d="M 157.6 96.8L 158.4 97.6L 157.6 96.8z"/>
<path style="stroke:none; fill:#9e9e9e" d="M 1.86666 98.1336C 1.82221 98.1776 1.77779 99.0224 2.13334 98.6664C 2.17776 98.6224 2.22223 97.7776 1.86666 98.1336z"/>
<path style="stroke:none; fill:#744601" d="M 33.6 97.6L 34.4 98.4L 33.6 97.6z"/>
<path style="stroke:none; fill:#553401" d="M 36.8 97.6L 37.6 98.4L 36.8 97.6z"/>
<path style="stroke:none; fill:#630163" d="M 42.4 97.6L 42.4 100L 43.2 100C 42.999 98.8384 42.9478 98.5984 42.4 97.6z"/>
<path style="stroke:none; fill:#5f5f5f" d="M 86.4 97.6L 87.2 98.4L 86.4 97.6z"/>
<path style="stroke:none; fill:#9e9e9e" d="M 96.8 97.6L 97.6 98.4L 96.8 97.6z"/>
<path style="stroke:none; fill:#a101a1" d="M 110.4 97.6L 111.2 98.4L 110.4 97.6z"/>
<path style="stroke:none; fill:#9e9e9e" d="M 157.866 98.1336C 157.822 98.1776 157.778 99.0224 158.134 98.6664C 158.178 98.6224 158.222 97.7776 157.866 98.1336z"/>
<path style="stroke:none; fill:#016060" d="M 7.2 98.4C 8.35304 111.606 19.807 131.914 32 137.6C 26.8797 130.331 20.184 124.569 15.5623 116.8C 12.1112 110.999 10.8556 103.931 7.2 98.4z"/>
<path style="stroke:none; fill:#553401" d="M 34.4 98.4L 35.2 99.2L 34.4 98.4z"/>
<path style="stroke:none; fill:#9f5f01" d="M 37.6 98.4L 38.4 99.2L 37.6 98.4z"/>
<path style="stroke:none; fill:#273433" d="M 97.6 98.4L 98.4 99.2L 97.6 98.4z"/>
<path style="stroke:none; fill:#a101a1" d="M 112 98.4L 112.8 99.2L 112 98.4z"/>
<path style="stroke:none; fill:#744601" d="M 134.4 98.4L 135.2 99.2L 134.4 98.4z"/>
<path style="stroke:none; fill:#553401" d="M 136.8 98.4L 137.6 99.2L 136.8 98.4z"/>
<path style="stroke:none; fill:#016060" d="M 152 98.4C 149.129 109.134 142.21 117.147 138.4 127.2C 144.155 122.514 154.758 106.176 152 98.4z"/>
<path style="stroke:none; fill:#553401" d="M 39.2 99.2L 40 100L 39.2 99.2z"/>
<path style="stroke:none; fill:#5f5f5f" d="M 87.2 99.2L 88 100L 87.2 99.2z"/>
<path style="stroke:none; fill:#9e9e9e" d="M 97.6 99.2L 98.4 100L 97.6 99.2z"/>
<path style="stroke:none; fill:#630163" d="M 112 99.2L 112.8 100L 112 99.2z"/>
<path style="stroke:none; fill:#ce7a01" d="M 136 99.2L 136.8 100L 136 99.2z"/>
<path style="stroke:none; fill:#5f5f5f" d="M 2.4 100L 3.2 100.8L 2.4 100z"/>
<path style="stroke:none; fill:#744601" d="M 36.8 100L 37.6 100.8L 36.8 100z"/>
<path style="stroke:none; fill:#9f5f01" d="M 40 100L 40.8 100.8L 40 100z"/>
<path style="stroke:none; fill:#a101a1" d="M 109.6 100L 110.4 100.8L 109.6 100z"/>
<path style="stroke:none; fill:#5f5f5f" d="M 156.8 100L 157.6 100.8L 156.8 100z"/>
<path style="stroke:none; fill:#9e9e9e" d="M 2.4 100.8L 3.2 101.6L 2.4 100.8z"/>
<path style="stroke:none; fill:#a101a1" d="M 111.2 100.8L 112 101.6L 111.2 100.8z"/>
<path style="stroke:none; fill:#9e9e9e" d="M 156.8 100.8L 157.6 101.6L 156.8 100.8z"/>
<path style="stroke:none; fill:#744601" d="M 39.2 101.6L 40 102.4L 39.2 101.6z"/>
<path style="stroke:none; fill:#9f5f01" d="M 42.4 101.6L 43.2 102.4L 42.4 101.6z"/>
<path style="stroke:none; fill:#630163" d="M 45.0666 102.134C 45.0222 102.178 44.9778 103.022 45.3334 102.666C 45.3778 102.622 45.4222 101.778 45.0666 102.134M 108.8 101.6L 109.6 102.4L 108.8 101.6z"/>
<path style="stroke:none; fill:#9f5f01" d="M 132 101.6L 132.8 102.4L 132 101.6z"/>
<path style="stroke:none; fill:#744601" d="M 134.4 101.6L 135.2 102.4L 134.4 101.6z"/>
<path style="stroke:none; fill:#273433" d="M 3.2 102.4L 4 103.2L 3.2 102.4z"/>
<path style="stroke:none; fill:#553401" d="M 40 102.4L 40.8 103.2L 40 102.4z"/>
<path style="stroke:none; fill:#d307c6" d="M 43.2 102.4L 43.2 104.8L 44 104.8C 43.799 103.638 43.7478 103.398 43.2 102.4z"/>
<path style="stroke:none; fill:#a101a1" d="M 108.8 102.4L 109.6 103.2L 108.8 102.4z"/>
<path style="stroke:none; fill:#744601" d="M 131.2 102.4L 132 103.2L 131.2 102.4z"/>
<path style="stroke:none; fill:#9f5f01" d="M 133.6 102.4L 134.4 103.2L 133.6 102.4z"/>
<path style="stroke:none; fill:#273433" d="M 156 102.4L 156.8 103.2L 156 102.4z"/>
<path style="stroke:none; fill:#5f5f5f" d="M 3.2 103.2L 4 104L 3.2 103.2z"/>
<path style="stroke:none; fill:#9f5f01" d="M 41.6 103.2L 42.4 104L 41.6 103.2z"/>
<path style="stroke:none; fill:#d307c6" d="M 44.8 103.2L 44.8 105.6L 45.6 105.6C 45.399 104.438 45.3478 104.198 44.8 103.2z"/>
<path style="stroke:none; fill:#553401" d="M 45.6 103.2L 46.4 104L 45.6 103.2z"/>
<path style="stroke:none; fill:#630163" d="M 110.4 103.2L 111.2 104L 110.4 103.2z"/>
<path style="stroke:none; fill:#9f5f01" d="M 130.4 103.2L 131.2 104L 130.4 103.2M 132.8 103.2L 133.6 104L 132.8 103.2z"/>
<path style="stroke:none; fill:#5f5f5f" d="M 156 103.2L 156.8 104L 156 103.2z"/>
<path style="stroke:none; fill:#9e9e9e" d="M 3.2 104L 4 104.8L 3.2 104z"/>
<path style="stroke:none; fill:#ff9901" d="M 45.6 104C 48.1593 108.509 55.2415 110.458 60 111.977C 74.1436 116.494 87.7152 116.8 102.4 116.8L 102.4 115.2C 81.3152 115.374 65.1818 112.153 45.6 104z"/>
<path style="stroke:none; fill:#9f5f01" d="M 46.4 104L 47.2 104.8L 46.4 104z"/>
<path style="stroke:none; fill:#a101a1" d="M 108 104L 108.8 104.8L 108 104z"/>
<path style="stroke:none; fill:#9f5f01" d="M 129.6 104L 130.4 104.8L 129.6 104z"/>
<path style="stroke:none; fill:#9e9e9e" d="M 156 104L 156.8 104.8L 156 104z"/>
<path style="stroke:none; fill:#630163" d="M 43.2 104.8L 43.2 107.2L 44 107.2C 43.799 106.038 43.7478 105.798 43.2 104.8z"/>
<path style="stroke:none; fill:#744601" d="M 48 104.8L 48.8 105.6L 48 104.8z"/>
<path style="stroke:none; fill:#a101a1" d="M 109.6 104.8L 110.4 105.6L 109.6 104.8z"/>
<path style="stroke:none; fill:#5f5f5f" d="M 4 105.6L 4.8 106.4L 4 105.6z"/>
<path style="stroke:none; fill:#744601" d="M 45.6 105.6L 46.4 106.4L 45.6 105.6z"/>
<path style="stroke:none; fill:#9f5f01" d="M 49.6 105.6L 50.4 106.4L 49.6 105.6z"/>
<path style="stroke:none; fill:#630163" d="M 107.2 105.6L 108 106.4L 107.2 105.6z"/>
<path style="stroke:none; fill:#553401" d="M 127.2 105.6L 128 106.4L 127.2 105.6z"/>
<path style="stroke:none; fill:#9f5f01" d="M 130.4 105.6L 131.2 106.4L 130.4 105.6z"/>
<path style="stroke:none; fill:#5f5f5f" d="M 155.2 105.6L 156 106.4L 155.2 105.6z"/>
<path style="stroke:none; fill:#010101" d="M 45.6 106.4C 48.3606 116.201 50.9118 126.542 59.2031 133.328C 74.091 145.514 95.176 131.996 101.6 116.8C 81.216 120.584 64.4278 111.822 45.6 106.4z"/>
<path style="stroke:none; fill:#9f5f01" d="M 47.2 106.4L 48 107.2L 47.2 106.4z"/>
<path style="stroke:none; fill:#744601" d="M 51.2 106.4L 52 107.2L 51.2 106.4z"/>
<path style="stroke:none; fill:#d307c6" d="M 107.2 106.4L 108 107.2L 107.2 106.4M 108.8 106.4L 109.6 107.2L 108.8 106.4z"/>
<path style="stroke:none; fill:#744601" d="M 126.4 106.4L 127.2 107.2L 126.4 106.4M 129.6 106.4L 130.4 107.2L 129.6 106.4z"/>
<path style="stroke:none; fill:#273433" d="M 4.8 107.2L 5.6 108L 4.8 107.2z"/>
<path style="stroke:none; fill:#630163" d="M 45.6 107.2L 46.4 108L 45.6 107.2z"/>
<path style="stroke:none; fill:#744601" d="M 48.8 107.2L 49.6 108L 48.8 107.2z"/>
<path style="stroke:none; fill:#ce7a01" d="M 52.8 107.2L 53.6 108L 52.8 107.2z"/>
<path style="stroke:none; fill:#553401" d="M 53.6 107.2L 54.4 108L 53.6 107.2z"/>
<path style="stroke:none; fill:#630163" d="M 108.8 107.2L 109.6 108L 108.8 107.2z"/>
<path style="stroke:none; fill:#744601" d="M 124.8 107.2L 125.6 108L 124.8 107.2z"/>
<path style="stroke:none; fill:#9f5f01" d="M 128 107.2L 128.8 108L 128 107.2z"/>
<path style="stroke:none; fill:#273433" d="M 154.4 107.2L 155.2 108L 154.4 107.2z"/>
<path style="stroke:none; fill:#9e9e9e" d="M 4.8 108L 5.6 108.8L 4.8 108z"/>
<path style="stroke:none; fill:#a101a1" d="M 45.6 108L 46.4 108.8L 45.6 108z"/>
<path style="stroke:none; fill:#553401" d="M 50.4 108L 51.2 108.8L 50.4 108z"/>
<path style="stroke:none; fill:#9f5f01" d="M 55.2 108L 56 108.8L 55.2 108z"/>
<path style="stroke:none; fill:#a101a1" d="M 106.4 108L 107.2 108.8L 106.4 108z"/>
<path style="stroke:none; fill:#553401" d="M 123.2 108L 124 108.8L 123.2 108z"/>
<path style="stroke:none; fill:#744601" d="M 127.2 108L 128 108.8L 127.2 108z"/>
<path style="stroke:none; fill:#9e9e9e" d="M 154.4 108L 155.2 108.8L 154.4 108z"/>
<path style="stroke:none; fill:#a101a1" d="M 44 108.8L 44.8 109.6L 44 108.8z"/>
<path style="stroke:none; fill:#553401" d="M 52 108.8L 52.8 109.6L 52 108.8z"/>
<path style="stroke:none; fill:#ce7a01" d="M 52.8 108.8L 53.6 109.6L 52.8 108.8z"/>
<path style="stroke:none; fill:#9f5f01" d="M 56.8 108.8L 57.6 109.6L 56.8 108.8z"/>
<path style="stroke:none; fill:#553401" d="M 57.6 108.8L 58.4 109.6L 57.6 108.8z"/>
<path style="stroke:none; fill:#630163" d="M 108 108.8L 108.8 109.6L 108 108.8z"/>
<path style="stroke:none; fill:#553401" d="M 121.6 108.8L 122.4 109.6L 121.6 108.8z"/>
<path style="stroke:none; fill:#ce7a01" d="M 125.6 108.8L 126.4 109.6L 125.6 108.8z"/>
<path style="stroke:none; fill:#5f5f5f" d="M 5.6 109.6L 6.4 110.4L 5.6 109.6z"/>
<path style="stroke:none; fill:#630163" d="M 44 109.6L 44.8 110.4L 44 109.6z"/>
<path style="stroke:none; fill:#9f5f01" d="M 54.4 109.6L 55.2 110.4L 54.4 109.6M 59.2 109.6L 60 110.4L 59.2 109.6z"/>
<path style="stroke:none; fill:#a101a1" d="M 105.6 109.6L 106.4 110.4L 105.6 109.6z"/>
<path style="stroke:none; fill:#553401" d="M 120 109.6L 120.8 110.4L 120 109.6M 124.8 109.6L 125.6 110.4L 124.8 109.6z"/>
<path style="stroke:none; fill:#5f5f5f" d="M 153.6 109.6L 154.4 110.4L 153.6 109.6z"/>
<path style="stroke:none; fill:#630163" d="M 46.4 110.4L 47.2 111.2L 46.4 110.4z"/>
<path style="stroke:none; fill:#744601" d="M 56 110.4L 56.8 111.2L 56 110.4z"/>
<path style="stroke:none; fill:#9f5f01" d="M 61.6 110.4L 62.4 111.2L 61.6 110.4z"/>
<path style="stroke:none; fill:#630163" d="M 107.2 110.4L 108 111.2L 107.2 110.4z"/>
<path style="stroke:none; fill:#744601" d="M 118.4 110.4L 119.2 111.2L 118.4 110.4z"/>
<path style="stroke:none; fill:#553401" d="M 123.2 110.4L 124 111.2L 123.2 110.4z"/>
<path style="stroke:none; fill:#273433" d="M 6.4 111.2L 7.2 112L 6.4 111.2z"/>
<path style="stroke:none; fill:#a101a1" d="M 46.4 111.2L 47.2 112L 46.4 111.2z"/>
<path style="stroke:none; fill:#744601" d="M 58.4 111.2L 59.2 112L 58.4 111.2z"/>
<path style="stroke:none; fill:#9f5f01" d="M 64 111.2L 64.8 112L 64 111.2z"/>
<path style="stroke:none; fill:#553401" d="M 64.8 111.2L 65.6 112L 64.8 111.2z"/>
<path style="stroke:none; fill:#a101a1" d="M 104.8 111.2L 105.6 112L 104.8 111.2z"/>
<path style="stroke:none; fill:#9f5f01" d="M 116.8 111.2L 117.6 112L 116.8 111.2z"/>
<path style="stroke:none; fill:#553401" d="M 121.6 111.2L 122.4 112L 121.6 111.2z"/>
<path style="stroke:none; fill:#273433" d="M 152.8 111.2L 153.6 112L 152.8 111.2z"/>
<path style="stroke:none; fill:#9e9e9e" d="M 6.4 112L 7.2 112.8L 6.4 112z"/>
<path style="stroke:none; fill:#a101a1" d="M 44.8 112L 45.6 112.8L 44.8 112z"/>
<path style="stroke:none; fill:#d307c6" d="M 46.4 112L 47.2 112.8L 46.4 112z"/>
<path style="stroke:none; fill:#553401" d="M 60 112L 60.8 112.8L 60 112z"/>
<path style="stroke:none; fill:#9f5f01" d="M 60.8 112L 61.6 112.8L 60.8 112z"/>
<path style="stroke:none; fill:#553401" d="M 67.7334 112.266C 67.3778 112.622 68.2222 112.578 68.2666 112.534C 68.6222 112.178 67.7778 112.222 67.7334 112.266z"/>
<path style="stroke:none; fill:#a101a1" d="M 106.4 112L 107.2 112.8L 106.4 112z"/>
<path style="stroke:none; fill:#553401" d="M 113.6 112L 114.4 112.8L 113.6 112z"/>
<path style="stroke:none; fill:#9f5f01" d="M 114.4 112L 115.2 112.8L 114.4 112z"/>
<path style="stroke:none; fill:#ce7a01" d="M 119.2 112L 120 112.8L 119.2 112z"/>
<path style="stroke:none; fill:#553401" d="M 120 112L 120.8 112.8L 120 112z"/>
<path style="stroke:none; fill:#9e9e9e" d="M 152.8 112L 153.6 112.8L 152.8 112z"/>
<path style="stroke:none; fill:#630163" d="M 44.8 112.8L 45.6 113.6L 44.8 112.8z"/>
<path style="stroke:none; fill:#9f5f01" d="M 63.7334 113.066C 63.3778 113.422 64.2222 113.378 64.2666 113.334C 64.6222 112.978 63.7778 113.022 63.7334 113.066z"/>
<path style="stroke:none; fill:#744601" d="M 70.4 112.8L 70.4 113.6L 72.8 113.6C 71.8014 113.052 71.5613 113.001 70.4 112.8z"/>
<path style="stroke:none; fill:#a101a1" d="M 104 112.8L 104.8 113.6L 104 112.8z"/>
<path style="stroke:none; fill:#9f5f01" d="M 110.934 113.066C 110.578 113.422 111.422 113.378 111.466 113.334C 111.822 112.978 110.978 113.022 110.934 113.066M 116.8 112.8L 117.6 113.6L 116.8 112.8z"/>
<path style="stroke:none; fill:#553401" d="M 117.6 112.8L 118.4 113.6L 117.6 112.8z"/>
<path style="stroke:none; fill:#5f5f5f" d="M 7.2 113.6L 8 114.4L 7.2 113.6z"/>
<path style="stroke:none; fill:#630163" d="M 47.2 113.6L 48 114.4L 47.2 113.6z"/>
<path style="stroke:none; fill:#744601" d="M 66.4 113.6L 67.2 114.4L 66.4 113.6M 74.4 113.6L 74.4 114.4L 76.8 114.4C 75.8014 113.852 75.5613 113.801 74.4 113.6z"/>
<path style="stroke:none; fill:#630163" d="M 103.2 113.6L 104 114.4L 103.2 113.6z"/>
<path style="stroke:none; fill:#a101a1" d="M 105.6 113.6L 106.4 114.4L 105.6 113.6z"/>
<path style="stroke:none; fill:#744601" d="M 107.2 113.6L 108 114.4L 107.2 113.6z"/>
<path style="stroke:none; fill:#553401" d="M 115.2 113.6L 116 114.4L 115.2 113.6z"/>
<path style="stroke:none; fill:#5f5f5f" d="M 152 113.6L 152.8 114.4L 152 113.6z"/>
<path style="stroke:none; fill:#d307c6" d="M 45.6 114.4L 46.4 115.2L 45.6 114.4z"/>
<path style="stroke:none; fill:#a101a1" d="M 47.2 114.4L 48 115.2L 47.2 114.4z"/>
<path style="stroke:none; fill:#744601" d="M 68.8 114.4L 68.8 115.2L 71.2 115.2C 70.2013 114.652 69.9613 114.601 68.8 114.4z"/>
<path style="stroke:none; fill:#9f5f01" d="M 78.9334 114.666C 78.5778 115.022 79.4222 114.978 79.4666 114.934C 79.8222 114.578 78.9778 114.622 78.9334 114.666z"/>
<path style="stroke:none; fill:#744601" d="M 80.5336 114.666C 80.1776 115.022 81.0224 114.978 81.0664 114.934C 81.4224 114.578 80.5776 114.622 80.5336 114.666z"/>
<path style="stroke:none; fill:#553401" d="M 82.1336 114.666C 81.7776 115.022 82.6224 114.978 82.6664 114.934C 83.0224 114.578 82.1776 114.622 82.1336 114.666M 100 114.4L 100 115.2L 103.2 115.2C 101.995 114.654 101.348 114.539 100 114.4z"/>
<path style="stroke:none; fill:#9f5f01" d="M 112 114.4L 112.8 115.2L 112 114.4z"/>
<path style="stroke:none; fill:#5f5f5f" d="M 8 115.2L 8.8 116L 8 115.2z"/>
<path style="stroke:none; fill:#630163" d="M 45.6 115.2L 46.4 116L 45.6 115.2z"/>
<path style="stroke:none; fill:#9f5f01" d="M 73.3334 115.466C 72.9778 115.822 73.8222 115.778 73.8666 115.734C 74.2222 115.378 73.3778 115.422 73.3334 115.466M 87.2 115.2L 87.2 116L 96.8 116C 93.8424 114.758 90.3864 115.2 87.2 115.2z"/>
<path style="stroke:none; fill:#ff5c66" d="M 102.4 115.2L 103.2 116L 102.4 115.2M 104.8 115.2L 105.6 116L 104.8 115.2z"/>
<path style="stroke:none; fill:#553401" d="M 109.334 115.466C 108.978 115.822 109.822 115.778 109.866 115.734C 110.222 115.378 109.378 115.422 109.334 115.466z"/>
<path style="stroke:none; fill:#5f5f5f" d="M 151.2 115.2L 152 116L 151.2 115.2z"/>
<path style="stroke:none; fill:#553401" d="M 76 116L 76 116.8L 78.4 116.8C 77.4014 116.252 77.1613 116.201 76 116z"/>
<path style="stroke:none; fill:#9f5f01" d="M 78.9334 116.266C 78.5778 116.622 79.4222 116.578 79.4666 116.534C 79.8222 116.178 78.9778 116.222 78.9334 116.266z"/>
<path style="stroke:none; fill:#553401" d="M 104.8 116L 104.8 116.8L 107.2 116.8C 106.202 116.252 105.962 116.201 104.8 116z"/>
<path style="stroke:none; fill:#5f5f5f" d="M 8.8 116.8L 9.6 117.6L 8.8 116.8z"/>
<path style="stroke:none; fill:#a101a1" d="M 46.4 116.8L 47.2 117.6L 46.4 116.8M 48 116.8L 48.8 117.6L 48 116.8z"/>
<path style="stroke:none; fill:#553401" d="M 83.7336 117.066C 83.3776 117.422 84.2224 117.378 84.2664 117.334C 84.6224 116.978 83.7776 117.022 83.7336 117.066z"/>
<path style="stroke:none; fill:#744601" d="M 84.8 116.8L 84.8 117.6L 87.2 117.6C 86.2016 117.052 85.9616 117.001 84.8 116.8z"/>
<path style="stroke:none; fill:#ce7a01" d="M 87.2 116.8L 87.2 117.6L 96 117.6C 93.2544 116.448 90.16 116.8 87.2 116.8z"/>
<path style="stroke:none; fill:#9f5f01" d="M 96 116.8L 96 117.6L 98.4 117.6C 97.4016 117.052 97.1616 117.001 96 116.8z"/>
<path style="stroke:none; fill:#553401" d="M 98.9336 117.066C 98.5776 117.422 99.4224 117.378 99.4664 117.334C 99.8224 116.978 98.9776 117.022 98.9336 117.066z"/>
<path style="stroke:none; fill:#a101a1" d="M 101.6 116.8L 102.4 117.6L 101.6 116.8z"/>
<path style="stroke:none; fill:#5f5f5f" d="M 150.4 116.8L 151.2 117.6L 150.4 116.8z"/>
<path style="stroke:none; fill:#630163" d="M 46.4 117.6L 47.2 118.4L 46.4 117.6z"/>
<path style="stroke:none; fill:#a101a1" d="M 103.2 117.6L 104 118.4L 103.2 117.6z"/>
<path style="stroke:none; fill:#9e9e9e" d="M 9.6 118.4L 10.4 119.2L 9.6 118.4z"/>
<path style="stroke:none; fill:#630163" d="M 48.8 118.4L 49.6 119.2L 48.8 118.4z"/>
<path style="stroke:none; fill:#9e9e9e" d="M 149.6 118.4L 150.4 119.2L 149.6 118.4z"/>
<path style="stroke:none; fill:#273433" d="M 10.4 119.2L 11.2 120L 10.4 119.2z"/>
<path style="stroke:none; fill:#a101a1" d="M 47.2 119.2L 48 120L 47.2 119.2z"/>
<path style="stroke:none; fill:#d307c6" d="M 48.8 119.2L 49.6 120L 48.8 119.2z"/>
<path style="stroke:none; fill:#a101a1" d="M 100 119.2L 100.8 120L 100 119.2z"/>
<path style="stroke:none; fill:#630163" d="M 102.4 119.2L 103.2 120L 102.4 119.2z"/>
<path style="stroke:none; fill:#273433" d="M 148.8 119.2L 149.6 120L 148.8 119.2z"/>
<path style="stroke:none; fill:#9e9e9e" d="M 10.4 120L 11.2 120.8L 10.4 120z"/>
<path style="stroke:none; fill:#630163" d="M 47.2 120L 48 120.8L 47.2 120M 49.6 120L 50.4 120.8L 49.6 120M 99.2 120L 100 120.8L 99.2 120M 101.6 120L 102.4 120.8L 101.6 120z"/>
<path style="stroke:none; fill:#9e9e9e" d="M 148.8 120L 149.6 120.8L 148.8 120z"/>
<path style="stroke:none; fill:#5f5f5f" d="M 11.2 120.8L 12 121.6L 11.2 120.8M 148 120.8L 148.8 121.6L 148 120.8z"/>
<path style="stroke:none; fill:#630163" d="M 48 121.6L 48.8 122.4L 48 121.6M 50.4 121.6L 51.2 122.4L 50.4 121.6z"/>
<path style="stroke:none; fill:#a101a1" d="M 98.4 121.6L 99.2 122.4L 98.4 121.6z"/>
<path style="stroke:none; fill:#9e9e9e" d="M 12 122.4L 12.8 123.2L 12 122.4z"/>
<path style="stroke:none; fill:#a101a1" d="M 50.4 122.4L 51.2 123.2L 50.4 122.4z"/>
<path style="stroke:none; fill:#630163" d="M 97.6 122.4L 98.4 123.2L 97.6 122.4M 100 122.4L 100.8 123.2L 100 122.4z"/>
<path style="stroke:none; fill:#9e9e9e" d="M 147.2 122.4L 148 123.2L 147.2 122.4z"/>
<path style="stroke:none; fill:#630163" d="M 48.8 123.2L 49.6 124L 48.8 123.2M 51.2 123.2L 52 124L 51.2 123.2M 96.8 123.2L 97.6 124L 96.8 123.2z"/>
<path style="stroke:none; fill:#9e9e9e" d="M 12.8 124L 13.6 124.8L 12.8 124M 146.4 124L 147.2 124.8L 146.4 124z"/>
<path style="stroke:none; fill:#5f5f5f" d="M 13.6 124.8L 14.4 125.6L 13.6 124.8z"/>
<path style="stroke:none; fill:#630163" d="M 49.6 124.8L 50.4 125.6L 49.6 124.8M 52 124.8L 52.8 125.6L 52 124.8z"/>
<path style="stroke:none; fill:#d307c6" d="M 96 124.8L 96.8 125.6L 96 124.8z"/>
<path style="stroke:none; fill:#630163" d="M 98.4 124.8L 99.2 125.6L 98.4 124.8z"/>
<path style="stroke:none; fill:#5f5f5f" d="M 145.6 124.8L 146.4 125.6L 145.6 124.8z"/>
<path style="stroke:none; fill:#273433" d="M 14.4 125.6L 15.2 126.4L 14.4 125.6z"/>
<path style="stroke:none; fill:#d307c6" d="M 50.4 125.6L 51.2 126.4L 50.4 125.6z"/>
<path style="stroke:none; fill:#a101a1" d="M 95.2 125.6L 96 126.4L 95.2 125.6z"/>
<path style="stroke:none; fill:#630163" d="M 97.6 125.6L 98.4 126.4L 97.6 125.6z"/>
<path style="stroke:none; fill:#273433" d="M 144.8 125.6L 145.6 126.4L 144.8 125.6z"/>
<path style="stroke:none; fill:#9e9e9e" d="M 14.4 126.4L 15.2 127.2L 14.4 126.4z"/>
<path style="stroke:none; fill:#630163" d="M 50.4 126.4L 51.2 127.2L 50.4 126.4M 52.8 126.4L 53.6 127.2L 52.8 126.4z"/>
<path style="stroke:none; fill:#a101a1" d="M 94.4 126.4L 95.2 127.2L 94.4 126.4M 96.8 126.4L 97.6 127.2L 96.8 126.4z"/>
<path style="stroke:none; fill:#9e9e9e" d="M 144.8 126.4L 145.6 127.2L 144.8 126.4M 15.2 127.2L 16 128L 15.2 127.2z"/>
<path style="stroke:none; fill:#630163" d="M 51.2 127.2L 52 128L 51.2 127.2M 53.6 127.2L 54.4 128L 53.6 127.2z"/>
<path style="stroke:none; fill:#d307c6" d="M 93.6 127.2L 94.4 128L 93.6 127.2z"/>
<path style="stroke:none; fill:#a101a1" d="M 96 127.2L 96.8 128L 96 127.2z"/>
<path style="stroke:none; fill:#016060" d="M 137.6 127.2L 138.4 128L 137.6 127.2z"/>
<path style="stroke:none; fill:#9e9e9e" d="M 144 127.2L 144.8 128L 144 127.2z"/>
<path style="stroke:none; fill:#5f5f5f" d="M 16 128L 16.8 128.8L 16 128z"/>
<path style="stroke:none; fill:#a101a1" d="M 52 128L 52.8 128.8L 52 128z"/>
<path style="stroke:none; fill:#d307c6" d="M 92.8 128L 93.6 128.8L 92.8 128z"/>
<path style="stroke:none; fill:#a101a1" d="M 95.2 128L 96 128.8L 95.2 128z"/>
<path style="stroke:none; fill:#016060" d="M 136.8 128C 133.718 131.082 130.514 134.032 128 137.6C 131.477 135.978 136.888 132.156 136.8 128z"/>
<path style="stroke:none; fill:#5f5f5f" d="M 143.2 128L 144 128.8L 143.2 128z"/>
<path style="stroke:none; fill:#273433" d="M 16.8 128.8L 17.6 129.6L 16.8 128.8z"/>
<path style="stroke:none; fill:#d307c6" d="M 54.4 128.8L 55.2 129.6L 54.4 128.8z"/>
<path style="stroke:none; fill:#a101a1" d="M 92 128.8L 92.8 129.6L 92 128.8M 94.4 128.8L 95.2 129.6L 94.4 128.8z"/>
<path style="stroke:none; fill:#273433" d="M 142.4 128.8L 143.2 129.6L 142.4 128.8z"/>
<path style="stroke:none; fill:#630163" d="M 52.8 129.6L 53.6 130.4L 52.8 129.6z"/>
<path style="stroke:none; fill:#a101a1" d="M 55.2 129.6L 56 130.4L 55.2 129.6M 91.2 129.6L 92 130.4L 91.2 129.6M 93.6 129.6L 94.4 130.4L 93.6 129.6z"/>
<path style="stroke:none; fill:#9e9e9e" d="M 17.6 130.4L 18.4 131.2L 17.6 130.4z"/>
<path style="stroke:none; fill:#a101a1" d="M 53.6 130.4L 54.4 131.2L 53.6 130.4M 56 130.4L 56.8 131.2L 56 130.4M 90.4 130.4L 91.2 131.2L 90.4 130.4M 92.8 130.4L 93.6 131.2L 92.8 130.4z"/>
<path style="stroke:none; fill:#9e9e9e" d="M 141.6 130.4L 142.4 131.2L 141.6 130.4M 18.4 131.2L 19.2 132L 18.4 131.2z"/>
<path style="stroke:none; fill:#d307c6" d="M 54.4 131.2L 55.2 132L 54.4 131.2z"/>
<path style="stroke:none; fill:#630163" d="M 56.8 131.2L 57.6 132L 56.8 131.2z"/>
<path style="stroke:none; fill:#a101a1" d="M 92 131.2L 92.8 132L 92 131.2z"/>
<path style="stroke:none; fill:#9e9e9e" d="M 140.8 131.2L 141.6 132L 140.8 131.2M 19.2 132L 20 132.8L 19.2 132z"/>
<path style="stroke:none; fill:#a101a1" d="M 57.6 132L 58.4 132.8L 57.6 132z"/>
<path style="stroke:none; fill:#630163" d="M 88 132L 88.8 132.8L 88 132M 91.2 132L 92 132.8L 91.2 132z"/>
<path style="stroke:none; fill:#9e9e9e" d="M 140 132L 140.8 132.8L 140 132z"/>
<path style="stroke:none; fill:#5f5f5f" d="M 20 132.8L 20.8 133.6L 20 132.8z"/>
<path style="stroke:none; fill:#a101a1" d="M 56 132.8L 56.8 133.6L 56 132.8z"/>
<path style="stroke:none; fill:#d307c6" d="M 58.4 132.8L 59.2 133.6L 58.4 132.8M 87.2 132.8L 88 133.6L 87.2 132.8z"/>
<path style="stroke:none; fill:#5f5f5f" d="M 139.2 132.8L 140 133.6L 139.2 132.8z"/>
<path style="stroke:none; fill:#273433" d="M 20.8 133.6L 21.6 134.4L 20.8 133.6z"/>
<path style="stroke:none; fill:#a101a1" d="M 56.8 133.6L 57.6 134.4L 56.8 133.6z"/>
<path style="stroke:none; fill:#630163" d="M 85.6 133.6L 86.4 134.4L 85.6 133.6z"/>
<path style="stroke:none; fill:#a101a1" d="M 88.8 133.6L 89.6 134.4L 88.8 133.6z"/>
<path style="stroke:none; fill:#273433" d="M 138.4 133.6L 139.2 134.4L 138.4 133.6M 21.6 134.4L 22.4 135.2L 21.6 134.4z"/>
<path style="stroke:none; fill:#630163" d="M 57.6 134.4L 58.4 135.2L 57.6 134.4M 60.8 134.4L 61.6 135.2L 60.8 134.4M 84 134.4L 84.8 135.2L 84 134.4z"/>
<path style="stroke:none; fill:#a101a1" d="M 84.8 134.4L 85.6 135.2L 84.8 134.4z"/>
<path style="stroke:none; fill:#630163" d="M 88 134.4L 88.8 135.2L 88 134.4z"/>
<path style="stroke:none; fill:#273433" d="M 137.6 134.4L 138.4 135.2L 137.6 134.4z"/>
<path style="stroke:none; fill:#630163" d="M 58.4 135.2L 59.2 136L 58.4 135.2z"/>
<path style="stroke:none; fill:#d307c6" d="M 83.2 135.2L 84 136L 83.2 135.2M 86.4 135.2L 87.2 136L 86.4 135.2z"/>
<path style="stroke:none; fill:#273433" d="M 23.2 136L 24 136.8L 23.2 136z"/>
<path style="stroke:none; fill:#d307c6" d="M 60 136L 60.8 136.8L 60 136z"/>
<path style="stroke:none; fill:#a101a1" d="M 63.2 136L 64 136.8L 63.2 136z"/>
<path style="stroke:none; fill:#630163" d="M 64 136L 64.8 136.8L 64 136M 80.8 136L 81.6 136.8L 80.8 136z"/>
<path style="stroke:none; fill:#a101a1" d="M 81.6 136L 82.4 136.8L 81.6 136z"/>
<path style="stroke:none; fill:#630163" d="M 85.6 136L 86.4 136.8L 85.6 136z"/>
<path style="stroke:none; fill:#273433" d="M 136 136L 136.8 136.8L 136 136z"/>
<path style="stroke:none; fill:#630163" d="M 60.8 136.8L 61.6 137.6L 60.8 136.8M 65.6 136.8L 66.4 137.6L 65.6 136.8z"/>
<path style="stroke:none; fill:#a101a1" d="M 79.2 136.8L 80 137.6L 79.2 136.8z"/>
<path style="stroke:none; fill:#630163" d="M 84 136.8L 84.8 137.6L 84 136.8z"/>
<path style="stroke:none; fill:#5f5f5f" d="M 24.8 137.6L 25.6 138.4L 24.8 137.6z"/>
<path style="stroke:none; fill:#016060" d="M 32 137.6L 32.8 138.4L 32 137.6z"/>
<path style="stroke:none; fill:#630163" d="M 62.4 137.6L 63.2 138.4L 62.4 137.6z"/>
<path style="stroke:none; fill:#a101a1" d="M 67.7334 137.866C 67.3778 138.222 68.2222 138.178 68.2666 138.134C 68.6222 137.778 67.7778 137.822 67.7334 137.866z"/>
<path style="stroke:none; fill:#630163" d="M 74.9334 137.866C 74.5778 138.222 75.4222 138.178 75.4666 138.134C 75.8222 137.778 74.9778 137.822 74.9334 137.866z"/>
<path style="stroke:none; fill:#a101a1" d="M 76.5334 137.866C 76.1778 138.222 77.0222 138.178 77.0666 138.134C 77.4222 137.778 76.5778 137.822 76.5334 137.866z"/>
<path style="stroke:none; fill:#630163" d="M 82.4 137.6L 83.2 138.4L 82.4 137.6z"/>
<path style="stroke:none; fill:#016060" d="M 127.2 137.6L 128 138.4L 127.2 137.6z"/>
<path style="stroke:none; fill:#5f5f5f" d="M 134.4 137.6L 135.2 138.4L 134.4 137.6z"/>
<path style="stroke:none; fill:#273433" d="M 25.6 138.4L 26.4 139.2L 25.6 138.4z"/>
<path style="stroke:none; fill:#016060" d="M 32.8 138.4C 34.4765 140.414 35.9547 141.452 38.4 142.4C 36.7235 140.386 35.2453 139.348 32.8 138.4z"/>
<path style="stroke:none; fill:#630163" d="M 64 138.4L 64.8 139.2L 64 138.4z"/>
<path style="stroke:none; fill:#a101a1" d="M 80 138.4L 80.8 139.2L 80 138.4z"/>
<path style="stroke:none; fill:#016060" d="M 98.4 152L 98.4 152.8C 107.999 151.962 121.098 145.896 127.2 138.4C 117.217 142.544 109.154 149.124 98.4 152z"/>
<path style="stroke:none; fill:#273433" d="M 133.6 138.4L 134.4 139.2L 133.6 138.4z"/>
<path style="stroke:none; fill:#5f5f5f" d="M 26.4 139.2L 27.2 140L 26.4 139.2z"/>
<path style="stroke:none; fill:#630163" d="M 66.4 139.2L 67.2 140L 66.4 139.2z"/>
<path style="stroke:none; fill:#d307c6" d="M 67.7334 139.466C 67.3778 139.822 68.2222 139.778 68.2666 139.734C 68.6222 139.378 67.7778 139.422 67.7334 139.466z"/>
<path style="stroke:none; fill:#a101a1" d="M 76 139.2L 76 140L 78.4 140C 77.4014 139.452 77.1613 139.401 76 139.2z"/>
<path style="stroke:none; fill:#630163" d="M 78.4 139.2L 79.2 140L 78.4 139.2z"/>
<path style="stroke:none; fill:#5f5f5f" d="M 132.8 139.2L 133.6 140L 132.8 139.2z"/>
<path style="stroke:none; fill:#9e9e9e" d="M 27.2 140L 28 140.8L 27.2 140z"/>
<path style="stroke:none; fill:#630163" d="M 69.6 140L 69.6 140.8L 73.6 140.8C 72.1848 140.177 71.1713 140.07 69.6 140z"/>
<path style="stroke:none; fill:#273433" d="M 123.2 140L 124 140.8L 123.2 140z"/>
<path style="stroke:none; fill:#9e9e9e" d="M 132 140L 132.8 140.8L 132 140M 28 140.8L 28.8 141.6L 28 140.8M 131.2 140.8L 132 141.6L 131.2 140.8M 28.8 141.6L 29.6 142.4L 28.8 141.6M 130.4 141.6L 131.2 142.4L 130.4 141.6z"/>
<path style="stroke:none; fill:#273433" d="M 30.4 142.4L 31.2 143.2L 30.4 142.4z"/>
<path style="stroke:none; fill:#016060" d="M 38.4 142.4C 39.3782 143.356 39.536 143.453 40.8 144C 39.8218 143.044 39.664 142.947 38.4 142.4z"/>
<path style="stroke:none; fill:#273433" d="M 128.8 142.4L 129.6 143.2L 128.8 142.4z"/>
<path style="stroke:none; fill:#5f5f5f" d="M 31.2 143.2L 32 144L 31.2 143.2M 128 143.2L 128.8 144L 128 143.2z"/>
<path style="stroke:none; fill:#9e9e9e" d="M 32 144L 32.8 144.8L 32 144z"/>
<path style="stroke:none; fill:#016060" d="M 40.8 144L 40.8 144.8C 46.9507 148.39 54.3802 152.43 61.6 152.8L 61.6 152C 54.383 149.951 47.924 146.052 40.8 144z"/>
<path style="stroke:none; fill:#9e9e9e" d="M 127.2 144L 128 144.8L 127.2 144M 32.8 144.8L 33.6 145.6L 32.8 144.8z"/>
<path style="stroke:none; fill:#273433" d="M 33.6 144.8L 34.4 145.6L 33.6 144.8M 125.6 144.8L 126.4 145.6L 125.6 144.8z"/>
<path style="stroke:none; fill:#9e9e9e" d="M 126.4 144.8L 127.2 145.6L 126.4 144.8z"/>
<path style="stroke:none; fill:#5f5f5f" d="M 34.4 145.6L 35.2 146.4L 34.4 145.6M 124.8 145.6L 125.6 146.4L 124.8 145.6z"/>
<path style="stroke:none; fill:#9e9e9e" d="M 35.2 146.4L 36 147.2L 35.2 146.4z"/>
<path style="stroke:none; fill:#273433" d="M 36 146.4L 36.8 147.2L 36 146.4M 123.2 146.4L 124 147.2L 123.2 146.4z"/>
<path style="stroke:none; fill:#9e9e9e" d="M 124 146.4L 124.8 147.2L 124 146.4M 36.8 147.2L 37.6 148L 36.8 147.2M 122.4 147.2L 123.2 148L 122.4 147.2z"/>
<path style="stroke:none; fill:#5f5f5f" d="M 38.4 148L 39.2 148.8L 38.4 148M 120.8 148L 121.6 148.8L 120.8 148z"/>
<path style="stroke:none; fill:#9e9e9e" d="M 39.2 148.8L 40 149.6L 39.2 148.8z"/>
<path style="stroke:none; fill:#273433" d="M 40 148.8L 40.8 149.6L 40 148.8M 119.2 148.8L 120 149.6L 119.2 148.8z"/>
<path style="stroke:none; fill:#9e9e9e" d="M 120 148.8L 120.8 149.6L 120 148.8M 40.8 149.6L 41.6 150.4L 40.8 149.6M 118.4 149.6L 119.2 150.4L 118.4 149.6z"/>
<path style="stroke:none; fill:#5f5f5f" d="M 42.4 150.4L 43.2 151.2L 42.4 150.4M 116.8 150.4L 117.6 151.2L 116.8 150.4M 44 151.2L 44.8 152L 44 151.2M 115.2 151.2L 116 152L 115.2 151.2z"/>
<path style="stroke:none; fill:#9e9e9e" d="M 45.6 152L 46.4 152.8L 45.6 152z"/>
<path style="stroke:none; fill:#273433" d="M 61.6 152L 60.8 153.6L 62.4 153.6C 62.4 152.118 62.6398 152.52 61.6 152M 96.8 152C 97.236 153.308 97.092 153.164 98.4 153.6L 98.4 152L 96.8 152z"/>
<path style="stroke:none; fill:#9e9e9e" d="M 113.6 152L 114.4 152.8L 113.6 152M 47.2 152.8L 48 153.6L 47.2 152.8z"/>
<path style="stroke:none; fill:#5f5f5f" d="M 48 152.8L 48.8 153.6L 48 152.8z"/>
<path style="stroke:none; fill:#016060" d="M 62.4 152.8L 62.4 153.6C 74.1159 155.807 85.884 155.807 97.6 153.6C 93.3752 151.844 88.4096 154.025 84 154.328C 76.6611 154.834 69.672 152.95 62.4 152.8z"/>
<path style="stroke:none; fill:#5f5f5f" d="M 111.2 152.8L 112 153.6L 111.2 152.8z"/>
<path style="stroke:none; fill:#9e9e9e" d="M 112 152.8L 112.8 153.6L 112 152.8z"/>
<path style="stroke:none; fill:#5f5f5f" d="M 49.6 153.6L 50.4 154.4L 49.6 153.6M 109.6 153.6L 110.4 154.4L 109.6 153.6z"/>
<path style="stroke:none; fill:#9e9e9e" d="M 51.2 154.4L 52 155.2L 51.2 154.4z"/>
<path style="stroke:none; fill:#5f5f5f" d="M 52 154.4L 52.8 155.2L 52 154.4z"/>
<path style="stroke:none; fill:#273433" d="M 68.5334 154.666C 68.1778 155.022 69.0222 154.978 69.0666 154.934C 69.4222 154.578 68.5778 154.622 68.5334 154.666z"/>
<path style="stroke:none; fill:#5f5f5f" d="M 107.2 154.4L 108 155.2L 107.2 154.4z"/>
<path style="stroke:none; fill:#9e9e9e" d="M 108 154.4L 108.8 155.2L 108 154.4z"/>
<path style="stroke:none; fill:#5f5f5f" d="M 53.6 155.2L 54.4 156L 53.6 155.2M 105.6 155.2L 106.4 156L 105.6 155.2z"/>
<path style="stroke:none; fill:#9e9e9e" d="M 55.2 156L 56 156.8L 55.2 156z"/>
<path style="stroke:none; fill:#5f5f5f" d="M 56 156L 56.8 156.8L 56 156z"/>
<path style="stroke:none; fill:#273433" d="M 56.8 156L 57.6 156.8L 56.8 156M 102.4 156L 103.2 156.8L 102.4 156z"/>
<path style="stroke:none; fill:#5f5f5f" d="M 103.2 156L 104 156.8L 103.2 156z"/>
<path style="stroke:none; fill:#9e9e9e" d="M 104 156L 104.8 156.8L 104 156M 58.4 156.8L 59.2 157.6L 58.4 156.8z"/>
<path style="stroke:none; fill:#5f5f5f" d="M 59.2 156.8L 60 157.6L 59.2 156.8M 100 156.8L 100.8 157.6L 100 156.8z"/>
<path style="stroke:none; fill:#9e9e9e" d="M 100.8 156.8L 101.6 157.6L 100.8 156.8M 61.3334 157.866C 60.9778 158.222 61.8222 158.178 61.8666 158.134C 62.2222 157.778 61.3778 157.822 61.3334 157.866z"/>
<path style="stroke:none; fill:#5f5f5f" d="M 62.4 157.6L 63.2 158.4L 62.4 157.6z"/>
<path style="stroke:none; fill:#273433" d="M 63.2 157.6L 64 158.4L 63.2 157.6M 96 157.6L 96.8 158.4L 96 157.6z"/>
<path style="stroke:none; fill:#5f5f5f" d="M 96.8 157.6L 97.6 158.4L 96.8 157.6z"/>
<path style="stroke:none; fill:#9e9e9e" d="M 98.1336 157.866C 97.7776 158.222 98.6224 158.178 98.6664 158.134C 99.0224 157.778 98.1776 157.822 98.1336 157.866M 65.3334 158.666C 64.9778 159.022 65.8222 158.978 65.8666 158.934C 66.2222 158.578 65.3778 158.622 65.3334 158.666z"/>
<path style="stroke:none; fill:#5f5f5f" d="M 66.4 158.4L 67.2 159.2L 66.4 158.4M 92.8 158.4L 93.6 159.2L 92.8 158.4z"/>
<path style="stroke:none; fill:#9e9e9e" d="M 94.1336 158.666C 93.7776 159.022 94.6224 158.978 94.6664 158.934C 95.0224 158.578 94.1776 158.622 94.1336 158.666M 68.8 159.2L 68.8 160L 71.2 160C 70.2013 159.452 69.9613 159.401 68.8 159.2z"/>
<path style="stroke:none; fill:#5f5f5f" d="M 71.2 159.2L 71.2 160L 75.2 160C 73.7848 159.377 72.7712 159.27 71.2 159.2z"/>
<path style="stroke:none; fill:#273433" d="M 81.6 159.2L 81.6 160L 86.4 160C 84.7584 159.301 83.4024 159.238 81.6 159.2z"/>
<path style="stroke:none; fill:#5f5f5f" d="M 86.4 159.2L 86.4 160L 88.8 160C 87.8016 159.452 87.5616 159.401 86.4 159.2z"/>
<path style="stroke:none; fill:#9e9e9e" d="M 89.3336 159.466C 88.9776 159.822 89.8224 159.778 89.8664 159.734C 90.2224 159.378 89.3776 159.422 89.3336 159.466z"/>
</g>
</svg>