<svg xmlns="http://www.w3.org/2000/svg" viewBox="0 0 448.005 448.005"><g fill="#2196f3"><path d="M444.453 213.947l-142.496-176c-5.504-6.784-15.424-7.872-22.336-2.496l-49.536 39.072c-3.36 2.656-5.504 6.56-5.984 10.816s.768 8.512 3.456 11.84l102.752 126.816-102.752 126.816c-2.688 3.328-3.936 7.584-3.456 11.84s2.624 8.128 6.016 10.784l49.504 39.104c2.912 2.336 6.4 3.456 9.888 3.456 4.672 0 9.28-2.016 12.448-5.952l142.496-176c4.736-5.824 4.736-14.24 0-20.096z"/><path d="M77.957 37.947c-5.504-6.816-15.456-7.904-22.368-2.528L6.085 74.523C2.725 77.179.581 81.083.101 85.339s.768 8.512 3.456 11.84l102.752 126.816L3.557 350.811a15.98 15.98 0 00-3.456 11.84 15.921 15.921 0 006.016 10.784l49.504 39.104c2.912 2.336 6.4 3.456 9.888 3.456 4.672 0 9.28-2.016 12.448-5.952l142.496-176c4.736-5.856 4.736-14.272 0-20.128L77.957 37.947z"/></g></svg>