<svg viewBox="0 0 512 512" xmlns="http://www.w3.org/2000/svg"><path d="M446.588 283.919l-36.899-15.529v136.743l36.899-15.529a27.273 27.273 0 0016.694-25.138v-55.41a27.274 27.274 0 00-16.694-25.137z" fill="#e7889d"/><path d="M439.689 281.016l-30-12.626v136.743l30-12.626z" fill="#e16e7e"/><path d="M350.475 504.5H91.142c-16.518 0-29.908-13.39-29.908-29.908V76.219c0-16.518 13.39-29.908 29.908-29.908h259.333c32.703 0 59.214 26.511 59.214 59.214v339.76c0 32.704-26.511 59.215-59.214 59.215z" fill="#88d37f"/><path d="M91.142 46.311c-16.518 0-29.908 13.39-29.908 29.908v398.373c0 16.518 13.39 29.908 29.908 29.908H262.9C122.807 425.405 137.788 186.083 138.085 46.311zM350.475 46.311H252.69v144.7c0 33.532 27.281 60.814 60.813 60.814h96.186v-146.3c0-32.703-26.511-59.214-59.214-59.214z" fill="#5ec682"/><circle cx="235.461" cy="198.578" fill="#cde9fa" transform="rotate(-13.34 234.995 198.565)" r="58.188"/><circle cx="235.461" cy="198.578" fill="#cde9fa" transform="rotate(-13.34 234.995 198.565)" r="58.188"/><path d="M252.69 142.985v48.026c0 19.77 9.488 37.36 24.143 48.474 10.394-10.511 16.816-24.957 16.816-40.907 0-26.138-17.234-48.249-40.959-55.593z" fill="#a2ddfd"/><g fill="#59636f"><path d="M81.722 88.903H40.745c-14.226 0-25.759 11.533-25.759 25.759 0 14.227 11.533 25.759 25.759 25.759h40.977c14.226 0 25.759-11.533 25.759-25.759.001-14.226-11.532-25.759-25.759-25.759zM81.722 196.065H40.745c-14.226 0-25.759 11.533-25.759 25.759 0 14.227 11.533 25.759 25.759 25.759h40.977c14.226 0 25.759-11.533 25.759-25.759.001-14.226-11.532-25.759-25.759-25.759zM81.722 303.227H40.745c-14.226 0-25.759 11.533-25.759 25.759 0 14.227 11.533 25.759 25.759 25.759h40.977c14.226 0 25.759-11.533 25.759-25.759.001-14.226-11.532-25.759-25.759-25.759zM81.722 410.389H40.745c-14.226 0-25.759 11.533-25.759 25.759 0 14.227 11.533 25.759 25.759 25.759h40.977c14.226 0 25.759-11.533 25.759-25.759.001-14.226-11.532-25.759-25.759-25.759z"/></g><path d="M466.2 7.5H313.504c-17.018 0-30.814 13.796-30.814 30.814v152.697c0 17.018 13.796 30.814 30.814 30.814H466.2c17.018 0 30.814-13.796 30.814-30.814V38.314c0-17.018-13.796-30.814-30.814-30.814z" fill="#fbf1cf"/><path d="M313.504 7.5c-17.018 0-30.814 13.796-30.814 30.814v152.697c0 17.018 13.796 30.814 30.814 30.814h58.027c-50.398-48.59-48.47-182.838-43.569-214.325z" fill="#fae0bd"/><path d="M455.201 221.824c0-36.091-29.258-65.349-65.349-65.349s-65.349 29.258-65.349 65.349z" fill="#7acefa"/><circle cx="389.852" cy="120.212" fill="#a2ddfd" transform="rotate(-9.25 390.202 120.591)" r="47.228"/><path d="M308.282 328.986a7.5 7.5 0 00-7.5-7.5H170.141a7.5 7.5 0 000 15h130.641a7.5 7.5 0 007.5-7.5zM200.26 379.793a7.5 7.5 0 000 15h70.403a7.5 7.5 0 000-15zM483.989 4.373a7.498 7.498 0 00-10.126 3.155 7.5 7.5 0 003.155 10.126 23.273 23.273 0 0112.497 20.659V191.01c0 12.855-10.458 23.314-23.314 23.314h-3.888c-2.311-22.838-15.093-42.932-34.538-54.709 10.348-9.963 16.806-23.939 16.806-39.403 0-30.178-24.551-54.729-54.728-54.729s-54.729 24.551-54.729 54.729c0 15.465 6.458 29.441 16.806 39.403-19.446 11.777-32.227 31.871-34.538 54.709h-3.888c-12.855 0-23.313-10.458-23.313-23.314V38.313C290.19 25.458 300.648 15 313.503 15h132.003c4.142 0 7.5-3.357 7.5-7.5s-3.358-7.5-7.5-7.5H313.503c-21.126 0-38.313 17.188-38.313 38.313v.497H91.142c-20.627 0-37.408 16.781-37.408 37.408v5.184H40.745c-18.339 0-33.259 14.92-33.259 33.259 0 18.34 14.92 33.26 33.259 33.26h12.989v40.643H40.745c-18.339 0-33.259 14.92-33.259 33.259 0 18.34 14.92 33.26 33.259 33.26h12.989v40.644H40.745c-18.339 0-33.259 14.92-33.259 33.259 0 18.34 14.92 33.26 33.259 33.26h12.989v40.643H40.745c-18.339 0-33.259 14.92-33.259 33.259 0 18.34 14.92 33.26 33.259 33.26h12.989v5.184c0 20.627 16.781 37.408 37.408 37.408h39.43c4.142 0 7.5-3.357 7.5-7.5s-3.358-7.5-7.5-7.5h-39.43c-12.356 0-22.408-10.053-22.408-22.408v-5.184h12.988c18.339 0 33.26-14.92 33.26-33.26 0-18.339-14.92-33.259-33.26-33.259H68.734v-40.643h12.988c18.339 0 33.26-14.92 33.26-33.26 0-18.339-14.92-33.259-33.26-33.259H68.734v-40.644h12.988c18.339 0 33.26-14.92 33.26-33.26 0-18.339-14.92-33.259-33.26-33.259H68.734v-40.643h12.988c18.339 0 33.26-14.92 33.26-33.26 0-18.339-14.92-33.259-33.26-33.259H68.734v-5.184c0-12.356 10.052-22.408 22.408-22.408H275.19v92.493c-11.309-8.583-25.254-13.414-39.729-13.414-36.22 0-65.688 29.467-65.688 65.688s29.467 65.688 65.688 65.688c26.468 0 49.904-15.747 60.199-39.365a38.07 38.07 0 0017.843 4.424h88.686V445.285c0 28.516-23.199 51.715-51.714 51.715H166.966c-4.142 0-7.5 3.357-7.5 7.5s3.358 7.5 7.5 7.5h183.509c36.787 0 66.714-29.928 66.714-66.715v-35.171l32.308-13.597a34.7 34.7 0 0021.285-32.05v-55.41a34.702 34.702 0 00-21.285-32.051l-32.308-13.596v-34.085H466.2c21.126 0 38.314-17.188 38.314-38.314V38.313c0-14.29-7.865-27.294-20.525-33.94zM81.722 417.89c10.068 0 18.26 8.191 18.26 18.259s-8.191 18.26-18.26 18.26H40.745c-10.068 0-18.259-8.191-18.259-18.26 0-10.068 8.191-18.259 18.259-18.259zm0-107.162c10.068 0 18.26 8.19 18.26 18.259 0 10.068-8.191 18.26-18.26 18.26H40.745c-10.068 0-18.259-8.191-18.259-18.26 0-10.068 8.191-18.259 18.259-18.259zm0-107.163c10.068 0 18.26 8.191 18.26 18.259s-8.191 18.26-18.26 18.26H40.745c-10.068 0-18.259-8.191-18.259-18.26 0-10.068 8.191-18.259 18.259-18.259zm0-107.162c10.068 0 18.26 8.191 18.26 18.259s-8.191 18.26-18.26 18.26H40.745c-10.068 0-18.259-8.191-18.259-18.26 0-10.068 8.191-18.259 18.259-18.259zm153.739 152.863c-27.949 0-50.688-22.738-50.688-50.688 0-27.949 22.738-50.688 50.688-50.688 15.466 0 30.14 7.165 39.729 19.258v23.863c0 8.978 3.112 17.238 8.304 23.777-6.882 20.48-26.108 34.478-48.033 34.478zm114.663-129.054c0-21.906 17.822-39.729 39.729-39.729 21.906 0 39.728 17.822 39.728 39.729 0 21.906-17.822 39.728-39.728 39.728-21.907-.001-39.729-17.822-39.729-39.728zm93.555 170.62a19.73 19.73 0 0112.103 18.225v55.41c0 7.977-4.75 15.13-12.103 18.224l-26.49 11.148V279.684zm-111.19-76.508c2.525-19.706 14.902-36.652 33.173-45.038a54.563 54.563 0 0048.379 0c18.271 8.385 30.649 25.332 33.173 45.038z"/></svg>