<svg viewBox="0 0 512 512" xmlns="http://www.w3.org/2000/svg"><path d="M411.164 490.15V21.85c0-12.067-9.782-21.85-21.85-21.85H162.192l-19.54 15.888v480.225L162.192 512h227.122c12.067 0 21.85-9.782 21.85-21.85z" fill="#e28086"/><path d="M444.612 0h-65.26c12.067 0 21.85 9.783 21.85 21.85v468.3c0 12.067-9.782 21.85-21.85 21.85h65.26c12.067 0 21.85-9.782 21.85-21.85V21.85c0-12.067-9.782-21.85-21.85-21.85z" fill="#dd636e"/><path d="M162.192 0h-56.933C93.192 0 83.41 9.783 83.41 21.85v468.3c0 12.067 9.783 21.85 21.85 21.85h56.933V0z" fill="#365e7d"/><g><path d="M384.016 356.307H231.853c-4.269 0-7.729-3.46-7.729-7.729s3.46-7.729 7.729-7.729h152.162a7.728 7.728 0 017.729 7.729 7.727 7.727 0 01-7.728 7.729zM384.016 398.663H231.853c-4.269 0-7.729-3.46-7.729-7.729s3.46-7.729 7.729-7.729h152.162a7.728 7.728 0 017.729 7.729 7.727 7.727 0 01-7.728 7.729z" fill="#f4fbff"/><g><path d="M362.59 299.461H253.279c-11.833 0-21.425-9.592-21.425-21.425V142.491c0-11.833 9.592-21.425 21.425-21.425H362.59c11.833 0 21.425 9.592 21.425 21.425v135.545c0 11.833-9.592 21.425-21.425 21.425z" fill="#f4fbff"/><path d="M307.934 231.023c-34.653 0-64.148 22.046-75.249 52.874 2.552 8.98 10.795 15.564 20.593 15.564H362.59c9.798 0 18.042-6.584 20.593-15.564-11.1-30.828-40.596-52.874-75.249-52.874z" fill="#407093"/><circle cx="307.934" cy="204.935" fill="#365e7d" r="34.127"/></g></g><g fill="#e4f6ff"><path d="M102.902 91.528H63.917c-10.15 0-18.379-8.229-18.379-18.379 0-10.15 8.229-18.379 18.379-18.379h38.986c10.15 0 18.379 8.229 18.379 18.379-.001 10.15-8.229 18.379-18.38 18.379zM102.902 182.953H63.917c-10.15 0-18.379-8.229-18.379-18.379 0-10.15 8.229-18.379 18.379-18.379h38.986c10.15 0 18.379 8.229 18.379 18.379-.001 10.151-8.229 18.379-18.38 18.379zM102.902 274.379H63.917c-10.15 0-18.379-8.229-18.379-18.379 0-10.15 8.229-18.379 18.379-18.379h38.986c10.15 0 18.379 8.229 18.379 18.379-.001 10.151-8.229 18.379-18.38 18.379zM102.902 365.805H63.917c-10.15 0-18.379-8.229-18.379-18.379 0-10.15 8.229-18.379 18.379-18.379h38.986c10.15 0 18.379 8.229 18.379 18.379-.001 10.15-8.229 18.379-18.38 18.379zM102.902 457.231H63.917c-10.15 0-18.379-8.229-18.379-18.379 0-10.15 8.229-18.379 18.379-18.379h38.986c10.15 0 18.379 8.229 18.379 18.379-.001 10.15-8.229 18.379-18.38 18.379z"/></g></svg>