<svg xmlns="http://www.w3.org/2000/svg" viewBox="0 0 512 512"><path d="M368 488H64a32 32 0 01-32-32V56a32 32 0 0132-32h240l96 96v336a32 32 0 01-32 32z" fill="#e9eef2"/><path d="M400 120h-64a32 32 0 01-32-32V24z" fill="#c3c6c7"/><path d="M463.993 488a15.936 15.936 0 01-10.529-3.959l-128-112a16 16 0 1121.072-24.082l128 112A16 16 0 01463.993 488z" fill="#3cb4d7"/><circle cx="328" cy="376" r="80" fill="#6ed2f0"/><path d="M152 168a8 8 0 008 8h192a8 8 0 000-16H160a8 8 0 00-8 8zM80 224h160a8 8 0 000-16H80a8 8 0 000 16zM272 256h-64a8 8 0 000 16h64a8 8 0 000-16zM224 304H80a8 8 0 000 16h144a8 8 0 000-16zM80 176h48a8 8 0 000-16H80a8 8 0 000 16zM352 208h-80a8 8 0 000 16h80a8 8 0 000-16zM80 272h96a8 8 0 000-16H80a8 8 0 000 16zM208 400h-32a8 8 0 000 16h32a8 8 0 000-16zM144 400H80a8 8 0 000 16h64a8 8 0 000-16zM80 368h48a8 8 0 000-16H80a8 8 0 000 16zM80 128h96a8 8 0 000-16H80a8 8 0 000 16zM208 352h-48a8 8 0 000 16h48a8 8 0 000-16z"/><path d="M487.946 470.4a23.839 23.839 0 00-8.142-16.465l-59.653-52.195A87.878 87.878 0 00408 325.462V120a8 8 0 00-2.343-5.657l-96-96A8 8 0 00304 16H64a40.045 40.045 0 00-40 40v400a40.045 40.045 0 0040 40h304a40.045 40.045 0 0040-40v-1.11l40.2 35.171a24 24 0 0039.746-19.661zm-100.173-44.365a71.715 71.715 0 1115.613-24.612 71.419 71.419 0 01-15.613 24.612zM312 43.313L380.687 112H336a24.027 24.027 0 01-24-24zM368 480H64a24.028 24.028 0 01-24-24V56a24.028 24.028 0 0124-24h232v56a40.045 40.045 0 0040 40h56v180.167a87.979 87.979 0 100 135.709V456a24.028 24.028 0 01-24 24zm102.021-2.731a8 8 0 01-11.29.752l-53.917-47.178a87.188 87.188 0 008.866-13.5l55.588 48.639a8 8 0 01.753 11.29z"/><path d="M372.806 393.607a8 8 0 00-11.2 1.591 32 32 0 11-44.8-44.8 8 8 0 00-9.616-12.798 48 48 0 1067.21 67.209 8 8 0 00-1.594-11.202z"/></svg>