<svg viewBox="0 0 512 512" xmlns="http://www.w3.org/2000/svg"><path d="M448 335.671l-.81-.811a78.052 78.052 0 00-110.38 0l-.81.811h-80a24 24 0 00-24 24 24.041 24.041 0 00.734 5.9l-80.547-26.853A24.455 24.455 0 00120 361.922v.526a24.5 24.5 0 0011.325 20.759l138.865 88.368a70 70 0 0055.4 8.639L448 448h40V335.671z" fill="#f5d3bd"/><path d="M256 383.67a24.021 24.021 0 01-23.27-18.09l-80.54-26.86a24.218 24.218 0 00-10.41-1.12L248 397.26h88v-13.59z" fill="#f5d3bd"/><path d="M214.174 232.919l-18.7 3.181a20.056 20.056 0 01-23.416-20.066 20.056 20.056 0 0116.691-19.477l26.026-4.426z" fill="#e8c8b3"/><path d="M254.962 233.517L224 238.782a17.709 17.709 0 01-17.847-7.853 17.71 17.71 0 018.863-26.264l50.046-18.072z" fill="#e8c8b3"/><path d="M220.91 203.636l6.735-31.283 78.208 16.838 8-37.149a36 36 0 00-8.016-31.185l-29.622-34.1A36 36 0 00248.35 74.37l-122.863 2.339L24 26.116v120l63.956 28.895 13.209 16.2a86.439 86.439 0 0048.8 29.883 73.2 73.2 0 0048.082-6.056z" fill="#f5d3bd"/><g fill="#e8c8b3"><path d="M298.8 212.653l-4.209 19.552a20 20 0 01-23.762 15.343 20 20 0 01-15.342-23.762l4.209-19.552zM271.808 165.312a8.013 8.013 0 01-7.829-9.686l3.368-15.642a8 8 0 0115.642 3.368l-3.368 15.641a8 8 0 01-7.813 6.319zM252.1 169.782a8 8 0 01-7.444-5.064l-14.349-36.353a8 8 0 0114.883-5.875l14.349 36.353a8 8 0 01-7.439 10.939z"/></g><path d="M371.8 247.8L314 305.6l-57.8-57.8A28 28 0 01248 228a28 28 0 0128-28 28 28 0 0119.8 8.2l18.2 18.2 18.2-18.2A28 28 0 01352 200a28 28 0 0128 28 28 28 0 01-8.2 19.8z" fill="#f16465"/><path d="M151.608 221.449a68.421 68.421 0 0044.939-5.661l24.363-12.152 64.969 7.927a25.089 25.089 0 0027.565-19.624 25.087 25.087 0 00-19.244-29.807l-61.5-13.241-62.57-13.471z" fill="#f5d3bd"/><path d="M336 390.465a6.8 6.8 0 01-6.8 6.8h-48.279a125.841 125.841 0 01-61.621-16.127L141.78 337.6a24.218 24.218 0 0110.41 1.12l80.54 26.86A24.021 24.021 0 00256 383.67h73.2a6.8 6.8 0 016.8 6.795z" fill="#e8c8b3"/></svg>