<svg xmlns="http://www.w3.org/2000/svg" viewBox="0 0 300 220"><path fill="#074B64" d="M142.27 94.302l-9.521-18.115c-.94-1.792-1.851-3.289-2.733-4.495-.881-1.204-1.792-2.167-2.732-2.887a9.053 9.053 0 00-3.019-1.543c-1.073-.308-2.271-.463-3.593-.463h-6.963v27.502h-5.861V31.1h18.202c2.38 0 4.679.353 6.897 1.058 2.218.705 4.194 1.748 5.928 3.129 1.733 1.382 3.121 3.115 4.165 5.201 1.044 2.087 1.565 4.511 1.565 7.272 0 2.233-.338 4.291-1.014 6.17a15.838 15.838 0 01-2.887 5.002c-1.25 1.454-2.764 2.688-4.541 3.702s-3.782 1.771-6.016 2.27v.176c.852.353 1.631.81 2.336 1.366a14.06 14.06 0 012.05 2.027 25.731 25.731 0 011.962 2.732 58.508 58.508 0 012.027 3.526L149.143 94.3h-6.873zm-28.561-57.825v24.99h10.49c2.115 0 4.055-.309 5.816-.926 1.764-.617 3.27-1.499 4.519-2.645s2.218-2.526 2.909-4.143c.689-1.616 1.035-3.438 1.035-5.465 0-3.673-1.184-6.56-3.548-8.661-2.366-2.1-5.782-3.151-10.247-3.151h-10.974zM159.898 94.302V31.1h30.809v5.377h-24.946V59.66h23.095v5.289h-23.095V88.97h26.356v5.332h-32.219zM107.848 179.457a22.097 22.097 0 003.504 2.137 28.17 28.17 0 007.955 2.555c1.352.223 2.645.33 3.879.33 4.789 0 8.375-.926 10.754-2.775 2.379-1.852 3.568-4.51 3.568-7.977 0-1.674-.277-3.135-.836-4.385-.559-1.248-1.426-2.416-2.602-3.504-1.174-1.086-2.658-2.166-4.451-3.24a227.327 227.327 0 00-6.346-3.637c-2.705-1.469-5.018-2.855-6.941-4.164-1.924-1.307-3.498-2.645-4.717-4.01-1.219-1.367-2.115-2.844-2.688-4.43-.572-1.588-.859-3.395-.859-5.422 0-2.557.543-4.848 1.631-6.875a16.04 16.04 0 014.406-5.18c1.852-1.424 4.018-2.518 6.5-3.283 2.484-.764 5.137-1.145 7.957-1.145 4.965 0 9.123.689 12.473 2.07v6.479c-3.732-2.145-8.109-3.217-13.135-3.217-1.881 0-3.65.229-5.311.684s-3.115 1.123-4.363 2.004c-1.25.883-2.232 1.979-2.953 3.285s-1.08 2.828-1.08 4.561c0 1.646.242 3.064.729 4.254.484 1.189 1.262 2.313 2.336 3.371 1.072 1.059 2.482 2.109 4.23 3.15 1.748 1.045 3.887 2.242 6.412 3.592 2.645 1.41 4.951 2.785 6.92 4.123s3.607 2.732 4.914 4.186c1.307 1.455 2.285 2.998 2.932 4.629s.971 3.445.971 5.441c0 2.764-.516 5.195-1.543 7.297a14.21 14.21 0 01-4.32 5.221c-1.852 1.383-4.055 2.424-6.611 3.129-2.555.705-5.361 1.057-8.418 1.057-1 0-2.189-.08-3.57-.24a42.49 42.49 0 01-4.188-.707 39.366 39.366 0 01-4.031-1.102c-1.279-.424-2.314-.887-3.107-1.389v-6.873zM174.797 130.887v57.824h-5.863v-57.824h-18.201v-5.377h42.311v5.377h-18.247zM249.974 114.932c-9.977 1.283-14.965 10.193-14.965 26.73v33.754c0 11.555-2.27 20.049-6.807 25.486-4.538 5.438-11.313 8.305-20.324 8.607v-11.893c2.639-.076 4.924-.564 6.855-1.473 1.932-.906 3.523-2.32 4.779-4.246 1.255-1.926 2.188-4.477 2.799-7.646.612-3.172.918-7.098.918-11.779v-31.941c0-16.766 4.764-26.921 14.289-30.47v-.453c-9.525-3.549-14.289-13.441-14.289-29.676V46.744c0-4.455-.322-8.212-.965-11.27-.645-3.059-1.594-5.55-2.849-7.476-1.255-1.926-2.849-3.342-4.779-4.248s-4.185-1.434-6.759-1.585V10.158c9.012.302 15.786 3.172 20.324 8.609 4.537 5.436 6.807 14.007 6.807 25.712v34.32c0 16.16 4.988 24.806 14.965 25.938v10.195zM95.165 209.842c-9.011-.303-15.786-3.17-20.323-8.605-4.538-5.438-6.807-13.934-6.807-25.488v-33.754c0-8.305-1.271-14.686-3.814-19.141-2.542-4.455-6.292-6.984-11.248-7.59V105.07c10.041-1.284 15.062-9.93 15.062-25.938v-34.32c0-11.629 2.269-20.181 6.807-25.655 4.538-5.475 11.313-8.363 20.323-8.666v12.007c-5.471.377-9.397 2.473-11.779 6.287-2.382 3.813-3.572 9.911-3.572 18.292v33.188c0 16.386-4.763 26.278-14.289 29.676v.453c9.526 3.474 14.289 13.63 14.289 30.47v31.941c0 4.379.257 8.117.772 11.213s1.384 5.662 2.606 7.703c1.223 2.039 2.8 3.568 4.731 4.586 1.931 1.02 4.345 1.568 7.241 1.643v11.892z"/><g fill="#074B64"><path d="M133.997 113.113c-.938 0-1.736-.328-2.393-.985s-.985-1.455-.985-2.393c0-.962.323-1.771.968-2.428s1.449-.985 2.411-.985c.469 0 .909.088 1.319.264.411.176.769.411 1.073.704.305.293.551.651.739 1.073.188.422.281.879.281 1.372 0 .469-.094.909-.281 1.32-.188.41-.434.769-.739 1.073-.305.306-.663.546-1.073.722s-.851.263-1.32.263zM149.797 113.113c-.938 0-1.736-.328-2.393-.985-.657-.657-.986-1.455-.986-2.393 0-.962.323-1.771.969-2.428.645-.657 1.448-.985 2.41-.985.469 0 .909.088 1.319.264.41.176.769.411 1.074.704.305.293.551.651.738 1.073s.281.879.281 1.372c0 .469-.094.909-.281 1.32a3.66 3.66 0 01-.738 1.073c-.306.306-.664.546-1.074.722s-.85.263-1.319.263zM165.597 113.113c-.938 0-1.735-.328-2.393-.985-.656-.657-.985-1.455-.985-2.393 0-.962.323-1.771.968-2.428.646-.657 1.449-.985 2.41-.985.47 0 .91.088 1.32.264.41.176.768.411 1.073.704.306.293.552.651.739 1.073s.281.879.281 1.372c0 .469-.094.909-.281 1.32-.188.41-.434.769-.739 1.073-.306.306-.663.546-1.073.722s-.851.263-1.32.263z"/></g></svg>