<svg xmlns="http://www.w3.org/2000/svg" viewBox="0 0 194.56 194.56"><path d="M30.839 58.027h27.187V29.013a8.534 8.534 0 0117.066 0V102.862c0 6.267-4.381 11.489-10.24 12.832v48.145H20.48v-48.145c-5.859-1.345-10.24-6.566-10.24-12.832V78.626c0-11.376 9.223-20.599 20.599-20.599z" fill="#ffdd95"/><path d="M64.853 167.253H20.48a3.414 3.414 0 01-3.413-3.413v-45.658c-6.146-2.524-10.24-8.487-10.24-15.321V78.626c0-13.242 10.772-24.013 24.011-24.013h23.776v-25.6c0-6.586 5.361-11.947 11.947-11.947s11.947 5.361 11.947 11.947v73.849c0 6.833-4.094 12.795-10.24 15.321v45.657a3.416 3.416 0 01-3.415 3.413zm-40.96-6.826H61.44v-44.732a3.413 3.413 0 012.65-3.326c4.468-1.026 7.59-4.934 7.59-9.506v-73.85a5.126 5.126 0 00-5.12-5.12 5.126 5.126 0 00-5.12 5.12v29.013a3.414 3.414 0 01-3.413 3.413H30.838c-9.475 0-17.184 7.711-17.184 17.186v24.235c0 4.574 3.121 8.482 7.59 9.506a3.413 3.413 0 012.65 3.326v44.735z"/><path d="M58.027 64.853V11.947a8.534 8.534 0 00-17.066 0v52.907" fill="#ffdd95"/><path d="M58.027 68.267a3.414 3.414 0 01-3.413-3.413V11.947a5.126 5.126 0 00-5.12-5.12 5.126 5.126 0 00-5.12 5.12v52.907a3.414 3.414 0 01-6.826 0V11.947C37.547 5.361 42.907 0 49.493 0S61.44 5.361 61.44 11.947v52.907a3.414 3.414 0 01-3.413 3.413zM27.307 75.093a3.414 3.414 0 01-3.413-3.413V61.44a3.414 3.414 0 016.826 0v10.24a3.414 3.414 0 01-3.413 3.413z"/><path d="M163.721 47.787l-27.187-3.413v5.12a8.534 8.534 0 00-17.066 0v-1.707 44.836c0 6.267 4.381 11.489 10.24 12.832v27.665h44.373v-27.665c5.859-1.345 10.24-6.566 10.24-12.832V68.386c-.001-11.377-9.224-20.599-20.6-20.599z" fill="#ffdd95"/><path d="M174.08 136.533h-44.373a3.414 3.414 0 01-3.413-3.413v-25.178c-6.146-2.524-10.24-8.487-10.24-15.321V47.787c0-.676.196-1.309.536-1.838 1.514-4.862 6.057-8.402 11.411-8.402 3.25 0 6.202 1.306 8.358 3.418.2-.01.399-.005.601.022l26.986 3.388c13.138.118 23.789 10.844 23.789 24.011v24.235c0 6.833-4.094 12.795-10.24 15.321v25.178a3.417 3.417 0 01-3.415 3.413zm-40.96-6.826h37.547v-24.252a3.413 3.413 0 012.65-3.326c4.468-1.026 7.59-4.934 7.59-9.506V68.388c0-9.477-7.709-17.186-17.184-17.186-.142 0-.283-.009-.425-.027l-23.351-2.932v1.251a3.414 3.414 0 01-6.826 0 5.126 5.126 0 00-5.12-5.12 5.126 5.126 0 00-5.12 5.12v43.129c0 4.574 3.121 8.482 7.59 9.506a3.413 3.413 0 012.65 3.326v24.252z"/><path d="M136.533 64.853a3.414 3.414 0 01-3.413-3.413V44.373a3.414 3.414 0 016.826 0V61.44a3.414 3.414 0 01-3.413 3.413zM153.6 64.853a3.414 3.414 0 01-3.413-3.413V51.2a3.414 3.414 0 016.826 0v10.24a3.414 3.414 0 01-3.413 3.413zM167.253 64.853a3.414 3.414 0 01-3.413-3.413V51.2a3.414 3.414 0 016.826 0v10.24a3.414 3.414 0 01-3.413 3.413z"/><path fill="#feda38" d="M126.293 133.12h54.613v58.027h-54.613z"/><path d="M180.907 194.56h-54.613a3.414 3.414 0 01-3.413-3.413V133.12a3.414 3.414 0 013.413-3.413h54.613a3.414 3.414 0 013.413 3.413v58.027a3.414 3.414 0 01-3.413 3.413zm-51.2-6.827h47.787v-51.2h-47.787v51.2z"/><path fill="#ee5281" d="M13.653 143.36h54.613v47.787H13.653z"/><path d="M68.267 194.56H13.653a3.414 3.414 0 01-3.413-3.413V143.36a3.414 3.414 0 013.413-3.413h54.613a3.414 3.414 0 013.413 3.413v47.787a3.413 3.413 0 01-3.412 3.413zm-51.2-6.827h47.787v-40.96H17.067v40.96z"/></svg>