<svg xmlns="http://www.w3.org/2000/svg" viewBox="0 0 511.895 511.895"><path d="M484.972 398.01l-26.707 15.429h-.277l-169.652 97.557-1.522.899a2.245 2.245 0 01-.899-.277L29.568 363.623a5.719 5.719 0 01-2.629-4.497v-24.977a1.692 1.692 0 01.899-1.73v-.069l170.205-98.179V26.257a11.424 11.424 0 013.39-9.064l2.076-1.245L228.14 1.764l1.799-1.107.208-.138h.069a11.376 11.376 0 019.894 1.522l229.501 132.497a33.915 33.915 0 0115.291 26.499v208.259l.07 28.714z" fill="#dadcda"/><path d="M288.544 485.119v24.977a1.91 1.91 0 01-.208.899l-1.522.899a2.245 2.245 0 01-.899-.277L29.568 363.623a5.719 5.719 0 01-2.629-4.497v-24.977a1.692 1.692 0 01.899-1.73 1.804 1.804 0 011.73.208l106.067 61.232a15.191 15.191 0 006.296 8.856l36.117 20.826c2.906 1.661 5.397.899 6.365-1.522l101.501 58.603a5.137 5.137 0 011.937 2.076 5.37 5.37 0 01.693 2.421z" fill="#a5b4b4"/><path d="M484.972 398.01l-26.707 15.429h-.277l-169.652 97.557a1.91 1.91 0 00.208-.899V485.12a5.357 5.357 0 00-.692-2.422l170.413-97.972v-208.26a33.832 33.832 0 00-15.36-26.43L213.404 17.469a11.633 11.633 0 00-9.894-1.522l24.631-14.184L229.94.656l.208-.138h.069a11.376 11.376 0 019.894 1.522l229.501 132.497a33.915 33.915 0 0115.291 26.499v208.259l.069 28.715z" fill="#919d9e"/><path fill="#4f6f7f" d="M440.638 355.376L215.634 225.473V37.963l225.004 129.903z"/><path d="M458.264 384.726l-170.413 97.972a5.144 5.144 0 00-1.937-2.076l-101.501-58.603c-.969 2.422-3.459 3.183-6.365 1.522l-36.117-20.826a15.191 15.191 0 01-6.296-8.856L29.569 332.626a1.804 1.804 0 00-1.73-.208v-.069l170.205-98.179v.277l260.22 150.279z" fill="#b4b4b3"/><g fill="#dadcda"><path d="M133.029 307.926L337.207 426.44l69.922-41.956-204.177-118.515zM140.592 368.445l86.673 50.308 29.682-17.809-86.673-50.315z"/></g><g fill="#95c2d5"><path d="M240.091 112.434a3.46 3.46 0 01-1.709-6.467l19.568-11.145a3.459 3.459 0 113.419 6.014l-19.568 11.145a3.43 3.43 0 01-1.71.453zM240.091 140.488a3.458 3.458 0 01-1.709-6.467l9.784-5.574a3.459 3.459 0 113.419 6.014l-9.784 5.574a3.43 3.43 0 01-1.71.453zM269.443 123.769a3.46 3.46 0 01-1.709-6.467l14.676-8.358a3.459 3.459 0 113.419 6.014l-14.676 8.358a3.457 3.457 0 01-1.71.453zM240.091 168.539a3.46 3.46 0 01-1.709-6.467l44.027-25.078a3.459 3.459 0 113.419 6.014l-44.027 25.078a3.452 3.452 0 01-1.71.453zM303.679 132.316a3.458 3.458 0 01-1.709-6.467l4.892-2.787a3.459 3.459 0 013.419 6.013l-4.892 2.787a3.445 3.445 0 01-1.71.454z"/></g></svg>