<svg viewBox="0 0 512 512" xmlns="http://www.w3.org/2000/svg"><path d="M279.532 512h-47.065a7 7 0 01-7-7V7a7 7 0 017-7h47.065a7 7 0 017 7v498a7 7 0 01-7 7z" fill="#9d6b6b"/><path d="M279.532 0h-24.626c3.866 0 8 3.134 8 7v498c0 3.866-4.134 7-8 7h24.626a7 7 0 007-7V7a7 7 0 00-7-7z" fill="#8b5e5e"/><path d="M440.89 166.709H277.983a4.996 4.996 0 01-4.996-4.996V66.038a4.996 4.996 0 014.996-4.996H440.89c4.886 0 9.603 1.79 13.259 5.032l48.002 42.568c3.138 2.783 3.138 7.683 0 10.466l-48.002 42.568a19.976 19.976 0 01-13.259 5.033zM440.89 311.393H277.983a4.996 4.996 0 01-4.996-4.996v-95.675a4.996 4.996 0 014.996-4.996H440.89c4.886 0 9.603 1.79 13.259 5.032l48.002 42.568c3.138 2.783 3.138 7.683 0 10.466L454.15 306.36a19.986 19.986 0 01-13.26 5.033z" fill="#f6e266"/><path d="M502.152 108.642L484.06 92.599l-43.994 39.013a19.984 19.984 0 01-13.259 5.032h-153.82v25.069a4.996 4.996 0 004.996 4.996H440.89c4.886 0 9.603-1.79 13.259-5.032l48.002-42.568c3.139-2.784 3.139-7.684.001-10.467zM502.152 253.326l-18.092-16.043-43.994 39.013a19.984 19.984 0 01-13.259 5.032h-153.82v25.069a4.996 4.996 0 004.996 4.996H440.89c4.886 0 9.603-1.79 13.259-5.032l48.002-42.568c3.139-2.784 3.139-7.684.001-10.467z" fill="#f1d333"/><path d="M71.11 133.383h162.907a4.996 4.996 0 014.996 4.996v95.675a4.996 4.996 0 01-4.996 4.996H71.11c-4.886 0-9.603-1.79-13.259-5.032L9.848 191.45c-3.138-2.783-3.138-7.683 0-10.466l48.002-42.568a19.986 19.986 0 0113.26-5.033z" fill="#f6e266"/><path d="M234.017 133.383h-23.446v71.23a4.996 4.996 0 01-4.996 4.996H30.325l27.525 24.409a19.984 19.984 0 0013.259 5.032h162.907a4.996 4.996 0 004.996-4.996V138.38a4.995 4.995 0 00-4.995-4.997z" fill="#f1d333"/><path d="M196.138 178.171h-47.026a7.494 7.494 0 110-14.988h47.026a7.494 7.494 0 110 14.988zM196.138 209.251h-47.026a7.494 7.494 0 110-14.988h47.026a7.494 7.494 0 110 14.988zM443.619 250.802h-47.026a7.494 7.494 0 110-14.988h47.026a7.494 7.494 0 110 14.988zM414.876 281.882h-18.283a7.494 7.494 0 110-14.988h18.283a7.494 7.494 0 110 14.988z" fill="#e49542"/><g><path d="M443.619 105.83h-47.026a7.494 7.494 0 110-14.988h47.026a7.494 7.494 0 110 14.988zM443.065 136.91h-46.471a7.494 7.494 0 110-14.988h46.471a7.494 7.494 0 110 14.988z" fill="#e49542"/></g><g fill="#e49542"><path d="M308.233 238.132v39.11a2.757 2.757 0 002.757 2.757h12.578a2.757 2.757 0 002.757-2.757v-4.339c0-6.773 5.527-12.823 12.299-12.947 7.029-.129 12.768 5.531 12.768 12.531v4.754a2.757 2.757 0 002.757 2.757h12.578a2.757 2.757 0 002.757-2.757v-39.11a4.288 4.288 0 00-4.288-4.288H312.52a4.288 4.288 0 00-4.287 4.289zM325.671 106.596l-7.572-13.115c-.861-1.492-3.014-1.492-3.876 0l-4.459 7.722a11.188 11.188 0 00-1.499 5.594v24.258c0 .803.651 1.453 1.453 1.453h58.2c.803 0 1.453-.651 1.453-1.453v-25.08c0-1.964-.517-3.893-1.499-5.594l-3.984-6.9c-.861-1.492-3.014-1.492-3.876 0l-7.572 13.115c-.861 1.492-3.014 1.492-3.876 0l-7.572-13.115c-.861-1.492-3.014-1.492-3.876 0l-7.572 13.115c-.859 1.492-3.012 1.492-3.873 0zM98.075 160.661a2.705 2.705 0 00-4.13 0l-18.919 22.342a6.32 6.32 0 00-1.497 4.084v15.905a2.252 2.252 0 002.252 2.252h40.459a2.252 2.252 0 002.252-2.252v-15.905a6.32 6.32 0 00-1.497-4.084z"/></g></svg>