<svg viewBox="0 0 64 64" xmlns="http://www.w3.org/2000/svg"><path d="M24 56v2h16v-2h11c.83 0 1.58.34 2.12.88S54 58.17 54 59c0 1.66-1.34 3-3 3H21.83c-.53 0-1.04-.21-1.42-.59l-.82-.82c-.38-.38-.89-.59-1.42-.59H13c-.55 0-1.05-.22-1.41-.59-.37-.36-.59-.86-.59-1.41 0-1.1.9-2 2-2h8z" fill="#aab2bd"/><path d="M4 27h24v10H4c-1.1 0-2-.9-2-2v-6c0-1.1.9-2 2-2zM36 18h24c1.1 0 2 .9 2 2v6c0 1.1-.9 2-2 2H32V18zM36 34h24c1.1 0 2 .9 2 2v6c0 1.1-.9 2-2 2H36z" fill="#fcd770"/><path d="M36 6v2h-8V6c0-1.1.45-2.1 1.17-2.83C29.9 2.45 30.9 2 32 2c2.21 0 4 1.79 4 4zM36 44v10h-8V12h8v6h-4v10h4v6z" fill="#cf9e76"/><path d="M38 9v2c0 .55-.45 1-1 1H27c-.55 0-1-.45-1-1V9c0-.55.45-1 1-1h10c.55 0 1 .45 1 1zM40 56v2H24v-2c0-1.1.9-2 2-2h12c1.1 0 2 .9 2 2z" fill="#b27946"/><path d="M22 50l-1 6h-8l-1-6 3 2 2-4 2 4zM52 50l-1 6h-8l-1-6 3 2 2-4 2 4z" fill="#b4dd7f"/><g><path d="M60 29c1.654 0 3-1.346 3-3v-6c0-1.654-1.346-3-3-3H37v-4c1.103 0 2-.897 2-2V9c0-1.103-.897-2-2-2V6c0-2.757-2.243-5-5-5s-5 2.243-5 5v1c-1.103 0-2 .897-2 2v2c0 1.103.897 2 2 2v13H4c-1.654 0-3 1.346-3 3v6c0 1.654 1.346 3 3 3h23v15h-1a2.996 2.996 0 00-2.816 2H22.18l1.185-7.112-3.978 2.652L17 45.764l-2.388 4.775-3.978-2.652 1.223 7.341A3.004 3.004 0 0010 58c0 1.654 1.346 3 3 3h5.171c.267 0 .519.104.708.293l.828.828c.566.567 1.32.879 2.122.879H51c2.206 0 4-1.794 4-4 0-1.804-1.208-3.314-2.851-3.812l1.217-7.301-3.978 2.652L47 45.764l-2.388 4.775-3.978-2.652L41.82 55h-1.004A2.996 2.996 0 0038 53h-1v-8h23c1.654 0 3-1.346 3-3v-6c0-1.654-1.346-3-3-3H37v-4zM29 6c0-1.654 1.346-3 3-3s3 1.346 3 3v1h-6zm-2 3h10l.001 2H27zm8 20v24h-6V13h6v4h-4v12zM4 36c-.551 0-1-.449-1-1v-6c0-.551.449-1 1-1h23v8zm11.388 17.46L17 50.236l1.612 3.225 2.022-1.348L20.153 55h-6.306l-.481-2.888zm30 0L47 50.236l1.612 3.225 2.022-1.348L50.153 55h-6.306l-.481-2.888zM41 59v-2h10c1.103 0 2 .897 2 2s-.897 2-2 2H21.829a.996.996 0 01-.708-.293l-.828-.828A2.978 2.978 0 0018.171 59H13c-.551 0-1-.449-1-1s.449-1 1-1h10v2zm-3-4c.551 0 1 .449 1 1v1H25v-1c0-.551.449-1 1-1zm22-20c.551 0 1 .449 1 1v6c0 .551-.449 1-1 1H37v-8zm-27-8v-8h27c.551 0 1 .449 1 1v6c0 .551-.449 1-1 1z"/><path d="M54.293 20.707L55.586 22H35v2h20.586l-1.293 1.293 1.414 1.414L59.414 23l-3.707-3.707zM54.293 41.293l1.414 1.414L59.414 39l-3.707-3.707-1.414 1.414L55.586 38H39v2h16.586zM9.707 29.707l-1.414-1.414L4.586 32l3.707 3.707 1.414-1.414L8.414 33H25v-2H8.414z"/></g></svg>