<svg viewBox="0 0 192 192" xmlns="http://www.w3.org/2000/svg" xmlns:xlink="http://www.w3.org/1999/xlink"><linearGradient id="a" gradientUnits="userSpaceOnUse" x1="63.037" x2="96.963" y1="40.963" y2="7.037"><stop offset="0" stop-color="#34cdfa"/><stop offset="1" stop-color="#e8d9f1"/></linearGradient><linearGradient id="b" x1="151.037" x2="184.963" xlink:href="#a" y1="64.963" y2="31.037"/><linearGradient id="c" x1="143.037" x2="176.963" xlink:href="#a" y1="168.963" y2="135.037"/><linearGradient id="d" x1="55.037" x2="88.963" xlink:href="#a" y1="184.963" y2="151.037"/><linearGradient id="e" x1="7.037" x2="40.963" xlink:href="#a" y1="120.963" y2="87.037"/><path d="M175.977 48.613L168 48l2.1-7.718-88-24L80 24l-6.554-4.588-56 80L24 104l-6.4 4.8 48 64L72 168l1.431 7.871 88-16L160 152l7.977.613zm-77.316 73.254L82.885 116.3 84.4 89.1l21.6-8.4 11.227 17.964zm27.554-8.829l14.878 23.8-26.453-9.336zM88.076 135.1l-6.7 8.375.585-10.534zm-20.908-24.348l-20.161-7.116 21.01-8.17zm18.2-39.2l1.217-21.914 10.78 17.248zm35.808 3.242l21.98-8.548-15.336 19.172zm-8.631-13.811L97.62 37.1l44.874 12.239zM68.992 77.919l-23.318 9.069 24.781-35.4zm-2.748 49.474L65.23 145.64l-18.977-25.3zm37.811 13.345l24.875 8.78-37.33 6.787zM136.808 99.8l21.225-26.531-4.144 53.862z" fill="#ccf2fe"/><circle cx="80" cy="24" fill="url(#a)" r="24"/><circle cx="168" cy="48" fill="url(#b)" r="24"/><circle cx="160" cy="152" fill="url(#c)" r="24"/><circle cx="72" cy="168" fill="url(#d)" r="24"/><circle cx="24" cy="104" fill="url(#e)" r="24"/></svg>