<svg xmlns="http://www.w3.org/2000/svg" viewBox="0 0 496.8 496.8"><path d="M0 305.8V370c0 27.2 21.6 48.8 48 48.8h400c26.4 0 48.8-21.6 48.8-48.8v-64.2H0z" fill="#fff"/><path d="M448 78H48C21.6 78 0 99.6 0 126.8v64h496.8v-64c0-27.2-22.4-48.8-48.8-48.8z" fill="#c6363c"/><path fill="#0c4076" d="M0 190.8h496.8v115H0z"/><path d="M448 418.8c26.4 0 48.8-21.6 48.8-48.8v-64.2H315.2l132.8 113z" fill="#dae1e5"/><path d="M448.8 78H48l132 112.8h316.8v-64.2c0-27.2-21.6-48.6-48-48.6z" fill="#ba2b2b"/><path fill="#093a66" d="M316.4 305.8h180.4v-115H180z"/><path d="M448 78H48l368.4 112.8h80.4v-64c0-27.2-22.4-48.8-48.8-48.8z" fill="#a32323"/><path fill="#053151" d="M496.8 214.8v-24h-80.4z"/><path d="M496.8 370c0 27.2-22.4 48.8-48.8 48.8H48c-26.4 0-48-21.6-48-48.8" fill="#bac2c6"/><path fill="#ffd350" d="M64.5 179.9l.8 4.9h79l.8-4.9z"/><path d="M154 141.9c-1.4-2.5-3.7-4.2-6.4-4.8-8.7-1.9-25.7-5-41.1-5v-6.6h3.3v-3.3h-3.3v-3.3h-3.3v3.3h-3.3v3.3h3.3v6.6c-15.4 0-32.4 3.1-41.1 5-2.7.6-5 2.3-6.4 4.8s-1.6 5.6-.7 8.3l7 19.2c.2.6.6 1.1 1 1.4l2.3 13.9h79l2.3-13.9c.5-.4.8-.8 1-1.4l7-19.2c1-2.7.8-5.7-.6-8.3zm-86.6 23.2L61.2 148c-.3-1-.3-2 .2-2.9.3-.5.9-1.3 2-1.5 3.2-.7 7.4-1.5 12.2-2.3-1.1 2.5-1.4 5.7-.8 8.5l3.2 15.3H67.4zm13.9-16.6c-.5-2.5.3-4.7.6-5 4.3-1.6 12.2-4.2 19.7-4.6v26.2H84.7l-3.4-16.6zm47.1 0l-3.4 16.6h-16.8v-26.2c7.5.5 15.4 3 19.5 4.5.4.4 1.2 2.6.7 5.1zm20.1-.5l-6.2 17.1h-10.6l3.2-15.3c.6-2.8.3-6-.8-8.5 4.8.8 9.1 1.6 12.2 2.3 1.2.2 1.8 1.1 2 1.5.4.9.5 2 .2 2.9z" fill="#edb92e"/><g fill="#d6980d"><path d="M103.2 119v3.3h-3.3v.1l6.6 5.6v-2.4h3.3v-3.3h-3.3V119zM147.6 137.2c-7.8-1.7-22.2-4.3-36.1-4.9l11 9.4c2 .6 3.8 1.2 5.2 1.7.4.3.9 1.7.9 3.5l5.9 5 .4-2.1c.6-2.8.3-6-.8-8.5 4.8.8 9.1 1.6 12.2 2.3 1.2.2 1.8 1.1 2 1.5.5.9.6 1.9.2 2.9l-4.4 12.1 5.3 4.6 5.2-14.5c1-2.7.8-5.8-.7-8.3-1.3-2.4-3.6-4.2-6.3-4.7zM62.9 170h83.9l.8-4.9H62z"/></g><path d="M42.3 184.8c-1.8 0-3.3 1.5-3.3 3.3v115c0 36.5 29.5 66.1 65.8 66.1s65.8-29.6 65.8-66.1v-115c0-1.8-1.5-3.3-3.3-3.3h-125z" fill="#ba2b2b"/><path d="M130.7 305.1c.8-.1 1.6-.1 3.1.5 1.8 1.4 2.6 2.1 3.4 1.2 1.6-.2-2.6-2.1-6.3-5.7-5.4-5-5.7-8.2-6-10.6 1.6-.2 3.3.4 7.7 4 2.8 3.7 4.9 7.5 8.5 11.1.9.7 1.7.6 2.6 1.3.8-.1 6.4-.7 6.4-.7 1-1.3 3-1.4 3.8-.4h.1c1.4-1.8 3.1-1.1 4.2 1.2.1.8-.7.9-.7.9-.8-.7-1.6-.6-3 .2 0 1-1.1 2.5-2.4 2-.9-.7-5.6.6-6.4-.1 1 1.5 4.2 1.9 6.6 1.7h.4c2.4 0 3.6 1 2.6 5.3-.7.9-.7.9-.8.1-.1-.5-.4-.9-1.1-1.4-.7 1.5-2.9 1.7-3.1.2-.2-1.6-6-3.4-6.9-4.1 1.1 2.3 3.7 4.4 5.6 6.6 1.6 1.3 1.7 1.4.7 3.5.2 1.3-.2 2.8-1.5 3.8-.7.9-.8.1-.9-.7.5-.6.1-1.6-.5-2.6l-.6.3c-2.4.3-3.3-.4-2.7-2.9.5-2.5-2.2-5.4-2.3-6.2-.9-.7-1-1.5-1.1-2.3-.9-.7-5.1-2.7-6.6-1.7s-3.1 1.1-4.2-1.2c.1-.1.1-.2.2-.4-1.4-.5-2.7-.8-3.3-.1-.8.1-.8.1-.9-.7 1.4-2.4 3.7-2.7 5.4-2.1zM74.8 331.6c-.1.3-.2.7-.3 1 .2-1.4 1-2.8 2.4-4.2 1.6-1.6 1.6-4.8 0-6.4-1.6-.8-2.4-2.4-4-4-.8 1.6-1.6 3.2-3.2 4-1.6 1.6-1.6 4.8 0 6.4s2.4 4 2.4 4.8c0 .4.2 1.2.3 2.2-.2-1.2-.6-2.5-1.1-3.8-2.4-5.6-12-3.2-6.4 4h.8c0-1.6.8-2.4 2.4-2.4 4 .8 4 8.8 0 7.2-1.6 0-.8 1.6 0 2.4.7.5 1.5.7 2.1.4.1.5.8 1.4 1.9 2 0 0 .8.8.8 1.6h.8c0-.8.8-.8.8-1.6 1-.5 1.7-1.3 1.9-1.9.5.1 1.1-.1 1.7-.5.8-.8 1.6-2.4 0-2.4-4 1.6-4-6.4 0-7.2 1.6 0 2.4.8 2.4 2.4h.8c5.5-7.2-4.1-9.6-6.5-4zM78.4 305.1c-.8-.1-1.6-.1-3.1.5-1.8 1.4-2.6 2.1-3.4 1.2-1.6-.2 2.6-2.1 6.3-5.7 5.4-5 5.7-8.2 6-10.6-1.6-.2-3.3.4-7.7 4-2.8 3.7-4.9 7.5-8.5 11.1-.9.7-1.7.6-2.6 1.3-.8-.1-6.4-.7-6.4-.7-1-1.3-3-1.4-3.8-.4h-.1c-1.4-1.8-3.1-1.1-4.2 1.2-.1.8.7.9.7.9.8-.7 1.6-.6 3 .2 0 1 1.1 2.5 2.4 2 .9-.7 5.6.6 6.4-.1-1 1.5-4.2 1.9-6.6 1.7h-.4c-2.4 0-3.6 1-2.6 5.3.7.9.7.9.8.1.1-.5.4-.9 1.1-1.4.7 1.5 2.9 1.7 3.1.2.2-1.6 6-3.4 6.9-4.1-1.1 2.3-3.7 4.4-5.6 6.6-1.6 1.3-1.7 1.4-.7 3.5-.2 1.3.2 2.8 1.5 3.8.7.9.8.1.9-.7-.5-.6-.1-1.6.5-2.6l.6.3c2.4.3 3.3-.4 2.7-2.9-.5-2.5 2.2-5.4 2.3-6.2.9-.7 1-1.5 1.1-2.3.9-.7 5.1-2.7 6.6-1.7s3.1 1.1 4.2-1.2c-.1-.1-.1-.2-.2-.4 1.4-.5 2.7-.8 3.3-.1.8.1.8.1.9-.7-1.3-2.4-3.7-2.7-5.4-2.1z" fill="#edb92e"/><path d="M74.8 331.6c-.1.3-.2.7-.3 1 .2-1.4 1-2.8 2.4-4.2 1.6-1.6 1.6-4.8 0-6.4-1.6-.8-2.4-2.4-4-4-.8 1.6-1.6 3.2-3.2 4-1.6 1.6-1.6 4.8 0 6.4s2.4 4 2.4 4.8c0 .4.2 1.2.3 2.2-.2-1.2-.6-2.5-1.1-3.8-2.4-5.6-12-3.2-6.4 4h.8c0-1.6.8-2.4 2.4-2.4 4 .8 4 8.8 0 7.2-1.6 0-.8 1.6 0 2.4.7.5 1.5.7 2.1.4.1.5.8 1.4 1.9 2 0 0 .8.8.8 1.6h.8c0-.8.8-.8.8-1.6 1-.5 1.7-1.3 1.9-1.9.5.1 1.1-.1 1.7-.5.8-.8 1.6-2.4 0-2.4-4 1.6-4-6.4 0-7.2 1.6 0 2.4.8 2.4 2.4h.8c5.5-7.2-4.1-9.6-6.5-4z" fill="#edb92e"/><g fill="#edb92e"><path d="M130.7 305.1c.8-.1 1.6-.1 3.1.5 1.8 1.4 2.6 2.1 3.4 1.2 1.6-.2-2.6-2.1-6.3-5.7-5.4-5-5.7-8.2-6-10.6 1.6-.2 3.3.4 7.7 4 2.8 3.7 4.9 7.5 8.5 11.1.9.7 1.7.6 2.6 1.3.8-.1 6.4-.7 6.4-.7 1-1.3 3-1.4 3.8-.4h.1c1.4-1.8 3.1-1.1 4.2 1.2.1.8-.7.9-.7.9-.8-.7-1.6-.6-3 .2 0 1-1.1 2.5-2.4 2-.9-.7-5.6.6-6.4-.1 1 1.5 4.2 1.9 6.6 1.7h.4c2.4 0 3.6 1 2.6 5.3-.7.9-.7.9-.8.1-.1-.5-.4-.9-1.1-1.4-.7 1.5-2.9 1.7-3.1.2-.2-1.6-6-3.4-6.9-4.1 1.1 2.3 3.7 4.4 5.6 6.6 1.6 1.3 1.7 1.4.7 3.5.2 1.3-.2 2.8-1.5 3.8-.7.9-.8.1-.9-.7.5-.6.1-1.6-.5-2.6l-.6.3c-2.4.3-3.3-.4-2.7-2.9.5-2.5-2.2-5.4-2.3-6.2-.9-.7-1-1.5-1.1-2.3-.9-.7-5.1-2.7-6.6-1.7s-3.1 1.1-4.2-1.2c.1-.1.1-.2.2-.4-1.4-.5-2.7-.8-3.3-.1-.8.1-.8.1-.9-.7 1.4-2.4 3.7-2.7 5.4-2.1zM134.4 331.6c.1.3.2.7.3 1-.2-1.4-1-2.8-2.4-4.2-1.6-1.6-1.6-4.8 0-6.4 1.6-.8 2.4-2.4 4-4 .8 1.6 1.6 3.2 3.2 4 1.6 1.6 1.6 4.8 0 6.4s-2.4 4-2.4 4.8c0 .4-.2 1.2-.3 2.2.2-1.2.6-2.5 1.1-3.8 2.4-5.6 12-3.2 6.4 4h-.8c0-1.6-.8-2.4-2.4-2.4-4 .8-4 8.8 0 7.2 1.6 0 .8 1.6 0 2.4-.7.5-1.5.7-2.1.4-.1.5-.8 1.4-1.9 2 0 0-.8.8-.8 1.6h-.8c0-.8-.8-.8-.8-1.6-1-.5-1.7-1.3-1.9-1.9-.5.1-1.1-.1-1.7-.5-.8-.8-1.6-2.4 0-2.4 4 1.6 4-6.4 0-7.2-1.6 0-2.4.8-2.4 2.4h-.7c-5.6-7.2 4-9.6 6.4-4z"/></g><path d="M71.8 327c.8 0 .8-.8 0 0z" fill="#edb92e"/><g fill="#f5f5f5"><path d="M112.2 293.4L118 279l-13.2 3.3-13.2-3.3 5.8 14.4c.5 1.3.6 2.8.2 4.1l-14.3 48.8c-.9 3.1.6 6.5 3.6 7.8 4.2 1.8 10.5 3.9 17.9 3.9s13.7-2.1 17.9-3.9c3-1.3 4.6-4.6 3.6-7.8L112 297.6c-.4-1.4-.3-2.8.2-4.2z"/><path d="M81.8 217.8l-15-7.5c-2.8-1.4-4.2-4.5-3.4-7.5l.8-3.4c.6-2.4-1.2-4.6-3.6-4.6-1.1 0-2.2.5-2.9 1.4-7.8 9.7-12 21.9-12 34.3 3.2 16.3 1.9 42.3 0 69.6 0 0 13.7-2.7 26.2-20.8 2.3-3.3 6-5.3 10-5.5l-7.3 20.7c1.2-.3 3.6-1.5 4.3-2.3 0 1.2 0 2.2.6 3.3 1.2-.6 2.2-1.2 2.8-2.5.4 1.2.4 2.5 1.3 3.5.9-.5 2.3-1.9 2.8-3.3.5 1.6.7 2.8 2.1 3.5 2.9-4 7-8.8 11.5-13.7l-18.2-65.2zM109.6 283.1c4.5 4.9 8.6 9.7 11.5 13.7 1.4-.7 1.6-1.9 2.1-3.5.5 1.4 1.8 2.7 2.8 3.3 1-1 1-2.3 1.3-3.5.7 1.3 1.6 1.9 2.8 2.5.6-1.1.6-2.2.6-3.3.6.9 3.1 2 4.3 2.3l-7.3-20.7c4 .2 7.8 2.2 10 5.5 12.4 18.1 26.2 20.8 26.2 20.8-1.9-27.3-3.2-53.3 0-69.6 0-12.5-4.2-24.6-12-34.3-.7-.9-1.8-1.4-2.9-1.4-2.4 0-4.2 2.3-3.6 4.6l.8 3.4c.7 3-.7 6.1-3.4 7.5l-15 7.5-18.2 65.2z"/></g><g fill="#edb92e"><path d="M84.1 194.7h-8.2c-3.4 0-5.3 3.9-3.3 6.6 3.9-.6 7.8.5 11.5 3.3-1.1 1.4-3.5 2.4-6.6 3.3 3.3 1.4 6.6 1.7 9.9 0l-3.3-13.2zM122.6 207.9c3.3 1.7 6.6 1.4 9.9 0-3.1-.9-5.5-1.9-6.6-3.3 3.8-2.8 7.6-3.9 11.5-3.3 2-2.7.1-6.6-3.3-6.6h-8.2l-3.3 13.2z"/></g><g fill="#f5f5f5"><path d="M126.9 192.1l-13.9 2.3c-1 .2-1.9.8-2.3 1.7-2.7 4.7-4.6 9.6-5.9 14.7-1.4-5.4-3.2-10.5-5.9-14.7-.5-.9-1.3-1.6-2.3-1.7l-13.9-2.3c-1.8-.3-3.1 1.5-2.3 3.2l7.9 15.9-6.6 6.6h46l-6.6-6.6 7.9-15.9c1-1.6-.3-3.5-2.1-3.2z"/><circle cx="104.8" cy="166.5" r="4.9"/></g><ellipse cx="104.8" cy="178.3" rx="3.9" ry="2.7" fill="#0c4076"/><ellipse cx="85.3" cy="178.3" rx="3.9" ry="2.7" fill="#c6363c"/><g fill="#0c4076"><ellipse cx="65.8" cy="178.3" rx="3.9" ry="2.7"/><ellipse cx="143.7" cy="178.3" rx="3.9" ry="2.7"/></g><ellipse cx="124.2" cy="178.3" rx="3.9" ry="2.7" fill="#c6363c"/><g fill="#f5f5f5"><circle cx="127.7" cy="166.5" r="4.9"/><circle cx="145.7" cy="166.5" r="4.9"/><circle cx="82" cy="166.5" r="4.9"/><circle cx="63.9" cy="166.5" r="4.9"/></g><path d="M110.5 138.8c.6-1 .9-2.1.9-3.3 0-3.6-2.9-6.6-6.6-6.6s-6.6 2.9-6.6 6.6c0 1.2.3 2.3.9 3.3h11.4z" fill="#0c4076"/><path d="M104.8 285.2c-13.6 0-24.7-11.1-24.7-24.7v-44.4h49.4v44.4c0 13.7-11.1 24.7-24.7 24.7z" fill="#c6363c"/><path d="M127.9 217.8v42.8c0 12.7-10.3 23-23 23s-23-10.3-23-23v-42.8h46m3.3-3.3H78.5V260.6c0 14.5 11.8 26.3 26.3 26.3s26.3-11.8 26.3-26.3V214.5h.1z" fill="#a54b50"/><g fill="#fff"><path d="M127.9 242.9h-18.1v-25.2h-9.9v25.2H81.8v9.9h18.1v30.3c1.6.3 3.2.5 4.9.5 1.7 0 3.3-.2 4.9-.5v-30.3h18.1v-9.9h.1z"/><path d="M85.9 259.3c0 3.2 4 5.6 5.6 2.4.8-1.6 0-2.4-.8-2.4s-1.6 0-1.6 1.6c-3.2-1.6 3.2-5.6 6.4-.8 0 1.6-2.4 3.2-2.4 4s2.4 2.4 1.6 4c-3.2 4.8-9.6.8-6.4-.8 0 .8.8 1.6 1.6 1.6s1.6-1.6.8-2.4c-.8-3.2-5.6-.8-5.6 2.4.8 8 8.8 4.8 12.8 3.2v-16c-3.2-.8-12-4-12 3.2zM85.9 225.3c0 3.2 4 5.6 5.6 2.4.8-1.6 0-2.4-.8-2.4s-1.6 0-1.6 1.6c-3.2-1.6 3.2-5.6 6.4-.8 0 1.6-2.4 3.2-2.4 4s2.4 2.4 1.6 4c-3.2 4.8-9.6.8-6.4-.8 0 .8.8 1.6 1.6 1.6s1.6-1.6.8-2.4c-.8-3.2-5.6-.8-5.6 2.4.8 8 8.8 4.8 12.8 3.2v-16c-3.2-.8-12-4-12 3.2zM119.3 266.5c-.8.8 0 2.4.8 2.4s1.6-.8 1.6-1.6c3.2 1.6-3.2 5.6-6.4.8-.8-1.6 1.6-3.2 1.6-4s-2.4-2.4-2.4-4c3.2-4.8 9.6-.8 6.4.8 0-1.6-.8-1.6-1.6-1.6s-1.6.8-.8 2.4c1.6 3.2 5.6.8 5.6-2.4 0-7.2-8.8-4-12-3.2v16c4 1.6 12 4.8 12.8-3.2 0-3.2-4.8-5.6-5.6-2.4zM124.9 234.9c0-3.2-4.8-5.6-5.6-2.4-.8.8 0 2.4.8 2.4s1.6-.8 1.6-1.6c3.2 1.6-3.2 5.6-6.4.8-.8-1.6 1.6-3.2 1.6-4s-2.4-2.4-2.4-4c3.2-4.8 9.6-.8 6.4.8 0-1.6-.8-1.6-1.6-1.6s-1.6.8-.8 2.4c1.6 3.2 5.6.8 5.6-2.4 0-7.2-8.8-4-12-3.2v16c4 1.6 12 4.8 12.8-3.2z"/></g></svg>