<svg xmlns="http://www.w3.org/2000/svg" viewBox="0 0 512 512"><g fill="#41767f"><path d="M318.182 388.149l-25.07-28.248a8.827 8.827 0 01-1.059-10.24l5.65-9.799 5.65-9.799a9.03 9.03 0 019.446-4.237l36.988 7.592 15.713-9.004 11.917-35.928a8.952 8.952 0 018.386-6.003H408.4a8.952 8.952 0 018.386 6.003l11.917 35.928 15.713 9.004 36.988-7.592a9.029 9.029 0 019.445 4.237l5.65 9.799 5.65 9.799a8.827 8.827 0 01-1.059 10.24l-25.07 28.248v18.185l25.07 28.248a8.827 8.827 0 011.059 10.24l-5.65 9.799-5.65 9.799a9.03 9.03 0 01-9.445 4.237l-36.988-7.592-15.713 9.004-11.917 35.928A8.952 8.952 0 01408.4 512h-22.599a8.952 8.952 0 01-8.386-6.003l-11.917-35.928-15.713-9.004-36.988 7.592a9.031 9.031 0 01-9.446-4.237l-5.65-9.799-5.65-9.799a8.827 8.827 0 011.059-10.24l25.07-28.248v-18.185zM151.252 297.754l6.091 30.632a8.827 8.827 0 008.651 7.062h20.833a8.827 8.827 0 008.651-7.062l6.091-30.632 48.905-20.303 26.041 17.302a8.705 8.705 0 0011.123-1.059l7.415-7.327 7.327-7.415a8.704 8.704 0 001.059-11.123l-17.302-26.041 20.303-48.905 30.632-6.091a8.827 8.827 0 007.062-8.651v-20.833a8.827 8.827 0 00-7.062-8.651l-30.632-6.091-20.303-48.905 17.302-26.041a8.705 8.705 0 00-1.059-11.123l-7.327-7.415-7.415-7.327a8.705 8.705 0 00-11.123-1.059l-26.041 17.302-48.905-20.303-6.091-30.632a8.827 8.827 0 00-8.651-7.062h-20.833a8.827 8.827 0 00-8.651 7.062l-6.091 30.632-48.905 20.303-26.041-17.303a8.705 8.705 0 00-11.123 1.059l-7.415 7.327-7.327 7.415a8.705 8.705 0 00-1.059 11.123L66.684 93.66 46.38 142.566l-30.632 6.091a8.827 8.827 0 00-7.062 8.651v20.833a8.827 8.827 0 007.062 8.651l30.632 6.091 20.303 48.905-17.302 26.041a8.705 8.705 0 001.059 11.123l7.327 7.415 7.415 7.327a8.704 8.704 0 0011.123 1.059l26.041-17.302 48.906 20.303z"/></g><circle cx="176.411" cy="167.724" r="132.414" fill="#67b9cc"/><path d="M251.278 92.857c-26.72-26.882-65.772-37.431-102.393-27.657s-65.225 38.377-74.998 74.998.775 75.673 27.657 102.393a8.828 8.828 0 0012.483-12.483c-25.268-25.239-32.839-63.216-19.181-96.215s45.852-54.518 81.566-54.518 67.909 21.519 81.566 54.518 6.086 70.976-19.181 96.215a8.827 8.827 0 003.898 14.89 8.827 8.827 0 008.585-2.407c19.888-19.839 31.066-46.776 31.066-74.867s-11.18-55.028-31.068-74.867z" fill="#9fc9d3"/><circle cx="176.411" cy="167.724" r="26.483" fill="#41767f"/><circle cx="397.1" cy="397.241" r="79.448" fill="#67b9cc"/><path d="M397.1 450.207a52.965 52.965 0 01-37.437-90.403 8.827 8.827 0 0114.77 3.964 8.832 8.832 0 01-2.288 8.528 35.233 35.233 0 000 49.894c13.95 13.363 35.952 13.363 49.902 0a35.23 35.23 0 000-49.902 8.829 8.829 0 0112.482-12.492 52.967 52.967 0 0111.48 57.706c-8.191 19.786-27.493 32.693-48.909 32.705z" fill="#9fc9d3"/><path d="M397.1 406.069a8.74 8.74 0 01-8.827-8.827 8.83 8.83 0 01.706-3.354 10.198 10.198 0 011.854-2.913 9.243 9.243 0 0112.535 0 10.212 10.212 0 011.854 2.913 8.74 8.74 0 01-8.122 12.181z" fill="#41767f"/></svg>