<svg height="512" viewBox="0 0 512.056 512.056" width="512" xmlns="http://www.w3.org/2000/svg"><path clip-rule="evenodd" d="M103.198 169.225l47.862 39.014c2.541 2.132 2.249 1.781 2.949-1.752l7.184-36.561c.496-2.511.263-2.541 3.358-2.657 44.416-1.898 80.101-38.81 80.101-83.576 0-46.022-37.671-83.664-83.664-83.664H83.72C37.756.029.173 37.554.056 83.459v.438c.117 45.906 37.7 83.43 83.664 83.43h14.426c3.241 0 2.54-.146 5.052 1.898z" fill="#fdb440" fill-rule="evenodd"/><path clip-rule="evenodd" d="M140.489 156.726l-7.184 36.532-.088.438 17.842 14.543c2.541 2.132 2.249 1.781 2.949-1.752l7.184-36.561c.496-2.511.263-2.541 3.358-2.657 44.416-1.898 80.101-38.81 80.101-83.576 0-33.962-20.5-63.339-49.731-76.422 17.755 15.36 28.998 38.021 28.998 63.193 0 44.767-35.656 81.678-80.072 83.576-3.124.146-2.861.146-3.357 2.686z" fill="#fe9900" fill-rule="evenodd"/><path d="M182.277 115.393H62.431a7.726 7.726 0 110-15.452h119.846a7.725 7.725 0 017.726 7.726 7.725 7.725 0 01-7.726 7.726zM182.277 68.524H62.431a7.726 7.726 0 110-15.452h119.846c4.268 0 7.726 3.459 7.726 7.726s-3.458 7.726-7.726 7.726z" fill="#f8f2f0"/><path clip-rule="evenodd" d="M334.829 396.125c-1.519 5.14-.263 4.176-4.877 7.008l-33.67 20.617c-3.271 2.015-3.037 2.453-.088 4.234l35.393 21.697c5.373 3.271 4.497 1.957 6.892 7.593a90.519 90.519 0 0019.186 28.268c35.305 35.305 92.571 35.305 127.905 0 35.305-35.334 35.305-92.6 0-127.905-35.334-35.335-92.6-35.335-127.905 0a89.664 89.664 0 00-22.836 38.488z" fill="#f8f2f0" fill-rule="evenodd"/><path clip-rule="evenodd" d="M459.492 353.724c35.305 35.305 35.305 92.571 0 127.905-17.755 17.726-41 26.545-64.245 26.486 30.925 9.374 65.88 1.869 90.322-22.573 35.305-35.334 35.305-92.6 0-127.905-17.609-17.58-40.62-26.428-63.661-26.486 13.755 4.175 26.692 11.68 37.584 22.573z" fill="#eee1dc" fill-rule="evenodd"/><path clip-rule="evenodd" d="M285.068 288.924l52.476-12.615c7.972-1.927 5.957-2.336 13.345.642a117.504 117.504 0 0043.599 8.352c64.916 0 117.568-52.651 117.568-117.568 0-64.945-52.651-117.597-117.568-117.597-64.945 0-117.568 52.651-117.568 117.597 0 20.412 5.198 39.627 14.367 56.36 3.358 6.103 3.621 4.059 1.986 10.922l-12.002 49.906c-1.167 4.877-.554 5.023 3.797 4.001z" fill="#22a6fe" fill-rule="evenodd"/><path clip-rule="evenodd" d="M211.83 486.067c32.75-24.243 53.939-63.134 53.939-106.861 0-73.18-59.689-132.869-132.899-132.869C59.689 246.337 0 306.026 0 379.207c0 43.72 21.287 82.617 54.021 106.861 22.081 16.352 135.727 16.345 157.809-.001z" fill="#80d261" fill-rule="evenodd"/><path clip-rule="evenodd" d="M54.021 476.635v9.432c22.077 16.295 49.352 25.961 78.904 25.961s56.856-9.666 78.904-25.961v-9.432c0-26.253-17.842-33.612-36.123-38.751l-35.101 20.587c-5.957 3.855-9.374 3.855-15.331 0l-35.101-20.587c-18.28 5.14-36.152 12.498-36.152 38.751z" fill="#22a6fe" fill-rule="evenodd"/><path clip-rule="evenodd" d="M90.174 437.884l35.101 20.587c5.957 3.855 9.374 3.855 15.331 0l35.101-20.587c-3.271-.934-6.541-1.781-9.724-2.628-7.417-2.044-9.403-11.593-10.922-14.689a59.488 59.488 0 01-7.972 3.679c-10.25 3.796-18.076 3.796-28.297 0a59.963 59.963 0 01-8.001-3.679c-1.519 3.095-3.475 12.645-10.892 14.689-3.213.847-6.484 1.693-9.725 2.628z" fill="#fed1a3" fill-rule="evenodd"/><path clip-rule="evenodd" d="M76.419 369.902c0 17.872 14.864 39.802 34.371 50.666a59.837 59.837 0 008.001 3.679c10.221 3.796 18.047 3.796 28.297 0a59.612 59.612 0 007.972-3.679c19.536-10.863 34.371-32.794 34.371-50.666v-17.288c-22.865-1.606-19.449-19.069-35.247-15.01-12.206 3.154-16.704 4.731-21.259 4.731-4.526 0-9.053-1.577-21.259-4.731-15.769-4.059-12.382 13.404-35.247 15.01z" fill="#ffe5c1" fill-rule="evenodd"/><path clip-rule="evenodd" d="M132.926 288.895c-28.238.467-56.506 21.756-56.506 63.719 22.865-1.606 19.478-19.069 35.247-15.01 12.206 3.154 16.733 4.731 21.259 4.731 4.556 0 9.053-1.577 21.259-4.731 15.798-4.059 12.382 13.404 35.247 15.01 0-41.963-28.239-63.252-56.506-63.719z" fill="#6d80aa" fill-rule="evenodd"/><path clip-rule="evenodd" d="M456.514 152.726V209.057a9.72 9.72 0 01-9.724 9.724h-7.301c-17.434 31.363-48.797 53.878-85.737 59.251 12.703 4.702 26.399 7.271 40.737 7.271 64.916 0 117.568-52.651 117.568-117.568 0-64.945-52.651-117.597-117.568-117.597-5.811 0-11.506.438-17.054 1.226 39.919 14.776 69.647 50.578 75.692 94.001a9.672 9.672 0 013.387 7.361z" fill="#0182fc" fill-rule="evenodd"/><path clip-rule="evenodd" d="M353.314 147.323v59.251h20.529c8.323 0 9.754-.146 13.637 5.081 3.183 4.234 11.739 7.125 17.375 7.125h41.934a9.72 9.72 0 009.724-9.724v-56.331c0-5.344-4.351-9.724-9.724-9.724h-22.456c-2.073 0-2.92-.613-1.957-3.066 10.133-26.136-5.636-34.926-15.039-38.109-4.263-1.46-5.87-2.979-6.921 3.825-1.84 12.06-14.105 41.671-26.369 41.671h-20.733z" fill="#ffe5c1" fill-rule="evenodd"/><path clip-rule="evenodd" d="M404.855 218.781h41.934a9.72 9.72 0 009.724-9.724v-16.47c0-5.344-4.38 9.724-9.724 9.724h-36.123c-5.665 0-14.192-2.891-17.375-7.155-3.913-5.198-5.315-5.052-13.637-5.052h-16.032v16.47h10.221c8.323 0 9.754-.146 13.637 5.081 3.183 4.235 11.739 7.126 17.375 7.126z" fill="#fed1a3" fill-rule="evenodd"/><path clip-rule="evenodd" d="M327.791 147.323c0-4.439 3.65-8.06 8.089-8.06h19.653c4.439 0 8.089 3.621 8.089 8.06v59.251c0 4.439-3.65 8.089-8.089 8.089H335.88c-4.439 0-8.089-3.65-8.089-8.089z" fill="#fdb440" fill-rule="evenodd"/><path clip-rule="evenodd" d="M327.791 206.574c0 4.439 3.65 8.089 8.089 8.089h19.653c4.439 0 8.089-3.65 8.089-8.089v-16.47c0 4.439-3.65 8.089-8.089 8.089H335.88c-4.439 0-8.089-3.65-8.089-8.089z" fill="#fe9900" fill-rule="evenodd"/><path clip-rule="evenodd" d="M159.353 368.091c0 20.295-19.04 45.73-42.343 54.374-.467.175-.934.321-1.402.496 1.051.467 2.103.876 3.183 1.285 10.221 3.796 18.047 3.796 28.297 0a59.612 59.612 0 007.972-3.679c19.536-10.863 34.371-32.794 34.371-50.666v-17.288c-20.646-1.46-19.857-15.857-31.159-15.623.701 4.322 1.08 8.936 1.08 13.813v17.288z" fill="#fed1a3" fill-rule="evenodd"/><path clip-rule="evenodd" d="M120.982 290.355c17.93 6.337 33.144 21.902 37.291 46.636 11.301-.234 10.513 14.163 31.159 15.623 0-41.963-28.238-63.252-56.506-63.719-4.001.088-8.031.555-11.944 1.46z" fill="#49679b" fill-rule="evenodd"/><path clip-rule="evenodd" d="M188.935 490.857v8.819c8.118-3.767 15.769-8.352 22.894-13.608v-9.432c0-26.253-17.842-33.612-36.123-38.751l-17.463 10.25c13.288 3.503 30.692 6.891 30.692 42.722z" fill="#0182fc" fill-rule="evenodd"/><path clip-rule="evenodd" d="M110.79 420.567c-1.139 2.307-2.541 8.264-6.278 11.973a57.43 57.43 0 005.519 2.395c10.25 3.796 22.427 7.301 32.677 3.504 2.073-.467 2.92-1.606 4.234.934 2.57 4.935 6.308 7.505 11.214 8.79l17.55-10.279c-3.271-.934-6.541-1.781-9.724-2.628-7.417-2.044-9.403-11.593-10.922-14.689a59.488 59.488 0 01-7.972 3.679c-10.25 3.796-18.076 3.796-28.297 0a60.774 60.774 0 01-3.183-1.285 61.305 61.305 0 01-4.818-2.394z" fill="#ffbc85" fill-rule="evenodd"/><path clip-rule="evenodd" d="M107.812 248.625c63.339 10.133 111.727 65.004 111.727 131.205 0 25.318-7.096 48.972-19.361 69.121 7.009 5.782 11.652 14.251 11.652 27.684v9.432c32.765-24.208 53.995-63.076 53.995-106.938 0-73.385-59.514-132.869-132.899-132.869-8.586 0-16.967.818-25.114 2.365z" fill="#4fc122" fill-rule="evenodd"/><path clip-rule="evenodd" d="M384.063 392.738c-10.279 10.63-10.279 28.034 0 38.693l37.32 36.035 37.349-36.035c10.279-10.659 10.279-28.063 0-38.693-8.965-9.286-23.8-8.031-33.174.73-4.293 4.001-4.03 4.001-8.323 0-9.372-8.761-24.207-10.017-33.172-.73z" fill="#ffa5c7" fill-rule="evenodd"/><path clip-rule="evenodd" d="M442.263 391.161c10.25 10.63 6.337 24.238-3.942 34.867l-29.903 28.881 12.966 12.557 37.349-36.035c10.279-10.659 10.279-28.063 0-38.693-5.84-6.045-14.134-7.622-21.814-5.578a20.472 20.472 0 015.344 4.001z" fill="#fe76a8" fill-rule="evenodd"/></svg>