<svg xmlns="http://www.w3.org/2000/svg" viewBox="0 0 512 512"><path d="M506.24 371.7l-96-80c-4.768-4-11.424-4.8-17.024-2.208A16.02 16.02 0 00384 303.988v48h-26.784c-22.208 0-42.496-11.264-54.272-30.08l-103.616-165.76c-23.52-37.664-64.096-60.16-108.544-60.16H0v64h90.784c22.208 0 42.496 11.264 54.272 30.08l103.616 165.76c23.552 37.664 64.128 60.16 108.544 60.16H384v48a16.02 16.02 0 009.216 14.496 16.232 16.232 0 006.784 1.504c3.68 0 7.328-1.248 10.24-3.712l96-80c3.68-3.04 5.76-7.552 5.76-12.288s-2.08-9.248-5.76-12.288z" fill="#ffa000"/><path d="M506.24 115.7l-96-80c-4.768-3.968-11.424-4.8-17.024-2.176C387.584 36.116 384 41.78 384 47.988v48h-26.784c-44.448 0-85.024 22.496-108.544 60.16l-103.584 165.76c-11.776 18.816-32.096 30.08-54.304 30.08H0v64h90.784c44.416 0 84.992-22.496 108.544-60.16l103.584-165.76c11.808-18.816 32.096-30.08 54.304-30.08H384v48c0 6.208 3.584 11.872 9.216 14.496a16.232 16.232 0 006.784 1.504c3.68 0 7.328-1.28 10.24-3.712l96-80c3.68-3.04 5.76-7.552 5.76-12.288 0-4.736-2.08-9.248-5.76-12.288z" fill="#ffc107"/></svg>