<!DOCTYPE svg PUBLIC "-//W3C//DTD SVG 20010904//EN" "http://www.w3.org/TR/2001/REC-SVG-20010904/DTD/svg10.dtd">
<svg version="1.0"
  xmlns="http://www.w3.org/2000/svg" viewBox="0 0 5120 5120" preserveAspectRatio="xMidYMid meet">
  <g id="layer101" fill="#000000" stroke="none">
    <path d="M1523 4324 l-1023 -585 0 -1179 0 -1179 1026 -585 c564 -323 1029 -586 1034 -586 4 0 469 263 1034 585 l1026 586 0 1177 0 1177 -1029 588 c-566 323 -1033 587 -1037 586 -5 0 -469 -264 -1031 -585z m1992 -113 c512 -293 934 -536 938 -540 4 -4 -420 -252 -943 -551 -842 -481 -953 -542 -973 -532 -92 45 -1872 1071 -1870 1078 4 17 1877 1084 1898 1081 11 -2 439 -243 950 -536z m-1887 -1136 l922 -526 0 -1084 c0 -596 -3 -1086 -7 -1088 -5 -3 -433 239 -953 537 l-945 541 -3 1094 -2 1093 32 -20 c18 -11 448 -257 956 -547z m2852 -524 l0 -1089 -912 -522 c-502 -288 -932 -534 -955 -547 l-43 -25 0 1090 0 1091 953 545 c523 299 953 545 955 545 1 1 2 -489 2 -1088z"/>
  </g>
</svg>
