<svg id="svg" version="1.1" xmlns="http://www.w3.org/2000/svg" xmlns:xlink="http://www.w3.org/1999/xlink" width="400" height="400" viewBox="0, 0, 400,400"><g id="svgg"><path id="path0" d="M198.600 53.768 C 198.160 54.058,194.290 56.281,190.000 58.708 C 185.710 61.135,179.950 64.413,177.200 65.994 C 169.494 70.422,165.964 72.436,164.000 73.527 C 163.010 74.077,161.529 74.949,160.708 75.464 C 159.887 75.979,159.129 76.400,159.022 76.400 C 158.916 76.400,157.494 77.210,155.864 78.200 C 154.233 79.190,152.790 80.000,152.657 80.000 C 152.524 80.000,151.422 80.636,150.207 81.413 C 148.992 82.190,147.683 82.944,147.299 83.089 C 146.915 83.233,145.019 84.307,143.086 85.476 C 141.153 86.644,139.491 87.600,139.393 87.600 C 139.295 87.600,138.038 88.320,136.600 89.200 C 135.162 90.080,133.905 90.800,133.807 90.800 C 133.709 90.800,132.317 91.584,130.714 92.542 C 129.111 93.500,124.290 96.272,120.000 98.702 C 115.710 101.132,109.950 104.413,107.200 105.994 C 99.494 110.422,95.964 112.436,94.000 113.527 C 93.010 114.077,91.529 114.949,90.708 115.464 C 89.887 115.979,89.129 116.400,89.022 116.400 C 88.916 116.400,87.494 117.210,85.864 118.200 C 84.233 119.190,82.769 120.000,82.611 120.000 C 82.453 120.000,81.846 120.339,81.262 120.754 C 80.678 121.168,78.940 122.185,77.400 123.014 C 75.860 123.843,73.925 124.946,73.100 125.466 L 71.600 126.410 71.600 200.000 L 71.600 273.590 73.100 274.532 C 73.925 275.050,75.680 276.071,77.000 276.800 C 78.320 277.529,80.071 278.548,80.892 279.063 C 81.713 279.578,82.475 280.000,82.587 280.000 C 82.698 280.000,84.276 280.877,86.094 281.949 C 87.913 283.021,91.290 284.971,93.600 286.283 C 95.910 287.595,100.181 290.048,103.090 291.734 C 106.000 293.420,108.469 294.800,108.576 294.800 C 108.684 294.800,110.405 295.790,112.400 297.000 C 114.395 298.210,116.109 299.200,116.207 299.200 C 116.305 299.200,117.562 299.920,119.000 300.800 C 120.438 301.680,121.695 302.400,121.793 302.400 C 121.891 302.400,123.605 303.390,125.600 304.600 C 127.595 305.810,129.311 306.800,129.412 306.800 C 129.513 306.800,133.241 308.897,137.698 311.460 C 142.154 314.023,146.610 316.572,147.600 317.124 C 148.590 317.676,150.071 318.549,150.892 319.064 C 151.713 319.579,152.475 320.000,152.587 320.000 C 152.698 320.000,154.276 320.877,156.094 321.949 C 157.913 323.021,161.290 324.971,163.600 326.283 C 165.910 327.595,170.181 330.048,173.090 331.734 C 176.000 333.420,178.469 334.800,178.576 334.800 C 178.684 334.800,180.405 335.790,182.400 337.000 C 184.395 338.210,186.109 339.200,186.207 339.200 C 186.305 339.200,187.562 339.920,189.000 340.800 C 190.438 341.680,191.695 342.400,191.793 342.400 C 191.891 342.400,193.605 343.390,195.600 344.600 C 199.689 347.079,200.213 347.178,202.308 345.864 C 203.129 345.349,204.610 344.474,205.600 343.921 C 206.590 343.368,211.000 340.849,215.400 338.324 C 219.800 335.798,224.210 333.279,225.200 332.725 C 226.190 332.170,229.430 330.319,232.400 328.610 C 235.370 326.901,238.746 324.986,239.902 324.355 C 241.057 323.724,242.719 322.756,243.594 322.204 C 244.468 321.652,245.281 321.200,245.400 321.200 C 245.519 321.200,246.287 320.779,247.108 320.264 C 247.929 319.749,249.410 318.877,250.400 318.327 C 251.390 317.777,254.630 315.921,257.600 314.202 C 260.570 312.484,263.270 310.935,263.600 310.761 C 263.930 310.587,265.592 309.625,267.293 308.622 C 268.994 307.620,270.483 306.800,270.601 306.800 C 270.719 306.800,271.487 306.379,272.308 305.864 C 273.129 305.349,274.610 304.474,275.600 303.921 C 276.590 303.368,281.000 300.849,285.400 298.324 C 289.800 295.798,294.210 293.279,295.200 292.725 C 296.190 292.170,299.340 290.373,302.200 288.730 C 305.060 287.087,307.760 285.538,308.200 285.287 C 308.640 285.037,311.418 283.453,314.374 281.767 C 317.330 280.082,320.311 278.387,320.997 278.002 C 321.684 277.616,323.720 276.443,325.523 275.396 L 328.800 273.492 328.800 200.039 L 328.800 126.587 326.700 125.337 C 325.545 124.649,323.960 123.730,323.177 123.294 C 319.984 121.513,314.827 118.554,312.086 116.928 C 310.483 115.978,309.091 115.200,308.993 115.200 C 308.895 115.200,307.638 114.480,306.200 113.600 C 304.762 112.720,303.505 112.000,303.407 112.000 C 303.309 112.000,301.917 111.217,300.314 110.260 C 297.853 108.791,294.832 107.062,283.774 100.792 C 283.100 100.410,280.130 98.698,277.174 96.987 C 274.218 95.277,271.530 93.732,271.200 93.555 C 270.870 93.377,268.170 91.846,265.200 90.152 C 262.230 88.459,258.990 86.627,258.000 86.083 C 257.010 85.538,256.020 84.961,255.800 84.800 C 255.580 84.639,254.590 84.062,253.600 83.517 C 250.684 81.913,245.219 78.786,242.086 76.928 C 240.483 75.978,239.091 75.200,238.993 75.200 C 238.895 75.200,237.638 74.480,236.200 73.600 C 234.762 72.720,233.505 72.000,233.407 72.000 C 233.309 72.000,231.917 71.217,230.314 70.260 C 227.853 68.791,224.832 67.062,213.774 60.792 C 208.078 57.562,201.731 53.844,201.420 53.554 C 200.879 53.050,199.536 53.152,198.600 53.768 M199.109 131.033 C 199.218 197.561,199.191 200.000,198.354 200.000 C 198.117 200.000,197.446 200.339,196.862 200.753 C 196.278 201.167,194.757 202.070,193.483 202.758 C 192.208 203.446,188.788 205.386,185.883 207.068 C 182.977 208.751,179.790 210.577,178.800 211.127 C 177.810 211.677,176.329 212.549,175.508 213.064 C 174.687 213.579,173.929 214.000,173.824 214.000 C 173.718 214.000,171.981 214.990,169.964 216.200 C 167.948 217.410,166.227 218.400,166.141 218.400 C 166.055 218.400,163.783 219.677,161.092 221.238 C 158.401 222.799,153.950 225.349,151.200 226.904 C 148.450 228.459,144.889 230.512,143.286 231.466 C 141.683 232.419,140.291 233.200,140.193 233.200 C 140.095 233.200,138.838 233.920,137.400 234.800 C 135.962 235.680,134.705 236.400,134.607 236.400 C 134.509 236.400,133.094 237.210,131.464 238.200 C 129.833 239.190,128.369 240.000,128.211 240.000 C 128.053 240.000,127.446 240.339,126.862 240.753 C 126.278 241.167,124.757 242.070,123.483 242.758 C 122.208 243.446,118.788 245.386,115.883 247.068 C 112.977 248.751,109.790 250.577,108.800 251.127 C 107.810 251.677,106.329 252.549,105.508 253.064 C 104.687 253.579,103.929 254.000,103.824 254.000 C 103.718 254.000,101.981 254.990,99.964 256.200 C 97.948 257.410,96.229 258.400,96.145 258.400 C 96.062 258.400,94.240 259.414,92.097 260.653 C 89.953 261.892,86.529 263.872,84.486 265.053 C 82.443 266.234,80.598 267.200,80.385 267.200 C 80.136 267.200,80.034 242.794,80.099 199.147 L 80.200 131.095 81.400 130.447 C 82.060 130.091,83.410 129.326,84.400 128.746 C 85.390 128.166,86.830 127.337,87.600 126.905 C 88.370 126.473,92.600 124.051,97.000 121.523 C 101.400 118.995,106.080 116.334,107.400 115.610 C 108.720 114.886,109.980 114.162,110.200 114.001 C 110.420 113.839,111.410 113.262,112.400 112.717 C 113.390 112.173,116.630 110.320,119.600 108.600 C 122.570 106.880,125.810 105.027,126.800 104.483 C 127.790 103.938,130.490 102.409,132.800 101.086 C 135.110 99.762,137.540 98.374,138.200 98.002 C 138.860 97.629,142.252 95.676,145.737 93.662 C 149.223 91.648,152.151 90.000,152.245 90.000 C 152.339 90.000,153.087 89.579,153.908 89.064 C 154.729 88.549,156.210 87.676,157.200 87.124 C 158.190 86.572,162.600 84.051,167.000 81.523 C 171.400 78.995,176.080 76.334,177.400 75.610 C 178.720 74.886,179.980 74.162,180.200 74.001 C 180.420 73.839,181.410 73.262,182.400 72.717 C 183.390 72.173,186.598 70.339,189.528 68.642 C 192.459 66.945,195.609 65.124,196.528 64.596 C 197.448 64.068,198.380 63.688,198.600 63.751 C 198.864 63.827,199.037 86.693,199.109 131.033 M203.922 64.863 C 205.175 65.558,206.871 66.548,207.692 67.063 C 208.513 67.578,209.271 68.000,209.378 68.000 C 209.485 68.000,211.205 68.990,213.200 70.200 C 215.195 71.410,216.909 72.400,217.007 72.400 C 217.105 72.400,218.362 73.120,219.800 74.000 C 221.238 74.880,222.505 75.600,222.617 75.600 C 222.728 75.600,225.188 76.972,228.084 78.649 C 230.980 80.325,233.900 82.008,234.574 82.387 C 235.849 83.104,243.376 87.409,253.000 92.925 C 256.080 94.690,260.670 97.304,263.200 98.733 C 265.730 100.162,269.111 102.112,270.714 103.066 C 272.317 104.019,273.709 104.800,273.807 104.800 C 273.905 104.800,275.162 105.520,276.600 106.400 C 278.038 107.280,279.295 108.000,279.393 108.000 C 279.491 108.000,281.205 108.990,283.200 110.200 C 285.195 111.410,286.909 112.400,287.007 112.400 C 287.105 112.400,288.362 113.120,289.800 114.000 C 291.238 114.880,292.505 115.600,292.617 115.600 C 292.728 115.600,295.200 116.979,298.110 118.664 C 301.019 120.349,304.210 122.177,305.200 122.727 C 306.190 123.277,307.630 124.120,308.400 124.601 C 309.795 125.471,312.259 126.867,317.200 129.587 L 319.800 131.018 319.901 199.109 C 319.957 236.559,319.867 267.199,319.701 267.198 C 319.536 267.197,317.330 266.014,314.800 264.570 C 312.270 263.126,309.480 261.533,308.600 261.030 C 307.720 260.528,304.660 258.773,301.800 257.130 C 298.940 255.487,296.240 253.938,295.800 253.687 C 295.360 253.437,292.570 251.846,289.600 250.152 C 286.630 248.459,283.390 246.623,282.400 246.073 C 281.410 245.523,279.929 244.651,279.108 244.136 C 278.287 243.621,277.525 243.200,277.413 243.200 C 277.302 243.200,275.724 242.324,273.906 241.253 C 270.487 239.240,260.613 233.567,257.800 232.000 C 256.920 231.510,255.030 230.428,253.600 229.595 C 252.170 228.763,248.390 226.597,245.200 224.783 C 237.306 220.293,237.655 220.492,231.800 217.129 C 228.940 215.487,226.240 213.938,225.800 213.687 C 225.360 213.437,222.570 211.846,219.600 210.152 C 216.630 208.459,213.390 206.627,212.400 206.083 C 211.410 205.538,210.420 204.959,210.200 204.796 C 209.980 204.633,208.540 203.818,207.000 202.986 C 205.460 202.153,203.435 200.952,202.500 200.317 L 200.800 199.162 200.800 131.647 C 200.800 94.515,200.920 64.013,201.067 63.867 C 201.448 63.486,201.418 63.475,203.922 64.863 M202.740 202.553 C 205.172 204.008,215.449 209.890,218.400 211.516 C 219.390 212.061,220.380 212.637,220.600 212.796 C 220.820 212.955,221.990 213.621,223.200 214.276 C 224.410 214.932,227.830 216.876,230.800 218.598 C 233.770 220.319,237.001 222.174,237.979 222.721 C 238.957 223.267,240.667 224.253,241.779 224.911 C 242.891 225.569,244.700 226.599,245.800 227.200 C 249.610 229.282,251.812 230.541,254.307 232.067 C 255.686 232.910,256.898 233.600,257.000 233.600 C 257.102 233.600,258.362 234.320,259.800 235.200 C 261.238 236.080,262.498 236.800,262.600 236.800 C 262.702 236.800,263.962 237.520,265.400 238.400 C 266.838 239.280,268.098 240.000,268.201 240.000 C 268.305 240.000,269.876 240.876,271.694 241.947 C 275.422 244.142,285.667 250.010,288.400 251.516 C 289.390 252.061,290.380 252.637,290.600 252.796 C 290.820 252.955,291.990 253.621,293.200 254.276 C 294.410 254.932,297.818 256.870,300.774 258.583 C 303.730 260.296,306.790 262.056,307.574 262.494 C 308.358 262.932,310.260 264.026,311.800 264.925 C 313.340 265.824,315.491 267.037,316.580 267.621 C 319.652 269.267,320.051 268.932,304.800 277.495 C 304.030 277.927,299.710 280.409,295.200 283.010 C 290.690 285.612,286.013 288.273,284.807 288.923 C 283.601 289.574,281.940 290.533,281.115 291.053 C 280.291 291.574,279.525 292.000,279.415 292.000 C 279.304 292.000,278.086 292.687,276.707 293.526 C 275.328 294.365,273.930 295.174,273.600 295.323 C 273.270 295.473,272.647 295.821,272.215 296.097 C 270.976 296.891,268.787 298.170,266.400 299.496 C 265.190 300.168,259.250 303.555,253.200 307.023 C 247.150 310.491,240.850 314.086,239.200 315.011 C 234.781 317.488,234.148 317.849,225.200 323.010 C 220.690 325.612,216.013 328.273,214.807 328.923 C 213.601 329.574,211.940 330.533,211.115 331.053 C 210.291 331.574,209.525 332.000,209.415 332.000 C 209.245 332.000,205.169 334.361,203.200 335.600 C 201.173 336.876,199.874 337.314,199.254 336.931 C 198.894 336.710,197.790 336.076,196.800 335.523 C 194.477 334.226,178.587 325.159,175.200 323.197 C 173.770 322.369,171.958 321.332,171.174 320.894 C 170.390 320.456,167.330 318.697,164.374 316.985 C 161.418 315.273,158.190 313.427,157.200 312.883 C 156.210 312.338,153.510 310.809,151.200 309.485 C 148.890 308.161,146.190 306.625,145.200 306.072 C 144.210 305.519,142.272 304.376,140.893 303.533 C 139.514 302.690,138.296 302.000,138.185 302.000 C 138.075 302.000,137.309 301.574,136.485 301.053 C 135.660 300.533,133.999 299.574,132.793 298.922 C 131.587 298.270,125.740 294.950,119.800 291.545 C 113.860 288.139,107.747 284.643,106.214 283.776 C 104.682 282.909,102.333 281.570,100.993 280.800 C 99.653 280.030,94.645 277.171,89.863 274.446 C 80.174 268.925,80.453 269.263,84.010 267.337 C 85.435 266.565,87.140 265.606,87.800 265.206 C 88.460 264.806,89.630 264.126,90.400 263.695 C 91.170 263.264,95.580 260.748,100.200 258.104 C 104.820 255.460,109.242 252.937,110.026 252.497 C 110.810 252.057,113.817 250.327,116.708 248.653 C 119.600 246.979,122.994 245.052,124.252 244.372 C 125.509 243.692,127.179 242.700,127.962 242.168 C 128.745 241.635,129.518 241.200,129.679 241.200 C 129.840 241.200,131.605 240.210,133.600 239.000 C 135.595 237.790,137.309 236.800,137.407 236.800 C 137.505 236.800,138.762 236.080,140.200 235.200 C 141.638 234.320,142.886 233.600,142.974 233.600 C 143.062 233.600,144.504 232.790,146.178 231.800 C 147.853 230.810,149.289 230.000,149.371 230.000 C 149.452 230.000,150.703 229.280,152.152 228.400 C 153.600 227.520,154.882 226.800,155.001 226.800 C 155.119 226.800,155.887 226.379,156.708 225.864 C 157.529 225.349,159.010 224.474,160.000 223.920 C 160.990 223.365,165.580 220.749,170.200 218.104 C 174.820 215.460,179.242 212.937,180.026 212.497 C 180.810 212.057,183.817 210.327,186.708 208.653 C 189.600 206.979,192.994 205.052,194.252 204.372 C 195.509 203.692,197.179 202.700,197.962 202.168 C 199.798 200.920,200.045 200.940,202.740 202.553 " stroke="none" fill="#060606" fill-rule="evenodd"></path><path id="path1" d="M0.000 200.000 L 0.000 400.000 200.000 400.000 L 400.000 400.000 400.000 200.000 L 400.000 0.000 200.000 0.000 L 0.000 0.000 0.000 200.000 M203.964 54.600 C 206.012 55.810,207.761 56.800,207.852 56.800 C 207.942 56.800,208.691 57.226,209.515 57.747 C 210.340 58.267,212.001 59.224,213.207 59.873 C 214.413 60.522,217.818 62.458,220.774 64.175 C 223.730 65.892,226.790 67.654,227.574 68.089 C 228.358 68.525,230.014 69.493,231.252 70.241 C 232.491 70.988,233.613 71.600,233.745 71.600 C 233.878 71.600,235.162 72.320,236.600 73.200 C 238.038 74.080,239.295 74.800,239.393 74.800 C 239.491 74.800,241.205 75.790,243.200 77.000 C 245.195 78.210,246.909 79.200,247.007 79.200 C 247.105 79.200,248.362 79.920,249.800 80.800 C 251.238 81.680,252.498 82.400,252.600 82.400 C 252.768 82.400,257.331 85.059,258.800 86.012 C 259.130 86.227,259.760 86.564,260.200 86.762 C 260.640 86.960,263.048 88.310,265.550 89.761 C 268.053 91.212,270.162 92.400,270.236 92.400 C 270.311 92.400,272.005 93.390,274.000 94.600 C 275.995 95.810,277.715 96.800,277.822 96.800 C 277.929 96.800,278.691 97.226,279.515 97.747 C 280.340 98.267,282.001 99.224,283.207 99.873 C 284.413 100.522,287.818 102.458,290.774 104.175 C 293.730 105.892,296.790 107.654,297.574 108.089 C 298.358 108.525,300.014 109.493,301.252 110.241 C 302.491 110.988,303.613 111.600,303.745 111.600 C 303.878 111.600,305.162 112.320,306.600 113.200 C 308.038 114.080,309.295 114.800,309.393 114.800 C 309.491 114.800,311.205 115.790,313.200 117.000 C 315.195 118.210,316.909 119.200,317.007 119.200 C 317.105 119.200,318.362 119.920,319.800 120.800 C 321.238 121.680,322.498 122.400,322.600 122.400 C 322.702 122.400,323.962 123.120,325.400 124.000 C 326.838 124.880,328.172 125.600,328.364 125.600 C 328.557 125.600,328.824 125.885,328.957 126.233 C 329.308 127.146,329.245 273.320,328.894 273.813 C 328.503 274.363,322.978 277.600,322.430 277.600 C 322.194 277.600,322.000 277.741,322.000 277.912 C 322.000 278.084,321.505 278.433,320.900 278.688 C 320.295 278.943,318.900 279.700,317.800 280.370 C 316.700 281.041,315.530 281.715,315.200 281.869 C 314.870 282.022,313.472 282.835,312.093 283.674 C 310.714 284.513,309.502 285.200,309.400 285.200 C 309.298 285.200,308.038 285.920,306.600 286.800 C 305.162 287.680,303.896 288.400,303.786 288.400 C 303.676 288.400,302.252 289.210,300.621 290.200 C 298.990 291.190,297.463 292.000,297.228 292.000 C 296.993 292.000,296.800 292.180,296.800 292.400 C 296.800 292.620,296.616 292.800,296.390 292.800 C 296.165 292.800,293.600 294.179,290.690 295.865 C 281.997 300.901,278.234 303.046,277.600 303.328 C 277.270 303.475,276.730 303.771,276.400 303.986 C 274.908 304.959,270.366 307.600,270.185 307.600 C 270.075 307.600,269.313 308.021,268.492 308.536 C 267.671 309.051,266.190 309.923,265.200 310.473 C 264.210 311.023,261.019 312.851,258.110 314.536 C 255.200 316.221,252.635 317.600,252.410 317.600 C 252.184 317.600,252.000 317.741,252.000 317.912 C 252.000 318.084,251.505 318.433,250.900 318.688 C 250.295 318.943,248.900 319.700,247.800 320.370 C 246.700 321.041,245.530 321.715,245.200 321.869 C 244.870 322.022,243.472 322.835,242.093 323.674 C 240.714 324.513,239.502 325.200,239.400 325.200 C 239.298 325.200,238.038 325.920,236.600 326.800 C 235.162 327.680,233.896 328.400,233.786 328.400 C 233.676 328.400,232.252 329.210,230.621 330.200 C 228.990 331.190,227.463 332.000,227.228 332.000 C 226.993 332.000,226.800 332.180,226.800 332.400 C 226.800 332.620,226.616 332.800,226.390 332.800 C 226.165 332.800,223.600 334.179,220.690 335.865 C 211.997 340.901,208.234 343.046,207.600 343.328 C 207.270 343.475,206.730 343.771,206.400 343.986 C 206.070 344.201,204.548 345.123,203.017 346.035 L 200.234 347.693 198.817 346.954 C 198.038 346.548,196.272 345.537,194.893 344.708 C 193.514 343.879,192.277 343.200,192.144 343.200 C 192.010 343.200,190.567 342.390,188.936 341.400 C 187.306 340.410,185.894 339.600,185.800 339.600 C 185.705 339.600,183.995 338.610,182.000 337.400 C 180.005 336.190,178.291 335.200,178.193 335.200 C 178.095 335.200,176.886 334.513,175.507 333.674 C 174.128 332.835,172.730 332.023,172.400 331.871 C 172.070 331.718,171.170 331.211,170.400 330.743 C 169.630 330.276,168.047 329.375,166.883 328.742 C 165.718 328.109,162.388 326.214,159.483 324.532 C 156.577 322.849,153.390 321.023,152.400 320.473 C 151.410 319.923,149.929 319.051,149.108 318.536 C 148.287 318.021,147.517 317.600,147.396 317.600 C 147.275 317.600,145.551 316.610,143.565 315.400 C 141.579 314.190,139.870 313.200,139.767 313.200 C 139.665 313.200,137.200 311.821,134.290 310.136 C 131.381 308.451,128.190 306.623,127.200 306.073 C 126.210 305.523,124.729 304.651,123.908 304.136 C 123.087 303.621,122.328 303.200,122.219 303.200 C 122.111 303.200,120.653 302.390,118.978 301.400 C 117.304 300.410,115.865 299.600,115.781 299.600 C 115.697 299.600,113.995 298.610,112.000 297.400 C 110.005 296.190,108.291 295.200,108.193 295.200 C 108.095 295.200,106.886 294.513,105.507 293.674 C 104.128 292.835,102.730 292.023,102.400 291.871 C 102.070 291.718,101.170 291.211,100.400 290.743 C 99.630 290.276,98.047 289.375,96.883 288.742 C 95.718 288.109,92.388 286.214,89.483 284.532 C 86.577 282.849,83.390 281.027,82.400 280.483 C 81.410 279.938,80.420 279.359,80.200 279.196 C 79.980 279.033,78.540 278.218,77.000 277.386 C 75.460 276.553,73.435 275.352,72.500 274.717 L 70.800 273.562 70.800 199.976 L 70.800 126.390 72.900 125.055 C 74.897 123.785,77.727 122.168,80.800 120.541 C 81.570 120.134,82.290 119.710,82.400 119.600 C 82.510 119.490,83.230 119.047,84.000 118.616 C 84.770 118.185,86.120 117.422,87.000 116.921 C 87.880 116.420,88.861 115.885,89.180 115.732 C 89.499 115.578,90.891 114.766,92.273 113.926 C 93.655 113.087,94.876 112.400,94.986 112.400 C 95.096 112.400,96.362 111.680,97.800 110.800 C 99.238 109.920,100.495 109.200,100.593 109.200 C 100.691 109.200,102.405 108.210,104.400 107.000 C 106.395 105.790,108.104 104.800,108.196 104.800 C 108.289 104.800,109.318 104.234,110.482 103.543 C 111.647 102.852,113.320 101.896,114.200 101.418 C 115.080 100.940,118.218 99.143,121.174 97.426 C 124.130 95.708,127.190 93.946,127.974 93.511 C 128.758 93.075,130.414 92.107,131.652 91.359 C 132.891 90.612,134.021 90.000,134.162 90.000 C 134.304 90.000,135.560 89.280,136.953 88.400 C 138.346 87.520,139.599 86.800,139.736 86.800 C 139.874 86.800,141.114 86.110,142.493 85.267 C 144.976 83.748,148.098 81.972,150.800 80.541 C 151.570 80.134,152.290 79.710,152.400 79.600 C 152.510 79.490,153.230 79.047,154.000 78.616 C 154.770 78.185,156.120 77.422,157.000 76.921 C 157.880 76.420,158.861 75.885,159.180 75.732 C 159.499 75.578,160.891 74.766,162.273 73.926 C 163.655 73.087,164.876 72.400,164.986 72.400 C 165.096 72.400,166.362 71.680,167.800 70.800 C 169.238 69.920,170.495 69.200,170.593 69.200 C 170.691 69.200,172.405 68.210,174.400 67.000 C 176.395 65.790,178.115 64.800,178.222 64.800 C 178.329 64.800,179.132 64.348,180.006 63.796 C 180.881 63.244,182.595 62.252,183.816 61.591 C 185.036 60.931,188.380 59.033,191.246 57.374 C 201.461 51.458,199.406 51.906,203.964 54.600 M197.380 64.751 C 197.171 64.944,195.920 65.693,194.600 66.414 C 193.280 67.136,191.529 68.148,190.708 68.663 C 189.887 69.178,189.110 69.600,188.980 69.600 C 188.850 69.600,187.410 70.410,185.779 71.400 C 184.148 72.390,182.717 73.200,182.599 73.200 C 182.481 73.200,181.713 73.621,180.892 74.136 C 180.071 74.651,178.590 75.523,177.600 76.073 C 176.610 76.623,173.382 78.473,170.426 80.185 C 164.679 83.513,163.844 83.989,159.200 86.585 C 157.550 87.507,152.510 90.394,148.000 93.001 C 143.490 95.607,138.813 98.273,137.607 98.923 C 136.401 99.574,134.740 100.533,133.915 101.053 C 133.091 101.574,132.329 102.000,132.222 102.000 C 132.115 102.000,130.395 102.990,128.400 104.200 C 126.405 105.410,124.691 106.400,124.593 106.400 C 124.495 106.400,123.238 107.120,121.800 108.000 C 120.362 108.880,119.086 109.600,118.965 109.600 C 118.843 109.600,117.410 110.410,115.779 111.400 C 114.148 112.390,112.717 113.200,112.599 113.200 C 112.481 113.200,111.713 113.621,110.892 114.136 C 110.071 114.651,108.590 115.523,107.600 116.073 C 106.610 116.623,103.382 118.473,100.426 120.185 C 94.054 123.875,92.899 124.530,90.000 126.100 C 88.790 126.755,86.135 128.282,84.100 129.495 L 80.400 131.699 80.400 199.254 L 80.400 266.810 81.992 265.805 C 82.868 265.252,83.675 264.800,83.785 264.800 C 83.896 264.800,85.162 264.080,86.600 263.200 C 88.038 262.320,89.323 261.600,89.456 261.600 C 89.590 261.600,91.033 260.790,92.664 259.800 C 94.294 258.810,95.706 258.000,95.800 258.000 C 95.895 258.000,97.605 257.010,99.600 255.800 C 101.595 254.590,103.305 253.600,103.400 253.600 C 103.494 253.600,104.906 252.790,106.536 251.800 C 108.167 250.810,109.631 250.000,109.789 250.000 C 109.947 250.000,110.554 249.667,111.138 249.261 C 111.722 248.855,113.190 247.984,114.400 247.327 C 116.304 246.292,118.947 244.775,129.400 238.710 C 130.500 238.072,131.895 237.341,132.500 237.087 C 133.105 236.833,133.600 236.484,133.600 236.312 C 133.600 236.141,133.793 236.000,134.028 236.000 C 134.263 236.000,135.790 235.190,137.421 234.200 C 139.052 233.210,140.476 232.400,140.586 232.400 C 140.696 232.400,141.962 231.680,143.400 230.800 C 144.838 229.920,146.095 229.200,146.193 229.200 C 146.291 229.200,148.005 228.210,150.000 227.000 C 151.995 225.790,153.709 224.800,153.807 224.800 C 153.905 224.800,155.162 224.080,156.600 223.200 C 158.038 222.320,159.323 221.600,159.456 221.600 C 159.590 221.600,161.033 220.790,162.664 219.800 C 164.294 218.810,165.706 218.000,165.800 218.000 C 165.895 218.000,167.605 217.010,169.600 215.800 C 171.595 214.590,173.305 213.600,173.400 213.600 C 173.494 213.600,174.906 212.790,176.536 211.800 C 178.167 210.810,179.631 210.000,179.789 210.000 C 179.947 210.000,180.554 209.667,181.138 209.261 C 181.722 208.855,183.190 207.984,184.400 207.327 C 187.760 205.502,197.335 199.951,197.900 199.501 C 198.477 199.041,198.656 64.400,198.080 64.400 C 197.904 64.400,197.589 64.558,197.380 64.751 M201.600 131.752 L 201.600 199.190 203.100 200.132 C 203.925 200.650,205.680 201.671,207.000 202.400 C 208.320 203.129,210.030 204.116,210.800 204.592 C 211.570 205.069,212.470 205.583,212.800 205.734 C 213.130 205.886,214.120 206.423,215.000 206.928 C 215.880 207.432,217.410 208.301,218.400 208.859 C 219.390 209.417,222.630 211.280,225.600 213.000 C 228.570 214.720,231.810 216.577,232.800 217.127 C 233.790 217.677,235.271 218.549,236.092 219.064 C 236.913 219.579,237.700 220.000,237.841 220.000 C 237.983 220.000,239.433 220.810,241.064 221.800 C 242.694 222.790,244.106 223.600,244.200 223.600 C 244.295 223.600,246.005 224.590,248.000 225.800 C 249.995 227.010,251.705 228.000,251.800 228.000 C 251.894 228.000,253.306 228.810,254.936 229.800 C 256.567 230.790,257.995 231.600,258.110 231.600 C 258.224 231.600,259.503 232.320,260.952 233.200 C 262.400 234.080,263.672 234.800,263.779 234.800 C 263.885 234.800,265.605 235.790,267.600 237.000 C 269.595 238.210,271.309 239.200,271.407 239.200 C 271.505 239.200,272.762 239.920,274.200 240.800 C 275.638 241.680,276.898 242.400,277.000 242.400 C 277.102 242.400,278.314 243.087,279.693 243.926 C 281.072 244.765,282.470 245.578,282.800 245.731 C 283.130 245.885,284.120 246.423,285.000 246.928 C 285.880 247.433,287.680 248.449,289.000 249.186 C 290.320 249.923,292.071 250.948,292.892 251.463 C 293.713 251.978,294.471 252.400,294.578 252.400 C 294.685 252.400,296.405 253.390,298.400 254.600 C 300.395 255.810,302.109 256.800,302.207 256.800 C 302.305 256.800,303.562 257.520,305.000 258.400 C 306.438 259.280,307.723 260.000,307.856 260.000 C 307.990 260.000,309.433 260.810,311.064 261.800 C 312.694 262.790,314.109 263.600,314.207 263.600 C 314.305 263.600,315.562 264.320,317.000 265.200 C 318.438 266.080,319.701 266.800,319.807 266.800 C 320.476 266.800,319.971 132.099,319.300 131.513 C 318.915 131.177,317.520 130.311,316.200 129.588 C 314.880 128.865,313.129 127.852,312.308 127.337 C 311.487 126.822,310.719 126.400,310.601 126.400 C 310.483 126.400,309.052 125.590,307.421 124.600 C 305.790 123.610,304.349 122.800,304.218 122.800 C 304.087 122.800,302.840 122.080,301.447 121.200 C 300.054 120.320,298.801 119.600,298.664 119.600 C 298.526 119.600,297.286 118.913,295.907 118.074 C 294.528 117.235,293.130 116.426,292.800 116.277 C 292.470 116.127,291.930 115.829,291.600 115.614 C 289.753 114.410,285.543 112.000,285.286 112.000 C 285.121 112.000,284.359 111.575,283.593 111.056 C 282.827 110.536,281.210 109.578,280.000 108.926 C 278.790 108.273,274.110 105.610,269.600 103.008 C 265.090 100.405,260.410 97.733,259.200 97.070 C 257.990 96.408,256.329 95.446,255.508 94.933 C 254.687 94.420,253.929 94.000,253.822 94.000 C 253.715 94.000,251.995 93.010,250.000 91.800 C 248.005 90.590,246.291 89.600,246.193 89.600 C 246.095 89.600,244.838 88.880,243.400 88.000 C 241.962 87.120,240.696 86.400,240.586 86.400 C 240.476 86.400,239.052 85.590,237.421 84.600 C 235.790 83.610,234.349 82.800,234.218 82.800 C 234.087 82.800,232.840 82.080,231.447 81.200 C 230.054 80.320,228.801 79.600,228.664 79.600 C 228.446 79.600,224.077 77.079,222.400 75.986 C 222.070 75.771,221.530 75.473,221.200 75.323 C 220.870 75.174,219.472 74.365,218.093 73.526 C 216.714 72.687,215.474 72.000,215.336 72.000 C 215.199 72.000,213.946 71.280,212.553 70.400 C 211.160 69.520,209.905 68.800,209.765 68.800 C 209.626 68.800,208.030 67.906,206.220 66.812 C 204.411 65.719,202.631 64.710,202.265 64.570 C 201.647 64.332,201.600 69.047,201.600 131.752 M197.600 202.960 C 196.830 203.463,195.390 204.323,194.400 204.873 C 193.410 205.423,190.219 207.251,187.310 208.936 C 184.400 210.621,181.928 212.000,181.817 212.000 C 181.705 212.000,180.486 212.690,179.107 213.533 C 177.728 214.376,175.790 215.517,174.800 216.069 C 173.810 216.621,170.619 218.451,167.710 220.136 C 164.800 221.821,162.331 223.200,162.224 223.200 C 162.116 223.200,160.395 224.190,158.400 225.400 C 156.405 226.610,154.685 227.600,154.578 227.600 C 154.471 227.600,153.713 228.021,152.892 228.536 C 152.071 229.051,150.590 229.923,149.600 230.473 C 148.610 231.023,145.419 232.851,142.510 234.536 C 139.600 236.221,137.035 237.600,136.810 237.600 C 136.584 237.600,136.400 237.780,136.400 238.000 C 136.400 238.220,136.198 238.400,135.951 238.400 C 135.704 238.400,134.167 239.210,132.536 240.200 C 130.906 241.190,129.484 242.000,129.378 242.000 C 129.271 242.000,128.513 242.421,127.692 242.936 C 126.871 243.451,125.390 244.323,124.400 244.873 C 123.410 245.423,120.219 247.251,117.310 248.936 C 114.400 250.621,111.928 252.000,111.817 252.000 C 111.705 252.000,110.486 252.690,109.107 253.533 C 107.728 254.376,105.790 255.517,104.800 256.069 C 103.810 256.621,100.619 258.451,97.710 260.136 C 94.800 261.821,92.331 263.200,92.224 263.200 C 92.116 263.200,90.447 264.148,88.514 265.306 C 86.581 266.465,84.327 267.765,83.503 268.195 C 82.346 268.801,82.119 269.080,82.503 269.429 C 83.059 269.934,89.127 273.600,89.407 273.600 C 89.505 273.600,90.762 274.320,92.200 275.200 C 93.638 276.080,94.931 276.800,95.073 276.800 C 95.216 276.800,96.632 277.610,98.221 278.600 C 99.809 279.590,101.309 280.400,101.554 280.400 C 101.799 280.400,102.000 280.541,102.000 280.712 C 102.000 280.884,102.495 281.235,103.100 281.493 C 103.705 281.751,104.920 282.377,105.800 282.885 C 108.912 284.683,112.210 286.606,113.000 287.084 C 113.440 287.351,114.070 287.698,114.400 287.855 C 114.730 288.013,115.633 288.536,116.407 289.017 C 117.181 289.499,118.801 290.433,120.007 291.092 C 125.315 293.995,150.395 308.346,156.314 311.867 C 157.917 312.820,159.309 313.600,159.407 313.600 C 159.505 313.600,160.762 314.320,162.200 315.200 C 163.638 316.080,164.904 316.800,165.014 316.800 C 165.124 316.800,166.548 317.610,168.179 318.600 C 169.810 319.590,171.337 320.400,171.572 320.400 C 171.807 320.400,172.000 320.541,172.000 320.712 C 172.000 320.884,172.495 321.235,173.100 321.493 C 173.705 321.751,174.920 322.377,175.800 322.885 C 178.912 324.683,182.210 326.606,183.000 327.084 C 183.440 327.351,184.070 327.699,184.400 327.858 C 184.730 328.018,186.128 328.835,187.507 329.674 C 188.886 330.513,190.119 331.200,190.247 331.200 C 190.375 331.200,191.497 331.805,192.740 332.544 C 193.983 333.283,196.121 334.533,197.491 335.322 L 199.983 336.756 203.091 335.031 C 208.939 331.786,210.203 331.064,212.707 329.533 C 214.086 328.690,215.298 328.000,215.400 328.000 C 215.502 328.000,216.762 327.280,218.200 326.400 C 219.638 325.520,220.895 324.800,220.993 324.800 C 221.091 324.800,222.506 323.990,224.136 323.000 C 225.767 322.010,227.218 321.200,227.360 321.200 C 227.503 321.200,228.760 320.480,230.153 319.600 C 231.546 318.720,232.796 318.000,232.929 318.000 C 233.063 318.000,234.805 317.010,236.800 315.800 C 238.795 314.590,240.509 313.600,240.607 313.600 C 240.705 313.600,241.962 312.880,243.400 312.000 C 244.838 311.120,246.104 310.400,246.215 310.400 C 246.325 310.400,247.087 309.980,247.908 309.467 C 248.729 308.954,250.390 307.988,251.600 307.321 C 252.810 306.653,256.230 304.707,259.200 302.995 C 262.170 301.284,265.230 299.530,266.000 299.097 C 266.770 298.663,268.570 297.633,270.000 296.806 C 272.801 295.187,283.416 289.118,285.426 287.987 C 286.100 287.608,289.020 285.925,291.916 284.249 C 294.812 282.572,297.284 281.200,297.410 281.200 C 297.535 281.200,298.646 280.556,299.877 279.768 C 301.107 278.981,302.494 278.171,302.957 277.969 C 303.421 277.767,304.070 277.427,304.400 277.212 C 305.869 276.259,310.432 273.600,310.600 273.600 C 310.702 273.600,311.914 272.922,313.293 272.094 C 314.672 271.266,316.295 270.336,316.900 270.027 C 318.556 269.181,318.767 269.393,313.200 266.292 C 311.990 265.618,309.872 264.377,308.493 263.533 C 307.114 262.690,305.881 262.000,305.753 262.000 C 305.625 262.000,304.503 261.395,303.260 260.655 C 300.477 259.000,296.066 256.460,293.400 254.978 C 292.300 254.366,290.272 253.176,288.893 252.333 C 287.514 251.490,286.302 250.800,286.200 250.800 C 286.098 250.800,284.838 250.080,283.400 249.200 C 281.962 248.320,280.695 247.600,280.583 247.600 C 280.472 247.600,278.000 246.221,275.090 244.536 C 272.181 242.851,268.990 241.027,268.000 240.483 C 267.010 239.938,266.020 239.361,265.800 239.200 C 265.580 239.039,264.500 238.413,263.400 237.809 C 262.300 237.205,260.230 236.034,258.800 235.207 C 255.144 233.092,244.953 227.273,242.800 226.071 C 241.810 225.518,239.872 224.376,238.493 223.533 C 237.114 222.690,235.881 222.000,235.753 222.000 C 235.625 222.000,234.503 221.395,233.260 220.655 C 230.477 219.000,226.066 216.460,223.400 214.978 C 222.300 214.366,220.272 213.176,218.893 212.333 C 217.514 211.490,216.302 210.800,216.200 210.800 C 216.098 210.800,214.838 210.080,213.400 209.200 C 211.962 208.320,210.696 207.600,210.585 207.600 C 210.475 207.600,208.206 206.340,205.544 204.800 C 200.258 201.742,199.675 201.607,197.600 202.960 " stroke="none" fill="#fbfbfb" fill-rule="evenodd"></path><path id="path2" d="M198.302 131.456 C 198.384 185.103,198.302 199.044,197.902 199.556 C 197.457 200.127,197.479 200.138,198.100 199.651 C 198.841 199.070,199.239 64.000,198.500 64.000 C 198.335 64.000,198.246 94.355,198.302 131.456 M201.200 131.551 C 201.200 195.410,201.238 199.132,201.900 199.651 C 202.521 200.138,202.543 200.127,202.098 199.556 C 201.698 199.044,201.616 185.103,201.698 131.456 C 201.754 94.355,201.665 64.000,201.500 64.000 C 201.335 64.000,201.200 94.398,201.200 131.551 M71.248 126.142 C 70.917 126.541,70.825 146.204,70.900 200.242 L 71.002 273.800 71.101 200.180 C 71.177 143.564,71.311 126.449,71.680 126.080 C 71.944 125.816,72.056 125.600,71.929 125.600 C 71.802 125.600,71.495 125.844,71.248 126.142 M328.996 200.000 C 328.996 240.590,329.043 257.195,329.100 236.900 C 329.157 216.605,329.157 183.395,329.100 163.100 C 329.043 142.805,328.996 159.410,328.996 200.000 M80.185 131.700 C 80.080 131.975,80.041 162.530,80.097 199.600 L 80.200 267.000 80.400 199.100 C 80.510 161.755,80.549 131.200,80.487 131.200 C 80.426 131.200,80.289 131.425,80.185 131.700 M125.200 294.179 C 125.200 294.289,125.740 294.659,126.400 295.000 C 127.060 295.341,127.600 295.531,127.600 295.421 C 127.600 295.311,127.060 294.941,126.400 294.600 C 125.740 294.259,125.200 294.069,125.200 294.179 M195.200 334.179 C 195.200 334.289,195.740 334.659,196.400 335.000 C 197.060 335.341,197.600 335.531,197.600 335.421 C 197.600 335.311,197.060 334.941,196.400 334.600 C 195.740 334.259,195.200 334.069,195.200 334.179 " stroke="none" fill="#a4a4a4" fill-rule="evenodd"></path><path id="path3" d="" stroke="none" fill="#7c7c7c" fill-rule="evenodd"></path><path id="path4" d="M197.600 64.033 C 197.130 64.361,197.195 64.397,197.899 64.200 L 198.798 63.947 198.901 131.473 L 199.003 199.000 199.002 131.433 C 199.001 86.742,198.865 63.824,198.600 63.740 C 198.380 63.670,197.930 63.802,197.600 64.033 M200.985 64.100 C 200.880 64.375,200.841 94.930,200.898 132.000 L 201.002 199.400 201.101 131.733 C 201.180 78.049,201.303 64.025,201.700 63.865 C 202.092 63.707,202.089 63.656,201.687 63.632 C 201.406 63.614,201.089 63.825,200.985 64.100 M71.680 126.080 C 70.788 126.972,71.006 273.355,71.900 274.032 C 72.496 274.482,72.525 274.478,72.100 274.001 C 71.384 273.197,71.364 126.796,72.080 126.080 C 72.344 125.816,72.470 125.600,72.360 125.600 C 72.250 125.600,71.944 125.816,71.680 126.080 M198.576 201.807 C 197.856 202.369,197.880 202.379,198.900 201.942 C 199.743 201.581,200.257 201.581,201.100 201.942 C 202.120 202.379,202.144 202.369,201.424 201.807 C 200.996 201.473,200.356 201.200,200.000 201.200 C 199.644 201.200,199.004 201.473,198.576 201.807 M81.776 268.573 C 81.115 269.061,81.083 269.224,81.559 269.673 C 82.020 270.108,82.065 270.108,81.819 269.673 C 81.639 269.356,81.815 268.924,82.260 268.586 C 82.667 268.278,82.899 268.020,82.776 268.013 C 82.654 268.006,82.204 268.258,81.776 268.573 M317.740 268.551 C 318.172 268.899,318.354 269.350,318.178 269.635 C 317.985 269.947,318.043 270.021,318.338 269.838 C 319.049 269.399,318.890 268.872,317.900 268.392 C 317.059 267.985,317.049 267.995,317.740 268.551 " stroke="none" fill="#747474" fill-rule="evenodd"></path></g></svg>