<svg viewBox="0 0 512 512" xmlns="http://www.w3.org/2000/svg"><path d="M381.054 152l-25.371-63.426a22 22 0 018.223-26.474l.568-.378a102 102 0 01113.159 0l.568.378a22 22 0 018.223 26.476L461.054 152z" fill="#ffb3b3"/><path d="M413.045 160a8 8 0 01-7.836-6.433l-8-40a8 8 0 1115.689-3.138l8 40a8 8 0 01-6.275 9.414 8.118 8.118 0 01-1.578.157z" fill="#faa6b2"/><path d="M429.062 160a8.126 8.126 0 01-1.578-.157 8 8 0 01-6.275-9.414l8-40a8 8 0 1115.689 3.138l-8 40a8 8 0 01-7.836 6.433z" fill="#faa6b2"/><circle cx="144" cy="368" fill="#0bafea" r="104"/><path d="M239.68 408.81a103.734 103.734 0 01-8.02 15.19H56.34a103.734 103.734 0 01-8.02-15.19z" fill="#0276b4"/><path d="M421.054 488a24 24 0 01-24-24V296h48v168a24 24 0 01-24 24z" fill="#683b0d"/><path d="M397.05 296h48v16h-48z" fill="#683b0d"/><path d="M445.054 296h-48l-3.449-17.243A646.348 646.348 0 01381.054 152h80A646.272 646.272 0 01448.5 278.757z" fill="#eaeae8"/><path d="M453.054 224h-24a8 8 0 010-16h24a8 8 0 010 16z" fill="#fbfdff"/><path d="M296 392h64v96h-64z" fill="#ea9d2d"/><path d="M296 360h64v32h-64z" fill="#fbb540"/><path d="M352 360h-48v-90.126a10 10 0 0113.162-9.487l15.692 5.231A28 28 0 01352 292.181z" fill="#d32b39"/><path d="M239.68 408.81a103.734 103.734 0 01-8.02 15.19H56.34a103.734 103.734 0 01-8.02-15.19z" fill="#0276b4"/><g fill="#eaeae8"><circle cx="144" cy="368" r="72"/><path d="M185.97 309.5L97.09 422.62a72.054 72.054 0 01-19.67-27.18l74.27-99.03a71.544 71.544 0 0134.28 13.09zm28.48 43.59l-59.05 75.16a8 8 0 11-12.58-9.88l65.31-83.12a70.882 70.882 0 016.32 17.84z"/></g><path d="M24 424h240v4a60 60 0 01-60 60H84a60 60 0 01-60-60v-4z" fill="#0bafea"/><path d="M185.97 309.5L97.09 422.62a72.054 72.054 0 01-19.67-27.18l74.27-99.03a71.544 71.544 0 0134.28 13.09zm28.48 43.59l-59.05 75.16a7.993 7.993 0 01-11.23 1.35c-3.48-2.73-10.04-.081-7.31-3.551l71.27-90.8a70.882 70.882 0 016.32 17.841z" fill="#fbfdff"/><path d="M280 96a50.6 50.6 0 01-32 32l12.82 8.547a50.6 50.6 0 0117.189 19.471L280 160l1.991-3.982a50.6 50.6 0 0117.189-19.471L312 128a50.6 50.6 0 01-32-32zm-88 48a50.6 50.6 0 01-32 32l12.82 8.547a50.6 50.6 0 0117.189 19.471L192 208l1.991-3.982a50.6 50.6 0 0117.189-19.471L224 176a50.6 50.6 0 01-32-32zm32-120a50.6 50.6 0 01-32 32l12.82 8.547a50.6 50.6 0 0117.189 19.471L224 88l1.991-3.982a50.6 50.6 0 0117.189-19.471L256 56a50.6 50.6 0 01-32-32z" fill="#fbb540"/><rect fill="#0276b4" height="32" rx="16" width="80" x="104" y="424"/><path d="M304 344h48v16h-48z" fill="#961b20"/><path d="M397.05 296h48v16h-48z" fill="#533222"/></svg>