<svg xmlns="http://www.w3.org/2000/svg" viewBox="0 0 512 512"><path d="M447.351 80.237v72.881c0 8.101 6.566 14.667 14.667 14.667s14.667-6.567 14.667-14.667V88.602l-29.334-8.365z" fill="#ed5a81"/><path d="M451.416 161.175c-.695 18.039-5.731 63.792-37.072 89.949-3.794 3.167-3.691 9.043.124 12.185l15.935 13.127c6.032 4.969 15.132 3.08 18.637-3.904 8.715-17.357 21.84-54.658 22.53-110.36a14.62 14.62 0 01-20.154-.997z" fill="#f96989"/><path d="M247.208 226.489l-110.114 22.306-121.344 97.37A42.092 42.092 0 000 378.996v90.009l235.904-189.296c16.229-13.023 20.507-35.421 11.304-53.22z" fill="#f4d44e"/><path d="M22.994 374.706l171.37-137.513-57.27 11.602-121.344 97.37A42.092 42.092 0 000 378.996v26.629a76.358 76.358 0 0122.994-30.919z" fill="#e8c842"/><path d="M381.614 359.113l-104.28 10.715L100.159 512h139.088a55.304 55.304 0 0034.616-12.172l95.961-77.002c19.434-15.596 24.018-42.834 11.79-63.713z" fill="#f4d44e"/><path fill="#e8c842" d="M323.221 365.113l-45.886 4.715L100.159 512h40.01z"/><path d="M348.265 258.952L230.148 284.32 0 468.653V489.1C0 501.748 10.253 512 22.9 512h77.319l237.079-190.24c19.165-15.379 23.479-42.392 10.967-62.808z" fill="#f4d44e"/><path d="M277.343 369.712s-1.609 20.68 8.607 30.84 33.201 12.337 50.713 0c17.512-12.336 84.643-74.745 81.36-100.87-4.792-38.13-93.427 32.321-93.427 32.321l-47.253 37.709z" fill="#f96989"/><path d="M418.022 299.683c-4.792-38.13-93.427 32.321-93.427 32.321l-47.252 37.709s-1.301 16.77 5.902 27.526c23.561-18.759 100.929-85.691 130.683-80.994 3.086-6.322 4.669-11.997 4.094-16.562z" fill="#ed5a81"/><path d="M512 13.037C512 5.866 506.134 0 498.963 0h-71.717c-7.17 0-13.036 5.866-13.036 13.037v49.08a15.58 15.58 0 0011.31 14.985l69.125 19.711c8.699 2.481 17.356-4.052 17.356-13.1V13.037z" fill="#f96989"/><path d="M440.531 8.292c0-3.143 1.127-6.035 2.997-8.292h-16.283c-7.17 0-13.036 5.866-13.036 13.037v49.08a15.581 15.581 0 0011.309 14.985l15.261 4.352c-.476-2.595-.145 1.255-.248-73.162z" fill="#ed5a81"/><path d="M26.931 477.533l254.514-204.23-51.296 11.018L0 468.653V489.1a22.791 22.791 0 005.053 14.341 88.282 88.282 0 0121.878-25.908z" fill="#e8c842"/><path d="M137.093 248.796s-1.533 19.812 8.2 29.544c9.733 9.733 31.631 11.818 48.315 0 16.685-11.818 80.641-71.604 77.512-96.63-4.566-36.527-89.01 30.962-89.01 30.962l-45.017 36.124z" fill="#f96989"/><path d="M189.338 241.263s52.469-41.929 76.923-41.791c3.565-6.817 5.463-12.937 4.861-17.764-4.566-36.527-89.01 30.962-89.01 30.962l-45.018 36.124s-1.432 18.528 7.277 28.551l44.967-36.082z" fill="#ed5a81"/><path d="M230.149 284.32s-1.624 20.99 8.688 31.302 33.513 12.521 51.19 0c17.678-12.521 85.44-75.865 82.125-102.381-4.837-38.702-94.306 32.805-94.306 32.805l-47.697 38.274z" fill="#f96989"/><path d="M282.567 272.375s62.937-50.296 86.088-43.678c2.69-5.87 4.034-11.15 3.496-15.455-4.837-38.702-94.307 32.805-94.307 32.805l-47.696 38.274s-1.177 15.298 4.895 26.19l47.524-38.136z" fill="#ed5a81"/></svg>