<svg id="Color" enable-background="new 0 0 24 24" viewBox="0 0 24 24"
  xmlns="http://www.w3.org/2000/svg">
  <path d="m23.25.5h-11.5c-.414 0-.75.336-.75.75s.336.75.75.75h11.5c.414 0 .75-.336.75-.75s-.336-.75-.75-.75z" fill="#90a4ae"/>
  <path d="m23.25 3.5h-11.5c-.414 0-.75.336-.75.75s.336.75.75.75h11.5c.414 0 .75-.336.75-.75s-.336-.75-.75-.75z" fill="#90a4ae"/>
  <path d="m23.25 9.5h-11.5c-.414 0-.75.336-.75.75s.336.75.75.75h11.5c.414 0 .75-.336.75-.75s-.336-.75-.75-.75z" fill="#90a4ae"/>
  <path d="m23.25 12.5h-11.5c-.414 0-.75.336-.75.75s.336.75.75.75h11.5c.414 0 .75-.336.75-.75s-.336-.75-.75-.75z" fill="#90a4ae"/>
  <path d="m1.75 6h5.5c.965 0 1.75-.785 1.75-1.75v-2.5c0-.965-.785-1.75-1.75-1.75h-5.5c-.965 0-1.75.785-1.75 1.75v2.5c0 .965.785 1.75 1.75 1.75z" fill="#cfd8dc"/>
  <path d="m1.75 15h5.5c.965 0 1.75-.785 1.75-1.75v-2.5c0-.965-.785-1.75-1.75-1.75h-5.5c-.965 0-1.75.785-1.75 1.75v2.5c0 .965.785 1.75 1.75 1.75z" fill="#cfd8dc"/>
  <path d="m23.25 16.5h-22.5c-.414 0-.75.336-.75.75s.336.75.75.75h22.5c.414 0 .75-.336.75-.75s-.336-.75-.75-.75z" fill="#90a4ae"/>
  <path d="m23.25 19.5h-22.5c-.414 0-.75.336-.75.75s.336.75.75.75h22.5c.414 0 .75-.336.75-.75s-.336-.75-.75-.75z" fill="#90a4ae"/>
  <path d="m23.25 22.5h-22.5c-.414 0-.75.336-.75.75s.336.75.75.75h22.5c.414 0 .75-.336.75-.75s-.336-.75-.75-.75z" fill="#90a4ae"/>
  <path d="m4.5 0h-2.75c-.965 0-1.75.785-1.75 1.75v2.5c0 .965.785 1.75 1.75 1.75h2.75z" fill="#b4bcc0"/>
  <path d="m4.5 9h-2.75c-.965 0-1.75.785-1.75 1.75v2.5c0 .965.785 1.75 1.75 1.75h2.75z" fill="#b4bcc0"/>
  <g fill="#7d8f97">
    <path d="m17.5.5h-5.75c-.414 0-.75.336-.75.75s.336.75.75.75h5.75z"/>
    <path d="m17.5 3.5h-5.75c-.414 0-.75.336-.75.75s.336.75.75.75h5.75z"/>
    <path d="m17.5 9.5h-5.75c-.414 0-.75.336-.75.75s.336.75.75.75h5.75z"/>
    <path d="m17.5 12.5h-5.75c-.414 0-.75.336-.75.75s.336.75.75.75h5.75z"/>
    <path d="m12 16.5h-11.25c-.414 0-.75.336-.75.75s.336.75.75.75h11.25z"/>
    <path d="m12 19.5h-11.25c-.414 0-.75.336-.75.75s.336.75.75.75h11.25z"/>
    <path d="m12 22.5h-11.25c-.414 0-.75.336-.75.75s.336.75.75.75h11.25z"/>
  </g>
</svg>
