<!DOCTYPE svg PUBLIC "-//W3C//DTD SVG 20010904//EN" "http://www.w3.org/TR/2001/REC-SVG-20010904/DTD/svg10.dtd">
<svg version="1.0" xmlns="http://www.w3.org/2000/svg" width="128px" height="128px" viewBox="0 0 1280 1280" preserveAspectRatio="xMidYMid meet">
<g id="layer101" fill="#302c3b" stroke="none">
<path d="M392 1215 c-38 -31 -48 -72 -29 -116 l14 -34 7 37 c7 39 45 78 76 78 29 0 70 -39 70 -66 0 -14 -13 -50 -29 -82 -16 -31 -32 -72 -36 -89 l-7 -33 -76 6 c-146 10 -159 13 -187 45 -15 19 -25 43 -25 62 0 42 33 95 65 103 43 11 29 27 -17 21 -124 -17 -142 -216 -26 -287 l32 -19 -28 -11 c-15 -5 -30 -10 -34 -10 -18 0 -84 -66 -102 -101 -24 -46 -26 -142 -5 -179 14 -25 14 -24 15 18 0 24 6 55 14 70 34 65 112 112 186 112 l40 0 -41 -37 c-55 -50 -80 -103 -80 -168 0 -74 26 -127 105 -213 55 -60 65 -76 55 -88 -6 -8 -24 -14 -40 -14 -31 0 -36 -9 -17 -28 16 -16 80 -15 103 1 14 11 17 23 13 61 -4 37 -16 59 -52 104 -26 31 -54 72 -62 91 -22 49 -11 113 28 156 40 46 83 48 132 5 l35 -31 -21 -35 c-15 -25 -19 -45 -15 -74 3 -23 -1 -57 -10 -82 -10 -29 -14 -67 -11 -119 5 -89 35 -150 95 -196 33 -25 45 -28 114 -28 71 0 80 2 116 31 79 65 116 207 80 312 -9 25 -13 59 -10 82 4 29 0 49 -15 74 l-21 35 35 31 c49 42 92 41 132 -4 57 -65 51 -143 -16 -224 -59 -72 -72 -96 -74 -137 -2 -46 20 -65 72 -65 34 0 60 14 60 32 0 4 -13 8 -29 8 -16 0 -34 6 -40 14 -10 12 0 28 55 88 79 86 105 139 105 213 0 65 -25 118 -80 168 l-41 37 42 0 c108 -1 197 -86 198 -188 l1 -37 14 25 c21 37 19 133 -5 179 -18 35 -84 101 -102 101 -4 0 -19 5 -34 10 l-28 11 32 19 c116 71 98 270 -26 287 -49 7 -56 -7 -12 -24 20 -7 35 -24 45 -47 21 -51 19 -80 -10 -115 -28 -32 -41 -35 -187 -45 l-76 -6 -7 33 c-4 17 -20 58 -36 89 -16 32 -29 68 -29 82 0 27 41 66 70 66 31 0 69 -39 76 -78 l7 -37 14 34 c30 73 -21 141 -105 141 -59 0 -103 -26 -125 -73 -22 -46 -21 -80 4 -183 29 -113 21 -134 -51 -134 -72 0 -80 21 -51 134 25 103 26 137 4 183 -34 73 -141 98 -201 48z"/>
</g>
<g id="layer102" fill="#a70d0d" stroke="none">
<path d="M392 1215 c-38 -31 -48 -72 -29 -116 l14 -34 7 37 c7 39 45 78 76 78 29 0 70 -39 70 -66 0 -14 -13 -50 -29 -82 -16 -31 -32 -72 -36 -89 l-7 -33 -76 6 c-146 10 -159 13 -187 45 -15 19 -25 43 -25 62 0 42 33 95 65 103 43 11 29 27 -17 21 -124 -17 -142 -216 -26 -287 l32 -19 -28 -11 c-15 -5 -30 -10 -34 -10 -18 0 -84 -66 -102 -101 -24 -46 -26 -142 -5 -179 14 -25 14 -24 15 18 0 24 6 55 14 70 34 65 112 112 186 112 l40 0 -41 -37 c-55 -50 -80 -103 -80 -168 0 -74 26 -127 105 -213 55 -60 65 -76 55 -88 -6 -8 -24 -14 -40 -14 -31 0 -36 -9 -17 -28 16 -16 80 -15 103 1 14 11 17 23 13 61 -4 37 -16 59 -52 104 -26 31 -54 72 -62 91 -22 49 -11 113 28 156 40 46 83 48 132 5 l35 -31 -21 -35 c-15 -25 -19 -45 -15 -74 3 -23 -1 -57 -10 -82 -10 -29 -14 -67 -11 -119 5 -89 35 -150 95 -196 33 -25 45 -28 114 -28 71 0 80 2 116 31 79 65 116 207 80 312 -9 25 -13 59 -10 82 4 29 0 49 -15 74 l-21 35 35 31 c49 42 92 41 132 -4 57 -65 51 -143 -16 -224 -59 -72 -72 -96 -74 -137 -2 -46 20 -65 72 -65 34 0 60 14 60 32 0 4 -13 8 -29 8 -16 0 -34 6 -40 14 -10 12 0 28 55 88 79 86 105 139 105 213 0 65 -25 118 -80 168 l-41 37 42 0 c108 -1 197 -86 198 -188 l1 -37 14 25 c21 37 19 133 -5 179 -18 35 -84 101 -102 101 -4 0 -19 5 -34 10 l-28 11 32 19 c116 71 98 270 -26 287 -49 7 -56 -7 -12 -24 20 -7 35 -24 45 -47 21 -51 19 -80 -10 -115 -28 -32 -41 -35 -187 -45 l-76 -6 -7 33 c-4 17 -20 58 -36 89 -16 32 -29 68 -29 82 0 27 41 66 70 66 31 0 69 -39 76 -78 l7 -37 14 34 c30 73 -21 141 -105 141 -59 0 -103 -26 -125 -73 -22 -46 -21 -80 4 -183 29 -113 21 -134 -51 -134 -72 0 -80 21 -51 134 25 103 26 137 4 183 -34 73 -141 98 -201 48z m156 -697 c30 -30 4 -96 -32 -82 -15 6 -15 7 0 19 13 9 14 14 4 20 -7 4 -16 2 -21 -6 -6 -10 -9 -7 -9 12 0 26 16 49 35 49 6 0 16 -5 23 -12z m235 -9 c13 -21 2 -65 -19 -73 -23 -9 -44 12 -44 43 0 47 40 66 63 30z"/>
</g>
<g id="layer103" fill="#e33636" stroke="none">
<path d="M392 1215 c-37 -31 -47 -66 -31 -114 12 -35 13 -35 19 -11 4 14 3 29 -1 34 -21 23 42 86 86 86 27 0 63 -22 74 -47 14 -31 14 -46 -1 -37 -6 4 -8 3 -4 -4 3 -6 -9 -43 -28 -81 -19 -39 -37 -84 -41 -101 l-7 -30 -76 6 c-146 10 -159 13 -187 45 -44 53 -24 137 38 164 32 14 32 14 5 15 -35 0 -85 -43 -97 -85 -15 -57 10 -129 57 -158 7 -5 10 -17 7 -27 -4 -13 0 -20 12 -22 12 -3 4 -9 -24 -18 -54 -17 -108 -62 -133 -111 -24 -47 -26 -142 -4 -179 15 -24 15 -24 9 18 -8 63 11 118 57 166 38 39 39 40 34 14 -4 -17 -2 -28 4 -28 6 0 8 5 5 10 -3 6 -5 10 -3 10 2 1 36 3 77 7 l74 5 -42 -38 c-57 -51 -82 -103 -82 -169 0 -74 26 -127 105 -213 55 -60 65 -76 55 -88 -6 -8 -22 -14 -35 -14 -12 0 -26 -5 -30 -12 -4 -6 -3 -8 2 -5 6 3 16 2 23 -3 8 -4 27 -4 44 1 22 6 33 5 38 -3 13 -20 22 18 16 63 -4 29 -19 58 -52 97 -25 32 -53 72 -61 91 -22 49 -11 113 28 156 40 46 83 48 132 5 l35 -31 -21 -35 c-15 -26 -19 -44 -15 -72 4 -22 1 -53 -8 -77 -19 -54 -15 -230 5 -217 3 2 18 -1 33 -7 36 -14 37 -14 37 4 0 8 7 15 15 15 17 0 19 -12 4 -27 -7 -7 10 -12 55 -16 116 -11 238 21 250 66 10 40 5 141 -9 182 -9 24 -12 55 -8 77 4 28 0 46 -15 72 l-21 35 35 31 c49 42 92 41 132 -4 57 -65 51 -143 -16 -224 -58 -71 -72 -96 -74 -134 -1 -39 10 -67 21 -49 5 7 17 8 38 2 17 -5 36 -5 44 -1 7 5 17 6 23 3 5 -3 6 -1 2 5 -4 7 -18 12 -30 12 -13 0 -29 6 -35 14 -10 12 0 28 55 88 79 86 105 139 105 213 0 66 -25 118 -82 169 l-42 38 72 -5 c54 -4 76 -10 87 -24 14 -17 14 -16 4 5 -21 43 -5 44 32 4 43 -48 61 -103 53 -164 -6 -42 -6 -42 9 -18 22 37 20 132 -4 179 -25 49 -79 94 -133 111 -28 9 -36 15 -24 18 12 2 16 9 12 20 -3 9 6 28 26 48 35 36 50 92 37 141 -10 39 -61 83 -96 83 -27 -1 -26 -1 6 -15 21 -9 38 -27 47 -49 21 -51 19 -80 -10 -115 -28 -32 -41 -35 -186 -45 l-77 -6 -6 28 c-4 15 -23 60 -42 100 -19 40 -32 78 -28 84 4 7 3 8 -4 4 -15 -9 -15 6 -1 37 11 25 47 47 75 47 43 0 105 -63 85 -86 -5 -5 -5 -20 -1 -34 6 -24 7 -24 19 11 16 48 6 83 -31 114 -60 50 -167 25 -201 -48 -22 -46 -21 -80 4 -183 29 -113 21 -134 -51 -134 -72 0 -80 21 -51 134 25 103 26 137 4 183 -34 73 -141 98 -201 48z m205 -622 c-2 -16 -4 -5 -4 22 0 28 2 40 4 28 2 -13 2 -35 0 -50z m90 -5 c-2 -13 -4 -3 -4 22 0 25 2 35 4 23 2 -13 2 -33 0 -45z m-126 -81 c22 -48 -24 -100 -59 -65 -13 13 -17 70 -5 81 15 16 54 6 64 -16z m227 -15 c6 -60 -49 -88 -69 -35 -15 41 3 75 39 71 23 -2 28 -8 30 -36z m-188 -252 c0 -21 -24 -28 -35 -10 -8 14 3 30 21 30 8 0 14 -9 14 -20z m95 -35 c0 -22 -31 -33 -47 -17 -17 17 -1 44 24 40 15 -2 23 -10 23 -23z"/>
</g>
<g id="layer104" fill="#df6f85" stroke="none">
<path d="M392 1215 c-35 -29 -47 -70 -33 -106 9 -23 10 -23 10 9 2 78 103 121 156 68 36 -36 39 -64 16 -153 -25 -97 -26 -153 -6 -193 28 -55 105 -76 165 -45 63 32 74 105 39 237 -24 87 -20 118 16 154 53 53 154 10 156 -68 0 -32 1 -32 10 -9 14 36 2 77 -33 106 -59 50 -167 24 -202 -49 -21 -45 -20 -80 5 -182 29 -113 21 -134 -51 -134 -72 0 -80 21 -51 134 25 103 26 137 4 183 -34 73 -141 98 -201 48z"/>
<path d="M174 1106 c-29 -29 -34 -41 -34 -80 0 -102 48 -143 190 -162 55 -7 108 -15 120 -19 15 -5 20 -2 20 12 0 46 -21 55 -135 63 -105 6 -109 7 -136 38 -48 54 -31 139 34 167 l32 14 -28 1 c-20 0 -40 -11 -63 -34z"/>
<path d="M1047 1125 c65 -28 82 -113 34 -167 -27 -31 -31 -32 -136 -38 -114 -8 -135 -17 -135 -63 0 -14 5 -17 20 -12 12 4 65 12 120 19 142 19 190 60 190 162 0 39 -5 51 -34 80 -23 23 -43 34 -62 34 l-29 -1 32 -14z"/>
<path d="M182 827 c-48 -18 -100 -63 -122 -107 -25 -48 -27 -147 -5 -176 14 -17 14 -16 9 24 -19 125 123 251 254 227 43 -8 108 -43 136 -74 24 -27 36 -27 36 0 0 35 -59 85 -115 97 -89 19 -159 22 -193 9z"/>
<path d="M944 825 c-39 -7 -80 -18 -92 -24 -28 -15 -62 -60 -62 -82 0 -25 12 -24 36 2 28 31 93 66 136 74 131 24 273 -102 254 -227 -5 -40 -5 -41 9 -24 22 29 20 128 -5 175 -24 48 -79 95 -129 110 -46 13 -55 13 -147 -4z"/>
<path d="M305 728 c-71 -39 -116 -115 -116 -194 0 -73 29 -130 108 -214 34 -37 63 -73 63 -79 0 -6 -14 -14 -31 -18 -37 -7 -24 -26 16 -21 64 7 58 65 -15 142 -87 92 -111 184 -71 273 22 47 56 73 109 83 l37 7 -37 17 c-44 19 -38 18 -63 4z"/>
<path d="M910 723 l-35 -16 37 -7 c53 -10 87 -36 109 -83 40 -89 16 -181 -71 -273 -52 -54 -70 -96 -53 -123 12 -19 61 -27 76 -12 8 8 3 11 -16 11 -50 0 -43 26 25 99 81 86 108 139 108 215 0 81 -44 156 -112 192 -32 17 -25 17 -68 -3z"/>
</g>
<g id="layer105" fill="#a7a5ac" stroke="none">
<path d="M500 465 c0 -9 5 -15 11 -13 6 2 11 8 11 13 0 5 -5 11 -11 13 -6 2 -11 -4 -11 -13z"/>
<path d="M730 465 c0 -8 5 -15 10 -15 6 0 10 7 10 15 0 8 -4 15 -10 15 -5 0 -10 -7 -10 -15z"/>
</g>
<g id="layer106" fill="#f7b0c0" stroke="none">
<path d="M556 1140 c4 -26 -1 -68 -16 -126 -36 -143 -12 -189 100 -189 112 0 136 46 100 189 -15 58 -20 100 -16 126 5 35 4 40 -12 40 -22 0 -42 -39 -42 -81 0 -16 10 -68 21 -115 29 -113 21 -134 -51 -134 -72 0 -80 21 -51 134 11 47 21 99 21 115 0 42 -20 81 -42 81 -16 0 -17 -5 -12 -40z"/>
<path d="M198 1124 c-54 -29 -73 -105 -42 -170 24 -49 73 -76 154 -82 66 -4 67 -4 72 21 5 25 4 25 -74 29 -75 3 -81 5 -109 36 -45 50 -38 111 19 159 31 26 20 29 -20 7z"/>
<path d="M1062 1117 c57 -48 64 -109 19 -159 -28 -31 -34 -33 -109 -36 -78 -4 -79 -4 -74 -29 5 -25 6 -25 72 -21 81 6 130 33 154 82 31 67 12 142 -44 171 -42 22 -49 18 -18 -8z"/>
<path d="M182 827 c-48 -18 -99 -63 -122 -107 -23 -45 -27 -146 -8 -173 11 -14 13 -7 13 47 0 55 4 70 30 107 19 27 51 54 85 72 49 26 62 28 123 24 47 -3 67 -1 64 7 -3 10 -25 15 -122 30 -16 2 -45 -1 -63 -7z"/>
<path d="M981 826 c-89 -15 -92 -35 -4 -29 61 4 74 2 123 -24 34 -18 66 -45 85 -72 26 -37 30 -52 30 -107 0 -54 2 -61 13 -47 6 9 12 43 12 75 0 69 -23 122 -71 163 -58 48 -99 57 -188 41z"/>
<path d="M215 590 c-4 -6 -11 -8 -16 -5 -8 5 -12 -20 -11 -60 1 -48 19 -93 57 -144 35 -48 51 -61 71 -61 l26 0 -32 37 c-49 55 -73 118 -73 186 1 53 -7 71 -22 47z"/>
<path d="M1043 543 c0 -68 -24 -131 -73 -186 l-32 -37 26 0 c19 0 35 13 65 53 22 28 44 65 50 80 14 35 15 140 2 132 -5 -3 -12 -1 -16 5 -15 24 -23 6 -22 -47z"/>
</g>


</svg>