<!DOCTYPE svg PUBLIC "-//W3C//DTD SVG 20010904//EN" "http://www.w3.org/TR/2001/REC-SVG-20010904/DTD/svg10.dtd">
<svg version="1.0" xmlns="http://www.w3.org/2000/svg" width="167px" height="166px" viewBox="0 0 1670 1660" preserveAspectRatio="xMidYMid meet">
<g id="layer101" fill="#302c3b" stroke="none">
<path d="M560 1650 c-8 -5 -25 -10 -37 -10 -27 0 -83 -82 -83 -122 0 -16 8 -45 17 -66 l17 -37 4 37 c2 26 14 49 36 73 43 45 100 49 143 9 38 -35 37 -83 -4 -160 -35 -65 -63 -139 -63 -166 0 -22 -3 -22 -69 -2 -30 8 -65 13 -78 9 -36 -9 -185 16 -206 34 -31 26 -48 80 -41 129 8 50 52 109 91 118 13 4 22 11 20 18 -9 29 -88 13 -134 -28 -55 -47 -72 -195 -32 -271 26 -48 47 -69 100 -100 l41 -22 -59 -8 c-52 -6 -64 -13 -124 -65 -64 -58 -66 -61 -84 -139 -19 -83 -17 -115 11 -178 l18 -38 6 55 c13 120 81 197 209 236 85 26 143 11 81 -21 -16 -8 -36 -28 -44 -43 -8 -15 -26 -38 -40 -51 -14 -14 -26 -32 -26 -41 0 -10 -7 -37 -15 -61 -13 -36 -14 -52 -4 -89 6 -25 13 -56 14 -69 2 -13 17 -43 34 -66 17 -24 31 -47 31 -51 0 -4 31 -37 69 -73 108 -104 114 -135 26 -136 -26 0 -45 -5 -45 -11 0 -23 41 -47 83 -48 87 -2 125 58 92 142 -10 23 -20 42 -24 42 -5 0 -13 11 -19 25 -6 14 -29 44 -50 67 -57 62 -72 98 -72 168 0 72 16 114 59 155 44 41 104 41 163 -1 58 -41 66 -57 41 -83 -31 -33 -44 -90 -32 -135 6 -22 7 -42 1 -49 -36 -49 -49 -215 -23 -297 14 -41 53 -108 91 -153 8 -10 35 -31 60 -45 39 -23 56 -27 125 -27 93 0 129 15 190 79 40 42 74 102 94 165 18 57 13 165 -10 223 -15 39 -20 74 -19 129 1 71 -1 78 -28 107 l-29 31 21 19 c35 31 79 59 105 65 102 25 193 -104 162 -230 -13 -49 -41 -94 -97 -150 -17 -18 -44 -62 -59 -97 -24 -58 -26 -69 -15 -95 25 -60 130 -79 165 -28 21 30 19 34 -14 29 -16 -2 -39 1 -51 8 -34 18 -18 56 50 118 87 78 144 171 159 257 10 62 9 77 -7 131 -11 33 -30 71 -43 85 -13 14 -37 42 -52 62 -15 20 -32 36 -36 34 -5 -1 -10 3 -10 8 -3 18 47 16 116 -4 114 -34 192 -129 193 -233 0 -27 4 -48 9 -48 18 0 36 68 35 135 -2 101 -23 148 -97 216 -57 53 -67 59 -120 65 l-58 7 43 24 c24 14 53 34 65 45 27 25 63 116 63 160 0 42 -20 107 -43 141 -23 34 -90 69 -124 65 -35 -4 -40 -24 -10 -32 41 -10 84 -68 92 -123 5 -40 2 -58 -15 -91 -12 -23 -29 -43 -38 -46 -37 -11 -180 -26 -194 -21 -9 4 -43 -1 -76 -9 -33 -9 -62 -16 -65 -16 -2 0 -7 17 -9 38 -3 21 -24 77 -47 123 -49 101 -53 148 -16 184 57 58 160 14 172 -73 7 -51 21 -44 40 20 10 36 9 46 -7 77 -31 60 -45 74 -91 88 -62 18 -93 16 -136 -8 -62 -34 -93 -70 -109 -125 -13 -47 -13 -59 2 -125 51 -233 51 -235 23 -259 -19 -15 -36 -19 -78 -17 -45 2 -57 6 -74 29 l-19 26 27 118 c51 221 37 279 -87 352 -40 23 -92 29 -118 12z"/>
</g>
<g id="layer102" fill="#850e0e" stroke="none">
<path d="M560 1650 c-8 -5 -25 -10 -37 -10 -27 0 -83 -82 -83 -122 0 -16 8 -45 17 -66 l17 -37 4 37 c2 26 14 49 36 73 43 45 100 49 143 9 38 -35 37 -83 -4 -160 -35 -65 -63 -139 -63 -166 0 -22 -3 -22 -69 -2 -30 8 -65 13 -78 9 -36 -9 -185 16 -206 34 -31 26 -48 80 -41 129 8 50 52 109 91 118 13 4 22 11 20 18 -9 29 -88 13 -134 -28 -55 -47 -72 -195 -32 -271 26 -48 47 -69 100 -100 l41 -22 -59 -8 c-52 -6 -64 -13 -124 -65 -64 -58 -66 -61 -84 -139 -19 -83 -17 -115 11 -178 l18 -38 6 55 c13 122 79 196 209 236 85 26 143 11 81 -21 -16 -8 -36 -28 -44 -43 -8 -15 -26 -38 -40 -51 -14 -14 -26 -32 -26 -41 0 -10 -7 -37 -15 -61 -13 -36 -14 -52 -4 -89 6 -25 13 -56 14 -69 2 -13 17 -43 34 -66 17 -24 31 -47 31 -51 0 -4 31 -37 69 -73 108 -104 114 -135 26 -136 -26 0 -45 -5 -45 -11 0 -23 41 -47 83 -48 87 -2 125 58 92 142 -10 23 -20 42 -24 42 -5 0 -13 11 -19 25 -6 14 -29 44 -50 67 -57 62 -72 98 -72 168 0 72 16 114 59 155 44 41 104 41 163 -1 58 -41 66 -57 41 -83 -31 -33 -44 -90 -32 -135 6 -22 7 -42 1 -49 -36 -49 -49 -215 -23 -297 14 -41 53 -108 91 -153 8 -10 35 -31 60 -45 39 -23 56 -27 125 -27 92 0 126 14 189 79 41 41 74 100 95 165 18 57 13 165 -10 223 -15 39 -20 74 -19 129 1 71 -1 78 -28 107 l-29 31 21 19 c35 31 79 59 105 65 102 25 193 -104 162 -230 -13 -49 -41 -94 -97 -150 -17 -18 -44 -62 -59 -97 -24 -58 -26 -69 -15 -95 25 -60 130 -79 165 -28 21 30 19 34 -14 29 -16 -2 -39 1 -51 8 -34 18 -18 56 50 118 87 78 144 171 159 257 10 62 9 77 -7 131 -11 33 -30 71 -43 85 -13 14 -37 42 -52 62 -15 20 -32 36 -36 34 -5 -1 -10 3 -10 8 -3 18 47 16 116 -4 114 -34 192 -129 193 -233 0 -27 4 -48 9 -48 18 0 36 68 35 135 -2 101 -23 148 -97 216 -57 53 -67 59 -120 65 l-58 7 49 28 c63 36 88 68 108 137 19 65 14 115 -18 180 -26 54 -85 94 -132 90 -37 -4 -45 -24 -13 -32 41 -10 84 -68 92 -123 5 -40 2 -58 -15 -91 -12 -23 -29 -43 -38 -46 -37 -11 -180 -26 -194 -21 -9 4 -43 -1 -76 -9 -33 -9 -62 -16 -65 -16 -2 0 -7 17 -9 38 -3 21 -24 77 -47 123 -49 101 -53 148 -16 184 57 58 160 14 172 -73 7 -51 21 -44 40 20 10 36 9 46 -7 77 -31 60 -45 74 -91 88 -62 18 -93 16 -136 -8 -62 -34 -93 -70 -109 -125 -13 -47 -13 -59 2 -125 51 -233 51 -235 23 -259 -19 -15 -36 -19 -78 -17 -45 2 -57 6 -74 29 l-19 26 27 118 c51 221 37 279 -87 352 -40 23 -92 29 -118 12z m150 -990 c11 -11 20 -33 20 -50 0 -29 -29 -70 -50 -70 -21 0 -50 41 -50 70 0 29 29 70 50 70 6 0 19 -9 30 -20z m308 4 c32 -22 31 -88 -2 -109 -29 -20 -51 -11 -66 25 -13 31 -7 62 16 85 19 19 24 19 52 -1z"/>
</g>
<g id="layer103" fill="#c82828" stroke="none">
<path d="M560 1650 c-8 -5 -25 -10 -37 -10 -27 0 -83 -82 -83 -122 0 -30 24 -98 35 -98 4 0 3 24 0 54 -7 52 -6 54 30 89 20 20 51 38 71 41 71 14 144 -52 144 -130 0 -44 -8 -59 -30 -59 -24 0 -100 -157 -100 -207 0 -22 -3 -22 -69 -2 -30 8 -65 13 -78 9 -36 -9 -185 16 -206 34 -31 26 -48 80 -41 129 7 50 52 109 90 118 40 10 27 22 -17 14 -22 -4 -52 -18 -66 -31 -30 -28 -62 -94 -63 -129 0 -76 50 -151 128 -192 34 -18 48 -64 15 -51 -10 4 -14 2 -10 -4 4 -7 -14 -13 -50 -18 -52 -6 -65 -13 -123 -65 -63 -56 -67 -62 -83 -132 -21 -89 -21 -102 -1 -161 22 -65 32 -66 36 -3 1 30 0 52 -4 49 -11 -6 -10 7 7 64 23 78 97 154 173 177 19 6 22 4 18 -16 -3 -13 -5 -26 -5 -30 -1 -3 -9 -9 -18 -12 -18 -5 9 -2 93 10 52 8 66 -9 24 -31 -16 -8 -36 -28 -44 -43 -8 -15 -26 -38 -40 -51 -14 -14 -26 -32 -26 -41 0 -10 -7 -37 -15 -61 -13 -36 -14 -52 -4 -89 6 -25 13 -56 14 -69 2 -13 17 -43 34 -66 17 -24 31 -47 31 -51 0 -4 31 -37 69 -73 71 -68 96 -104 86 -121 -3 -6 -25 -13 -47 -16 -37 -6 -39 -8 -23 -21 29 -21 79 -16 102 9 11 13 23 42 26 65 4 36 0 49 -30 95 -19 29 -46 64 -60 78 -45 44 -63 93 -63 168 0 57 4 75 27 110 51 78 123 89 204 30 50 -36 56 -51 31 -78 -29 -32 -44 -90 -32 -131 6 -20 7 -42 1 -54 -26 -60 -33 -85 -38 -145 -4 -55 -2 -68 15 -87 27 -31 95 -60 172 -72 90 -15 100 -14 100 8 0 26 24 43 57 39 22 -2 29 -9 31 -29 3 -26 5 -26 43 -18 21 5 62 18 91 29 28 10 56 16 61 13 6 -3 7 -1 3 5 -4 7 -2 12 3 12 20 0 13 135 -10 192 -15 39 -20 74 -19 129 1 71 -1 78 -28 107 l-29 31 21 19 c52 47 90 65 131 65 81 0 137 -69 141 -173 3 -68 -20 -119 -82 -186 -53 -56 -78 -100 -68 -116 5 -7 3 -8 -6 -3 -24 15 -1 -78 26 -102 28 -26 53 -28 101 -11 41 15 43 26 4 20 -16 -2 -39 1 -51 8 -34 18 -18 56 50 118 87 78 144 171 159 257 10 62 9 77 -7 131 -11 33 -30 71 -43 85 -13 14 -37 42 -52 62 -15 20 -32 36 -36 34 -5 -1 -9 3 -10 8 -1 12 71 12 114 1 17 -4 25 -4 19 1 -6 4 -13 21 -16 36 -4 22 -2 27 9 23 8 -3 21 -6 28 -6 22 0 115 -90 138 -134 17 -34 21 -56 19 -123 -1 -46 2 -83 7 -83 18 0 36 67 35 135 -2 101 -23 148 -97 216 -56 53 -67 59 -119 65 -44 5 -61 12 -72 29 -15 22 -14 24 19 39 117 56 165 168 114 272 -22 46 -71 84 -108 84 -14 0 -20 4 -15 11 4 7 1 10 -6 7 -24 -8 -22 -25 3 -32 41 -10 84 -68 92 -123 5 -40 2 -58 -15 -91 -12 -23 -29 -43 -38 -46 -37 -11 -180 -26 -194 -21 -9 4 -43 -1 -76 -9 -33 -9 -62 -16 -65 -16 -2 0 -7 17 -10 39 -2 21 -26 81 -52 132 -26 52 -45 85 -42 73 3 -13 -1 -21 -9 -21 -8 0 -14 3 -14 6 -1 3 -3 22 -6 43 -6 42 11 80 51 118 20 19 37 25 69 24 82 -2 133 -61 121 -143 -5 -38 -4 -44 6 -33 8 7 19 31 26 54 10 36 9 46 -7 77 -31 60 -45 74 -91 88 -62 18 -93 16 -136 -8 -62 -34 -93 -70 -109 -125 -13 -47 -13 -59 2 -125 51 -233 51 -235 23 -259 -19 -15 -36 -19 -78 -17 -45 2 -57 6 -74 29 l-19 26 27 118 c51 221 37 279 -87 352 -40 23 -92 29 -118 12z m217 -887 c-2 -21 -4 -4 -4 37 0 41 2 58 4 38 2 -21 2 -55 0 -75z m120 -10 c-2 -21 -4 -4 -4 37 0 41 2 58 4 38 2 -21 2 -55 0 -75z m-60 15 c-2 -18 -4 -6 -4 27 0 33 2 48 4 33 2 -15 2 -42 0 -60z m-125 -105 c36 -32 14 -123 -30 -123 -46 0 -70 83 -35 122 20 22 41 23 65 1z m325 -17 c14 -29 14 -39 3 -65 -17 -42 -57 -52 -82 -21 -36 44 -12 120 38 120 18 0 29 -9 41 -34z m-256 -352 c11 -14 10 -18 -5 -29 -10 -8 -24 -11 -32 -8 -17 6 -18 40 -1 46 20 9 24 8 38 -9z"/>
<path d="M510 314 c0 -10 5 -26 10 -34 8 -11 9 -8 6 14 -6 34 -16 47 -16 20z"/>
<path d="M1146 292 c-4 -13 -5 -26 -2 -29 10 -11 18 4 14 29 l-4 23 -8 -23z"/>
</g>
<g id="layer104" fill="#6d8088" stroke="none">
<path d="M1367 1523 c-13 -12 -7 -23 12 -23 10 0 34 -17 54 -39 48 -53 58 -120 27 -179 -12 -23 -29 -43 -38 -46 -38 -11 -183 -27 -193 -20 -6 3 -41 -2 -79 -12 -66 -17 -68 -18 -74 -53 -10 -61 -9 -61 29 -45 19 8 81 19 137 24 123 13 153 22 208 61 97 70 106 206 18 284 -26 24 -48 35 -69 35 -17 0 -28 4 -24 10 7 11 2 13 -8 3z"/>
<path d="M965 600 c-7 -12 2 -30 16 -30 12 0 12 27 0 35 -5 3 -12 1 -16 -5z"/>
<path d="M650 584 c0 -17 22 -14 28 4 2 7 -3 12 -12 12 -9 0 -16 -7 -16 -16z"/>
</g>
<g id="layer105" fill="#e8728b" stroke="none">
<path d="M560 1650 c-8 -5 -25 -10 -36 -10 -13 0 -31 -14 -47 -37 -32 -47 -41 -81 -29 -113 9 -25 9 -25 16 8 22 97 152 146 213 79 50 -54 56 -118 22 -213 -16 -43 -22 -84 -23 -151 -1 -102 10 -127 75 -171 29 -20 44 -23 94 -20 72 4 120 33 141 84 22 53 17 158 -11 249 -34 109 -33 151 6 203 49 67 132 70 188 7 31 -36 49 -94 36 -117 -5 -9 -5 -10 2 -3 6 6 15 24 21 42 11 34 1 65 -39 124 -26 37 -114 57 -169 39 -66 -22 -117 -73 -135 -135 -14 -48 -14 -59 1 -126 51 -233 51 -235 23 -259 -19 -15 -36 -19 -78 -17 -45 2 -57 6 -74 29 l-19 26 27 118 c51 221 37 279 -87 352 -40 23 -92 29 -118 12z"/>
<path d="M1360 1509 c0 -5 8 -9 19 -9 10 0 34 -17 54 -39 48 -53 58 -120 27 -179 -12 -23 -29 -43 -38 -46 -38 -11 -183 -27 -193 -20 -6 3 -41 -2 -79 -12 -66 -17 -68 -18 -74 -53 -10 -61 -9 -61 29 -45 19 8 81 19 137 24 123 13 153 22 208 61 94 68 105 201 24 280 -31 30 -114 58 -114 38z"/>
<path d="M222 1490 c-62 -38 -92 -117 -72 -192 29 -104 103 -149 278 -167 62 -6 124 -16 138 -21 14 -6 27 -10 30 -10 11 0 2 69 -10 79 -23 19 -117 43 -143 36 -36 -9 -185 16 -206 34 -32 27 -48 80 -41 130 5 35 16 55 45 85 22 21 39 40 39 42 0 10 -28 2 -58 -16z"/>
<path d="M460 1439 c7 -11 14 -18 17 -15 8 8 -5 36 -17 36 -7 0 -7 -6 0 -21z"/>
<path d="M224 1087 c-53 -10 -71 -20 -126 -69 -61 -54 -65 -59 -81 -130 -21 -89 -21 -102 -1 -161 25 -74 38 -71 31 7 -9 95 16 159 88 224 65 59 124 82 214 82 76 0 156 -34 228 -96 37 -31 44 -34 49 -19 10 25 -20 79 -58 108 -33 24 -90 41 -178 51 -25 3 -58 7 -75 10 -16 2 -58 -1 -91 -7z"/>
<path d="M1305 1088 c-195 -30 -243 -57 -261 -146 -9 -43 4 -41 66 12 29 25 69 53 89 63 52 25 167 29 230 8 66 -22 147 -95 178 -160 20 -44 22 -59 17 -122 -7 -80 4 -96 27 -40 19 43 16 161 -5 216 -11 30 -37 63 -79 102 -63 59 -62 58 -177 73 -14 2 -52 -1 -85 -6z"/>
<path d="M353 941 c-23 -11 -48 -32 -56 -48 -8 -15 -27 -39 -41 -52 -14 -14 -26 -32 -26 -41 0 -10 -7 -37 -15 -61 -13 -36 -14 -52 -4 -89 6 -25 13 -56 14 -69 2 -13 17 -43 34 -66 17 -24 31 -47 31 -51 0 -4 31 -37 69 -73 60 -57 91 -97 91 -115 0 -3 -17 -13 -37 -23 l-38 -18 43 -3 c52 -4 72 10 72 50 0 43 -32 97 -88 149 -63 59 -98 119 -111 192 -18 100 8 188 74 245 35 32 54 39 110 44 l29 3 -27 18 c-42 27 -78 29 -124 8z"/>
<path d="M1236 953 c-10 -3 -33 -14 -50 -24 l-31 -19 44 0 c82 0 146 -57 177 -157 32 -102 -13 -240 -107 -328 -83 -78 -108 -136 -76 -179 10 -13 24 -17 62 -14 l50 3 -39 17 c-34 16 -37 21 -31 45 3 15 33 51 65 81 85 77 144 171 159 255 10 61 10 75 -9 137 -12 39 -25 70 -29 70 -5 0 -25 23 -45 50 -23 31 -43 50 -56 50 -11 0 -20 4 -20 8 0 9 -36 12 -64 5z"/>
</g>
<g id="layer106" fill="#fbaebf" stroke="none">
<path d="M721 1579 c-1 -21 24 -43 41 -36 8 3 6 6 -5 6 -10 1 -22 11 -27 24 -6 15 -9 17 -9 6z"/>
<path d="M941 1578 c-1 -9 -9 -22 -18 -27 -10 -6 -13 -11 -7 -11 17 0 37 27 31 42 -4 8 -6 7 -6 -4z"/>
<path d="M736 1505 c-3 -9 -6 -29 -6 -44 0 -15 -8 -52 -18 -82 -24 -68 -34 -122 -23 -115 4 3 17 -10 27 -29 23 -44 37 -46 22 -4 -9 27 -8 34 9 48 26 21 47 101 27 101 -8 0 -14 9 -14 20 0 11 5 20 10 20 6 0 10 7 10 16 0 8 5 12 10 9 6 -3 10 0 10 8 0 8 -9 17 -20 20 -11 3 -20 1 -20 -5 0 -5 -4 -6 -10 -3 -17 10 -12 38 6 31 10 -4 14 -1 12 6 -7 19 -25 20 -32 3z m-10 -192 c-11 -11 -19 6 -11 24 8 17 8 17 12 0 3 -10 2 -21 -1 -24z"/>
<path d="M902 1495 c-7 -15 -16 -24 -20 -21 -4 2 -9 -4 -9 -15 -1 -11 2 -17 8 -14 5 4 9 -1 9 -9 0 -9 5 -16 10 -16 13 0 13 -33 -1 -47 -13 -13 4 -75 27 -93 17 -15 18 -47 2 -53 -8 -4 -7 -6 4 -6 9 -1 26 14 37 32 l20 33 -21 69 c-11 38 -23 90 -27 114 -7 52 -23 62 -39 26z m28 -15 c0 -11 -4 -20 -10 -20 -5 0 -10 9 -10 20 0 11 5 20 10 20 6 0 10 -9 10 -20z m30 -151 c0 -11 -4 -17 -10 -14 -5 3 -10 13 -10 21 0 8 5 14 10 14 6 0 10 -9 10 -21z"/>
<path d="M1420 1490 c0 -5 8 -10 18 -11 10 0 12 -3 5 -6 -9 -3 -7 -13 8 -32 16 -22 22 -47 25 -105 2 -46 0 -75 -6 -71 -5 3 -18 -3 -30 -15 -11 -11 -28 -20 -38 -20 -9 0 -23 -9 -30 -20 -7 -11 -18 -17 -27 -14 -11 4 -15 0 -15 -16 0 -21 4 -22 41 -17 38 5 91 37 61 37 -7 0 -12 5 -12 11 0 7 10 9 24 5 19 -5 29 0 45 21 29 36 37 73 20 85 -11 7 -11 11 -1 15 16 6 15 43 -3 86 -20 47 -85 99 -85 67z"/>
<path d="M201 1471 c-14 -12 -20 -25 -15 -32 4 -7 3 -9 -3 -6 -6 4 -16 -7 -22 -25 -14 -39 -14 -81 -1 -73 6 3 10 -1 10 -10 0 -9 -4 -13 -10 -10 -15 9 -12 -12 6 -50 29 -62 96 -102 182 -110 57 -5 86 5 67 23 -4 4 -10 1 -12 -5 -3 -7 -12 -13 -20 -13 -9 0 -13 6 -9 15 7 18 -5 20 -23 3 -12 -11 -13 -10 -7 6 5 15 2 17 -14 13 -13 -3 -25 2 -34 15 -10 14 -15 16 -18 6 -3 -8 -14 -3 -34 17 -16 16 -33 30 -38 30 -5 0 -11 6 -13 13 -3 6 0 12 7 12 6 0 8 5 4 11 -21 35 -22 83 -1 128 11 25 26 49 31 53 8 5 8 8 0 8 -6 0 -21 -9 -33 -19z m46 -267 c-9 -9 -28 6 -21 18 4 6 10 6 17 -1 6 -6 8 -13 4 -17z"/>
<path d="M687 1223 c-4 -3 -7 -13 -7 -20 0 -12 3 -12 15 1 8 8 15 17 15 20 0 8 -15 7 -23 -1z"/>
<path d="M964 1216 c-3 -8 -4 -23 -2 -32 3 -20 28 -32 28 -14 0 6 -4 8 -10 5 -5 -3 -10 3 -10 15 0 12 5 18 10 15 6 -3 10 -2 10 4 0 17 -20 23 -26 7z"/>
<path d="M1305 1178 c6 -14 2 -18 -14 -18 -12 0 -21 5 -21 11 0 5 -5 7 -10 4 -16 -10 -1 -25 25 -25 29 0 42 17 26 33 -9 9 -11 8 -6 -5z"/>
<path d="M287 1065 c-7 -17 -37 -21 -37 -4 0 7 -12 9 -32 5 -18 -3 -43 -7 -55 -9 -36 -6 -105 -67 -100 -88 3 -10 -4 -26 -14 -35 -20 -18 -26 -54 -9 -54 18 0 10 -22 -10 -27 -25 -7 -35 -39 -18 -60 9 -12 10 -17 1 -20 -8 -3 -7 -17 5 -51 l17 -47 5 85 c6 91 20 126 71 185 35 40 127 95 158 95 20 0 40 25 28 36 -2 3 -7 -2 -10 -11z"/>
<path d="M1370 1060 c0 -5 12 -13 28 -16 142 -35 251 -181 238 -319 -5 -57 -5 -59 9 -33 9 15 18 55 22 88 6 57 4 61 -16 67 -11 3 -21 13 -21 22 0 14 2 14 10 1 9 -13 10 -13 11 0 3 30 -3 45 -23 61 -11 9 -19 22 -16 30 6 18 -81 98 -107 98 -11 0 -33 3 -49 7 -19 5 -31 2 -37 -7 -7 -11 -12 -12 -29 -1 -11 7 -20 8 -20 2z"/>
<path d="M225 700 c0 -15 3 -26 8 -23 4 2 7 13 7 23 0 10 -3 21 -7 23 -5 3 -8 -8 -8 -23z"/>
<path d="M1391 654 c-1 -23 -8 -59 -17 -79 -12 -29 -13 -40 -3 -45 6 -4 9 -12 5 -18 -3 -5 1 -13 10 -16 12 -4 15 -2 10 9 -3 8 0 14 6 12 7 -1 13 10 13 25 1 15 10 34 20 43 19 14 19 14 1 15 -12 0 -16 5 -12 15 3 8 1 15 -4 15 -6 0 -10 7 -10 15 0 8 5 15 10 15 6 0 10 5 10 11 0 6 -6 9 -14 6 -8 -3 -17 -1 -20 6 -2 7 -5 -7 -5 -29z"/>
<path d="M244 666 c-3 -9 -3 -28 0 -42 6 -23 4 -26 -11 -20 -14 6 -13 2 5 -17 12 -13 22 -32 22 -43 0 -10 9 -25 20 -32 11 -7 20 -18 20 -26 0 -7 10 -21 23 -32 l22 -19 -18 22 c-19 21 -18 22 3 16 23 -6 23 -6 -3 38 -15 25 -31 68 -37 96 -13 57 -35 87 -46 59z"/>
<path d="M1335 494 c-17 -27 -17 -27 4 -21 18 4 20 3 11 -8 -7 -8 -10 -22 -7 -32 4 -15 5 -14 6 4 1 13 10 24 22 28 12 4 17 10 12 14 -5 3 -14 14 -20 24 -9 17 -11 16 -28 -9z"/>
</g>


</svg>