<svg viewBox="0 0 480 480.584" xmlns="http://www.w3.org/2000/svg"><path d="M88.293 280c0 22.09-17.91 40-40 40-22.094 0-40-17.91-40-40s17.906-40 40-40c22.09 0 40 17.91 40 40zm0 0M200.293 320c0 22.09-17.91 40-40 40-22.094 0-40-17.91-40-40s17.906-40 40-40c22.09 0 40 17.91 40 40zm0 0" fill="#ffcd34"/><path d="M112.293 432c0 22.09-17.91 40-40 40-22.094 0-40-17.91-40-40s17.906-40 40-40c22.09 0 40 17.91 40 40zm0 0" fill="#008fcf"/><g fill="#226c8a"><path d="M56.293 280a8 8 0 11-16 0 8 8 0 0116 0zm0 0M168.293 320a8 8 0 11-16 0 8 8 0 0116 0zm0 0M80.293 432a8 8 0 11-16 0 8 8 0 0116 0zm0 0"/></g><path d="M97.89 20.055l11.833-9.254 21.379 8.855 1.84 14.93 11.566 11.566L159.438 48l8.855 21.367-9.258 11.848v16.387l9.258 11.832-8.856 21.375-14.93 1.84-11.566 11.566-1.84 14.93L109.724 168l-11.832-9.258H81.508L69.66 168l-21.367-8.855-1.84-14.93-11.578-11.567-14.926-1.84-8.855-21.374 9.254-11.832V81.215l-9.254-11.848L19.949 48l14.926-1.84 11.57-11.574 1.848-14.93 21.367-8.855 11.848 9.254zm0 0" fill="#53a2ab"/><path d="M122.926 89.398c0 18.356-14.88 33.235-33.235 33.235-18.351 0-33.23-14.88-33.23-33.235 0-18.351 14.879-33.23 33.23-33.23 18.356 0 33.235 14.879 33.235 33.23zm0 0" fill="#ffcd34"/><path d="M334.035 58.55L359.203 32l22.168 7.2 4.754 36.28 15.152 11.008 36-6.687 13.696 18.855-17.504 32.145 5.793 17.816 33.031 15.727v23.312l-33.031 15.727-5.793 17.816 17.48 32.145-13.695 18.855-36-6.687-15.152 11.008-4.73 36.28-22.169 7.2-25.168-26.55h-18.734L290.133 320l-22.168-7.2-4.754-36.28-15.152-11.008-36 6.687-13.696-18.855 17.48-32.145-5.792-17.816-33.031-15.727v-23.312l33.03-15.727 5.794-17.816-17.48-32.145 13.695-18.855 36 6.687L263.21 75.48l4.754-36.28 22.168-7.2L315.3 58.55zm0 0" fill="#008fcf"/><path d="M440.66 361.496l25.375 7.2 5.527 16.616-16 20.977-1.847 9.008 6.402 25.598-11.586 13.09-26.16-3.368-8.726 2.903-18.938 18.402-17.152-3.524L367.387 444l-6.88-6.113-25.374-7.2-5.528-16.617 16-20.972 1.848-9.008-6.402-25.602 11.625-13.097 26.16 3.37 8.727-2.906 18.937-18.398 17.152 3.52 10.168 24.343zm0 0" fill="#e2c675"/><path d="M432.293 400c0 17.672-14.328 32-32 32-17.676 0-32-14.328-32-32s14.324-32 32-32c17.672 0 32 14.328 32 32zm0 0" fill="#53a2ab"/><path d="M392.293 176c0 39.766-32.238 72-72 72-39.766 0-72-32.234-72-72s32.234-72 72-72c39.762 0 72 32.234 72 72zm0 0" fill="#ffcd34"/><path d="M360.293 176c0 22.09-17.91 40-40 40-22.094 0-40-17.91-40-40s17.906-40 40-40c22.09 0 40 17.91 40 40zm0 0" fill="#53a2ab"/><path d="M472.293 24c0 8.836-7.164 16-16 16s-16-7.164-16-16 7.164-16 16-16 16 7.164 16 16zm0 0M216.293 16a8 8 0 11-16 0 8 8 0 0116 0zm0 0" fill="#fbcc34"/><path d="M89.691 130.633c22.774 0 41.235-18.461 41.235-41.235 0-22.77-18.461-41.23-41.235-41.23-22.77 0-41.23 18.46-41.23 41.23.027 22.762 18.469 41.207 41.23 41.235zm0-66.465c13.938 0 25.235 11.297 25.235 25.23 0 13.938-11.297 25.235-25.235 25.235-13.933 0-25.23-11.297-25.23-25.235.016-13.925 11.305-25.21 25.23-25.23zm0 0"/><path d="M448.43 355.383l-3.09-80.719 15.055-20.703-18.254-33.555 3.664-11.277 34.488-16.418v-33.422l-34.488-16.418-3.664-11.277 18.254-33.555-19.649-27.023L403.196 78l-9.598-6.977-4.961-37.863-31.762-10.328-26.277 27.719h-11.86l-26.277-27.719-31.77 10.328-1.55 11.809-111.114-6.617-7.488-7.489-2.07-16.8-29.985-12.461-13.359 10.437H84.293L70.898 1.602l-30 12.445-2.062 16.8-7.68 7.68-16.8 2.067L1.89 70.609 12.348 84v10.855L1.89 108.191l9.914 23.914L.765 273.641a46.139 46.139 0 00-.425 5.437v.297H.293V280a47.932 47.932 0 0067.375 43.879l47.344-19.727c-7.672 21.66 1.191 45.715 21.09 57.215l-73.13 23.563c-24.19 4.824-40.785 27.203-38.378 51.754C27 461.234 47.625 479.96 72.293 480h.422l294.578-15.45 4.512 10.817 25.437 5.219 20.649-20.059 5.257-1.742 28.551 3.68 17.242-19.426-7.05-27.91 1.12-5.434 17.458-22.886-8.176-24.641zM275.234 45.246l12.563-4.078 24.062 25.383h25.602l24.062-25.383 12.57 4.078 4.536 34.684 20.719 15.054 34.398-6.398 7.754 10.68L424.797 130l7.918 24.36 31.578 15.038v13.204l-31.578 15.039L424.797 222l16.703 30.727-7.754 10.68-34.398-6.4-20.72 15.056-4.534 34.68-12.57 4.081-24.063-25.383h-25.602l-24.062 25.383-12.563-4.082-4.543-34.664-20.718-15.062-34.403 6.398-7.758-10.68 16.704-30.718-7.91-24.368-31.579-15.039v-13.203l31.578-15.039 7.91-24.367-16.703-30.719 7.758-10.68L249.973 95l20.718-15.078zM20.293 68.121l5.277-12.8 13.035-1.602 15.454-15.43 1.601-13.031 12.8-5.281 10.345 8.078h21.879L110.98 20l12.801 5.281 1.598 13.024 15.418 15.457 13.031 1.597 5.29 12.801-8.083 10.344v21.879l8.082 10.344-5.289 12.8-13.031 1.602-15.457 15.457-1.602 13.031-12.797 5.285-10.343-8.078h-21.84l-10.348 8.078-12.797-5.285-1.601-13.031-15.442-15.54-13.023-1.597-5.277-12.8 8.078-10.344v-21.84zm-4 212.024l.094-1.25C18 262.41 32.586 250.293 49.09 251.735s28.77 15.902 27.496 32.421c-1.27 16.516-15.602 28.93-32.129 27.832-16.531-1.101-29.094-15.304-28.164-31.843zm144 7.855c17.672 0 32 14.328 32 32s-14.328 32-32 32c-17.676 0-32-14.328-32-32s14.324-32 32-32zm-120 144a31.993 31.993 0 0118.543-28.937l7.734-2.489A31.97 31.97 0 0197.7 412.82a31.966 31.966 0 013.16 33.301A31.967 31.967 0 0172.59 464h-.395c-17.636-.055-31.902-14.363-31.902-32zm69.39 30.023a47.858 47.858 0 009.872-38.523 47.843 47.843 0 00-22.672-32.676l78.137-25.136a47.999 47.999 0 0032.835-36.754A48.006 48.006 0 00191 282.62a48.015 48.015 0 00-48.781-7.047l-48.606 20.258c7.02-19.977.094-42.191-17.035-54.64-17.133-12.446-40.398-12.169-57.23.68l8-102.063 3.879.48 7.68 7.68 2.066 16.8 30.007 12.415 13.36-10.399h10.855l13.352 10.399 29.922-12.383 2.07-16.801 7.68-7.68 16.8-2.074 12.418-29.988-10.402-13.356V84l10.403-13.36-6.145-14.847 85.8 5.078-1.327 10.16L246.164 78l-37.543-6.984-19.648 27.023 18.246 33.555-3.656 11.254-34.489 16.441v33.422l34.48 16.418 3.665 11.277-18.246 33.555 19.648 27.023L246.164 274l9.602 6.969 4.957 37.87 31.77 10.329 26.28-27.719h11.856l26.277 27.719 31.77-10.328 4.96-37.863 9.598-6.977 26.305 4.895 1.914 50.058-2.043-4.89-25.445-5.231-20.695 20.047-5.258 1.754-28.551-3.68-17.242 19.422 7.035 27.914-1.121 5.43-17.457 22.883 8.199 24.644 27.687 7.875 4.153 3.68v.054zm338.403-59.128l-2.594 12.593 5.863 23.254-6.007 6.762-23.785-3.047-12.192 4.047-17.207 16.695-8.855-1.808-9.235-22.125-9.597-8.54-23.067-6.558-2.863-8.594 14.547-19.062 2.582-12.582-5.864-23.258 6.008-6.77 23.785 3.059 12.2-4.05 17.215-16.704 8.855 1.824 9.242 22.137 9.598 8.52 23.066 6.55 2.856 8.594zm0 0"/><path d="M64.293 280c0 8.836-7.164 16-16 16s-16-7.164-16-16 7.164-16 16-16 16 7.164 16 16zm0 0M176.293 320c0 8.836-7.164 16-16 16s-16-7.164-16-16 7.164-16 16-16 16 7.164 16 16zm0 0M88.293 432c0 8.836-7.164 16-16 16s-16-7.164-16-16 7.164-16 16-16 16 7.164 16 16zm0 0M400.293 360c-22.094 0-40 17.91-40 40s17.906 40 40 40c22.09 0 40-17.91 40-40-.027-22.082-17.922-39.973-40-40zm0 64c-13.254 0-24-10.746-24-24s10.746-24 24-24 24 10.746 24 24-10.746 24-24 24zm0 0M320.293 256c44.184 0 80-35.816 80-80s-35.816-80-80-80-80 35.816-80 80c.047 44.164 35.836 79.953 80 80zm0-144c35.344 0 64 28.652 64 64s-28.656 64-64 64c-35.348 0-64-28.652-64-64 .039-35.328 28.668-63.96 64-64zm0 0"/><path d="M320.293 224c26.508 0 48-21.492 48-48s-21.492-48-48-48c-26.512 0-48 21.492-48 48 .027 26.5 21.5 47.973 48 48zm0-80c17.672 0 32 14.328 32 32s-14.328 32-32 32c-17.676 0-32-14.328-32-32s14.324-32 32-32zm0 0M432.293 24c0 13.254 10.746 24 24 24s24-10.746 24-24-10.746-24-24-24-24 10.746-24 24zm32 0a8 8 0 11-16 0 8 8 0 0116 0zm0 0M224.293 16c0 8.836-7.164 16-16 16s-16-7.164-16-16 7.164-16 16-16 16 7.164 16 16zm0 0"/></svg>