<svg viewBox="0 0 510 510" xmlns="http://www.w3.org/2000/svg" xmlns:xlink="http://www.w3.org/1999/xlink"><linearGradient id="a"><stop offset="0" stop-color="#60b7ff"/><stop offset=".586" stop-color="#0182fc"/><stop offset="1" stop-color="#2740b0"/></linearGradient><linearGradient id="g" gradientTransform="rotate(90 -1204.389 1803.392)" gradientUnits="userSpaceOnUse" x1="-2853.068" x2="-2718.728" xlink:href="#a" y1="310.516" y2="310.516"/><linearGradient id="h" gradientTransform="rotate(90 -1204.389 1803.392)" gradientUnits="userSpaceOnUse" x1="-2787.314" x2="-2652.974" xlink:href="#a" y1="376.27" y2="376.27"/><linearGradient id="b"><stop offset="0" stop-color="#fd8087"/><stop offset=".521" stop-color="#fb2b3a"/><stop offset="1" stop-color="#d90d80"/></linearGradient><linearGradient id="i" gradientTransform="rotate(45 -950.028 1824.658)" gradientUnits="userSpaceOnUse" x1="-1254.466" x2="-1133.855" xlink:href="#b" y1="-.093" y2="-.093"/><linearGradient id="j" gradientTransform="rotate(45 -1341.39 1767.36)" gradientUnits="userSpaceOnUse" x1="-1399.658" x2="-1221.09" xlink:href="#b" y1="-293.604" y2="-293.604"/><linearGradient id="c"><stop offset="0" stop-color="#eaf6ff"/><stop offset=".521" stop-color="#d8ecfe"/><stop offset="1" stop-color="#b3dafe"/></linearGradient><linearGradient id="k" gradientUnits="userSpaceOnUse" x1="300.611" x2="342.718" xlink:href="#c" y1="161.807" y2="161.807"/><linearGradient id="l" gradientTransform="rotate(45 -1341.39 1767.36)" gradientUnits="userSpaceOnUse" x1="-1348.158" x2="-1205.144" xlink:href="#c" y1="-430.514" y2="-430.514"/><linearGradient id="m" gradientTransform="rotate(45 -1341.39 1767.36)" gradientUnits="userSpaceOnUse" x1="-1438.825" x2="-1234.119" xlink:href="#c" y1="-431.125" y2="-431.125"/><linearGradient id="n" gradientTransform="rotate(45 -1341.39 1767.36)" gradientUnits="userSpaceOnUse" x1="-1390.59" x2="-1159.452" xlink:href="#c" y1="-644.343" y2="-644.343"/><linearGradient id="o" gradientTransform="rotate(45 -1341.39 1767.36)" gradientUnits="userSpaceOnUse" x1="-1403.59" x2="-1208.587" xlink:href="#c" y1="-644.342" y2="-644.342"/><linearGradient id="p" gradientTransform="rotate(45 -1341.39 1767.36)" gradientUnits="userSpaceOnUse" x1="-1402.679" x2="-1152.648" xlink:href="#a" y1="-677.43" y2="-677.43"/><linearGradient id="q" gradientTransform="rotate(45 -1341.39 1767.36)" gradientUnits="userSpaceOnUse" x1="-1453.59" x2="-1190.163" xlink:href="#a" y1="-677.458" y2="-677.458"/><linearGradient id="d"><stop offset="0" stop-color="#fef056"/><stop offset=".521" stop-color="#f4d902"/><stop offset="1" stop-color="#fe9738"/></linearGradient><linearGradient id="r" gradientUnits="userSpaceOnUse" x1="349.866" x2="494.644" xlink:href="#d" y1="87.439" y2="87.439"/><linearGradient id="s" gradientUnits="userSpaceOnUse" x1="347.564" x2="441.815" xlink:href="#d" y1="58.647" y2="58.647"/><linearGradient id="t" gradientUnits="userSpaceOnUse" x1="331.675" x2="464.201" xlink:href="#d" y1="87.439" y2="87.439"/><linearGradient id="e"><stop offset="0" stop-color="#814aa0"/><stop offset="1" stop-color="#192a7d"/></linearGradient><linearGradient id="u" gradientUnits="userSpaceOnUse" x1="446.228" x2="542.269" xlink:href="#e" y1="26.674" y2="26.674"/><linearGradient id="v" gradientTransform="rotate(44.97 -1194.51 1411.485) scale(.817 1)" gradientUnits="userSpaceOnUse" x1="-1116.831" x2="-852.042" xlink:href="#e" y1="-430.514" y2="-430.514"/><linearGradient id="w" gradientTransform="rotate(45 -1341.39 1767.36)" gradientUnits="userSpaceOnUse" x1="-1212.215" x2="-1010.492" xlink:href="#c" y1="-431.125" y2="-431.125"/><linearGradient id="f"><stop offset="0" stop-color="#d8ecfe"/><stop offset=".567" stop-color="#b3dafe"/><stop offset=".996" stop-color="#8ac9fe"/></linearGradient><linearGradient id="x" gradientTransform="rotate(45 -1341.39 1767.36)" gradientUnits="userSpaceOnUse" x1="-1308.356" x2="-1049.021" xlink:href="#f" y1="-431.125" y2="-431.125"/><linearGradient id="y" gradientTransform="rotate(45 -1341.39 1767.36)" gradientUnits="userSpaceOnUse" x1="-1260.522" x2="-1061.867" xlink:href="#e" y1="-478.211" y2="-478.211"/><linearGradient id="z" gradientTransform="rotate(45 -1341.39 1767.36)" gradientUnits="userSpaceOnUse" x1="-1260.522" x2="-1061.916" xlink:href="#e" y1="-478.211" y2="-478.211"/><linearGradient id="A" gradientTransform="rotate(45 -1341.39 1767.36)" gradientUnits="userSpaceOnUse" x1="-1260.522" x2="-1061.916" xlink:href="#e" y1="-384.039" y2="-384.039"/><linearGradient id="B" gradientTransform="rotate(44.97 -1194.51 1411.485) scale(.817 1)" gradientUnits="userSpaceOnUse" x1="-1533.608" x2="-1268.819" xlink:href="#e" y1="-430.514" y2="-430.514"/><linearGradient id="C" gradientTransform="rotate(45 -1341.39 1767.36)" gradientUnits="userSpaceOnUse" x1="-1553.046" x2="-1351.323" xlink:href="#c" y1="-431.125" y2="-431.125"/><linearGradient id="D" gradientTransform="rotate(45 -1341.39 1767.36)" gradientUnits="userSpaceOnUse" x1="-1649.187" x2="-1389.853" xlink:href="#f" y1="-431.125" y2="-431.125"/><linearGradient id="E" gradientTransform="rotate(45 -1341.39 1767.36)" gradientUnits="userSpaceOnUse" x1="-1601.354" x2="-1402.698" xlink:href="#e" y1="-478.211" y2="-478.211"/><linearGradient id="F" gradientTransform="rotate(45 -1341.39 1767.36)" gradientUnits="userSpaceOnUse" x1="-1601.354" x2="-1402.747" xlink:href="#e" y1="-478.211" y2="-478.211"/><linearGradient id="G" gradientTransform="rotate(45 -1341.39 1767.36)" gradientUnits="userSpaceOnUse" x1="-1601.354" x2="-1402.747" xlink:href="#e" y1="-384.04" y2="-384.04"/><path d="M222.734 175.12l113.368 113.368 18.14-18.14L240.874 156.98c-6.14 5.95-12.19 12-18.14 18.14z" fill="url(#g)"/><path d="M156.98 240.874l113.368 113.368 18.14-18.14L175.12 222.734c-6.14 5.95-12.19 12-18.14 18.14z" fill="url(#h)"/><path d="M173.192 316.35c-23.167 4.038-46.745 12.512-69.479 24.717-6.586 3.536-9.69 11.777-5.889 15.577l56.754 56.754c3.8 3.8 12.041.697 15.577-5.889 12.205-22.734 20.68-46.312 24.717-69.479 2.707-14.63-7.049-24.386-21.68-21.68z" fill="url(#i)"/><path d="M154.577 413.393l-17.685-17.685c3.804 3.804 12.042.7 15.578-5.89l.068-.127c3.96-7.388 2.542-16.51-3.385-22.437l-32.626-32.626c8.337-3.91 16.758-7.311 25.201-10.168 10.493-3.564 21.015-6.293 31.459-8.11a25.758 25.758 0 014.441-.438c5.339-.078 9.793 1.662 12.905 4.773 3.932 3.931 5.685 10.027 4.335 17.345-1.817 10.444-4.54 20.973-8.103 31.466-2.857 8.443-6.258 16.865-10.168 25.201a267.536 267.536 0 01-6.442 12.806c-3.536 6.591-11.774 9.695-15.578 5.89z" fill="url(#j)"/><circle cx="349.416" cy="161.806" fill="url(#k)" r="26.063"/><path d="M346.115 232.442l-134.18 134.18c-7.746 7.746-20.304 7.746-28.05 0L144.6 327.337c-7.746-7.746-7.746-20.304 0-28.05l134.18-134.18c18.594-18.594 48.741-18.594 67.335 0 18.594 18.594 18.594 48.741 0 67.335z" fill="url(#l)"/><path d="M346.547 164.675a47.41 47.41 0 00-17.267-11.031c5.381 14.695 3.287 31.508-6.292 44.547l-17.925-17.925c-2.696-2.696-7.036-3.163-10.05-.827a7.505 7.505 0 00-.736 11.254l4.847 4.847c7.538 7.538 7.538 19.759 0 27.297l-33.273 33.273-18.316-18.316c-2.696-2.696-7.036-3.163-10.05-.827a7.505 7.505 0 00-.736 11.254l4.847 4.847c7.538 7.538 7.538 19.759 0 27.297l-33.273 33.273-18.316-18.316c-2.696-2.696-7.036-3.163-10.05-.827a7.505 7.505 0 00-.736 11.254l4.847 4.847c7.538 7.538 7.538 19.759 0 27.297-7.746 7.746-20.304 7.746-28.05 0l28.298 28.298c7.746 7.746 20.304 7.746 28.05 0l134.18-134.18c18.596-18.595 18.596-48.742.001-67.336z" fill="url(#m)"/><path d="M501.777 153.583c-43.99 43.99-112.054 47.248-152.026 7.277S313.038 52.824 357.028 8.834s188.739 100.759 144.749 144.749z" fill="url(#n)"/><path d="M453.331 39.595c31.362 34.66 50.96 76.103 30.76 96.303-40.695 40.695-101.99 46.526-142.59 15.527a93.958 93.958 0 008.25 9.435c39.971 39.971 108.035 36.713 152.025-7.277 23.791-23.791-7.622-77.05-48.445-113.988z" fill="url(#o)"/><path d="M501.724 153.509c-11.501 11.501-26.41 6.623-46.511-2.503-21.539-9.779-48.524-24.953-67.634-46.112-9.319-10.319-17.588-21.234-24.078-32.007-2.216-3.679.461-7.342-1.31-10.959-2.103-4.295-8.563-8.525-9.947-12.641-5.49-16.327-4.938-30.86 4.729-40.527 43.993-43.99 188.742 100.759 144.751 144.749z" fill="url(#p)"/><path d="M453.331 39.595c31.362 34.66 50.96 76.103 30.76 96.303-20.199 20.199-60.642-.398-95.303-31.76 5.644 6.237 10.669 13.255 16.912 18.89 10.305 9.301 21.203 17.559 31.959 24.038 3.675 2.214 11.431.122 15.044 1.891 4.295 2.103 4.43 7.959 8.547 9.343 16.328 5.491 30.86 4.95 40.527-4.718 23.79-23.79-7.623-77.049-48.446-113.987z" fill="url(#q)"/><g><path d="M490.28 20.331a12.833 12.833 0 00-12.27-3.35l-39.57 10.19-86.13 22.19c2.54 7.58 6.39 15.54 11.24 23.59l75.39-19.42-51.36 51.36a246.39 246.39 0 0018.14 18.14l.6-.6 50.76-50.76-19.42 75.39c8.05 4.85 16.01 8.7 23.59 11.24l22.19-86.13 10.19-39.57c1.13-4.4-.14-9.06-3.35-12.27z" fill="url(#r)"/><path d="M448.22 44.331l-9.2 9.2-75.46 19.43c-.01 0-.01-.01-.01-.01-1.2-1.98-2.33-3.96-3.4-5.94z" fill="url(#s)"/><path d="M493.63 32.601l-10.19 39.57-22.19 86.13c-7.58-2.54-15.54-6.39-23.59-11.24l19.42-75.39-.03.03-51.33 51.33a243.46 243.46 0 01-13.44-13.07l65.88-65.88 5.61-5.61c1.62-1.62 2.78-3.65 3.35-5.87 1.1-4.29-.09-8.81-3.12-12.01l14.01-3.61c4.39-1.13 9.06.14 12.27 3.35s4.48 7.87 3.35 12.27z" fill="url(#t)"/></g><circle cx="483.938" cy="26.674" fill="url(#u)" r="26.063"/><g><path d="M498.174 357.113L393.892 252.83c-8.774-8.774-24.642-7.184-35.372 3.546L256.376 358.52c-10.73 10.73-12.32 26.598-3.546 35.372l104.283 104.283c8.774 8.775 24.642 7.184 35.372-3.546l102.144-102.144c10.729-10.73 12.32-26.598 3.545-35.372z" fill="url(#v)"/><path d="M504.06 356.23L394.774 246.944c-9.195-9.195-25.825-7.529-37.069 3.716L250.66 357.705c-11.244 11.244-12.911 27.874-3.716 37.069L356.23 504.061c9.195 9.195 25.825 7.529 37.069-3.716L500.345 393.3c11.244-11.245 12.911-27.874 3.715-37.07zm-17.934 27.325l-35.982 35.982c-4.406 4.406-10.899 5.057-14.503 1.454l-40.299-40.299c-3.603-3.603-2.952-10.096 1.454-14.503l35.982-35.982c4.406-4.406 10.899-5.057 14.503-1.454l40.299 40.299c3.603 3.604 2.953 10.097-1.454 14.503zM381.952 263.424l40.299 40.299c3.603 3.603 2.952 10.096-1.454 14.503l-35.982 35.982c-4.406 4.406-10.899 5.057-14.503 1.454l-40.299-40.299c-3.603-3.603-2.952-10.096 1.454-14.503l35.982-35.982c4.407-4.406 10.9-5.057 14.503-1.454zM264.878 367.449l35.982-35.982c4.406-4.406 10.899-5.057 14.503-1.454l40.299 40.299c3.603 3.603 2.952 10.096-1.454 14.503l-35.982 35.982c-4.406 4.406-10.899 5.057-14.503 1.454l-40.299-40.299c-3.603-3.603-2.952-10.096 1.454-14.503zM369.052 487.58l-40.299-40.299c-3.603-3.603-2.952-10.096 1.454-14.503l35.982-35.982c4.406-4.406 10.899-5.057 14.503-1.454l40.299 40.299c3.603 3.603 2.952 10.096-1.454 14.503l-35.982 35.982c-4.406 4.407-10.899 5.058-14.503 1.454z" fill="url(#w)"/><path d="M504.06 356.23l-12.035-12.035c9.195 9.195 7.529 25.825-3.716 37.069l-1.262 1.262c-.288.352-.591.698-.921 1.028l-35.982 35.982a13.8 13.8 0 01-1.028.921l-28.658 28.658c-.288.352-.591.698-.921 1.028l-35.982 35.982a13.8 13.8 0 01-1.028.921l-1.262 1.262c-11.244 11.244-27.874 12.911-37.069 3.716l12.035 12.035c9.196 9.196 25.825 7.529 37.069-3.716L500.345 393.3c11.244-11.245 12.911-27.874 3.715-37.07z" fill="url(#x)"/><g><path d="M487.58 369.052l-40.299-40.299 22.614 22.614c3.603 3.603 2.952 10.096-1.454 14.503l-35.982 35.982c-4.406 4.406-10.899 5.057-14.503 1.454l17.685 17.685c3.603 3.603 10.097 2.952 14.503-1.454l35.982-35.982c4.407-4.406 5.057-10.899 1.454-14.503z" fill="url(#y)"/><path d="M422.251 303.723l-17.685-17.685c3.603 3.603 2.952 10.096-1.454 14.503l-35.982 35.982c-4.406 4.406-10.899 5.057-14.503 1.454l17.685 17.685c3.603 3.603 10.097 2.952 14.503-1.454l35.982-35.982c4.406-4.406 5.057-10.899 1.454-14.503z" fill="url(#z)"/><g fill="url(#A)"><path d="M355.661 370.313l-17.685-17.685c3.603 3.603 2.952 10.096-1.454 14.503l-35.982 35.982c-4.406 4.406-10.899 5.057-14.503 1.454l17.685 17.685c3.603 3.603 10.097 2.953 14.503-1.454l35.982-35.982c4.407-4.407 5.058-10.9 1.454-14.503zM420.991 435.642l-17.685-17.685c3.603 3.603 2.952 10.096-1.454 14.503l-35.982 35.982c-4.406 4.406-10.899 5.057-14.503 1.454l17.685 17.685c3.603 3.603 10.097 2.953 14.503-1.454l35.982-35.982c4.406-4.407 5.057-10.9 1.454-14.503z"/></g></g></g><g><path d="M257.17 116.108L152.887 11.826c-8.774-8.774-24.642-7.184-35.372 3.546L15.371 117.515c-10.73 10.73-12.32 26.597-3.546 35.372L116.108 257.17c8.774 8.774 24.642 7.184 35.372-3.546L253.624 151.48c10.73-10.729 12.321-26.597 3.546-35.372z" fill="url(#B)"/><path d="M263.056 115.226L153.77 5.94c-9.195-9.196-25.825-7.529-37.069 3.716L9.656 116.7c-11.245 11.245-12.912 27.874-3.716 37.07l109.286 109.286c9.196 9.195 25.825 7.529 37.069-3.716L259.34 152.295c11.245-11.244 12.912-27.874 3.716-37.069zm-17.934 27.325l-35.982 35.982c-4.406 4.406-10.899 5.057-14.503 1.454l-40.299-40.299c-3.603-3.603-2.952-10.096 1.454-14.503l35.982-35.982c4.406-4.406 10.899-5.057 14.503-1.454l40.299 40.299c3.603 3.603 2.952 10.096-1.454 14.503zM140.948 22.42l40.299 40.299c3.603 3.603 2.952 10.096-1.454 14.503l-35.982 35.982c-4.406 4.406-10.899 5.057-14.503 1.454l-40.298-40.3c-3.603-3.603-2.952-10.096 1.454-14.503l35.982-35.982c4.405-4.406 10.898-5.056 14.502-1.453zM23.874 126.445l35.982-35.982c4.406-4.406 10.899-5.057 14.503-1.454l40.299 40.299c3.603 3.603 2.952 10.096-1.454 14.503l-35.982 35.982c-4.406 4.406-10.899 5.057-14.503 1.454L22.42 140.948c-3.603-3.604-2.952-10.097 1.454-14.503zm104.174 120.131l-40.299-40.299c-3.603-3.603-2.952-10.096 1.454-14.503l35.982-35.982c4.406-4.406 10.899-5.057 14.503-1.454l40.299 40.299c3.603 3.603 2.952 10.096-1.454 14.503l-35.982 35.982c-4.407 4.406-10.9 5.057-14.503 1.454z" fill="url(#C)"/><path d="M263.056 115.226l-12.035-12.035c9.195 9.195 7.529 25.825-3.716 37.069l-1.262 1.262c-.288.352-.591.698-.921 1.028l-35.982 35.982a13.8 13.8 0 01-1.028.921l-28.658 28.658c-.288.352-.591.698-.921 1.028l-35.982 35.982a13.8 13.8 0 01-1.028.921l-1.262 1.262c-11.244 11.244-27.874 12.911-37.069 3.716l12.035 12.035c9.196 9.196 25.825 7.529 37.069-3.716L259.34 152.295c11.245-11.244 12.912-27.874 3.716-37.069z" fill="url(#D)"/><g><path d="M246.576 128.048l-40.299-40.299 22.614 22.614c3.603 3.603 2.952 10.096-1.454 14.503l-35.982 35.982c-4.406 4.406-10.899 5.057-14.503 1.454l17.685 17.685c3.603 3.603 10.097 2.952 14.503-1.454l35.982-35.982c4.406-4.407 5.057-10.9 1.454-14.503z" fill="url(#E)"/><path d="M181.247 62.719l-17.685-17.685c3.603 3.603 2.952 10.097-1.454 14.503l-35.982 35.982c-4.406 4.406-10.899 5.057-14.503 1.454l17.685 17.685c3.603 3.603 10.097 2.953 14.503-1.454l35.982-35.982c4.406-4.407 5.057-10.9 1.454-14.503z" fill="url(#F)"/><g fill="url(#G)"><path d="M114.657 129.308l-17.685-17.685c3.603 3.603 2.952 10.096-1.454 14.503l-35.982 35.982c-4.406 4.406-10.899 5.057-14.503 1.454l17.685 17.685c3.603 3.603 10.097 2.953 14.503-1.454l35.982-35.982c4.407-4.406 5.057-10.899 1.454-14.503zM179.986 194.637l-17.685-17.685c3.603 3.603 2.952 10.097-1.454 14.503l-35.982 35.982c-4.406 4.406-10.899 5.057-14.503 1.454l17.685 17.685c3.603 3.603 10.097 2.953 14.503-1.454l35.982-35.982c4.407-4.406 5.058-10.899 1.454-14.503z"/></g></g></g></svg>