<svg viewBox="0 0 58 58" xmlns="http://www.w3.org/2000/svg"><g fill-rule="nonzero" transform="translate(0 -1)" fill="none"><path d="M23 26.46V56a3 3 0 01-3 3H3a3 3 0 01-3-3V21a3 3 0 013-3h11.55zM58 21v35a3 3 0 01-3 3H38a3 3 0 01-3-3V26.46L43.45 18H55a3 3 0 013 3z" fill="#67b9cc"/><path d="M58 31.21V56a3 3 0 01-3 3H38a3 3 0 01-3-3V42.54c2.88-3.93 9.46-9.99 23-11.33zM23 31.21V56a3 3 0 01-3 3H3a3 3 0 01-3-3V42.54c2.88-3.93 9.46-9.99 23-11.33z" fill="#2fa8cc"/><path d="M18.26 22.17a2 2 0 01-1.61.83H6.35a2 2 0 01-1.85-1.26L3 18h15z" fill="#35495e"/><path d="M17 56H6a1 1 0 010-2h11a1 1 0 010 2z" fill="#547580"/><path d="M39.74 22.17a2 2 0 001.61.83h10.3a2 2 0 001.85-1.26L55 18H42z" fill="#35495e"/><path d="M52 56H41a1 1 0 010-2h11a1 1 0 010 2z" fill="#547580"/><path d="M35.8 1.12A10.747 10.747 0 0029 5.66a10.747 10.747 0 00-6.8-4.54c-5.27-.93-9.99 3.57-10.19 9.24-.26 7.16 5.92 11.6 15.54 20.08a2.157 2.157 0 002.9 0c9.62-8.48 15.8-12.92 15.54-20.08-.2-5.67-4.92-10.17-10.19-9.24z" fill="#ff5364"/><path d="M45.99 10.36c.26 7.16-5.92 11.6-15.54 20.08A2.135 2.135 0 0129 31v-5.17a.9.9 0 01.37-.71l1.26-1a.86.86 0 000-1.41l-3.26-2.59a.86.86 0 010-1.41l3.26-2.59a.86.86 0 000-1.41l-3.26-2.59a.86.86 0 010-1.41l1.26-1A.9.9 0 0029 9V5.66a10.747 10.747 0 016.8-4.54c5.27-.93 9.99 3.57 10.19 9.24z" fill="#df4d60"/><path d="M16 12a1 1 0 01-1-1c0-2.6.741-4.522 2.2-5.723a6.515 6.515 0 014.991-1.184 1 1 0 11-.383 1.963 4.527 4.527 0 00-3.35.776C17.491 7.636 17 9.038 17 11a1 1 0 01-1 1z" fill="#fb7b76"/><circle cx="11.5" cy="35.5" fill="#fdd7ad" r="4.5"/><path d="M11.5 40a6.5 6.5 0 016.5 6.5V48a1 1 0 01-1 1H6a1 1 0 01-1-1v-1.5a6.5 6.5 0 016.5-6.5z" fill="#955ba5"/><circle cx="46.5" cy="35.5" fill="#fdd7ad" r="4.5"/><path d="M46.5 40a6.5 6.5 0 016.5 6.5V48a1 1 0 01-1 1H41a1 1 0 01-1-1v-1.5a6.5 6.5 0 016.5-6.5z" fill="#955ba5"/></g></svg>