<!DOCTYPE svg PUBLIC "-//W3C//DTD SVG 20010904//EN" "http://www.w3.org/TR/2001/REC-SVG-20010904/DTD/svg10.dtd">
<svg version="1.0" xmlns="http://www.w3.org/2000/svg" width="32px" height="32px" viewBox="0 0 320 320" preserveAspectRatio="xMidYMid meet">
<g id="layer101" fill="#0d3650" stroke="none">
 <path d="M93 273 l-63 -34 0 -79 0 -79 65 -34 65 -35 65 35 65 34 0 80 0 79 -62 32 c-35 18 -65 33 -68 34 -3 1 -33 -14 -67 -33z"/>
 </g>
<g id="layer102" fill="#9602ff" stroke="none">
 <path d="M93 272 l-63 -33 0 -79 0 -79 65 -34 65 -35 67 36 c75 40 75 40 -19 88 l-47 24 -3 72 -3 73 -62 -33z"/>
 </g>
<g id="layer103" fill="#b54eff" stroke="none">
 <path d="M93 273 l-63 -34 0 -73 0 -74 65 35 65 34 0 75 c0 41 -1 73 -2 73 -2 -1 -31 -17 -65 -36z"/>
 </g>
<g id="layer104" fill="#99ccff" stroke="none">
 <path d="M91 272 c-73 -39 -73 -40 22 -88 l47 -24 0 75 c0 41 -1 74 -2 74 -2 -1 -32 -17 -67 -37z"/>
 </g>

</svg>