<svg viewBox="0 0 58 58" xmlns="http://www.w3.org/2000/svg"><g fill-rule="nonzero" fill="none"><path d="M22.03 13.03l-.01 4v.04c-.01.31-.02.62-.02.93s.01.62.02.93L22 30.62V51.5a7.01 7.01 0 01-.13 1.31c-.1.487-.257.96-.47 1.41a3.612 3.612 0 01-.22.44c-.098.19-.212.37-.34.54a5.85 5.85 0 01-.82.97v.01A6.509 6.509 0 019.5 54 5.5 5.5 0 014 48.5a5.34 5.34 0 01.62-2.52A5 5 0 010 41c0-.844.217-1.674.63-2.41a4.786 4.786 0 011.26-1.5c-.05-.05-.09-.1-.14-.15a6.5 6.5 0 01.47-9.33 6 6 0 015.54-7.6 4.483 4.483 0 01-.69-1.72 4.48 4.48 0 012.9-5.01l.01-.01a34.511 34.511 0 013.08-2.04C16.57 9.17 18.7 9 20 9.56a3.725 3.725 0 012 3.12c.02.22.03.35.03.35z" fill="#fb7b76"/><path d="M39.38 45.98A5.34 5.34 0 0140 48.5a5.5 5.5 0 01-5.5 5.5A6.5 6.5 0 0122 51.5V30.62l.02-11.69c.124 2.557.8 5.058 1.98 7.33A18.007 18.007 0 0040 36c.22 0 .43 0 .65-.01A4.937 4.937 0 0144 41a5 5 0 01-4.62 4.98z" fill="#ff5364"/><g fill="#df4d60"><path d="M24 19v37a1.1 1.1 0 01-.02.18A6.525 6.525 0 0122 51.5V19a1 1 0 012 0zM17 16.5a1 1 0 01-2 0 3.5 3.5 0 00-4.66-3.3.922.922 0 01-.36.07 34.511 34.511 0 013.08-2.04A5.508 5.508 0 0117 16.5zM15 25a1 1 0 01-2 0 5 5 0 00-5-5h-.12c-.04 0-.08.01-.12.01a4.483 4.483 0 01-.69-1.72.955.955 0 01.57-.27c.12-.017.24-.023.36-.02a7.008 7.008 0 017 7zM6 39a1 1 0 01-1 1 7.378 7.378 0 01-4.37-1.41 4.786 4.786 0 011.26-1.5c-.05-.05-.09-.1-.14-.15A5.448 5.448 0 005 38a1 1 0 011 1zM13.7 32.985a7.436 7.436 0 005.007-2.185 1 1 0 00-1.414-1.414A5.5 5.5 0 017.9 25.5a1 1 0 00-2 0 7.507 7.507 0 005.747 7.285 3.511 3.511 0 01-2.859 2.194 1 1 0 10.223 1.988 5.532 5.532 0 004.689-3.982zM17.9 38a7.008 7.008 0 00-7 7c0 .027 0 .054.005.081A6.94 6.94 0 009.9 45a1 1 0 000 2 5.006 5.006 0 015 5 1 1 0 002 0 7 7 0 00-3.942-6.287A4.874 4.874 0 0112.9 45a5.006 5.006 0 015-5 1 1 0 000-2zM32.831 48.41a1 1 0 01-.973-1.237A4.89 4.89 0 0032 46a5.006 5.006 0 00-5-5 1 1 0 010-2 6.995 6.995 0 016.8 8.647 1 1 0 01-.969.763z"/><path d="M29 54a1 1 0 01-1-1 7.008 7.008 0 017-7 1 1 0 010 2 5.006 5.006 0 00-5 5 1 1 0 01-1 1zM28.5 45a1 1 0 01-1 1 5.51 5.51 0 00-5.5 5.5v-5.08A7.42 7.42 0 0127.5 44a1 1 0 011 1z"/></g><path d="M40 0c-9.163-.005-16.866 6.876-17.89 15.981C21.083 25.087 27.064 33.508 36 35.54a17.1 17.1 0 004 .46c1.006 0 2.01-.087 3-.26 9.204-1.581 15.67-9.94 14.889-19.246C57.108 7.188 49.339.024 40 0zm0 32c-7.732 0-14-6.268-14-14S32.268 4 40 4s14 6.268 14 14c-.008 7.729-6.271 13.992-14 14z" fill="#3b97d3"/><circle cx="40" cy="18" fill="#84b5cb" r="14"/><path d="M43 35.74V41h-7v-5.46a17.1 17.1 0 004 .46c1.006 0 2.01-.087 3-.26z" fill="#285680"/><path d="M36 41h7v11h-7z" fill="#84b5cb"/><path d="M36 41h7v11h-7z" fill="#f0c419"/><path d="M43 52v2.5a3.5 3.5 0 01-7 0V52z" fill="#285680"/><circle cx="37" cy="12" fill="#fff" r="3"/><circle cx="32" cy="17" fill="#fff" r="1"/><path d="M40 33c-8.284 0-15-6.716-15-15 0-8.284 6.716-15 15-15s15 6.716 15 15c-.01 8.28-6.72 14.99-15 15zm0-28c-7.18 0-13 5.82-13 13s5.82 13 13 13 13-5.82 13-13c-.008-7.176-5.824-12.992-13-13z" fill="#285680"/></g></svg>