<!DOCTYPE svg PUBLIC "-//W3C//DTD SVG 20010904//EN" "http://www.w3.org/TR/2001/REC-SVG-20010904/DTD/svg10.dtd">
<svg version="1.0"
  xmlns="http://www.w3.org/2000/svg" viewBox="0 0 7920 1380" preserveAspectRatio="xMidYMid meet">
  <g id="layer101" fill="#001c31" stroke="none">
    <path d="M30 1235 l0 -95 3929 0 c2162 0 3931 3 3933 8 2 4 2 46 0 95 l-3 87 -3930 0 -3929 0 0 -95z"/>
    <path d="M6980 968 c0 -24 2 -25 48 -20 63 6 115 -17 139 -60 16 -30 18 -69 21 -450 l3 -418 25 0 25 0 -3 422 c-3 400 -4 425 -23 462 -32 63 -64 80 -156 85 -78 3 -79 3 -79 -21z"/>
    <path d="M227 800 c-91 -23 -142 -65 -179 -145 -22 -48 -23 -63 -26 -342 l-4 -293 25 0 25 0 4 283 c3 261 5 285 24 327 40 85 115 130 218 130 107 0 180 -44 220 -130 19 -42 21 -66 24 -327 l4 -283 25 0 25 0 -4 288 c-4 275 -5 289 -27 340 -29 63 -93 123 -153 141 -57 18 -154 23 -201 11z"/>
    <path d="M3655 801 c-82 -13 -95 -20 -95 -47 0 -20 4 -24 18 -20 89 27 218 34 285 15 114 -31 163 -174 85 -246 -27 -24 -106 -65 -163 -83 -70 -22 -151 -68 -178 -100 -31 -36 -42 -83 -34 -147 6 -53 28 -87 86 -128 40 -28 50 -30 144 -33 78 -2 115 1 158 15 51 16 56 20 49 40 l-9 21 -72 -19 c-81 -21 -136 -24 -191 -9 -116 33 -153 163 -69 244 16 16 73 44 131 66 179 68 229 110 238 199 9 96 -36 173 -126 213 -48 22 -179 31 -257 19z"/>
    <path d="M4421 800 c-105 -22 -196 -104 -237 -213 -15 -42 -19 -78 -19 -182 0 -121 2 -134 27 -188 41 -86 79 -130 150 -168 58 -31 71 -34 169 -37 79 -3 121 0 163 12 59 18 63 22 43 50 -12 16 -15 16 -52 1 -59 -25 -171 -31 -236 -11 -153 44 -241 218 -210 415 31 202 141 291 345 278 50 -3 102 -9 114 -13 21 -6 23 -4 20 16 -2 16 -12 26 -33 32 -48 13 -196 18 -244 8z"/>
    <path d="M5103 800 c-126 -25 -218 -124 -248 -266 -39 -183 2 -354 106 -448 64 -57 120 -76 229 -76 109 0 165 19 228 75 125 112 158 366 72 542 -69 139 -218 206 -387 173z m183 -55 c70 -20 125 -71 160 -147 27 -59 29 -70 29 -194 0 -130 0 -132 -35 -200 -27 -53 -46 -76 -83 -101 -64 -43 -143 -59 -225 -45 -107 18 -185 88 -217 195 -23 76 -20 230 6 312 47 154 200 229 365 180z"/>
    <path d="M6932 801 c-8 -5 -12 -23 -10 -47 3 -35 6 -39 32 -42 16 -2 32 2 37 10 29 46 -16 107 -59 79z"/>
    <path d="M7493 800 c-74 -11 -83 -16 -83 -45 0 -23 3 -25 23 -19 55 18 98 24 173 24 70 0 89 -4 134 -27 93 -49 120 -148 59 -218 -37 -42 -59 -54 -169 -94 -171 -63 -215 -112 -208 -230 4 -83 28 -119 100 -155 44 -22 65 -26 143 -26 90 0 195 21 195 40 0 35 -10 38 -83 18 -177 -48 -307 8 -307 132 0 84 40 120 200 180 148 56 200 101 214 183 9 52 -16 136 -51 169 -65 63 -202 90 -340 68z"/>
    <path d="M820 410 l0 -390 30 0 c28 0 43 19 257 340 124 187 229 340 232 340 3 0 5 -153 3 -340 l-3 -340 26 0 25 0 0 390 0 390 -27 0 c-25 0 -49 -32 -258 -347 l-230 -346 -3 347 -2 346 -25 0 -25 0 0 -390z"/>
    <path d="M1620 409 l0 -391 173 4 c135 3 180 8 212 21 147 65 213 190 202 382 -9 167 -63 265 -177 322 -77 39 -157 53 -302 53 l-108 0 0 -391z m358 311 c113 -49 174 -159 174 -315 1 -118 -23 -187 -87 -251 -67 -68 -117 -85 -272 -91 l-123 -6 0 348 0 347 128 -4 c105 -4 136 -8 180 -28z"/>
    <path d="M2350 410 l0 -390 215 0 c208 0 215 1 215 20 0 19 -7 20 -190 20 l-191 0 3 153 3 152 173 3 c164 2 172 3 172 22 0 19 -7 20 -175 20 l-175 0 0 170 0 170 190 0 190 0 0 25 0 25 -215 0 -215 0 0 -390z"/>
    <path d="M2960 409 l0 -391 158 4 c150 3 159 5 208 32 69 38 94 82 94 170 0 101 -40 166 -123 201 -31 13 -36 19 -28 33 5 9 50 86 100 170 50 85 91 158 91 163 0 5 -12 9 -27 9 -25 0 -37 -16 -128 -173 l-101 -172 -97 -3 -97 -3 0 176 0 175 -25 0 -25 0 0 -391z m295 -12 c48 -19 74 -41 95 -83 43 -83 12 -187 -67 -225 -35 -17 -69 -23 -159 -27 l-114 -5 0 177 0 176 108 -1 c59 0 121 -6 137 -12z"/>
    <path d="M5690 410 l0 -390 138 0 c164 0 226 14 276 65 56 55 70 169 31 245 -19 37 -65 77 -108 95 -21 8 -36 19 -33 23 2 4 43 71 90 150 47 79 93 157 101 173 15 29 15 29 -14 29 -28 0 -36 -11 -133 -172 l-103 -173 -97 -3 -98 -3 0 176 0 175 -25 0 -25 0 0 -390z m339 -33 c54 -36 74 -82 69 -158 -8 -113 -64 -149 -245 -157 l-113 -5 0 178 0 177 123 -3 c116 -4 126 -6 166 -32z"/>
    <path d="M6330 410 l0 -390 215 0 c208 0 215 1 215 20 0 19 -7 20 -190 20 l-191 0 3 153 3 152 178 3 c169 2 177 3 177 22 0 19 -7 20 -180 20 l-180 0 0 170 0 170 190 0 190 0 0 25 0 25 -215 0 -215 0 0 -390z"/>
  </g>
  <g id="layer102" fill="#0071b5" stroke="none">
    <path d="M30 1235 l0 -95 1713 0 c941 0 1722 3 1735 6 21 6 22 11 22 95 l0 89 -1735 0 -1735 0 0 -95z"/>
  </g>

</svg>
