<svg xmlns="http://www.w3.org/2000/svg" viewBox="0 0 384 384"><path d="M256 64c-23.342 0-45.158 6.349-64 17.264 38.222 22.142 64 63.386 64 110.736s-25.778 88.594-64 110.736C210.842 313.651 232.658 320 256 320c70.692 0 128-57.308 128-128S326.692 64 256 64z" fill="#5783c3"/><path d="M128 192c0-47.35 25.778-88.594 64-110.736C173.158 70.349 151.342 64 128 64 57.308 64 0 121.308 0 192s57.308 128 128 128c23.342 0 45.158-6.349 64-17.264-38.222-22.142-64-63.386-64-110.736z" fill="#f3ba28"/><path d="M256 192c0-47.35-25.778-88.594-64-110.736-38.222 22.142-64 63.386-64 110.736s25.778 88.594 64 110.736c38.222-22.142 64-63.386 64-110.736z" fill="#479d61"/><path d="M369.032 252.013L218.51 101.49C241.7 124.626 256 156.646 256 192c0 47.35-25.778 88.594-64 110.736C210.842 313.651 232.658 320 256 320c48.996 0 91.518-27.553 113.032-67.987z" fill="#4777b0"/><g fill="#f7cf6c"><path d="M151.078 266l-12.469 8.813a143.72 143.72 0 0010.023 12.61l11.39-10.156A129.08 129.08 0 01151.078 266zM137.242 240.828l-14.11 5.813a142.29 142.29 0 006.953 14.516l13.375-7.344a130.623 130.623 0 01-6.218-12.985zM129.39 213.195l-15.062 2.516c.89 5.344 2.07 10.578 3.523 15.695l14.687-4.156a130.626 130.626 0 01-3.148-14.055zM132.695 156.164l-14.656-4.25a144.557 144.557 0 00-3.617 15.703l15.047 2.578c.82-4.765 1.898-9.445 3.226-14.031zM143.774 129.633l-13.344-7.406a145.209 145.209 0 00-7.023 14.477l14.078 5.89a128.67 128.67 0 016.289-12.961zM160.484 106.242l-11.375-10.187a145.04 145.04 0 00-10.062 12.57l12.422 8.859a131.036 131.036 0 019.015-11.242zM127.633 192.117c0-2.266.054-4.554.18-6.844l-15.218-1.258-.023.39c-.133 2.641-.203 5.18-.203 7.711 0 2.836.086 5.656.25 8.461l15.234-.89c-.15-2.508-.22-5.031-.22-7.57z"/></g><path d="M228.264 67.176L256 64c-9.544 0-18.796 1.173-27.736 3.176z" fill="#fff"/><g fill="#f7cf6c"><path d="M175.265 73.245l-.266.03c-5.258 3.607-10.354 7.438-15.085 11.687L170.63 96.9c5.806-5.215 17.277-13.264 21.371-15.637-5.334-3.089-10.959-5.701-16.736-8.018zM170.509 286.99l-10.731 11.924c4.797 4.32 9.966 8.211 15.308 11.869 5.814-2.326 11.55-4.938 16.915-8.047-4.137-2.394-15.611-10.449-21.492-15.746zM228.398 316.855c8.9 1.983 18.106 3.145 27.602 3.145l-27.602-3.145z"/></g></svg>