<svg id="Capa_1" enable-background="new 0 0 512 512" height="512" viewBox="0 0 512 512" width="512" xmlns="http://www.w3.org/2000/svg"><g><path d="m98.694 136.999v116.857c0 4.273 3.463 7.736 7.736 7.736s7.736-3.463 7.736-7.736v-116.857c0-15.262 12.416-27.679 27.678-27.679s27.679 12.417 27.679 27.679c0 4.273 3.463 7.736 7.736 7.736s7.736-3.463 7.736-7.736c0-23.794-19.358-43.151-43.151-43.151-14.65 0-27.611 7.346-35.414 18.541-7.803-11.195-20.764-18.541-35.414-18.541-23.794 0-43.151 19.358-43.151 43.151 0 4.273 3.463 7.736 7.736 7.736s7.736-3.463 7.736-7.736c0-15.262 12.417-27.679 27.679-27.679s27.678 12.418 27.678 27.679z" fill="#8ac9fe"/><path d="m505.229 259.82v-35.49c0-88.024-66.411-160.538-151.854-170.175-8.063-31.149-36.357-54.155-70.026-54.155h-64.058c-3.866 0-7 3.134-7 7v4.201c0 39.947 32.384 72.331 72.331 72.331-39.947 0-72.331 32.384-72.331 72.331v4.201c0 3.866 3.134 7 7 7h64.058c33.044 0 60.892-22.167 69.537-52.435 37.333 1.304 67.182 31.956 67.182 69.582 0 19.23-7.8 36.64-20.4 49.25-12.6 12.6-30 20.4-49.24 20.4h-281.729c-39.43 0-68.86 36.4-60.5 74.94 3.17 14.59 7.32 28.31 12.4 41.15 19.315 48.974 91.274 33.551 133.067 57.164 39.26 22.183 47.274 51.366 99.373 51.366 36.09 0 70.41 25.92 101.46 12.26 0 .01.01.01.01.01 28.84 19.95 66.02 26.9 101.63 16.34 4.37-1.29 6.4-6.32 4.24-10.33l-28.23-52.41c-1.44-2.69-.99-6.01 1.15-8.19 44.49-45.471 71.93-107.701 71.93-176.341z" fill="#528fd8"/><g fill="#0573ce"><path d="m22.94 375.667h51.577c-6.141-14.468-11.099-30.083-14.742-46.87-8.366-38.537 21.063-74.938 60.497-74.938h-51.574c-39.434 0-68.862 36.401-60.497 74.938 3.643 16.786 8.599 32.403 14.739 46.87z"/><path d="m471.64 184.213c0 19.227-7.798 36.639-20.393 49.243-12.605 12.605-30.006 20.403-49.243 20.403h-51.575c19.237 0 36.639-7.798 49.243-20.403 12.594-12.605 20.393-30.016 20.393-49.243 0-37.814-30.14-68.594-67.728-69.615h51.575c37.588 1.02 67.728 31.8 67.728 69.615z"/><path d="m242.289 155.86v4.2c0 3.87 3.14 7 7 7h-30c-3.86 0-7-3.13-7-7v-4.2c0-39.94 32.39-72.33 72.33-72.33h30c-39.94 0-72.33 32.39-72.33 72.33z"/><path d="m314.619 83.53h-30c-39.94 0-72.33-32.38-72.33-72.33v-4.2c0-3.87 3.14-7 7-7h30c-3.86 0-7 3.13-7 7v4.2c0 39.95 32.39 72.33 72.33 72.33z"/></g><path d="m354.499 490.74c-31.05 13.66-65.36 21.26-101.45 21.26h-.01c-107.56 0-194.98-47.07-232.44-142.05h193.64c21.21 0 41.36 6.42 58.22 17.73 10.7 7.19 20.07 16.36 27.53 27.12 2.98 4.28 5.65 8.81 7.98 13.57 1.04 2.12 7.9 18.25 10.99 23.67 2.62 4.58 5.51 8.93 8.64 13.04.01.01.02.03.03.04 7.64 10.02 16.74 18.62 26.87 25.62z" fill="#ecf6fe"/><path d="m276.679 510.9c-7.78.73-15.66 1.1-23.63 1.1h-.01c-107.56 0-194.98-47.07-232.44-142.05h51.56c34.16 86.62 109.87 133.39 204.52 140.95z" fill="#dbebfc"/><path d="m113.496 301.722c-4.273 0-7.736-3.464-7.736-7.736 0-4.273 3.464-7.736 7.736-7.736 4.273 0 7.736 3.464 7.736 7.736 0 4.272-3.464 7.736-7.736 7.736z" fill="#ecf6fe"/><path d="m327.629 465.12c-.88.46-1.66.85-1.93.95-23.31 8.23-47.76 12.41-72.66 12.41-54.73 0-102.7-13.63-138.73-39.4-23.63-16.9-42.32-39-55.55-65.69-.2-.39-.82-1.77-1.54-3.44h17.15c11.97 22.86 28.42 41.87 48.94 56.55 33.39 23.88 78.25 36.5 129.73 36.5 22.57 0 44.74-3.68 65.92-10.96 2.62 4.58 5.51 8.93 8.64 13.04.01.01.02.03.03.04z" fill="#dbebfc"/><path d="m307.969 428.37c-17.28 5.5-36.64 8.85-54.93 8.85-46.07 0-85.75-10.96-114.74-31.7-12.11-8.66-22.58-19.12-31.1-31.08-.41-.59-1.9-2.45-3.45-4.49h19.42c6.86 8.72 14.96 16.43 24.13 22.98 26.35 18.85 62.92 28.81 105.74 28.81 16 0 31.79-2.33 46.95-6.94 2.98 4.28 5.65 8.81 7.98 13.57z" fill="#dbebfc"/></g></svg>