<svg height="512" viewBox="0 0 512 512" width="512" xmlns="http://www.w3.org/2000/svg"><g id="Flat"><path d="m448 264 24 64a59.785 59.785 0 0 1 -49.75-26.63l-9.55-14.32a12.653 12.653 0 0 0 -13.06-5.35c-27.15 5.52-55.78 38.3-175.64 38.3-56.72 0-94.81-2.47-120.15-5.48-39.1-4.63-47.85-10.52-47.85-10.52l-32-40s32-40 168-64l8.24-19.23a60.653 60.653 0 0 1 55.76-36.77l-6.32 50.58a16 16 0 0 0 11.28 17.31l44.61 13.38 91.14 27.34a12.741 12.741 0 0 0 3.64.54 12.609 12.609 0 0 0 11.79-8.18 95.416 95.416 0 0 1 75.86-60.97z" fill="#4d5e78"/><path d="m448 264 24 64a59.785 59.785 0 0 1 -49.75-26.63l-9.55-14.32a12.653 12.653 0 0 0 -13.06-5.35c-27.15 5.52-55.78 38.3-175.64 38.3-56.72 0-94.81-2.47-120.15-5.48 72.4-14.14 142.68-41.94 201.72-89.25l91.14 27.34a12.741 12.741 0 0 0 3.64.54 12.609 12.609 0 0 0 11.79-8.18 95.416 95.416 0 0 1 75.86-60.97z" fill="#485870"/><path d="m472 328a59.785 59.785 0 0 1 -49.75-26.63l-9.55-14.32a12.653 12.653 0 0 0 -13.06-5.35c-27.15 5.52-55.78 38.3-175.64 38.3-56.72 0-94.81-2.47-120.15-5.48-39.1-4.63-47.85-10.52-47.85-10.52l-32-40h424z" fill="#dbdbd9"/><rect fill="#313b4c" height="16" rx="8" width="16" x="72" y="256"/><g fill="#3b495e"><rect height="32" rx="8" width="16" x="104" y="240"/><rect height="32" rx="8" width="16" x="136" y="240"/><rect height="32" rx="8" width="16" x="168" y="240"/></g><rect fill="#b0b0ae" height="16" rx="8" width="40" x="40" y="280"/><path d="m266.473 320.7a50.514 50.514 0 0 0 26.287 24.517 31.519 31.519 0 0 0 11.24 2.534v-33.936c-11.317 2-24.085 3.635-38.607 4.723z" fill="#c7c7c5"/><path d="m200 296h-56l36.354 46.741a65.429 65.429 0 0 0 51.646 25.259z" fill="#dbdbd9"/><path d="m376 214.4a38.624 38.624 0 0 0 -27.314 11.314l-9.609 9.609 36.923 11.077z" fill="#3b495e"/><path d="m348.686 309.492a38.624 38.624 0 0 0 27.314 11.314v-30.06a301.73 301.73 0 0 1 -32.756 13.305z" fill="#c7c7c5"/><path d="m472 328a59.785 59.785 0 0 1 -49.75-26.63l-9.55-14.32a12.653 12.653 0 0 0 -13.06-5.35c-27.15 5.52-55.78 38.3-175.64 38.3-56.72 0-94.81-2.47-120.15-5.48 49.83-9.73 98.66-25.94 143.5-50.52h200.65z" fill="#cfcfcd"/></g></svg>