<svg viewBox="0 -46 512 512" xmlns="http://www.w3.org/2000/svg"><path d="M215.988 107.945c-11.66-15.5-31.816-21.797-51.46-15.16l-57.055 24.785a44.828 44.828 0 00-20.07 17.153L4.742 264.875c-11.09 22.191-2.067 49.277 20.128 60.383 12.195 6.097 27.313 6.199 40.238.469 12.305-5.438 21.297-15.442 24.684-27.454L213 128.953c6.621-4.98 7.953-14.387 2.988-21.008zm0 0M149.996 330.004h-60v60c0 16.57 13.434 30 30 30 16.57 0 30-13.43 30-30 0 16.57 13.434 30 30 30 16.57 0 30-13.43 30-30v-60zm0 0" fill="#ffbfab"/><path d="M422 180h-27.402l-160.899-77.996-133.203 176.7L452 330.003l30-120L452 180zm0 0M95.387 372.629c-.86 1.226-2.14 2.531-3.492 3.414l-38.098 28.258c-4.918 3.883-11.996 4.054-17.399.27-5.406-3.786-7.668-10.497-5.699-16.446l13.524-45.465c.367-1.574 1.156-3.219 2.015-4.45l41.782-7.366zm0 0" fill="#ffcebf"/><path d="M88.02 330.848l7.367 41.78c-.864 1.227-2.14 2.532-3.492 3.415l-38.098 28.258c-4.918 3.883-11.996 4.054-17.402.27zm0 0" fill="#ffa78f"/><path d="M327.688 40.867L301.875 77.73l-41.781 7.368-7.367-41.782 25.808-36.863c4.82-6.883 14.012-8.5 20.89-3.683l24.579 17.207c6.879 4.82 8.5 14.011 3.684 20.89zm0 0" fill="#54469d"/><path d="M327.688 40.867L301.875 77.73l-41.781 7.368 51.62-73.723L324 19.977c6.883 4.82 8.504 14.011 3.688 20.89zm0 0" fill="#392e6e"/><path d="M46.246 338.219l206.5-294.914 49.152 34.414-206.5 294.914zm0 0" fill="#f27281"/><path d="M70.824 355.426L277.32 60.512l24.575 17.207L95.398 372.633zm0 0" fill="#e63950"/><path d="M104.996 270.004c-24.851 0-45 20.144-45 45 0 24.851 20.149 45 45 45h116.45l16.59 8.289c28.39 14.195 60.19 21.71 91.964 21.71s65.574-7.515 93.96-21.71L467 346.77v-76.766zm0 0" fill="#ffcebf"/><path d="M473.707 418.402l32.227-23.902A14.993 14.993 0 00512 382.453V195c0-8.281-6.715-15-15-15h-45v224.984c0 11.149 11.734 18.403 21.707 13.418zm0 0" fill="#463b85"/></svg>