<svg viewBox="0 0 256 256" xmlns="http://www.w3.org/2000/svg"><path d="M164.708 203.693h-54.653a2.5 2.5 0 010-5h54.653a7.134 7.134 0 006.161-3.555l36.708-63.581a7.137 7.137 0 000-7.114l-36.708-63.581a7.136 7.136 0 00-6.161-3.556H91.292a7.136 7.136 0 00-6.161 3.556l-36.708 63.581a7.137 7.137 0 000 7.114l36.708 63.581a7.134 7.134 0 006.161 3.555h7.185a2.5 2.5 0 010 5h-7.185a12.148 12.148 0 01-10.492-6.055l-36.707-63.581a12.153 12.153 0 010-12.114L80.8 58.362a12.149 12.149 0 0110.491-6.056h73.416a12.149 12.149 0 0110.493 6.056l36.708 63.581a12.153 12.153 0 010 12.114L175.2 197.638a12.148 12.148 0 01-10.492 6.055z" fill="#ebe7f2"/><path d="M228.614 120.961L184.4 44.385a14.118 14.118 0 00-12.192-7.038H83.789A14.118 14.118 0 0071.6 44.385l-44.214 76.576a14.116 14.116 0 000 14.078L71.6 211.615a14.118 14.118 0 0012.192 7.038h88.422a14.118 14.118 0 0012.192-7.038l44.211-76.576a14.116 14.116 0 00-.003-14.078zm-4.33 11.578l-44.211 76.576a9.1 9.1 0 01-7.862 4.538h-59.656v-23.429L159.75 175.3a19.8 19.8 0 0013.877-18.944V133.5a2.5 2.5 0 10-5 0v22.859a14.813 14.813 0 01-10.385 14.176L109.3 186.009a2.5 2.5 0 00-1.746 2.384v25.26h-6.578V101.95a2.5 2.5 0 00-5 0v111.7H83.789a9.1 9.1 0 01-7.862-4.538l-44.211-76.573a9.105 9.105 0 010-9.078l44.211-76.576a9.1 9.1 0 017.862-4.538h88.422a9.1 9.1 0 017.862 4.538l44.211 76.576a9.105 9.105 0 010 9.078z" fill="#846f75"/><path d="M159.549 131a2.5 2.5 0 00-2.5 2.5v22.859a3.274 3.274 0 01-2.3 3.136l-42.2 13.344V101.95a2.5 2.5 0 10-5 0v74.3a2.5 2.5 0 003.254 2.384l45.449-14.372a8.256 8.256 0 005.791-7.9V133.5a2.5 2.5 0 00-2.494-2.5z" fill="#846f75"/><g fill="#ed9abc"><path d="M104.266 104.45a19.577 19.577 0 1119.577-19.577 19.6 19.6 0 01-19.577 19.577zm0-34.154a14.577 14.577 0 1014.577 14.577A14.593 14.593 0 00104.266 70.3zM165.338 136a19.577 19.577 0 1119.577-19.577A19.6 19.6 0 01165.338 136zm0-34.153a14.577 14.577 0 1014.577 14.576 14.593 14.593 0 00-14.577-14.577z"/></g></svg>