<svg version="1.0" xmlns="http://www.w3.org/2000/svg" width="1200" height="1200" viewBox="0 0 12000 12000"><path d="M1510 10493c0-5 504-1016 1120-2247 616-1232 1120-2247 1120-2257 0-9-3-19-7-21-8-3-2233-4449-2233-4461 0-4 605-7 1344-7h1343l899 1800c494 990 901 1800 904 1800s410-810 904-1800l899-1800h1343c739 0 1344 2 1344 3 0 2-504 1011-1120 2243-616 1231-1120 2244-1120 2250s504 1018 1120 2250c616 1231 1120 2242 1120 2247 0 4-605 7-1344 7H7803l-899-1800c-494-990-901-1800-904-1800s-410 810-905 1800l-900 1799-1342 1c-739 0-1343-3-1343-7z" fill="#35495e"/><path d="M1510 10493c1-5 808-1623 1794-3598l1793-3590 449 898c247 493 451 897 454 897s207-404 454-897l449-898 1793 3590c986 1975 1793 3593 1794 3598 0 4-605 7-1344 7H7803l-899-1800c-494-990-901-1800-904-1800s-410 810-905 1800l-900 1799-1342 1c-739 0-1343-3-1343-7z" fill="#4fc08d"/></svg>