<!DOCTYPE svg PUBLIC "-//W3C//DTD SVG 20010904//EN" "http://www.w3.org/TR/2001/REC-SVG-20010904/DTD/svg10.dtd">
<svg version="1.0" xmlns="http://www.w3.org/2000/svg" width="1200px" height="1200px" viewBox="0 0 12000 12000" preserveAspectRatio="xMidYMid meet">
<g id="layer101" fill="#35495e" stroke="none">
 <path d="M1510 10493 c0 -5 504 -1016 1120 -2247 616 -1232 1120 -2247 1120 -2257 0 -9 -3 -19 -7 -21 -8 -3 -2233 -4449 -2233 -4461 0 -4 605 -7 1344 -7 l1343 0 899 1800 c494 990 901 1800 904 1800 3 0 410 -810 904 -1800 l899 -1800 1343 0 c739 0 1344 2 1344 3 0 2 -504 1011 -1120 2243 -616 1231 -1120 2244 -1120 2250 0 6 504 1018 1120 2250 616 1231 1120 2242 1120 2247 0 4 -605 7 -1344 7 l-1343 0 -899 -1800 c-494 -990 -901 -1800 -904 -1800 -3 0 -410 810 -905 1800 l-900 1799 -1342 1 c-739 0 -1343 -3 -1343 -7z"/>
 </g>
<g id="layer102" fill="#4fc08d" stroke="none">
 <path d="M1510 10493 c1 -5 808 -1623 1794 -3598 l1793 -3590 449 898 c247 493 451 897 454 897 3 0 207 -404 454 -897 l449 -898 1793 3590 c986 1975 1793 3593 1794 3598 0 4 -605 7 -1344 7 l-1343 0 -899 -1800 c-494 -990 -901 -1800 -904 -1800 -3 0 -410 810 -905 1800 l-900 1799 -1342 1 c-739 0 -1343 -3 -1343 -7z"/>
 </g>

</svg>