<svg version="1.0" xmlns="http://www.w3.org/2000/svg" viewBox="0 0 1860 2000"><path d="M534 1779c-208-116-382-214-386-217-4-4-36-268-72-587C39 656 8 381 5 364l-5-31 464-166L928 1l464 166c254 91 464 166 465 167 0 0-31 277-71 614l-72 612-384 215c-212 118-392 215-401 215s-186-95-395-211z" fill="#018490"/><path d="M534 1779c-208-116-382-214-386-217C142 1556-1 338 4 333c1-1 208-76 461-166L925 2l3 199 2 199h156c119 0 162 4 184 15 61 31 60 24 60 585s1 554-60 585c-22 11-65 15-185 15H930v195c0 107-4 195-8 195-5 0-179-95-388-211z" fill="#00acc1"/><path d="M588 1584c-59-31-58-26-58-584 0-561-1-554 60-585 43-22 637-22 680 0 61 31 60 24 60 585s1 554-60 585c-43 22-641 22-682-1z" fill="#80d6e0"/><path d="M588 1584c-59-31-58-26-58-584 0-561-1-554 60-585 43-22 637-22 680 0 61 31 60 24 60 585s1 554-60 585c-43 22-641 22-682-1zm413-113c64-65 20-171-71-171-33 0-48 6-71 29-64 65-20 171 71 171 33 0 48-6 71-29zm217-383c16-16 16-160 0-176-17-17-559-17-576 0-16 16-16 160 0 176 17 17 559 17 576 0zm0-300c16-16 16-160 0-176-17-17-559-17-576 0-16 16-16 160 0 176 17 17 559 17 576 0z" fill="#fff"/></svg>