<svg viewBox="0 0 64 64" xmlns="http://www.w3.org/2000/svg"><path d="M2 4h60v4H2z" fill="#a0a8b2"/><path d="M4 8h56v4H4z" fill="#88929f"/><path d="M24 12v2a2 2 0 002 2h4v-4z" fill="#a0a8b2"/><path d="M36 50v-5.172A6.825 6.825 0 0034 40v-4h-4v4a6.826 6.826 0 00-2 4.828V50z" fill="#c18e5c"/><path d="M34.676 40.801A6.855 6.855 0 0034 40v-4h-4v4a6.826 6.826 0 00-2 4.828v3.085c3.192-.498 5.797-3.342 6.676-7.112z" fill="#cda57d"/><path d="M20 50v-5.172A6.825 6.825 0 0018 40v-8h-4v8a6.826 6.826 0 00-2 4.828V50z" fill="#c18e5c"/><path d="M18.676 40.801A6.855 6.855 0 0018 40v-8h-4v8a6.826 6.826 0 00-2 4.828v3.085c3.192-.498 5.797-3.342 6.676-7.112z" fill="#cda57d"/><path d="M56 62H8a6 6 0 110-12h48a6 6 0 110 12z" fill="#88929f"/><path d="M30 2h4v22h-4z" fill="#c1c8d1"/><path d="M40 12v2a2 2 0 01-2 2h-4v-4z" fill="#a0a8b2"/><path d="M26 24h12v4H26z" fill="#88929f"/><circle cx="8" cy="56" fill="#c1c8d1" r="2"/><path d="M54 56a2 2 0 012-2H8a2 2 0 110 4h48a2 2 0 01-2-2z" fill="#ebf7fe"/><circle cx="56" cy="56" fill="#c1c8d1" r="2"/><path d="M43.5 27c-1.93 0-3.5-1.57-3.5-3.5V22c0-.551-.449-1-1-1s-1 .449-1 1v2h-2v-2c0-1.654 1.346-3 3-3s3 1.346 3 3v1.5c0 .827.673 1.5 1.5 1.5s1.5-.673 1.5-1.5V23c0-2.206 1.794-4 4-4h3c1.103 0 2-.897 2-2v-1h2v1c0 2.206-1.794 4-4 4h-3c-1.103 0-2 .897-2 2v.5c0 1.93-1.57 3.5-3.5 3.5z" fill="#c1c8d1"/><path d="M53 12h4v4h-4z" fill="#88929f"/><path d="M52 50v-5.172A6.825 6.825 0 0050 40v-4h-4v4a6.826 6.826 0 00-2 4.828V50z" fill="#c18e5c"/><path d="M11 35h10v2H11z" fill="#976947"/><g fill="#c1c8d1"><circle cx="20" cy="56" r="2"/><circle cx="32" cy="56" r="2"/><circle cx="44" cy="56" r="2"/></g><path d="M50.676 40.801A6.855 6.855 0 0050 40v-4h-4v4a6.826 6.826 0 00-2 4.828v3.085c3.192-.498 5.797-3.342 6.676-7.112z" fill="#cda57d"/></svg>