<svg viewBox="0 0 64 64" xmlns="http://www.w3.org/2000/svg"><path d="M45.405 3.812a6 6 0 012.177 8.2l-5.02 8.649 2.595 1.506L35.4 35l-7.336 2.68 13.222-22.787a6 6 0 114.119-11.081zM40.663 8a2 2 0 102.737-.729A2 2 0 0040.663 8z" fill="#34b2e4"/><path d="M29.479 46.014a9.885 9.885 0 01.434-7.84 9.89 9.89 0 00.192-8.438l-.018-.04a9.89 9.89 0 01.557-9.1l.563-.939a9.888 9.888 0 00.366-9.509L28 3h-3l-1 8-3 3-3-3-1-8h-3l-3.573 7.145a9.888 9.888 0 00.366 9.509l.563.939a9.89 9.89 0 01.557 9.1l-.018.04a9.89 9.89 0 00.192 8.438l.869 1.738A9.881 9.881 0 0114 44.334V53a8 8 0 008 8h13z" fill="#ffc569"/><path d="M30.087 29.7a9.846 9.846 0 01-.8-3.139l-1.477.589-4.538 6.367L30.7 31.57a9.846 9.846 0 00-.6-1.834z" fill="#f06e7a"/><path d="M39 39h16v22H39z" fill="#92e5eb"/><path d="M55 42.928l-5.732 9.929L48 59.053l4.732-4.196L55 50.928z" fill="#68cbf2"/><path d="M42 48v-9h-3v22h16v-3h-3a10 10 0 01-10-10z" fill="#68cbf2"/><path d="M60.793 23.771a5.973 5.973 0 01-4.278 7.334 6.08 6.08 0 01-7.406-4.278 5.965 5.965 0 01-.182-2.024l-25.654 6.71 4.538-6.367 15.057-6.009.782 2.9 9.737-2.547a6.08 6.08 0 017.406 4.281zM53 25.808a2.025 2.025 0 002.468 1.426A1.99 1.99 0 0056.9 24.79a2.025 2.025 0 00-2.468-1.426A1.99 1.99 0 0053 25.808z" fill="#92e5eb"/><ellipse cx="56.447" cy="23.632" fill="none" rx="2" ry="2.017" transform="rotate(-74.87 56.466 23.64)"/><path d="M37.415 26.538l13.008-3.4a5.887 5.887 0 00.61 3.144 6.144 6.144 0 006.3 3.295 6.052 6.052 0 002.811-1.187 5.985 5.985 0 01-3.631 2.717 6.08 6.08 0 01-7.406-4.278 5.965 5.965 0 01-.182-2.024l-25.654 6.71 4.538-6.367 5.234-2.088a3.486 3.486 0 004.372 3.478z" fill="#68cbf2"/><path d="M27 19a7.961 7.961 0 01-4.974-1.741 4.98 4.98 0 009.948 0A7.961 7.961 0 0127 19zm7.631 41A16.665 16.665 0 0118 43.4a9.642 9.642 0 00-.953-4.3l-.958-1.916a9.9 9.9 0 01-.194-8.441l.021-.046a9.886 9.886 0 00.417-6.893 4.984 4.984 0 003.641-4.538 4.448 4.448 0 01-1.3.647 4.008 4.008 0 01-5.256-3.48 9.885 9.885 0 011.007-5.281L17.1 3.8 17 3h-3l-3.573 7.145a9.888 9.888 0 00.366 9.509l.559.933a9.9 9.9 0 01.561 9.109l-.018.04a9.9 9.9 0 00.2 8.444l.866 1.732A9.881 9.881 0 0114 44.334V53a8 8 0 008 8h13z" fill="#f06e7a"/><path d="M32.781 60.375l-.2-.25a22.4 22.4 0 01-4.6-10.289 1 1 0 10-1.972.328A24.417 24.417 0 0030.738 61h2.247a.979.979 0 00-.204-.625z" fill="#a7325c"/><path d="M4 6h1v18a1 1 0 002 0V6h1a1 1 0 000-2H4a1 1 0 000 2zm4 53H7V40a1 1 0 00-2 0v19H4a1 1 0 000 2h4a1 1 0 000-2z" fill="#80e1b8"/><path d="M8 27H4a1 1 0 000 2h4a1 1 0 000-2zm-1 4H5a2 2 0 00-2 2v2a2 2 0 002 2h2a2 2 0 002-2v-2a2 2 0 00-2-2zm-2 4v-2h2v2z" fill="#ffc569"/><path d="M27.985 61a.979.979 0 00-.2-.625l-.2-.25a22.4 22.4 0 01-4.595-10.289 1 1 0 10-1.972.328A24.417 24.417 0 0025.738 61zm-5 0a.98.98 0 00-.2-.625l-.251-.314A16.163 16.163 0 0119 50a1 1 0 00-2 0 18.16 18.16 0 003.651 10.878A8.094 8.094 0 0022 61z" fill="#a7325c"/><path d="M47 43h-4a1 1 0 000 2h1v3a1 1 0 002 0v-3h1a1 1 0 000-2zm1 12h-2v-3a1 1 0 00-2 0v3h-1a1 1 0 000 2h5a1 1 0 000-2z" fill="#80e1b8"/><path d="M43 57h4.663A10.029 10.029 0 0144 53.982V55h-1a1 1 0 000 2z" fill="#3aba80"/><path d="M56.266 37.732l3.464 2-7 12.124-3.464-2z" fill="#80e1b8"/><path d="M52.732 51.857l-3.464-2L48 56.053z" fill="#f06e7a"/><path d="M59.999 35.267a2 2 0 01.732 2.732l-1 1.732-3.464-2 1-1.732a2 2 0 012.732-.732z" fill="#ffc569"/><path d="M54.732 46.393a3.991 3.991 0 01-4.532 1.841l-.936 1.623 3.464 2 7-12.125-.866-.5z" fill="#3aba80"/><path d="M48.5 53.609l-.5 2.444 4.732-4.196-1.366-.789z" fill="#a7325c"/><path d="M58 36.732l-.866-.5-.866 1.5 3.464 2 1-1.732a1.991 1.991 0 00-.006-1.992 2 2 0 01-2.726.724z" fill="#f06e7a"/><path d="M49 56a.988.988 0 00-.245-.637l-.312 1.522A.991.991 0 0049 56z" fill="#3aba80"/></svg>