<svg xmlns="http://www.w3.org/2000/svg" viewBox="0 0 512.12 512.12"><g fill="#455a64"><path d="M213.357 512.12h-192c-5.891.002-10.668-4.772-10.67-10.663 0-1.423.284-2.831.836-4.142l85.333-202.667c2.292-5.432 8.552-7.977 13.984-5.685 5.432 2.292 7.977 8.552 5.685 13.984l-79.104 187.84h161.152l-38.016-113.963c-1.862-5.591 1.161-11.632 6.752-13.493 5.591-1.862 11.632 1.161 13.493 6.752l42.667 128c1.862 5.589-1.16 11.629-6.749 13.491a10.68 10.68 0 01-3.363.546z"/><path d="M213.357 512.12a10.661 10.661 0 01-3.968-.768l-160-64a10.668 10.668 0 01.576-20.011l128-42.667c5.591-1.862 11.632 1.161 13.493 6.752 1.862 5.591-1.161 11.632-6.752 13.493L84.354 438.371l132.949 53.184c5.467 2.195 8.119 8.406 5.925 13.873a10.666 10.666 0 01-9.871 6.692z"/></g><ellipse transform="rotate(-134.999 288.026 213.458)" cx="288.025" cy="213.456" rx="248.705" ry="142.358" fill="#eceff1"/><g fill="#90a4ae"><path d="M390.999 426.787a201.348 201.348 0 01-52.608-7.552 370.795 370.795 0 01-158.592-97.621 370.795 370.795 0 01-97.6-158.528C66.946 107 74.925 59.853 104.557 29.987S181.549-7.645 237.655 7.629a370.795 370.795 0 01158.592 97.621 370.795 370.795 0 0197.621 158.592c15.253 56.085 7.275 103.317-22.443 133.013a110.114 110.114 0 01-80.426 29.932zM185.111 21.453a89.599 89.599 0 00-65.408 23.68c-24.064 24.064-30.08 64-16.939 112.341a349.297 349.297 0 0092.117 149.099A349.282 349.282 0 00343.98 398.69c48.405 13.099 88.256 7.147 112.341-16.939 24.085-24.085 30.08-64 16.939-112.341a349.297 349.297 0 00-92.117-149.099 349.292 349.292 0 00-149.098-92.116 180.786 180.786 0 00-46.934-6.742z"/><path d="M397.207 405.155c-60.629 2.816-138.667-34.837-202.304-98.581S93.399 165.325 96.322 104.291c.3-5.883-4.227-10.896-10.11-11.196a10.666 10.666 0 00-10.754 7.569c-28.511 92.008-3.115 192.234 65.771 259.563a257.62 257.62 0 00183.061 77.227 263.255 263.255 0 0076.48-11.477 10.666 10.666 0 007.424-12.011c-.551-5.427-5.398-9.38-10.825-8.828-.054.005-.108.01-.162.017z"/></g><path d="M224.023 288.12a10.667 10.667 0 01-7.552-18.219l224-224c4.093-4.237 10.845-4.354 15.083-.262 4.237 4.093 4.354 10.845.262 15.083-.086.089-.173.176-.262.262l-224 224a10.664 10.664 0 01-7.531 3.136z" fill="#2196f3"/><circle cx="469.357" cy="32.12" r="32" fill="#1976d2"/></svg>