<svg viewBox="0 0 512 512" xmlns="http://www.w3.org/2000/svg"><path d="M405.958 464.13H10.302C4.612 464.13 0 459.518 0 453.828V349.554c0-5.69 4.612-10.302 10.302-10.302H416.26v114.576c0 5.69-4.612 10.302-10.302 10.302z" fill="#a2f4c1"/><path d="M129.041 339.252h62.439v-31.324c0-5.69-4.612-10.302-10.302-10.302h-41.835c-5.69 0-10.302 4.612-10.302 10.302zm-95.74 0H95.74v-31.324c0-5.69-4.612-10.302-10.302-10.302H43.603c-5.69 0-10.302 4.612-10.302 10.302z" fill="#80e29d"/><path d="M416.26 339.252h-33.301S319.479 464.13 95.74 464.13h310.218c5.69 0 10.302-4.612 10.302-10.302z" fill="#86f1a7"/><path d="M501.698 214.374H106.042c-5.69 0-10.302-4.612-10.302-10.302V99.798c0-5.69 4.612-10.302 10.302-10.302h395.656c5.69 0 10.302 4.612 10.302 10.302v104.274c0 5.69-4.613 10.302-10.302 10.302z" fill="#e7a561"/><path d="M382.959 89.496H320.52V58.172c0-5.69 4.612-10.302 10.302-10.302h41.835c5.69 0 10.302 4.612 10.302 10.302zm95.74 0H416.26V58.172c0-5.69 4.612-10.302 10.302-10.302h41.835c5.69 0 10.302 4.612 10.302 10.302zm-253.919 0h62.439V58.172c0-5.69-4.612-10.302-10.302-10.302h-41.835c-5.69 0-10.302 4.612-10.302 10.302zm-95.739 0h62.439V58.172c0-5.69-4.612-10.302-10.302-10.302h-41.835c-5.69 0-10.302 4.612-10.302 10.302z" fill="#e49824"/><path d="M501.698 89.496h-22.999s-63.48 124.878-287.219 124.878h310.218c5.69 0 10.302-4.612 10.302-10.302V99.798c0-5.69-4.613-10.302-10.302-10.302z" fill="#e49542"/><g><path d="M191.48 214.374h224.78v124.878H191.48z" fill="#df75a5"/><path d="M416.26 214.374h-23.354s-44.518 124.878-201.427 124.878h224.78V214.374z" fill="#dd5790"/></g></svg>