<svg viewBox="0 0 46 59" xmlns="http://www.w3.org/2000/svg"><g fill-rule="nonzero" transform="translate(-1)" fill="none"><path d="M29.76 48.83l.01.07-5.53 8.3c-.36.564-.981.907-1.65.91-1.55 0-4.76-.45-10.09-3.11-5.84-2.92-7.42-6.38-7.84-8.03a2.029 2.029 0 01.27-1.61l4.32-6.23z" fill="#a56a43"/><path d="M21.518 11.517C23.435 9.552 23.01 4.4 23.01 4.33a4.017 4.017 0 016.57-3.4 4.154 4.154 0 011.17 1.68v.01a3.988 3.988 0 016.04 2.53c.03-.01.05-.01.08-.02a.035.035 0 00.02-.01c.22-.052.444-.089.67-.11a3.957 3.957 0 013.33 1.35c.445.508.755 1.12.9 1.78v.01a4 4 0 015.08 3.52c.06.71 1.81 23.06-9.8 33.68a13.979 13.979 0 01-7.31 3.48c-.694.117-1.396.174-2.1.17h-.08a21.055 21.055 0 01-12.37-3.86 25.374 25.374 0 01-5.96-6.01c-6.98-9.66-8.18-23.01-8.24-23.71a4.014 4.014 0 013.66-4.32 4.009 4.009 0 014.32 3.65z" fill="#cb8252"/><path d="M36.61 33.85a11.2 11.2 0 01-4.97 4.08c-6.18 2.74-14.43-.35-17.66-6.22a41.57 41.57 0 01-3.71-9.87c.96 2.87 3.4 6.11 6.68 6.24.352.014.704-.013 1.05-.08a3.622 3.622 0 002.06-1.32c1.77-2.14 2.44-8.37 2.72-11.35.221 1.983.933 3.88 2.07 5.52 1.73 2.3 4.71 2.46 7.15 3.66 3.25 1.61 7.01 5.51 4.61 9.34z" fill="#805333"/><path d="M22.78 15.33c-.28 2.98-.95 9.21-2.72 11.35A3.622 3.622 0 0118 28a4.605 4.605 0 01-1.05.08c-3.28-.13-4.99-.21-5.95-3.08-.16-.65-1.03-4.43-1.16-5.01 0-.01-.01-.02-.01-.03a48.072 48.072 0 01-.84-5.21 4.009 4.009 0 00-3.24-3.59c10.52 1.15 15.41-3.78 17.28-6.47.273 3.546.189 7.11-.25 10.64z" fill="#f9eab0"/><path d="M23.19 9.23a48.2 48.2 0 01-.41 6.1c-.28 2.98-.95 9.21-2.72 11.35A3.622 3.622 0 0118 28a4.605 4.605 0 01-1.05.08c-3.28-.13-4.99-.21-5.95-3.08-.14-.56-.79-3.41-1.06-4.58a17 17 0 015.34-7.6c.588-.487 1.21-.931 1.86-1.33a16.864 16.864 0 016.05-2.26z" fill="#e4c05c"/><g fill="#a56a43"><path d="M30.04 4.8c.175 2.94.121 5.889-.16 8.82-.05.515-.482.908-1 .91h-.09a.992.992 0 01-.9-1.09c.266-2.809.32-5.633.16-8.45A4.984 4.984 0 0129.58.93a4.154 4.154 0 011.17 1.68 2.926 2.926 0 00-.71 2.19zM35.19 8.08c.182 2.88.132 5.769-.15 8.64a.991.991 0 01-.99.91h-.09a1.007 1.007 0 01-.91-1.09c.267-2.749.314-5.514.14-8.27a5.068 5.068 0 012.72-4.89c.439.506.742 1.115.88 1.77.03-.01.05-.01.08-.02a3 3 0 00-1.68 2.95zM41.79 8.14v.01a2.993 2.993 0 00-1.58 2.89c.166 2.82.122 5.647-.13 8.46-.05.515-.482.908-1 .91h-.09a1 1 0 01-.91-1.08c.248-2.693.292-5.4.13-8.1a5.05 5.05 0 012.68-4.87c.445.508.755 1.12.9 1.78z"/></g><path d="M41 26a14.995 14.995 0 01-22.83 12.79 14.384 14.384 0 01-1.64-1.17 14.975 14.975 0 01.01-23.25 14.384 14.384 0 011.64-1.17 14.994 14.994 0 0117.3 1.18A14.938 14.938 0 0141 26z" fill="#f9eab0"/><ellipse cx="26.004" cy="26" fill="#f5efca" rx="13.004" ry="15"/><path d="M22.09 27a22.575 22.575 0 01-.35 3.06l1.01.22a1 1 0 11-.44 1.95l-1.01-.22a23.97 23.97 0 01-1.03 2.95l.93.45a1 1 0 01-.43 1.9.935.935 0 01-.43-.1l-.95-.45c-.38.7-.78 1.38-1.22 2.03a14.384 14.384 0 01-1.64-1.17c.39-.55.744-1.125 1.06-1.72l-.86-.42a1 1 0 11.86-1.8l.88.42a23.7 23.7 0 00.88-2.53l-.95-.22a1 1 0 01.45-1.95l.94.22c.15-.867.25-1.742.3-2.62h-.98a1 1 0 010-2h.98a21.014 21.014 0 00-.3-2.62l-.94.22a.9.9 0 01-.23.02.992.992 0 01-.97-.78 1 1 0 01.75-1.19l.95-.22a23.7 23.7 0 00-.88-2.53l-.88.42a.935.935 0 01-.43.1 1 1 0 01-.43-1.9l.87-.42a18.816 18.816 0 00-1.06-1.73 14.384 14.384 0 011.64-1.17c.47.7.88 1.38 1.23 2.03l.93-.44a1 1 0 11.86 1.8l-.93.45c.407.96.751 1.945 1.03 2.95l1.01-.22a.987.987 0 011.19.75 1 1 0 01-.75 1.2l-1.01.22c.186 1.01.303 2.033.35 3.06h1.02a1 1 0 010 2zM35.75 34.15a.993.993 0 01-.47 1.33l-.85.41c.324.594.678 1.172 1.06 1.73-.523.427-1.074.818-1.65 1.17-.45-.65-.864-1.325-1.24-2.02l-.93.44a.965.965 0 01-.43.1 1 1 0 01-.43-1.9l.93-.45a22.416 22.416 0 01-1.03-2.95l-1.01.22a1 1 0 11-.44-1.95l1-.22a24.272 24.272 0 01-.34-3.06h-1.03a1 1 0 010-2h1.03c.048-1.026.162-2.048.34-3.06l-1-.22a1 1 0 01-.75-1.2.987.987 0 011.19-.75l1.01.22a22.416 22.416 0 011.03-2.95l-.93-.45a1 1 0 11.86-1.8l.95.45c.38-.7.79-1.37 1.23-2.02.57.348 1.115.735 1.63 1.16a19.056 19.056 0 00-1.06 1.73l.86.41a.993.993 0 01.47 1.33c-.169.349-.522.57-.91.57a.965.965 0 01-.43-.1l-.87-.42c-.345.824-.64 1.67-.88 2.53l.94.22a1 1 0 01-.44 1.95l-.95-.22a20.994 20.994 0 00-.29 2.62h.97a1 1 0 010 2h-.97c.042.879.139 1.754.29 2.62l.95-.22a1 1 0 11.44 1.95l-.94.22c.24.86.535 1.706.88 2.53l.87-.42a1 1 0 011.34.47z" fill="#c03a2b"/></g></svg>