<svg viewBox="0 0 58 58" xmlns="http://www.w3.org/2000/svg"><path d="M37 16l-8 4v8l8 4 8-4v-8z" fill="#96291a"/><path d="M21 16l-8 4v8l8 4 8-4v-8z" fill="#c49318"/><path d="M29 28l-8 4v8l8 4 8-4v-8z" fill="#c1691a"/><path d="M53.682 26.032a1 1 0 01-.986-.843c-.304-1.9-.836-3.76-1.583-5.526a1 1 0 111.842-.78 25.816 25.816 0 011.716 5.991 1 1 0 01-.989 1.158zm-4.887-11.299a.999.999 0 01-.792-.389 24.16 24.16 0 00-4.355-4.354.999.999 0 111.223-1.582 26.138 26.138 0 014.715 4.714 1 1 0 01-.791 1.611zM38.726 6.967a.991.991 0 01-.389-.079 23.883 23.883 0 00-5.527-1.584 1 1 0 01.315-1.975c2.061.329 4.076.907 5.991 1.717a1 1 0 01-.39 1.921zm-5.759 47.717a1 1 0 01-.156-1.988 23.883 23.883 0 005.527-1.584 1 1 0 11.78 1.842 25.853 25.853 0 01-5.991 1.717.986.986 0 01-.16.013zm11.3-4.889a.999.999 0 01-.612-1.791 24.165 24.165 0 004.354-4.356 1 1 0 111.583 1.222 26.08 26.08 0 01-4.714 4.716.994.994 0 01-.611.209zm7.766-10.068a1 1 0 01-.92-1.39 23.852 23.852 0 001.583-5.526 1 1 0 011.975.315 25.851 25.851 0 01-1.716 5.991c-.162.381-.533.61-.922.61zm-46.066 0a1 1 0 01-.921-.61 25.816 25.816 0 01-1.716-5.991 1 1 0 111.975-.315c.304 1.9.836 3.76 1.583 5.526a1 1 0 01-.921 1.39zm7.773 10.074a.994.994 0 01-.611-.209 26.138 26.138 0 01-4.715-4.714 1 1 0 111.583-1.222 24.16 24.16 0 004.355 4.354.999.999 0 01-.612 1.791zm11.293 4.883a.965.965 0 01-.159-.013 25.853 25.853 0 01-5.991-1.717 1 1 0 11.78-1.842 23.883 23.883 0 005.527 1.584 1 1 0 01-.157 1.988zM19.274 6.967a1 1 0 01-.39-1.921 25.853 25.853 0 015.991-1.717.999.999 0 11.315 1.975 23.883 23.883 0 00-5.527 1.584 1.01 1.01 0 01-.389.079zM9.199 14.741a1 1 0 01-.791-1.611 26.08 26.08 0 014.714-4.716 1 1 0 011.223 1.582 24.165 24.165 0 00-4.354 4.356.997.997 0 01-.792.389zM4.318 26.032a1 1 0 01-.989-1.158 25.851 25.851 0 011.716-5.991 1 1 0 111.842.78 23.852 23.852 0 00-1.583 5.526.999.999 0 01-.986.843z" fill="#61b872"/><circle cx="4" cy="29" fill="#dd352e" r="4"/><circle cx="54" cy="29" fill="#dd352e" r="4"/><circle cx="29" cy="54" fill="#dd352e" r="4"/><circle cx="29" cy="4" fill="#dd352e" r="4"/><path d="M21 32l-8-4v-8l8 4z" fill="#d8a516"/><path d="M21 32l8-4v-8l-8 4z" fill="#ebba16"/><path d="M21 24l-8-4 8-4 8 4z" fill="#c49318"/><path d="M37 32l-8-4v-8l8 4z" fill="#c5411e"/><path d="M37 32l8-4v-8l-8 4z" fill="#af331b"/><path d="M37 24l-8-4 8-4 8 4z" fill="#96291a"/><path d="M29 44l-8-4v-8l8 4z" fill="#ed8a19"/><path d="M29 44l8-4v-8l-8 4z" fill="#d3761a"/><path d="M29 36l-8-4 8-4 8 4z" fill="#c1691a"/></svg>