<svg viewBox="0 -1 513.22 513" xmlns="http://www.w3.org/2000/svg"><path d="M240.016 495.469c-.016-8.207 6.175-15.278 14.367-15.887 100.883-7.473 180.687-92 180.687-194.734l32-.883v.883c0 119.261-92.43 217.422-209.406 226.574-9.457.734-17.633-6.48-17.648-15.953zm0 0" fill="#fbc02d"/><path d="M113.871 456.879C43.648 416.367 0 340.879 0 259.887c0-34.207 7.71-67.953 22.414-98.528 3.875-8.05 13.602-11.312 21.348-6.867l1.535.883c7.039 4.047 9.328 12.8 5.824 20.11C38.574 201.694 32 230.59 32 259.886c0 69.597 37.504 134.449 97.855 169.261zm0 0" fill="#4dd0e1"/><path d="M437.441 137.887c-7.09 4.144-16.304 2.32-20.96-4.45-36.243-52.656-96.704-84.832-161.055-84.832-34.516 0-68.434 9.122-98.098 26.383L141.23 47.344c34.547-20.114 74.016-30.739 114.196-30.739 74.62 0 144.734 37.153 186.957 98.016 5.394 7.793 3.234 18.496-4.942 23.266zm0 0" fill="#e64a19"/><path d="M204.16 96.11h-80v-80c0-8.833 7.168-16 16-16s16 7.167 16 16v48h48c8.832 0 16 7.167 16 16s-7.168 16-16 16zm0 0" fill="#ff7043"/><path d="M136 464.11H56c-8.832 0-16-7.169-16-16s7.168-16 16-16h48v-48c0-8.833 7.168-16 16-16s16 7.167 16 16zm0 0" fill="#80deea"/><path d="M485.902 321.344l-33.949-33.938L418 321.344c-6.238 6.238-16.383 6.238-22.625 0-6.254-6.258-6.238-16.387 0-22.625l56.578-56.563 56.574 56.563c6.258 6.238 6.258 16.383 0 22.625-6.238 6.254-16.367 6.254-22.625 0zm0 0" fill="#fdd835"/></svg>