<svg viewBox="0 0 50 50" xmlns="http://www.w3.org/2000/svg"><path d="M43.239 22.897c0 10.073-8.166 18.238-18.238 18.238-10.073 0-18.238-8.166-18.238-18.238C6.763 12.824 14.928 4.659 25 4.659s18.238 8.166 18.238 18.238z" color="#000" fill="#ce302f" fill-rule="evenodd"/><path d="M39.328 49.993v-3.4c0-.65.505-.289.795-.867.289-.578 1.806-8.526-.723-12.573-2.529-4.046-5.42-4.624-8.888-3.612s-6.936 10.044-6.936 10.044-4.552 1.661-5.492 3.034c-.94 1.373-2.23 3.707-1.033 4.905 1.13 1.129 1.548.298 1.548.298.23-.026.318.162.522.162.311 0 .336-.141.697-.141.362 0 .145 2.15.145 2.15" fill-rule="evenodd" stroke="#000" stroke-width=".148"/><path d="M28.842 20.608s.655-1.749 2.171-1.749c1.517 0 1.907 2.174 1.916 3.286.008 1.038-.479 2.862-2.554 2.862" fill="#f6f2e0" fill-rule="evenodd" stroke="#000" stroke-width=".445"/><path d="M19.986 30.394l-.1 1.68 6.126 2.568s2.58-1.492 3.358-8.1c.198-1.68-4.54-3.034-4.54-2.54 0 3.069-1.88 6.194-4.844 6.392z" fill="#fff" fill-rule="evenodd"/><path d="M20.395 20.776l-1.854.864-.174 4.495 1.469 1.427s.08 2.315-.639 2.794c-.718.48 3.857.631 4.71-2.554.851-3.175 1.379-3.976 2.66-3.816.576.072-.065-.765 2.686 1.37.668 4.142-2.631 9.232-3.19 9.232-.958-.16-6.418-2.687-6.418-2.687-.389.583-.613.751-2.246 1.197-2.42.661-1.635 3.007-.677 3.725.958.719 2.794 1.517 4.072 1.118 1.277-.4 6.786-2.954 7.744-2.954.958 0 1.677-.027 2.076-.719.238-.412-.603-2.418-.331-9.025.092-2.234-2.144-4.866-2.224-7.82-.06-2.24-9.66-.56-9.66-.56z" fill="#f4f1de" fill-rule="evenodd" stroke="#000" stroke-width=".445"/><path d="M20.003 28.997c0-.102 1.673-2.891 2.877-4.165.998-1.056-.642-.036-.642-.036l-2.184 2.717z" fill="#d0caa6" fill-rule="evenodd"/><path d="M25.857 18.383s1.754.557 1.328 2.146c-.239.89-.97 2.044-2.708 1.941-1.62-.095 1.737-.613 1.38-4.087z" fill="#d1caa9" fill-rule="evenodd"/><path d="M18.806 17.714s8.629.529 8.935.324c.307-.204-.045-.835-.045-.835l-9.146-.358z" fill="#d0cbad" fill-rule="evenodd"/><path d="M12.447 15.255s.082-1.235.267-1.296c.228-.077 4.384 1.982 6.748 2.135-.839-2.059-1.144-9.646 1.182-16.013 4.104.517 8.71 2.003 13.818 3.031.159.032.478.383.22.554-1.004 1.785-6.352 5.338-6.49 12.48 2.312-.226 4.326-1.364 4.833-1.38.102-.003.272.17.157.367-.84 1.64-.794 1.943-.794 1.943-.12.14-.192.204-.33.213-1.88.117-15.774.88-19.612-2.034z" fill-rule="evenodd" stroke="#000" stroke-width=".148"/><path d="M18.799 25.326c2.653-3.679 4.231-2.662 4.231-.798-1.677.798-5.429 6.387-5.429 6.387-1.556-1.022-2.235-2.086-2.235-4.87-.08-4.232 5.27-5.11 5.27-5.11s-.48-1.597-.16-1.996" fill="#f4f1de" fill-rule="evenodd" stroke="#000" stroke-linecap="round" stroke-linejoin="round" stroke-width=".445"/><path d="M24.359 26.598l2.461 6.292" fill="none" stroke="#000" stroke-linecap="round" stroke-width=".475"/><path d="M23.429 28.917s-.02 3.895.178 4.39m-1.953-3.028c.042.592-.056 2.02-.056 2.02" fill="none" stroke="#000" stroke-linecap="round" stroke-width=".371"/><path d="M20.042 30.596c0 .513-.376 1.557-.376 1.557" fill="none" stroke="#000" stroke-width=".593"/><path d="M21.52 20.879s.484 1.44 2.125 1.522c1.232.061 2.961-1.194 2.797-2.589s-.82-1.886-2.215-1.64" fill="#fff" fill-rule="evenodd" stroke="#000" stroke-width=".504"/><path d="M22.95 23.41s4.1-2.438 8.383 2.874c3.318 4.117 6.344 1.292 6.344-.207 0-2.277-3.8-2.669-3.8.766-.559.479-1.134-2.949 2.139-2.949 2.485 0 2.519 2.728 1.624 4.28-.853 1.476-4.165 3.422-7.266-.692-4.151-5.51-7.335-2.786-7.335-2.786z" fill="#040100" fill-rule="evenodd" stroke="#000" stroke-width=".148"/><path d="M15.573 28.558s-1.75 1.264-2.528 2.674c-.569 1.03-2.599 2.605-4.328.876-1.638-1.638.827-5.3 2.917-3.696-.371.285-1.622-.574-2.43.827-.502.868-.682 2.82 1.02 2.82 2.24 0 1.556-2.869 5.057-5.349" fill="#010101" fill-rule="evenodd" stroke="#000" stroke-width=".148"/><path d="M25.425 19.559c-.372.022-.55.453-.316.661.326.289.609.034.655-.104.115-.338.015-.578-.34-.557z" fill-rule="evenodd"/><path d="M17.708 37.313c-.307-.409-.869-1.584.587-2.478" fill="none" stroke="#000" stroke-linecap="round" stroke-width=".445"/><path d="M29.33 17.412l-.306 2.759-.51.255-.716-3.065z" fill-rule="evenodd"/><path d="M15.094 17.899c-.456-.79 3.415-2.891 4.06-.483.548 2.045.537 3 2.002 3.062 1.52.063 3.015-3.322 3.321-3.27.307.05.614.51.052.97-.562.46-2.007 3.027-3.628 2.81-1.533-.204-2.345-3.955-3.579-4.114-1.65-.213-1.999 1.422-2.228 1.025z" fill-rule="evenodd" stroke="#000" stroke-width=".148"/><path d="M18.252 21.753s-1.914-1.028-.585-2.605c1.329-1.578 1.329-.815 1.329-.815.443 1.205 1.506 2.552 1.506 2.552z" fill="#fff" fill-rule="evenodd" stroke="#000" stroke-width=".445"/><path d="M19.546 19.91c.15-.219.709.567.602.744-.088.107-1.56.302-.602-.744z" fill-rule="evenodd"/><path d="M30.456 23.426s1.554.1 1.604-1.604c.05-1.704-1.003-1.955-1.003-1.955s-1.403.35-1.002 1.203c.4.852 1.052.952.902 1.504-.15.551-.401.902-.501.852z" fill="#d1caac" fill-rule="evenodd"/><path d="M30.087 23.653s1.64-1.032.35-2.08c-1.277-1.037.417-2.075 1.135-1.596" fill="none" stroke="#000" stroke-linecap="round" stroke-width=".445"/><path d="M24.388 38.673s1.226.37 1.39.738c.454 1.02-.312 2.297-.34 2.893-.03.596.652 3.546.056 3.574-.596.029-1.163.37-1.22-.482-.057-.851-4.425.057-4.425.057l-1.277-5.708s3.603-1.611 5.816-1.072z" fill="#f5f2de" fill-rule="evenodd" stroke="#000" stroke-width=".445"/><path d="M20.048 46.417s-2.213-4.425-2.61-5.362c-.397-.936 3.223-2.638 4.567-2.638 2.464 0 2.553-.096 2.553 1.163 0 1.618-1.366-.187-3.971.511-1.572.421-1.638.31-1.334 1.447.49 1.829.925.404 2.44.113 2.192-.42 2.638-.428 2.638.688 0 .81-.035 1.303-2.156.9-1.83-.347-2.09.215-1.787.909.369.842.683.198 1.986.198.482 0 1.876.502 1.759.993-.137.573-.526.921-1.532.34-1.18-.68-1.419.823-1.73.795-.313-.029-.823-.029-.823-.057z" fill="#f6f1df" fill-rule="evenodd" stroke="#000" stroke-width=".445"/><path d="M26.204 39.325s-.256-1.333.17-2.156c.425-.823 1.248-1.447 1.248-1.447s.284.965.34 1.135c.057.17-1.758 2.496-1.758 2.468zm1.73 1.419s.168-2.243.76-3.621c.19-.445.55-.528.8-.708l.596 1.833zm-2.059 2.197c0-.207.665-.208.966-.144.135.41-.041 1.953.164 2.98.206 1.028.206 1.522.206 1.522-.596.061-1.234.412-1.234-.638 0-1.092.185-.863.185-1.418 0-.514-.367-1.02-.287-2.302zm-7.317 1.316s.863 1.912.904 2.179c.041.267.083 1.11-.432 1.11-.62 0-.493-.061-.493-1.46 0-1.09.02-1.829.02-1.829zm10.985-8.977c.444.346.716 2.177.815 2.103.098-.074.296-1.163.296-2.152 0-.94-.025-.223-1.111.049z" fill="#fefefe" fill-rule="evenodd"/><path d="M25.276 24.5l3.16 5.144" fill="none" stroke="#000" stroke-linecap="round" stroke-width=".519"/><path d="M19.372 32.082c2.59.672 6.222 2.653 6.75 2.413 0 0 3.077-2.719 3.361-8.372" fill="none" stroke="#000" stroke-width=".445"/><path d="M19.823 32.345s-3.587 1.098-3.806 1.83c-.22.732-.366 2.561 1.83 3.293 2.195.732 2.561.732 2.561.732" fill="none" stroke="#000" stroke-width=".148"/></svg>