<svg viewBox="0 0 512 512" xmlns="http://www.w3.org/2000/svg"><path d="M333.695 294.185c-4.951-6.636-3.604-16.025 3.018-20.991C370.697 247.778 391 207.334 391 165c0-74.443-60.557-135-135-135S121 90.557 121 165c0 42.334 20.303 82.778 54.287 108.193 6.621 4.966 7.969 14.355 3.018 20.991a14.968 14.968 0 01-21.006 3.032C115.785 266.162 91 216.738 91 165 91 74.019 165.033 0 256 0s165 74.019 165 165c0 51.738-24.785 101.162-66.299 132.217-6.504 4.878-15.93 3.727-21.006-3.032z" fill="#80bfff"/><path d="M317.084 232.705c-6.475-5.171-7.559-14.604-2.373-21.079C325.374 198.237 331 182.124 331 165c0-41.353-33.633-75-75-75s-75 33.647-75 75c0 17.124 5.624 33.237 16.289 46.626 5.186 6.475 4.102 15.908-2.373 21.079-6.416 5.142-15.879 4.102-21.064-2.388C159.115 211.846 151 188.643 151 165c0-57.891 47.109-105 105-105s105 47.109 105 105c0 23.643-8.115 46.846-22.852 65.317-5.194 6.533-14.649 7.507-21.064 2.388z" fill="#80bfff"/><path d="M376 482h-18.853c-35.644-119.298-85.202-286.853-87.451-292.546-1.583-3.901-4.537-6.627-7.972-8.066-.502-.214-2.369-.793-2.853-.884-.959-.194-1.897-.249-2.886-.253-.963.007-1.868.06-2.798.247-.502.093-2.446.696-2.966.919-3.406 1.44-6.336 4.147-7.925 8.057-1.973 4.912-28.356 93.877-45.549 150.886-.022.066-.04.128-.059.194L154.853 482H136c-8.291 0-15 6.709-15 15s6.709 15 15 15h60c8.291 0 15-6.709 15-15s-6.709-15-15-15h-9.851l8.998-32h121.707l8.998 32H316c-8.291 0-15 6.709-15 15s6.709 15 15 15h60c8.291 0 15-6.709 15-15s-6.709-15-15-15zM256 247.158L280.851 330h-49.702zM289.853 360l13.264 44.213L251.532 360zm-71.119 11.375L275.468 420h-71.32z" fill="#5c6699"/><path d="M391 165c0 42.334-20.303 82.778-54.287 108.193-6.621 4.966-7.969 14.355-3.018 20.991 5.08 6.765 14.508 7.906 21.006 3.032C396.215 266.162 421 216.738 421 165 421 74.019 346.967 0 256 0v30c74.443 0 135 60.557 135 135z" fill="#69f"/><path d="M331 165c0 17.124-5.626 33.237-16.289 46.626-5.186 6.475-4.102 15.908 2.373 21.079 6.42 5.122 15.873 4.14 21.064-2.388C352.885 211.846 361 188.643 361 165c0-57.891-47.109-105-105-105v30c41.367 0 75 33.647 75 75z" fill="#69f"/><path d="M376 482h-18.853c-35.644-119.298-85.202-286.853-87.451-292.546-1.583-3.901-4.537-6.627-7.972-8.066-.502-.214-2.369-.793-2.853-.884-.954-.192-1.888-.247-2.871-.251v66.905L280.851 330H256v30h33.853l13.264 44.213L256 363.829v39.485L275.468 420H256v30h60.853l8.998 32H316c-8.291 0-15 6.709-15 15s6.709 15 15 15h60c8.291 0 15-6.709 15-15s-6.709-15-15-15z" fill="#404a80"/><path d="M256 210c-24.814 0-45-20.186-45-45s20.186-45 45-45 45 20.186 45 45-20.186 45-45 45z" fill="#80bfff"/><path d="M301 165c0-24.814-20.186-45-45-45v90c24.814 0 45-20.186 45-45z" fill="#69f"/></svg>