<svg xmlns="http://www.w3.org/2000/svg" viewBox="0 0 480 480"><linearGradient id="a" gradientUnits="userSpaceOnUse" x1="-26.875" y1="556.445" x2="-26.875" y2="634.785" gradientTransform="matrix(8 0 0 -8 455 4941)"><stop offset="0" stop-color="#006df0"/><stop offset="1" stop-color="#00e7f0"/></linearGradient><path d="M472 216h-56v-48a8 8 0 00-8-8H248V96h56a8 8 0 008-8V8a8 8 0 00-8-8H176a8 8 0 00-8 8v80a8 8 0 008 8h56v64H72a8 8 0 00-8 8v48H8a8 8 0 00-8 8v80a8 8 0 008 8h128a8 8 0 008-8v-80a8 8 0 00-8-8H80v-40h152v40h-56a8 8 0 00-8 8v80a8 8 0 008 8h56v72h-56a8 8 0 00-8 8v80a8 8 0 008 8h128a8 8 0 008-8v-80a8 8 0 00-8-8h-56v-72h56a8 8 0 008-8v-80a8 8 0 00-8-8h-56v-40h152v40h-56a8 8 0 00-8 8v80a8 8 0 008 8h128a8 8 0 008-8v-80a8 8 0 00-8-8zM184 16h112v64H184V16zm-56 280H16v-64h112v64zm168 168H184v-64h112v64zm0-232v64H184v-64h112zm168 64H352v-64h112v64z" fill="url(#a)"/></svg>