<svg viewBox="-2 0 512 512" xmlns="http://www.w3.org/2000/svg"><path d="M272 512C122.016 512 0 389.984 0 240 0 107.664 107.664 0 240 0s240 107.664 240 240c0 114.688-93.313 208-208 208S64 354.687 64 240c0-97.04 78.96-176 176-176s176 78.96 176 176c0 79.406-64.61 144-144 144s-144-64.594-144-144c0-61.742 50.238-112 112-112s112 50.258 112 112c0 44.113-35.887 80-80 80s-80-35.887-80-80c0-26.465 21.535-48 48-48s48 21.535 48 48v16h-32v-16c0-8.832-7.184-16-16-16s-16 7.168-16 16c0 26.465 21.535 48 48 48s48-21.535 48-48c0-44.113-35.887-80-80-80s-80 35.887-80 80c0 61.742 50.238 112 112 112s112-50.258 112-112c0-79.406-64.61-144-144-144S96 160.594 96 240c0 97.04 78.96 176 176 176s176-78.96 176-176c0-114.688-93.313-208-208-208S32 125.313 32 240c0 132.336 107.664 240 240 240 85.406 0 165.07-45.984 207.902-120.016l27.7 16.032C459.07 459.886 368.8 512 272 512zm0 0" fill="#40a2e7"/></svg>