<svg version="1.0" xmlns="http://www.w3.org/2000/svg" viewBox="0 0 12000 6410"><path d="M1521 6373c-10-21-50-105-89-188-38-82-148-314-244-515-183-381-515-1075-768-1605-82-170-207-433-279-584-72-150-131-275-131-276s58-123 129-271c233-489 438-917 489-1024 54-115 291-610 550-1150 91-190 209-437 262-550l96-205h8928l114 240c151 318 369 773 593 1240 100 209 217 454 259 545 43 91 110 233 150 315 40 83 148 309 240 503l168 353-53 112c-68 143-372 781-435 912-81 168-395 824-440 920-23 50-120 252-215 450-94 198-221 462-280 588l-109 227H1540l-19-37zm8432-495c9-7 35-53 57-103 23-49 63-135 90-190 26-55 120-251 208-435s239-499 335-700 196-410 222-465 119-249 206-430c88-182 159-339 159-350s-23-67-51-125c-53-110-250-520-324-675-176-371-359-744-362-741-3 2 70 161 162 353 169 352 448 934 525 1097 41 86 42 90 27 120-8 17-74 155-146 306s-149 311-171 355-92 190-156 325-135 286-159 335c-24 50-116 243-205 430-172 360-232 486-350 733l-73 152H1873l-48-102c-102-219-128-272-265-558-193-400-193-401-198-396-2 3 68 155 156 338s201 421 252 528 98 198 104 202 1823 8 4037 8c3205 0 4029-3 4042-12zM1177 4408c-91-189-186-387-210-440-47-102-71-133-38-50 11 26 92 198 181 382s175 363 192 398c16 35 32 61 35 58s-69-159-160-348zm-427-891l-152-314 50-99c114-228 263-546 258-551-3-3-32 50-65 118-215 450-251 526-251 533 0 14 303 636 308 631 2-2-64-145-148-318zm222-1084c22-49 114-243 205-433s185-388 210-440 128-268 230-480c101-212 200-420 220-463l37-77h8076l49 98c28 53 50 94 50 90 2-17-81-184-96-195-13-10-837-13-4042-13-2214 0-4031 4-4037 8s-59 108-118 232-129 270-156 325-124 258-215 450c-200 421-193 407-344 719-67 137-121 253-121 258 0 23 15 0 52-79zm9345-1155c-91-189-184-383-206-432-23-49-44-86-47-83-4 3 68 160 159 349s183 383 206 432 44 86 47 83c4-3-68-160-159-349z" fill="#005b9b"/><path d="M1521 6373c-10-21-50-105-89-188-38-82-148-314-244-515-183-381-515-1075-768-1605-82-170-207-433-279-584-72-150-131-275-131-276s58-123 129-271c233-489 438-917 489-1024 54-115 291-610 550-1150 91-190 209-437 262-550l96-205h8928l114 240c151 318 369 773 593 1240 100 209 217 454 259 545 43 91 110 233 150 315 40 83 148 309 240 503l168 353-53 112c-68 143-372 781-435 912-81 168-395 824-440 920-23 50-120 252-215 450-94 198-221 462-280 588l-109 227H1540l-19-37zm8432-495c9-7 35-53 57-103 23-49 63-135 90-190 26-55 120-251 208-435s239-499 335-700 196-410 222-465 119-249 206-430c88-182 159-339 159-350s-23-67-51-125c-54-111-252-524-324-675-23-49-119-250-212-445-94-195-244-508-333-695s-184-385-210-440c-27-55-67-140-90-190-22-49-48-96-57-102-13-10-837-13-4042-13-2214 0-4031 4-4037 8s-59 108-118 232-129 270-156 325-124 258-215 450c-92 193-188 395-214 450-207 431-262 547-322 670-160 331-259 541-259 549 0 5 76 166 169 360 93 193 241 504 331 691 89 187 186 390 215 450 73 151 353 737 465 975 51 107 98 198 104 202s1823 8 4037 8c3205 0 4029-3 4042-12z" fill="#008ec7"/><path d="M2362 3258l3-953 217-3 218-2 2 377 3 378h860l5-375 5-375h430l3 953 2 952h-440v-780h-870v780h-440l2-952zm2598 177v-775h-610l2-177 3-178h1660l3 178 2 177h-610l-2 773-3 772-222 3-223 2v-775zm1718 3l-3-773-308-3-307-2 2-178 3-177h1660l3 178 2 177h-610v1550h-440l-2-772zm1292-183v-955h428c433 0 565 7 681 36 222 56 389 180 471 349 51 105 70 188 70 311 0 331-191 567-529 654-99 25-281 39-513 40h-168v520h-440v-955zm970 50c78-24 144-69 179-122 45-68 54-104 49-207-3-77-8-99-33-145-37-67-97-113-185-142-57-19-94-22-302-27l-238-4v674l238-5c186-3 249-8 292-22z" fill="#fcfdfe"/></svg>