<svg xmlns="http://www.w3.org/2000/svg" viewBox="0 0 480 480"><path d="M408 480H72c-8.837 0-16-7.163-16-16V16c0-8.837 7.163-16 16-16h264l88 88v376c0 8.837-7.163 16-16 16z" fill="#78b9eb"/><path d="M336 0v72c0 8.837 7.163 16 16 16h72L336 0z" fill="#679fc9"/><path d="M113.016 128h109.968a9.017 9.017 0 019.016 9.016v141.968a9.017 9.017 0 01-9.016 9.016H113.016a9.017 9.017 0 01-9.016-9.016V137.016a9.017 9.017 0 019.016-9.016z" fill="#fbb040"/><path d="M104 48h16v16h-16V48zm32 0h160v16H136V48zm-32 32h192v16H104V80zm144 48h16v16h-16v-16zm32 0h96v16h-96v-16zm-32 48h128v16H248v-16zm0 48h128v16H248v-16zm0 48h128v16H248v-16zm-144 48h16v16h-16v-16zm32 0h240v16H136v-16zm-32 48h272v16H104v-16zm0 48h272v16H104v-16z" fill="#fff"/></svg>