<svg xmlns="http://www.w3.org/2000/svg" viewBox="0 0 511.999 511.999"><g fill="#ffc107"><path d="M202.666 202.666h85.333c5.891 0 10.667 4.776 10.667 10.667v85.333c0 5.891-4.776 10.667-10.667 10.667h-85.333c-5.891 0-10.667-4.776-10.667-10.667v-85.333c0-5.891 4.776-10.667 10.667-10.667z"/><path d="M266.666 224c-5.891.012-10.676-4.754-10.688-10.645a10.668 10.668 0 015.973-9.6c22.464-11.008 58.048-35.52 58.048-54.421 0-5.891 4.776-10.667 10.667-10.667s10.667 4.776 10.667 10.667c0 38.208-62.805 70.08-69.973 73.579a10.697 10.697 0 01-4.694 1.087z"/></g><path d="M117.332 480c-5.891 0-10.667-4.776-10.667-10.667V384c0-5.891 4.776-10.667 10.667-10.667s10.667 4.776 10.667 10.667v85.333c0 5.891-4.776 10.667-10.667 10.667zm298.667 0c-5.891 0-10.667-4.776-10.667-10.667V384c0-5.891 4.776-10.667 10.667-10.667s10.667 4.776 10.667 10.667v85.333c0 5.891-4.776 10.667-10.667 10.667z" fill="#455a64"/><path d="M373.332 32h42.667c5.891 0 10.667 4.776 10.667 10.667v106.667c0 5.891-4.776 10.667-10.667 10.667h-42.667c-5.891 0-10.667-4.776-10.667-10.667V42.666C362.666 36.775 367.441 32 373.332 32z" fill="#cfd8dc"/><path d="M127.679 274.752l-21.333-85.333c-1.427-5.713-7.214-9.189-12.928-7.765L8.084 202.986c-5.713 1.427-9.189 7.214-7.765 12.928l21.333 85.333a10.666 10.666 0 0012.95 7.765l85.333-21.333c5.705-1.436 9.169-7.22 7.744-12.927z" fill="#ffb300"/><path d="M330.666 138.666h128c5.891 0 10.667 4.776 10.667 10.667v149.333c0 5.891-4.776 10.667-10.667 10.667h-128c-5.891 0-10.667-4.776-10.667-10.667V149.333c0-5.891 4.776-10.667 10.667-10.667z" fill="#90a4ae"/><path d="M458.666 298.666h-384c-23.564 0-42.667 19.103-42.667 42.667S51.102 384 74.666 384h384c23.564 0 42.667-19.103 42.667-42.667-.001-23.564-19.103-42.667-42.667-42.667z" fill="#b0bec5"/><g fill="#455a64"><path d="M458.666 394.666h-384c-29.455 0-53.333-23.878-53.333-53.333S45.211 288 74.666 288h384c29.455 0 53.333 23.878 53.333 53.333s-23.878 53.333-53.333 53.333zm-384-85.333c-17.673 0-32 14.327-32 32s14.327 32 32 32h384c17.673 0 32-14.327 32-32s-14.327-32-32-32h-384z"/><path d="M75.092 352c-5.891 0-10.667-4.776-10.667-10.667 0-5.85 4.711-10.608 10.56-10.667h.213c5.891 0 10.667 4.776 10.667 10.667S81.089 352 75.198 352h-.106zm384 0c-5.891 0-10.667-4.776-10.667-10.667 0-5.85 4.711-10.608 10.56-10.667h.213c5.891 0 10.667 4.776 10.667 10.667S465.089 352 459.198 352h-.106zm-192 0c-5.891 0-10.667-4.776-10.667-10.667 0-5.85 4.711-10.608 10.56-10.667h.213c5.891 0 10.667 4.776 10.667 10.667S273.089 352 267.198 352h-.106z"/></g></svg>