<svg viewBox="0 0 512 512" xmlns="http://www.w3.org/2000/svg" xmlns:xlink="http://www.w3.org/1999/xlink"><linearGradient id="b" gradientUnits="userSpaceOnUse" x1="166.882" x2="224.477" y1="314.199" y2="314.199"><stop offset="0" stop-color="#cc8241"/><stop offset="1" stop-color="#dea861"/></linearGradient><linearGradient id="c" gradientUnits="userSpaceOnUse" x1="99.238" x2="314.928" y1="57.996" y2="182.524"><stop offset="0" stop-color="#dea861"/><stop offset="1" stop-color="#ebcba0"/></linearGradient><linearGradient id="a"><stop offset="0" stop-color="#236568"/><stop offset="1" stop-color="#2f878a"/></linearGradient><linearGradient id="d" gradientUnits="userSpaceOnUse" x1="437.587" x2="450.693" xlink:href="#a" y1="194.447" y2="171.746"/><linearGradient id="e" gradientUnits="userSpaceOnUse" x1="347.036" x2="357.574" xlink:href="#a" y1="351.285" y2="333.032"/><path d="M425.599 377.621V116.397L6.328 134.377v261.224c-.001 5.986 2.961 11.971 8.885 15.392l166.091 95.893a38.18 38.18 0 0038.179 0l197.232-113.872c5.923-3.421 8.885-9.407 8.884-15.393z" fill="url(#b)"/><path d="M15.213 118.987L212.445 5.115a38.177 38.177 0 0138.178 0l166.091 95.893c11.847 6.84 11.847 23.94 0 30.78L219.482 245.659a38.177 38.177 0 01-38.178 0L15.213 149.767c-11.847-6.84-11.847-23.94 0-30.78z" fill="url(#c)"/><path d="M79.165 82.064l211.836 122.304 56.192-32.443L135.357 49.622z" fill="#dea861"/><path d="M112.75 62.657l211.836 122.304-11.007 6.355L101.743 69.012zm178.251 141.711v46.406l56.192-32.443v-46.406z" fill="#cc8241"/><path d="M500.413 198.225a13.242 13.242 0 00-2.931-1.665l-40.409-22.954c-6.528-4.935-15.925-2.827-19.72 4.424l-75.348 145.09-.802-.606a22.664 22.664 0 00-7.734-3.781l-.021-.039-35.585-20.799a22.753 22.753 0 00-6.195-3.309l-.077-.044.009.018c-10.325-3.597-22.274.649-27.662 10.944-5.165 9.868-2.439 22.023 6.446 28.74l68.562 51.831 43.339 24.619 101.874-195.762a13.24 13.24 0 00-3.746-16.707z" fill="url(#d)"/><path d="M361.203 322.514a22.669 22.669 0 00-7.733-3.781l-.021-.039-35.585-20.799a22.753 22.753 0 00-6.195-3.309l-.077-.044.01.018c-10.325-3.597-22.274.649-27.662 10.944-5.165 9.868-2.439 22.023 6.446 28.74l68.561 51.831 43.339 24.619z" fill="url(#e)"/><path d="M402.287 410.693l-68.562-51.831c-8.884-6.716-11.611-18.872-6.446-28.739 6.529-12.473 22.695-16.099 33.925-7.609l41.083 31.059 78.406-150.924c3.795-7.251 13.191-9.359 19.72-4.424a13.244 13.244 0 013.748 16.706z" fill="#06daae"/></svg>