<svg viewBox="0 0 512 512" xmlns="http://www.w3.org/2000/svg" xmlns:xlink="http://www.w3.org/1999/xlink"><linearGradient id="a"><stop offset="0" stop-color="#cc8241"/><stop offset="1" stop-color="#dea861"/></linearGradient><linearGradient id="b" gradientUnits="userSpaceOnUse" x1="221.854" x2="264.803" xlink:href="#a" y1="329.135" y2="329.135"/><linearGradient id="c" gradientUnits="userSpaceOnUse" x1="1.588" x2="409.599" y1="33.588" y2="282.42"><stop offset="0" stop-color="#dea861"/><stop offset=".328" stop-color="#e3b67b"/><stop offset=".752" stop-color="#e9c596"/><stop offset="1" stop-color="#ebcba0"/></linearGradient><linearGradient id="d" gradientUnits="userSpaceOnUse" x1="302.793" x2="157.998" xlink:href="#a" y1="188.338" y2="188.338"/><path d="M414.78 376.429V181.634l-312.652 13.407v194.795c-.001 4.464 2.208 8.927 6.626 11.478l123.854 71.507a28.468 28.468 0 0028.47 0l147.076-84.914c4.418-2.55 6.627-7.014 6.626-11.478z" fill="url(#b)"/><path d="M504.326 228.713l-73.655-42.525c-2.43-1.403-2.439-4.907-.017-6.323l74.722-43.678c8.673-5.007 8.869-17.456.358-22.734L386.703 39.639a28.468 28.468 0 00-29.237-.46l-75.018 43.84a22.015 22.015 0 01-22.117.058l-74.988-43.294a32.978 32.978 0 00-33.869.533L13.588 125.823c-9.859 6.114-9.632 20.535.415 26.336l68.896 39.777c2.435 1.405 2.438 4.918.007 6.329l-76.28 44.26c-8.833 5.1-8.833 17.849 0 22.949l123.859 71.51a28.47 28.47 0 0028.468 0l72.231-41.91a22.018 22.018 0 0122.058-.024l74.628 43.086a32.978 32.978 0 0032.978 0l143.48-82.838c10.23-5.909 10.23-20.678-.002-26.585z" fill="url(#c)"/><path d="M108.754 183.565L255.83 98.651a28.468 28.468 0 0128.47 0l123.854 71.507c8.835 5.101 8.835 17.852 0 22.953l-147.076 84.914a28.468 28.468 0 01-28.47 0l-123.854-71.507c-8.834-5.101-8.834-17.852 0-22.953z" fill="url(#d)"/><path d="M404.317 353.603l-13.893-20.84-13.894 36.882 7.316-4.224v12.494l13.155-7.595v-12.494zm0 15.63l-27.787 16.043v6.758l27.787-16.043z" fill="#5d3645"/></svg>