<svg version="1.0" xmlns="http://www.w3.org/2000/svg" viewBox="0 0 4820 4820"><path d="M2128 4804c-532-61-1037-305-1416-684-200-200-340-396-462-645-116-236-184-451-227-710-25-157-25-555 0-710C123 1451 409 941 861 563 1543-8 2477-158 3303 171c797 318 1351 1017 1494 1884 25 156 25 554 0 710-43 260-111 475-227 710-286 583-781 1016-1393 1219-336 112-700 150-1049 110z"/><path d="M2144 4805c-439-48-884-231-1229-504-90-71-280-256-352-343-288-345-468-749-540-1208-24-159-25-518 0-680 79-516 298-963 652-1329 245-254 526-443 845-569C1803 59 2033 13 2355 3c202-6 347 7 545 48 378 78 757 261 1050 507 466 391 752 902 847 1512 25 161 25 519 0 680-72 459-252 863-540 1208-72 87-262 272-352 343-490 389-1132 572-1761 504zm576-25c128-16 341-67 470-112 231-80 510-233 705-386 90-71 316-297 387-387 209-267 367-590 447-916 51-212 65-331 65-569 0-243-15-370-69-585-80-319-241-644-444-900-82-103-263-287-366-370-297-240-649-407-1024-484-686-143-1416 31-1966 467-103 81-286 264-369 367-222 275-386 606-466 940-51 209-64 329-64 565s13 356 64 565c80 334 246 668 465 940 83 103 267 284 370 366 192 153 473 307 705 387 140 48 352 98 480 112 52 5 111 12 130 14 61 7 391-2 480-14z" fill="#007070"/><path d="M2085 4319c-423-65-720-455-829-1091-6-33-17-43-134-121-333-223-557-512-612-792-19-91-14-248 8-325 89-304 339-520 762-659 70-23 318-81 345-81 2 0 41-57 88-127 129-192 284-356 439-461 75-51 225-120 313-143 104-27 253-29 350-4 375 96 647 486 749 1077 6 33 16 43 104 101 138 90 235 172 347 289 114 120 160 185 221 311 62 130 85 227 85 362 1 129-18 202-80 322-141 271-479 483-899 564-59 11-116 22-128 24-14 3-52 51-110 137-69 104-118 163-224 269-139 139-183 174-305 242-159 88-345 129-490 106zm191-44c287-46 560-251 799-599 32-47 56-88 53-91-3-4-73-1-154 6-291 22-640-14-979-101-234-61-403-124-607-226-61-31-88-40-88-30 0 37 44 220 76 315 110 330 282 557 501 665 84 41 123 54 198 65 88 13 101 12 201-4zm719-725c77-6 148-13 158-16 20-6 118-196 176-342 136-343 208-685 226-1077 6-126-6-382-21-442-4-16-35-37-112-77-380-193-824-307-1297-332-116-6-410 8-457 22-20 6-109 178-171 329-139 342-214 691-232 1090-6 128 6 382 22 444 5 19 37 39 167 102 315 153 682 255 1041 289 232 22 310 23 500 10zm358-50c48-11 141-37 206-59 382-127 632-351 707-632 21-81 21-229-1-324-33-146-149-343-289-493-95-101-375-316-391-300-3 3 0 71 6 152 19 246-11 594-75 881-52 232-143 490-245 694-60 118-64 113 82 81zm-2120-452c-14-147-6-469 17-643 47-359 149-704 297-999l55-109-48 7c-135 18-329 78-472 146-287 137-466 327-527 561-22 81-22 231 0 324 46 199 207 436 413 606 99 82 249 189 265 189 5 0 5-36 0-82zm2268-1565c-69-339-224-630-420-788-228-184-494-208-776-71-157 76-291 183-418 334-82 98-203 269-196 277 3 3 79 0 168-6 500-35 1108 92 1576 328 44 23 81 37 83 32s-6-52-17-106z" fill="#fd9800"/><path d="M2085 4319c-445-68-746-490-841-1179-26-182-23-523 5-735 101-759 451-1434 903-1743 75-51 225-120 313-143 104-27 253-29 350-4 573 146 893 993 745 1970-69 458-220 862-453 1213-72 109-119 165-227 273-139 139-183 174-305 242-159 88-345 129-490 106zm191-44c294-48 572-260 815-624 197-295 351-702 419-1101 34-208 43-312 43-530 1-594-173-1084-472-1325-134-108-272-159-431-158-491 3-984 523-1234 1302-103 319-149 616-149 961-1 371 60 677 187 946 144 304 368 496 621 533 88 13 101 12 201-4z" fill="#fb00fb"/></svg>