<svg xmlns="http://www.w3.org/2000/svg" viewBox="0 0 400.577 400.577"><path d="M317.43 41.569c0-16.896-13.824-30.72-30.72-30.72H30.72C13.824 10.849 0 24.673 0 41.569v317.44c0 16.896 13.824 30.72 30.72 30.72h256c16.896 0 30.72-13.824 30.72-30.72l-.01-317.44" fill="#dadee0"/><path d="M256 266.849c-23.306 0-44.682-8.212-61.43-21.873l121.856 121.856a30.584 30.584 0 001.014-7.818l-.005-114.048c-16.748 13.67-38.129 21.883-61.435 21.883z" fill="#c7ced2"/><path d="M256 87.649c-45.169 0-81.92 36.746-81.92 81.915 0 45.174 36.751 81.925 81.92 81.925 24.468 0 46.408-10.844 61.435-27.909l-.005-108.027C302.408 98.488 280.474 87.649 256 87.649z" fill="#1bb7ea"/><g fill="#a4abb1"><path d="M78.956 279.649h66.56a7.68 7.68 0 000-15.36h-66.56a7.68 7.68 0 000 15.36M169.088 213.089H78.956a7.68 7.68 0 000 15.36h99.732a97.443 97.443 0 01-9.6-15.36zM158.72 169.564c0-2.591.189-5.135.384-7.675H78.956a7.68 7.68 0 000 15.36h80.154c-.201-2.545-.39-5.09-.39-7.685zM178.688 110.689H78.956a7.68 7.68 0 000 15.36h90.132a96.988 96.988 0 019.6-15.36z"/></g><path d="M396.826 288.516l-62.039-62.039c11.587-16.01 18.493-35.63 18.493-56.914 0-53.724-43.551-97.275-97.28-97.275-53.74 0-97.28 43.551-97.28 97.275 0 53.729 43.54 97.285 97.28 97.285 23.214 0 44.503-8.156 61.23-21.729l61.496 61.496c5.002 5.002 13.102 5.002 18.099 0 5.003-4.991 5.003-13.101.001-18.099zm-197.643-60.067h38.497a7.68 7.68 0 000-15.36h-50.949c-6.676-10.578-11.028-22.748-12.257-35.84h63.206a7.68 7.68 0 000-15.36h-63.206c1.224-13.092 5.581-25.262 12.252-35.84h50.954a7.68 7.68 0 000-15.36h-38.497c14.746-14.234 34.755-23.04 56.822-23.04 45.169 0 81.92 36.746 81.92 81.915 0 45.174-36.751 81.925-81.92 81.925-22.062 0-42.076-8.807-56.822-23.04z" fill="#1f4254"/></svg>