<svg xmlns="http://www.w3.org/2000/svg" viewBox="0 0 512 512"><path d="M221.867 477.867H128a8.533 8.533 0 000 17.066h93.867a8.533 8.533 0 000-17.066zm281.6 0h-51.2c-4.713 0-8.533 3.82-8.533 8.533s3.82 8.533 8.533 8.533h51.2c4.713 0 8.533-3.82 8.533-8.533s-3.82-8.533-8.533-8.533zm-119.467 0h-93.867a8.533 8.533 0 000 17.066H384c4.713 0 8.533-3.82 8.533-8.533s-3.82-8.533-8.533-8.533zm-324.267 0h-51.2a8.533 8.533 0 000 17.066h51.2c4.713 0 8.533-3.82 8.533-8.533s-3.82-8.533-8.533-8.533zM256 392.533a8.533 8.533 0 00-8.533 8.533v68.267a8.533 8.533 0 0017.066 0v-68.267a8.533 8.533 0 00-8.533-8.533zm162.133-42.666a8.533 8.533 0 00-8.533 8.533v110.933a8.533 8.533 0 0017.066 0V358.4a8.532 8.532 0 00-8.533-8.533zm-324.266 0a8.533 8.533 0 00-8.533 8.533v110.933a8.533 8.533 0 0017.066 0V358.4a8.533 8.533 0 00-8.533-8.533z" fill="#7f8c8d"/><path d="M68.267 469.333h51.2a8.533 8.533 0 018.533 8.533v17.067a8.533 8.533 0 01-8.533 8.533h-51.2a8.533 8.533 0 01-8.533-8.533v-17.067a8.533 8.533 0 018.533-8.533zm324.266 0h51.2a8.533 8.533 0 018.533 8.533v17.067a8.533 8.533 0 01-8.533 8.533h-51.2a8.533 8.533 0 01-8.533-8.533v-17.067a8.534 8.534 0 018.533-8.533zm-162.133 0h51.2a8.533 8.533 0 018.533 8.533v17.067a8.533 8.533 0 01-8.533 8.533h-51.2a8.533 8.533 0 01-8.533-8.533v-17.067a8.533 8.533 0 018.533-8.533z" fill="#bdc3c7"/><path d="M25.6 51.2h145.067v307.2H25.6c-9.414-.028-17.039-7.653-17.067-17.067V68.267C8.561 58.852 16.186 51.228 25.6 51.2z" fill="#2c3e50"/><path d="M8.533 68.267v68.267h162.133V51.2H25.6c-9.414.028-17.039 7.652-17.067 17.067z" fill="#35495e"/><path d="M119.467 179.2h-51.2a8.533 8.533 0 010-17.066h51.2a8.533 8.533 0 010 17.066zm-51.2 17.067h51.2a8.533 8.533 0 010 17.066h-51.2a8.533 8.533 0 01-8.533-8.533 8.532 8.532 0 018.533-8.533z" fill="#547580"/><circle cx="93.867" cy="281.6" r="25.6" fill="#4c8056"/><path d="M102.4 85.333H42.667a8.533 8.533 0 000 17.066H102.4a8.533 8.533 0 000-17.066zm42.667 0h-8.533a8.533 8.533 0 000 17.066h8.533a8.533 8.533 0 000-17.066zM486.4 51.2H341.333v307.2H486.4c9.414-.028 17.039-7.653 17.067-17.067V68.267c-.028-9.415-7.653-17.039-17.067-17.067z" fill="#2c3e50"/><path d="M503.467 68.267v68.267H341.333V51.2H486.4c9.414.028 17.039 7.652 17.067 17.067z" fill="#35495e"/><path d="M392.533 179.2h51.2a8.533 8.533 0 000-17.066h-51.2a8.533 8.533 0 000 17.066zm51.2 17.067h-51.2a8.533 8.533 0 000 17.066h51.2a8.533 8.533 0 008.533-8.533 8.532 8.532 0 00-8.533-8.533z" fill="#547580"/><circle cx="418.133" cy="281.6" r="25.6" fill="#4c8056"/><path d="M426.667 85.333h-59.733a8.533 8.533 0 000 17.066h59.733a8.533 8.533 0 000-17.066zm42.666 0H460.8a8.533 8.533 0 000 17.066h8.533a8.533 8.533 0 000-17.066z" fill="#2c3e50"/><path d="M153.6 136.533V384c.028 9.414 7.652 17.039 17.067 17.067h170.667c9.414-.028 17.039-7.652 17.067-17.067V25.6c-.028-9.414-7.652-17.039-17.067-17.067H170.667c-9.414.028-17.039 7.652-17.067 17.067v25.6" fill="#3f5c6c"/><path d="M358.4 25.6v85.333H153.6V25.6c.028-9.414 7.652-17.039 17.067-17.067h170.667c9.414.028 17.038 7.653 17.066 17.067z" fill="#547580"/><circle cx="256" cy="324.267" r="25.6" fill="#71c285"/><path d="M281.6 51.2h-93.867a8.533 8.533 0 000 17.066H281.6a8.533 8.533 0 000-17.066zm42.667 0h-8.533a8.533 8.533 0 000 17.066h8.533a8.533 8.533 0 000-17.066z" fill="#3f5c6c"/><path d="M213.333 153.6h85.333a8.533 8.533 0 000-17.066h-85.333a8.533 8.533 0 000 17.066zm85.334 17.067h-85.333a8.533 8.533 0 000 17.066h85.333c4.713 0 8.533-3.82 8.533-8.533s-3.82-8.533-8.533-8.533zm0 34.133h-85.333c-4.713 0-8.533 3.82-8.533 8.533s3.82 8.533 8.533 8.533h85.333a8.533 8.533 0 000-17.066z" fill="#84b5cb"/></svg>