<svg xmlns="http://www.w3.org/2000/svg" viewBox="0 0 512 512"><path fill="#415a6b" d="M512 53.333l-10.667 88.534L480 120.533l-192 192L214.4 240 35.2 419.2 0 384l214.4-214.4 73.6 73.6L444.8 85.333 423.467 64z"/><path fill="#f3705a" d="M437.333 217.6V512H512V205.867l-32-32z"/><path fill="#66c6b9" d="M309.333 512H384V270.933L309.333 345.6z"/><path fill="#8ad7f8" d="M181.333 327.467V512H256V336l-41.6-41.6z"/><path fill="#ffd15c" d="M53.333 512H128V380.8l-74.667 74.667z"/><path d="M299.733 65.067l14.933-11.733L307.2 35.2 288 36.267c-2.133-3.2-5.333-6.4-9.6-9.6l2.133-19.2L263.467 0l-12.8 14.933a25.992 25.992 0 00-12.8 0L226.133 0 208 7.467l2.133 19.2c-3.2 2.133-6.4 5.333-9.6 9.6l-19.2-2.133-7.467 18.133L188.8 64a25.992 25.992 0 000 12.8l-14.933 11.733 7.467 18.133 19.2-2.133c2.133 3.2 5.333 6.4 9.6 9.6l-2.133 19.2 18.133 7.467 12.8-14.933a25.992 25.992 0 0012.8 0l11.733 14.933 18.133-7.467-2.133-19.2c3.2-2.133 6.4-5.333 9.6-9.6l19.2 2.133 7.467-18.133-14.933-12.8c-1.068-2.133-.001-6.4-1.068-10.666zm-64 25.6c-10.667-4.267-16-16-10.667-26.667 4.267-10.667 16-16 26.667-10.667 10.667 4.267 16 16 10.667 26.667-4.267 9.6-16 14.933-26.667 10.667z" fill="#f3705a"/><path d="M156.8 94.933l11.733-22.4L150.4 55.467l-22.4 12.8-16-6.4-6.4-24.533H80l-6.4 25.6c-6.4 1.067-10.667 3.2-16 6.4L35.2 57.6 18.133 75.733l12.8 22.4-6.4 16L0 120.533v25.6l24.533 6.4c2.133 5.333 4.267 10.667 6.4 14.933l-11.733 22.4 18.133 17.067 22.4-12.8 16 6.4 7.467 24.533h25.6l6.4-24.533c5.333-2.133 10.667-4.267 14.933-6.4l22.4 11.733 17.067-18.133-12.8-22.4 6.4-16 24.533-7.467v-25.6l-24.533-6.4c-1.067-4.266-4.267-9.599-6.4-14.933zM94.933 160C80 160 67.2 148.267 67.2 132.267c0-14.933 11.733-27.733 27.733-27.733 14.933 0 27.733 11.733 27.733 27.733-1.066 13.866-12.799 26.666-27.733 27.733z" fill="#8ad7f8"/><path d="M259.2 36.267c-19.2-8.533-41.6 1.067-50.133 20.267-8.533 19.2 1.067 41.6 20.267 50.133s41.6-1.067 50.133-20.267c7.466-20.267-1.067-42.667-20.267-50.133zm4.267 42.666c-4.267 10.667-16 16-26.667 10.667-10.667-5.333-16-16-10.667-26.667 4.267-10.667 16-16 26.667-10.667 9.6 4.267 14.933 16.001 10.667 26.667z" fill="#f05540"/><path d="M92.8 84.267c-25.6 1.067-46.933 22.4-45.867 48 0 25.6 22.4 46.933 48 45.867 25.6 0 46.933-22.4 45.867-48 0-25.601-21.333-45.867-48-45.867zM94.933 160C80 160 67.2 148.267 67.2 132.267s11.733-27.733 27.733-27.733c14.933 0 27.733 11.733 27.733 27.733S109.867 158.933 94.933 160z" fill="#55c0eb"/></svg>