<svg viewBox="0 0 512 512" xmlns="http://www.w3.org/2000/svg"><path d="M480.11 128.145l-244.126-20.016V403.87l244.125-20.016zm0 0" fill="#03232e"/><g fill="#07485e"><path d="M31.895 128.145v255.71l224.109 20.016V108.13zm0 0"/><path d="M512 0H256.004l-20.02 64.07 20.02 64.075H512zm0 320.07V191.93H256.004L235.984 256l20.02 64.07zM512 512V383.855H256.004l-20.02 64.075 20.02 64.07zm0 0"/></g><path d="M0 0h256.004v128.145H0zm0 191.93h256.004v128.14H0zm0 191.925h256.004V512H0zm0 0" fill="#0b799d"/><path d="M326.07 49.07h138.09v30H326.07zm0 191.93h138.09v30H326.07zm0 191.93h138.09v30H326.07zm0 0" fill="#b4d2d7"/><path d="M47.84 49.07h31.89v30H47.84zm0 0" fill="#00ff94"/><path d="M111.625 49.07h31.895v30h-31.895zm0 0" fill="#ffd422"/><path d="M47.84 241h31.89v30H47.84zm0 0" fill="#00ff94"/><path d="M111.625 241h31.895v30h-31.895zm0 0" fill="#ffd422"/><path d="M47.84 432.93h31.89v30H47.84zm0 0" fill="#00ff94"/><path d="M111.625 432.93h31.895v30h-31.895zm0 0" fill="#ffd422"/></svg>