<svg xmlns="http://www.w3.org/2000/svg" viewBox="0 0 512 512"><circle cx="256" cy="267" r="245" fill="#a53535"/><path d="M61.914 416.511C106.715 474.582 176.982 512 256 512c47.739 0 92.279-13.668 129.948-37.284V134.345H61.914v282.166z" fill="#d9eafc"/><path d="M81.756 134.345H61.914v282.166a246.46 246.46 0 0019.842 22.668V134.345z" fill="#c3ddf4"/><path fill="#02af8e" d="M61.914 35.902h324.03v99.44H61.914z"/><path fill="#0f9390" d="M61.914 35.902h19.842v99.44H61.914z"/><path d="M376.391 0H71.472c-5.257 0-9.558 4.301-9.558 9.558v27.344h324.034V9.558c0-5.257-4.301-9.558-9.557-9.558z" fill="#1a2b63"/><path d="M347.98 295.832a3.583 3.583 0 01-3.572 3.573H201.505a3.583 3.583 0 01-3.572-3.573v-95.744a3.583 3.583 0 013.572-3.573h142.903a3.582 3.582 0 013.572 3.573v95.744z" fill="#52bbef"/><path d="M217.775 295.832v-95.744a3.583 3.583 0 013.572-3.573h-19.842a3.582 3.582 0 00-3.572 3.573v95.744a3.583 3.583 0 003.572 3.573h19.842a3.584 3.584 0 01-3.572-3.573z" fill="#1e99d6"/><path d="M313.711 252.456c-1.267-1.502-3.339-1.502-4.605 0l-18.573 22.036c-1.267 1.502-3.338 1.502-4.604 0l-35.059-41.591c-1.267-1.502-3.338-1.502-4.604 0l-48.332 57.339v5.591a3.583 3.583 0 003.572 3.573h142.903a3.583 3.583 0 003.572-3.573v-2.72l-34.27-40.655z" fill="#02af8e"/><circle cx="326.33" cy="216.58" r="10.718" fill="#ffd00d"/><path d="M342.984 329.464H205.797a7.5 7.5 0 010-15h137.188a7.5 7.5 0 11-.001 15zm0 25.634H205.797a7.5 7.5 0 010-15h137.188a7.5 7.5 0 11-.001 15zm0 25.634H205.797a7.5 7.5 0 010-15h137.188a7.5 7.5 0 11-.001 15zm0 25.635H205.797a7.5 7.5 0 010-15h137.188a7.5 7.5 0 11-.001 15zm-68.319 25.634h-68.868a7.5 7.5 0 010-15h68.868a7.5 7.5 0 010 15zm0-248h-68.868a7.5 7.5 0 010-15h68.868a7.5 7.5 0 010 15z" fill="#1e99d6"/><path d="M97.709 379.863c0-2.75 2.25-5 5-5h66.461c2.75 0 5 2.25 5 5v46.806c0 2.75-2.25 5-5 5h-66.461c-2.75 0-5-2.25-5-5v-46.806zm0-68.039c0-2.75 2.25-5 5-5h66.461c2.75 0 5 2.25 5 5v46.806c0 2.75-2.25 5-5 5h-66.461c-2.75 0-5-2.25-5-5v-46.806z" fill="#eef6ff"/><path d="M97.709 243.785c0-2.75 2.25-5 5-5h66.461c2.75 0 5 2.25 5 5v46.806c0 2.75-2.25 5-5 5h-66.461c-2.75 0-5-2.25-5-5v-46.806zm0-68.039c0-2.75 2.25-5 5-5h66.461c2.75 0 5 2.25 5 5v46.806c0 2.75-2.25 5-5 5h-66.461c-2.75 0-5-2.25-5-5v-46.806z" fill="#ffdd8d"/><path d="M117.551 426.669v-46.806c0-2.75 2.25-5 5-5h-19.842c-2.75 0-5 2.25-5 5v46.806c0 2.75 2.25 5 5 5h19.842c-2.75 0-5-2.25-5-5zm0-68.039v-46.806c0-2.75 2.25-5 5-5h-19.842c-2.75 0-5 2.25-5 5v46.806c0 2.75 2.25 5 5 5h19.842c-2.75 0-5-2.25-5-5z" fill="#c3ddf4"/><path d="M117.551 290.591v-46.806c0-2.75 2.25-5 5-5h-19.842c-2.75 0-5 2.25-5 5v46.806c0 2.75 2.25 5 5 5h19.842c-2.75 0-5-2.25-5-5zm0-68.039v-46.806c0-2.75 2.25-5 5-5h-19.842c-2.75 0-5 2.25-5 5v46.806c0 2.75 2.25 5 5 5h19.842c-2.75 0-5-2.25-5-5z" fill="#ff9f60"/><path d="M308.966 105.576h-170.07a7.5 7.5 0 010-15h170.07a7.5 7.5 0 010 15zm-42.777-28.231h-84.516a7.5 7.5 0 010-15h84.516a7.5 7.5 0 010 15z" fill="#fff"/><path d="M84.851 26.151a7.829 7.829 0 01-5.482-2.262 7.825 7.825 0 01-2.261-5.482c0-2.035.825-4.027 2.261-5.472a7.792 7.792 0 015.482-2.271c2.033 0 4.036.826 5.471 2.271a7.786 7.786 0 012.272 5.472 7.795 7.795 0 01-2.272 5.482 7.806 7.806 0 01-5.471 2.262z" fill="#fe3745"/><path d="M110.242 26.151a7.757 7.757 0 01-7.744-7.743c0-2.035.826-4.027 2.271-5.472a7.789 7.789 0 015.473-2.271c2.044 0 4.036.826 5.482 2.271a7.822 7.822 0 012.261 5.472 7.804 7.804 0 01-2.261 5.471 7.8 7.8 0 01-5.482 2.272z" fill="#ffd00d"/><path d="M135.645 26.151a7.79 7.79 0 01-5.472-2.262 7.796 7.796 0 01-2.271-5.482 7.751 7.751 0 017.743-7.743c2.034 0 4.037.826 5.472 2.271a7.789 7.789 0 012.271 5.472 7.798 7.798 0 01-2.271 5.482 7.827 7.827 0 01-5.472 2.262z" fill="#37c47a"/><path d="M404.248 382.582c0 11.351 9.287 20.638 20.638 20.638h2.064c11.351 0 20.638-9.288 20.638-20.638v-13.413h-43.34v13.413z" fill="#f87eab"/><path d="M445.335 50.904l-17.163-35.346c-1.239-2.553-3.268-2.553-4.507 0l-17.163 35.346c-1.239 2.552-2.254 6.963-2.254 9.801v9.722h43.34v-9.722c0-2.838-1.013-7.249-2.253-9.801z" fill="#ffe2b8"/><path fill="#ffaf10" d="M404.25 69.4h43.34v300.81h-43.34z"/><path fill="#ff9518" d="M404.25 69.4h19.842v300.81H404.25z"/><path d="M423.665 15.558l-9.605 19.779h23.716l-9.604-19.779c-1.239-2.554-3.267-2.554-4.507 0z" fill="#293d7c"/></svg>