<svg version="1.0" xmlns="http://www.w3.org/2000/svg" viewBox="0 0 5120 5120"><path d="M1523 4324L500 3739V1381l1026-585c564-323 1029-586 1034-586 4 0 469 263 1034 585l1026 586v2354l-1029 588c-566 323-1033 587-1037 586-5 0-469-264-1031-585zm1992-113c512-293 934-536 938-540s-420-252-943-551c-842-481-953-542-973-532-92 45-1872 1071-1870 1078 4 17 1877 1084 1898 1081 11-2 439-243 950-536zM1628 3075l922-526V1465c0-596-3-1086-7-1088-5-3-433 239-953 537l-945 541-3 1094-2 1093 32-20c18-11 448-257 956-547zm2852-524V1462l-912-522c-502-288-932-534-955-547l-43-25v2181l953 545c523 299 953 545 955 545 1 1 2-489 2-1088z"/></svg>