<svg version="1.0" xmlns="http://www.w3.org/2000/svg" viewBox="0 0 7920 1380"><path d="M30 1235v-95h3929c2162 0 3931 3 3933 8 2 4 2 46 0 95l-3 87H30v-95zm6950-267c0-24 2-25 48-20 63 6 115-17 139-60 16-30 18-69 21-450l3-418h50l-3 422c-3 400-4 425-23 462-32 63-64 80-156 85-78 3-79 3-79-21zM227 800c-91-23-142-65-179-145-22-48-23-63-26-342L18 20h50l4 283c3 261 5 285 24 327 40 85 115 130 218 130 107 0 180-44 220-130 19-42 21-66 24-327l4-283h50l-4 288c-4 275-5 289-27 340-29 63-93 123-153 141-57 18-154 23-201 11zm3428 1c-82-13-95-20-95-47 0-20 4-24 18-20 89 27 218 34 285 15 114-31 163-174 85-246-27-24-106-65-163-83-70-22-151-68-178-100-31-36-42-83-34-147 6-53 28-87 86-128 40-28 50-30 144-33 78-2 115 1 158 15 51 16 56 20 49 40l-9 21-72-19c-81-21-136-24-191-9-116 33-153 163-69 244 16 16 73 44 131 66 179 68 229 110 238 199 9 96-36 173-126 213-48 22-179 31-257 19zm766-1c-105-22-196-104-237-213-15-42-19-78-19-182 0-121 2-134 27-188 41-86 79-130 150-168 58-31 71-34 169-37 79-3 121 0 163 12 59 18 63 22 43 50-12 16-15 16-52 1-59-25-171-31-236-11-153 44-241 218-210 415 31 202 141 291 345 278 50-3 102-9 114-13 21-6 23-4 20 16-2 16-12 26-33 32-48 13-196 18-244 8zm682 0c-126-25-218-124-248-266-39-183 2-354 106-448 64-57 120-76 229-76s165 19 228 75c125 112 158 366 72 542-69 139-218 206-387 173zm183-55c70-20 125-71 160-147 27-59 29-70 29-194 0-130 0-132-35-200-27-53-46-76-83-101-64-43-143-59-225-45-107 18-185 88-217 195-23 76-20 230 6 312 47 154 200 229 365 180zm1646 56c-8-5-12-23-10-47 3-35 6-39 32-42 16-2 32 2 37 10 29 46-16 107-59 79zm561-1c-74-11-83-16-83-45 0-23 3-25 23-19 55 18 98 24 173 24 70 0 89-4 134-27 93-49 120-148 59-218-37-42-59-54-169-94-171-63-215-112-208-230 4-83 28-119 100-155 44-22 65-26 143-26 90 0 195 21 195 40 0 35-10 38-83 18-177-48-307 8-307 132 0 84 40 120 200 180 148 56 200 101 214 183 9 52-16 136-51 169-65 63-202 90-340 68zM820 410V20h30c28 0 43 19 257 340 124 187 229 340 232 340s5-153 3-340l-3-340h51v780h-27c-25 0-49-32-258-347L875 107l-3 347-2 346h-50V410zm800-1V18l173 4c135 3 180 8 212 21 147 65 213 190 202 382-9 167-63 265-177 322-77 39-157 53-302 53h-108V409zm358 311c113-49 174-159 174-315 1-118-23-187-87-251-67-68-117-85-272-91l-123-6v695l128-4c105-4 136-8 180-28zm372-310V20h215c208 0 215 1 215 20s-7 20-190 20h-191l3 153 3 152 173 3c164 2 172 3 172 22s-7 20-175 20h-175v340h380v50h-430V410zm610-1V18l158 4c150 3 159 5 208 32 69 38 94 82 94 170 0 101-40 166-123 201-31 13-36 19-28 33 5 9 50 86 100 170 50 85 91 158 91 163s-12 9-27 9c-25 0-37-16-128-173l-101-172-97-3-97-3v351h-50V409zm295-12c48-19 74-41 95-83 43-83 12-187-67-225-35-17-69-23-159-27l-114-5v353l108-1c59 0 121-6 137-12zm2435 13V20h138c164 0 226 14 276 65 56 55 70 169 31 245-19 37-65 77-108 95-21 8-36 19-33 23 2 4 43 71 90 150s93 157 101 173c15 29 15 29-14 29-28 0-36-11-133-172l-103-173-97-3-98-3v351h-50V410zm339-33c54-36 74-82 69-158-8-113-64-149-245-157l-113-5v355l123-3c116-4 126-6 166-32zm301 33V20h215c208 0 215 1 215 20s-7 20-190 20h-191l3 153 3 152 178 3c169 2 177 3 177 22s-7 20-180 20h-180v340h380v50h-430V410z" fill="#001c31"/><path d="M30 1235v-95h1713c941 0 1722 3 1735 6 21 6 22 11 22 95v89H30v-95z" fill="#0071b5"/></svg>