<svg xmlns="http://www.w3.org/2000/svg" viewBox="0 0 512 512"><path d="M360.929 338.622s89.293-5.134 117.423-8.252c37.218-4.126 33.549-16.504 33.549-16.504 0-7.221-24.463-47.45-58.711-66.018-28.033-15.197-71.991-29.57-117.423-33.009-37.863-2.866-36.17-56.218-67.099-82.521-11.988-10.196-30.404-13.41-25.162 0s30.404 71.174 0 82.521-109.035 15.472-201.296 90.773c0 0-31.752-12.525-41.937 0-2.795 3.438 16.775 24.757 16.775 24.757S.273 362.001.273 379.882c0 .688 34.947-14.441 41.937-41.261 2.951-11.324 86.938-30.793 150.972-16.504 67.798 15.129 109.035 16.504 109.035 16.504" fill="#585661"/><path d="M436.415 289.109c-5.242-10.659-25.861-25.788-67.099-24.757 0 0 7.688 17.879 25.162 24.757 17.473 6.877 41.937 0 41.937 0zm-89.157 49.513h13.67s89.293-5.134 117.423-8.252c29.783-3.301 33.372-11.873 33.623-15.171-49.098 3.181-117.864-30.599-164.716 23.423z" fill="#f0ebe1"/><path d="M305.599 322.553s-8.274 60.081-3.381 65.582c4.893 5.501 63.642-41.86 67.099-66.018 2.298-16.069-47.215-16.069-63.718.436z" fill="#6b676e"/><path d="M273.236 336.055c-25.402-30.008-65.532-46.512-91.42-46.512-33.009 0-49.513 8.252-24.757 16.504 14.695 4.899 32.265 9.825 45.872 18.177 29.443 6.239 53.36 9.82 70.305 11.831z" fill="#f0ebe1"/><path d="M239.581 248.283c206.304-24.757 272.392 66.916 272.392 66.916.063-.824-.073-1.334-.073-1.334 0-7.221-24.464-47.45-58.711-66.018-28.033-15.196-71.991-29.57-117.423-33.009-37.863-2.865-36.17-56.218-67.099-82.521-11.988-10.195-30.404-13.41-25.162 0s30.404 71.174 0 82.521-109.035 15.473-201.296 90.774c33.69 16.072 48.984-39.522 197.372-57.329z" fill="#6b676e"/></svg>