<svg viewBox="0 0 512 512" xmlns="http://www.w3.org/2000/svg"><path d="M448 264l24 64a59.785 59.785 0 01-49.75-26.63l-9.55-14.32a12.653 12.653 0 00-13.06-5.35C372.49 287.22 343.86 320 224 320c-56.72 0-94.81-2.47-120.15-5.48C64.75 309.89 56 304 56 304l-32-40s32-40 168-64l8.24-19.23A60.653 60.653 0 01256 144l-6.32 50.58a16 16 0 0011.28 17.31l44.61 13.38 91.14 27.34a12.741 12.741 0 003.64.54 12.609 12.609 0 0011.79-8.18A95.416 95.416 0 01488 184z" fill="#4d5e78"/><path d="M448 264l24 64a59.785 59.785 0 01-49.75-26.63l-9.55-14.32a12.653 12.653 0 00-13.06-5.35C372.49 287.22 343.86 320 224 320c-56.72 0-94.81-2.47-120.15-5.48 72.4-14.14 142.68-41.94 201.72-89.25l91.14 27.34a12.741 12.741 0 003.64.54 12.609 12.609 0 0011.79-8.18A95.416 95.416 0 01488 184z" fill="#485870"/><path d="M472 328a59.785 59.785 0 01-49.75-26.63l-9.55-14.32a12.653 12.653 0 00-13.06-5.35C372.49 287.22 343.86 320 224 320c-56.72 0-94.81-2.47-120.15-5.48C64.75 309.89 56 304 56 304l-32-40h424z" fill="#dbdbd9"/><rect fill="#313b4c" height="16" rx="8" width="16" x="72" y="256"/><g fill="#3b495e"><rect height="32" rx="8" width="16" x="104" y="240"/><rect height="32" rx="8" width="16" x="136" y="240"/><rect height="32" rx="8" width="16" x="168" y="240"/></g><rect fill="#b0b0ae" height="16" rx="8" width="40" x="40" y="280"/><path d="M266.473 320.7a50.514 50.514 0 0026.287 24.517 31.519 31.519 0 0011.24 2.534v-33.936c-11.317 2-24.085 3.635-38.607 4.723z" fill="#c7c7c5"/><path d="M200 296h-56l36.354 46.741A65.429 65.429 0 00232 368z" fill="#dbdbd9"/><path d="M376 214.4a38.624 38.624 0 00-27.314 11.314l-9.609 9.609L376 246.4z" fill="#3b495e"/><path d="M348.686 309.492A38.624 38.624 0 00376 320.806v-30.06a301.73 301.73 0 01-32.756 13.305z" fill="#c7c7c5"/><path d="M472 328a59.785 59.785 0 01-49.75-26.63l-9.55-14.32a12.653 12.653 0 00-13.06-5.35C372.49 287.22 343.86 320 224 320c-56.72 0-94.81-2.47-120.15-5.48 49.83-9.73 98.66-25.94 143.5-50.52H448z" fill="#cfcfcd"/></svg>