<svg viewBox="0 0 58 58" xmlns="http://www.w3.org/2000/svg"><g fill="none" transform="translate(-1)"><path d="M56.23 40.82a28 28 0 01-9.16-6.09L39 26.66 37 20l2-4.66 13.73 13.73a28 28 0 016.09 9.16 2 2 0 01-2.59 2.59z" fill="#a5a5a4"/><path d="M58.92 39.51a1.94 1.94 0 01-1.41 1.41L41.39 24.8a1 1 0 111.41-1.41z" fill="#56595e"/><path d="M37.22 11H57c.52 0 .66-.25 1.7-1.29a1 1 0 000-1.42C57.65 7.23 57.53 7 57 7H37z" fill="#a5a5a4"/><path d="M22.94 44H13c-.552 0-1 .448-1 1s-.448 1-1 1H7c-.552 0-1-.448-1-1s-.448-1-1-1H2a1 1 0 00-1 1 5 5 0 005 5h17z" fill="#7f8284"/><path d="M21 42C6.49 27.49 5.84 27.21 3.94 23.71A21 21 0 011 12.6 1.65 1.65 0 012.85 11a1.66 1.66 0 011.47 1.46l.1.94a1 1 0 00.88.88l1.47.17a1 1 0 01.88.89l.16 1.45a1 1 0 00.89.89l1.45.15a1 1 0 01.89.89l.16 1.46a1 1 0 00.88.89l1.47.16a1 1 0 01.88.88l.17 1.47a1 1 0 00.88.88l1.47.17a1 1 0 01.88.88l.26 2.27 2.9 2.9L24 38z" fill="#a5a5a4"/><path d="M30 58a9 9 0 01-9-9V9a9 9 0 0118 0v40a9 9 0 01-9 9z" fill="#c03a2b"/><path d="M30 58c-3.38 0-7-3.44-7-9V9c0-5.48 3.54-9 7-9s7 3.44 7 9v40c0 5.48-3.54 9-7 9z" fill="#e64c3c"/><circle cx="30" cy="9" fill="#d1d4d1" r="5"/><path d="M34 45h-2v-2a1 1 0 00-1-1h-2a1 1 0 00-1 1v2h-2a1 1 0 00-1 1v2a1 1 0 001 1h2v2a1 1 0 001 1h2a1 1 0 001-1v-2h2a1 1 0 001-1v-2a1 1 0 00-1-1z" fill="#ecf0f1"/><path d="M25 20a1 1 0 01-1-1v-2a1 1 0 012 0v2a1 1 0 01-1 1zm0 20a1 1 0 01-1-1V23a1 1 0 012 0v16a1 1 0 01-1 1z" fill="#fb7b76"/></g></svg>